%TF.GenerationSoftware,KiCad,Pcbnew,9.0.7*%
%TF.CreationDate,2026-02-20T13:18:41-05:00*%
%TF.ProjectId,EDDDial,45444444-6961-46c2-9e6b-696361645f70,rev?*%
%TF.SameCoordinates,Original*%
%TF.FileFunction,Paste,Top*%
%TF.FilePolarity,Positive*%
%FSLAX46Y46*%
G04 Gerber Fmt 4.6, Leading zero omitted, Abs format (unit mm)*
G04 Created by KiCad (PCBNEW 9.0.7) date 2026-02-20 13:18:41*
%MOMM*%
%LPD*%
G01*
G04 APERTURE LIST*
G04 Aperture macros list*
%AMRoundRect*
0 Rectangle with rounded corners*
0 $1 Rounding radius*
0 $2 $3 $4 $5 $6 $7 $8 $9 X,Y pos of 4 corners*
0 Add a 4 corners polygon primitive as box body*
4,1,4,$2,$3,$4,$5,$6,$7,$8,$9,$2,$3,0*
0 Add four circle primitives for the rounded corners*
1,1,$1+$1,$2,$3*
1,1,$1+$1,$4,$5*
1,1,$1+$1,$6,$7*
1,1,$1+$1,$8,$9*
0 Add four rect primitives between the rounded corners*
20,1,$1+$1,$2,$3,$4,$5,0*
20,1,$1+$1,$4,$5,$6,$7,0*
20,1,$1+$1,$6,$7,$8,$9,0*
20,1,$1+$1,$8,$9,$2,$3,0*%
G04 Aperture macros list end*
%ADD10C,0.010000*%
%ADD11RoundRect,0.135000X0.035355X-0.226274X0.226274X-0.035355X-0.035355X0.226274X-0.226274X0.035355X0*%
%ADD12RoundRect,0.135000X-0.135000X-0.185000X0.135000X-0.185000X0.135000X0.185000X-0.135000X0.185000X0*%
%ADD13RoundRect,0.140000X0.170000X-0.140000X0.170000X0.140000X-0.170000X0.140000X-0.170000X-0.140000X0*%
%ADD14RoundRect,0.150000X-0.150000X-0.400000X0.150000X-0.400000X0.150000X0.400000X-0.150000X0.400000X0*%
%ADD15RoundRect,0.135000X-0.185000X0.135000X-0.185000X-0.135000X0.185000X-0.135000X0.185000X0.135000X0*%
%ADD16RoundRect,0.140000X-0.170000X0.140000X-0.170000X-0.140000X0.170000X-0.140000X0.170000X0.140000X0*%
%ADD17RoundRect,0.150000X-0.625000X0.150000X-0.625000X-0.150000X0.625000X-0.150000X0.625000X0.150000X0*%
%ADD18RoundRect,0.250000X-0.650000X0.350000X-0.650000X-0.350000X0.650000X-0.350000X0.650000X0.350000X0*%
%ADD19RoundRect,0.150000X0.150000X0.625000X-0.150000X0.625000X-0.150000X-0.625000X0.150000X-0.625000X0*%
%ADD20RoundRect,0.250000X0.350000X0.650000X-0.350000X0.650000X-0.350000X-0.650000X0.350000X-0.650000X0*%
%ADD21RoundRect,0.150000X-0.150000X-0.625000X0.150000X-0.625000X0.150000X0.625000X-0.150000X0.625000X0*%
%ADD22RoundRect,0.250000X-0.350000X-0.650000X0.350000X-0.650000X0.350000X0.650000X-0.350000X0.650000X0*%
%ADD23RoundRect,0.140000X-0.140000X-0.170000X0.140000X-0.170000X0.140000X0.170000X-0.140000X0.170000X0*%
%ADD24RoundRect,0.135000X0.185000X-0.135000X0.185000X0.135000X-0.185000X0.135000X-0.185000X-0.135000X0*%
%ADD25RoundRect,0.218750X0.026517X-0.335876X0.335876X-0.026517X-0.026517X0.335876X-0.335876X0.026517X0*%
%ADD26RoundRect,0.135000X-0.226274X-0.035355X-0.035355X-0.226274X0.226274X0.035355X0.035355X0.226274X0*%
%ADD27RoundRect,0.250000X0.262500X0.450000X-0.262500X0.450000X-0.262500X-0.450000X0.262500X-0.450000X0*%
%ADD28RoundRect,0.140000X0.140000X0.170000X-0.140000X0.170000X-0.140000X-0.170000X0.140000X-0.170000X0*%
%ADD29RoundRect,0.140000X0.219203X0.021213X0.021213X0.219203X-0.219203X-0.021213X-0.021213X-0.219203X0*%
%ADD30RoundRect,0.250000X0.250000X-1.300000X0.250000X1.300000X-0.250000X1.300000X-0.250000X-1.300000X0*%
%ADD31RoundRect,0.140000X0.077224X-0.206244X0.217224X0.036244X-0.077224X0.206244X-0.217224X-0.036244X0*%
%ADD32RoundRect,0.052000X-0.173948X0.106066X0.106066X-0.173948X0.173948X-0.106066X-0.106066X0.173948X0*%
%ADD33RoundRect,0.150000X0.425000X-0.150000X0.425000X0.150000X-0.425000X0.150000X-0.425000X-0.150000X0*%
%ADD34RoundRect,0.075000X0.500000X-0.075000X0.500000X0.075000X-0.500000X0.075000X-0.500000X-0.075000X0*%
%ADD35RoundRect,0.250000X0.750000X-0.840000X0.750000X0.840000X-0.750000X0.840000X-0.750000X-0.840000X0*%
%ADD36R,0.600000X0.400000*%
%ADD37R,0.400000X0.600000*%
%ADD38RoundRect,0.135000X0.135000X0.185000X-0.135000X0.185000X-0.135000X-0.185000X0.135000X-0.185000X0*%
%ADD39RoundRect,0.150000X0.512500X0.150000X-0.512500X0.150000X-0.512500X-0.150000X0.512500X-0.150000X0*%
%ADD40RoundRect,0.150000X-0.512500X-0.150000X0.512500X-0.150000X0.512500X0.150000X-0.512500X0.150000X0*%
%ADD41RoundRect,0.150000X0.150000X-0.512500X0.150000X0.512500X-0.150000X0.512500X-0.150000X-0.512500X0*%
G04 APERTURE END LIST*
D10*
%TO.C,U1*%
X126518389Y-112675347D02*
X126521218Y-112675347D01*
X126523339Y-112676054D01*
X126526168Y-112676054D01*
X126528996Y-112677469D01*
X126531117Y-112678176D01*
X126533946Y-112679590D01*
X126535360Y-112681004D01*
X126538188Y-112682418D01*
X126539603Y-112683833D01*
X126542431Y-112685247D01*
X126543845Y-112686661D01*
X126545967Y-112688782D01*
X127076297Y-113219112D01*
X127078418Y-113221234D01*
X127079832Y-113222648D01*
X127081246Y-113225476D01*
X127082661Y-113226891D01*
X127084075Y-113229719D01*
X127085489Y-113231133D01*
X127086903Y-113233962D01*
X127087610Y-113236083D01*
X127089025Y-113238911D01*
X127089025Y-113241740D01*
X127089732Y-113243861D01*
X127089732Y-113246690D01*
X127090439Y-113248811D01*
X127090439Y-113251639D01*
X127090439Y-113254468D01*
X127090439Y-113257296D01*
X127090439Y-113260125D01*
X127089732Y-113262246D01*
X127089732Y-113265074D01*
X127089025Y-113267196D01*
X127089025Y-113270024D01*
X127087610Y-113272852D01*
X127086903Y-113274974D01*
X127085489Y-113277802D01*
X127084075Y-113279216D01*
X127082661Y-113282045D01*
X127081246Y-113283459D01*
X127079832Y-113286288D01*
X127078418Y-113287702D01*
X127076297Y-113289823D01*
X126171200Y-114194920D01*
X126169079Y-114197041D01*
X126167665Y-114198455D01*
X126164836Y-114199869D01*
X126163422Y-114201284D01*
X126160593Y-114202698D01*
X126159179Y-114204112D01*
X126156351Y-114205526D01*
X126154229Y-114206233D01*
X126151401Y-114207648D01*
X126148573Y-114207648D01*
X126146451Y-114208355D01*
X126143623Y-114208355D01*
X126141502Y-114209062D01*
X126138673Y-114209062D01*
X126135845Y-114209062D01*
X126133016Y-114209062D01*
X126130188Y-114209062D01*
X126128067Y-114208355D01*
X126125238Y-114208355D01*
X126123117Y-114207648D01*
X126120288Y-114207648D01*
X126117460Y-114206233D01*
X126115339Y-114205526D01*
X126112510Y-114204112D01*
X126111096Y-114202698D01*
X126108268Y-114201284D01*
X126106853Y-114199869D01*
X126104025Y-114198455D01*
X126102611Y-114197041D01*
X126100489Y-114194920D01*
X125570159Y-113664590D01*
X125568038Y-113662468D01*
X125566624Y-113661054D01*
X125565210Y-113658226D01*
X125563795Y-113656811D01*
X125562381Y-113653983D01*
X125560967Y-113652569D01*
X125559553Y-113649740D01*
X125558846Y-113647619D01*
X125557431Y-113644791D01*
X125557431Y-113641962D01*
X125556724Y-113639841D01*
X125556724Y-113637012D01*
X125556017Y-113634891D01*
X125556017Y-113632063D01*
X125556017Y-113629234D01*
X125556017Y-113626406D01*
X125556017Y-113623577D01*
X125556724Y-113621456D01*
X125556724Y-113618628D01*
X125557431Y-113616506D01*
X125557431Y-113613678D01*
X125558846Y-113610850D01*
X125559553Y-113608728D01*
X125560967Y-113605900D01*
X125562381Y-113604486D01*
X125563795Y-113601657D01*
X125565210Y-113600243D01*
X125566624Y-113597414D01*
X125568038Y-113596000D01*
X125570159Y-113593879D01*
X126475256Y-112688782D01*
X126477377Y-112686661D01*
X126478791Y-112685247D01*
X126481620Y-112683833D01*
X126483034Y-112682418D01*
X126485863Y-112681004D01*
X126487277Y-112679590D01*
X126490105Y-112678176D01*
X126492227Y-112677469D01*
X126495055Y-112676054D01*
X126497883Y-112676054D01*
X126500005Y-112675347D01*
X126502833Y-112675347D01*
X126504954Y-112674640D01*
X126507783Y-112674640D01*
X126510611Y-112674640D01*
X126513440Y-112674640D01*
X126516268Y-112674640D01*
X126518389Y-112675347D01*
G36*
X126518389Y-112675347D02*
G01*
X126521218Y-112675347D01*
X126523339Y-112676054D01*
X126526168Y-112676054D01*
X126528996Y-112677469D01*
X126531117Y-112678176D01*
X126533946Y-112679590D01*
X126535360Y-112681004D01*
X126538188Y-112682418D01*
X126539603Y-112683833D01*
X126542431Y-112685247D01*
X126543845Y-112686661D01*
X126545967Y-112688782D01*
X127076297Y-113219112D01*
X127078418Y-113221234D01*
X127079832Y-113222648D01*
X127081246Y-113225476D01*
X127082661Y-113226891D01*
X127084075Y-113229719D01*
X127085489Y-113231133D01*
X127086903Y-113233962D01*
X127087610Y-113236083D01*
X127089025Y-113238911D01*
X127089025Y-113241740D01*
X127089732Y-113243861D01*
X127089732Y-113246690D01*
X127090439Y-113248811D01*
X127090439Y-113251639D01*
X127090439Y-113254468D01*
X127090439Y-113257296D01*
X127090439Y-113260125D01*
X127089732Y-113262246D01*
X127089732Y-113265074D01*
X127089025Y-113267196D01*
X127089025Y-113270024D01*
X127087610Y-113272852D01*
X127086903Y-113274974D01*
X127085489Y-113277802D01*
X127084075Y-113279216D01*
X127082661Y-113282045D01*
X127081246Y-113283459D01*
X127079832Y-113286288D01*
X127078418Y-113287702D01*
X127076297Y-113289823D01*
X126171200Y-114194920D01*
X126169079Y-114197041D01*
X126167665Y-114198455D01*
X126164836Y-114199869D01*
X126163422Y-114201284D01*
X126160593Y-114202698D01*
X126159179Y-114204112D01*
X126156351Y-114205526D01*
X126154229Y-114206233D01*
X126151401Y-114207648D01*
X126148573Y-114207648D01*
X126146451Y-114208355D01*
X126143623Y-114208355D01*
X126141502Y-114209062D01*
X126138673Y-114209062D01*
X126135845Y-114209062D01*
X126133016Y-114209062D01*
X126130188Y-114209062D01*
X126128067Y-114208355D01*
X126125238Y-114208355D01*
X126123117Y-114207648D01*
X126120288Y-114207648D01*
X126117460Y-114206233D01*
X126115339Y-114205526D01*
X126112510Y-114204112D01*
X126111096Y-114202698D01*
X126108268Y-114201284D01*
X126106853Y-114199869D01*
X126104025Y-114198455D01*
X126102611Y-114197041D01*
X126100489Y-114194920D01*
X125570159Y-113664590D01*
X125568038Y-113662468D01*
X125566624Y-113661054D01*
X125565210Y-113658226D01*
X125563795Y-113656811D01*
X125562381Y-113653983D01*
X125560967Y-113652569D01*
X125559553Y-113649740D01*
X125558846Y-113647619D01*
X125557431Y-113644791D01*
X125557431Y-113641962D01*
X125556724Y-113639841D01*
X125556724Y-113637012D01*
X125556017Y-113634891D01*
X125556017Y-113632063D01*
X125556017Y-113629234D01*
X125556017Y-113626406D01*
X125556017Y-113623577D01*
X125556724Y-113621456D01*
X125556724Y-113618628D01*
X125557431Y-113616506D01*
X125557431Y-113613678D01*
X125558846Y-113610850D01*
X125559553Y-113608728D01*
X125560967Y-113605900D01*
X125562381Y-113604486D01*
X125563795Y-113601657D01*
X125565210Y-113600243D01*
X125566624Y-113597414D01*
X125568038Y-113596000D01*
X125570159Y-113593879D01*
X126475256Y-112688782D01*
X126477377Y-112686661D01*
X126478791Y-112685247D01*
X126481620Y-112683833D01*
X126483034Y-112682418D01*
X126485863Y-112681004D01*
X126487277Y-112679590D01*
X126490105Y-112678176D01*
X126492227Y-112677469D01*
X126495055Y-112676054D01*
X126497883Y-112676054D01*
X126500005Y-112675347D01*
X126502833Y-112675347D01*
X126504954Y-112674640D01*
X126507783Y-112674640D01*
X126510611Y-112674640D01*
X126513440Y-112674640D01*
X126516268Y-112674640D01*
X126518389Y-112675347D01*
G37*
%TD*%
D11*
%TO.C,R13*%
X82200000Y-105300000D03*
X82921250Y-104578752D03*
%TD*%
D12*
%TO.C,R2*%
X125180000Y-134299998D03*
X126200000Y-134300000D03*
%TD*%
D13*
%TO.C,C2*%
X117600000Y-114530000D03*
X117600000Y-113570000D03*
%TD*%
D14*
%TO.C,Y2*%
X97550000Y-113050000D03*
X98950000Y-113050000D03*
%TD*%
D15*
%TO.C,R4*%
X90550001Y-107414999D03*
X90549999Y-108434999D03*
%TD*%
D16*
%TO.C,C7*%
X100250000Y-112490000D03*
X100250000Y-113450000D03*
%TD*%
D17*
%TO.C,J2*%
X123000000Y-107800000D03*
X123000000Y-108799999D03*
X122999999Y-109800000D03*
D18*
X119125000Y-106499998D03*
X119125001Y-111099998D03*
%TD*%
D19*
%TO.C,J4*%
X104650000Y-123600000D03*
X103650000Y-123600000D03*
X102650000Y-123600000D03*
X101650000Y-123600000D03*
X100650000Y-123600000D03*
D20*
X105950000Y-119725000D03*
X99350000Y-119725000D03*
%TD*%
D21*
%TO.C,J5*%
X87250000Y-110324999D03*
X88250001Y-110324999D03*
X89250000Y-110324999D03*
X90250001Y-110325000D03*
X91250000Y-110324999D03*
D22*
X85950000Y-114199999D03*
X92550000Y-114200000D03*
%TD*%
D12*
%TO.C,R1*%
X125090000Y-133199999D03*
X126110000Y-133200001D03*
%TD*%
D23*
%TO.C,C13*%
X105545000Y-112460000D03*
X106505000Y-112460000D03*
%TD*%
D24*
%TO.C,R11*%
X83499999Y-114660000D03*
X83500001Y-113640000D03*
%TD*%
D15*
%TO.C,R12*%
X82500001Y-113640000D03*
X82499999Y-114660000D03*
%TD*%
D25*
%TO.C,D3*%
X79900000Y-107000000D03*
X81013694Y-105886306D03*
%TD*%
D26*
%TO.C,R16*%
X126970485Y-116006341D03*
X127691733Y-116727591D03*
%TD*%
D27*
%TO.C,R3*%
X107754142Y-113862624D03*
X105929142Y-113862624D03*
%TD*%
D28*
%TO.C,C9*%
X102725000Y-112460000D03*
X101765000Y-112460000D03*
%TD*%
D15*
%TO.C,R5*%
X89550001Y-107414999D03*
X89549999Y-108434999D03*
%TD*%
D29*
%TO.C,C1*%
X128028822Y-112728822D03*
X127350000Y-112050000D03*
%TD*%
D25*
%TO.C,D2*%
X80986306Y-108113694D03*
X82100000Y-107000000D03*
%TD*%
D30*
%TO.C,SW2*%
X74949999Y-127450000D03*
X74950001Y-118550001D03*
X78949999Y-127449999D03*
X78950001Y-118550000D03*
%TD*%
D28*
%TO.C,C10*%
X103180000Y-129100000D03*
X102220000Y-129100000D03*
%TD*%
D31*
%TO.C,C5*%
X124949069Y-110275698D03*
X125429069Y-109444314D03*
%TD*%
D11*
%TO.C,R8*%
X82960627Y-106139378D03*
X83681877Y-105418130D03*
%TD*%
D32*
%TO.C,U1*%
X126146451Y-112133703D03*
X125863609Y-112416546D03*
X125580766Y-112699389D03*
X125297923Y-112982232D03*
X125015080Y-113265074D03*
X126500005Y-114749999D03*
X126782847Y-114467156D03*
X127065690Y-114184313D03*
X127348533Y-113901470D03*
X127631376Y-113618628D03*
%TD*%
D23*
%TO.C,C6*%
X103645000Y-112460000D03*
X104605000Y-112460000D03*
%TD*%
D33*
%TO.C,J1*%
X124745000Y-129090000D03*
X124745000Y-128290000D03*
D34*
X124745001Y-127140000D03*
X124745000Y-126140000D03*
X124745000Y-125640000D03*
X124745001Y-124640000D03*
D33*
X124745000Y-123490000D03*
X124745000Y-122690000D03*
X124745000Y-122690000D03*
X124745000Y-123490000D03*
D34*
X124745000Y-124140000D03*
X124745000Y-125140000D03*
X124745000Y-126640000D03*
X124745000Y-127640000D03*
D33*
X124745000Y-128290000D03*
X124745000Y-129090000D03*
D35*
X125320000Y-131000000D03*
X129250000Y-131000000D03*
X125320000Y-120780000D03*
X129250000Y-120780000D03*
%TD*%
D24*
%TO.C,R7*%
X95299999Y-113510000D03*
X95300001Y-112490000D03*
%TD*%
D36*
%TO.C,U2*%
X96500000Y-99950000D03*
X96499999Y-101050000D03*
X96500000Y-101850000D03*
X96500000Y-103450000D03*
X97400001Y-103850000D03*
X96500000Y-104250000D03*
X97400000Y-104650000D03*
X96500000Y-105050000D03*
X97400000Y-105449999D03*
X96500000Y-105850000D03*
X97400000Y-106250000D03*
X96499999Y-106650000D03*
X97400000Y-107050000D03*
X96500000Y-107450000D03*
D37*
X96350000Y-110850000D03*
X97149999Y-110850000D03*
X97950000Y-110850000D03*
X98750000Y-110850000D03*
X99150000Y-109950000D03*
X99550000Y-110850000D03*
X99949999Y-109950000D03*
X100350000Y-110850000D03*
X100750000Y-109950000D03*
X101150000Y-110849999D03*
X101550000Y-109950000D03*
X101950000Y-110850000D03*
X102350001Y-109950000D03*
X102750000Y-110850000D03*
X103150000Y-109950000D03*
X103550000Y-110850000D03*
X104350000Y-110850000D03*
X105150001Y-110850000D03*
X105950000Y-110850000D03*
D36*
X105800000Y-109850000D03*
X105800000Y-109050000D03*
X104900000Y-108650000D03*
X105800000Y-108249999D03*
X104900000Y-107850001D03*
X105800000Y-107450000D03*
X104900000Y-107050000D03*
X105800001Y-106650000D03*
X104900000Y-106250000D03*
X104900000Y-105449999D03*
X105800000Y-105050000D03*
X104900000Y-104650000D03*
X105800000Y-104250000D03*
X104899999Y-103850000D03*
X105800000Y-103450000D03*
X104900000Y-103050000D03*
X104900000Y-102250000D03*
X105800000Y-101850000D03*
X104900000Y-101450000D03*
X105800001Y-101050000D03*
X104900000Y-100650000D03*
X105800000Y-99950000D03*
D37*
X99150000Y-104250000D03*
X99950000Y-104250000D03*
X100750000Y-104250000D03*
X101550000Y-104250000D03*
X102350000Y-104250000D03*
X103150000Y-104250000D03*
%TD*%
D28*
%TO.C,C4*%
X102730000Y-113400000D03*
X101770000Y-113400000D03*
%TD*%
D38*
%TO.C,R10*%
X108400000Y-109050000D03*
X107380006Y-109049998D03*
%TD*%
D16*
%TO.C,C8*%
X96249997Y-112490001D03*
X96249997Y-113450001D03*
%TD*%
D24*
%TO.C,R6*%
X94899999Y-111260000D03*
X94900001Y-110240000D03*
%TD*%
D39*
%TO.C,U4*%
X115225000Y-114412500D03*
X115225000Y-113462500D03*
X115225000Y-112512500D03*
X112950000Y-112512500D03*
X112950000Y-114412500D03*
%TD*%
D26*
%TO.C,R15*%
X127719657Y-115418545D03*
X128440905Y-116139795D03*
%TD*%
D15*
%TO.C,R14*%
X75300001Y-114800000D03*
X75299999Y-115820000D03*
%TD*%
D38*
%TO.C,R9*%
X108409997Y-110000001D03*
X107390003Y-109999999D03*
%TD*%
D40*
%TO.C,U5*%
X101512500Y-125837500D03*
X101512500Y-126787500D03*
X101512500Y-127737500D03*
X103787500Y-127737500D03*
X103787500Y-126787500D03*
X103787500Y-125837500D03*
%TD*%
D41*
%TO.C,U3*%
X123400002Y-117960624D03*
X124350001Y-117960626D03*
X125300000Y-117960626D03*
X125300000Y-115685628D03*
X124350001Y-115685626D03*
X123400002Y-115685626D03*
%TD*%
D13*
%TO.C,C11*%
X111575000Y-114530000D03*
X111575000Y-113570000D03*
%TD*%
%TO.C,C3*%
X116650000Y-114530000D03*
X116650000Y-113570000D03*
%TD*%
M02*
