%TF.GenerationSoftware,KiCad,Pcbnew,9.0.7*%
%TF.CreationDate,2026-02-20T13:18:41-05:00*%
%TF.ProjectId,EDDDial,45444444-6961-46c2-9e6b-696361645f70,rev?*%
%TF.SameCoordinates,Original*%
%TF.FileFunction,Copper,L1,Top*%
%TF.FilePolarity,Positive*%
%FSLAX46Y46*%
G04 Gerber Fmt 4.6, Leading zero omitted, Abs format (unit mm)*
G04 Created by KiCad (PCBNEW 9.0.7) date 2026-02-20 13:18:41*
%MOMM*%
%LPD*%
G01*
G04 APERTURE LIST*
G04 Aperture macros list*
%AMRoundRect*
0 Rectangle with rounded corners*
0 $1 Rounding radius*
0 $2 $3 $4 $5 $6 $7 $8 $9 X,Y pos of 4 corners*
0 Add a 4 corners polygon primitive as box body*
4,1,4,$2,$3,$4,$5,$6,$7,$8,$9,$2,$3,0*
0 Add four circle primitives for the rounded corners*
1,1,$1+$1,$2,$3*
1,1,$1+$1,$4,$5*
1,1,$1+$1,$6,$7*
1,1,$1+$1,$8,$9*
0 Add four rect primitives between the rounded corners*
20,1,$1+$1,$2,$3,$4,$5,0*
20,1,$1+$1,$4,$5,$6,$7,0*
20,1,$1+$1,$6,$7,$8,$9,0*
20,1,$1+$1,$8,$9,$2,$3,0*%
%AMFreePoly0*
4,1,153,0.406581,0.754743,0.408810,0.754000,0.410000,0.754000,0.411581,0.753743,0.413809,0.753000,0.415000,0.753000,0.416581,0.752743,0.419581,0.751743,0.420236,0.751472,0.421920,0.750630,0.424581,0.749742,0.426536,0.748535,0.427964,0.747108,0.429236,0.746472,0.430535,0.745536,0.431964,0.744108,0.433236,0.743472,0.434536,0.742536,0.442536,0.734536,0.443472,0.733236,
0.444108,0.731964,0.445536,0.730535,0.446472,0.729236,0.447108,0.727964,0.448536,0.726536,0.449743,0.724581,0.450630,0.721920,0.451472,0.720236,0.451743,0.719581,0.452743,0.716581,0.453000,0.715000,0.452999,0.713810,0.453743,0.711581,0.454000,0.710000,0.454000,0.708810,0.454743,0.706581,0.455000,0.705000,0.455000,-0.705000,0.454743,-0.706581,0.454000,-0.708810,
0.454000,-0.710000,0.453743,-0.711581,0.452999,-0.713810,0.453000,-0.715000,0.452743,-0.716581,0.451743,-0.719581,0.451472,-0.720236,0.450630,-0.721920,0.449743,-0.724581,0.448536,-0.726536,0.447108,-0.727964,0.446472,-0.729236,0.445536,-0.730535,0.444108,-0.731964,0.443472,-0.733236,0.442536,-0.734536,0.434536,-0.742536,0.433236,-0.743472,0.431964,-0.744108,0.430535,-0.745536,
0.429236,-0.746472,0.427964,-0.747108,0.426536,-0.748535,0.424581,-0.749742,0.421920,-0.750630,0.420236,-0.751472,0.419581,-0.751743,0.416581,-0.752743,0.415000,-0.753000,0.413809,-0.753000,0.411581,-0.753743,0.410000,-0.754000,0.408810,-0.754000,0.406581,-0.754743,0.405000,-0.755000,-0.405000,-0.755000,-0.406581,-0.754743,-0.408810,-0.754000,-0.410000,-0.754000,-0.411581,-0.753743,
-0.413809,-0.753000,-0.415000,-0.753000,-0.416581,-0.752743,-0.419581,-0.751743,-0.420236,-0.751472,-0.421920,-0.750630,-0.424581,-0.749742,-0.426536,-0.748535,-0.427964,-0.747108,-0.429236,-0.746472,-0.430535,-0.745536,-0.431964,-0.744108,-0.433236,-0.743472,-0.434536,-0.742536,-0.442536,-0.734536,-0.443472,-0.733236,-0.444108,-0.731964,-0.445536,-0.730535,-0.446472,-0.729236,-0.447108,-0.727964,
-0.448536,-0.726536,-0.449743,-0.724581,-0.450630,-0.721920,-0.451472,-0.720236,-0.451743,-0.719581,-0.452743,-0.716581,-0.453000,-0.715000,-0.452999,-0.713810,-0.453743,-0.711581,-0.454000,-0.710000,-0.454000,-0.708810,-0.454743,-0.706581,-0.455000,-0.705000,-0.455000,0.705000,-0.454743,0.706581,-0.454000,0.708810,-0.454000,0.710000,-0.453743,0.711581,-0.452999,0.713810,-0.453000,0.715000,
-0.452743,0.716581,-0.451743,0.719581,-0.451472,0.720236,-0.450630,0.721920,-0.449743,0.724581,-0.448536,0.726536,-0.447108,0.727964,-0.446472,0.729236,-0.445536,0.730535,-0.444108,0.731964,-0.443472,0.733236,-0.442536,0.734536,-0.434536,0.742536,-0.433236,0.743472,-0.431964,0.744108,-0.430535,0.745536,-0.429236,0.746472,-0.427964,0.747108,-0.426536,0.748535,-0.424581,0.749742,
-0.421920,0.750630,-0.420236,0.751472,-0.419581,0.751743,-0.416581,0.752743,-0.415000,0.753000,-0.413809,0.753000,-0.411581,0.753743,-0.410000,0.754000,-0.408810,0.754000,-0.406581,0.754743,-0.405000,0.755000,0.405000,0.755000,0.406581,0.754743,0.406581,0.754743,$1*%
G04 Aperture macros list end*
%TA.AperFunction,ComponentPad*%
%ADD10C,3.800000*%
%TD*%
%TA.AperFunction,SMDPad,CuDef*%
%ADD11RoundRect,0.135000X0.035355X-0.226274X0.226274X-0.035355X-0.035355X0.226274X-0.226274X0.035355X0*%
%TD*%
%TA.AperFunction,SMDPad,CuDef*%
%ADD12RoundRect,0.135000X-0.135000X-0.185000X0.135000X-0.185000X0.135000X0.185000X-0.135000X0.185000X0*%
%TD*%
%TA.AperFunction,SMDPad,CuDef*%
%ADD13RoundRect,0.140000X0.170000X-0.140000X0.170000X0.140000X-0.170000X0.140000X-0.170000X-0.140000X0*%
%TD*%
%TA.AperFunction,SMDPad,CuDef*%
%ADD14RoundRect,0.150000X-0.150000X-0.400000X0.150000X-0.400000X0.150000X0.400000X-0.150000X0.400000X0*%
%TD*%
%TA.AperFunction,SMDPad,CuDef*%
%ADD15RoundRect,0.135000X-0.185000X0.135000X-0.185000X-0.135000X0.185000X-0.135000X0.185000X0.135000X0*%
%TD*%
%TA.AperFunction,SMDPad,CuDef*%
%ADD16RoundRect,0.140000X-0.170000X0.140000X-0.170000X-0.140000X0.170000X-0.140000X0.170000X0.140000X0*%
%TD*%
%TA.AperFunction,SMDPad,CuDef*%
%ADD17RoundRect,0.150000X-0.625000X0.150000X-0.625000X-0.150000X0.625000X-0.150000X0.625000X0.150000X0*%
%TD*%
%TA.AperFunction,SMDPad,CuDef*%
%ADD18RoundRect,0.250000X-0.650000X0.350000X-0.650000X-0.350000X0.650000X-0.350000X0.650000X0.350000X0*%
%TD*%
%TA.AperFunction,SMDPad,CuDef*%
%ADD19RoundRect,0.150000X0.150000X0.625000X-0.150000X0.625000X-0.150000X-0.625000X0.150000X-0.625000X0*%
%TD*%
%TA.AperFunction,SMDPad,CuDef*%
%ADD20RoundRect,0.250000X0.350000X0.650000X-0.350000X0.650000X-0.350000X-0.650000X0.350000X-0.650000X0*%
%TD*%
%TA.AperFunction,SMDPad,CuDef*%
%ADD21RoundRect,0.150000X-0.150000X-0.625000X0.150000X-0.625000X0.150000X0.625000X-0.150000X0.625000X0*%
%TD*%
%TA.AperFunction,SMDPad,CuDef*%
%ADD22RoundRect,0.250000X-0.350000X-0.650000X0.350000X-0.650000X0.350000X0.650000X-0.350000X0.650000X0*%
%TD*%
%TA.AperFunction,SMDPad,CuDef*%
%ADD23RoundRect,0.140000X-0.140000X-0.170000X0.140000X-0.170000X0.140000X0.170000X-0.140000X0.170000X0*%
%TD*%
%TA.AperFunction,SMDPad,CuDef*%
%ADD24RoundRect,0.135000X0.185000X-0.135000X0.185000X0.135000X-0.185000X0.135000X-0.185000X-0.135000X0*%
%TD*%
%TA.AperFunction,ConnectorPad*%
%ADD25C,0.787400*%
%TD*%
%TA.AperFunction,SMDPad,CuDef*%
%ADD26RoundRect,0.218750X0.026517X-0.335876X0.335876X-0.026517X-0.026517X0.335876X-0.335876X0.026517X0*%
%TD*%
%TA.AperFunction,SMDPad,CuDef*%
%ADD27RoundRect,0.135000X-0.226274X-0.035355X-0.035355X-0.226274X0.226274X0.035355X0.035355X0.226274X0*%
%TD*%
%TA.AperFunction,SMDPad,CuDef*%
%ADD28RoundRect,0.250000X0.262500X0.450000X-0.262500X0.450000X-0.262500X-0.450000X0.262500X-0.450000X0*%
%TD*%
%TA.AperFunction,SMDPad,CuDef*%
%ADD29RoundRect,0.140000X0.140000X0.170000X-0.140000X0.170000X-0.140000X-0.170000X0.140000X-0.170000X0*%
%TD*%
%TA.AperFunction,SMDPad,CuDef*%
%ADD30RoundRect,0.140000X0.219203X0.021213X0.021213X0.219203X-0.219203X-0.021213X-0.021213X-0.219203X0*%
%TD*%
%TA.AperFunction,SMDPad,CuDef*%
%ADD31RoundRect,0.250000X0.250000X-1.300000X0.250000X1.300000X-0.250000X1.300000X-0.250000X-1.300000X0*%
%TD*%
%TA.AperFunction,SMDPad,CuDef*%
%ADD32RoundRect,0.140000X0.077224X-0.206244X0.217224X0.036244X-0.077224X0.206244X-0.217224X-0.036244X0*%
%TD*%
%TA.AperFunction,SMDPad,CuDef*%
%ADD33RoundRect,0.052000X-0.173948X0.106066X0.106066X-0.173948X0.173948X-0.106066X-0.106066X0.173948X0*%
%TD*%
%TA.AperFunction,SMDPad,CuDef*%
%ADD34FreePoly0,315.000000*%
%TD*%
%TA.AperFunction,SMDPad,CuDef*%
%ADD35RoundRect,0.150000X0.425000X-0.150000X0.425000X0.150000X-0.425000X0.150000X-0.425000X-0.150000X0*%
%TD*%
%TA.AperFunction,SMDPad,CuDef*%
%ADD36RoundRect,0.075000X0.500000X-0.075000X0.500000X0.075000X-0.500000X0.075000X-0.500000X-0.075000X0*%
%TD*%
%TA.AperFunction,SMDPad,CuDef*%
%ADD37RoundRect,0.250000X0.750000X-0.840000X0.750000X0.840000X-0.750000X0.840000X-0.750000X-0.840000X0*%
%TD*%
%TA.AperFunction,SMDPad,CuDef*%
%ADD38R,0.600000X0.400000*%
%TD*%
%TA.AperFunction,SMDPad,CuDef*%
%ADD39R,0.400000X0.600000*%
%TD*%
%TA.AperFunction,SMDPad,CuDef*%
%ADD40RoundRect,0.135000X0.135000X0.185000X-0.135000X0.185000X-0.135000X-0.185000X0.135000X-0.185000X0*%
%TD*%
%TA.AperFunction,SMDPad,CuDef*%
%ADD41RoundRect,0.150000X0.512500X0.150000X-0.512500X0.150000X-0.512500X-0.150000X0.512500X-0.150000X0*%
%TD*%
%TA.AperFunction,ComponentPad*%
%ADD42R,1.600000X1.600000*%
%TD*%
%TA.AperFunction,ComponentPad*%
%ADD43C,1.600000*%
%TD*%
%TA.AperFunction,SMDPad,CuDef*%
%ADD44RoundRect,0.150000X-0.512500X-0.150000X0.512500X-0.150000X0.512500X0.150000X-0.512500X0.150000X0*%
%TD*%
%TA.AperFunction,SMDPad,CuDef*%
%ADD45RoundRect,0.150000X0.150000X-0.512500X0.150000X0.512500X-0.150000X0.512500X-0.150000X-0.512500X0*%
%TD*%
%TA.AperFunction,ViaPad*%
%ADD46C,0.508000*%
%TD*%
%TA.AperFunction,ViaPad*%
%ADD47C,0.600000*%
%TD*%
%TA.AperFunction,Conductor*%
%ADD48C,0.200000*%
%TD*%
%TA.AperFunction,Conductor*%
%ADD49C,0.400000*%
%TD*%
%TA.AperFunction,Conductor*%
%ADD50C,0.320000*%
%TD*%
G04 APERTURE END LIST*
D10*
%TO.P,H4,1,1*%
%TO.N,GND*%
X125650000Y-137300000D03*
%TD*%
D11*
%TO.P,R13,1*%
%TO.N,Net-(D3-A)*%
X82200000Y-105300000D03*
%TO.P,R13,2*%
%TO.N,Net-(U2-P1.10)*%
X82921250Y-104578752D03*
%TD*%
D12*
%TO.P,R2,1*%
%TO.N,Net-(J1-CC2)*%
X125180000Y-134299998D03*
%TO.P,R2,2*%
%TO.N,GND*%
X126200000Y-134300000D03*
%TD*%
D10*
%TO.P,H1,1,1*%
%TO.N,GND*%
X78850000Y-112500000D03*
%TD*%
D13*
%TO.P,C2,1*%
%TO.N,Net-(SW1-A)*%
X117600000Y-114530000D03*
%TO.P,C2,2*%
%TO.N,GND*%
X117600000Y-113570000D03*
%TD*%
D14*
%TO.P,Y2,1,1*%
%TO.N,Net-(U2-P0.00)*%
X97550000Y-113050000D03*
%TO.P,Y2,2,2*%
%TO.N,Net-(U2-P0.01)*%
X98950000Y-113050000D03*
%TD*%
D15*
%TO.P,R4,1*%
%TO.N,+3V3*%
X90550001Y-107414999D03*
%TO.P,R4,2*%
%TO.N,/SCL*%
X90549999Y-108434999D03*
%TD*%
D16*
%TO.P,C7,1*%
%TO.N,GND*%
X100250000Y-112490000D03*
%TO.P,C7,2*%
%TO.N,Net-(U2-P0.01)*%
X100250000Y-113450000D03*
%TD*%
D17*
%TO.P,J2,1,Pin_1*%
%TO.N,VBAT*%
X123000000Y-107800000D03*
%TO.P,J2,2,Pin_2*%
%TO.N,/TEMP*%
X123000000Y-108799999D03*
%TO.P,J2,3,Pin_3*%
%TO.N,GND*%
X122999999Y-109800000D03*
D18*
%TO.P,J2,MP,MountPin*%
X119125000Y-106499998D03*
X119125001Y-111099998D03*
%TD*%
D19*
%TO.P,J4,1,Pin_1*%
%TO.N,GND1*%
X104650000Y-123600000D03*
%TO.P,J4,2,Pin_2*%
%TO.N,VCC*%
X103650000Y-123600000D03*
%TO.P,J4,3,Pin_3*%
%TO.N,/SDA1*%
X102650000Y-123600000D03*
%TO.P,J4,4,Pin_4*%
%TO.N,/SCL1*%
X101650000Y-123600000D03*
%TO.P,J4,5,Pin_5*%
%TO.N,/INT1*%
X100650000Y-123600000D03*
D20*
%TO.P,J4,MP,MountPin*%
%TO.N,GND1*%
X105950000Y-119725000D03*
X99350000Y-119725000D03*
%TD*%
D21*
%TO.P,J5,1,Pin_1*%
%TO.N,GND*%
X87250000Y-110324999D03*
%TO.P,J5,2,Pin_2*%
%TO.N,+3V3*%
X88250001Y-110324999D03*
%TO.P,J5,3,Pin_3*%
%TO.N,/SDA*%
X89250000Y-110324999D03*
%TO.P,J5,4,Pin_4*%
%TO.N,/SCL*%
X90250001Y-110325000D03*
%TO.P,J5,5,Pin_5*%
%TO.N,/INT*%
X91250000Y-110324999D03*
D22*
%TO.P,J5,MP,MountPin*%
%TO.N,GND*%
X85950000Y-114199999D03*
X92550000Y-114200000D03*
%TD*%
D10*
%TO.P,H3,1,1*%
%TO.N,GND*%
X118450000Y-103250000D03*
%TD*%
D12*
%TO.P,R1,1*%
%TO.N,Net-(J1-CC1)*%
X125090000Y-133199999D03*
%TO.P,R1,2*%
%TO.N,GND*%
X126110000Y-133200001D03*
%TD*%
D23*
%TO.P,C13,1*%
%TO.N,Net-(U2-VBUS)*%
X105545000Y-112460000D03*
%TO.P,C13,2*%
%TO.N,GND*%
X106505000Y-112460000D03*
%TD*%
D24*
%TO.P,R11,1*%
%TO.N,VBAT*%
X83499999Y-114660000D03*
%TO.P,R11,2*%
%TO.N,/VDIV*%
X83500001Y-113640000D03*
%TD*%
D25*
%TO.P,J3,1,VCC*%
%TO.N,+3V3*%
X88960000Y-101800000D03*
%TO.P,J3,2,SWDIO*%
%TO.N,/SWDIO*%
X88960000Y-100530000D03*
%TO.P,J3,3,~{RESET}*%
%TO.N,/NRST*%
X90230000Y-101800000D03*
%TO.P,J3,4,SWCLK*%
%TO.N,/SWCLK*%
X90230000Y-100530000D03*
%TO.P,J3,5,GND*%
%TO.N,GND*%
X91500000Y-101800000D03*
%TO.P,J3,6,SWO*%
%TO.N,/SWO*%
X91500000Y-100530000D03*
%TD*%
D15*
%TO.P,R12,1*%
%TO.N,/VDIV*%
X82500001Y-113640000D03*
%TO.P,R12,2*%
%TO.N,GND*%
X82499999Y-114660000D03*
%TD*%
D26*
%TO.P,D3,1,K*%
%TO.N,GND*%
X79900000Y-107000000D03*
%TO.P,D3,2,A*%
%TO.N,Net-(D3-A)*%
X81013694Y-105886306D03*
%TD*%
D27*
%TO.P,R16,1*%
%TO.N,Net-(U1-ILIM{slash}VSET)*%
X126970485Y-116006341D03*
%TO.P,R16,2*%
%TO.N,GND*%
X127691733Y-116727591D03*
%TD*%
D28*
%TO.P,R3,1*%
%TO.N,VBUS*%
X107754142Y-113862624D03*
%TO.P,R3,2*%
%TO.N,Net-(U2-VBUS)*%
X105929142Y-113862624D03*
%TD*%
D29*
%TO.P,C9,1*%
%TO.N,+3V3*%
X102725000Y-112460000D03*
%TO.P,C9,2*%
%TO.N,GND*%
X101765000Y-112460000D03*
%TD*%
D15*
%TO.P,R5,1*%
%TO.N,+3V3*%
X89550001Y-107414999D03*
%TO.P,R5,2*%
%TO.N,/SDA*%
X89549999Y-108434999D03*
%TD*%
D30*
%TO.P,C1,1*%
%TO.N,VBUS*%
X128028822Y-112728822D03*
%TO.P,C1,2*%
%TO.N,GND*%
X127350000Y-112050000D03*
%TD*%
D26*
%TO.P,D2,1,K*%
%TO.N,GND*%
X80986306Y-108113694D03*
%TO.P,D2,2,A*%
%TO.N,Net-(D2-A)*%
X82100000Y-107000000D03*
%TD*%
D31*
%TO.P,SW2,1,1*%
%TO.N,/SWITCH*%
X74949999Y-127450000D03*
X74950001Y-118550001D03*
%TO.P,SW2,2,2*%
%TO.N,GND*%
X78949999Y-127449999D03*
X78950001Y-118550000D03*
%TD*%
D29*
%TO.P,C10,1*%
%TO.N,VCC*%
X103180000Y-129100000D03*
%TO.P,C10,2*%
%TO.N,GND1*%
X102220000Y-129100000D03*
%TD*%
D10*
%TO.P,H2,1,1*%
%TO.N,GND*%
X76750000Y-131550000D03*
%TD*%
D32*
%TO.P,C5,1*%
%TO.N,VBAT*%
X124949069Y-110275698D03*
%TO.P,C5,2*%
%TO.N,GND*%
X125429069Y-109444314D03*
%TD*%
D11*
%TO.P,R8,1*%
%TO.N,Net-(D2-A)*%
X82960627Y-106139378D03*
%TO.P,R8,2*%
%TO.N,Net-(U2-P1.15)*%
X83681877Y-105418130D03*
%TD*%
D10*
%TO.P,H6,1,1*%
%TO.N,GND1*%
X109650000Y-120650000D03*
%TD*%
D33*
%TO.P,U1,1,SYS*%
%TO.N,Net-(SW1-4)*%
X126146451Y-112133703D03*
%TO.P,U1,2,BAT*%
%TO.N,VBAT*%
X125863609Y-112416546D03*
%TO.P,U1,3,STAT2*%
%TO.N,/STAT2*%
X125580766Y-112699389D03*
%TO.P,U1,4,~{CE}*%
%TO.N,GND*%
X125297923Y-112982232D03*
%TO.P,U1,5,GND*%
X125015080Y-113265074D03*
%TO.P,U1,6,TS/MR*%
%TO.N,/TEMP*%
X126500005Y-114749999D03*
%TO.P,U1,7,ILIM/VSET*%
%TO.N,Net-(U1-ILIM{slash}VSET)*%
X126782847Y-114467156D03*
%TO.P,U1,8,ISET*%
%TO.N,Net-(U1-ISET)*%
X127065690Y-114184313D03*
%TO.P,U1,9,STAT1*%
%TO.N,/STAT1*%
X127348533Y-113901470D03*
%TO.P,U1,10,IN*%
%TO.N,VBUS*%
X127631376Y-113618628D03*
D34*
%TO.P,U1,11,THERMAL_PAD*%
%TO.N,GND*%
X126323228Y-113441851D03*
%TD*%
D23*
%TO.P,C6,1*%
%TO.N,+3V3*%
X103645000Y-112460000D03*
%TO.P,C6,2*%
%TO.N,GND*%
X104605000Y-112460000D03*
%TD*%
D35*
%TO.P,J1,A1,GND*%
%TO.N,GND*%
X124745000Y-129090000D03*
%TO.P,J1,A4,VBUS*%
%TO.N,VBUS*%
X124745000Y-128290000D03*
D36*
%TO.P,J1,A5,CC1*%
%TO.N,Net-(J1-CC1)*%
X124745001Y-127140000D03*
%TO.P,J1,A6,D+*%
%TO.N,Net-(J1-D+-PadA6)*%
X124745000Y-126140000D03*
%TO.P,J1,A7,D-*%
%TO.N,Net-(J1-D--PadA7)*%
X124745000Y-125640000D03*
%TO.P,J1,A8,SBU1*%
%TO.N,unconnected-(J1-SBU1-PadA8)*%
X124745001Y-124640000D03*
D35*
%TO.P,J1,A9,VBUS*%
%TO.N,VBUS*%
X124745000Y-123490000D03*
%TO.P,J1,A12,GND*%
%TO.N,GND*%
X124745000Y-122690000D03*
%TO.P,J1,B1,GND*%
X124745000Y-122690000D03*
%TO.P,J1,B4,VBUS*%
%TO.N,VBUS*%
X124745000Y-123490000D03*
D36*
%TO.P,J1,B5,CC2*%
%TO.N,Net-(J1-CC2)*%
X124745000Y-124140000D03*
%TO.P,J1,B6,D+*%
%TO.N,Net-(J1-D+-PadA6)*%
X124745000Y-125140000D03*
%TO.P,J1,B7,D-*%
%TO.N,Net-(J1-D--PadA7)*%
X124745000Y-126640000D03*
%TO.P,J1,B8,SBU2*%
%TO.N,unconnected-(J1-SBU2-PadB8)*%
X124745000Y-127640000D03*
D35*
%TO.P,J1,B9,VBUS*%
%TO.N,VBUS*%
X124745000Y-128290000D03*
%TO.P,J1,B12,GND*%
%TO.N,GND*%
X124745000Y-129090000D03*
D37*
%TO.P,J1,S1,SHIELD*%
X125320000Y-131000000D03*
X129250000Y-131000000D03*
X125320000Y-120780000D03*
X129250000Y-120780000D03*
%TD*%
D24*
%TO.P,R7,1*%
%TO.N,+3V3*%
X95299999Y-113510000D03*
%TO.P,R7,2*%
%TO.N,/STAT1*%
X95300001Y-112490000D03*
%TD*%
D10*
%TO.P,H5,1,1*%
%TO.N,GND1*%
X95650000Y-120650000D03*
%TD*%
D38*
%TO.P,U2,1,GND*%
%TO.N,GND*%
X96500000Y-99950000D03*
%TO.P,U2,2,GND*%
X96499999Y-101050000D03*
%TO.P,U2,3,P1.10*%
%TO.N,Net-(U2-P1.10)*%
X96500000Y-101850000D03*
%TO.P,U2,4,P1.11*%
%TO.N,unconnected-(U2-P1.11-Pad4)*%
X96500000Y-103450000D03*
%TO.P,U2,5,P1.12*%
%TO.N,unconnected-(U2-P1.12-Pad5)*%
X97400001Y-103850000D03*
%TO.P,U2,6,P1.13*%
%TO.N,unconnected-(U2-P1.13-Pad6)*%
X96500000Y-104250000D03*
%TO.P,U2,7,P1.14*%
%TO.N,unconnected-(U2-P1.14-Pad7)*%
X97400000Y-104650000D03*
%TO.P,U2,8,P1.15*%
%TO.N,Net-(U2-P1.15)*%
X96500000Y-105050000D03*
%TO.P,U2,9,P0.03*%
%TO.N,unconnected-(U2-P0.03-Pad9)*%
X97400000Y-105449999D03*
%TO.P,U2,10,P0.29*%
%TO.N,/VDIV*%
X96500000Y-105850000D03*
%TO.P,U2,11,P0.02*%
%TO.N,unconnected-(U2-P0.02-Pad11)*%
X97400000Y-106250000D03*
%TO.P,U2,12,P0.31*%
%TO.N,unconnected-(U2-P0.31-Pad12)*%
X96499999Y-106650000D03*
%TO.P,U2,13,P0.28*%
%TO.N,unconnected-(U2-P0.28-Pad13)*%
X97400000Y-107050000D03*
%TO.P,U2,14,P0.30*%
%TO.N,unconnected-(U2-P0.30-Pad14)*%
X96500000Y-107450000D03*
D39*
%TO.P,U2,15,GND*%
%TO.N,GND*%
X96350000Y-110850000D03*
%TO.P,U2,16,P0.27*%
%TO.N,/STAT1*%
X97149999Y-110850000D03*
%TO.P,U2,17,P0.00*%
%TO.N,Net-(U2-P0.00)*%
X97950000Y-110850000D03*
%TO.P,U2,18,P0.01*%
%TO.N,Net-(U2-P0.01)*%
X98750000Y-110850000D03*
%TO.P,U2,19,P0.26*%
%TO.N,/INT*%
X99150000Y-109950000D03*
%TO.P,U2,20,P0.04*%
%TO.N,unconnected-(U2-P0.04-Pad20)*%
X99550000Y-110850000D03*
%TO.P,U2,21,P0.05*%
%TO.N,unconnected-(U2-P0.05-Pad21)*%
X99949999Y-109950000D03*
%TO.P,U2,22,P0.06*%
%TO.N,/STAT2*%
X100350000Y-110850000D03*
%TO.P,U2,23,P0.07*%
%TO.N,unconnected-(U2-P0.07-Pad23)*%
X100750000Y-109950000D03*
%TO.P,U2,24,P0.08*%
%TO.N,unconnected-(U2-P0.08-Pad24)*%
X101150000Y-110849999D03*
%TO.P,U2,25,P1.08*%
%TO.N,unconnected-(U2-P1.08-Pad25)*%
X101550000Y-109950000D03*
%TO.P,U2,26,P1.09*%
%TO.N,unconnected-(U2-P1.09-Pad26)*%
X101950000Y-110850000D03*
%TO.P,U2,27,P0.11*%
%TO.N,/SCL*%
X102350001Y-109950000D03*
%TO.P,U2,28,VDD*%
%TO.N,+3V3*%
X102750000Y-110850000D03*
%TO.P,U2,29,P0.12*%
%TO.N,/SDA*%
X103150000Y-109950000D03*
%TO.P,U2,30,VDDH*%
%TO.N,+3V3*%
X103550000Y-110850000D03*
%TO.P,U2,31,DCCH*%
%TO.N,unconnected-(U2-DCCH-Pad31)*%
X104350000Y-110850000D03*
%TO.P,U2,32,VBUS*%
%TO.N,Net-(U2-VBUS)*%
X105150001Y-110850000D03*
%TO.P,U2,33,GND*%
%TO.N,GND*%
X105950000Y-110850000D03*
D38*
%TO.P,U2,34,D-*%
%TO.N,/USB_D-*%
X105800000Y-109850000D03*
%TO.P,U2,35,D+*%
%TO.N,/USB_D+*%
X105800000Y-109050000D03*
%TO.P,U2,36,P0.14*%
%TO.N,unconnected-(U2-P0.14-Pad36)*%
X104900000Y-108650000D03*
%TO.P,U2,37,P0.13*%
%TO.N,unconnected-(U2-P0.13-Pad37)*%
X105800000Y-108249999D03*
%TO.P,U2,38,P0.16*%
%TO.N,unconnected-(U2-P0.16-Pad38)*%
X104900000Y-107850001D03*
%TO.P,U2,39,P0.15*%
%TO.N,unconnected-(U2-P0.15-Pad39)*%
X105800000Y-107450000D03*
%TO.P,U2,40,P0.18*%
%TO.N,/NRST*%
X104900000Y-107050000D03*
%TO.P,U2,41,P0.17*%
%TO.N,unconnected-(U2-P0.17-Pad41)*%
X105800001Y-106650000D03*
%TO.P,U2,42,P0.19*%
%TO.N,unconnected-(U2-P0.19-Pad42)*%
X104900000Y-106250000D03*
%TO.P,U2,43,P0.21*%
%TO.N,unconnected-(U2-P0.21-Pad43)*%
X104900000Y-105449999D03*
%TO.P,U2,44,P0.20*%
%TO.N,unconnected-(U2-P0.20-Pad44)*%
X105800000Y-105050000D03*
%TO.P,U2,45,P0.23*%
%TO.N,unconnected-(U2-P0.23-Pad45)*%
X104900000Y-104650000D03*
%TO.P,U2,46,P0.22*%
%TO.N,unconnected-(U2-P0.22-Pad46)*%
X105800000Y-104250000D03*
%TO.P,U2,47,P1.00*%
%TO.N,/SWO*%
X104899999Y-103850000D03*
%TO.P,U2,48,P0.24*%
%TO.N,unconnected-(U2-P0.24-Pad48)*%
X105800000Y-103450000D03*
%TO.P,U2,49,P0.25*%
%TO.N,unconnected-(U2-P0.25-Pad49)*%
X104900000Y-103050000D03*
%TO.P,U2,50,P1.02*%
%TO.N,/SWITCH*%
X104900000Y-102250000D03*
%TO.P,U2,51,SWDIO*%
%TO.N,/SWDIO*%
X105800000Y-101850000D03*
%TO.P,U2,52,P0.09*%
%TO.N,unconnected-(U2-P0.09-Pad52)*%
X104900000Y-101450000D03*
%TO.P,U2,53,SWDCLK*%
%TO.N,/SWCLK*%
X105800001Y-101050000D03*
%TO.P,U2,54,P0.10*%
%TO.N,unconnected-(U2-P0.10-Pad54)*%
X104900000Y-100650000D03*
%TO.P,U2,55,GND*%
%TO.N,GND*%
X105800000Y-99950000D03*
D39*
%TO.P,U2,56,P1.04*%
%TO.N,unconnected-(U2-P1.04-Pad56)*%
X99150000Y-104250000D03*
%TO.P,U2,57,P1.06*%
%TO.N,unconnected-(U2-P1.06-Pad57)*%
X99950000Y-104250000D03*
%TO.P,U2,58,P1.07*%
%TO.N,unconnected-(U2-P1.07-Pad58)*%
X100750000Y-104250000D03*
%TO.P,U2,59,P1.05*%
%TO.N,unconnected-(U2-P1.05-Pad59)*%
X101550000Y-104250000D03*
%TO.P,U2,60,P1.03*%
%TO.N,unconnected-(U2-P1.03-Pad60)*%
X102350000Y-104250000D03*
%TO.P,U2,61,P1.01*%
%TO.N,unconnected-(U2-P1.01-Pad61)*%
X103150000Y-104250000D03*
%TD*%
D29*
%TO.P,C4,1*%
%TO.N,+3V3*%
X102730000Y-113400000D03*
%TO.P,C4,2*%
%TO.N,GND*%
X101770000Y-113400000D03*
%TD*%
D40*
%TO.P,R10,1*%
%TO.N,Net-(R10-Pad1)*%
X108400000Y-109050000D03*
%TO.P,R10,2*%
%TO.N,/USB_D+*%
X107380006Y-109049998D03*
%TD*%
D16*
%TO.P,C8,1*%
%TO.N,GND*%
X96249997Y-112490001D03*
%TO.P,C8,2*%
%TO.N,Net-(U2-P0.00)*%
X96249997Y-113450001D03*
%TD*%
D24*
%TO.P,R6,1*%
%TO.N,+3V3*%
X94899999Y-111260000D03*
%TO.P,R6,2*%
%TO.N,/STAT2*%
X94900001Y-110240000D03*
%TD*%
D41*
%TO.P,U4,1,VIN*%
%TO.N,Net-(SW1-A)*%
X115225000Y-114412500D03*
%TO.P,U4,2,GND*%
%TO.N,GND*%
X115225000Y-113462500D03*
%TO.P,U4,3,~{SHDN}*%
%TO.N,Net-(SW1-A)*%
X115225000Y-112512500D03*
%TO.P,U4,4,BYP*%
%TO.N,unconnected-(U4-BYP-Pad4)*%
X112950000Y-112512500D03*
%TO.P,U4,5,VOUT*%
%TO.N,+3V3*%
X112950000Y-114412500D03*
%TD*%
D10*
%TO.P,H7,1,1*%
%TO.N,GND1*%
X102650000Y-132650000D03*
%TD*%
D27*
%TO.P,R15,1*%
%TO.N,Net-(U1-ISET)*%
X127719657Y-115418545D03*
%TO.P,R15,2*%
%TO.N,GND*%
X128440905Y-116139795D03*
%TD*%
D15*
%TO.P,R14,1*%
%TO.N,+3V3*%
X75300001Y-114800000D03*
%TO.P,R14,2*%
%TO.N,/SWITCH*%
X75299999Y-115820000D03*
%TD*%
D42*
%TO.P,SW1,1,A*%
%TO.N,Net-(SW1-A)*%
X109300000Y-101200000D03*
D43*
%TO.P,SW1,2,B*%
%TO.N,Net-(SW1-4)*%
X111800000Y-101200000D03*
%TO.P,SW1,3,C*%
%TO.N,unconnected-(SW1-C-Pad3)_1*%
X114300000Y-101200000D03*
%TO.P,SW1,4,C*%
%TO.N,Net-(SW1-A)*%
X109300000Y-104400000D03*
%TO.P,SW1,5,4*%
%TO.N,Net-(SW1-4)*%
X111800000Y-104400000D03*
%TO.P,SW1,6,C*%
%TO.N,unconnected-(SW1-C-Pad3)*%
X114300000Y-104400000D03*
%TD*%
D40*
%TO.P,R9,1*%
%TO.N,Net-(R9-Pad1)*%
X108409997Y-110000001D03*
%TO.P,R9,2*%
%TO.N,/USB_D-*%
X107390003Y-109999999D03*
%TD*%
D44*
%TO.P,U5,1,SCL*%
%TO.N,/SCL1*%
X101512500Y-125837500D03*
%TO.P,U5,2,GND*%
%TO.N,GND1*%
X101512500Y-126787500D03*
%TO.P,U5,3,TEST*%
X101512500Y-127737500D03*
%TO.P,U5,4,VCC*%
%TO.N,VCC*%
X103787500Y-127737500D03*
%TO.P,U5,5,~{INT}*%
%TO.N,/INT1*%
X103787500Y-126787500D03*
%TO.P,U5,6,SDA*%
%TO.N,/SDA1*%
X103787500Y-125837500D03*
%TD*%
D45*
%TO.P,U3,1*%
%TO.N,Net-(J1-D--PadA7)*%
X123400002Y-117960624D03*
%TO.P,U3,2*%
%TO.N,GND*%
X124350001Y-117960626D03*
%TO.P,U3,3*%
%TO.N,Net-(J1-D+-PadA6)*%
X125300000Y-117960626D03*
%TO.P,U3,4*%
%TO.N,Net-(R10-Pad1)*%
X125300000Y-115685628D03*
%TO.P,U3,5*%
%TO.N,VBUS*%
X124350001Y-115685626D03*
%TO.P,U3,6*%
%TO.N,Net-(R9-Pad1)*%
X123400002Y-115685626D03*
%TD*%
D13*
%TO.P,C11,1*%
%TO.N,+3V3*%
X111575000Y-114530000D03*
%TO.P,C11,2*%
%TO.N,GND*%
X111575000Y-113570000D03*
%TD*%
%TO.P,C3,1*%
%TO.N,Net-(SW1-A)*%
X116650000Y-114530000D03*
%TO.P,C3,2*%
%TO.N,GND*%
X116650000Y-113570000D03*
%TD*%
D46*
%TO.N,VBUS*%
X116350000Y-112100000D03*
X123973307Y-116789306D03*
%TO.N,GND*%
X92747876Y-108564591D03*
X121750000Y-107950000D03*
X95850000Y-111250000D03*
X96857984Y-112317149D03*
X84600000Y-104350000D03*
X126300000Y-119350000D03*
X129300000Y-128500000D03*
X114087500Y-114912499D03*
X129800000Y-117850000D03*
X102230101Y-101878284D03*
X78650000Y-124300000D03*
X106850000Y-102450000D03*
X94319408Y-100153709D03*
X101150000Y-114900000D03*
X109550000Y-108300000D03*
X112350000Y-107100000D03*
X92860003Y-110539998D03*
X99680752Y-112317582D03*
X122700000Y-110650000D03*
X106550000Y-111350000D03*
X114334427Y-110800000D03*
X75250000Y-113550000D03*
X129700000Y-123150000D03*
X127800000Y-127200000D03*
X84950000Y-102450000D03*
X108756632Y-113103520D03*
X123716214Y-119143259D03*
X87000000Y-102300000D03*
X91850000Y-102750000D03*
X79100000Y-115700000D03*
X111700000Y-108050000D03*
X111000000Y-113600000D03*
X98550000Y-101950000D03*
X108650000Y-106300000D03*
X123200000Y-114300000D03*
X103300000Y-105500000D03*
X123850000Y-134250000D03*
X86250000Y-110200000D03*
X128440767Y-117196000D03*
X127285000Y-131050000D03*
X121681983Y-110691173D03*
X103300000Y-107200000D03*
X126250000Y-110100000D03*
X116600000Y-106700000D03*
X77500000Y-118500000D03*
X95000000Y-107000000D03*
X101250000Y-106600000D03*
X104800000Y-113350000D03*
X73714999Y-124026086D03*
X80200000Y-108800000D03*
X108500000Y-111400000D03*
X107050000Y-105550000D03*
X101700000Y-111650000D03*
X104350000Y-111750000D03*
X116451980Y-110747506D03*
X94191848Y-102396080D03*
X121864834Y-112926520D03*
X102306254Y-108707444D03*
X128200000Y-122800000D03*
X91600000Y-106500000D03*
X86000000Y-101050000D03*
X126150000Y-115450000D03*
X121350000Y-109500000D03*
X112800000Y-113550000D03*
X121050000Y-104650000D03*
X109600000Y-109800000D03*
X125241067Y-108062614D03*
X90300000Y-113400000D03*
X124100000Y-111200000D03*
X120200000Y-107800000D03*
X117000000Y-112850000D03*
X128700000Y-135200000D03*
X117700000Y-112850000D03*
X125650000Y-110650000D03*
X126950000Y-110950000D03*
X124100000Y-122000000D03*
X99250000Y-106000000D03*
X78850000Y-121500000D03*
X124200000Y-112800000D03*
X93500000Y-104350000D03*
X101150000Y-112800000D03*
X126114083Y-116405308D03*
%TO.N,Net-(SW1-A)*%
X118800000Y-114850000D03*
X118650000Y-114400000D03*
%TO.N,VBAT*%
X109350000Y-107250000D03*
X84600000Y-114100000D03*
%TO.N,GND1*%
X107450000Y-123500000D03*
X105850000Y-126950000D03*
X99600000Y-126150000D03*
X97250000Y-124050000D03*
%TO.N,+3V3*%
X90400000Y-106750000D03*
X74450001Y-115000000D03*
X88250000Y-102500000D03*
D47*
X88100000Y-112400000D03*
D46*
%TO.N,Net-(J1-CC2)*%
X123300000Y-126700000D03*
X125806970Y-124500867D03*
%TO.N,/SWCLK*%
X90800000Y-100050000D03*
X106550000Y-100650000D03*
%TO.N,/SWDIO*%
X87913536Y-100191022D03*
X106650000Y-101400000D03*
%TO.N,/NRST*%
X104200000Y-106950000D03*
X90000000Y-102650000D03*
%TO.N,/INT1*%
X102715250Y-126222133D03*
X100200000Y-125300000D03*
D47*
%TO.N,/SDA*%
X88628526Y-109000000D03*
X102436999Y-107936999D03*
D46*
%TO.N,/STAT2*%
X110350000Y-110784003D03*
X95667487Y-110478412D03*
X124500000Y-112000000D03*
X100652748Y-111663169D03*
X113200000Y-110050000D03*
%TO.N,/STAT1*%
X94450000Y-112500000D03*
X110968596Y-109791859D03*
X128390019Y-114974964D03*
X114168485Y-110008392D03*
%TO.N,/SWITCH*%
X76300001Y-115400000D03*
X102883708Y-103016776D03*
%TO.N,Net-(SW1-4)*%
X126515329Y-111508863D03*
%TD*%
D48*
%TO.N,VBUS*%
X111000000Y-111900000D02*
X108950000Y-113950000D01*
D49*
X127868761Y-113528809D02*
X129019030Y-114679078D01*
D50*
X128762545Y-117750000D02*
X128762545Y-118417339D01*
D48*
X127631376Y-113126268D02*
X128028822Y-112728822D01*
D50*
X127010057Y-120169827D02*
X127010057Y-123289943D01*
D48*
X124350001Y-115685626D02*
X124350001Y-116348125D01*
X124350001Y-116348125D02*
X124977336Y-116975460D01*
D49*
X127868761Y-113528809D02*
X127868761Y-112888883D01*
D48*
X127631376Y-113618631D02*
X127631376Y-113126268D01*
D50*
X129139662Y-114736939D02*
X129378724Y-115359290D01*
D48*
X127778942Y-113618628D02*
X127868761Y-113528809D01*
X127374067Y-117750000D02*
X128762545Y-117750000D01*
X123973307Y-116626693D02*
X124350001Y-116249999D01*
X127631376Y-113618628D02*
X127778942Y-113618628D01*
X124350001Y-116249999D02*
X124350001Y-115685626D01*
X116350000Y-112100000D02*
X116150000Y-111900000D01*
X126599527Y-116975460D02*
X127374067Y-117750000D01*
D50*
X128762545Y-118417339D02*
X127010057Y-120169827D01*
X127010057Y-123289943D02*
X126650000Y-123650000D01*
X129378724Y-115359290D02*
X129378724Y-117133821D01*
D48*
X116150000Y-111900000D02*
X111000000Y-111900000D01*
D49*
X129019030Y-114679078D02*
X129081801Y-114679078D01*
D48*
X123973307Y-116789306D02*
X123973307Y-116626693D01*
D50*
X129081801Y-114679078D02*
X129139662Y-114736939D01*
D48*
X108950000Y-113950000D02*
X107750000Y-113950000D01*
X124977336Y-116975460D02*
X126599527Y-116975460D01*
D50*
X129378724Y-117133821D02*
X128762545Y-117750000D01*
D49*
X127868761Y-112888883D02*
X128028822Y-112728822D01*
D48*
%TO.N,GND*%
X124200000Y-112800000D02*
X124550000Y-112800000D01*
X101490000Y-112460000D02*
X101150000Y-112800000D01*
D50*
X117000000Y-113100000D02*
X116675000Y-113425000D01*
D48*
X96857984Y-112317149D02*
X96632851Y-112317149D01*
D50*
X117700000Y-113300000D02*
X117675000Y-113325000D01*
D48*
X100017582Y-112317582D02*
X100190000Y-112490000D01*
D50*
X111575000Y-113770000D02*
X111170000Y-113770000D01*
D48*
X96632851Y-112317149D02*
X96459999Y-112490001D01*
D50*
X117000000Y-112850000D02*
X117000000Y-113100000D01*
D48*
X87250000Y-110324999D02*
X86374999Y-110324999D01*
X96350000Y-110850000D02*
X96250000Y-110850000D01*
X124550000Y-112800000D02*
X125015071Y-113265071D01*
X96250000Y-110850000D02*
X95850000Y-111250000D01*
X125015071Y-113265071D02*
X125015080Y-113265071D01*
D50*
X111170000Y-113770000D02*
X111000000Y-113600000D01*
D48*
X86374999Y-110324999D02*
X86250000Y-110200000D01*
D50*
X117700000Y-112850000D02*
X117700000Y-113300000D01*
D48*
X100190000Y-112490000D02*
X100250000Y-112490000D01*
X96459999Y-112490001D02*
X96249997Y-112490001D01*
X99680752Y-112317582D02*
X100017582Y-112317582D01*
X101765000Y-112460000D02*
X101490000Y-112460000D01*
D49*
%TO.N,Net-(SW1-A)*%
X118800000Y-114850000D02*
X118800000Y-114550000D01*
X114487500Y-112512500D02*
X115225000Y-112512500D01*
X114071804Y-113921803D02*
X114071804Y-112928196D01*
X116650000Y-114530000D02*
X115342500Y-114530000D01*
X118800000Y-114550000D02*
X118650000Y-114400000D01*
X118450000Y-114600000D02*
X117670000Y-114600000D01*
X114562501Y-114412500D02*
X114071804Y-113921803D01*
X117600000Y-114530000D02*
X116650000Y-114530000D01*
X114071804Y-112928196D02*
X114487500Y-112512500D01*
X117670000Y-114600000D02*
X117600000Y-114530000D01*
X115342500Y-114530000D02*
X115225000Y-114412500D01*
X118650000Y-114400000D02*
X118450000Y-114600000D01*
X115225000Y-114412500D02*
X114562501Y-114412500D01*
D50*
%TO.N,VBAT*%
X124637012Y-108662013D02*
X123774999Y-107800000D01*
D48*
X120714435Y-105514435D02*
X123000000Y-107800000D01*
X84040000Y-114660000D02*
X83499999Y-114660000D01*
D50*
X124949069Y-110275698D02*
X124637012Y-109963641D01*
X123774999Y-107800000D02*
X123000000Y-107800000D01*
D48*
X111085565Y-105514435D02*
X120714435Y-105514435D01*
X84600000Y-114100000D02*
X84040000Y-114660000D01*
X109350000Y-107250000D02*
X111085565Y-105514435D01*
X124949069Y-111502006D02*
X125863609Y-112416546D01*
X124949069Y-110275698D02*
X124949069Y-111502006D01*
D50*
X124637012Y-109963641D02*
X124637012Y-108662013D01*
D48*
%TO.N,VCC*%
X104751000Y-125475999D02*
X104751000Y-127128468D01*
X103650000Y-123600000D02*
X103650000Y-124374999D01*
X103180000Y-128345000D02*
X103787500Y-127737500D01*
X104751000Y-127128468D02*
X104141968Y-127737500D01*
X103180000Y-129100000D02*
X103180000Y-128345000D01*
X104141968Y-127737500D02*
X103787500Y-127737500D01*
X103650000Y-124374999D02*
X104751000Y-125475999D01*
D50*
%TO.N,+3V3*%
X87968526Y-108411414D02*
X88964941Y-107414999D01*
X104354596Y-114245404D02*
X96035403Y-114245404D01*
X105098839Y-114988600D02*
X111116400Y-114988600D01*
X93280151Y-112500000D02*
X89650003Y-112500000D01*
X95842636Y-114052637D02*
X95600000Y-114052637D01*
X111116400Y-114988600D02*
X111575000Y-114530000D01*
D49*
X89550001Y-107414999D02*
X90550001Y-107414999D01*
D50*
X94452637Y-114052637D02*
X93835000Y-113435000D01*
X104547363Y-114437124D02*
X105098839Y-114988600D01*
D48*
X95239999Y-113450000D02*
X95299999Y-113510000D01*
D50*
X111575000Y-114530000D02*
X112832500Y-114530000D01*
X94899999Y-111260000D02*
X94379848Y-111780151D01*
X93835000Y-111945151D02*
X94000000Y-111780151D01*
X94000000Y-111780151D02*
X93280151Y-112500000D01*
X88250001Y-110324999D02*
X87968526Y-110043524D01*
D48*
X102730000Y-113400000D02*
X102730000Y-112465000D01*
D50*
X94379848Y-111780151D02*
X94000000Y-111780151D01*
X88250001Y-111099998D02*
X88250001Y-110324999D01*
X95299999Y-113752636D02*
X95299999Y-113510000D01*
D48*
X102725000Y-112460000D02*
X102725000Y-110875000D01*
D50*
X88964941Y-107414999D02*
X89550001Y-107414999D01*
D48*
X103645000Y-110945000D02*
X103550000Y-110850000D01*
D50*
X88600003Y-111450000D02*
X88250001Y-111099998D01*
D48*
X88260000Y-102500000D02*
X88960000Y-101800000D01*
D50*
X89650003Y-112500000D02*
X88600003Y-111450000D01*
D48*
X103645000Y-112460000D02*
X102725000Y-112460000D01*
D50*
X104547363Y-114052637D02*
X104547363Y-114437124D01*
D48*
X74650001Y-114800000D02*
X74450001Y-115000000D01*
X102730000Y-112465000D02*
X102725000Y-112460000D01*
X102725000Y-110875000D02*
X102750000Y-110850000D01*
X90550001Y-106900001D02*
X90400000Y-106750000D01*
X75300001Y-114800000D02*
X74650001Y-114800000D01*
D50*
X87968526Y-110043524D02*
X87968526Y-108411414D01*
D48*
X103645000Y-112460000D02*
X103645000Y-110945000D01*
X88250000Y-102500000D02*
X88260000Y-102500000D01*
D50*
X96035403Y-114245404D02*
X95842636Y-114052637D01*
X104547363Y-114052637D02*
X103645000Y-113150274D01*
X103645000Y-113150274D02*
X103645000Y-112460000D01*
X93835000Y-113435000D02*
X93835000Y-111945151D01*
D48*
X90550001Y-107414999D02*
X90550001Y-106900001D01*
X88600003Y-111899997D02*
X88600003Y-111450000D01*
X88100000Y-112400000D02*
X88600003Y-111899997D01*
D50*
X95600000Y-114052637D02*
X95299999Y-113752636D01*
X104547363Y-114052637D02*
X104354596Y-114245404D01*
X95842636Y-114052637D02*
X94452637Y-114052637D01*
D48*
%TO.N,Net-(J1-CC2)*%
X123300000Y-126700000D02*
X123300000Y-132419998D01*
X125429113Y-124123010D02*
X124761990Y-124123010D01*
X124761990Y-124123010D02*
X124745000Y-124140000D01*
X125806970Y-124500867D02*
X125429113Y-124123010D01*
X123300000Y-132419998D02*
X125180000Y-134299998D01*
X124267701Y-124140000D02*
X124745000Y-124140000D01*
%TO.N,Net-(J1-D--PadA7)*%
X124136176Y-126640000D02*
X124745000Y-126640000D01*
X123869000Y-126372824D02*
X124136176Y-126640000D01*
X124136176Y-125640000D02*
X123869000Y-125907176D01*
X123124350Y-118236276D02*
X123400002Y-117960624D01*
X123869000Y-125907176D02*
X123869000Y-126372824D01*
X123124350Y-124726339D02*
X123124350Y-118236276D01*
X124745000Y-125640000D02*
X124136176Y-125640000D01*
X124038011Y-125640000D02*
X123124350Y-124726339D01*
X124745000Y-125640000D02*
X124038011Y-125640000D01*
%TO.N,Net-(J1-CC1)*%
X125090000Y-133199999D02*
X123736508Y-131846507D01*
X123736508Y-127313355D02*
X123909863Y-127140000D01*
X123909863Y-127140000D02*
X124745001Y-127140000D01*
X124267700Y-127140000D02*
X124745001Y-127140000D01*
X123736508Y-131846507D02*
X123736508Y-127313355D01*
%TO.N,Net-(J1-D+-PadA6)*%
X125353824Y-126140000D02*
X125621000Y-125872824D01*
X123525350Y-124560239D02*
X123525350Y-120198490D01*
X125300000Y-118423840D02*
X125300000Y-117960626D01*
X124745000Y-125140000D02*
X124105111Y-125140000D01*
X125353824Y-125140000D02*
X124745000Y-125140000D01*
X125621000Y-125872824D02*
X125621000Y-125407176D01*
X125621000Y-125407176D02*
X125353824Y-125140000D01*
X123525350Y-120198490D02*
X125300000Y-118423840D01*
X124105111Y-125140000D02*
X123525350Y-124560239D01*
X124745000Y-126140000D02*
X125353824Y-126140000D01*
%TO.N,/TEMP*%
X126350006Y-114600000D02*
X125215111Y-114600000D01*
X124150000Y-110210445D02*
X124150000Y-109500000D01*
X123449999Y-108799999D02*
X123000000Y-108799999D01*
X125215111Y-114600000D02*
X123271117Y-112656006D01*
X123271117Y-112656006D02*
X123271117Y-111089328D01*
X126500005Y-114749999D02*
X126350006Y-114600000D01*
X124150000Y-109500000D02*
X123449999Y-108799999D01*
X123271117Y-111089328D02*
X124150000Y-110210445D01*
%TO.N,Net-(U2-P0.01)*%
X98950000Y-113050000D02*
X98950000Y-111050000D01*
X98950000Y-111050000D02*
X98750000Y-110850000D01*
X99350000Y-113450000D02*
X98950000Y-113050000D01*
X100250000Y-113450000D02*
X99350000Y-113450000D01*
%TO.N,/SWCLK*%
X105800001Y-101050000D02*
X106150000Y-101050000D01*
X90320000Y-100530000D02*
X90800000Y-100050000D01*
X105802701Y-101047300D02*
X105800001Y-101050000D01*
X90230000Y-100530000D02*
X90320000Y-100530000D01*
X106150000Y-101050000D02*
X106550000Y-100650000D01*
%TO.N,/SWDIO*%
X88960000Y-100530000D02*
X88621022Y-100191022D01*
X106200000Y-101850000D02*
X105800000Y-101850000D01*
X106650000Y-101400000D02*
X106200000Y-101850000D01*
X88621022Y-100191022D02*
X87913536Y-100191022D01*
%TO.N,/NRST*%
X90230000Y-101880000D02*
X90230000Y-101800000D01*
X90000000Y-102650000D02*
X90000000Y-102110000D01*
X104800000Y-106950000D02*
X104900000Y-107050000D01*
X90000000Y-102110000D02*
X90230000Y-101880000D01*
X104200000Y-106950000D02*
X104800000Y-106950000D01*
%TO.N,/SCL1*%
X101512500Y-123737500D02*
X101650000Y-123600000D01*
X101512500Y-125837500D02*
X101512500Y-123737500D01*
%TO.N,/SDA1*%
X103787500Y-125837500D02*
X102650000Y-124700000D01*
X102650000Y-124700000D02*
X102650000Y-123600000D01*
%TO.N,/INT1*%
X103787500Y-126787500D02*
X103280617Y-126787500D01*
X100200000Y-125300000D02*
X100750000Y-124750000D01*
X100750000Y-124750000D02*
X100750000Y-124350000D01*
X100750000Y-124350000D02*
X100600000Y-124200000D01*
X103280617Y-126787500D02*
X102715250Y-126222133D01*
%TO.N,/SDA*%
X102436999Y-107936999D02*
X103150000Y-108650000D01*
X103150000Y-108650000D02*
X103150000Y-109950000D01*
X89250000Y-110324999D02*
X89250000Y-108734998D01*
X89250000Y-108734998D02*
X89549999Y-108434999D01*
X89193527Y-108434999D02*
X88628526Y-109000000D01*
X89549999Y-108434999D02*
X89193527Y-108434999D01*
%TO.N,/SCL*%
X90250001Y-108734997D02*
X90549999Y-108434999D01*
X90549999Y-108434999D02*
X91254110Y-109139110D01*
X91254110Y-109139110D02*
X101886754Y-109139110D01*
X101886754Y-109139110D02*
X102350001Y-109602357D01*
X102350001Y-109602357D02*
X102350001Y-109950000D01*
X90250001Y-110325000D02*
X90250001Y-108734997D01*
%TO.N,/INT*%
X98742257Y-109542257D02*
X99150000Y-109950000D01*
X92032742Y-109542257D02*
X98742257Y-109542257D01*
X91250000Y-110324999D02*
X92032742Y-109542257D01*
%TO.N,/STAT2*%
X113200000Y-110050000D02*
X112850000Y-110400000D01*
X112850000Y-110400000D02*
X110734003Y-110400000D01*
X95667487Y-110478412D02*
X95289075Y-110100000D01*
X95289075Y-110100000D02*
X95040001Y-110100000D01*
X100652748Y-111402748D02*
X100350000Y-111100000D01*
X124831377Y-111950000D02*
X125580766Y-112699389D01*
X95040001Y-110100000D02*
X94900001Y-110240000D01*
X100652748Y-111663169D02*
X100652748Y-111402748D01*
X110734003Y-110400000D02*
X110350000Y-110784003D01*
X100350000Y-111100000D02*
X100350000Y-110850000D01*
X124500000Y-112000000D02*
X124550000Y-111950000D01*
X124550000Y-111950000D02*
X124831377Y-111950000D01*
%TO.N,/STAT1*%
X112055861Y-109394139D02*
X111600000Y-109850000D01*
X128390019Y-114789368D02*
X127953588Y-114352937D01*
X111026737Y-109850000D02*
X110968596Y-109791859D01*
X94460000Y-112490000D02*
X94450000Y-112500000D01*
X95300001Y-112490000D02*
X95985001Y-111805000D01*
X95300001Y-112490000D02*
X94460000Y-112490000D01*
X127953588Y-114352937D02*
X127800000Y-114352937D01*
X96497000Y-111805000D02*
X97149999Y-111152001D01*
X97149999Y-111152001D02*
X97149999Y-110850000D01*
X95985001Y-111805000D02*
X96497000Y-111805000D01*
X128390019Y-114974964D02*
X128390019Y-114789368D01*
X127800000Y-114352937D02*
X127348533Y-113901470D01*
X114168485Y-110008392D02*
X113554232Y-109394139D01*
X111600000Y-109850000D02*
X111026737Y-109850000D01*
X113554232Y-109394139D02*
X112055861Y-109394139D01*
%TO.N,/USB_D+*%
X107380006Y-109049998D02*
X105800002Y-109049998D01*
X105800002Y-109049998D02*
X105800000Y-109050000D01*
%TO.N,/USB_D-*%
X105949999Y-109999999D02*
X105800000Y-109850000D01*
X107390003Y-109999999D02*
X105949999Y-109999999D01*
%TO.N,Net-(U1-ISET)*%
X127636242Y-114754865D02*
X127065690Y-114184313D01*
X127636242Y-115334394D02*
X127636242Y-114754865D01*
%TO.N,Net-(U2-P0.00)*%
X97950000Y-112650000D02*
X97950000Y-110850000D01*
X96249997Y-113450001D02*
X97149999Y-113450001D01*
X97149999Y-113450001D02*
X97550000Y-113050000D01*
X97550000Y-113050000D02*
X97950000Y-112650000D01*
%TO.N,Net-(D2-A)*%
X82960627Y-106139378D02*
X82960627Y-106139382D01*
X82960627Y-106139382D02*
X82271251Y-106828758D01*
%TO.N,Net-(D3-A)*%
X81613694Y-105886306D02*
X82200000Y-105300000D01*
X82200000Y-105300000D02*
X82200000Y-105350004D01*
X81013694Y-105886306D02*
X81613694Y-105886306D01*
%TO.N,/SWO*%
X91500000Y-100530000D02*
X91969300Y-100999300D01*
X91969300Y-100999300D02*
X95594699Y-100999300D01*
X101369440Y-103612276D02*
X103962276Y-103612276D01*
X104849999Y-103800000D02*
X104899999Y-103850000D01*
X104200000Y-103850000D02*
X104899999Y-103850000D01*
X98263579Y-100506415D02*
X101369440Y-103612276D01*
X103962276Y-103612276D02*
X104200000Y-103850000D01*
X96087584Y-100506415D02*
X98263579Y-100506415D01*
X95594699Y-100999300D02*
X96087584Y-100506415D01*
%TO.N,Net-(U1-ILIM{slash}VSET)*%
X126970485Y-115058751D02*
X127027972Y-115001264D01*
X126970485Y-116006341D02*
X126970485Y-115058751D01*
X126954967Y-114639276D02*
X126782848Y-114467157D01*
X127027972Y-115001264D02*
X127027972Y-114712281D01*
X127027972Y-114712281D02*
X126782847Y-114467156D01*
%TO.N,Net-(U2-P1.15)*%
X96500000Y-105050000D02*
X84050007Y-105050000D01*
X84050007Y-105050000D02*
X83681877Y-105418130D01*
%TO.N,/VDIV*%
X83500001Y-113640000D02*
X83500001Y-112014105D01*
X89664106Y-105850000D02*
X96500000Y-105850000D01*
X83500001Y-112014105D02*
X89664106Y-105850000D01*
X82510006Y-113640000D02*
X82500002Y-113650004D01*
X83550001Y-113640000D02*
X82510006Y-113640000D01*
%TO.N,Net-(U2-P1.10)*%
X84000002Y-103500000D02*
X94850000Y-103500000D01*
X82921250Y-104578752D02*
X84000002Y-103500000D01*
X94850000Y-103500000D02*
X96500000Y-101850000D01*
%TO.N,/SWITCH*%
X102883708Y-103016776D02*
X102883708Y-103065055D01*
X75880001Y-115820000D02*
X76300001Y-115400000D01*
X75299999Y-115820000D02*
X75880001Y-115820000D01*
X102883708Y-103065055D02*
X103018653Y-103200000D01*
X74949999Y-118550003D02*
X74950001Y-118550001D01*
X103500000Y-103200000D02*
X104450000Y-102250000D01*
X74950001Y-118550001D02*
X74950001Y-116169998D01*
X74950001Y-116169998D02*
X75299999Y-115820000D01*
X103018653Y-103200000D02*
X103500000Y-103200000D01*
X104450000Y-102250000D02*
X104900000Y-102250000D01*
X74949999Y-127450000D02*
X74949999Y-118550003D01*
D50*
%TO.N,Net-(U2-VBUS)*%
X105925000Y-113950000D02*
X105783899Y-113808899D01*
X105783899Y-113808899D02*
X105783899Y-112698899D01*
X105545000Y-112460000D02*
X105326772Y-112241772D01*
X105326772Y-112241772D02*
X105326772Y-111026771D01*
X105326772Y-111026771D02*
X105150001Y-110850000D01*
X105783899Y-112698899D02*
X105545000Y-112460000D01*
D48*
%TO.N,Net-(R9-Pad1)*%
X117144572Y-111394572D02*
X109804568Y-111394572D01*
X122600000Y-114700000D02*
X120450000Y-114700000D01*
X123400002Y-115685626D02*
X123400002Y-115500002D01*
X123400002Y-115500002D02*
X122600000Y-114700000D01*
X109804568Y-111394572D02*
X108409997Y-110000001D01*
X120450000Y-114700000D02*
X117144572Y-111394572D01*
%TO.N,Net-(R10-Pad1)*%
X118734606Y-108923443D02*
X124533289Y-114722126D01*
X124533289Y-114722126D02*
X124690969Y-114722126D01*
X118789046Y-108923443D02*
X118500000Y-108923443D01*
X124690969Y-114722126D02*
X125300000Y-115331157D01*
X118500000Y-108923443D02*
X108526557Y-108923443D01*
X118500000Y-108923443D02*
X118734606Y-108923443D01*
X125300000Y-115331157D02*
X125300000Y-115685628D01*
X108526557Y-108923443D02*
X108400000Y-109050000D01*
%TO.N,Net-(SW1-4)*%
X126515329Y-111508863D02*
X126515329Y-111517210D01*
X126515329Y-111517210D02*
X126146456Y-111886083D01*
X126146456Y-111886083D02*
X126146456Y-112133702D01*
X126146456Y-112133702D02*
X126146456Y-111846456D01*
%TD*%
%TA.AperFunction,Conductor*%
%TO.N,VBUS*%
G36*
X127034191Y-123108907D02*
G01*
X127070155Y-123158407D01*
X127075000Y-123189000D01*
X127075000Y-128641000D01*
X127056093Y-128699191D01*
X127006593Y-128735155D01*
X126976000Y-128740000D01*
X126481049Y-128740000D01*
X126422858Y-128721093D01*
X126386894Y-128671593D01*
X126385422Y-128666623D01*
X126381183Y-128650802D01*
X126356281Y-128557865D01*
X126356279Y-128557862D01*
X126356279Y-128557860D01*
X126280518Y-128426639D01*
X126280516Y-128426637D01*
X126280515Y-128426635D01*
X126173365Y-128319485D01*
X126173362Y-128319483D01*
X126173360Y-128319481D01*
X126042138Y-128243720D01*
X126042140Y-128243720D01*
X125985347Y-128228503D01*
X125895766Y-128204500D01*
X125744234Y-128204500D01*
X125654652Y-128228503D01*
X125597860Y-128243720D01*
X125466639Y-128319481D01*
X125359481Y-128426639D01*
X125293974Y-128540101D01*
X125248505Y-128581042D01*
X125206842Y-128588336D01*
X125206842Y-128589500D01*
X125203260Y-128589500D01*
X124286740Y-128589500D01*
X124218607Y-128599427D01*
X124218606Y-128599427D01*
X124218602Y-128599428D01*
X124179487Y-128618550D01*
X124118905Y-128627120D01*
X124064856Y-128598445D01*
X124037984Y-128543476D01*
X124037008Y-128529609D01*
X124037008Y-128075156D01*
X124055915Y-128016965D01*
X124105415Y-127981001D01*
X124155322Y-127978059D01*
X124217867Y-127990500D01*
X125272132Y-127990499D01*
X125352495Y-127974515D01*
X125443624Y-127913624D01*
X125504515Y-127822495D01*
X125520500Y-127742133D01*
X125520499Y-127537868D01*
X125504515Y-127457505D01*
X125496161Y-127445002D01*
X125479552Y-127386114D01*
X125496161Y-127334998D01*
X125504516Y-127322495D01*
X125520501Y-127242133D01*
X125520500Y-127037868D01*
X125504516Y-126957505D01*
X125496160Y-126945000D01*
X125479552Y-126886114D01*
X125496160Y-126834998D01*
X125504515Y-126822495D01*
X125520500Y-126742133D01*
X125520499Y-126537868D01*
X125507666Y-126473348D01*
X125514858Y-126412589D01*
X125534762Y-126384032D01*
X125538332Y-126380461D01*
X125538335Y-126380460D01*
X125564524Y-126354271D01*
X125594286Y-126324510D01*
X125727872Y-126190922D01*
X125861460Y-126057335D01*
X125880699Y-126024012D01*
X125886174Y-126014530D01*
X125901020Y-125988814D01*
X125901021Y-125988813D01*
X125921500Y-125912386D01*
X125921500Y-125367614D01*
X125901021Y-125291187D01*
X125861460Y-125222665D01*
X125805511Y-125166715D01*
X125805511Y-125166716D01*
X125763166Y-125124371D01*
X125735389Y-125069854D01*
X125744960Y-125009422D01*
X125788225Y-124966157D01*
X125833170Y-124955367D01*
X125866804Y-124955367D01*
X125866806Y-124955367D01*
X125982401Y-124924394D01*
X126086040Y-124864558D01*
X126170661Y-124779937D01*
X126230497Y-124676298D01*
X126261470Y-124560703D01*
X126261470Y-124441031D01*
X126230497Y-124325436D01*
X126170661Y-124221797D01*
X126086040Y-124137176D01*
X125982403Y-124077341D01*
X125982405Y-124077341D01*
X125968750Y-124073682D01*
X125866806Y-124046367D01*
X125866804Y-124046367D01*
X125818449Y-124046367D01*
X125760258Y-124027460D01*
X125748446Y-124017371D01*
X125613623Y-123882549D01*
X125545105Y-123842990D01*
X125545101Y-123842988D01*
X125468677Y-123822510D01*
X125468675Y-123822510D01*
X125408006Y-123822510D01*
X125361803Y-123808494D01*
X125361504Y-123809217D01*
X125354172Y-123806180D01*
X125353005Y-123805826D01*
X125352496Y-123805485D01*
X125312314Y-123797492D01*
X125272133Y-123789500D01*
X125272132Y-123789500D01*
X124217870Y-123789500D01*
X124217863Y-123789501D01*
X124137505Y-123805484D01*
X124137504Y-123805485D01*
X124129001Y-123811167D01*
X124070113Y-123827775D01*
X124012709Y-123806597D01*
X123978717Y-123755723D01*
X123975000Y-123728851D01*
X123975000Y-123220076D01*
X123993907Y-123161885D01*
X124043407Y-123125921D01*
X124104593Y-123125921D01*
X124117470Y-123131130D01*
X124218607Y-123180573D01*
X124286740Y-123190500D01*
X124286743Y-123190500D01*
X125206842Y-123190500D01*
X125206842Y-123192092D01*
X125260438Y-123205278D01*
X125293974Y-123239898D01*
X125359481Y-123353360D01*
X125359483Y-123353362D01*
X125359485Y-123353365D01*
X125466635Y-123460515D01*
X125466637Y-123460516D01*
X125466639Y-123460518D01*
X125597861Y-123536279D01*
X125597859Y-123536279D01*
X125597863Y-123536280D01*
X125597865Y-123536281D01*
X125744234Y-123575500D01*
X125744236Y-123575500D01*
X125895764Y-123575500D01*
X125895766Y-123575500D01*
X126042135Y-123536281D01*
X126042137Y-123536279D01*
X126042139Y-123536279D01*
X126173360Y-123460518D01*
X126173360Y-123460517D01*
X126173365Y-123460515D01*
X126280515Y-123353365D01*
X126356281Y-123222135D01*
X126372025Y-123163375D01*
X126405350Y-123112062D01*
X126462471Y-123090136D01*
X126467652Y-123090000D01*
X126976000Y-123090000D01*
X127034191Y-123108907D01*
G37*
%TD.AperFunction*%
%TD*%
%TA.AperFunction,Conductor*%
%TO.N,GND1*%
G36*
X101393933Y-118260960D02*
G01*
X101398994Y-118260159D01*
X101422057Y-118271910D01*
X101446175Y-118281300D01*
X101453511Y-118287936D01*
X101457129Y-118291554D01*
X101457131Y-118291557D01*
X101550317Y-118384743D01*
X101550319Y-118384744D01*
X101550321Y-118384746D01*
X101664441Y-118450633D01*
X101664439Y-118450633D01*
X101664443Y-118450634D01*
X101664445Y-118450635D01*
X101791739Y-118484743D01*
X101791741Y-118484743D01*
X101923521Y-118484743D01*
X101923523Y-118484743D01*
X102050817Y-118450635D01*
X102050819Y-118450633D01*
X102050821Y-118450633D01*
X102164940Y-118384746D01*
X102164940Y-118384745D01*
X102164945Y-118384743D01*
X102187629Y-118362058D01*
X102242144Y-118334283D01*
X102302576Y-118343854D01*
X102327631Y-118362057D01*
X102350317Y-118384743D01*
X102350319Y-118384744D01*
X102350321Y-118384746D01*
X102464441Y-118450633D01*
X102464439Y-118450633D01*
X102464443Y-118450634D01*
X102464445Y-118450635D01*
X102591739Y-118484743D01*
X102591741Y-118484743D01*
X102723521Y-118484743D01*
X102723523Y-118484743D01*
X102850817Y-118450635D01*
X102850819Y-118450633D01*
X102850821Y-118450633D01*
X102964940Y-118384746D01*
X102964940Y-118384745D01*
X102964945Y-118384743D01*
X102987629Y-118362058D01*
X103042144Y-118334283D01*
X103102576Y-118343854D01*
X103127631Y-118362057D01*
X103150317Y-118384743D01*
X103150319Y-118384744D01*
X103150321Y-118384746D01*
X103264441Y-118450633D01*
X103264439Y-118450633D01*
X103264443Y-118450634D01*
X103264445Y-118450635D01*
X103391739Y-118484743D01*
X103391741Y-118484743D01*
X103523521Y-118484743D01*
X103523523Y-118484743D01*
X103650817Y-118450635D01*
X103650819Y-118450633D01*
X103650821Y-118450633D01*
X103764940Y-118384746D01*
X103764940Y-118384745D01*
X103764945Y-118384743D01*
X103855781Y-118293906D01*
X103910295Y-118266130D01*
X103970728Y-118275701D01*
X103979292Y-118280618D01*
X104176812Y-118407557D01*
X104399738Y-118509364D01*
X104399739Y-118509364D01*
X104399743Y-118509366D01*
X104532138Y-118548240D01*
X104634884Y-118578409D01*
X104715743Y-118590035D01*
X104877459Y-118613287D01*
X104877463Y-118613287D01*
X104947273Y-118613287D01*
X110243848Y-118613287D01*
X110251191Y-118613559D01*
X110476815Y-118630344D01*
X110491321Y-118632514D01*
X110708391Y-118681680D01*
X110722416Y-118685971D01*
X110929829Y-118766710D01*
X110943079Y-118773037D01*
X111136246Y-118883560D01*
X111148418Y-118891779D01*
X111323114Y-119029668D01*
X111333935Y-119039597D01*
X111486310Y-119201812D01*
X111495543Y-119213233D01*
X111622241Y-119396201D01*
X111629683Y-119408862D01*
X111727918Y-119608557D01*
X111733404Y-119622174D01*
X111801022Y-119834228D01*
X111804432Y-119848506D01*
X111839932Y-120068208D01*
X111841193Y-120082840D01*
X111843801Y-120305375D01*
X111842884Y-120320033D01*
X111812540Y-120540515D01*
X111809464Y-120554875D01*
X111746838Y-120768437D01*
X111741671Y-120782185D01*
X111646568Y-120987527D01*
X111643234Y-120994076D01*
X104123731Y-134501009D01*
X104123730Y-134501012D01*
X104097541Y-134548051D01*
X104093649Y-134554457D01*
X103966402Y-134747098D01*
X103957218Y-134758943D01*
X103804872Y-134927377D01*
X103794006Y-134937700D01*
X103617970Y-135081215D01*
X103605671Y-135089778D01*
X103410001Y-135205068D01*
X103396548Y-135211677D01*
X103185710Y-135296110D01*
X103171416Y-135300613D01*
X102950246Y-135352253D01*
X102935434Y-135354546D01*
X102709007Y-135372207D01*
X102694020Y-135372238D01*
X102467525Y-135355516D01*
X102452704Y-135353285D01*
X102231318Y-135302562D01*
X102217005Y-135298118D01*
X102005824Y-135214562D01*
X101992345Y-135208009D01*
X101919811Y-135165676D01*
X101796185Y-135093524D01*
X101783864Y-135085022D01*
X101607233Y-134942236D01*
X101596326Y-134931960D01*
X101443281Y-134764157D01*
X101434048Y-134752351D01*
X101395703Y-134694821D01*
X101305913Y-134560104D01*
X101302013Y-134553743D01*
X96342913Y-125732268D01*
X96089896Y-125282189D01*
X96066271Y-125240164D01*
X99745500Y-125240164D01*
X99745500Y-125359836D01*
X99755807Y-125398302D01*
X99776474Y-125475434D01*
X99797041Y-125511056D01*
X99836309Y-125579070D01*
X99920930Y-125663691D01*
X99920932Y-125663692D01*
X100024566Y-125723525D01*
X100024569Y-125723527D01*
X100140164Y-125754500D01*
X100140166Y-125754500D01*
X100259834Y-125754500D01*
X100259836Y-125754500D01*
X100375431Y-125723527D01*
X100479070Y-125663691D01*
X100480498Y-125662262D01*
X100481789Y-125661605D01*
X100484220Y-125659740D01*
X100484565Y-125660190D01*
X100535013Y-125634487D01*
X100595445Y-125644058D01*
X100638710Y-125687323D01*
X100649500Y-125732268D01*
X100649500Y-126020760D01*
X100656118Y-126066182D01*
X100659427Y-126088895D01*
X100710801Y-126193981D01*
X100710802Y-126193983D01*
X100793517Y-126276698D01*
X100847285Y-126302983D01*
X100898604Y-126328072D01*
X100898605Y-126328072D01*
X100898607Y-126328073D01*
X100966740Y-126338000D01*
X100966743Y-126338000D01*
X102058257Y-126338000D01*
X102058260Y-126338000D01*
X102126393Y-126328073D01*
X102148117Y-126317452D01*
X102208698Y-126308882D01*
X102262748Y-126337557D01*
X102287222Y-126380769D01*
X102288186Y-126384363D01*
X102291724Y-126397567D01*
X102351557Y-126501200D01*
X102351559Y-126501203D01*
X102436180Y-126585824D01*
X102436182Y-126585825D01*
X102539816Y-126645658D01*
X102539819Y-126645660D01*
X102655414Y-126676633D01*
X102703771Y-126676633D01*
X102711368Y-126679101D01*
X102719258Y-126677852D01*
X102739913Y-126688376D01*
X102761962Y-126695540D01*
X102773775Y-126705629D01*
X102895504Y-126827358D01*
X102923281Y-126881875D01*
X102924500Y-126897362D01*
X102924500Y-126970760D01*
X102931118Y-127016182D01*
X102934427Y-127038895D01*
X102965478Y-127102410D01*
X102985802Y-127143983D01*
X103034317Y-127192498D01*
X103062093Y-127247013D01*
X103052522Y-127307445D01*
X103034318Y-127332500D01*
X102985802Y-127381017D01*
X102985801Y-127381018D01*
X102934427Y-127486104D01*
X102934427Y-127486107D01*
X102924500Y-127554240D01*
X102924500Y-127920760D01*
X102931118Y-127966182D01*
X102934427Y-127988895D01*
X102961404Y-128044077D01*
X102969975Y-128104659D01*
X102942476Y-128157551D01*
X102939540Y-128160487D01*
X102899980Y-128229007D01*
X102899978Y-128229011D01*
X102879500Y-128305435D01*
X102879500Y-128568760D01*
X102860593Y-128626951D01*
X102847236Y-128640079D01*
X102847809Y-128640652D01*
X102841685Y-128646775D01*
X102841684Y-128646776D01*
X102756776Y-128731684D01*
X102756774Y-128731686D01*
X102706029Y-128840510D01*
X102706028Y-128840511D01*
X102699500Y-128890100D01*
X102699500Y-129309896D01*
X102699501Y-129309907D01*
X102706027Y-129359486D01*
X102706027Y-129359488D01*
X102756774Y-129468313D01*
X102756775Y-129468314D01*
X102756776Y-129468316D01*
X102841684Y-129553224D01*
X102950513Y-129603972D01*
X103000099Y-129610500D01*
X103359900Y-129610499D01*
X103409487Y-129603972D01*
X103409488Y-129603972D01*
X103468137Y-129576622D01*
X103518316Y-129553224D01*
X103603224Y-129468316D01*
X103653972Y-129359487D01*
X103660500Y-129309901D01*
X103660499Y-128890100D01*
X103653972Y-128840513D01*
X103653972Y-128840511D01*
X103603225Y-128731686D01*
X103603224Y-128731685D01*
X103603224Y-128731684D01*
X103518316Y-128646776D01*
X103518314Y-128646775D01*
X103512191Y-128640652D01*
X103514235Y-128638607D01*
X103512764Y-128636656D01*
X103499407Y-128626951D01*
X103494818Y-128612828D01*
X103485886Y-128600969D01*
X103480500Y-128568760D01*
X103480500Y-128510479D01*
X103499407Y-128452288D01*
X103509496Y-128440475D01*
X103682975Y-128266996D01*
X103737492Y-128239219D01*
X103752979Y-128238000D01*
X104333257Y-128238000D01*
X104333260Y-128238000D01*
X104401393Y-128228073D01*
X104506483Y-128176698D01*
X104589198Y-128093983D01*
X104640573Y-127988893D01*
X104650500Y-127920760D01*
X104650500Y-127694947D01*
X104669407Y-127636756D01*
X104679496Y-127624943D01*
X104818335Y-127486104D01*
X104991460Y-127312979D01*
X104999934Y-127298302D01*
X105031021Y-127244457D01*
X105051500Y-127168030D01*
X105051500Y-125436437D01*
X105031021Y-125360010D01*
X105030919Y-125359834D01*
X104991460Y-125291488D01*
X104935511Y-125235538D01*
X104935511Y-125235539D01*
X104153054Y-124453082D01*
X104125277Y-124398565D01*
X104134119Y-124339595D01*
X104140572Y-124326396D01*
X104140572Y-124326394D01*
X104140573Y-124326393D01*
X104150500Y-124258260D01*
X104150500Y-122941740D01*
X104140573Y-122873607D01*
X104089198Y-122768517D01*
X104006483Y-122685802D01*
X104006481Y-122685801D01*
X103901395Y-122634427D01*
X103874139Y-122630456D01*
X103833260Y-122624500D01*
X103466740Y-122624500D01*
X103432673Y-122629463D01*
X103398604Y-122634427D01*
X103293518Y-122685801D01*
X103293517Y-122685801D01*
X103293517Y-122685802D01*
X103220001Y-122759317D01*
X103165487Y-122787093D01*
X103105055Y-122777522D01*
X103079999Y-122759318D01*
X103006483Y-122685802D01*
X103006481Y-122685801D01*
X102901395Y-122634427D01*
X102874139Y-122630456D01*
X102833260Y-122624500D01*
X102466740Y-122624500D01*
X102432673Y-122629463D01*
X102398604Y-122634427D01*
X102293518Y-122685801D01*
X102293517Y-122685801D01*
X102293517Y-122685802D01*
X102220001Y-122759317D01*
X102165487Y-122787093D01*
X102105055Y-122777522D01*
X102079999Y-122759318D01*
X102006483Y-122685802D01*
X102006481Y-122685801D01*
X101901395Y-122634427D01*
X101874139Y-122630456D01*
X101833260Y-122624500D01*
X101466740Y-122624500D01*
X101432673Y-122629463D01*
X101398604Y-122634427D01*
X101293518Y-122685801D01*
X101293517Y-122685801D01*
X101293517Y-122685802D01*
X101220001Y-122759317D01*
X101165487Y-122787093D01*
X101105055Y-122777522D01*
X101079999Y-122759318D01*
X101006483Y-122685802D01*
X101006481Y-122685801D01*
X100901395Y-122634427D01*
X100874139Y-122630456D01*
X100833260Y-122624500D01*
X100466740Y-122624500D01*
X100432673Y-122629463D01*
X100398604Y-122634427D01*
X100293518Y-122685801D01*
X100210801Y-122768518D01*
X100159427Y-122873604D01*
X100159427Y-122873607D01*
X100149500Y-122941740D01*
X100149500Y-124258260D01*
X100150000Y-124261691D01*
X100159427Y-124326395D01*
X100194709Y-124398565D01*
X100210802Y-124431483D01*
X100293517Y-124514198D01*
X100348489Y-124541071D01*
X100349104Y-124541667D01*
X100349953Y-124541802D01*
X100371028Y-124562878D01*
X100392462Y-124583614D01*
X100392610Y-124584460D01*
X100393217Y-124585067D01*
X100397877Y-124614489D01*
X100403032Y-124643879D01*
X100402654Y-124644650D01*
X100402789Y-124645499D01*
X100389252Y-124672066D01*
X100376160Y-124698848D01*
X100375012Y-124700015D01*
X100258525Y-124816503D01*
X100204008Y-124844281D01*
X100188521Y-124845500D01*
X100140164Y-124845500D01*
X100038219Y-124872815D01*
X100024565Y-124876474D01*
X99920932Y-124936307D01*
X99836307Y-125020932D01*
X99776474Y-125124565D01*
X99776473Y-125124569D01*
X99745500Y-125240164D01*
X96066271Y-125240164D01*
X93697921Y-121027234D01*
X93697920Y-121027233D01*
X93678698Y-120993039D01*
X93675335Y-120986499D01*
X93579181Y-120781027D01*
X93573957Y-120767283D01*
X93510397Y-120553376D01*
X93507265Y-120538990D01*
X93488387Y-120404983D01*
X93476136Y-120318020D01*
X93475173Y-120303349D01*
X93477164Y-120080203D01*
X93478390Y-120065532D01*
X93501802Y-119918398D01*
X93513454Y-119845161D01*
X93516843Y-119830835D01*
X93584205Y-119618103D01*
X93589676Y-119604447D01*
X93687855Y-119404041D01*
X93695284Y-119391360D01*
X93822106Y-119207728D01*
X93831338Y-119196286D01*
X93983988Y-119033502D01*
X93994814Y-119023556D01*
X94169920Y-118885215D01*
X94182108Y-118876980D01*
X94375794Y-118766142D01*
X94389063Y-118759809D01*
X94597048Y-118678925D01*
X94611113Y-118674628D01*
X94828792Y-118625489D01*
X94843347Y-118623325D01*
X95069069Y-118606783D01*
X95076382Y-118606519D01*
X95097578Y-118606545D01*
X95097579Y-118606546D01*
X95097580Y-118606546D01*
X100234849Y-118613202D01*
X100236007Y-118613287D01*
X100242417Y-118613287D01*
X100299725Y-118613287D01*
X100352208Y-118613355D01*
X100352463Y-118613287D01*
X100422537Y-118613287D01*
X100422541Y-118613287D01*
X100561153Y-118593356D01*
X100665116Y-118578409D01*
X100854432Y-118522821D01*
X100900256Y-118509366D01*
X100900257Y-118509365D01*
X100900262Y-118509364D01*
X101123188Y-118407557D01*
X101329357Y-118275060D01*
X101329364Y-118275053D01*
X101329983Y-118274656D01*
X101334938Y-118273353D01*
X101338562Y-118269730D01*
X101364123Y-118265681D01*
X101389158Y-118259101D01*
X101393933Y-118260960D01*
G37*
%TD.AperFunction*%
%TD*%
%TA.AperFunction,Conductor*%
%TO.N,GND*%
G36*
X129918317Y-116482002D02*
G01*
X129932447Y-116509811D01*
X129977464Y-116649419D01*
X129978511Y-116652881D01*
X130104180Y-117097624D01*
X130193821Y-117414868D01*
X130271863Y-117691058D01*
X130272780Y-117694547D01*
X130502666Y-118638686D01*
X130528011Y-118742778D01*
X130528802Y-118746308D01*
X130745555Y-119803130D01*
X130746217Y-119806687D01*
X130924213Y-120870720D01*
X130924745Y-120874298D01*
X131063750Y-121944166D01*
X131064150Y-121947762D01*
X131163969Y-123021948D01*
X131164238Y-123025556D01*
X131224742Y-124102689D01*
X131224879Y-124106304D01*
X131245988Y-125184926D01*
X131245993Y-125188544D01*
X131227678Y-126267244D01*
X131227550Y-126270859D01*
X131169836Y-127348116D01*
X131169577Y-127351725D01*
X131072540Y-128426198D01*
X131072149Y-128429794D01*
X130935915Y-129500011D01*
X130935392Y-129503591D01*
X130760153Y-130568081D01*
X130759500Y-130571640D01*
X130545484Y-131629019D01*
X130544702Y-131632551D01*
X130292190Y-132681429D01*
X130291279Y-132684930D01*
X130000619Y-133723857D01*
X129999581Y-133727323D01*
X129671149Y-134754956D01*
X129669985Y-134758381D01*
X129304222Y-135773337D01*
X129302933Y-135776717D01*
X128900350Y-136777587D01*
X128898939Y-136780919D01*
X128460034Y-137766456D01*
X128458502Y-137769733D01*
X127983888Y-138738563D01*
X127982237Y-138741782D01*
X127607662Y-139440556D01*
X127563506Y-139482911D01*
X127521553Y-139492777D01*
X123664694Y-139537385D01*
X123658329Y-139537458D01*
X123658327Y-139537458D01*
X123620801Y-139537892D01*
X123607548Y-139538046D01*
X123606351Y-139538060D01*
X123606350Y-139538059D01*
X123606349Y-139538060D01*
X123606348Y-139538059D01*
X123595184Y-139537559D01*
X123477454Y-139525582D01*
X123455643Y-139520833D01*
X123348938Y-139484601D01*
X123328748Y-139475088D01*
X123232867Y-139415871D01*
X123215318Y-139402076D01*
X123135137Y-139322880D01*
X123121127Y-139305505D01*
X123098531Y-139269912D01*
X123060728Y-139210364D01*
X123050966Y-139190291D01*
X123013417Y-139084036D01*
X123008400Y-139062286D01*
X123007083Y-139050756D01*
X122994959Y-138944629D01*
X122994320Y-138933486D01*
X122994280Y-138881579D01*
X122994275Y-138874721D01*
X122994272Y-138874683D01*
X122994164Y-138740178D01*
X122989353Y-132773407D01*
X123008213Y-132715203D01*
X123057684Y-132679199D01*
X123118870Y-132679150D01*
X123158354Y-132703323D01*
X124680505Y-134225474D01*
X124708281Y-134279989D01*
X124709500Y-134295476D01*
X124709500Y-134524312D01*
X124715932Y-134573172D01*
X124715932Y-134573173D01*
X124765933Y-134680399D01*
X124765934Y-134680400D01*
X124765935Y-134680402D01*
X124849596Y-134764063D01*
X124849597Y-134764063D01*
X124849598Y-134764064D01*
X124956824Y-134814065D01*
X124956825Y-134814065D01*
X124956827Y-134814066D01*
X125005684Y-134820498D01*
X125005685Y-134820498D01*
X125354314Y-134820498D01*
X125354316Y-134820498D01*
X125403173Y-134814066D01*
X125510404Y-134764063D01*
X125594065Y-134680402D01*
X125644068Y-134573171D01*
X125650500Y-134524314D01*
X125650500Y-134075682D01*
X125644068Y-134026825D01*
X125594065Y-133919594D01*
X125510404Y-133835933D01*
X125510402Y-133835932D01*
X125510401Y-133835931D01*
X125459952Y-133812406D01*
X125415204Y-133770677D01*
X125403530Y-133710616D01*
X125429389Y-133655163D01*
X125431760Y-133652707D01*
X125504065Y-133580403D01*
X125554068Y-133473172D01*
X125560500Y-133424315D01*
X125560500Y-132975683D01*
X125554068Y-132926826D01*
X125538588Y-132893630D01*
X125504066Y-132819597D01*
X125504065Y-132819596D01*
X125504065Y-132819595D01*
X125420404Y-132735934D01*
X125420402Y-132735933D01*
X125420401Y-132735932D01*
X125313175Y-132685931D01*
X125278976Y-132681429D01*
X125264316Y-132679499D01*
X125264315Y-132679499D01*
X125035479Y-132679499D01*
X124977288Y-132660592D01*
X124965475Y-132650503D01*
X124066004Y-131751032D01*
X124038227Y-131696515D01*
X124037008Y-131681028D01*
X124037008Y-128928961D01*
X124055915Y-128870770D01*
X124105415Y-128834806D01*
X124116426Y-128831917D01*
X124130248Y-128829127D01*
X124147689Y-128830594D01*
X124208271Y-128822024D01*
X124269741Y-128803170D01*
X124277365Y-128799442D01*
X124289688Y-128796956D01*
X124295476Y-128797624D01*
X124309270Y-128795000D01*
X125152253Y-128795000D01*
X125210444Y-128813907D01*
X125246408Y-128863407D01*
X125247870Y-128868343D01*
X125273202Y-128962883D01*
X125283720Y-129002139D01*
X125359481Y-129133360D01*
X125359483Y-129133362D01*
X125359485Y-129133365D01*
X125466635Y-129240515D01*
X125466637Y-129240516D01*
X125466639Y-129240518D01*
X125597861Y-129316279D01*
X125597859Y-129316279D01*
X125597863Y-129316280D01*
X125597865Y-129316281D01*
X125744234Y-129355500D01*
X125744236Y-129355500D01*
X125895764Y-129355500D01*
X125895766Y-129355500D01*
X126042135Y-129316281D01*
X126042137Y-129316279D01*
X126042139Y-129316279D01*
X126173360Y-129240518D01*
X126173360Y-129240517D01*
X126173365Y-129240515D01*
X126280515Y-129133365D01*
X126356281Y-129002135D01*
X126356281Y-129002132D01*
X126359525Y-128996515D01*
X126360689Y-128997187D01*
X126395839Y-128956025D01*
X126455333Y-128941737D01*
X126463053Y-128942649D01*
X126475394Y-128944604D01*
X126481048Y-128945500D01*
X126481049Y-128945500D01*
X126975993Y-128945500D01*
X126976000Y-128945500D01*
X127008144Y-128942970D01*
X127038737Y-128938125D01*
X127038748Y-128938123D01*
X127038793Y-128938116D01*
X127043281Y-128937353D01*
X127043280Y-128937353D01*
X127043287Y-128937352D01*
X127127383Y-128901408D01*
X127176883Y-128865444D01*
X127204628Y-128841203D01*
X127251536Y-128762693D01*
X127270443Y-128704502D01*
X127280500Y-128641000D01*
X127280500Y-123568397D01*
X127296920Y-123517859D01*
X127295285Y-123516915D01*
X127345988Y-123429095D01*
X127345988Y-123429093D01*
X127345990Y-123429091D01*
X127370557Y-123337404D01*
X127370557Y-123242482D01*
X127370557Y-120360158D01*
X127389464Y-120301967D01*
X127399547Y-120290160D01*
X129051017Y-118638691D01*
X129088067Y-118574519D01*
X129098476Y-118556491D01*
X129098476Y-118556489D01*
X129098478Y-118556487D01*
X129123045Y-118464800D01*
X129123045Y-118369878D01*
X129123045Y-117940331D01*
X129141952Y-117882140D01*
X129152035Y-117870333D01*
X129667196Y-117355173D01*
X129679698Y-117333519D01*
X129714655Y-117272973D01*
X129714655Y-117272971D01*
X129714657Y-117272969D01*
X129739224Y-117181282D01*
X129739224Y-117086360D01*
X129739224Y-116540193D01*
X129758131Y-116482002D01*
X129807631Y-116446038D01*
X129868817Y-116446038D01*
X129918317Y-116482002D01*
G37*
%TD.AperFunction*%
%TA.AperFunction,Conductor*%
G36*
X87531817Y-99691107D02*
G01*
X87589982Y-99710094D01*
X87625878Y-99759643D01*
X87625795Y-99820828D01*
X87601686Y-99860110D01*
X87549844Y-99911952D01*
X87490010Y-100015587D01*
X87490009Y-100015591D01*
X87459036Y-100131186D01*
X87459036Y-100250858D01*
X87482998Y-100340287D01*
X87485419Y-100349321D01*
X87482216Y-100410423D01*
X87443711Y-100457973D01*
X87427678Y-100466408D01*
X87336731Y-100504079D01*
X87214580Y-100585699D01*
X87214576Y-100585702D01*
X87110702Y-100689576D01*
X87110699Y-100689580D01*
X87029078Y-100811732D01*
X87029078Y-100811733D01*
X86972860Y-100947456D01*
X86972860Y-100947458D01*
X86944200Y-101091542D01*
X86944200Y-101238457D01*
X86972860Y-101382541D01*
X86972860Y-101382543D01*
X87029078Y-101518266D01*
X87029078Y-101518267D01*
X87064078Y-101570647D01*
X87110699Y-101640420D01*
X87214580Y-101744301D01*
X87336731Y-101825920D01*
X87336732Y-101825920D01*
X87336733Y-101825921D01*
X87341108Y-101827733D01*
X87472458Y-101882140D01*
X87616545Y-101910800D01*
X87616547Y-101910800D01*
X87763453Y-101910800D01*
X87763455Y-101910800D01*
X87907542Y-101882140D01*
X88043269Y-101825920D01*
X88165420Y-101744301D01*
X88196796Y-101712925D01*
X88215051Y-101703623D01*
X88230916Y-101690661D01*
X88241694Y-101690048D01*
X88251313Y-101685148D01*
X88271548Y-101688352D01*
X88292003Y-101687191D01*
X88301081Y-101693030D01*
X88311745Y-101694719D01*
X88326233Y-101709207D01*
X88343463Y-101720289D01*
X88346870Y-101729844D01*
X88355010Y-101737984D01*
X88365641Y-101777314D01*
X88365800Y-101780112D01*
X88365800Y-101878228D01*
X88372873Y-101904627D01*
X88373451Y-101914795D01*
X88368128Y-101935013D01*
X88367034Y-101955890D01*
X88359631Y-101967288D01*
X88357874Y-101973965D01*
X88352381Y-101978452D01*
X88344616Y-101990411D01*
X88318528Y-102016501D01*
X88264013Y-102044281D01*
X88248522Y-102045500D01*
X88190164Y-102045500D01*
X88088219Y-102072815D01*
X88074565Y-102076474D01*
X87970932Y-102136307D01*
X87886307Y-102220932D01*
X87826474Y-102324565D01*
X87826473Y-102324569D01*
X87795500Y-102440164D01*
X87795500Y-102559836D01*
X87812848Y-102624581D01*
X87826474Y-102675434D01*
X87882095Y-102771772D01*
X87886309Y-102779070D01*
X87970930Y-102863691D01*
X88067651Y-102919533D01*
X88074566Y-102923525D01*
X88074569Y-102923527D01*
X88190164Y-102954500D01*
X88190166Y-102954500D01*
X88309834Y-102954500D01*
X88309836Y-102954500D01*
X88425431Y-102923527D01*
X88529070Y-102863691D01*
X88613691Y-102779070D01*
X88673527Y-102675431D01*
X88704500Y-102559836D01*
X88704500Y-102521477D01*
X88706968Y-102513879D01*
X88705719Y-102505990D01*
X88716243Y-102485334D01*
X88723407Y-102463286D01*
X88733485Y-102451484D01*
X88769586Y-102415383D01*
X88824101Y-102387608D01*
X88865208Y-102389761D01*
X88881772Y-102394200D01*
X88881774Y-102394200D01*
X89038226Y-102394200D01*
X89038228Y-102394200D01*
X89189353Y-102353706D01*
X89189355Y-102353704D01*
X89189357Y-102353704D01*
X89324842Y-102275481D01*
X89324842Y-102275480D01*
X89324847Y-102275478D01*
X89435478Y-102164847D01*
X89509264Y-102037045D01*
X89517125Y-102029967D01*
X89521428Y-102020304D01*
X89539350Y-102009956D01*
X89554733Y-101996106D01*
X89565255Y-101994999D01*
X89574416Y-101989711D01*
X89594997Y-101991873D01*
X89615583Y-101989710D01*
X89624744Y-101994999D01*
X89635266Y-101996105D01*
X89650648Y-102009955D01*
X89668571Y-102020303D01*
X89680733Y-102037043D01*
X89686236Y-102046573D01*
X89699500Y-102096073D01*
X89699500Y-102266731D01*
X89680593Y-102324922D01*
X89670504Y-102336734D01*
X89636308Y-102370930D01*
X89576474Y-102474565D01*
X89576473Y-102474569D01*
X89545500Y-102590164D01*
X89545500Y-102709836D01*
X89564050Y-102779067D01*
X89576474Y-102825434D01*
X89634998Y-102926799D01*
X89636309Y-102929070D01*
X89720930Y-103013691D01*
X89722789Y-103014764D01*
X89723819Y-103015908D01*
X89726076Y-103017640D01*
X89725755Y-103018058D01*
X89763730Y-103060234D01*
X89770124Y-103121085D01*
X89739531Y-103174072D01*
X89683635Y-103198958D01*
X89673288Y-103199500D01*
X84039564Y-103199500D01*
X83960440Y-103199500D01*
X83921380Y-103209966D01*
X83884009Y-103219979D01*
X83815495Y-103259536D01*
X83815490Y-103259540D01*
X83072494Y-104002534D01*
X83017978Y-104030311D01*
X82968633Y-104025560D01*
X82945053Y-104016978D01*
X82945052Y-104016978D01*
X82826737Y-104016978D01*
X82715556Y-104057444D01*
X82715551Y-104057446D01*
X82676468Y-104087436D01*
X82429934Y-104333970D01*
X82399944Y-104373053D01*
X82359476Y-104484239D01*
X82359476Y-104602553D01*
X82364502Y-104616362D01*
X82366637Y-104677510D01*
X82332422Y-104728235D01*
X82274927Y-104749162D01*
X82237615Y-104743253D01*
X82223802Y-104738226D01*
X82105487Y-104738226D01*
X82013319Y-104771772D01*
X81994301Y-104778694D01*
X81955218Y-104808684D01*
X81708684Y-105055218D01*
X81678694Y-105094301D01*
X81678692Y-105094305D01*
X81678692Y-105094306D01*
X81650334Y-105172219D01*
X81638226Y-105205487D01*
X81638226Y-105323803D01*
X81646808Y-105347383D01*
X81647674Y-105372197D01*
X81651559Y-105396728D01*
X81648724Y-105402291D01*
X81648942Y-105408531D01*
X81623782Y-105451245D01*
X81622345Y-105452682D01*
X81567828Y-105480459D01*
X81507396Y-105470888D01*
X81482340Y-105452684D01*
X81260300Y-105230644D01*
X81260296Y-105230641D01*
X81260294Y-105230639D01*
X81179887Y-105172219D01*
X81130329Y-105156117D01*
X81053580Y-105131180D01*
X80920775Y-105131180D01*
X80896683Y-105139008D01*
X80794467Y-105172219D01*
X80714060Y-105230639D01*
X80358027Y-105586672D01*
X80299607Y-105667079D01*
X80279738Y-105728232D01*
X80258568Y-105793387D01*
X80258568Y-105926192D01*
X80273376Y-105971766D01*
X80299607Y-106052499D01*
X80358027Y-106132906D01*
X80358029Y-106132908D01*
X80358032Y-106132912D01*
X80767088Y-106541968D01*
X80767091Y-106541970D01*
X80767093Y-106541972D01*
X80847500Y-106600392D01*
X80847501Y-106600392D01*
X80847502Y-106600393D01*
X80973808Y-106641432D01*
X80973810Y-106641432D01*
X81106611Y-106641432D01*
X81106613Y-106641432D01*
X81232919Y-106600393D01*
X81313333Y-106541968D01*
X81655317Y-106199983D01*
X81699692Y-106174363D01*
X81729683Y-106166327D01*
X81798205Y-106126766D01*
X81854154Y-106070817D01*
X82048754Y-105876215D01*
X82103268Y-105848439D01*
X82152615Y-105853190D01*
X82176198Y-105861774D01*
X82294514Y-105861774D01*
X82303044Y-105860270D01*
X82303394Y-105862258D01*
X82353243Y-105860516D01*
X82403970Y-105894728D01*
X82424899Y-105952223D01*
X82418989Y-105989540D01*
X82413583Y-106004395D01*
X82398853Y-106044865D01*
X82398853Y-106163179D01*
X82400357Y-106171709D01*
X82398337Y-106172065D01*
X82400074Y-106221820D01*
X82365859Y-106272545D01*
X82308363Y-106293470D01*
X82274376Y-106285940D01*
X82273603Y-106288321D01*
X82266192Y-106285913D01*
X82139886Y-106244874D01*
X82007081Y-106244874D01*
X82007079Y-106244874D01*
X81925262Y-106271457D01*
X81925256Y-106271460D01*
X81880775Y-106285913D01*
X81800361Y-106344338D01*
X81798214Y-106346485D01*
X81444333Y-106700366D01*
X81385913Y-106780773D01*
X81366964Y-106839093D01*
X81344874Y-106907081D01*
X81344874Y-107039886D01*
X81366031Y-107105001D01*
X81385913Y-107166193D01*
X81444333Y-107246600D01*
X81444335Y-107246602D01*
X81444338Y-107246606D01*
X81853394Y-107655662D01*
X81853397Y-107655664D01*
X81853399Y-107655666D01*
X81933806Y-107714086D01*
X81933807Y-107714086D01*
X81933808Y-107714087D01*
X82060114Y-107755126D01*
X82060116Y-107755126D01*
X82192917Y-107755126D01*
X82192919Y-107755126D01*
X82319225Y-107714087D01*
X82399639Y-107655662D01*
X82755662Y-107299639D01*
X82814087Y-107219225D01*
X82855126Y-107092919D01*
X82855126Y-106960114D01*
X82814087Y-106833808D01*
X82814086Y-106833807D01*
X82811679Y-106826397D01*
X82814945Y-106825335D01*
X82807677Y-106779686D01*
X82835411Y-106725147D01*
X82889905Y-106697325D01*
X82928058Y-106700982D01*
X82928294Y-106699648D01*
X82936824Y-106701152D01*
X82936825Y-106701152D01*
X83055139Y-106701152D01*
X83055140Y-106701152D01*
X83166321Y-106660686D01*
X83205416Y-106630687D01*
X83451936Y-106384167D01*
X83481935Y-106345072D01*
X83522401Y-106233891D01*
X83522401Y-106115576D01*
X83517374Y-106101766D01*
X83515238Y-106040621D01*
X83549452Y-105989895D01*
X83606947Y-105968967D01*
X83644263Y-105974877D01*
X83658075Y-105979904D01*
X83776389Y-105979904D01*
X83776390Y-105979904D01*
X83887571Y-105939438D01*
X83926666Y-105909439D01*
X84173186Y-105662919D01*
X84203185Y-105623824D01*
X84243651Y-105512643D01*
X84243651Y-105449500D01*
X84262558Y-105391309D01*
X84312058Y-105355345D01*
X84342651Y-105350500D01*
X95973097Y-105350500D01*
X95989812Y-105355931D01*
X96007374Y-105356623D01*
X96018188Y-105365150D01*
X96031288Y-105369407D01*
X96055419Y-105394509D01*
X96055753Y-105395009D01*
X96072354Y-105453899D01*
X96055753Y-105504991D01*
X96055419Y-105505491D01*
X96052449Y-105507832D01*
X96051170Y-105511300D01*
X96030778Y-105524921D01*
X96007374Y-105543377D01*
X96001607Y-105544407D01*
X96000292Y-105545286D01*
X95997338Y-105545169D01*
X95973097Y-105549500D01*
X89624541Y-105549500D01*
X89548118Y-105569978D01*
X89485233Y-105606285D01*
X89485232Y-105606285D01*
X89479598Y-105609537D01*
X83315490Y-111773645D01*
X83315489Y-111773644D01*
X83259540Y-111829594D01*
X83219981Y-111898112D01*
X83219979Y-111898116D01*
X83199501Y-111974540D01*
X83199501Y-113125604D01*
X83180594Y-113183795D01*
X83162120Y-113203090D01*
X83152951Y-113210381D01*
X83119597Y-113225935D01*
X83066024Y-113279507D01*
X83061620Y-113283010D01*
X83037980Y-113291844D01*
X83015488Y-113303305D01*
X83009748Y-113302395D01*
X83004306Y-113304430D01*
X82979986Y-113297682D01*
X82955056Y-113293734D01*
X82948445Y-113288931D01*
X82945349Y-113288072D01*
X82942730Y-113284779D01*
X82930000Y-113275530D01*
X82880405Y-113225935D01*
X82880403Y-113225934D01*
X82880402Y-113225933D01*
X82773176Y-113175932D01*
X82740602Y-113171644D01*
X82724317Y-113169500D01*
X82275685Y-113169500D01*
X82259399Y-113171644D01*
X82226826Y-113175932D01*
X82226825Y-113175932D01*
X82119599Y-113225933D01*
X82035934Y-113309598D01*
X81985933Y-113416824D01*
X81985933Y-113416825D01*
X81985933Y-113416827D01*
X81979501Y-113465684D01*
X81979501Y-113814316D01*
X81982475Y-113836908D01*
X81985933Y-113863174D01*
X81985933Y-113863175D01*
X82035934Y-113970401D01*
X82035935Y-113970402D01*
X82035936Y-113970404D01*
X82119597Y-114054065D01*
X82119598Y-114054065D01*
X82119599Y-114054066D01*
X82226825Y-114104067D01*
X82226826Y-114104067D01*
X82226828Y-114104068D01*
X82275685Y-114110500D01*
X82275686Y-114110500D01*
X82724315Y-114110500D01*
X82724317Y-114110500D01*
X82773174Y-114104068D01*
X82880405Y-114054065D01*
X82929999Y-114004470D01*
X82939933Y-113999409D01*
X82947052Y-113990825D01*
X82966567Y-113985838D01*
X82984514Y-113976695D01*
X82995528Y-113978439D01*
X83006333Y-113975679D01*
X83021551Y-113982560D01*
X83044946Y-113986266D01*
X83063195Y-113998269D01*
X83066744Y-114001212D01*
X83119597Y-114054065D01*
X83144462Y-114065660D01*
X83154269Y-114073792D01*
X83164150Y-114089402D01*
X83177662Y-114102002D01*
X83180115Y-114114624D01*
X83186994Y-114125491D01*
X83185812Y-114143929D01*
X83189337Y-114162063D01*
X83183902Y-114173717D01*
X83183080Y-114186551D01*
X83171287Y-114200771D01*
X83163480Y-114217516D01*
X83148191Y-114228623D01*
X83144024Y-114233650D01*
X83139782Y-114234733D01*
X83132917Y-114239722D01*
X83119597Y-114245933D01*
X83035932Y-114329598D01*
X82985931Y-114436824D01*
X82985931Y-114436825D01*
X82979499Y-114485685D01*
X82979499Y-114834314D01*
X82985931Y-114883174D01*
X82985931Y-114883175D01*
X83035932Y-114990401D01*
X83035933Y-114990402D01*
X83035934Y-114990404D01*
X83063241Y-115017711D01*
X83091017Y-115072226D01*
X83081446Y-115132658D01*
X83038181Y-115175923D01*
X82993236Y-115186713D01*
X81653812Y-115186713D01*
X81653719Y-115186683D01*
X81502501Y-115186690D01*
X81284666Y-115221212D01*
X81284658Y-115221214D01*
X81074910Y-115289406D01*
X81074909Y-115289407D01*
X80878412Y-115389590D01*
X80700023Y-115519290D01*
X80544127Y-115675317D01*
X80414575Y-115853817D01*
X80314560Y-116050391D01*
X80246540Y-116260200D01*
X80212198Y-116478071D01*
X80212223Y-116509811D01*
X80212243Y-116535611D01*
X80212243Y-116535615D01*
X80212261Y-116557516D01*
X80212285Y-116588347D01*
X80212300Y-116606553D01*
X80212301Y-116607822D01*
X80212301Y-116607823D01*
X80225473Y-132940862D01*
X80225473Y-132940869D01*
X80225477Y-132946285D01*
X80224862Y-132957372D01*
X80211780Y-133074232D01*
X80206860Y-133095857D01*
X80169934Y-133201599D01*
X80160323Y-133221586D01*
X80100787Y-133316450D01*
X80086968Y-133333797D01*
X80007804Y-133413031D01*
X79990469Y-133426865D01*
X79895654Y-133486487D01*
X79875675Y-133496116D01*
X79769973Y-133533132D01*
X79748352Y-133538072D01*
X79631908Y-133551211D01*
X79620811Y-133551835D01*
X73277335Y-133552009D01*
X73219143Y-133533103D01*
X73183178Y-133483604D01*
X73182097Y-133480053D01*
X73180143Y-133473173D01*
X72987994Y-132796530D01*
X72987074Y-132793047D01*
X72982265Y-132773409D01*
X72730476Y-131745160D01*
X72729684Y-131741645D01*
X72725636Y-131722036D01*
X72511548Y-130685099D01*
X72510885Y-130681562D01*
X72492349Y-130571640D01*
X72331491Y-129617709D01*
X72330958Y-129614148D01*
X72316447Y-129503591D01*
X72190555Y-128544457D01*
X72190159Y-128540937D01*
X72088930Y-127466804D01*
X72088661Y-127463271D01*
X72026744Y-126386104D01*
X72026606Y-126382587D01*
X72004088Y-125303967D01*
X72004079Y-125300355D01*
X72009995Y-124922878D01*
X72020986Y-124221592D01*
X72021106Y-124218058D01*
X72077419Y-123140608D01*
X72077667Y-123137096D01*
X72173306Y-122062454D01*
X72173690Y-122058883D01*
X72187688Y-121947762D01*
X72308530Y-120988441D01*
X72309034Y-120984957D01*
X72482894Y-119920173D01*
X72483540Y-119916626D01*
X72486023Y-119904275D01*
X72696189Y-118858897D01*
X72696945Y-118855463D01*
X72948104Y-117806192D01*
X72948989Y-117802770D01*
X73238324Y-116763346D01*
X73239327Y-116759985D01*
X73566440Y-115731850D01*
X73567563Y-115728530D01*
X73808262Y-115057866D01*
X73845714Y-115009485D01*
X73904453Y-114992357D01*
X73962042Y-115013025D01*
X73996484Y-115063596D01*
X73997069Y-115065688D01*
X74021213Y-115155798D01*
X74026475Y-115175434D01*
X74081362Y-115270500D01*
X74086310Y-115279070D01*
X74170931Y-115363691D01*
X74262227Y-115416401D01*
X74274567Y-115423525D01*
X74274570Y-115423527D01*
X74390165Y-115454500D01*
X74390167Y-115454500D01*
X74509835Y-115454500D01*
X74509837Y-115454500D01*
X74625432Y-115423527D01*
X74683723Y-115389872D01*
X74743568Y-115377151D01*
X74799464Y-115402037D01*
X74830057Y-115455024D01*
X74823663Y-115515875D01*
X74822946Y-115517448D01*
X74785931Y-115596827D01*
X74779499Y-115645685D01*
X74779499Y-115874521D01*
X74760592Y-115932712D01*
X74750503Y-115944524D01*
X74709540Y-115985487D01*
X74669981Y-116054005D01*
X74669979Y-116054009D01*
X74649501Y-116130433D01*
X74649501Y-116720143D01*
X74630594Y-116778334D01*
X74583199Y-116813587D01*
X74487118Y-116847208D01*
X74487117Y-116847208D01*
X74377856Y-116927846D01*
X74377846Y-116927856D01*
X74297208Y-117037117D01*
X74252356Y-117165297D01*
X74252354Y-117165306D01*
X74249501Y-117195726D01*
X74249501Y-119904275D01*
X74252354Y-119934695D01*
X74252356Y-119934704D01*
X74297208Y-120062884D01*
X74377846Y-120172145D01*
X74377848Y-120172147D01*
X74377851Y-120172151D01*
X74377854Y-120172153D01*
X74377856Y-120172155D01*
X74487115Y-120252792D01*
X74487117Y-120252792D01*
X74487119Y-120252794D01*
X74583197Y-120286413D01*
X74631877Y-120323478D01*
X74649499Y-120379857D01*
X74649499Y-125620142D01*
X74630592Y-125678333D01*
X74583197Y-125713586D01*
X74487116Y-125747207D01*
X74487115Y-125747207D01*
X74377854Y-125827845D01*
X74377844Y-125827855D01*
X74297206Y-125937116D01*
X74252354Y-126065296D01*
X74252352Y-126065305D01*
X74249499Y-126095725D01*
X74249499Y-128804274D01*
X74252352Y-128834694D01*
X74252354Y-128834703D01*
X74297206Y-128962883D01*
X74377844Y-129072144D01*
X74377846Y-129072146D01*
X74377849Y-129072150D01*
X74377852Y-129072152D01*
X74377854Y-129072154D01*
X74487115Y-129152792D01*
X74487116Y-129152792D01*
X74487117Y-129152793D01*
X74615300Y-129197646D01*
X74645724Y-129200499D01*
X74645726Y-129200500D01*
X74645733Y-129200500D01*
X75254272Y-129200500D01*
X75254272Y-129200499D01*
X75284698Y-129197646D01*
X75412881Y-129152793D01*
X75522149Y-129072150D01*
X75602792Y-128962882D01*
X75647645Y-128834699D01*
X75650498Y-128804273D01*
X75650499Y-128804273D01*
X75650499Y-126095727D01*
X75650498Y-126095725D01*
X75647645Y-126065305D01*
X75647645Y-126065301D01*
X75602792Y-125937118D01*
X75522149Y-125827850D01*
X75522145Y-125827847D01*
X75522143Y-125827845D01*
X75412882Y-125747207D01*
X75316801Y-125713586D01*
X75268120Y-125676520D01*
X75250499Y-125620142D01*
X75250499Y-120379858D01*
X75269406Y-120321667D01*
X75316799Y-120286415D01*
X75412883Y-120252794D01*
X75522151Y-120172151D01*
X75602794Y-120062883D01*
X75647647Y-119934700D01*
X75650500Y-119904274D01*
X75650501Y-119904274D01*
X75650501Y-117195728D01*
X75650500Y-117195726D01*
X75647647Y-117165302D01*
X75602794Y-117037119D01*
X75591446Y-117021743D01*
X75522155Y-116927856D01*
X75522153Y-116927854D01*
X75522151Y-116927851D01*
X75522147Y-116927848D01*
X75522145Y-116927846D01*
X75412884Y-116847208D01*
X75316803Y-116813587D01*
X75268122Y-116776521D01*
X75250501Y-116720143D01*
X75250501Y-116389500D01*
X75269408Y-116331309D01*
X75318908Y-116295345D01*
X75349501Y-116290500D01*
X75524313Y-116290500D01*
X75524315Y-116290500D01*
X75573172Y-116284068D01*
X75680403Y-116234065D01*
X75764064Y-116150404D01*
X75764064Y-116150402D01*
X75764971Y-116149496D01*
X75819488Y-116121719D01*
X75834975Y-116120500D01*
X75919564Y-116120500D01*
X75919564Y-116120499D01*
X75995990Y-116100021D01*
X76064512Y-116060460D01*
X76120461Y-116004511D01*
X76241476Y-115883496D01*
X76295993Y-115855719D01*
X76311480Y-115854500D01*
X76359835Y-115854500D01*
X76359837Y-115854500D01*
X76475432Y-115823527D01*
X76579071Y-115763691D01*
X76663692Y-115679070D01*
X76723528Y-115575431D01*
X76754501Y-115459836D01*
X76754501Y-115340164D01*
X76723528Y-115224569D01*
X76698601Y-115181395D01*
X76680704Y-115150395D01*
X76663692Y-115120930D01*
X76579071Y-115036309D01*
X76560233Y-115025433D01*
X76475434Y-114976474D01*
X76475436Y-114976474D01*
X76461781Y-114972815D01*
X76359837Y-114945500D01*
X76240165Y-114945500D01*
X76138220Y-114972815D01*
X76124566Y-114976474D01*
X76020931Y-115036308D01*
X75986937Y-115070302D01*
X75932420Y-115098079D01*
X75871988Y-115088507D01*
X75828724Y-115045242D01*
X75818781Y-114987375D01*
X75820501Y-114974316D01*
X75820501Y-114625684D01*
X75814069Y-114576827D01*
X75813904Y-114576474D01*
X75764067Y-114469598D01*
X75764066Y-114469597D01*
X75764066Y-114469596D01*
X75680405Y-114385935D01*
X75680403Y-114385934D01*
X75680402Y-114385933D01*
X75573176Y-114335932D01*
X75540602Y-114331644D01*
X75524317Y-114329500D01*
X75075685Y-114329500D01*
X75059399Y-114331644D01*
X75026826Y-114335932D01*
X75026825Y-114335932D01*
X74919599Y-114385933D01*
X74919597Y-114385934D01*
X74919597Y-114385935D01*
X74835936Y-114469596D01*
X74835935Y-114469597D01*
X74835029Y-114470504D01*
X74780512Y-114498281D01*
X74765025Y-114499500D01*
X74689563Y-114499500D01*
X74610439Y-114499500D01*
X74534013Y-114519978D01*
X74534012Y-114519978D01*
X74534010Y-114519979D01*
X74516692Y-114529977D01*
X74515486Y-114530675D01*
X74512782Y-114532236D01*
X74463281Y-114545500D01*
X74390165Y-114545500D01*
X74288220Y-114572815D01*
X74274566Y-114576474D01*
X74170930Y-114636309D01*
X74165042Y-114642197D01*
X74110524Y-114669972D01*
X74050093Y-114660398D01*
X74006830Y-114617131D01*
X73997262Y-114556698D01*
X74003144Y-114535371D01*
X74334594Y-113708230D01*
X74335977Y-113704951D01*
X74773627Y-112718767D01*
X74775123Y-112715556D01*
X75248497Y-111746056D01*
X75250104Y-111742911D01*
X75758623Y-110791281D01*
X75760303Y-110788271D01*
X76303228Y-109855897D01*
X76305095Y-109852823D01*
X76881693Y-108940958D01*
X76883636Y-108938006D01*
X77493179Y-108047797D01*
X77495267Y-108044865D01*
X78136922Y-107177531D01*
X78139071Y-107174734D01*
X78811992Y-106331418D01*
X78814260Y-106328680D01*
X79517579Y-105510473D01*
X79519896Y-105507875D01*
X80252644Y-104715908D01*
X80255086Y-104713364D01*
X81016254Y-103948727D01*
X81018808Y-103946253D01*
X81807392Y-103209949D01*
X81810043Y-103207563D01*
X82625007Y-102500559D01*
X82627705Y-102498304D01*
X83467978Y-101821532D01*
X83470780Y-101819358D01*
X84335202Y-101173751D01*
X84338073Y-101171688D01*
X85225517Y-100558089D01*
X85228462Y-100556131D01*
X86137728Y-99975370D01*
X86140767Y-99973506D01*
X86599510Y-99703576D01*
X86649843Y-99689903D01*
X87531817Y-99691107D01*
G37*
%TD.AperFunction*%
%TA.AperFunction,Conductor*%
G36*
X126492239Y-117294867D02*
G01*
X126504052Y-117304956D01*
X127133607Y-117934511D01*
X127133606Y-117934511D01*
X127189556Y-117990460D01*
X127258074Y-118030019D01*
X127258078Y-118030021D01*
X127334502Y-118050499D01*
X127334504Y-118050500D01*
X127334505Y-118050500D01*
X127413629Y-118050500D01*
X128303045Y-118050500D01*
X128317957Y-118055345D01*
X128333638Y-118055345D01*
X128346323Y-118064561D01*
X128361236Y-118069407D01*
X128370452Y-118082092D01*
X128383138Y-118091309D01*
X128387983Y-118106221D01*
X128397200Y-118118907D01*
X128402045Y-118149500D01*
X128402045Y-118227007D01*
X128383138Y-118285198D01*
X128373049Y-118297011D01*
X126788705Y-119881355D01*
X126788704Y-119881354D01*
X126721585Y-119948474D01*
X126721581Y-119948479D01*
X126674125Y-120030674D01*
X126674124Y-120030679D01*
X126652569Y-120111127D01*
X126649557Y-120122367D01*
X126649557Y-122785500D01*
X126644724Y-122800371D01*
X126644739Y-122816008D01*
X126635509Y-122828735D01*
X126630650Y-122843691D01*
X126617998Y-122852882D01*
X126608820Y-122865540D01*
X126593890Y-122870398D01*
X126581150Y-122879655D01*
X126550646Y-122884500D01*
X126467652Y-122884500D01*
X126462260Y-122884571D01*
X126461912Y-122884580D01*
X126460929Y-122884581D01*
X126432368Y-122875329D01*
X126403707Y-122866432D01*
X126403325Y-122865921D01*
X126402722Y-122865726D01*
X126385066Y-122841471D01*
X126367096Y-122817409D01*
X126366771Y-122816339D01*
X126366713Y-122816259D01*
X126366712Y-122816146D01*
X126365220Y-122811226D01*
X126356281Y-122777865D01*
X126334070Y-122739394D01*
X126280518Y-122646639D01*
X126280516Y-122646637D01*
X126280515Y-122646635D01*
X126173365Y-122539485D01*
X126173362Y-122539483D01*
X126173360Y-122539481D01*
X126042138Y-122463720D01*
X126042140Y-122463720D01*
X125985347Y-122448503D01*
X125895766Y-122424500D01*
X125744234Y-122424500D01*
X125654652Y-122448503D01*
X125597860Y-122463720D01*
X125466639Y-122539481D01*
X125359481Y-122646639D01*
X125283720Y-122777860D01*
X125274786Y-122811203D01*
X125247878Y-122911625D01*
X125214556Y-122962937D01*
X125157435Y-122984864D01*
X125152253Y-122985000D01*
X124309360Y-122985000D01*
X124265881Y-122974941D01*
X124207734Y-122946515D01*
X124207163Y-122946260D01*
X124194532Y-122940626D01*
X124181655Y-122935417D01*
X124181653Y-122935416D01*
X124104595Y-122920421D01*
X124104593Y-122920421D01*
X124043407Y-122920421D01*
X124043389Y-122920421D01*
X124006717Y-122923723D01*
X124006715Y-122923723D01*
X124006713Y-122923724D01*
X123963756Y-122942084D01*
X123902820Y-122947568D01*
X123850295Y-122916185D01*
X123826248Y-122859924D01*
X123825850Y-122851050D01*
X123825850Y-120363969D01*
X123844757Y-120305778D01*
X123854846Y-120293965D01*
X125296189Y-118852622D01*
X125350706Y-118824845D01*
X125366193Y-118823626D01*
X125483257Y-118823626D01*
X125483260Y-118823626D01*
X125551393Y-118813699D01*
X125656483Y-118762324D01*
X125739198Y-118679609D01*
X125790573Y-118574519D01*
X125800500Y-118506386D01*
X125800500Y-117414866D01*
X125796765Y-117389232D01*
X125807085Y-117328925D01*
X125850883Y-117286200D01*
X125894731Y-117275960D01*
X126434048Y-117275960D01*
X126492239Y-117294867D01*
G37*
%TD.AperFunction*%
%TA.AperFunction,Conductor*%
G36*
X124541066Y-116964162D02*
G01*
X124796945Y-117220040D01*
X124824723Y-117274557D01*
X124815886Y-117333519D01*
X124809427Y-117346731D01*
X124809427Y-117346733D01*
X124799501Y-117414864D01*
X124799500Y-117414869D01*
X124799500Y-118458361D01*
X124780593Y-118516552D01*
X124770504Y-118528365D01*
X123593854Y-119705015D01*
X123539337Y-119732792D01*
X123478905Y-119723221D01*
X123435640Y-119679956D01*
X123424850Y-119635011D01*
X123424850Y-118922624D01*
X123443757Y-118864433D01*
X123493257Y-118828469D01*
X123523850Y-118823624D01*
X123583259Y-118823624D01*
X123583262Y-118823624D01*
X123651395Y-118813697D01*
X123756485Y-118762322D01*
X123839200Y-118679607D01*
X123890575Y-118574517D01*
X123900502Y-118506384D01*
X123900502Y-117414864D01*
X123892082Y-117357077D01*
X123902402Y-117296771D01*
X123946199Y-117254046D01*
X123990048Y-117243806D01*
X124033141Y-117243806D01*
X124033143Y-117243806D01*
X124148738Y-117212833D01*
X124252377Y-117152997D01*
X124336998Y-117068376D01*
X124385328Y-116984664D01*
X124430795Y-116943725D01*
X124491645Y-116937329D01*
X124541066Y-116964162D01*
G37*
%TD.AperFunction*%
%TA.AperFunction,Conductor*%
G36*
X126242718Y-114919407D02*
G01*
X126254530Y-114929496D01*
X126350446Y-115025411D01*
X126445112Y-115120077D01*
X126507551Y-115161797D01*
X126590302Y-115178258D01*
X126643684Y-115208154D01*
X126669299Y-115263720D01*
X126669985Y-115275355D01*
X126669985Y-115600446D01*
X126651078Y-115658637D01*
X126640989Y-115670449D01*
X126479172Y-115832266D01*
X126449179Y-115871353D01*
X126449177Y-115871357D01*
X126449177Y-115871358D01*
X126408711Y-115982539D01*
X126408711Y-116100854D01*
X126449177Y-116212035D01*
X126449178Y-116212036D01*
X126449179Y-116212039D01*
X126479169Y-116251122D01*
X126479172Y-116251125D01*
X126479176Y-116251130D01*
X126725696Y-116497650D01*
X126764791Y-116527649D01*
X126875972Y-116568115D01*
X126880616Y-116568115D01*
X126994286Y-116568115D01*
X126994287Y-116568115D01*
X127105468Y-116527649D01*
X127144563Y-116497650D01*
X127461794Y-116180419D01*
X127491793Y-116141324D01*
X127526684Y-116045457D01*
X127564354Y-115997244D01*
X127619714Y-115980319D01*
X127743458Y-115980319D01*
X127743459Y-115980319D01*
X127854640Y-115939853D01*
X127893735Y-115909854D01*
X128210966Y-115592623D01*
X128240965Y-115553528D01*
X128262411Y-115494603D01*
X128300081Y-115446389D01*
X128355441Y-115429464D01*
X128449853Y-115429464D01*
X128449855Y-115429464D01*
X128565450Y-115398491D01*
X128669089Y-115338655D01*
X128753710Y-115254034D01*
X128769098Y-115227380D01*
X128814565Y-115186440D01*
X128875415Y-115180043D01*
X128928404Y-115210635D01*
X128947250Y-115241380D01*
X128955965Y-115264068D01*
X129010460Y-115405935D01*
X129011640Y-115409005D01*
X129018224Y-115444505D01*
X129018224Y-116943489D01*
X128999317Y-117001680D01*
X128989228Y-117013493D01*
X128582217Y-117420504D01*
X128527700Y-117448281D01*
X128512213Y-117449500D01*
X127539546Y-117449500D01*
X127481355Y-117430593D01*
X127469542Y-117420504D01*
X126796324Y-116747286D01*
X126784038Y-116735000D01*
X126715516Y-116695439D01*
X126639089Y-116674960D01*
X126638801Y-116674960D01*
X125700591Y-116674960D01*
X125642400Y-116656053D01*
X125606436Y-116606553D01*
X125606436Y-116545367D01*
X125642400Y-116495867D01*
X125655856Y-116487773D01*
X125656477Y-116487328D01*
X125656483Y-116487326D01*
X125739198Y-116404611D01*
X125790573Y-116299521D01*
X125800500Y-116231388D01*
X125800500Y-115139868D01*
X125790573Y-115071735D01*
X125789872Y-115070302D01*
X125776516Y-115042980D01*
X125767945Y-114982398D01*
X125796621Y-114928348D01*
X125851589Y-114901476D01*
X125865457Y-114900500D01*
X126184527Y-114900500D01*
X126242718Y-114919407D01*
G37*
%TD.AperFunction*%
%TA.AperFunction,Conductor*%
G36*
X87553971Y-108481848D02*
G01*
X87597236Y-108525113D01*
X87608026Y-108570058D01*
X87608026Y-109996063D01*
X87608026Y-110090985D01*
X87629692Y-110171845D01*
X87632594Y-110182676D01*
X87680050Y-110264871D01*
X87680052Y-110264873D01*
X87680054Y-110264876D01*
X87720506Y-110305328D01*
X87748282Y-110359843D01*
X87749501Y-110375330D01*
X87749501Y-110983259D01*
X87755680Y-111025665D01*
X87759428Y-111051394D01*
X87805273Y-111145170D01*
X87810803Y-111156482D01*
X87893518Y-111239197D01*
X87895036Y-111239939D01*
X87896594Y-111241393D01*
X87900196Y-111243965D01*
X87899857Y-111244438D01*
X87937298Y-111279381D01*
X87961529Y-111321350D01*
X88270508Y-111630329D01*
X88274133Y-111637444D01*
X88280596Y-111642140D01*
X88287759Y-111664188D01*
X88298284Y-111684844D01*
X88299503Y-111700331D01*
X88299503Y-111734518D01*
X88280596Y-111792709D01*
X88270508Y-111804520D01*
X88204523Y-111870504D01*
X88150008Y-111898281D01*
X88134521Y-111899500D01*
X88034108Y-111899500D01*
X87956200Y-111920375D01*
X87906809Y-111933609D01*
X87792690Y-111999496D01*
X87699496Y-112092690D01*
X87633609Y-112206809D01*
X87614539Y-112277978D01*
X87599500Y-112334108D01*
X87599500Y-112465892D01*
X87627706Y-112571158D01*
X87633609Y-112593190D01*
X87699496Y-112707309D01*
X87699498Y-112707311D01*
X87699500Y-112707314D01*
X87792686Y-112800500D01*
X87792688Y-112800501D01*
X87792690Y-112800503D01*
X87906810Y-112866390D01*
X87906808Y-112866390D01*
X87906812Y-112866391D01*
X87906814Y-112866392D01*
X88034108Y-112900500D01*
X88034110Y-112900500D01*
X88165890Y-112900500D01*
X88165892Y-112900500D01*
X88293186Y-112866392D01*
X88293188Y-112866390D01*
X88293190Y-112866390D01*
X88407309Y-112800503D01*
X88407309Y-112800502D01*
X88407314Y-112800500D01*
X88500500Y-112707314D01*
X88514208Y-112683571D01*
X88566390Y-112593190D01*
X88566390Y-112593188D01*
X88566392Y-112593186D01*
X88600500Y-112465892D01*
X88600500Y-112365477D01*
X88602968Y-112357879D01*
X88601719Y-112349990D01*
X88612243Y-112329334D01*
X88619407Y-112307286D01*
X88629489Y-112295481D01*
X88712573Y-112212397D01*
X88767087Y-112184622D01*
X88827519Y-112194193D01*
X88852578Y-112212399D01*
X89428651Y-112788472D01*
X89428653Y-112788473D01*
X89428654Y-112788474D01*
X89428655Y-112788475D01*
X89510851Y-112835931D01*
X89510849Y-112835931D01*
X89510853Y-112835932D01*
X89510855Y-112835933D01*
X89602542Y-112860500D01*
X89602544Y-112860500D01*
X93327611Y-112860500D01*
X93327612Y-112860500D01*
X93349877Y-112854534D01*
X93410977Y-112857735D01*
X93458527Y-112896239D01*
X93474500Y-112950160D01*
X93474500Y-113387539D01*
X93474500Y-113482461D01*
X93496166Y-113563321D01*
X93499068Y-113574152D01*
X93546524Y-113656347D01*
X93546525Y-113656348D01*
X93546526Y-113656349D01*
X93546528Y-113656352D01*
X94164165Y-114273989D01*
X94164164Y-114273989D01*
X94231284Y-114341108D01*
X94231289Y-114341112D01*
X94313485Y-114388568D01*
X94313483Y-114388568D01*
X94313487Y-114388569D01*
X94313489Y-114388570D01*
X94405176Y-114413137D01*
X95552539Y-114413137D01*
X95647461Y-114413137D01*
X95652304Y-114413137D01*
X95710495Y-114432044D01*
X95722307Y-114442133D01*
X95814050Y-114533875D01*
X95814055Y-114533879D01*
X95896251Y-114581335D01*
X95896249Y-114581335D01*
X95896253Y-114581336D01*
X95896255Y-114581337D01*
X95987942Y-114605904D01*
X96082864Y-114605904D01*
X104171381Y-114605904D01*
X104229572Y-114624811D01*
X104257119Y-114655406D01*
X104258891Y-114658476D01*
X104661548Y-115061134D01*
X104689325Y-115115650D01*
X104679754Y-115176082D01*
X104636489Y-115219347D01*
X104619435Y-115226127D01*
X104399743Y-115290633D01*
X104239770Y-115363691D01*
X104183062Y-115389589D01*
X104176810Y-115392444D01*
X104176802Y-115392448D01*
X103996142Y-115508551D01*
X103936967Y-115524106D01*
X103879951Y-115501907D01*
X103862693Y-115481604D01*
X103862080Y-115482075D01*
X103858136Y-115476935D01*
X103858132Y-115476931D01*
X103858131Y-115476929D01*
X103764945Y-115383743D01*
X103764942Y-115383741D01*
X103764940Y-115383739D01*
X103650820Y-115317852D01*
X103650822Y-115317852D01*
X103601430Y-115304618D01*
X103523523Y-115283743D01*
X103391739Y-115283743D01*
X103313831Y-115304618D01*
X103264440Y-115317852D01*
X103150321Y-115383739D01*
X103150315Y-115383744D01*
X103127633Y-115406426D01*
X103073116Y-115434202D01*
X103012684Y-115424630D01*
X102987629Y-115406426D01*
X102964946Y-115383744D01*
X102964940Y-115383739D01*
X102850820Y-115317852D01*
X102850822Y-115317852D01*
X102801430Y-115304618D01*
X102723523Y-115283743D01*
X102591739Y-115283743D01*
X102513831Y-115304618D01*
X102464440Y-115317852D01*
X102350321Y-115383739D01*
X102350315Y-115383744D01*
X102327633Y-115406426D01*
X102273116Y-115434202D01*
X102212684Y-115424630D01*
X102187629Y-115406426D01*
X102164946Y-115383744D01*
X102164940Y-115383739D01*
X102050820Y-115317852D01*
X102050822Y-115317852D01*
X102001430Y-115304618D01*
X101923523Y-115283743D01*
X101791739Y-115283743D01*
X101713831Y-115304618D01*
X101664440Y-115317852D01*
X101550321Y-115383739D01*
X101457128Y-115476932D01*
X101457125Y-115476936D01*
X101454243Y-115481928D01*
X101408771Y-115522865D01*
X101347920Y-115529256D01*
X101314987Y-115515705D01*
X101123190Y-115392444D01*
X101116938Y-115389589D01*
X100959857Y-115317852D01*
X100900256Y-115290633D01*
X100665117Y-115221591D01*
X100665113Y-115221590D01*
X100422541Y-115186713D01*
X100422537Y-115186713D01*
X100352727Y-115186713D01*
X84006762Y-115186713D01*
X83984714Y-115179549D01*
X83961817Y-115175923D01*
X83956168Y-115170274D01*
X83948571Y-115167806D01*
X83934943Y-115149049D01*
X83918552Y-115132658D01*
X83917302Y-115124768D01*
X83912607Y-115118306D01*
X83912607Y-115095120D01*
X83908981Y-115072226D01*
X83912607Y-115065109D01*
X83912607Y-115057120D01*
X83936756Y-115017711D01*
X83964064Y-114990404D01*
X83964064Y-114990402D01*
X83964971Y-114989496D01*
X84019488Y-114961719D01*
X84034975Y-114960500D01*
X84079563Y-114960500D01*
X84079563Y-114960499D01*
X84155989Y-114940021D01*
X84224511Y-114900460D01*
X84280460Y-114844511D01*
X84541475Y-114583496D01*
X84595992Y-114555719D01*
X84611479Y-114554500D01*
X84659834Y-114554500D01*
X84659836Y-114554500D01*
X84775431Y-114523527D01*
X84879070Y-114463691D01*
X84963691Y-114379070D01*
X85023527Y-114275431D01*
X85054500Y-114159836D01*
X85054500Y-114040164D01*
X85023527Y-113924569D01*
X85020003Y-113918466D01*
X84963692Y-113820932D01*
X84963691Y-113820930D01*
X84879070Y-113736309D01*
X84868816Y-113730389D01*
X84775433Y-113676474D01*
X84775435Y-113676474D01*
X84725674Y-113663141D01*
X84659836Y-113645500D01*
X84540164Y-113645500D01*
X84474326Y-113663141D01*
X84424565Y-113676474D01*
X84320932Y-113736307D01*
X84236308Y-113820931D01*
X84204479Y-113876061D01*
X84159009Y-113917001D01*
X84098159Y-113923396D01*
X84045171Y-113892803D01*
X84020285Y-113836908D01*
X84020539Y-113817565D01*
X84020289Y-113817549D01*
X84020501Y-113814315D01*
X84020501Y-113465685D01*
X84018523Y-113450659D01*
X84014069Y-113416827D01*
X84012770Y-113414042D01*
X83964067Y-113309598D01*
X83964066Y-113309597D01*
X83964066Y-113309596D01*
X83880405Y-113225935D01*
X83880403Y-113225934D01*
X83880402Y-113225933D01*
X83857660Y-113215328D01*
X83812913Y-113173598D01*
X83800501Y-113125604D01*
X83800501Y-112179583D01*
X83819408Y-112121392D01*
X83829491Y-112109585D01*
X87439022Y-108500053D01*
X87493539Y-108472277D01*
X87553971Y-108481848D01*
G37*
%TD.AperFunction*%
%TA.AperFunction,Conductor*%
G36*
X113982004Y-114398396D02*
G01*
X114242021Y-114658413D01*
X114242020Y-114658413D01*
X114294949Y-114711341D01*
X114316588Y-114732980D01*
X114407914Y-114785707D01*
X114426153Y-114790594D01*
X114470535Y-114816217D01*
X114488633Y-114834314D01*
X114506017Y-114851698D01*
X114547681Y-114872066D01*
X114611104Y-114903072D01*
X114611105Y-114903072D01*
X114611107Y-114903073D01*
X114679240Y-114913000D01*
X115211427Y-114913000D01*
X115237049Y-114916373D01*
X115289773Y-114930500D01*
X115395227Y-114930500D01*
X116218016Y-114930500D01*
X116261867Y-114940742D01*
X116276364Y-114947904D01*
X116281684Y-114953224D01*
X116378684Y-114998456D01*
X116379694Y-114998955D01*
X116400822Y-115019567D01*
X116422430Y-115039717D01*
X116422653Y-115040864D01*
X116423490Y-115041681D01*
X116428470Y-115070789D01*
X116434105Y-115099778D01*
X116433610Y-115100837D01*
X116433808Y-115101990D01*
X116420732Y-115128454D01*
X116408247Y-115155231D01*
X116407223Y-115155798D01*
X116406706Y-115156846D01*
X116380573Y-115170570D01*
X116354733Y-115184894D01*
X116352978Y-115185062D01*
X116352537Y-115185295D01*
X116351753Y-115185180D01*
X116335843Y-115186713D01*
X111889158Y-115186713D01*
X111830967Y-115167806D01*
X111795003Y-115118306D01*
X111795003Y-115057120D01*
X111830967Y-115007620D01*
X111847319Y-114997989D01*
X111925098Y-114961719D01*
X111943316Y-114953224D01*
X111968192Y-114928348D01*
X111977045Y-114919496D01*
X112031562Y-114891719D01*
X112047048Y-114890500D01*
X112287484Y-114890500D01*
X112330965Y-114900560D01*
X112335803Y-114902924D01*
X112336107Y-114903073D01*
X112404240Y-114913000D01*
X112404243Y-114913000D01*
X113495757Y-114913000D01*
X113495760Y-114913000D01*
X113563893Y-114903073D01*
X113668983Y-114851698D01*
X113751698Y-114768983D01*
X113803073Y-114663893D01*
X113813000Y-114595760D01*
X113813000Y-114468400D01*
X113831907Y-114410209D01*
X113881407Y-114374245D01*
X113942593Y-114374245D01*
X113982004Y-114398396D01*
G37*
%TD.AperFunction*%
%TA.AperFunction,Conductor*%
G36*
X117037284Y-111713979D02*
G01*
X117049097Y-111724068D01*
X120209540Y-114884511D01*
X120209539Y-114884511D01*
X120265489Y-114940460D01*
X120334005Y-114980018D01*
X120334006Y-114980018D01*
X120334011Y-114980021D01*
X120379041Y-114992087D01*
X120430354Y-115025411D01*
X120452280Y-115082532D01*
X120436444Y-115141633D01*
X120388894Y-115180138D01*
X120353416Y-115186713D01*
X119301884Y-115186713D01*
X119243693Y-115167806D01*
X119207729Y-115118306D01*
X119207729Y-115057120D01*
X119216147Y-115038214D01*
X119221180Y-115029496D01*
X119223527Y-115025431D01*
X119254500Y-114909836D01*
X119254500Y-114790164D01*
X119223527Y-114674569D01*
X119214236Y-114658476D01*
X119213762Y-114657655D01*
X119200500Y-114608157D01*
X119200500Y-114497275D01*
X119200500Y-114497273D01*
X119196947Y-114484012D01*
X119173207Y-114395412D01*
X119173205Y-114395409D01*
X119173205Y-114395407D01*
X119120483Y-114304091D01*
X119120481Y-114304089D01*
X119120480Y-114304087D01*
X119104200Y-114287807D01*
X119078579Y-114243427D01*
X119073527Y-114224569D01*
X119013691Y-114120930D01*
X118929070Y-114036309D01*
X118920432Y-114031322D01*
X118825433Y-113976474D01*
X118825435Y-113976474D01*
X118802781Y-113970404D01*
X118709836Y-113945500D01*
X118590164Y-113945500D01*
X118497219Y-113970404D01*
X118474565Y-113976474D01*
X118370932Y-114036307D01*
X118286308Y-114120931D01*
X118269525Y-114150001D01*
X118254146Y-114163847D01*
X118241980Y-114180593D01*
X118231916Y-114183862D01*
X118224055Y-114190941D01*
X118183789Y-114199500D01*
X118102047Y-114199500D01*
X118043856Y-114180593D01*
X118032049Y-114170509D01*
X117968316Y-114106776D01*
X117968314Y-114106775D01*
X117968313Y-114106774D01*
X117859489Y-114056029D01*
X117859488Y-114056028D01*
X117842958Y-114053852D01*
X117809901Y-114049500D01*
X117809899Y-114049500D01*
X117390103Y-114049500D01*
X117390092Y-114049501D01*
X117340513Y-114056027D01*
X117340511Y-114056027D01*
X117231687Y-114106774D01*
X117224799Y-114111597D01*
X117168016Y-114129500D01*
X117081984Y-114129500D01*
X117025201Y-114111597D01*
X117018313Y-114106774D01*
X116909489Y-114056029D01*
X116909488Y-114056028D01*
X116892958Y-114053852D01*
X116859901Y-114049500D01*
X116859899Y-114049500D01*
X116440103Y-114049500D01*
X116440092Y-114049501D01*
X116390513Y-114056027D01*
X116390511Y-114056027D01*
X116281687Y-114106774D01*
X116274799Y-114111597D01*
X116218016Y-114129500D01*
X116124420Y-114129500D01*
X116066229Y-114110593D01*
X116035479Y-114073979D01*
X116026699Y-114056019D01*
X116026698Y-114056018D01*
X116026698Y-114056017D01*
X115943983Y-113973302D01*
X115938049Y-113970401D01*
X115838895Y-113921927D01*
X115807074Y-113917291D01*
X115770760Y-113912000D01*
X114679240Y-113912000D01*
X114679233Y-113912000D01*
X114676966Y-113912164D01*
X114676301Y-113912000D01*
X114675658Y-113912000D01*
X114675658Y-113911841D01*
X114665748Y-113909395D01*
X114654337Y-113911203D01*
X114636738Y-113902236D01*
X114617563Y-113897504D01*
X114599820Y-113883426D01*
X114501300Y-113784906D01*
X114473523Y-113730389D01*
X114472304Y-113714902D01*
X114472304Y-113135095D01*
X114491211Y-113076904D01*
X114501288Y-113065103D01*
X114534275Y-113032116D01*
X114588788Y-113004341D01*
X114618547Y-113004157D01*
X114679240Y-113013000D01*
X114679241Y-113013000D01*
X115770757Y-113013000D01*
X115770760Y-113013000D01*
X115838893Y-113003073D01*
X115943983Y-112951698D01*
X116026698Y-112868983D01*
X116078073Y-112763893D01*
X116088000Y-112695760D01*
X116088000Y-112629349D01*
X116106907Y-112571158D01*
X116156407Y-112535194D01*
X116212618Y-112533722D01*
X116290164Y-112554500D01*
X116290167Y-112554500D01*
X116409834Y-112554500D01*
X116409836Y-112554500D01*
X116525431Y-112523527D01*
X116629070Y-112463691D01*
X116713691Y-112379070D01*
X116773527Y-112275431D01*
X116804500Y-112159836D01*
X116804500Y-112040164D01*
X116773527Y-111924569D01*
X116726762Y-111843571D01*
X116724563Y-111833224D01*
X116718345Y-111824665D01*
X116718345Y-111803967D01*
X116714042Y-111783723D01*
X116718345Y-111774058D01*
X116718345Y-111763479D01*
X116730511Y-111746733D01*
X116738929Y-111727828D01*
X116748089Y-111722538D01*
X116754309Y-111713979D01*
X116773993Y-111707583D01*
X116791917Y-111697235D01*
X116812500Y-111695072D01*
X116979093Y-111695072D01*
X117037284Y-111713979D01*
G37*
%TD.AperFunction*%
%TA.AperFunction,Conductor*%
G36*
X118627318Y-109242850D02*
G01*
X118639131Y-109252939D01*
X124081251Y-114695059D01*
X124109028Y-114749576D01*
X124099457Y-114810008D01*
X124056192Y-114853273D01*
X124054728Y-114854003D01*
X123993522Y-114883925D01*
X123993516Y-114883929D01*
X123945004Y-114932441D01*
X123890487Y-114960218D01*
X123830055Y-114950646D01*
X123805000Y-114932443D01*
X123756485Y-114883928D01*
X123732221Y-114872066D01*
X123651397Y-114832553D01*
X123624141Y-114828582D01*
X123583262Y-114822626D01*
X123216742Y-114822626D01*
X123216741Y-114822626D01*
X123205536Y-114824258D01*
X123145228Y-114813933D01*
X123121267Y-114796295D01*
X122784514Y-114459543D01*
X122784511Y-114459540D01*
X122784505Y-114459536D01*
X122784503Y-114459535D01*
X122776239Y-114454764D01*
X122776237Y-114454763D01*
X122728280Y-114427075D01*
X122715988Y-114419978D01*
X122639564Y-114399500D01*
X122639562Y-114399500D01*
X120615479Y-114399500D01*
X120557288Y-114380593D01*
X120545475Y-114370504D01*
X117329082Y-111154111D01*
X117321098Y-111149502D01*
X117321099Y-111149502D01*
X117321095Y-111149500D01*
X117260561Y-111114551D01*
X117260559Y-111114550D01*
X117260557Y-111114549D01*
X117184136Y-111094072D01*
X117184134Y-111094072D01*
X110865922Y-111094072D01*
X110807731Y-111075165D01*
X110771767Y-111025665D01*
X110768700Y-110976391D01*
X110771175Y-110963506D01*
X110773527Y-110959434D01*
X110804500Y-110843839D01*
X110804500Y-110790072D01*
X110806278Y-110780819D01*
X110816723Y-110761878D01*
X110823407Y-110741309D01*
X110831184Y-110735658D01*
X110835826Y-110727242D01*
X110855406Y-110718059D01*
X110872907Y-110705345D01*
X110887422Y-110703046D01*
X110891223Y-110701264D01*
X110894590Y-110701911D01*
X110903500Y-110700500D01*
X112889563Y-110700500D01*
X112889563Y-110700499D01*
X112965989Y-110680021D01*
X113034511Y-110640460D01*
X113090460Y-110584511D01*
X113141475Y-110533496D01*
X113195992Y-110505719D01*
X113211479Y-110504500D01*
X113259834Y-110504500D01*
X113259836Y-110504500D01*
X113375431Y-110473527D01*
X113479070Y-110413691D01*
X113563691Y-110329070D01*
X113610518Y-110247963D01*
X113655986Y-110207023D01*
X113716836Y-110200627D01*
X113769824Y-110231220D01*
X113781989Y-110247963D01*
X113791111Y-110263763D01*
X113804794Y-110287462D01*
X113889415Y-110372083D01*
X113972950Y-110420312D01*
X113993051Y-110431917D01*
X113993054Y-110431919D01*
X114108649Y-110462892D01*
X114108651Y-110462892D01*
X114228319Y-110462892D01*
X114228321Y-110462892D01*
X114343916Y-110431919D01*
X114447555Y-110372083D01*
X114532176Y-110287462D01*
X114592012Y-110183823D01*
X114622985Y-110068228D01*
X114622985Y-109948556D01*
X114592012Y-109832961D01*
X114586972Y-109824232D01*
X114532177Y-109729324D01*
X114532176Y-109729322D01*
X114447555Y-109644701D01*
X114422530Y-109630253D01*
X114343918Y-109584866D01*
X114343920Y-109584866D01*
X114295051Y-109571772D01*
X114228321Y-109553892D01*
X114228319Y-109553892D01*
X114179964Y-109553892D01*
X114172366Y-109551423D01*
X114164477Y-109552673D01*
X114143821Y-109542148D01*
X114121773Y-109534985D01*
X114109960Y-109524896D01*
X113978011Y-109392947D01*
X113950234Y-109338430D01*
X113959805Y-109277998D01*
X114003070Y-109234733D01*
X114048015Y-109223943D01*
X118460438Y-109223943D01*
X118569127Y-109223943D01*
X118627318Y-109242850D01*
G37*
%TD.AperFunction*%
%TA.AperFunction,Conductor*%
G36*
X105805851Y-110263763D02*
G01*
X105822151Y-110273174D01*
X105834011Y-110280021D01*
X105910437Y-110300499D01*
X106875608Y-110300499D01*
X106933799Y-110319406D01*
X106965332Y-110357659D01*
X106975936Y-110380400D01*
X106975937Y-110380401D01*
X106975938Y-110380403D01*
X107059599Y-110464064D01*
X107059600Y-110464064D01*
X107059601Y-110464065D01*
X107166827Y-110514066D01*
X107166828Y-110514066D01*
X107166830Y-110514067D01*
X107215687Y-110520499D01*
X107215688Y-110520499D01*
X107564317Y-110520499D01*
X107564319Y-110520499D01*
X107613176Y-110514067D01*
X107720407Y-110464064D01*
X107804068Y-110380403D01*
X107810274Y-110367093D01*
X107852001Y-110322345D01*
X107912062Y-110310669D01*
X107967515Y-110336526D01*
X107989723Y-110367090D01*
X107995930Y-110380400D01*
X107995932Y-110380405D01*
X108079593Y-110464066D01*
X108079594Y-110464066D01*
X108079595Y-110464067D01*
X108186821Y-110514068D01*
X108186822Y-110514068D01*
X108186824Y-110514069D01*
X108235681Y-110520501D01*
X108464518Y-110520501D01*
X108522709Y-110539408D01*
X108534522Y-110549497D01*
X109564108Y-111579083D01*
X109564107Y-111579083D01*
X109620057Y-111635032D01*
X109688575Y-111674591D01*
X109688579Y-111674593D01*
X109765003Y-111695071D01*
X109765005Y-111695072D01*
X109765006Y-111695072D01*
X109844130Y-111695072D01*
X110540949Y-111695072D01*
X110599140Y-111713979D01*
X110635104Y-111763479D01*
X110635104Y-111824665D01*
X110610953Y-111864076D01*
X108854525Y-113620504D01*
X108800008Y-113648281D01*
X108784521Y-113649500D01*
X108566142Y-113649500D01*
X108507951Y-113630593D01*
X108471987Y-113581093D01*
X108467142Y-113550500D01*
X108467142Y-113358351D01*
X108467141Y-113358349D01*
X108464288Y-113327925D01*
X108419435Y-113199742D01*
X108412318Y-113190099D01*
X108338796Y-113090479D01*
X108338794Y-113090477D01*
X108338792Y-113090474D01*
X108338788Y-113090471D01*
X108338786Y-113090469D01*
X108229525Y-113009831D01*
X108101345Y-112964979D01*
X108101336Y-112964977D01*
X108070916Y-112962124D01*
X108070908Y-112962124D01*
X107437376Y-112962124D01*
X107437367Y-112962124D01*
X107406947Y-112964977D01*
X107406938Y-112964979D01*
X107278758Y-113009831D01*
X107169497Y-113090469D01*
X107169487Y-113090479D01*
X107088849Y-113199740D01*
X107043997Y-113327920D01*
X107043995Y-113327929D01*
X107041142Y-113358349D01*
X107041142Y-114366898D01*
X107043995Y-114397318D01*
X107043997Y-114397327D01*
X107078665Y-114496402D01*
X107080038Y-114557572D01*
X107045194Y-114607867D01*
X106987442Y-114628075D01*
X106985221Y-114628100D01*
X106698063Y-114628100D01*
X106639872Y-114609193D01*
X106603908Y-114559693D01*
X106603908Y-114498507D01*
X106604619Y-114496402D01*
X106614417Y-114468400D01*
X106639288Y-114397323D01*
X106642141Y-114366897D01*
X106642142Y-114366897D01*
X106642142Y-113358351D01*
X106642141Y-113358349D01*
X106639288Y-113327925D01*
X106594435Y-113199742D01*
X106587318Y-113190099D01*
X106513796Y-113090479D01*
X106513794Y-113090477D01*
X106513792Y-113090474D01*
X106513788Y-113090471D01*
X106513786Y-113090469D01*
X106404525Y-113009831D01*
X106276345Y-112964979D01*
X106276336Y-112964977D01*
X106245916Y-112962124D01*
X106245908Y-112962124D01*
X106243399Y-112962124D01*
X106185208Y-112943217D01*
X106149244Y-112893717D01*
X106144399Y-112863124D01*
X106144399Y-112651439D01*
X106138480Y-112629349D01*
X106119832Y-112559751D01*
X106119830Y-112559748D01*
X106119830Y-112559746D01*
X106072374Y-112477551D01*
X106072369Y-112477545D01*
X106054494Y-112459669D01*
X106026718Y-112405152D01*
X106025499Y-112389667D01*
X106025499Y-112250103D01*
X106025498Y-112250092D01*
X106018972Y-112200513D01*
X106018972Y-112200511D01*
X105968225Y-112091686D01*
X105968224Y-112091685D01*
X105968224Y-112091684D01*
X105883316Y-112006776D01*
X105883314Y-112006775D01*
X105883313Y-112006774D01*
X105780442Y-111958805D01*
X105774487Y-111956028D01*
X105774486Y-111956027D01*
X105774484Y-111956027D01*
X105773342Y-111955877D01*
X105772358Y-111955407D01*
X105767216Y-111953909D01*
X105767460Y-111953070D01*
X105718119Y-111929531D01*
X105688928Y-111875758D01*
X105687272Y-111857725D01*
X105687272Y-110979311D01*
X105681946Y-110959434D01*
X105662705Y-110887623D01*
X105662703Y-110887620D01*
X105662703Y-110887618D01*
X105615247Y-110805423D01*
X105615242Y-110805417D01*
X105579497Y-110769671D01*
X105551720Y-110715154D01*
X105550501Y-110699668D01*
X105550501Y-110530253D01*
X105550499Y-110530241D01*
X105545465Y-110504933D01*
X105538868Y-110471769D01*
X105494553Y-110405448D01*
X105493921Y-110404502D01*
X105490180Y-110391241D01*
X105482081Y-110380093D01*
X105482081Y-110362522D01*
X105477312Y-110345614D01*
X105482081Y-110332686D01*
X105482081Y-110318907D01*
X105492408Y-110304692D01*
X105498489Y-110288210D01*
X105509945Y-110280555D01*
X105518045Y-110269407D01*
X105534755Y-110263977D01*
X105549363Y-110254217D01*
X105576236Y-110250500D01*
X105756352Y-110250500D01*
X105805851Y-110263763D01*
G37*
%TD.AperFunction*%
%TA.AperFunction,Conductor*%
G36*
X112049479Y-112219407D02*
G01*
X112085443Y-112268907D01*
X112089253Y-112313771D01*
X112087000Y-112329240D01*
X112087000Y-112695760D01*
X112093618Y-112741182D01*
X112096927Y-112763895D01*
X112134333Y-112840409D01*
X112148302Y-112868983D01*
X112231017Y-112951698D01*
X112269766Y-112970641D01*
X112336104Y-113003072D01*
X112336105Y-113003072D01*
X112336107Y-113003073D01*
X112404240Y-113013000D01*
X112404243Y-113013000D01*
X113495759Y-113013000D01*
X113495760Y-113013000D01*
X113558030Y-113003927D01*
X113618338Y-113014246D01*
X113661064Y-113058043D01*
X113671304Y-113101892D01*
X113671304Y-113823107D01*
X113652397Y-113881298D01*
X113602897Y-113917262D01*
X113558031Y-113921072D01*
X113495760Y-113912000D01*
X112404240Y-113912000D01*
X112370173Y-113916963D01*
X112336104Y-113921927D01*
X112231018Y-113973301D01*
X112148301Y-114056018D01*
X112125227Y-114103218D01*
X112082684Y-114147192D01*
X112022418Y-114157762D01*
X111967450Y-114130890D01*
X111966284Y-114129743D01*
X111943316Y-114106776D01*
X111943313Y-114106774D01*
X111834489Y-114056029D01*
X111834488Y-114056028D01*
X111817958Y-114053852D01*
X111784901Y-114049500D01*
X111784899Y-114049500D01*
X111365103Y-114049500D01*
X111365092Y-114049501D01*
X111315513Y-114056027D01*
X111315511Y-114056027D01*
X111206686Y-114106774D01*
X111121774Y-114191686D01*
X111071029Y-114300510D01*
X111071028Y-114300511D01*
X111064500Y-114350100D01*
X111064500Y-114489668D01*
X111062031Y-114497265D01*
X111063281Y-114505154D01*
X111052757Y-114525807D01*
X111045593Y-114547859D01*
X111035504Y-114559671D01*
X110996073Y-114599103D01*
X110941557Y-114626881D01*
X110926069Y-114628100D01*
X108523063Y-114628100D01*
X108464872Y-114609193D01*
X108428908Y-114559693D01*
X108428908Y-114498507D01*
X108429619Y-114496402D01*
X108439417Y-114468400D01*
X108464288Y-114397323D01*
X108467141Y-114366897D01*
X108467142Y-114366897D01*
X108467142Y-114349500D01*
X108486049Y-114291309D01*
X108535549Y-114255345D01*
X108566142Y-114250500D01*
X108989563Y-114250500D01*
X108989563Y-114250499D01*
X109065989Y-114230021D01*
X109134511Y-114190460D01*
X109190460Y-114134511D01*
X111095475Y-112229496D01*
X111149992Y-112201719D01*
X111165479Y-112200500D01*
X111991288Y-112200500D01*
X112049479Y-112219407D01*
G37*
%TD.AperFunction*%
%TA.AperFunction,Conductor*%
G36*
X104780812Y-111286393D02*
G01*
X104796471Y-111289153D01*
X104804800Y-111293580D01*
X104805449Y-111294552D01*
X104871770Y-111338867D01*
X104900878Y-111344657D01*
X104913743Y-111351496D01*
X104956249Y-111395505D01*
X104966272Y-111438911D01*
X104966272Y-112194311D01*
X104966272Y-112289233D01*
X104986223Y-112363691D01*
X104990840Y-112380924D01*
X105038296Y-112463119D01*
X105042249Y-112468270D01*
X105040309Y-112469758D01*
X105063281Y-112514844D01*
X105064500Y-112530330D01*
X105064500Y-112669895D01*
X105064501Y-112669907D01*
X105071027Y-112719486D01*
X105071027Y-112719488D01*
X105121774Y-112828313D01*
X105121775Y-112828314D01*
X105121776Y-112828316D01*
X105206684Y-112913224D01*
X105206685Y-112913224D01*
X105206686Y-112913225D01*
X105296853Y-112955271D01*
X105341601Y-112996999D01*
X105353276Y-113057060D01*
X105334669Y-113103783D01*
X105263849Y-113199740D01*
X105218997Y-113327920D01*
X105218995Y-113327929D01*
X105216142Y-113358349D01*
X105216142Y-114357071D01*
X105208978Y-114379118D01*
X105205352Y-114402016D01*
X105199703Y-114407664D01*
X105197235Y-114415262D01*
X105178478Y-114428889D01*
X105162087Y-114445281D01*
X105154197Y-114446530D01*
X105147735Y-114451226D01*
X105124550Y-114451226D01*
X105101655Y-114454852D01*
X105094538Y-114451226D01*
X105086549Y-114451226D01*
X105047138Y-114427075D01*
X104936859Y-114316796D01*
X104909082Y-114262279D01*
X104907863Y-114246792D01*
X104907863Y-114005177D01*
X104907674Y-114004472D01*
X104883296Y-113913489D01*
X104883294Y-113913486D01*
X104883294Y-113913484D01*
X104835838Y-113831289D01*
X104835834Y-113831284D01*
X104768715Y-113764164D01*
X104768715Y-113764165D01*
X104034496Y-113029946D01*
X104030869Y-113022828D01*
X104024407Y-113018133D01*
X104017243Y-112996084D01*
X104006719Y-112975429D01*
X104005500Y-112959942D01*
X104005500Y-112932047D01*
X104024407Y-112873856D01*
X104034490Y-112862049D01*
X104068224Y-112828316D01*
X104118972Y-112719487D01*
X104125500Y-112669901D01*
X104125499Y-112250100D01*
X104120245Y-112210188D01*
X104118972Y-112200513D01*
X104118972Y-112200511D01*
X104068225Y-112091686D01*
X104068224Y-112091685D01*
X104068224Y-112091684D01*
X103983316Y-112006776D01*
X103983314Y-112006775D01*
X103977191Y-112000652D01*
X103979235Y-111998607D01*
X103950886Y-111960969D01*
X103945500Y-111928760D01*
X103945500Y-111434381D01*
X103964407Y-111376190D01*
X104013907Y-111340226D01*
X104063816Y-111337284D01*
X104071767Y-111338865D01*
X104071769Y-111338867D01*
X104106295Y-111345734D01*
X104130244Y-111350499D01*
X104130250Y-111350499D01*
X104130252Y-111350500D01*
X104130253Y-111350500D01*
X104569747Y-111350500D01*
X104569748Y-111350500D01*
X104628231Y-111338867D01*
X104694552Y-111294552D01*
X104694553Y-111294549D01*
X104694997Y-111294253D01*
X104716314Y-111288240D01*
X104736214Y-111278533D01*
X104745149Y-111280107D01*
X104753885Y-111277644D01*
X104780812Y-111286393D01*
G37*
%TD.AperFunction*%
%TA.AperFunction,Conductor*%
G36*
X116671154Y-99730860D02*
G01*
X116720888Y-99744339D01*
X117010740Y-99913374D01*
X117013800Y-99915235D01*
X117916790Y-100487048D01*
X117925253Y-100492407D01*
X117928273Y-100494398D01*
X118818059Y-101104506D01*
X118821005Y-101106606D01*
X119136280Y-101340165D01*
X119687884Y-101748800D01*
X119690708Y-101750973D01*
X120423811Y-102336734D01*
X120533548Y-102424416D01*
X120536333Y-102426725D01*
X121354019Y-103130525D01*
X121356717Y-103132935D01*
X122148108Y-103866110D01*
X122150717Y-103868617D01*
X122254201Y-103971766D01*
X122912800Y-104628233D01*
X122914803Y-104630229D01*
X122917318Y-104632829D01*
X123653067Y-105421851D01*
X123655486Y-105424542D01*
X124090106Y-105926190D01*
X124361004Y-106238867D01*
X124361923Y-106239927D01*
X124364234Y-106242695D01*
X124604952Y-106541968D01*
X125040394Y-107083332D01*
X125042610Y-107086192D01*
X125687609Y-107950978D01*
X125689718Y-107953917D01*
X126302704Y-108841713D01*
X126304703Y-108844724D01*
X126430071Y-109041289D01*
X126884819Y-109754289D01*
X126886709Y-109757375D01*
X127433219Y-110687552D01*
X127434994Y-110690704D01*
X127947145Y-111640214D01*
X127948804Y-111643429D01*
X128013013Y-111773644D01*
X128124668Y-112000079D01*
X128137616Y-112026336D01*
X128146393Y-112086888D01*
X128117903Y-112141035D01*
X128063026Y-112168095D01*
X128048824Y-112169119D01*
X127989996Y-112169119D01*
X127900427Y-112201719D01*
X127877158Y-112210188D01*
X127837478Y-112240636D01*
X127540635Y-112537480D01*
X127510188Y-112577157D01*
X127469119Y-112689996D01*
X127469119Y-112818736D01*
X127468284Y-112818736D01*
X127468604Y-112833542D01*
X127468363Y-112835373D01*
X127442024Y-112890599D01*
X127440215Y-112892456D01*
X127390915Y-112941756D01*
X127351356Y-113010275D01*
X127351354Y-113010279D01*
X127330876Y-113086703D01*
X127330876Y-113241017D01*
X127312303Y-113298745D01*
X127307590Y-113305310D01*
X127261298Y-113351603D01*
X127219578Y-113414042D01*
X127215755Y-113433255D01*
X127203264Y-113450659D01*
X127195027Y-113456715D01*
X127190031Y-113465636D01*
X127166807Y-113477469D01*
X127153972Y-113486908D01*
X127150573Y-113486927D01*
X127143945Y-113489672D01*
X127081511Y-113531389D01*
X126978452Y-113634448D01*
X126936735Y-113696882D01*
X126933005Y-113705890D01*
X126931413Y-113705230D01*
X126907188Y-113748479D01*
X126869626Y-113767617D01*
X126870110Y-113768785D01*
X126861102Y-113772515D01*
X126798668Y-113814232D01*
X126695609Y-113917291D01*
X126653892Y-113979725D01*
X126650162Y-113988733D01*
X126648570Y-113988073D01*
X126624345Y-114031322D01*
X126586783Y-114050460D01*
X126587267Y-114051628D01*
X126578259Y-114055358D01*
X126515825Y-114097075D01*
X126412766Y-114200134D01*
X126375772Y-114255501D01*
X126327722Y-114293381D01*
X126293456Y-114299500D01*
X125380590Y-114299500D01*
X125322399Y-114280593D01*
X125310586Y-114270504D01*
X123600613Y-112560531D01*
X123572836Y-112506014D01*
X123571617Y-112490527D01*
X123571617Y-111254806D01*
X123590524Y-111196615D01*
X123600607Y-111184808D01*
X124297530Y-110487885D01*
X124352043Y-110460111D01*
X124412475Y-110469682D01*
X124448625Y-110501106D01*
X124487361Y-110556426D01*
X124527039Y-110586873D01*
X124527041Y-110586874D01*
X124527044Y-110586876D01*
X124599068Y-110628458D01*
X124640010Y-110673927D01*
X124648569Y-110714195D01*
X124648569Y-111446500D01*
X124629662Y-111504691D01*
X124580162Y-111540655D01*
X124549569Y-111545500D01*
X124440164Y-111545500D01*
X124353590Y-111568697D01*
X124324565Y-111576474D01*
X124220932Y-111636307D01*
X124136307Y-111720932D01*
X124076474Y-111824565D01*
X124076473Y-111824569D01*
X124045500Y-111940164D01*
X124045500Y-112059836D01*
X124074782Y-112169119D01*
X124076474Y-112175434D01*
X124136307Y-112279067D01*
X124136309Y-112279070D01*
X124220930Y-112363691D01*
X124260708Y-112386657D01*
X124324566Y-112423525D01*
X124324569Y-112423527D01*
X124440164Y-112454500D01*
X124440166Y-112454500D01*
X124559834Y-112454500D01*
X124559836Y-112454500D01*
X124675431Y-112423527D01*
X124739292Y-112386656D01*
X124799139Y-112373935D01*
X124855034Y-112398821D01*
X124858795Y-112402389D01*
X125210688Y-112754282D01*
X125210687Y-112754282D01*
X125525873Y-113069467D01*
X125588310Y-113111186D01*
X125588312Y-113111187D01*
X125622099Y-113117908D01*
X125686830Y-113130785D01*
X125686832Y-113130785D01*
X125686834Y-113130785D01*
X125726240Y-113122945D01*
X125785352Y-113111187D01*
X125847791Y-113069467D01*
X125950844Y-112966414D01*
X125992564Y-112903975D01*
X125992564Y-112903973D01*
X125996296Y-112894966D01*
X125997890Y-112895626D01*
X126022092Y-112852396D01*
X126059671Y-112833248D01*
X126059186Y-112832076D01*
X126068193Y-112828344D01*
X126068195Y-112828344D01*
X126130634Y-112786624D01*
X126233687Y-112683571D01*
X126275407Y-112621132D01*
X126275407Y-112621130D01*
X126279139Y-112612123D01*
X126280731Y-112612782D01*
X126304944Y-112569545D01*
X126342517Y-112550401D01*
X126342032Y-112549230D01*
X126351031Y-112545502D01*
X126351037Y-112545501D01*
X126413476Y-112503781D01*
X126516529Y-112400728D01*
X126558249Y-112338289D01*
X126572051Y-112268907D01*
X126577847Y-112239771D01*
X126577847Y-112239766D01*
X126561946Y-112159834D01*
X126558249Y-112141249D01*
X126558106Y-112141035D01*
X126536761Y-112109089D01*
X126520153Y-112050200D01*
X126541331Y-111992797D01*
X126592205Y-111958805D01*
X126593275Y-111958510D01*
X126690760Y-111932390D01*
X126794399Y-111872554D01*
X126879020Y-111787933D01*
X126938856Y-111684294D01*
X126969829Y-111568699D01*
X126969829Y-111449027D01*
X126938856Y-111333432D01*
X126937981Y-111331917D01*
X126893461Y-111254806D01*
X126879020Y-111229793D01*
X126794399Y-111145172D01*
X126763842Y-111127530D01*
X126690762Y-111085337D01*
X126690764Y-111085337D01*
X126677109Y-111081678D01*
X126575165Y-111054363D01*
X126455493Y-111054363D01*
X126353548Y-111081678D01*
X126339894Y-111085337D01*
X126236261Y-111145170D01*
X126151636Y-111229795D01*
X126091803Y-111333428D01*
X126086142Y-111354554D01*
X126062118Y-111444219D01*
X126060829Y-111449028D01*
X126060829Y-111491747D01*
X126041922Y-111549938D01*
X126011330Y-111577483D01*
X125961946Y-111605995D01*
X125905994Y-111661947D01*
X125866436Y-111730463D01*
X125866434Y-111730466D01*
X125856407Y-111767887D01*
X125830785Y-111812265D01*
X125827546Y-111815504D01*
X125773029Y-111843281D01*
X125712597Y-111833710D01*
X125687538Y-111815504D01*
X125278565Y-111406531D01*
X125250788Y-111352014D01*
X125249569Y-111336527D01*
X125249569Y-110787671D01*
X125268476Y-110729480D01*
X125270026Y-110727405D01*
X125270776Y-110726427D01*
X125270778Y-110726426D01*
X125301224Y-110686747D01*
X125455051Y-110420310D01*
X125481119Y-110375159D01*
X125481120Y-110375156D01*
X125481124Y-110375150D01*
X125500265Y-110328942D01*
X125510730Y-110209320D01*
X125479652Y-110093333D01*
X125410777Y-109994970D01*
X125371099Y-109964523D01*
X125047011Y-109777412D01*
X125006071Y-109731943D01*
X124997512Y-109691676D01*
X124997512Y-108614553D01*
X124997512Y-108614552D01*
X124972945Y-108522865D01*
X124972943Y-108522862D01*
X124972943Y-108522860D01*
X124925487Y-108440665D01*
X124925483Y-108440660D01*
X124858364Y-108373540D01*
X124858364Y-108373541D01*
X123996351Y-107511528D01*
X123954382Y-107487297D01*
X123919439Y-107449856D01*
X123918966Y-107450195D01*
X123916394Y-107446593D01*
X123914940Y-107445035D01*
X123914198Y-107443517D01*
X123831483Y-107360802D01*
X123801291Y-107346042D01*
X123726395Y-107309427D01*
X123699139Y-107305456D01*
X123658260Y-107299500D01*
X123658257Y-107299500D01*
X122965479Y-107299500D01*
X122907288Y-107280593D01*
X122895475Y-107270504D01*
X121897516Y-106272545D01*
X120898946Y-105273975D01*
X120898943Y-105273973D01*
X120830427Y-105234415D01*
X120830423Y-105234413D01*
X120753999Y-105213935D01*
X120753997Y-105213935D01*
X115139994Y-105213935D01*
X115081803Y-105195028D01*
X115045839Y-105145528D01*
X115045839Y-105084342D01*
X115069990Y-105044931D01*
X115077139Y-105037782D01*
X115186632Y-104873914D01*
X115262051Y-104691835D01*
X115300500Y-104498541D01*
X115300500Y-104301459D01*
X115262051Y-104108165D01*
X115186632Y-103926086D01*
X115077139Y-103762218D01*
X114937782Y-103622861D01*
X114773914Y-103513368D01*
X114773915Y-103513368D01*
X114773913Y-103513367D01*
X114591835Y-103437949D01*
X114398543Y-103399500D01*
X114398541Y-103399500D01*
X114201459Y-103399500D01*
X114201456Y-103399500D01*
X114008165Y-103437949D01*
X114008163Y-103437949D01*
X113826086Y-103513367D01*
X113662218Y-103622861D01*
X113662214Y-103622864D01*
X113522864Y-103762214D01*
X113522861Y-103762218D01*
X113413367Y-103926086D01*
X113337949Y-104108163D01*
X113337949Y-104108165D01*
X113299500Y-104301456D01*
X113299500Y-104498543D01*
X113337949Y-104691834D01*
X113337949Y-104691836D01*
X113413367Y-104873913D01*
X113448719Y-104926821D01*
X113522861Y-105037782D01*
X113522864Y-105037785D01*
X113530010Y-105044931D01*
X113557787Y-105099448D01*
X113548216Y-105159880D01*
X113504951Y-105203145D01*
X113460006Y-105213935D01*
X112639994Y-105213935D01*
X112581803Y-105195028D01*
X112545839Y-105145528D01*
X112545839Y-105084342D01*
X112569990Y-105044931D01*
X112577139Y-105037782D01*
X112686632Y-104873914D01*
X112762051Y-104691835D01*
X112800500Y-104498541D01*
X112800500Y-104301459D01*
X112762051Y-104108165D01*
X112686632Y-103926086D01*
X112577139Y-103762218D01*
X112437782Y-103622861D01*
X112273914Y-103513368D01*
X112273915Y-103513368D01*
X112273913Y-103513367D01*
X112091835Y-103437949D01*
X111898543Y-103399500D01*
X111898541Y-103399500D01*
X111701459Y-103399500D01*
X111701456Y-103399500D01*
X111508165Y-103437949D01*
X111508163Y-103437949D01*
X111326086Y-103513367D01*
X111162218Y-103622861D01*
X111162214Y-103622864D01*
X111022864Y-103762214D01*
X111022861Y-103762218D01*
X110913367Y-103926086D01*
X110837949Y-104108163D01*
X110837949Y-104108165D01*
X110799500Y-104301456D01*
X110799500Y-104498543D01*
X110837949Y-104691834D01*
X110837949Y-104691836D01*
X110913367Y-104873913D01*
X110948719Y-104926821D01*
X111022861Y-105037782D01*
X111022864Y-105037785D01*
X111045428Y-105060349D01*
X111073205Y-105114866D01*
X111063634Y-105175298D01*
X111020369Y-105218563D01*
X111001050Y-105225979D01*
X110969574Y-105234413D01*
X110969573Y-105234414D01*
X110901058Y-105273971D01*
X109408525Y-106766504D01*
X109354008Y-106794281D01*
X109338521Y-106795500D01*
X109290164Y-106795500D01*
X109188219Y-106822815D01*
X109174565Y-106826474D01*
X109070932Y-106886307D01*
X108986307Y-106970932D01*
X108926474Y-107074565D01*
X108926473Y-107074569D01*
X108895500Y-107190164D01*
X108895500Y-107309836D01*
X108920865Y-107404500D01*
X108926474Y-107425434D01*
X108976181Y-107511528D01*
X108986309Y-107529070D01*
X109070930Y-107613691D01*
X109168020Y-107669746D01*
X109174566Y-107673525D01*
X109174569Y-107673527D01*
X109290164Y-107704500D01*
X109290166Y-107704500D01*
X109409834Y-107704500D01*
X109409836Y-107704500D01*
X109525431Y-107673527D01*
X109629070Y-107613691D01*
X109713691Y-107529070D01*
X109773527Y-107425431D01*
X109804500Y-107309836D01*
X109804500Y-107261479D01*
X109823407Y-107203288D01*
X109833496Y-107191475D01*
X111181040Y-105843931D01*
X111235557Y-105816154D01*
X111251044Y-105814935D01*
X120548956Y-105814935D01*
X120607147Y-105833842D01*
X120618960Y-105843931D01*
X122082170Y-107307141D01*
X122109947Y-107361658D01*
X122100376Y-107422090D01*
X122089971Y-107436414D01*
X122090569Y-107436841D01*
X122085801Y-107443518D01*
X122034427Y-107548604D01*
X122031052Y-107571770D01*
X122024500Y-107616740D01*
X122024500Y-107983260D01*
X122028468Y-108010491D01*
X122034427Y-108051395D01*
X122077068Y-108138617D01*
X122085802Y-108156483D01*
X122159316Y-108229997D01*
X122187092Y-108284512D01*
X122177521Y-108344944D01*
X122159315Y-108370002D01*
X122085803Y-108443514D01*
X122085801Y-108443517D01*
X122034427Y-108548603D01*
X122034427Y-108548606D01*
X122024500Y-108616739D01*
X122024500Y-108983259D01*
X122026146Y-108994554D01*
X122034427Y-109051394D01*
X122082389Y-109149500D01*
X122085802Y-109156482D01*
X122168517Y-109239197D01*
X122222285Y-109265482D01*
X122273604Y-109290571D01*
X122273605Y-109290571D01*
X122273607Y-109290572D01*
X122341740Y-109300499D01*
X123484520Y-109300499D01*
X123542711Y-109319406D01*
X123554524Y-109329495D01*
X123820504Y-109595475D01*
X123848281Y-109649992D01*
X123849500Y-109665479D01*
X123849500Y-110044966D01*
X123830593Y-110103157D01*
X123820504Y-110114970D01*
X123086606Y-110848868D01*
X123086605Y-110848867D01*
X123030656Y-110904817D01*
X122991097Y-110973335D01*
X122991095Y-110973339D01*
X122970617Y-111049763D01*
X122970617Y-112495475D01*
X122951710Y-112553666D01*
X122902210Y-112589630D01*
X122841024Y-112589630D01*
X122801613Y-112565479D01*
X119097149Y-108861015D01*
X119071526Y-108816632D01*
X119071217Y-108815479D01*
X119069067Y-108807454D01*
X119029506Y-108738932D01*
X118973557Y-108682983D01*
X118973424Y-108682906D01*
X118905038Y-108643423D01*
X118905034Y-108643421D01*
X118828610Y-108622943D01*
X118828608Y-108622943D01*
X118774168Y-108622943D01*
X118539562Y-108622943D01*
X108808419Y-108622943D01*
X108750228Y-108604036D01*
X108738421Y-108593952D01*
X108730404Y-108585935D01*
X108730402Y-108585934D01*
X108730401Y-108585933D01*
X108623175Y-108535932D01*
X108590601Y-108531644D01*
X108574316Y-108529500D01*
X108225684Y-108529500D01*
X108209398Y-108531644D01*
X108176825Y-108535932D01*
X108176824Y-108535932D01*
X108069598Y-108585933D01*
X107985933Y-108669598D01*
X107979726Y-108682909D01*
X107937996Y-108727656D01*
X107877934Y-108739329D01*
X107822483Y-108713469D01*
X107800279Y-108682906D01*
X107794072Y-108669596D01*
X107794071Y-108669595D01*
X107794071Y-108669594D01*
X107710410Y-108585933D01*
X107710408Y-108585932D01*
X107710407Y-108585931D01*
X107603181Y-108535930D01*
X107570607Y-108531642D01*
X107554322Y-108529498D01*
X107205690Y-108529498D01*
X107189404Y-108531642D01*
X107156831Y-108535930D01*
X107156830Y-108535930D01*
X107049604Y-108585931D01*
X106965939Y-108669596D01*
X106955335Y-108692338D01*
X106913607Y-108737086D01*
X106865611Y-108749498D01*
X106326902Y-108749498D01*
X106310227Y-108744080D01*
X106292711Y-108743406D01*
X106281854Y-108734861D01*
X106268711Y-108730591D01*
X106244631Y-108705565D01*
X106244297Y-108705066D01*
X106227641Y-108646192D01*
X106244253Y-108594996D01*
X106244549Y-108594552D01*
X106244552Y-108594551D01*
X106288867Y-108528230D01*
X106300500Y-108469747D01*
X106300500Y-108030251D01*
X106288867Y-107971768D01*
X106244552Y-107905447D01*
X106244254Y-107905001D01*
X106227645Y-107846113D01*
X106244254Y-107794996D01*
X106244549Y-107794553D01*
X106244552Y-107794552D01*
X106288867Y-107728231D01*
X106300500Y-107669748D01*
X106300500Y-107230252D01*
X106288867Y-107171769D01*
X106244552Y-107105448D01*
X106244254Y-107105002D01*
X106227645Y-107046114D01*
X106244254Y-106994997D01*
X106244550Y-106994553D01*
X106244553Y-106994552D01*
X106288868Y-106928231D01*
X106300501Y-106869748D01*
X106300501Y-106430252D01*
X106288868Y-106371769D01*
X106244553Y-106305448D01*
X106244549Y-106305445D01*
X106178234Y-106261134D01*
X106178232Y-106261133D01*
X106178229Y-106261132D01*
X106178228Y-106261132D01*
X106119759Y-106249501D01*
X106119749Y-106249500D01*
X105499500Y-106249500D01*
X105441309Y-106230593D01*
X105405345Y-106181093D01*
X105400500Y-106150500D01*
X105400500Y-106030253D01*
X105400498Y-106030241D01*
X105389485Y-105974877D01*
X105388867Y-105971769D01*
X105344552Y-105905448D01*
X105344551Y-105905447D01*
X105344253Y-105905001D01*
X105327644Y-105846113D01*
X105344253Y-105794996D01*
X105344549Y-105794552D01*
X105344552Y-105794551D01*
X105388867Y-105728230D01*
X105400500Y-105669747D01*
X105400500Y-105549500D01*
X105419407Y-105491309D01*
X105468907Y-105455345D01*
X105499500Y-105450500D01*
X106119747Y-105450500D01*
X106119748Y-105450500D01*
X106178231Y-105438867D01*
X106244552Y-105394552D01*
X106288867Y-105328231D01*
X106300500Y-105269748D01*
X106300500Y-104830252D01*
X106288867Y-104771769D01*
X106244552Y-104705448D01*
X106244549Y-104705446D01*
X106244253Y-104705003D01*
X106227644Y-104646115D01*
X106244253Y-104594997D01*
X106244549Y-104594553D01*
X106244552Y-104594552D01*
X106288867Y-104528231D01*
X106300500Y-104469748D01*
X106300500Y-104301456D01*
X108299500Y-104301456D01*
X108299500Y-104498543D01*
X108337949Y-104691834D01*
X108337949Y-104691836D01*
X108413367Y-104873913D01*
X108448719Y-104926821D01*
X108522861Y-105037782D01*
X108662218Y-105177139D01*
X108826086Y-105286632D01*
X109008165Y-105362051D01*
X109201459Y-105400500D01*
X109201460Y-105400500D01*
X109398540Y-105400500D01*
X109398541Y-105400500D01*
X109591835Y-105362051D01*
X109773914Y-105286632D01*
X109937782Y-105177139D01*
X110077139Y-105037782D01*
X110186632Y-104873914D01*
X110262051Y-104691835D01*
X110300500Y-104498541D01*
X110300500Y-104301459D01*
X110262051Y-104108165D01*
X110186632Y-103926086D01*
X110077139Y-103762218D01*
X109937782Y-103622861D01*
X109773914Y-103513368D01*
X109773915Y-103513368D01*
X109773913Y-103513367D01*
X109591835Y-103437949D01*
X109398543Y-103399500D01*
X109398541Y-103399500D01*
X109201459Y-103399500D01*
X109201456Y-103399500D01*
X109008165Y-103437949D01*
X109008163Y-103437949D01*
X108826086Y-103513367D01*
X108662218Y-103622861D01*
X108662214Y-103622864D01*
X108522864Y-103762214D01*
X108522861Y-103762218D01*
X108413367Y-103926086D01*
X108337949Y-104108163D01*
X108337949Y-104108165D01*
X108299500Y-104301456D01*
X106300500Y-104301456D01*
X106300500Y-104030252D01*
X106288867Y-103971769D01*
X106244552Y-103905448D01*
X106244549Y-103905446D01*
X106244253Y-103905003D01*
X106227644Y-103846115D01*
X106244253Y-103794997D01*
X106244549Y-103794553D01*
X106244552Y-103794552D01*
X106288867Y-103728231D01*
X106300500Y-103669748D01*
X106300500Y-103230252D01*
X106288867Y-103171769D01*
X106244552Y-103105448D01*
X106244548Y-103105445D01*
X106178233Y-103061134D01*
X106178231Y-103061133D01*
X106178228Y-103061132D01*
X106178227Y-103061132D01*
X106119758Y-103049501D01*
X106119748Y-103049500D01*
X105499500Y-103049500D01*
X105441309Y-103030593D01*
X105405345Y-102981093D01*
X105400500Y-102950500D01*
X105400500Y-102830253D01*
X105400498Y-102830241D01*
X105390319Y-102779070D01*
X105388867Y-102771769D01*
X105344552Y-102705448D01*
X105344549Y-102705446D01*
X105344253Y-102705003D01*
X105327644Y-102646115D01*
X105344253Y-102594997D01*
X105344549Y-102594553D01*
X105344552Y-102594552D01*
X105388867Y-102528231D01*
X105400500Y-102469748D01*
X105400500Y-102349500D01*
X105419407Y-102291309D01*
X105468907Y-102255345D01*
X105499500Y-102250500D01*
X106119747Y-102250500D01*
X106119748Y-102250500D01*
X106178231Y-102238867D01*
X106244552Y-102194552D01*
X106260791Y-102170246D01*
X106308837Y-102132367D01*
X106315215Y-102130340D01*
X106315976Y-102130024D01*
X106315989Y-102130021D01*
X106384511Y-102090460D01*
X106440460Y-102034511D01*
X106591475Y-101883496D01*
X106645992Y-101855719D01*
X106661479Y-101854500D01*
X106709834Y-101854500D01*
X106709836Y-101854500D01*
X106825431Y-101823527D01*
X106929070Y-101763691D01*
X107013691Y-101679070D01*
X107073527Y-101575431D01*
X107104500Y-101459836D01*
X107104500Y-101340164D01*
X107073527Y-101224569D01*
X107013691Y-101120930D01*
X106933781Y-101041020D01*
X106906006Y-100986506D01*
X106915577Y-100926074D01*
X106918040Y-100921535D01*
X106973527Y-100825431D01*
X107004500Y-100709836D01*
X107004500Y-100590164D01*
X106973527Y-100474569D01*
X106919074Y-100380253D01*
X108299500Y-100380253D01*
X108299500Y-102019746D01*
X108299501Y-102019758D01*
X108311132Y-102078227D01*
X108311134Y-102078233D01*
X108349940Y-102136309D01*
X108355448Y-102144552D01*
X108421769Y-102188867D01*
X108466231Y-102197711D01*
X108480241Y-102200498D01*
X108480246Y-102200498D01*
X108480252Y-102200500D01*
X108480253Y-102200500D01*
X110119747Y-102200500D01*
X110119748Y-102200500D01*
X110178231Y-102188867D01*
X110244552Y-102144552D01*
X110288867Y-102078231D01*
X110300500Y-102019748D01*
X110300500Y-101101456D01*
X110799500Y-101101456D01*
X110799500Y-101298543D01*
X110816209Y-101382541D01*
X110829732Y-101450528D01*
X110837949Y-101491834D01*
X110837949Y-101491836D01*
X110913367Y-101673913D01*
X110936950Y-101709207D01*
X111022861Y-101837782D01*
X111162218Y-101977139D01*
X111326086Y-102086632D01*
X111508165Y-102162051D01*
X111701459Y-102200500D01*
X111701460Y-102200500D01*
X111898540Y-102200500D01*
X111898541Y-102200500D01*
X112091835Y-102162051D01*
X112273914Y-102086632D01*
X112437782Y-101977139D01*
X112577139Y-101837782D01*
X112686632Y-101673914D01*
X112762051Y-101491835D01*
X112800500Y-101298541D01*
X112800500Y-101101459D01*
X112800499Y-101101456D01*
X113299500Y-101101456D01*
X113299500Y-101298543D01*
X113316209Y-101382541D01*
X113329732Y-101450528D01*
X113337949Y-101491834D01*
X113337949Y-101491836D01*
X113413367Y-101673913D01*
X113436950Y-101709207D01*
X113522861Y-101837782D01*
X113662218Y-101977139D01*
X113826086Y-102086632D01*
X114008165Y-102162051D01*
X114201459Y-102200500D01*
X114201460Y-102200500D01*
X114398540Y-102200500D01*
X114398541Y-102200500D01*
X114591835Y-102162051D01*
X114773914Y-102086632D01*
X114937782Y-101977139D01*
X115077139Y-101837782D01*
X115186632Y-101673914D01*
X115262051Y-101491835D01*
X115300500Y-101298541D01*
X115300500Y-101101459D01*
X115262051Y-100908165D01*
X115186632Y-100726086D01*
X115077139Y-100562218D01*
X114937782Y-100422861D01*
X114814201Y-100340287D01*
X114773913Y-100313367D01*
X114591835Y-100237949D01*
X114398543Y-100199500D01*
X114398541Y-100199500D01*
X114201459Y-100199500D01*
X114201456Y-100199500D01*
X114008165Y-100237949D01*
X114008163Y-100237949D01*
X113826086Y-100313367D01*
X113662218Y-100422861D01*
X113662214Y-100422864D01*
X113522864Y-100562214D01*
X113522861Y-100562218D01*
X113413367Y-100726086D01*
X113337949Y-100908163D01*
X113337949Y-100908165D01*
X113299500Y-101101456D01*
X112800499Y-101101456D01*
X112762051Y-100908165D01*
X112686632Y-100726086D01*
X112577139Y-100562218D01*
X112437782Y-100422861D01*
X112314201Y-100340287D01*
X112273913Y-100313367D01*
X112091835Y-100237949D01*
X111898543Y-100199500D01*
X111898541Y-100199500D01*
X111701459Y-100199500D01*
X111701456Y-100199500D01*
X111508165Y-100237949D01*
X111508163Y-100237949D01*
X111326086Y-100313367D01*
X111162218Y-100422861D01*
X111162214Y-100422864D01*
X111022864Y-100562214D01*
X111022861Y-100562218D01*
X110913367Y-100726086D01*
X110837949Y-100908163D01*
X110837949Y-100908165D01*
X110799500Y-101101456D01*
X110300500Y-101101456D01*
X110300500Y-100380252D01*
X110288867Y-100321769D01*
X110244552Y-100255448D01*
X110237683Y-100250858D01*
X110178233Y-100211134D01*
X110178231Y-100211133D01*
X110178228Y-100211132D01*
X110178227Y-100211132D01*
X110119758Y-100199501D01*
X110119748Y-100199500D01*
X108480252Y-100199500D01*
X108480251Y-100199500D01*
X108480241Y-100199501D01*
X108421772Y-100211132D01*
X108421766Y-100211134D01*
X108355451Y-100255445D01*
X108355445Y-100255451D01*
X108311134Y-100321766D01*
X108311132Y-100321772D01*
X108299501Y-100380241D01*
X108299500Y-100380253D01*
X106919074Y-100380253D01*
X106913691Y-100370930D01*
X106829070Y-100286309D01*
X106790043Y-100263777D01*
X106725433Y-100226474D01*
X106725435Y-100226474D01*
X106710424Y-100222452D01*
X106609836Y-100195500D01*
X106490164Y-100195500D01*
X106389576Y-100222452D01*
X106374565Y-100226474D01*
X106270932Y-100286307D01*
X106186307Y-100370932D01*
X106126474Y-100474565D01*
X106126473Y-100474569D01*
X106099261Y-100576125D01*
X106065939Y-100627437D01*
X106008818Y-100649364D01*
X106003636Y-100649500D01*
X105499500Y-100649500D01*
X105441309Y-100630593D01*
X105405345Y-100581093D01*
X105400500Y-100550500D01*
X105400500Y-100430253D01*
X105400498Y-100430241D01*
X105396556Y-100410423D01*
X105388867Y-100371769D01*
X105344552Y-100305448D01*
X105282188Y-100263777D01*
X105278233Y-100261134D01*
X105278231Y-100261133D01*
X105278228Y-100261132D01*
X105278227Y-100261132D01*
X105219758Y-100249501D01*
X105219748Y-100249500D01*
X104580252Y-100249500D01*
X104580251Y-100249500D01*
X104580241Y-100249501D01*
X104521772Y-100261132D01*
X104521766Y-100261134D01*
X104455451Y-100305445D01*
X104455445Y-100305451D01*
X104411134Y-100371766D01*
X104411132Y-100371772D01*
X104399501Y-100430241D01*
X104399500Y-100430253D01*
X104399500Y-100869746D01*
X104399501Y-100869758D01*
X104411132Y-100928227D01*
X104411134Y-100928233D01*
X104455746Y-100994998D01*
X104472355Y-101053886D01*
X104455746Y-101105002D01*
X104411134Y-101171766D01*
X104411132Y-101171772D01*
X104399501Y-101230241D01*
X104399500Y-101230253D01*
X104399500Y-101669746D01*
X104399501Y-101669758D01*
X104411132Y-101728227D01*
X104411134Y-101728233D01*
X104455746Y-101794998D01*
X104463047Y-101820885D01*
X104472355Y-101846123D01*
X104471260Y-101850003D01*
X104472355Y-101853886D01*
X104455741Y-101905010D01*
X104450105Y-101913443D01*
X104402051Y-101951317D01*
X104393420Y-101954059D01*
X104334011Y-101969978D01*
X104288963Y-101995986D01*
X104288962Y-101995988D01*
X104288760Y-101996105D01*
X104265486Y-102009542D01*
X103444747Y-102830280D01*
X103390231Y-102858057D01*
X103329799Y-102848486D01*
X103289009Y-102809777D01*
X103247399Y-102737706D01*
X103162778Y-102653085D01*
X103059141Y-102593250D01*
X103059143Y-102593250D01*
X103045488Y-102589591D01*
X102943544Y-102562276D01*
X102823872Y-102562276D01*
X102721927Y-102589591D01*
X102708273Y-102593250D01*
X102604640Y-102653083D01*
X102520015Y-102737708D01*
X102460182Y-102841341D01*
X102460181Y-102841345D01*
X102429208Y-102956940D01*
X102429208Y-103076612D01*
X102458827Y-103187156D01*
X102455625Y-103248254D01*
X102417120Y-103295804D01*
X102363201Y-103311776D01*
X101534919Y-103311776D01*
X101476728Y-103292869D01*
X101464915Y-103282780D01*
X99301139Y-101119004D01*
X99273362Y-101064487D01*
X99282933Y-101004055D01*
X99326198Y-100960790D01*
X99371143Y-100950000D01*
X100449999Y-100950000D01*
X100450000Y-100950000D01*
X100450000Y-99807866D01*
X100468907Y-99749675D01*
X100518407Y-99713711D01*
X100549134Y-99708866D01*
X116671154Y-99730860D01*
G37*
%TD.AperFunction*%
%TA.AperFunction,Conductor*%
G36*
X101605001Y-111294253D02*
G01*
X101605447Y-111294551D01*
X101605448Y-111294552D01*
X101671769Y-111338867D01*
X101716231Y-111347711D01*
X101730241Y-111350498D01*
X101730246Y-111350498D01*
X101730252Y-111350500D01*
X101730253Y-111350500D01*
X102169747Y-111350500D01*
X102169748Y-111350500D01*
X102228231Y-111338867D01*
X102270500Y-111310623D01*
X102329385Y-111294015D01*
X102386789Y-111315192D01*
X102420783Y-111366065D01*
X102424500Y-111392939D01*
X102424500Y-111928760D01*
X102405593Y-111986951D01*
X102392236Y-112000079D01*
X102392809Y-112000652D01*
X102386685Y-112006775D01*
X102386684Y-112006776D01*
X102343260Y-112050200D01*
X102301774Y-112091686D01*
X102251029Y-112200510D01*
X102251028Y-112200511D01*
X102244500Y-112250100D01*
X102244500Y-112669896D01*
X102244501Y-112669907D01*
X102251027Y-112719486D01*
X102251027Y-112719488D01*
X102301774Y-112828313D01*
X102301775Y-112828314D01*
X102301776Y-112828316D01*
X102335958Y-112862498D01*
X102363734Y-112917013D01*
X102354163Y-112977445D01*
X102335959Y-113002500D01*
X102320327Y-113018133D01*
X102306774Y-113031686D01*
X102256029Y-113140510D01*
X102256028Y-113140511D01*
X102254845Y-113149500D01*
X102250883Y-113179598D01*
X102249500Y-113190100D01*
X102249500Y-113609896D01*
X102249501Y-113609907D01*
X102256027Y-113659486D01*
X102295467Y-113744064D01*
X102302924Y-113804794D01*
X102273261Y-113858308D01*
X102217808Y-113884166D01*
X102205743Y-113884904D01*
X100813583Y-113884904D01*
X100755392Y-113865997D01*
X100719428Y-113816497D01*
X100719428Y-113755311D01*
X100723859Y-113744065D01*
X100753971Y-113679489D01*
X100753972Y-113679487D01*
X100760500Y-113629901D01*
X100760499Y-113270100D01*
X100753972Y-113220513D01*
X100753972Y-113220511D01*
X100703225Y-113111686D01*
X100703224Y-113111685D01*
X100703224Y-113111684D01*
X100618316Y-113026776D01*
X100618314Y-113026775D01*
X100618313Y-113026774D01*
X100509489Y-112976029D01*
X100509488Y-112976028D01*
X100492958Y-112973852D01*
X100459901Y-112969500D01*
X100459899Y-112969500D01*
X100040103Y-112969500D01*
X100040092Y-112969501D01*
X99990513Y-112976027D01*
X99990511Y-112976027D01*
X99881686Y-113026774D01*
X99881684Y-113026775D01*
X99881684Y-113026776D01*
X99796776Y-113111684D01*
X99796775Y-113111685D01*
X99790652Y-113117809D01*
X99788605Y-113115762D01*
X99786663Y-113117225D01*
X99776952Y-113130593D01*
X99762842Y-113135177D01*
X99750994Y-113144106D01*
X99718761Y-113149500D01*
X99549500Y-113149500D01*
X99491309Y-113130593D01*
X99455345Y-113081093D01*
X99450500Y-113050500D01*
X99450500Y-112616743D01*
X99449827Y-112612123D01*
X99440573Y-112548607D01*
X99435133Y-112537480D01*
X99412180Y-112490527D01*
X99389198Y-112443517D01*
X99306483Y-112360802D01*
X99306017Y-112360574D01*
X99305603Y-112360173D01*
X99299808Y-112356036D01*
X99300428Y-112355167D01*
X99262045Y-112318031D01*
X99250500Y-112271635D01*
X99250500Y-111449500D01*
X99269407Y-111391309D01*
X99318907Y-111355345D01*
X99349500Y-111350500D01*
X99769747Y-111350500D01*
X99769748Y-111350500D01*
X99828231Y-111338867D01*
X99894552Y-111294552D01*
X99894553Y-111294549D01*
X99894997Y-111294253D01*
X99953885Y-111277644D01*
X99986390Y-111284499D01*
X100003159Y-111291127D01*
X100005448Y-111294552D01*
X100071769Y-111338867D01*
X100130252Y-111350500D01*
X100153375Y-111350500D01*
X100170911Y-111357431D01*
X100180669Y-111365494D01*
X100192712Y-111369407D01*
X100204525Y-111379496D01*
X100206916Y-111381887D01*
X100211574Y-111391030D01*
X100218078Y-111396404D01*
X100221921Y-111411338D01*
X100234693Y-111436404D01*
X100232703Y-111453228D01*
X100233329Y-111455658D01*
X100232027Y-111458952D01*
X100229411Y-111481071D01*
X100230901Y-111481471D01*
X100229222Y-111487735D01*
X100229221Y-111487738D01*
X100198248Y-111603333D01*
X100198248Y-111723005D01*
X100225487Y-111824665D01*
X100229222Y-111838603D01*
X100289055Y-111942236D01*
X100289057Y-111942239D01*
X100373678Y-112026860D01*
X100474412Y-112085019D01*
X100477314Y-112086694D01*
X100477317Y-112086696D01*
X100592912Y-112117669D01*
X100592914Y-112117669D01*
X100712582Y-112117669D01*
X100712584Y-112117669D01*
X100828179Y-112086696D01*
X100931818Y-112026860D01*
X101016439Y-111942239D01*
X101076275Y-111838600D01*
X101107248Y-111723005D01*
X101107248Y-111603333D01*
X101076275Y-111487738D01*
X101076270Y-111487730D01*
X101076129Y-111487387D01*
X101076107Y-111487116D01*
X101074595Y-111481471D01*
X101075641Y-111481190D01*
X101071327Y-111426390D01*
X101103295Y-111374220D01*
X101159822Y-111350804D01*
X101167592Y-111350499D01*
X101369747Y-111350499D01*
X101369748Y-111350499D01*
X101428231Y-111338866D01*
X101494552Y-111294551D01*
X101494553Y-111294548D01*
X101494996Y-111294253D01*
X101553884Y-111277644D01*
X101605001Y-111294253D01*
G37*
%TD.AperFunction*%
%TA.AperFunction,Conductor*%
G36*
X97559783Y-111279562D02*
G01*
X97564993Y-111278710D01*
X97579285Y-111285902D01*
X97605028Y-111294271D01*
X97605529Y-111294606D01*
X97611404Y-111302064D01*
X97619649Y-111306213D01*
X97629090Y-111324513D01*
X97643392Y-111342668D01*
X97646001Y-111357294D01*
X97647701Y-111360589D01*
X97647187Y-111363940D01*
X97649500Y-111376903D01*
X97649500Y-112200500D01*
X97630593Y-112258691D01*
X97581093Y-112294655D01*
X97550500Y-112299500D01*
X97366740Y-112299500D01*
X97332673Y-112304463D01*
X97298604Y-112309427D01*
X97193518Y-112360801D01*
X97110801Y-112443518D01*
X97059427Y-112548604D01*
X97049500Y-112616743D01*
X97049500Y-113050501D01*
X97044655Y-113065412D01*
X97044655Y-113081094D01*
X97035438Y-113093779D01*
X97030593Y-113108692D01*
X97017907Y-113117908D01*
X97008691Y-113130594D01*
X96993778Y-113135439D01*
X96981093Y-113144656D01*
X96950500Y-113149501D01*
X96781236Y-113149501D01*
X96723045Y-113130594D01*
X96709918Y-113117236D01*
X96709345Y-113117810D01*
X96703221Y-113111686D01*
X96703221Y-113111685D01*
X96618313Y-113026777D01*
X96618311Y-113026776D01*
X96618310Y-113026775D01*
X96509486Y-112976030D01*
X96509485Y-112976029D01*
X96487752Y-112973168D01*
X96459898Y-112969501D01*
X96459896Y-112969501D01*
X96040100Y-112969501D01*
X96040089Y-112969502D01*
X95990510Y-112976028D01*
X95990508Y-112976028D01*
X95881683Y-113026775D01*
X95881681Y-113026776D01*
X95881681Y-113026777D01*
X95816464Y-113091993D01*
X95761950Y-113119769D01*
X95701518Y-113110198D01*
X95696427Y-113107413D01*
X95685453Y-113100985D01*
X95680403Y-113095935D01*
X95662884Y-113087766D01*
X95658888Y-113085425D01*
X95641486Y-113065853D01*
X95622336Y-113047995D01*
X95621420Y-113043285D01*
X95618232Y-113039699D01*
X95615657Y-113013636D01*
X95610662Y-112987934D01*
X95612689Y-112983585D01*
X95612218Y-112978810D01*
X95625456Y-112956208D01*
X95636521Y-112932482D01*
X95641452Y-112928898D01*
X95643142Y-112926015D01*
X95648877Y-112923504D01*
X95667081Y-112910277D01*
X95680405Y-112904065D01*
X95764066Y-112820404D01*
X95814069Y-112713173D01*
X95820501Y-112664316D01*
X95820501Y-112435479D01*
X95839408Y-112377288D01*
X95849497Y-112365475D01*
X96080476Y-112134496D01*
X96134993Y-112106719D01*
X96150480Y-112105500D01*
X96536563Y-112105500D01*
X96536563Y-112105499D01*
X96612989Y-112085021D01*
X96681511Y-112045460D01*
X96722958Y-112004013D01*
X96737461Y-111989511D01*
X97356904Y-111370066D01*
X97381519Y-111352087D01*
X97393914Y-111345692D01*
X97428230Y-111338867D01*
X97494551Y-111294552D01*
X97495342Y-111293366D01*
X97504610Y-111288586D01*
X97529556Y-111284505D01*
X97553884Y-111277644D01*
X97559783Y-111279562D01*
G37*
%TD.AperFunction*%
%TA.AperFunction,Conductor*%
G36*
X98634969Y-109861664D02*
G01*
X98646782Y-109871753D01*
X98720504Y-109945475D01*
X98748281Y-109999992D01*
X98749500Y-110015479D01*
X98749500Y-110250500D01*
X98730593Y-110308691D01*
X98681093Y-110344655D01*
X98650500Y-110349500D01*
X98530252Y-110349500D01*
X98530251Y-110349500D01*
X98530241Y-110349501D01*
X98471772Y-110361132D01*
X98471766Y-110361134D01*
X98405002Y-110405746D01*
X98346114Y-110422355D01*
X98294998Y-110405746D01*
X98228233Y-110361134D01*
X98228231Y-110361133D01*
X98228228Y-110361132D01*
X98228227Y-110361132D01*
X98169758Y-110349501D01*
X98169748Y-110349500D01*
X97730252Y-110349500D01*
X97730251Y-110349500D01*
X97730241Y-110349501D01*
X97671772Y-110361132D01*
X97671766Y-110361134D01*
X97605001Y-110405746D01*
X97546112Y-110422355D01*
X97494997Y-110405746D01*
X97428232Y-110361134D01*
X97428230Y-110361133D01*
X97428227Y-110361132D01*
X97428226Y-110361132D01*
X97369757Y-110349501D01*
X97369747Y-110349500D01*
X96930251Y-110349500D01*
X96930250Y-110349500D01*
X96930240Y-110349501D01*
X96871771Y-110361132D01*
X96871765Y-110361134D01*
X96805450Y-110405445D01*
X96805444Y-110405451D01*
X96761133Y-110471766D01*
X96761131Y-110471772D01*
X96749500Y-110530241D01*
X96749499Y-110530253D01*
X96749499Y-111086522D01*
X96730592Y-111144713D01*
X96720503Y-111156526D01*
X96401525Y-111475504D01*
X96347008Y-111503281D01*
X96331521Y-111504500D01*
X95945436Y-111504500D01*
X95869012Y-111524978D01*
X95840279Y-111541568D01*
X95832679Y-111545956D01*
X95800490Y-111564540D01*
X95800487Y-111564542D01*
X95374525Y-111990504D01*
X95320009Y-112018281D01*
X95304522Y-112019500D01*
X95075685Y-112019500D01*
X95067474Y-112020581D01*
X95026826Y-112025932D01*
X95026825Y-112025932D01*
X94919599Y-112075933D01*
X94919596Y-112075935D01*
X94864104Y-112131427D01*
X94859458Y-112133793D01*
X94856632Y-112138175D01*
X94832573Y-112147492D01*
X94809587Y-112159204D01*
X94804437Y-112158388D01*
X94799576Y-112160271D01*
X94781948Y-112154826D01*
X94749155Y-112149632D01*
X94740429Y-112144611D01*
X94731813Y-112139052D01*
X94729070Y-112136309D01*
X94714721Y-112128024D01*
X94712654Y-112126691D01*
X94694803Y-112104781D01*
X94675884Y-112083767D01*
X94675617Y-112081231D01*
X94674008Y-112079256D01*
X94672444Y-112051038D01*
X94669490Y-112022917D01*
X94670757Y-112020581D01*
X94670624Y-112018165D01*
X94679754Y-112004013D01*
X94696321Y-111973501D01*
X94854319Y-111815504D01*
X94910328Y-111759496D01*
X94964844Y-111731719D01*
X94980331Y-111730500D01*
X95124313Y-111730500D01*
X95124315Y-111730500D01*
X95173172Y-111724068D01*
X95280403Y-111674065D01*
X95364064Y-111590404D01*
X95414067Y-111483173D01*
X95420499Y-111434316D01*
X95420499Y-111085684D01*
X95414067Y-111036827D01*
X95414062Y-111036816D01*
X95414028Y-111036697D01*
X95414032Y-111036565D01*
X95413078Y-111029319D01*
X95414257Y-111029163D01*
X95415894Y-110975540D01*
X95453351Y-110927160D01*
X95512091Y-110910036D01*
X95534687Y-110913361D01*
X95607651Y-110932912D01*
X95607653Y-110932912D01*
X95727321Y-110932912D01*
X95727323Y-110932912D01*
X95842918Y-110901939D01*
X95946557Y-110842103D01*
X96031178Y-110757482D01*
X96091014Y-110653843D01*
X96121987Y-110538248D01*
X96121987Y-110418576D01*
X96091014Y-110302981D01*
X96083795Y-110290478D01*
X96031179Y-110199344D01*
X96031178Y-110199342D01*
X95946557Y-110114721D01*
X95942507Y-110112383D01*
X95842920Y-110054886D01*
X95842922Y-110054886D01*
X95835658Y-110052939D01*
X95777598Y-110037383D01*
X95726286Y-110004060D01*
X95704359Y-109946938D01*
X95720195Y-109887838D01*
X95767744Y-109849333D01*
X95803223Y-109842757D01*
X98576778Y-109842757D01*
X98634969Y-109861664D01*
G37*
%TD.AperFunction*%
%TA.AperFunction,Conductor*%
G36*
X94369896Y-109861664D02*
G01*
X94405860Y-109911164D01*
X94405860Y-109972350D01*
X94401431Y-109983590D01*
X94393783Y-109999992D01*
X94386562Y-110015479D01*
X94385933Y-110016827D01*
X94379501Y-110065684D01*
X94379501Y-110414316D01*
X94383789Y-110446887D01*
X94385933Y-110463174D01*
X94385933Y-110463175D01*
X94435934Y-110570401D01*
X94435935Y-110570402D01*
X94435936Y-110570404D01*
X94519597Y-110654065D01*
X94532913Y-110660274D01*
X94577662Y-110702002D01*
X94589337Y-110762063D01*
X94563480Y-110817516D01*
X94532917Y-110839722D01*
X94519597Y-110845933D01*
X94435932Y-110929598D01*
X94385931Y-111036824D01*
X94385931Y-111036825D01*
X94379499Y-111085685D01*
X94379499Y-111229668D01*
X94377030Y-111237265D01*
X94378280Y-111245155D01*
X94367755Y-111265810D01*
X94360592Y-111287859D01*
X94350503Y-111299672D01*
X94259520Y-111390655D01*
X94205003Y-111418432D01*
X94189516Y-111419651D01*
X94047461Y-111419651D01*
X93952539Y-111419651D01*
X93897565Y-111434381D01*
X93860847Y-111444219D01*
X93778652Y-111491675D01*
X93159823Y-112110504D01*
X93105306Y-112138281D01*
X93089819Y-112139500D01*
X89840335Y-112139500D01*
X89782144Y-112120593D01*
X89770331Y-112110504D01*
X89129330Y-111469503D01*
X89101553Y-111414986D01*
X89111124Y-111354554D01*
X89154389Y-111311289D01*
X89199334Y-111300499D01*
X89433257Y-111300499D01*
X89433260Y-111300499D01*
X89501393Y-111290572D01*
X89606483Y-111239197D01*
X89679998Y-111165681D01*
X89734513Y-111137906D01*
X89794945Y-111147477D01*
X89820000Y-111165680D01*
X89893518Y-111239198D01*
X89925445Y-111254806D01*
X89998605Y-111290572D01*
X89998606Y-111290572D01*
X89998608Y-111290573D01*
X90066741Y-111300500D01*
X90066744Y-111300500D01*
X90433258Y-111300500D01*
X90433261Y-111300500D01*
X90501394Y-111290573D01*
X90606484Y-111239198D01*
X90679999Y-111165682D01*
X90734514Y-111137907D01*
X90794946Y-111147478D01*
X90820001Y-111165681D01*
X90893517Y-111239197D01*
X90925446Y-111254806D01*
X90998604Y-111290571D01*
X90998605Y-111290571D01*
X90998607Y-111290572D01*
X91066740Y-111300499D01*
X91066743Y-111300499D01*
X91433257Y-111300499D01*
X91433260Y-111300499D01*
X91501393Y-111290572D01*
X91606483Y-111239197D01*
X91689198Y-111156482D01*
X91740573Y-111051392D01*
X91750500Y-110983259D01*
X91750500Y-110290478D01*
X91769407Y-110232287D01*
X91779496Y-110220474D01*
X92128217Y-109871753D01*
X92182734Y-109843976D01*
X92198221Y-109842757D01*
X94311705Y-109842757D01*
X94369896Y-109861664D01*
G37*
%TD.AperFunction*%
%TA.AperFunction,Conductor*%
G36*
X110731973Y-109242850D02*
G01*
X110767937Y-109292350D01*
X110767937Y-109353536D01*
X110731973Y-109403036D01*
X110723296Y-109408670D01*
X110691139Y-109427237D01*
X110689526Y-109428168D01*
X110604903Y-109512791D01*
X110545070Y-109616424D01*
X110545069Y-109616428D01*
X110514096Y-109732023D01*
X110514096Y-109851695D01*
X110545069Y-109967290D01*
X110575506Y-110020009D01*
X110579936Y-110027681D01*
X110592657Y-110087530D01*
X110567770Y-110143425D01*
X110554467Y-110155723D01*
X110549489Y-110159542D01*
X110408524Y-110300507D01*
X110354008Y-110328284D01*
X110338521Y-110329503D01*
X110290164Y-110329503D01*
X110188219Y-110356818D01*
X110174565Y-110360477D01*
X110070932Y-110420310D01*
X109986307Y-110504935D01*
X109926474Y-110608568D01*
X109926473Y-110608572D01*
X109900886Y-110704068D01*
X109895500Y-110724168D01*
X109895500Y-110821525D01*
X109876593Y-110879716D01*
X109827093Y-110915680D01*
X109765907Y-110915680D01*
X109726496Y-110891529D01*
X108909493Y-110074526D01*
X108881716Y-110020009D01*
X108880497Y-110004522D01*
X108880497Y-109775686D01*
X108878086Y-109757375D01*
X108874065Y-109726828D01*
X108871862Y-109722104D01*
X108824063Y-109619599D01*
X108824062Y-109619598D01*
X108824062Y-109619597D01*
X108794468Y-109590003D01*
X108766693Y-109535489D01*
X108776264Y-109475057D01*
X108794469Y-109450000D01*
X108814065Y-109430404D01*
X108864068Y-109323173D01*
X108865799Y-109310019D01*
X108892140Y-109254796D01*
X108945910Y-109225601D01*
X108963952Y-109223943D01*
X110673782Y-109223943D01*
X110731973Y-109242850D01*
G37*
%TD.AperFunction*%
%TA.AperFunction,Conductor*%
G36*
X98156291Y-100825822D02*
G01*
X98168104Y-100835911D01*
X100912689Y-103580496D01*
X100940466Y-103635013D01*
X100930895Y-103695445D01*
X100887630Y-103738710D01*
X100842685Y-103749500D01*
X100530252Y-103749500D01*
X100530251Y-103749500D01*
X100530241Y-103749501D01*
X100471772Y-103761132D01*
X100471766Y-103761134D01*
X100405002Y-103805746D01*
X100346114Y-103822355D01*
X100294998Y-103805746D01*
X100228233Y-103761134D01*
X100228231Y-103761133D01*
X100228228Y-103761132D01*
X100228227Y-103761132D01*
X100169758Y-103749501D01*
X100169748Y-103749500D01*
X99730252Y-103749500D01*
X99730251Y-103749500D01*
X99730241Y-103749501D01*
X99671772Y-103761132D01*
X99671766Y-103761134D01*
X99605002Y-103805746D01*
X99546114Y-103822355D01*
X99494998Y-103805746D01*
X99428233Y-103761134D01*
X99428231Y-103761133D01*
X99428228Y-103761132D01*
X99428227Y-103761132D01*
X99369758Y-103749501D01*
X99369748Y-103749500D01*
X98930252Y-103749500D01*
X98930251Y-103749500D01*
X98930241Y-103749501D01*
X98871772Y-103761132D01*
X98871766Y-103761134D01*
X98805451Y-103805445D01*
X98805445Y-103805451D01*
X98761134Y-103871766D01*
X98761132Y-103871772D01*
X98749501Y-103930241D01*
X98749500Y-103930253D01*
X98749500Y-104569746D01*
X98749501Y-104569758D01*
X98761132Y-104628227D01*
X98761134Y-104628233D01*
X98803633Y-104691836D01*
X98805448Y-104694552D01*
X98871769Y-104738867D01*
X98916231Y-104747711D01*
X98930241Y-104750498D01*
X98930246Y-104750498D01*
X98930252Y-104750500D01*
X98930253Y-104750500D01*
X99369747Y-104750500D01*
X99369748Y-104750500D01*
X99428231Y-104738867D01*
X99494552Y-104694552D01*
X99494553Y-104694549D01*
X99494997Y-104694253D01*
X99553885Y-104677644D01*
X99605003Y-104694253D01*
X99605446Y-104694549D01*
X99605448Y-104694552D01*
X99671769Y-104738867D01*
X99716231Y-104747711D01*
X99730241Y-104750498D01*
X99730246Y-104750498D01*
X99730252Y-104750500D01*
X99730253Y-104750500D01*
X100169747Y-104750500D01*
X100169748Y-104750500D01*
X100228231Y-104738867D01*
X100294552Y-104694552D01*
X100294553Y-104694549D01*
X100294997Y-104694253D01*
X100353885Y-104677644D01*
X100405003Y-104694253D01*
X100405446Y-104694549D01*
X100405448Y-104694552D01*
X100471769Y-104738867D01*
X100516231Y-104747711D01*
X100530241Y-104750498D01*
X100530246Y-104750498D01*
X100530252Y-104750500D01*
X100530253Y-104750500D01*
X100969747Y-104750500D01*
X100969748Y-104750500D01*
X101028231Y-104738867D01*
X101094552Y-104694552D01*
X101094553Y-104694549D01*
X101094997Y-104694253D01*
X101153885Y-104677644D01*
X101205003Y-104694253D01*
X101205446Y-104694549D01*
X101205448Y-104694552D01*
X101271769Y-104738867D01*
X101316231Y-104747711D01*
X101330241Y-104750498D01*
X101330246Y-104750498D01*
X101330252Y-104750500D01*
X101330253Y-104750500D01*
X101769747Y-104750500D01*
X101769748Y-104750500D01*
X101828231Y-104738867D01*
X101894552Y-104694552D01*
X101894553Y-104694549D01*
X101894997Y-104694253D01*
X101953885Y-104677644D01*
X102005003Y-104694253D01*
X102005446Y-104694549D01*
X102005448Y-104694552D01*
X102071769Y-104738867D01*
X102116231Y-104747711D01*
X102130241Y-104750498D01*
X102130246Y-104750498D01*
X102130252Y-104750500D01*
X102130253Y-104750500D01*
X102569747Y-104750500D01*
X102569748Y-104750500D01*
X102628231Y-104738867D01*
X102694552Y-104694552D01*
X102694553Y-104694549D01*
X102694997Y-104694253D01*
X102753885Y-104677644D01*
X102805003Y-104694253D01*
X102805446Y-104694549D01*
X102805448Y-104694552D01*
X102871769Y-104738867D01*
X102916231Y-104747711D01*
X102930241Y-104750498D01*
X102930246Y-104750498D01*
X102930252Y-104750500D01*
X102930253Y-104750500D01*
X103369747Y-104750500D01*
X103369748Y-104750500D01*
X103428231Y-104738867D01*
X103494552Y-104694552D01*
X103538867Y-104628231D01*
X103550500Y-104569748D01*
X103550500Y-104011776D01*
X103555345Y-103996864D01*
X103555345Y-103981183D01*
X103564561Y-103968497D01*
X103569407Y-103953585D01*
X103582092Y-103944368D01*
X103591309Y-103931683D01*
X103606221Y-103926837D01*
X103618907Y-103917621D01*
X103649500Y-103912776D01*
X103796797Y-103912776D01*
X103854988Y-103931683D01*
X103866800Y-103941772D01*
X104015488Y-104090459D01*
X104015493Y-104090463D01*
X104084008Y-104130020D01*
X104084006Y-104130020D01*
X104084010Y-104130021D01*
X104084012Y-104130022D01*
X104160438Y-104150500D01*
X104239562Y-104150500D01*
X104373096Y-104150500D01*
X104389811Y-104155931D01*
X104407373Y-104156623D01*
X104418187Y-104165150D01*
X104431287Y-104169407D01*
X104455418Y-104194509D01*
X104455752Y-104195009D01*
X104472353Y-104253899D01*
X104455746Y-104305001D01*
X104411134Y-104371767D01*
X104411132Y-104371772D01*
X104399501Y-104430241D01*
X104399500Y-104430253D01*
X104399500Y-104869746D01*
X104399501Y-104869758D01*
X104411132Y-104928227D01*
X104411134Y-104928233D01*
X104455745Y-104994997D01*
X104472354Y-105053885D01*
X104455746Y-105105000D01*
X104411134Y-105171766D01*
X104411132Y-105171771D01*
X104399501Y-105230240D01*
X104399500Y-105230252D01*
X104399500Y-105669745D01*
X104399501Y-105669757D01*
X104411132Y-105728226D01*
X104411134Y-105728232D01*
X104455746Y-105794997D01*
X104472355Y-105853885D01*
X104455746Y-105905001D01*
X104411134Y-105971766D01*
X104411132Y-105971772D01*
X104399501Y-106030241D01*
X104399500Y-106030253D01*
X104399500Y-106403903D01*
X104380593Y-106462094D01*
X104331093Y-106498058D01*
X104274880Y-106499530D01*
X104259840Y-106495500D01*
X104259836Y-106495500D01*
X104140164Y-106495500D01*
X104038219Y-106522815D01*
X104024565Y-106526474D01*
X103920932Y-106586307D01*
X103836307Y-106670932D01*
X103776474Y-106774565D01*
X103776473Y-106774569D01*
X103745500Y-106890164D01*
X103745500Y-107009836D01*
X103765959Y-107086192D01*
X103776474Y-107125434D01*
X103831344Y-107220471D01*
X103836309Y-107229070D01*
X103920930Y-107313691D01*
X104004011Y-107361658D01*
X104024566Y-107373525D01*
X104024569Y-107373527D01*
X104140164Y-107404500D01*
X104140166Y-107404500D01*
X104259835Y-107404500D01*
X104259836Y-107404500D01*
X104326196Y-107386719D01*
X104387296Y-107389920D01*
X104434846Y-107428425D01*
X104450682Y-107487525D01*
X104434134Y-107537346D01*
X104411134Y-107571767D01*
X104411132Y-107571773D01*
X104399501Y-107630242D01*
X104399500Y-107630254D01*
X104399500Y-108069747D01*
X104399501Y-108069759D01*
X104411132Y-108128228D01*
X104411134Y-108128234D01*
X104455745Y-108194998D01*
X104472354Y-108253886D01*
X104455746Y-108305001D01*
X104411134Y-108371767D01*
X104411132Y-108371772D01*
X104399501Y-108430241D01*
X104399500Y-108430253D01*
X104399500Y-108869746D01*
X104399501Y-108869758D01*
X104411132Y-108928227D01*
X104411134Y-108928233D01*
X104417993Y-108938498D01*
X104455448Y-108994552D01*
X104521769Y-109038867D01*
X104566231Y-109047711D01*
X104580241Y-109050498D01*
X104580246Y-109050498D01*
X104580252Y-109050500D01*
X104580253Y-109050500D01*
X105200500Y-109050500D01*
X105258691Y-109069407D01*
X105294655Y-109118907D01*
X105299500Y-109149500D01*
X105299500Y-109269746D01*
X105299501Y-109269758D01*
X105311132Y-109328227D01*
X105311134Y-109328233D01*
X105355746Y-109394998D01*
X105372355Y-109453886D01*
X105355746Y-109505002D01*
X105311134Y-109571766D01*
X105311132Y-109571772D01*
X105299501Y-109630241D01*
X105299500Y-109630253D01*
X105299500Y-110069746D01*
X105299501Y-110069758D01*
X105311132Y-110128227D01*
X105311134Y-110128233D01*
X105356080Y-110195498D01*
X105372689Y-110254386D01*
X105351512Y-110311790D01*
X105300638Y-110345783D01*
X105273765Y-110349500D01*
X104930253Y-110349500D01*
X104930252Y-110349500D01*
X104930242Y-110349501D01*
X104871773Y-110361132D01*
X104871767Y-110361134D01*
X104805002Y-110405746D01*
X104746113Y-110422355D01*
X104694998Y-110405746D01*
X104628233Y-110361134D01*
X104628231Y-110361133D01*
X104628228Y-110361132D01*
X104628227Y-110361132D01*
X104569758Y-110349501D01*
X104569748Y-110349500D01*
X104130252Y-110349500D01*
X104130251Y-110349500D01*
X104130241Y-110349501D01*
X104071772Y-110361132D01*
X104071766Y-110361134D01*
X104005002Y-110405746D01*
X103946114Y-110422355D01*
X103894998Y-110405746D01*
X103828233Y-110361134D01*
X103828231Y-110361133D01*
X103828228Y-110361132D01*
X103828227Y-110361132D01*
X103769758Y-110349501D01*
X103769748Y-110349500D01*
X103769747Y-110349500D01*
X103649500Y-110349500D01*
X103591309Y-110330593D01*
X103555345Y-110281093D01*
X103550500Y-110250500D01*
X103550500Y-109630253D01*
X103550498Y-109630241D01*
X103543582Y-109595475D01*
X103538867Y-109571769D01*
X103494552Y-109505448D01*
X103494495Y-109505410D01*
X103494428Y-109505325D01*
X103487658Y-109498555D01*
X103488459Y-109497753D01*
X103456618Y-109457360D01*
X103450500Y-109423097D01*
X103450500Y-108610437D01*
X103450499Y-108610435D01*
X103446243Y-108594548D01*
X103446243Y-108594547D01*
X103433932Y-108548606D01*
X103430022Y-108534012D01*
X103426684Y-108528230D01*
X103390463Y-108465493D01*
X103390459Y-108465488D01*
X102966495Y-108041523D01*
X102938718Y-107987007D01*
X102937499Y-107971520D01*
X102937499Y-107871108D01*
X102933848Y-107857481D01*
X102903391Y-107743813D01*
X102903389Y-107743810D01*
X102903389Y-107743808D01*
X102837502Y-107629689D01*
X102837500Y-107629687D01*
X102837499Y-107629685D01*
X102744313Y-107536499D01*
X102744310Y-107536497D01*
X102744308Y-107536495D01*
X102630188Y-107470608D01*
X102630190Y-107470608D01*
X102573226Y-107455345D01*
X102502891Y-107436499D01*
X102371107Y-107436499D01*
X102300772Y-107455345D01*
X102243808Y-107470608D01*
X102129689Y-107536495D01*
X102036495Y-107629689D01*
X101970608Y-107743808D01*
X101962117Y-107775499D01*
X101936499Y-107871107D01*
X101936499Y-108002891D01*
X101954416Y-108069759D01*
X101970608Y-108130189D01*
X102036495Y-108244308D01*
X102036497Y-108244310D01*
X102036499Y-108244313D01*
X102129685Y-108337499D01*
X102129687Y-108337500D01*
X102129689Y-108337502D01*
X102243809Y-108403389D01*
X102243807Y-108403389D01*
X102243811Y-108403390D01*
X102243813Y-108403391D01*
X102371107Y-108437499D01*
X102371109Y-108437499D01*
X102471520Y-108437499D01*
X102529711Y-108456406D01*
X102541524Y-108466495D01*
X102820504Y-108745475D01*
X102848281Y-108799992D01*
X102849500Y-108815479D01*
X102849500Y-109423097D01*
X102844048Y-109439876D01*
X102843329Y-109457503D01*
X102834828Y-109468252D01*
X102830593Y-109481288D01*
X102805377Y-109505495D01*
X102804877Y-109505828D01*
X102745964Y-109522348D01*
X102694998Y-109505745D01*
X102626619Y-109460055D01*
X102595883Y-109427237D01*
X102590462Y-109417848D01*
X102590461Y-109417846D01*
X102534513Y-109361897D01*
X102071264Y-108898649D01*
X102047944Y-108885186D01*
X102044791Y-108883365D01*
X102044789Y-108883364D01*
X102002743Y-108859089D01*
X102002740Y-108859088D01*
X101926318Y-108838610D01*
X101926316Y-108838610D01*
X91419589Y-108838610D01*
X91361398Y-108819703D01*
X91349585Y-108809614D01*
X91099495Y-108559524D01*
X91071718Y-108505007D01*
X91070499Y-108489520D01*
X91070499Y-108260684D01*
X91069604Y-108253886D01*
X91064067Y-108211826D01*
X91056012Y-108194553D01*
X91014065Y-108104597D01*
X91014064Y-108104596D01*
X91014064Y-108104595D01*
X90930403Y-108020934D01*
X90930401Y-108020933D01*
X90930400Y-108020932D01*
X90917084Y-108014723D01*
X90872336Y-107972994D01*
X90860662Y-107912933D01*
X90886521Y-107857481D01*
X90917081Y-107835276D01*
X90930405Y-107829064D01*
X91014066Y-107745403D01*
X91064069Y-107638172D01*
X91070501Y-107589315D01*
X91070501Y-107240683D01*
X91064069Y-107191826D01*
X91063905Y-107191475D01*
X91014067Y-107084597D01*
X91014066Y-107084596D01*
X91014066Y-107084595D01*
X90930405Y-107000934D01*
X90930403Y-107000933D01*
X90930402Y-107000932D01*
X90907660Y-106990327D01*
X90890356Y-106974190D01*
X90870877Y-106960763D01*
X90868530Y-106953836D01*
X90862913Y-106948597D01*
X90850531Y-106903060D01*
X90850501Y-106901851D01*
X90850501Y-106860439D01*
X90849368Y-106856210D01*
X90849104Y-106845573D01*
X90851032Y-106839093D01*
X90852448Y-106817491D01*
X90854500Y-106809836D01*
X90854500Y-106690164D01*
X90823527Y-106574569D01*
X90804705Y-106541969D01*
X90763692Y-106470932D01*
X90763691Y-106470930D01*
X90679070Y-106386309D01*
X90590607Y-106335234D01*
X90549668Y-106289767D01*
X90543272Y-106228917D01*
X90573865Y-106175929D01*
X90629761Y-106151042D01*
X90640109Y-106150500D01*
X95973097Y-106150500D01*
X95989833Y-106155937D01*
X96007417Y-106156639D01*
X96018209Y-106165157D01*
X96031288Y-106169407D01*
X96055445Y-106194547D01*
X96055778Y-106195046D01*
X96072351Y-106253943D01*
X96055745Y-106305001D01*
X96011133Y-106371766D01*
X96011131Y-106371772D01*
X95999500Y-106430241D01*
X95999499Y-106430253D01*
X95999499Y-106869746D01*
X95999500Y-106869758D01*
X96011131Y-106928227D01*
X96011133Y-106928233D01*
X96055745Y-106994998D01*
X96072354Y-107053886D01*
X96055746Y-107105001D01*
X96011134Y-107171767D01*
X96011132Y-107171772D01*
X95999501Y-107230241D01*
X95999500Y-107230253D01*
X95999500Y-107669746D01*
X95999501Y-107669758D01*
X96011132Y-107728227D01*
X96011134Y-107728233D01*
X96022605Y-107745400D01*
X96055448Y-107794552D01*
X96121769Y-107838867D01*
X96166231Y-107847711D01*
X96180241Y-107850498D01*
X96180246Y-107850498D01*
X96180252Y-107850500D01*
X96180253Y-107850500D01*
X96819747Y-107850500D01*
X96819748Y-107850500D01*
X96878231Y-107838867D01*
X96944552Y-107794552D01*
X96988867Y-107728231D01*
X97000500Y-107669748D01*
X97000500Y-107549500D01*
X97019407Y-107491309D01*
X97068907Y-107455345D01*
X97099500Y-107450500D01*
X97719747Y-107450500D01*
X97719748Y-107450500D01*
X97778231Y-107438867D01*
X97844552Y-107394552D01*
X97888867Y-107328231D01*
X97900500Y-107269748D01*
X97900500Y-106830252D01*
X97888867Y-106771769D01*
X97844552Y-106705448D01*
X97844549Y-106705446D01*
X97844253Y-106705003D01*
X97827644Y-106646115D01*
X97844253Y-106594997D01*
X97844549Y-106594553D01*
X97844552Y-106594552D01*
X97888867Y-106528231D01*
X97900500Y-106469748D01*
X97900500Y-106030252D01*
X97888867Y-105971769D01*
X97844552Y-105905448D01*
X97844551Y-105905447D01*
X97844253Y-105905001D01*
X97827644Y-105846113D01*
X97844253Y-105794996D01*
X97844549Y-105794552D01*
X97844552Y-105794551D01*
X97888867Y-105728230D01*
X97900500Y-105669747D01*
X97900500Y-105230251D01*
X97888867Y-105171768D01*
X97844552Y-105105447D01*
X97844254Y-105105001D01*
X97827645Y-105046113D01*
X97844254Y-104994996D01*
X97844549Y-104994553D01*
X97844552Y-104994552D01*
X97888867Y-104928231D01*
X97900500Y-104869748D01*
X97900500Y-104430252D01*
X97888867Y-104371769D01*
X97844552Y-104305448D01*
X97844254Y-104305002D01*
X97827645Y-104246114D01*
X97844254Y-104194997D01*
X97844550Y-104194553D01*
X97844553Y-104194552D01*
X97888868Y-104128231D01*
X97900501Y-104069748D01*
X97900501Y-103630252D01*
X97899031Y-103622864D01*
X97897712Y-103616231D01*
X97888868Y-103571769D01*
X97844553Y-103505448D01*
X97843754Y-103504914D01*
X97778234Y-103461134D01*
X97778232Y-103461133D01*
X97778229Y-103461132D01*
X97778228Y-103461132D01*
X97719759Y-103449501D01*
X97719749Y-103449500D01*
X97099500Y-103449500D01*
X97041309Y-103430593D01*
X97005345Y-103381093D01*
X97000500Y-103350500D01*
X97000500Y-103230253D01*
X97000498Y-103230241D01*
X96994275Y-103198958D01*
X96988867Y-103171769D01*
X96944552Y-103105448D01*
X96944548Y-103105445D01*
X96878233Y-103061134D01*
X96878231Y-103061133D01*
X96878228Y-103061132D01*
X96878227Y-103061132D01*
X96819758Y-103049501D01*
X96819748Y-103049500D01*
X96180252Y-103049500D01*
X96180251Y-103049500D01*
X96180241Y-103049501D01*
X96121772Y-103061132D01*
X96121766Y-103061134D01*
X96055451Y-103105445D01*
X96055445Y-103105451D01*
X96011134Y-103171766D01*
X96011132Y-103171772D01*
X95999501Y-103230241D01*
X95999500Y-103230253D01*
X95999500Y-103669746D01*
X95999501Y-103669758D01*
X96011132Y-103728227D01*
X96011134Y-103728233D01*
X96055746Y-103794998D01*
X96072355Y-103853886D01*
X96055746Y-103905002D01*
X96011134Y-103971766D01*
X96011132Y-103971772D01*
X95999501Y-104030241D01*
X95999500Y-104030253D01*
X95999500Y-104469746D01*
X95999501Y-104469758D01*
X96011132Y-104528227D01*
X96011134Y-104528233D01*
X96055746Y-104594998D01*
X96063045Y-104620877D01*
X96072354Y-104646101D01*
X96071256Y-104649992D01*
X96072355Y-104653886D01*
X96055753Y-104704991D01*
X96055419Y-104705491D01*
X96007374Y-104743377D01*
X95973097Y-104749500D01*
X84010442Y-104749500D01*
X83934019Y-104769978D01*
X83918923Y-104778694D01*
X83866967Y-104808691D01*
X83865496Y-104809540D01*
X83831312Y-104843722D01*
X83829374Y-104845469D01*
X83803676Y-104856914D01*
X83778603Y-104869690D01*
X83775636Y-104869404D01*
X83773482Y-104870364D01*
X83763430Y-104868229D01*
X83729262Y-104864939D01*
X83709811Y-104857860D01*
X83705679Y-104856356D01*
X83587364Y-104856356D01*
X83587363Y-104856356D01*
X83578833Y-104857860D01*
X83578482Y-104855873D01*
X83528613Y-104857607D01*
X83477894Y-104823384D01*
X83456977Y-104765885D01*
X83462887Y-104728591D01*
X83483024Y-104673265D01*
X83483024Y-104554950D01*
X83474440Y-104531368D01*
X83472306Y-104470221D01*
X83497467Y-104427505D01*
X83794951Y-104130022D01*
X84095477Y-103829496D01*
X84149994Y-103801719D01*
X84165481Y-103800500D01*
X94889563Y-103800500D01*
X94889563Y-103800499D01*
X94965989Y-103780021D01*
X95034511Y-103740460D01*
X95090460Y-103684511D01*
X96495475Y-102279496D01*
X96549992Y-102251719D01*
X96565479Y-102250500D01*
X96819747Y-102250500D01*
X96819748Y-102250500D01*
X96878231Y-102238867D01*
X96944552Y-102194552D01*
X96988867Y-102128231D01*
X97000500Y-102069748D01*
X97000500Y-101630252D01*
X96988867Y-101571769D01*
X96944552Y-101505448D01*
X96924181Y-101491836D01*
X96878233Y-101461134D01*
X96878231Y-101461133D01*
X96878228Y-101461132D01*
X96878227Y-101461132D01*
X96819758Y-101449501D01*
X96819748Y-101449500D01*
X96180252Y-101449500D01*
X96180251Y-101449500D01*
X96180241Y-101449501D01*
X96121772Y-101461132D01*
X96121766Y-101461134D01*
X96055451Y-101505445D01*
X96055445Y-101505451D01*
X96011134Y-101571766D01*
X96011132Y-101571772D01*
X95999501Y-101630241D01*
X95999500Y-101630253D01*
X95999500Y-101884521D01*
X95980593Y-101942712D01*
X95970504Y-101954525D01*
X94754525Y-103170504D01*
X94700008Y-103198281D01*
X94684521Y-103199500D01*
X90326712Y-103199500D01*
X90268521Y-103180593D01*
X90232557Y-103131093D01*
X90232557Y-103069907D01*
X90268521Y-103020407D01*
X90277206Y-103014766D01*
X90279070Y-103013691D01*
X90363691Y-102929070D01*
X90423527Y-102825431D01*
X90454500Y-102709836D01*
X90454500Y-102590164D01*
X90423527Y-102474569D01*
X90423523Y-102474562D01*
X90423267Y-102473943D01*
X90423228Y-102473458D01*
X90421847Y-102468301D01*
X90422802Y-102468045D01*
X90418462Y-102412946D01*
X90450427Y-102360775D01*
X90465219Y-102350318D01*
X90594847Y-102275478D01*
X90705478Y-102164847D01*
X90717194Y-102144554D01*
X90783704Y-102029357D01*
X90783704Y-102029355D01*
X90783706Y-102029353D01*
X90824200Y-101878228D01*
X90824200Y-101878224D01*
X90825499Y-101873377D01*
X90858823Y-101822063D01*
X90915945Y-101800136D01*
X90921126Y-101800000D01*
X91499999Y-101800000D01*
X91500000Y-101800000D01*
X91500000Y-101221126D01*
X91500835Y-101218555D01*
X91500136Y-101215946D01*
X91510212Y-101189694D01*
X91518907Y-101162935D01*
X91521093Y-101161346D01*
X91522062Y-101158824D01*
X91545641Y-101143511D01*
X91568407Y-101126971D01*
X91573376Y-101125500D01*
X91578227Y-101124200D01*
X91578228Y-101124200D01*
X91594786Y-101119763D01*
X91655888Y-101122964D01*
X91690414Y-101145385D01*
X91728840Y-101183811D01*
X91728839Y-101183811D01*
X91784789Y-101239760D01*
X91853307Y-101279319D01*
X91853311Y-101279321D01*
X91929735Y-101299799D01*
X91929737Y-101299800D01*
X92450828Y-101299800D01*
X92509019Y-101318707D01*
X92544983Y-101368207D01*
X92544983Y-101429393D01*
X92509019Y-101478893D01*
X92488713Y-101490264D01*
X92416733Y-101520078D01*
X92416732Y-101520078D01*
X92294580Y-101601699D01*
X92294576Y-101601702D01*
X92190702Y-101705576D01*
X92190699Y-101705580D01*
X92109078Y-101827732D01*
X92109078Y-101827733D01*
X92052860Y-101963456D01*
X92052860Y-101963458D01*
X92024200Y-102107542D01*
X92024200Y-102254457D01*
X92038145Y-102324565D01*
X92051996Y-102394200D01*
X92052860Y-102398541D01*
X92052860Y-102398543D01*
X92109078Y-102534266D01*
X92109078Y-102534267D01*
X92146428Y-102590164D01*
X92190699Y-102656420D01*
X92294580Y-102760301D01*
X92416731Y-102841920D01*
X92552458Y-102898140D01*
X92696545Y-102926800D01*
X92696547Y-102926800D01*
X92843453Y-102926800D01*
X92843455Y-102926800D01*
X92987542Y-102898140D01*
X93123269Y-102841920D01*
X93245420Y-102760301D01*
X93349301Y-102656420D01*
X93430920Y-102534269D01*
X93487140Y-102398542D01*
X93515800Y-102254455D01*
X93515800Y-102107545D01*
X93487140Y-101963458D01*
X93430921Y-101827733D01*
X93430921Y-101827732D01*
X93388130Y-101763692D01*
X93349301Y-101705580D01*
X93245420Y-101601699D01*
X93123269Y-101520080D01*
X93123268Y-101520079D01*
X93123266Y-101520078D01*
X93051287Y-101490264D01*
X93004761Y-101450528D01*
X92990477Y-101391033D01*
X93013892Y-101334505D01*
X93066060Y-101302535D01*
X93089172Y-101299800D01*
X95634262Y-101299800D01*
X95634262Y-101299799D01*
X95710688Y-101279321D01*
X95779210Y-101239760D01*
X95835159Y-101183811D01*
X96183059Y-100835911D01*
X96237576Y-100808134D01*
X96253063Y-100806915D01*
X98098100Y-100806915D01*
X98156291Y-100825822D01*
G37*
%TD.AperFunction*%
%TA.AperFunction,Conductor*%
G36*
X98751135Y-99706413D02*
G01*
X98809300Y-99725400D01*
X98845196Y-99774949D01*
X98850000Y-99805413D01*
X98850000Y-100428857D01*
X98831093Y-100487048D01*
X98781593Y-100523012D01*
X98720407Y-100523012D01*
X98680997Y-100498861D01*
X98448090Y-100265955D01*
X98421941Y-100250857D01*
X98421941Y-100250858D01*
X98379568Y-100226394D01*
X98379567Y-100226393D01*
X98379566Y-100226393D01*
X98303143Y-100205915D01*
X98303141Y-100205915D01*
X96127146Y-100205915D01*
X96048022Y-100205915D01*
X96001245Y-100218448D01*
X95971591Y-100226394D01*
X95903077Y-100265951D01*
X95903072Y-100265955D01*
X95499223Y-100669804D01*
X95444707Y-100697581D01*
X95429220Y-100698800D01*
X93484818Y-100698800D01*
X93426627Y-100679893D01*
X93390663Y-100630393D01*
X93390663Y-100569207D01*
X93402502Y-100544799D01*
X93430920Y-100502269D01*
X93487140Y-100366542D01*
X93515800Y-100222455D01*
X93515800Y-100075545D01*
X93487140Y-99931458D01*
X93462352Y-99871615D01*
X93447678Y-99836187D01*
X93442877Y-99775190D01*
X93474847Y-99723021D01*
X93531375Y-99699607D01*
X93539253Y-99699302D01*
X98751135Y-99706413D01*
G37*
%TD.AperFunction*%
%TD*%
M02*
