%TF.GenerationSoftware,KiCad,Pcbnew,9.0.1*%
%TF.CreationDate,2025-12-04T23:43:19-05:00*%
%TF.ProjectId,EDDDial,45444444-6961-46c2-9e6b-696361645f70,rev?*%
%TF.SameCoordinates,Original*%
%TF.FileFunction,Copper,L1,Top*%
%TF.FilePolarity,Positive*%
%FSLAX46Y46*%
G04 Gerber Fmt 4.6, Leading zero omitted, Abs format (unit mm)*
G04 Created by KiCad (PCBNEW 9.0.1) date 2025-12-04 23:43:19*
%MOMM*%
%LPD*%
G01*
G04 APERTURE LIST*
G04 Aperture macros list*
%AMRoundRect*
0 Rectangle with rounded corners*
0 $1 Rounding radius*
0 $2 $3 $4 $5 $6 $7 $8 $9 X,Y pos of 4 corners*
0 Add a 4 corners polygon primitive as box body*
4,1,4,$2,$3,$4,$5,$6,$7,$8,$9,$2,$3,0*
0 Add four circle primitives for the rounded corners*
1,1,$1+$1,$2,$3*
1,1,$1+$1,$4,$5*
1,1,$1+$1,$6,$7*
1,1,$1+$1,$8,$9*
0 Add four rect primitives between the rounded corners*
20,1,$1+$1,$2,$3,$4,$5,0*
20,1,$1+$1,$4,$5,$6,$7,0*
20,1,$1+$1,$6,$7,$8,$9,0*
20,1,$1+$1,$8,$9,$2,$3,0*%
%AMFreePoly0*
4,1,153,0.406581,0.754743,0.408810,0.754000,0.410000,0.754000,0.411581,0.753743,0.413809,0.753000,0.415000,0.753000,0.416581,0.752743,0.419581,0.751743,0.420236,0.751472,0.421920,0.750630,0.424581,0.749742,0.426536,0.748535,0.427964,0.747108,0.429236,0.746472,0.430535,0.745536,0.431964,0.744108,0.433236,0.743472,0.434536,0.742536,0.442536,0.734536,0.443472,0.733236,
0.444108,0.731964,0.445536,0.730535,0.446472,0.729236,0.447108,0.727964,0.448536,0.726536,0.449743,0.724581,0.450630,0.721920,0.451472,0.720236,0.451743,0.719581,0.452743,0.716581,0.453000,0.715000,0.452999,0.713810,0.453743,0.711581,0.454000,0.710000,0.454000,0.708810,0.454743,0.706581,0.455000,0.705000,0.455000,-0.705000,0.454743,-0.706581,0.454000,-0.708810,
0.454000,-0.710000,0.453743,-0.711581,0.452999,-0.713810,0.453000,-0.715000,0.452743,-0.716581,0.451743,-0.719581,0.451472,-0.720236,0.450630,-0.721920,0.449743,-0.724581,0.448536,-0.726536,0.447108,-0.727964,0.446472,-0.729236,0.445536,-0.730535,0.444108,-0.731964,0.443472,-0.733236,0.442536,-0.734536,0.434536,-0.742536,0.433236,-0.743472,0.431964,-0.744108,0.430535,-0.745536,
0.429236,-0.746472,0.427964,-0.747108,0.426536,-0.748535,0.424581,-0.749742,0.421920,-0.750630,0.420236,-0.751472,0.419581,-0.751743,0.416581,-0.752743,0.415000,-0.753000,0.413809,-0.753000,0.411581,-0.753743,0.410000,-0.754000,0.408810,-0.754000,0.406581,-0.754743,0.405000,-0.755000,-0.405000,-0.755000,-0.406581,-0.754743,-0.408810,-0.754000,-0.410000,-0.754000,-0.411581,-0.753743,
-0.413809,-0.753000,-0.415000,-0.753000,-0.416581,-0.752743,-0.419581,-0.751743,-0.420236,-0.751472,-0.421920,-0.750630,-0.424581,-0.749742,-0.426536,-0.748535,-0.427964,-0.747108,-0.429236,-0.746472,-0.430535,-0.745536,-0.431964,-0.744108,-0.433236,-0.743472,-0.434536,-0.742536,-0.442536,-0.734536,-0.443472,-0.733236,-0.444108,-0.731964,-0.445536,-0.730535,-0.446472,-0.729236,-0.447108,-0.727964,
-0.448536,-0.726536,-0.449743,-0.724581,-0.450630,-0.721920,-0.451472,-0.720236,-0.451743,-0.719581,-0.452743,-0.716581,-0.453000,-0.715000,-0.452999,-0.713810,-0.453743,-0.711581,-0.454000,-0.710000,-0.454000,-0.708810,-0.454743,-0.706581,-0.455000,-0.705000,-0.455000,0.705000,-0.454743,0.706581,-0.454000,0.708810,-0.454000,0.710000,-0.453743,0.711581,-0.452999,0.713810,-0.453000,0.715000,
-0.452743,0.716581,-0.451743,0.719581,-0.451472,0.720236,-0.450630,0.721920,-0.449743,0.724581,-0.448536,0.726536,-0.447108,0.727964,-0.446472,0.729236,-0.445536,0.730535,-0.444108,0.731964,-0.443472,0.733236,-0.442536,0.734536,-0.434536,0.742536,-0.433236,0.743472,-0.431964,0.744108,-0.430535,0.745536,-0.429236,0.746472,-0.427964,0.747108,-0.426536,0.748535,-0.424581,0.749742,
-0.421920,0.750630,-0.420236,0.751472,-0.419581,0.751743,-0.416581,0.752743,-0.415000,0.753000,-0.413809,0.753000,-0.411581,0.753743,-0.410000,0.754000,-0.408810,0.754000,-0.406581,0.754743,-0.405000,0.755000,0.405000,0.755000,0.406581,0.754743,0.406581,0.754743,$1*%
G04 Aperture macros list end*
%TA.AperFunction,ComponentPad*%
%ADD10C,3.800000*%
%TD*%
%TA.AperFunction,ConnectorPad*%
%ADD11C,0.787400*%
%TD*%
%TA.AperFunction,ComponentPad*%
%ADD12R,1.600000X1.600000*%
%TD*%
%TA.AperFunction,ComponentPad*%
%ADD13C,1.600000*%
%TD*%
%TA.AperFunction,SMDPad,CuDef*%
%ADD14RoundRect,0.250000X0.250000X-1.300000X0.250000X1.300000X-0.250000X1.300000X-0.250000X-1.300000X0*%
%TD*%
%TA.AperFunction,SMDPad,CuDef*%
%ADD15RoundRect,0.140000X0.170000X-0.140000X0.170000X0.140000X-0.170000X0.140000X-0.170000X-0.140000X0*%
%TD*%
%TA.AperFunction,SMDPad,CuDef*%
%ADD16RoundRect,0.150000X0.512500X0.150000X-0.512500X0.150000X-0.512500X-0.150000X0.512500X-0.150000X0*%
%TD*%
%TA.AperFunction,SMDPad,CuDef*%
%ADD17RoundRect,0.140000X0.077224X-0.206244X0.217224X0.036244X-0.077224X0.206244X-0.217224X-0.036244X0*%
%TD*%
%TA.AperFunction,SMDPad,CuDef*%
%ADD18FreePoly0,315.000000*%
%TD*%
%TA.AperFunction,SMDPad,CuDef*%
%ADD19RoundRect,0.052000X-0.173948X0.106066X0.106066X-0.173948X0.173948X-0.106066X-0.106066X0.173948X0*%
%TD*%
%TA.AperFunction,SMDPad,CuDef*%
%ADD20RoundRect,0.135000X-0.035355X0.226274X-0.226274X0.035355X0.035355X-0.226274X0.226274X-0.035355X0*%
%TD*%
%TA.AperFunction,SMDPad,CuDef*%
%ADD21RoundRect,0.140000X0.219203X0.021213X0.021213X0.219203X-0.219203X-0.021213X-0.021213X-0.219203X0*%
%TD*%
%TA.AperFunction,SMDPad,CuDef*%
%ADD22RoundRect,0.150000X0.150000X-0.512500X0.150000X0.512500X-0.150000X0.512500X-0.150000X-0.512500X0*%
%TD*%
%TA.AperFunction,SMDPad,CuDef*%
%ADD23RoundRect,0.135000X-0.185000X0.135000X-0.185000X-0.135000X0.185000X-0.135000X0.185000X0.135000X0*%
%TD*%
%TA.AperFunction,SMDPad,CuDef*%
%ADD24RoundRect,0.250000X-0.350000X-0.650000X0.350000X-0.650000X0.350000X0.650000X-0.350000X0.650000X0*%
%TD*%
%TA.AperFunction,SMDPad,CuDef*%
%ADD25RoundRect,0.150000X-0.150000X-0.625000X0.150000X-0.625000X0.150000X0.625000X-0.150000X0.625000X0*%
%TD*%
%TA.AperFunction,SMDPad,CuDef*%
%ADD26RoundRect,0.135000X0.185000X-0.135000X0.185000X0.135000X-0.185000X0.135000X-0.185000X-0.135000X0*%
%TD*%
%TA.AperFunction,SMDPad,CuDef*%
%ADD27RoundRect,0.135000X0.035355X-0.226274X0.226274X-0.035355X-0.035355X0.226274X-0.226274X0.035355X0*%
%TD*%
%TA.AperFunction,SMDPad,CuDef*%
%ADD28RoundRect,0.135000X-0.135000X-0.185000X0.135000X-0.185000X0.135000X0.185000X-0.135000X0.185000X0*%
%TD*%
%TA.AperFunction,SMDPad,CuDef*%
%ADD29RoundRect,0.150000X-0.150000X-0.400000X0.150000X-0.400000X0.150000X0.400000X-0.150000X0.400000X0*%
%TD*%
%TA.AperFunction,SMDPad,CuDef*%
%ADD30RoundRect,0.140000X-0.170000X0.140000X-0.170000X-0.140000X0.170000X-0.140000X0.170000X0.140000X0*%
%TD*%
%TA.AperFunction,SMDPad,CuDef*%
%ADD31RoundRect,0.150000X-0.625000X0.150000X-0.625000X-0.150000X0.625000X-0.150000X0.625000X0.150000X0*%
%TD*%
%TA.AperFunction,SMDPad,CuDef*%
%ADD32RoundRect,0.250000X-0.650000X0.350000X-0.650000X-0.350000X0.650000X-0.350000X0.650000X0.350000X0*%
%TD*%
%TA.AperFunction,SMDPad,CuDef*%
%ADD33RoundRect,0.150000X0.150000X0.625000X-0.150000X0.625000X-0.150000X-0.625000X0.150000X-0.625000X0*%
%TD*%
%TA.AperFunction,SMDPad,CuDef*%
%ADD34RoundRect,0.250000X0.350000X0.650000X-0.350000X0.650000X-0.350000X-0.650000X0.350000X-0.650000X0*%
%TD*%
%TA.AperFunction,SMDPad,CuDef*%
%ADD35RoundRect,0.140000X-0.140000X-0.170000X0.140000X-0.170000X0.140000X0.170000X-0.140000X0.170000X0*%
%TD*%
%TA.AperFunction,SMDPad,CuDef*%
%ADD36RoundRect,0.147500X0.017678X-0.226274X0.226274X-0.017678X-0.017678X0.226274X-0.226274X0.017678X0*%
%TD*%
%TA.AperFunction,SMDPad,CuDef*%
%ADD37RoundRect,0.250000X0.262500X0.450000X-0.262500X0.450000X-0.262500X-0.450000X0.262500X-0.450000X0*%
%TD*%
%TA.AperFunction,SMDPad,CuDef*%
%ADD38RoundRect,0.140000X0.140000X0.170000X-0.140000X0.170000X-0.140000X-0.170000X0.140000X-0.170000X0*%
%TD*%
%TA.AperFunction,SMDPad,CuDef*%
%ADD39RoundRect,0.150000X0.425000X-0.150000X0.425000X0.150000X-0.425000X0.150000X-0.425000X-0.150000X0*%
%TD*%
%TA.AperFunction,SMDPad,CuDef*%
%ADD40RoundRect,0.075000X0.500000X-0.075000X0.500000X0.075000X-0.500000X0.075000X-0.500000X-0.075000X0*%
%TD*%
%TA.AperFunction,SMDPad,CuDef*%
%ADD41RoundRect,0.250000X0.750000X-0.840000X0.750000X0.840000X-0.750000X0.840000X-0.750000X-0.840000X0*%
%TD*%
%TA.AperFunction,SMDPad,CuDef*%
%ADD42R,0.600000X0.400000*%
%TD*%
%TA.AperFunction,SMDPad,CuDef*%
%ADD43R,0.400000X0.600000*%
%TD*%
%TA.AperFunction,SMDPad,CuDef*%
%ADD44RoundRect,0.135000X0.135000X0.185000X-0.135000X0.185000X-0.135000X-0.185000X0.135000X-0.185000X0*%
%TD*%
%TA.AperFunction,SMDPad,CuDef*%
%ADD45RoundRect,0.150000X-0.512500X-0.150000X0.512500X-0.150000X0.512500X0.150000X-0.512500X0.150000X0*%
%TD*%
%TA.AperFunction,ViaPad*%
%ADD46C,0.500000*%
%TD*%
%TA.AperFunction,Conductor*%
%ADD47C,0.200000*%
%TD*%
%TA.AperFunction,Conductor*%
%ADD48C,0.400000*%
%TD*%
%TA.AperFunction,Conductor*%
%ADD49C,0.160000*%
%TD*%
%TA.AperFunction,Conductor*%
%ADD50C,0.320000*%
%TD*%
G04 APERTURE END LIST*
D10*
%TO.P,H4,1,1*%
%TO.N,GND*%
X125650000Y-137300000D03*
%TD*%
%TO.P,H3,1,1*%
%TO.N,GND*%
X118450000Y-103250000D03*
%TD*%
%TO.P,H2,1,1*%
%TO.N,GND*%
X76750000Y-131550000D03*
%TD*%
%TO.P,H1,1,1*%
%TO.N,GND*%
X78850000Y-112500000D03*
%TD*%
D11*
%TO.P,J3,6,SWO*%
%TO.N,/SWO*%
X91500000Y-100530000D03*
%TO.P,J3,5,GND*%
%TO.N,GND*%
X91500000Y-101800000D03*
%TO.P,J3,4,SWCLK*%
%TO.N,/SWCLK*%
X90230000Y-100530000D03*
%TO.P,J3,3,~{RESET}*%
%TO.N,/NRST*%
X90230000Y-101800000D03*
%TO.P,J3,2,SWDIO*%
%TO.N,/SWDIO*%
X88960000Y-100530000D03*
%TO.P,J3,1,VCC*%
%TO.N,+3V3*%
X88960000Y-101800000D03*
%TD*%
D12*
%TO.P,SW1,1,A*%
%TO.N,Net-(SW1-A)*%
X109300000Y-101200000D03*
D13*
%TO.P,SW1,2,B*%
%TO.N,Net-(SW1-4)*%
X111800000Y-101200000D03*
%TO.P,SW1,3,C*%
%TO.N,unconnected-(SW1-C-Pad3)_1*%
X114300000Y-101200000D03*
%TO.P,SW1,4,C*%
%TO.N,Net-(SW1-A)*%
X109300000Y-104400000D03*
%TO.P,SW1,5,4*%
%TO.N,Net-(SW1-4)*%
X111800000Y-104400000D03*
%TO.P,SW1,6,C*%
%TO.N,unconnected-(SW1-C-Pad3)*%
X114300000Y-104400000D03*
%TD*%
D14*
%TO.P,SW2,1,1*%
%TO.N,/SWITCH*%
X74949999Y-127450000D03*
X74950001Y-118550001D03*
%TO.P,SW2,2,2*%
%TO.N,GND*%
X78949999Y-127449999D03*
X78950001Y-118550000D03*
%TD*%
D15*
%TO.P,C2,2*%
%TO.N,GND*%
X117675000Y-113890000D03*
%TO.P,C2,1*%
%TO.N,Net-(SW1-A)*%
X117675000Y-114850000D03*
%TD*%
%TO.P,C11,2*%
%TO.N,GND*%
X111575000Y-113770000D03*
%TO.P,C11,1*%
%TO.N,+3V3*%
X111575000Y-114730000D03*
%TD*%
D16*
%TO.P,U4,5,VOUT*%
%TO.N,+3V3*%
X113025000Y-114850000D03*
%TO.P,U4,4,BYP*%
%TO.N,unconnected-(U4-BYP-Pad4)*%
X113025000Y-112950000D03*
%TO.P,U4,3,~{SHDN}*%
%TO.N,Net-(SW1-A)*%
X115300000Y-112950000D03*
%TO.P,U4,2,GND*%
%TO.N,GND*%
X115300000Y-113900000D03*
%TO.P,U4,1,VIN*%
%TO.N,Net-(SW1-A)*%
X115300000Y-114850000D03*
%TD*%
D15*
%TO.P,C3,2*%
%TO.N,GND*%
X116675000Y-113900001D03*
%TO.P,C3,1*%
%TO.N,Net-(SW1-A)*%
X116675000Y-114860001D03*
%TD*%
D17*
%TO.P,C5,2*%
%TO.N,GND*%
X125429069Y-109444314D03*
%TO.P,C5,1*%
%TO.N,VBAT*%
X124949069Y-110275698D03*
%TD*%
D18*
%TO.P,U1,11,THERMAL_PAD*%
%TO.N,GND*%
X126323228Y-113441851D03*
D19*
%TO.P,U1,10,IN*%
%TO.N,VBUS*%
X127631376Y-113618631D03*
%TO.P,U1,9,STAT1*%
%TO.N,/STAT1*%
X127348533Y-113901470D03*
%TO.P,U1,8,ISET*%
%TO.N,Net-(U1-ISET)*%
X127065690Y-114184313D03*
%TO.P,U1,7,ILIM/VSET*%
%TO.N,Net-(U1-ILIM{slash}VSET)*%
X126782848Y-114467157D03*
%TO.P,U1,6,TS/MR*%
%TO.N,/TEMP*%
X126500000Y-114750000D03*
%TO.P,U1,5,GND*%
%TO.N,GND*%
X125015080Y-113265071D03*
%TO.P,U1,4,~{CE}*%
X125297923Y-112982232D03*
%TO.P,U1,3,STAT2*%
%TO.N,/STAT2*%
X125580766Y-112699389D03*
%TO.P,U1,2,BAT*%
%TO.N,VBAT*%
X125863608Y-112416545D03*
%TO.P,U1,1,SYS*%
%TO.N,Net-(SW1-4)*%
X126146456Y-112133702D03*
%TD*%
D20*
%TO.P,R16,2*%
%TO.N,GND*%
X127389375Y-116710624D03*
%TO.P,R16,1*%
%TO.N,Net-(U1-ILIM{slash}VSET)*%
X128110625Y-115989376D03*
%TD*%
D21*
%TO.P,C1,2*%
%TO.N,GND*%
X127350000Y-112050000D03*
%TO.P,C1,1*%
%TO.N,VBUS*%
X128028822Y-112728822D03*
%TD*%
D20*
%TO.P,R15,2*%
%TO.N,GND*%
X126689375Y-116010624D03*
%TO.P,R15,1*%
%TO.N,Net-(U1-ISET)*%
X127410625Y-115289376D03*
%TD*%
D22*
%TO.P,U3,6*%
%TO.N,Net-(R9-Pad1)*%
X123400002Y-115685626D03*
%TO.P,U3,5*%
%TO.N,VBUS*%
X124350001Y-115685626D03*
%TO.P,U3,4*%
%TO.N,Net-(R10-Pad1)*%
X125300000Y-115685628D03*
%TO.P,U3,3*%
%TO.N,Net-(J1-D+-PadA6)*%
X125300000Y-117960626D03*
%TO.P,U3,2*%
%TO.N,GND*%
X124350001Y-117960626D03*
%TO.P,U3,1*%
%TO.N,Net-(J1-D--PadA7)*%
X123400002Y-117960624D03*
%TD*%
D23*
%TO.P,R4,2*%
%TO.N,/SCL*%
X90549999Y-108434999D03*
%TO.P,R4,1*%
%TO.N,+3V3*%
X90550001Y-107414999D03*
%TD*%
D24*
%TO.P,J5,MP,MountPin*%
%TO.N,GND*%
X92550000Y-114200000D03*
X85950000Y-114199999D03*
D25*
%TO.P,J5,5,Pin_5*%
%TO.N,/INT*%
X91250000Y-110324999D03*
%TO.P,J5,4,Pin_4*%
%TO.N,/SCL*%
X90250001Y-110325000D03*
%TO.P,J5,3,Pin_3*%
%TO.N,/SDA*%
X89250000Y-110324999D03*
%TO.P,J5,2,Pin_2*%
%TO.N,+3V3*%
X88250001Y-110324999D03*
%TO.P,J5,1,Pin_1*%
%TO.N,GND*%
X87250000Y-110324999D03*
%TD*%
D26*
%TO.P,R11,2*%
%TO.N,/VDIV*%
X83500001Y-113640000D03*
%TO.P,R11,1*%
%TO.N,VBAT*%
X83499999Y-114660000D03*
%TD*%
D23*
%TO.P,R12,2*%
%TO.N,GND*%
X82499999Y-114660000D03*
%TO.P,R12,1*%
%TO.N,/VDIV*%
X82500001Y-113640000D03*
%TD*%
D27*
%TO.P,R8,2*%
%TO.N,Net-(U2-P1.15)*%
X83681877Y-105418130D03*
%TO.P,R8,1*%
%TO.N,Net-(D2-A)*%
X82960627Y-106139378D03*
%TD*%
D23*
%TO.P,R5,2*%
%TO.N,/SDA*%
X89549999Y-108434999D03*
%TO.P,R5,1*%
%TO.N,+3V3*%
X89550001Y-107414999D03*
%TD*%
D27*
%TO.P,R13,1*%
%TO.N,Net-(D3-A)*%
X82200000Y-105300000D03*
%TO.P,R13,2*%
%TO.N,Net-(U2-P1.10)*%
X82921250Y-104578752D03*
%TD*%
D28*
%TO.P,R2,1*%
%TO.N,Net-(J1-CC2)*%
X125180000Y-134299998D03*
%TO.P,R2,2*%
%TO.N,GND*%
X126200000Y-134300000D03*
%TD*%
D29*
%TO.P,Y2,1,1*%
%TO.N,Net-(U2-P0.00)*%
X97550000Y-113050000D03*
%TO.P,Y2,2,2*%
%TO.N,Net-(U2-P0.01)*%
X98950000Y-113050000D03*
%TD*%
D30*
%TO.P,C7,1*%
%TO.N,GND*%
X100250000Y-112490000D03*
%TO.P,C7,2*%
%TO.N,Net-(U2-P0.01)*%
X100250000Y-113450000D03*
%TD*%
D31*
%TO.P,J2,1,Pin_1*%
%TO.N,VBAT*%
X123000000Y-107800000D03*
%TO.P,J2,2,Pin_2*%
%TO.N,/TEMP*%
X123000000Y-108799999D03*
%TO.P,J2,3,Pin_3*%
%TO.N,GND*%
X122999999Y-109800000D03*
D32*
%TO.P,J2,MP,MountPin*%
X119125000Y-106499998D03*
X119125001Y-111099998D03*
%TD*%
D33*
%TO.P,J4,1,Pin_1*%
%TO.N,GND1*%
X104600000Y-122531250D03*
%TO.P,J4,2,Pin_2*%
%TO.N,VCC*%
X103600000Y-122531250D03*
%TO.P,J4,3,Pin_3*%
%TO.N,/SDA1*%
X102600000Y-122531250D03*
%TO.P,J4,4,Pin_4*%
%TO.N,/SCL1*%
X101600000Y-122531250D03*
%TO.P,J4,5,Pin_5*%
%TO.N,/INT1*%
X100600000Y-122531250D03*
D34*
%TO.P,J4,MP,MountPin*%
%TO.N,GND1*%
X105900000Y-118656250D03*
X99300000Y-118656250D03*
%TD*%
D28*
%TO.P,R1,1*%
%TO.N,Net-(J1-CC1)*%
X125090000Y-133199999D03*
%TO.P,R1,2*%
%TO.N,GND*%
X126110000Y-133200001D03*
%TD*%
D35*
%TO.P,C13,1*%
%TO.N,Net-(U2-VBUS)*%
X105545000Y-112460000D03*
%TO.P,C13,2*%
%TO.N,GND*%
X106505000Y-112460000D03*
%TD*%
D36*
%TO.P,D3,1,K*%
%TO.N,GND*%
X80821250Y-106728754D03*
%TO.P,D3,2,A*%
%TO.N,Net-(D3-A)*%
X81507140Y-106042864D03*
%TD*%
D37*
%TO.P,R3,1*%
%TO.N,VBUS*%
X107750000Y-113950000D03*
%TO.P,R3,2*%
%TO.N,Net-(U2-VBUS)*%
X105925000Y-113950000D03*
%TD*%
D38*
%TO.P,C9,1*%
%TO.N,+3V3*%
X102725000Y-112460000D03*
%TO.P,C9,2*%
%TO.N,GND*%
X101765000Y-112460000D03*
%TD*%
D36*
%TO.P,D2,1,K*%
%TO.N,GND*%
X81585361Y-107514648D03*
%TO.P,D2,2,A*%
%TO.N,Net-(D2-A)*%
X82271251Y-106828758D03*
%TD*%
D38*
%TO.P,C10,1*%
%TO.N,VCC*%
X102742500Y-128206250D03*
%TO.P,C10,2*%
%TO.N,GND1*%
X101782500Y-128206250D03*
%TD*%
D35*
%TO.P,C6,1*%
%TO.N,+3V3*%
X103645000Y-112460000D03*
%TO.P,C6,2*%
%TO.N,GND*%
X104605000Y-112460000D03*
%TD*%
D39*
%TO.P,J1,A1,GND*%
%TO.N,GND*%
X124745000Y-129090000D03*
%TO.P,J1,A4,VBUS*%
%TO.N,VBUS*%
X124745000Y-128290000D03*
D40*
%TO.P,J1,A5,CC1*%
%TO.N,Net-(J1-CC1)*%
X124745001Y-127140000D03*
%TO.P,J1,A6,D+*%
%TO.N,Net-(J1-D+-PadA6)*%
X124745000Y-126140000D03*
%TO.P,J1,A7,D-*%
%TO.N,Net-(J1-D--PadA7)*%
X124745000Y-125640000D03*
%TO.P,J1,A8,SBU1*%
%TO.N,unconnected-(J1-SBU1-PadA8)*%
X124745001Y-124640000D03*
D39*
%TO.P,J1,A9,VBUS*%
%TO.N,VBUS*%
X124745000Y-123490000D03*
%TO.P,J1,A12,GND*%
%TO.N,GND*%
X124745000Y-122690000D03*
%TO.P,J1,B1,GND*%
X124745000Y-122690000D03*
%TO.P,J1,B4,VBUS*%
%TO.N,VBUS*%
X124745000Y-123490000D03*
D40*
%TO.P,J1,B5,CC2*%
%TO.N,Net-(J1-CC2)*%
X124745000Y-124140000D03*
%TO.P,J1,B6,D+*%
%TO.N,Net-(J1-D+-PadA6)*%
X124745000Y-125140000D03*
%TO.P,J1,B7,D-*%
%TO.N,Net-(J1-D--PadA7)*%
X124745000Y-126640000D03*
%TO.P,J1,B8,SBU2*%
%TO.N,unconnected-(J1-SBU2-PadB8)*%
X124745000Y-127640000D03*
D39*
%TO.P,J1,B9,VBUS*%
%TO.N,VBUS*%
X124745000Y-128290000D03*
%TO.P,J1,B12,GND*%
%TO.N,GND*%
X124745000Y-129090000D03*
D41*
%TO.P,J1,S1,SHIELD*%
X125320000Y-131000000D03*
X129250000Y-131000000D03*
X125320000Y-120780000D03*
X129250000Y-120780000D03*
%TD*%
D26*
%TO.P,R7,1*%
%TO.N,+3V3*%
X95299999Y-113510000D03*
%TO.P,R7,2*%
%TO.N,/STAT1*%
X95300001Y-112490000D03*
%TD*%
D42*
%TO.P,U2,1,GND*%
%TO.N,GND*%
X96500000Y-99950000D03*
%TO.P,U2,2,GND*%
X96499999Y-101050000D03*
%TO.P,U2,3,P1.10*%
%TO.N,Net-(U2-P1.10)*%
X96500000Y-101850000D03*
%TO.P,U2,4,P1.11*%
%TO.N,unconnected-(U2-P1.11-Pad4)*%
X96500000Y-103450000D03*
%TO.P,U2,5,P1.12*%
%TO.N,unconnected-(U2-P1.12-Pad5)*%
X97400001Y-103850000D03*
%TO.P,U2,6,P1.13*%
%TO.N,unconnected-(U2-P1.13-Pad6)*%
X96500000Y-104250000D03*
%TO.P,U2,7,P1.14*%
%TO.N,unconnected-(U2-P1.14-Pad7)*%
X97400000Y-104650000D03*
%TO.P,U2,8,P1.15*%
%TO.N,Net-(U2-P1.15)*%
X96500000Y-105050000D03*
%TO.P,U2,9,P0.03*%
%TO.N,unconnected-(U2-P0.03-Pad9)*%
X97400000Y-105449999D03*
%TO.P,U2,10,P0.29*%
%TO.N,/VDIV*%
X96500000Y-105850000D03*
%TO.P,U2,11,P0.02*%
%TO.N,unconnected-(U2-P0.02-Pad11)*%
X97400000Y-106250000D03*
%TO.P,U2,12,P0.31*%
%TO.N,unconnected-(U2-P0.31-Pad12)*%
X96499999Y-106650000D03*
%TO.P,U2,13,P0.28*%
%TO.N,unconnected-(U2-P0.28-Pad13)*%
X97400000Y-107050000D03*
%TO.P,U2,14,P0.30*%
%TO.N,unconnected-(U2-P0.30-Pad14)*%
X96500000Y-107450000D03*
D43*
%TO.P,U2,15,GND*%
%TO.N,GND*%
X96350000Y-110850000D03*
%TO.P,U2,16,P0.27*%
%TO.N,/STAT1*%
X97149999Y-110850000D03*
%TO.P,U2,17,P0.00*%
%TO.N,Net-(U2-P0.00)*%
X97950000Y-110850000D03*
%TO.P,U2,18,P0.01*%
%TO.N,Net-(U2-P0.01)*%
X98750000Y-110850000D03*
%TO.P,U2,19,P0.26*%
%TO.N,/INT*%
X99150000Y-109950000D03*
%TO.P,U2,20,P0.04*%
%TO.N,unconnected-(U2-P0.04-Pad20)*%
X99550000Y-110850000D03*
%TO.P,U2,21,P0.05*%
%TO.N,unconnected-(U2-P0.05-Pad21)*%
X99949999Y-109950000D03*
%TO.P,U2,22,P0.06*%
%TO.N,/STAT2*%
X100350000Y-110850000D03*
%TO.P,U2,23,P0.07*%
%TO.N,unconnected-(U2-P0.07-Pad23)*%
X100750000Y-109950000D03*
%TO.P,U2,24,P0.08*%
%TO.N,unconnected-(U2-P0.08-Pad24)*%
X101150000Y-110849999D03*
%TO.P,U2,25,P1.08*%
%TO.N,unconnected-(U2-P1.08-Pad25)*%
X101550000Y-109950000D03*
%TO.P,U2,26,P1.09*%
%TO.N,unconnected-(U2-P1.09-Pad26)*%
X101950000Y-110850000D03*
%TO.P,U2,27,P0.11*%
%TO.N,/SCL*%
X102350001Y-109950000D03*
%TO.P,U2,28,VDD*%
%TO.N,+3V3*%
X102750000Y-110850000D03*
%TO.P,U2,29,P0.12*%
%TO.N,/SDA*%
X103150000Y-109950000D03*
%TO.P,U2,30,VDDH*%
%TO.N,+3V3*%
X103550000Y-110850000D03*
%TO.P,U2,31,DCCH*%
%TO.N,unconnected-(U2-DCCH-Pad31)*%
X104350000Y-110850000D03*
%TO.P,U2,32,VBUS*%
%TO.N,Net-(U2-VBUS)*%
X105150001Y-110850000D03*
%TO.P,U2,33,GND*%
%TO.N,GND*%
X105950000Y-110850000D03*
D42*
%TO.P,U2,34,D-*%
%TO.N,/USB_D-*%
X105800000Y-109850000D03*
%TO.P,U2,35,D+*%
%TO.N,/USB_D+*%
X105800000Y-109050000D03*
%TO.P,U2,36,P0.14*%
%TO.N,unconnected-(U2-P0.14-Pad36)*%
X104900000Y-108650000D03*
%TO.P,U2,37,P0.13*%
%TO.N,unconnected-(U2-P0.13-Pad37)*%
X105800000Y-108249999D03*
%TO.P,U2,38,P0.16*%
%TO.N,unconnected-(U2-P0.16-Pad38)*%
X104900000Y-107850001D03*
%TO.P,U2,39,P0.15*%
%TO.N,unconnected-(U2-P0.15-Pad39)*%
X105800000Y-107450000D03*
%TO.P,U2,40,P0.18*%
%TO.N,/NRST*%
X104900000Y-107050000D03*
%TO.P,U2,41,P0.17*%
%TO.N,unconnected-(U2-P0.17-Pad41)*%
X105800001Y-106650000D03*
%TO.P,U2,42,P0.19*%
%TO.N,unconnected-(U2-P0.19-Pad42)*%
X104900000Y-106250000D03*
%TO.P,U2,43,P0.21*%
%TO.N,unconnected-(U2-P0.21-Pad43)*%
X104900000Y-105449999D03*
%TO.P,U2,44,P0.20*%
%TO.N,unconnected-(U2-P0.20-Pad44)*%
X105800000Y-105050000D03*
%TO.P,U2,45,P0.23*%
%TO.N,unconnected-(U2-P0.23-Pad45)*%
X104900000Y-104650000D03*
%TO.P,U2,46,P0.22*%
%TO.N,unconnected-(U2-P0.22-Pad46)*%
X105800000Y-104250000D03*
%TO.P,U2,47,P1.00*%
%TO.N,/SWO*%
X104899999Y-103850000D03*
%TO.P,U2,48,P0.24*%
%TO.N,unconnected-(U2-P0.24-Pad48)*%
X105800000Y-103450000D03*
%TO.P,U2,49,P0.25*%
%TO.N,unconnected-(U2-P0.25-Pad49)*%
X104900000Y-103050000D03*
%TO.P,U2,50,P1.02*%
%TO.N,/SWITCH*%
X104900000Y-102250000D03*
%TO.P,U2,51,SWDIO*%
%TO.N,/SWDIO*%
X105800000Y-101850000D03*
%TO.P,U2,52,P0.09*%
%TO.N,unconnected-(U2-P0.09-Pad52)*%
X104900000Y-101450000D03*
%TO.P,U2,53,SWDCLK*%
%TO.N,/SWCLK*%
X105800001Y-101050000D03*
%TO.P,U2,54,P0.10*%
%TO.N,unconnected-(U2-P0.10-Pad54)*%
X104900000Y-100650000D03*
%TO.P,U2,55,GND*%
%TO.N,GND*%
X105800000Y-99950000D03*
D43*
%TO.P,U2,56,P1.04*%
%TO.N,unconnected-(U2-P1.04-Pad56)*%
X99150000Y-104250000D03*
%TO.P,U2,57,P1.06*%
%TO.N,unconnected-(U2-P1.06-Pad57)*%
X99950000Y-104250000D03*
%TO.P,U2,58,P1.07*%
%TO.N,unconnected-(U2-P1.07-Pad58)*%
X100750000Y-104250000D03*
%TO.P,U2,59,P1.05*%
%TO.N,unconnected-(U2-P1.05-Pad59)*%
X101550000Y-104250000D03*
%TO.P,U2,60,P1.03*%
%TO.N,unconnected-(U2-P1.03-Pad60)*%
X102350000Y-104250000D03*
%TO.P,U2,61,P1.01*%
%TO.N,unconnected-(U2-P1.01-Pad61)*%
X103150000Y-104250000D03*
%TD*%
D38*
%TO.P,C4,1*%
%TO.N,+3V3*%
X102730000Y-113400000D03*
%TO.P,C4,2*%
%TO.N,GND*%
X101770000Y-113400000D03*
%TD*%
D44*
%TO.P,R10,1*%
%TO.N,Net-(R10-Pad1)*%
X108400000Y-109050000D03*
%TO.P,R10,2*%
%TO.N,/USB_D+*%
X107380006Y-109049998D03*
%TD*%
D30*
%TO.P,C8,1*%
%TO.N,GND*%
X96249997Y-112490001D03*
%TO.P,C8,2*%
%TO.N,Net-(U2-P0.00)*%
X96249997Y-113450001D03*
%TD*%
D26*
%TO.P,R6,1*%
%TO.N,+3V3*%
X94899999Y-111260000D03*
%TO.P,R6,2*%
%TO.N,/STAT2*%
X94900001Y-110240000D03*
%TD*%
D23*
%TO.P,R14,1*%
%TO.N,+3V3*%
X75300001Y-114800000D03*
%TO.P,R14,2*%
%TO.N,/SWITCH*%
X75299999Y-115820000D03*
%TD*%
D44*
%TO.P,R9,1*%
%TO.N,Net-(R9-Pad1)*%
X108409997Y-110000001D03*
%TO.P,R9,2*%
%TO.N,/USB_D-*%
X107390003Y-109999999D03*
%TD*%
D45*
%TO.P,U5,1,SCL*%
%TO.N,/SCL1*%
X101162500Y-125006250D03*
%TO.P,U5,2,GND*%
%TO.N,GND1*%
X101162500Y-125956250D03*
%TO.P,U5,3,TEST*%
X101162500Y-126906250D03*
%TO.P,U5,4,VCC*%
%TO.N,VCC*%
X103437500Y-126906250D03*
%TO.P,U5,5,~{INT}*%
%TO.N,/INT1*%
X103437500Y-125956250D03*
%TO.P,U5,6,SDA*%
%TO.N,/SDA1*%
X103437500Y-125006250D03*
%TD*%
D46*
%TO.N,GND*%
X126150000Y-115450000D03*
X128100000Y-117100000D03*
X126150000Y-116450000D03*
X129800000Y-117850000D03*
X129300000Y-128500000D03*
X129700000Y-123150000D03*
X126300000Y-119350000D03*
X124100000Y-122000000D03*
X123716214Y-119143259D03*
X87000000Y-102300000D03*
X86000000Y-101050000D03*
X94191848Y-102396080D03*
X94319408Y-100153709D03*
X95400000Y-107300000D03*
X91600000Y-106500000D03*
X116600000Y-106700000D03*
X121050000Y-104650000D03*
%TO.N,VBAT*%
X109350000Y-107250000D03*
X84350000Y-114350000D03*
%TO.N,/STAT1*%
X94450000Y-112500000D03*
%TO.N,/STAT2*%
X110350000Y-110784003D03*
X113200000Y-110050000D03*
%TO.N,/STAT1*%
X111200000Y-110250000D03*
X113900000Y-109950000D03*
%TO.N,VBUS*%
X116350000Y-112100000D03*
X123950000Y-116650000D03*
%TO.N,Net-(SW1-A)*%
X118800000Y-114850000D03*
X118650000Y-114400000D03*
%TO.N,Net-(SW1-4)*%
X125850000Y-111550000D03*
X126356348Y-111676191D03*
%TO.N,/SWCLK*%
X106550000Y-100650000D03*
%TO.N,/SWDIO*%
X106650000Y-101400000D03*
X87913536Y-100191022D03*
%TO.N,/SWCLK*%
X90800000Y-100050000D03*
%TO.N,+3V3*%
X89250000Y-102650000D03*
%TO.N,GND*%
X122700000Y-110650000D03*
X125100000Y-108300000D03*
%TO.N,/NRST*%
X91000000Y-102650000D03*
%TO.N,/SWITCH*%
X103700000Y-101500000D03*
X76300001Y-115400000D03*
%TO.N,+3V3*%
X74450001Y-115000000D03*
%TO.N,GND*%
X84600000Y-104350000D03*
X93500000Y-104350000D03*
X119500000Y-111700000D03*
X115100000Y-110750000D03*
X110350000Y-110150000D03*
X116450000Y-110500000D03*
X123200000Y-114300000D03*
X121900000Y-110850000D03*
X120200000Y-107800000D03*
X121350000Y-109500000D03*
X121750000Y-107950000D03*
X126250000Y-110100000D03*
X125650000Y-110650000D03*
X126950000Y-110950000D03*
%TO.N,/STAT2*%
X124600000Y-111950000D03*
%TO.N,GND*%
X124100000Y-111200000D03*
X122500000Y-111800000D03*
X124200000Y-112800000D03*
X75250000Y-113550000D03*
X80200000Y-108800000D03*
X84950000Y-102450000D03*
X91850000Y-102750000D03*
X99250000Y-106000000D03*
X103300000Y-107200000D03*
X103100000Y-102300000D03*
X98550000Y-101950000D03*
%TO.N,Net-(SW1-A)*%
X108650000Y-103900000D03*
%TO.N,GND*%
X106850000Y-102450000D03*
X107050000Y-105550000D03*
%TO.N,/NRST*%
X104200000Y-106950000D03*
%TO.N,GND*%
X111000000Y-113600000D03*
%TO.N,+3V3*%
X113450000Y-114250000D03*
X112650000Y-114300000D03*
X110550000Y-114650000D03*
%TO.N,GND*%
X117700000Y-113300000D03*
X116900000Y-113200000D03*
%TO.N,Net-(J1-CC2)*%
X123354876Y-125511894D03*
X123900000Y-124150000D03*
%TO.N,/STAT1*%
X127800000Y-114750000D03*
%TO.N,GND*%
X99821391Y-108449294D03*
X92832443Y-108456008D03*
X86250000Y-110200000D03*
%TO.N,+3V3*%
X88300000Y-108800000D03*
X89550000Y-106650000D03*
X90400000Y-106650000D03*
X103900000Y-110150000D03*
X102850000Y-114200000D03*
X103900000Y-113400000D03*
%TO.N,GND*%
X101150000Y-112800000D03*
X99700000Y-112000000D03*
X96950000Y-112000000D03*
%TO.N,+3V3*%
X94200000Y-111350000D03*
X94500000Y-113450000D03*
%TO.N,GND*%
X95850000Y-111250000D03*
%TO.N,/STAT2*%
X100750000Y-111500000D03*
X95800000Y-110100000D03*
%TD*%
D47*
%TO.N,Net-(J1-D+-PadA6)*%
X125300000Y-118400000D02*
X125300000Y-117960626D01*
X123415000Y-124384999D02*
X123415000Y-120285000D01*
X123415000Y-120285000D02*
X125300000Y-118400000D01*
X124170001Y-125140000D02*
X123415000Y-124384999D01*
X124745000Y-125140000D02*
X124170001Y-125140000D01*
%TO.N,/VDIV*%
X83500001Y-112014105D02*
X89664106Y-105850000D01*
X83500001Y-113640000D02*
X83500001Y-112014105D01*
X89664106Y-105850000D02*
X96500000Y-105850000D01*
%TO.N,VBAT*%
X120850000Y-105650000D02*
X123000000Y-107800000D01*
X110950000Y-105650000D02*
X120850000Y-105650000D01*
X109350000Y-107250000D02*
X110950000Y-105650000D01*
X84040000Y-114660000D02*
X84350000Y-114350000D01*
X83499999Y-114660000D02*
X84040000Y-114660000D01*
%TO.N,/STAT1*%
X94460000Y-112490000D02*
X94450000Y-112500000D01*
X95300001Y-112490000D02*
X94460000Y-112490000D01*
X113498532Y-109548532D02*
X113900000Y-109950000D01*
X111901468Y-109548532D02*
X113498532Y-109548532D01*
X111200000Y-110250000D02*
X111901468Y-109548532D01*
%TO.N,/STAT2*%
X113200000Y-110050000D02*
X112465997Y-110784003D01*
X112465997Y-110784003D02*
X110350000Y-110784003D01*
%TO.N,VBUS*%
X108950000Y-113950000D02*
X107750000Y-113950000D01*
X110800000Y-112100000D02*
X108950000Y-113950000D01*
X116350000Y-112100000D02*
X110800000Y-112100000D01*
X124350001Y-116249999D02*
X123950000Y-116650000D01*
X124350001Y-115685626D02*
X124350001Y-116249999D01*
%TO.N,Net-(J1-CC2)*%
X123300000Y-125566770D02*
X123300000Y-132419998D01*
X123300000Y-132419998D02*
X125180000Y-134299998D01*
X123354876Y-125511894D02*
X123300000Y-125566770D01*
%TO.N,Net-(J1-CC1)*%
X124170002Y-127140000D02*
X124745001Y-127140000D01*
X123942000Y-132051999D02*
X123942000Y-127368002D01*
X125090000Y-133199999D02*
X123942000Y-132051999D01*
X123942000Y-127368002D02*
X124170002Y-127140000D01*
D48*
%TO.N,Net-(SW1-A)*%
X118800000Y-114850000D02*
X117675000Y-114850000D01*
X118200000Y-114850000D02*
X117675000Y-114850000D01*
X118650000Y-114400000D02*
X118200000Y-114850000D01*
D47*
%TO.N,Net-(SW1-4)*%
X126146456Y-111846456D02*
X125850000Y-111550000D01*
X126146456Y-112133702D02*
X126146456Y-111846456D01*
X126146456Y-111886083D02*
X126356348Y-111676191D01*
X126146456Y-112133702D02*
X126146456Y-111886083D01*
D49*
%TO.N,/SWCLK*%
X106150000Y-101050000D02*
X106550000Y-100650000D01*
X105800001Y-101050000D02*
X106150000Y-101050000D01*
%TO.N,/SWDIO*%
X106250000Y-101400000D02*
X106650000Y-101400000D01*
X106196300Y-101453700D02*
X106250000Y-101400000D01*
D47*
X88621022Y-100191022D02*
X87913536Y-100191022D01*
X88960000Y-100530000D02*
X88621022Y-100191022D01*
%TO.N,/SWCLK*%
X90320000Y-100530000D02*
X90800000Y-100050000D01*
X90230000Y-100530000D02*
X90320000Y-100530000D01*
%TO.N,+3V3*%
X88960000Y-102360000D02*
X89250000Y-102650000D01*
X88960000Y-101800000D02*
X88960000Y-102360000D01*
%TO.N,Net-(R9-Pad1)*%
X109979446Y-111569450D02*
X108409997Y-110000001D01*
X120450000Y-114700000D02*
X117319450Y-111569450D01*
X117319450Y-111569450D02*
X109979446Y-111569450D01*
X122600000Y-114700000D02*
X120450000Y-114700000D01*
X123400002Y-115500002D02*
X122600000Y-114700000D01*
X123400002Y-115685626D02*
X123400002Y-115500002D01*
%TO.N,Net-(R10-Pad1)*%
X118768044Y-109050000D02*
X108400000Y-109050000D01*
X122503044Y-112785000D02*
X118768044Y-109050000D01*
X122650603Y-112785000D02*
X122503044Y-112785000D01*
X125300000Y-115434397D02*
X122650603Y-112785000D01*
X125300000Y-115685628D02*
X125300000Y-115434397D01*
D49*
%TO.N,/TEMP*%
X123982999Y-110617001D02*
X123982999Y-109332999D01*
X123271117Y-111328883D02*
X123982999Y-110617001D01*
X123982999Y-109332999D02*
X123449999Y-108799999D01*
X123271117Y-111400000D02*
X123271117Y-111305924D01*
X123271117Y-111400000D02*
X123271117Y-111328883D01*
X123449999Y-108799999D02*
X123000000Y-108799999D01*
D50*
%TO.N,VBAT*%
X123774999Y-107800000D02*
X123000000Y-107800000D01*
X124750000Y-108775001D02*
X123774999Y-107800000D01*
X124949069Y-110275698D02*
X124750000Y-110076629D01*
X124750000Y-110076629D02*
X124750000Y-108775001D01*
D47*
%TO.N,/NRST*%
X90230000Y-101880000D02*
X91000000Y-102650000D01*
X90230000Y-101800000D02*
X90230000Y-101880000D01*
%TO.N,/SWO*%
X104072000Y-103722000D02*
X104200000Y-103850000D01*
X98379164Y-100622000D02*
X101479164Y-103722000D01*
X104200000Y-103850000D02*
X104899999Y-103850000D01*
X95971999Y-100622000D02*
X98379164Y-100622000D01*
X95594699Y-100999300D02*
X95971999Y-100622000D01*
X101479164Y-103722000D02*
X104072000Y-103722000D01*
X91500000Y-100530000D02*
X91969300Y-100999300D01*
X91969300Y-100999300D02*
X95594699Y-100999300D01*
%TO.N,/SWITCH*%
X104450000Y-102250000D02*
X104900000Y-102250000D01*
X103700000Y-101500000D02*
X104450000Y-102250000D01*
X75880001Y-115820000D02*
X76300001Y-115400000D01*
X75299999Y-115820000D02*
X75880001Y-115820000D01*
%TO.N,+3V3*%
X74650001Y-114800000D02*
X74450001Y-115000000D01*
X75300001Y-114800000D02*
X74650001Y-114800000D01*
%TO.N,/SWITCH*%
X74950001Y-116169998D02*
X75299999Y-115820000D01*
X74950001Y-118550001D02*
X74950001Y-116169998D01*
X74949999Y-118550003D02*
X74950001Y-118550001D01*
X74949999Y-127450000D02*
X74949999Y-118550003D01*
D50*
%TO.N,+3V3*%
X111020000Y-114730000D02*
X111575000Y-114730000D01*
X110940000Y-114650000D02*
X111020000Y-114730000D01*
X110550000Y-114650000D02*
X110940000Y-114650000D01*
D47*
%TO.N,Net-(U2-P1.10)*%
X94850000Y-103500000D02*
X96500000Y-101850000D01*
X84000002Y-103500000D02*
X94850000Y-103500000D01*
X82921250Y-104578752D02*
X84000002Y-103500000D01*
%TO.N,Net-(U2-P1.15)*%
X84050007Y-105050000D02*
X83681877Y-105418130D01*
X96500000Y-105050000D02*
X84050007Y-105050000D01*
%TO.N,Net-(D2-A)*%
X82960627Y-106139382D02*
X82271251Y-106828758D01*
X82960627Y-106139378D02*
X82960627Y-106139382D01*
%TO.N,Net-(D3-A)*%
X82200000Y-105350004D02*
X81507140Y-106042864D01*
X82200000Y-105300000D02*
X82200000Y-105350004D01*
%TO.N,/USB_D+*%
X105800002Y-109049998D02*
X105800000Y-109050000D01*
X107380006Y-109049998D02*
X105800002Y-109049998D01*
%TO.N,/USB_D-*%
X107390003Y-109999999D02*
X105949999Y-109999999D01*
X105949999Y-109999999D02*
X105800000Y-109850000D01*
%TO.N,/STAT2*%
X124831377Y-111950000D02*
X124600000Y-111950000D01*
X125580766Y-112699389D02*
X124831377Y-111950000D01*
D49*
%TO.N,GND*%
X125015071Y-113265071D02*
X125015080Y-113265071D01*
X124550000Y-112800000D02*
X125015071Y-113265071D01*
X124200000Y-112800000D02*
X124550000Y-112800000D01*
%TO.N,/TEMP*%
X125450000Y-114750000D02*
X123271117Y-112571117D01*
X123271117Y-112571117D02*
X123271117Y-111400000D01*
X126500000Y-114750000D02*
X125450000Y-114750000D01*
D50*
%TO.N,VBAT*%
X124949069Y-111502006D02*
X125863608Y-112416545D01*
X124949069Y-110275698D02*
X124949069Y-111502006D01*
D49*
%TO.N,/VDIV*%
X82510006Y-113640000D02*
X82500002Y-113650004D01*
X83550001Y-113640000D02*
X82510006Y-113640000D01*
%TO.N,/NRST*%
X104800000Y-106950000D02*
X104900000Y-107050000D01*
X104200000Y-106950000D02*
X104800000Y-106950000D01*
%TO.N,/SWO*%
X104849999Y-103800000D02*
X104899999Y-103850000D01*
%TO.N,/SWCLK*%
X105802701Y-101047300D02*
X105800001Y-101050000D01*
%TO.N,/SWDIO*%
X106196300Y-101453700D02*
X105800000Y-101850000D01*
D50*
%TO.N,GND*%
X111170000Y-113770000D02*
X111000000Y-113600000D01*
X111575000Y-113770000D02*
X111170000Y-113770000D01*
%TO.N,+3V3*%
X113025000Y-114675000D02*
X113450000Y-114250000D01*
X113025000Y-114675000D02*
X112650000Y-114300000D01*
X113025000Y-114850000D02*
X113025000Y-114675000D01*
X113025000Y-114850000D02*
X111695000Y-114850000D01*
X111695000Y-114850000D02*
X111575000Y-114730000D01*
%TO.N,GND*%
X117675000Y-113325000D02*
X117700000Y-113300000D01*
X117675000Y-113890000D02*
X117675000Y-113325000D01*
X116675000Y-113425000D02*
X116900000Y-113200000D01*
X116675000Y-113900001D02*
X116675000Y-113425000D01*
X115300000Y-113900000D02*
X116675000Y-113900001D01*
%TO.N,Net-(SW1-A)*%
X114637501Y-112950000D02*
X114349500Y-113238001D01*
X114349500Y-114561999D02*
X114637501Y-114850000D01*
X115300000Y-112950000D02*
X114637501Y-112950000D01*
X114349500Y-113238001D02*
X114349500Y-114561999D01*
X114637501Y-114850000D02*
X115300000Y-114850000D01*
X117664999Y-114860001D02*
X117675000Y-114850000D01*
X116675000Y-114860001D02*
X117664999Y-114860001D01*
X116664999Y-114850000D02*
X116675000Y-114860001D01*
X115300000Y-114850000D02*
X116664999Y-114850000D01*
D47*
%TO.N,Net-(J1-D--PadA7)*%
X123087000Y-124556999D02*
X124170001Y-125640000D01*
X123400002Y-117960624D02*
X123087000Y-118273626D01*
X123087000Y-118273626D02*
X123087000Y-124556999D01*
X124170001Y-125640000D02*
X124745000Y-125640000D01*
X124239414Y-126640000D02*
X124745000Y-126640000D01*
X123942000Y-126342586D02*
X124239414Y-126640000D01*
X123942000Y-125868001D02*
X123942000Y-126342586D01*
X124170001Y-125640000D02*
X123942000Y-125868001D01*
%TO.N,Net-(J1-D+-PadA6)*%
X125548000Y-125911999D02*
X125319999Y-126140000D01*
X125319999Y-126140000D02*
X124745000Y-126140000D01*
X125250586Y-125140000D02*
X125548000Y-125437414D01*
X124745000Y-125140000D02*
X125250586Y-125140000D01*
X125548000Y-125437414D02*
X125548000Y-125911999D01*
%TO.N,Net-(J1-CC2)*%
X123910000Y-124140000D02*
X123900000Y-124150000D01*
X124745000Y-124140000D02*
X123910000Y-124140000D01*
%TO.N,VBUS*%
X125072002Y-117070126D02*
X127044599Y-117070126D01*
X124350001Y-115685626D02*
X124350001Y-116348125D01*
X127724473Y-117750000D02*
X128762545Y-117750000D01*
D50*
X128762545Y-117750000D02*
X128762545Y-118909681D01*
D47*
X124350001Y-116348125D02*
X125072002Y-117070126D01*
X127044599Y-117070126D02*
X127724473Y-117750000D01*
D50*
X126650000Y-121022226D02*
X126650000Y-123650000D01*
X128762545Y-114749800D02*
X128762545Y-117750000D01*
X128762545Y-118909681D02*
X126650000Y-121022226D01*
X127631376Y-113618631D02*
X128762545Y-114749800D01*
D47*
X127631376Y-113126268D02*
X128028822Y-112728822D01*
X127631376Y-113618631D02*
X127631376Y-113126268D01*
%TO.N,Net-(U1-ISET)*%
X127315000Y-114433623D02*
X127065690Y-114184313D01*
X127410625Y-115289376D02*
X127315000Y-115193751D01*
X127315000Y-115193751D02*
X127315000Y-114433623D01*
%TO.N,Net-(U1-ILIM{slash}VSET)*%
X126954967Y-114639276D02*
X126782848Y-114467157D01*
X126954967Y-114971027D02*
X126954967Y-114639276D01*
X126806702Y-115119292D02*
X126954967Y-114971027D01*
X127406347Y-115989376D02*
X126806702Y-115389731D01*
X126806702Y-115389731D02*
X126806702Y-115119292D01*
X128110625Y-115989376D02*
X127406347Y-115989376D01*
%TO.N,/STAT1*%
X127800000Y-114352937D02*
X127800000Y-114750000D01*
X127348533Y-113901470D02*
X127800000Y-114352937D01*
%TO.N,VBUS*%
X127631376Y-113618631D02*
X127694323Y-113618631D01*
%TO.N,/SCL*%
X102350001Y-109850000D02*
X102350001Y-109950000D01*
X101450001Y-108950000D02*
X102350001Y-109850000D01*
X91065000Y-108950000D02*
X101450001Y-108950000D01*
X90549999Y-108434999D02*
X91065000Y-108950000D01*
%TO.N,/INT*%
X98815000Y-109615000D02*
X99150000Y-109950000D01*
X91959999Y-109615000D02*
X98815000Y-109615000D01*
X91250000Y-110324999D02*
X91959999Y-109615000D01*
%TO.N,GND*%
X86374999Y-110324999D02*
X86250000Y-110200000D01*
X87250000Y-110324999D02*
X86374999Y-110324999D01*
%TO.N,+3V3*%
X88250001Y-108849999D02*
X88300000Y-108800000D01*
X88250001Y-110324999D02*
X88250001Y-108849999D01*
X89550001Y-107414999D02*
X89550000Y-106650000D01*
X90550001Y-106800001D02*
X90400000Y-106650000D01*
X90550001Y-107414999D02*
X90550001Y-106800001D01*
%TO.N,/SDA*%
X101236999Y-107936999D02*
X103150000Y-109850000D01*
X103150000Y-109850000D02*
X103150000Y-109950000D01*
X90047999Y-107936999D02*
X101236999Y-107936999D01*
X89549999Y-108434999D02*
X90047999Y-107936999D01*
X89250000Y-108734998D02*
X89549999Y-108434999D01*
X89250000Y-110324999D02*
X89250000Y-108734998D01*
%TO.N,/SCL*%
X90250001Y-108734997D02*
X90549999Y-108434999D01*
X90250001Y-110325000D02*
X90250001Y-108734997D01*
D50*
%TO.N,Net-(U2-VBUS)*%
X105150001Y-112065001D02*
X105150001Y-110850000D01*
X105545000Y-112460000D02*
X105150001Y-112065001D01*
X105925000Y-112840000D02*
X105545000Y-112460000D01*
X105925000Y-113950000D02*
X105925000Y-112840000D01*
D47*
%TO.N,+3V3*%
X103550000Y-110500000D02*
X103900000Y-110150000D01*
X103550000Y-110850000D02*
X103550000Y-110500000D01*
X102730000Y-114080000D02*
X102850000Y-114200000D01*
X102730000Y-113400000D02*
X102730000Y-114080000D01*
X103645000Y-113145000D02*
X103900000Y-113400000D01*
X103645000Y-112460000D02*
X103645000Y-113145000D01*
X103645000Y-110945000D02*
X103550000Y-110850000D01*
X103645000Y-112460000D02*
X103645000Y-110945000D01*
X102725000Y-110875000D02*
X102750000Y-110850000D01*
X102725000Y-112460000D02*
X102725000Y-110875000D01*
X102725000Y-113395000D02*
X102730000Y-113400000D01*
X102725000Y-112460000D02*
X102725000Y-113395000D01*
%TO.N,GND*%
X101490000Y-112460000D02*
X101150000Y-112800000D01*
X101765000Y-112460000D02*
X101490000Y-112460000D01*
X100190000Y-112490000D02*
X99700000Y-112000000D01*
X100250000Y-112490000D02*
X100190000Y-112490000D01*
%TO.N,Net-(U2-P0.01)*%
X99350000Y-113450000D02*
X98950000Y-113050000D01*
X100250000Y-113450000D02*
X99350000Y-113450000D01*
X98950000Y-111050000D02*
X98750000Y-110850000D01*
X98950000Y-113050000D02*
X98950000Y-111050000D01*
%TO.N,Net-(U2-P0.00)*%
X97950000Y-112650000D02*
X97950000Y-110850000D01*
X97550000Y-113050000D02*
X97950000Y-112650000D01*
%TO.N,GND*%
X96459999Y-112490001D02*
X96950000Y-112000000D01*
X96249997Y-112490001D02*
X96459999Y-112490001D01*
%TO.N,Net-(U2-P0.00)*%
X97149999Y-113450001D02*
X97550000Y-113050000D01*
X96249997Y-113450001D02*
X97149999Y-113450001D01*
%TO.N,+3V3*%
X95239999Y-113450000D02*
X95299999Y-113510000D01*
X94500000Y-113450000D02*
X95239999Y-113450000D01*
X94290000Y-111260000D02*
X94200000Y-111350000D01*
X94899999Y-111260000D02*
X94290000Y-111260000D01*
%TO.N,/STAT1*%
X95808000Y-111982001D02*
X95300001Y-112490000D01*
X97149999Y-110950000D02*
X96117998Y-111982001D01*
X96117998Y-111982001D02*
X95808000Y-111982001D01*
X97149999Y-110850000D02*
X97149999Y-110950000D01*
%TO.N,GND*%
X96250000Y-110850000D02*
X95850000Y-111250000D01*
X96350000Y-110850000D02*
X96250000Y-110850000D01*
%TO.N,/STAT2*%
X95040001Y-110100000D02*
X94900001Y-110240000D01*
X95800000Y-110100000D02*
X95040001Y-110100000D01*
X100350000Y-111100000D02*
X100750000Y-111500000D01*
X100350000Y-110850000D02*
X100350000Y-111100000D01*
D49*
%TO.N,Net-(J1-CC2)*%
X124267701Y-124140000D02*
X124745000Y-124140000D01*
%TO.N,Net-(J1-CC1)*%
X124267700Y-127140000D02*
X124745001Y-127140000D01*
%TD*%
%TA.AperFunction,Conductor*%
%TO.N,GND*%
G36*
X129292389Y-114616591D02*
G01*
X129313632Y-114650939D01*
X129663172Y-115613057D01*
X129664345Y-115616479D01*
X129995650Y-116643919D01*
X129996697Y-116647382D01*
X130112205Y-117056165D01*
X130209253Y-117399622D01*
X130290238Y-117686227D01*
X130291155Y-117689716D01*
X130546551Y-118738621D01*
X130547342Y-118742151D01*
X130764235Y-119799654D01*
X130764897Y-119803211D01*
X130943007Y-120867928D01*
X130943539Y-120871506D01*
X131082633Y-121942062D01*
X131083033Y-121945658D01*
X131182916Y-123020536D01*
X131183185Y-123024144D01*
X131243729Y-124101970D01*
X131243866Y-124105585D01*
X131264988Y-125184901D01*
X131264993Y-125188519D01*
X131246666Y-126267913D01*
X131246538Y-126271528D01*
X131188787Y-127349479D01*
X131188528Y-127353088D01*
X131091428Y-128428252D01*
X131091037Y-128431848D01*
X130954716Y-129502754D01*
X130954193Y-129506334D01*
X130778840Y-130571514D01*
X130778187Y-130575073D01*
X130564036Y-131633123D01*
X130563254Y-131636655D01*
X130310578Y-132686213D01*
X130309667Y-132689714D01*
X130018819Y-133729309D01*
X130017781Y-133732775D01*
X129689138Y-134761070D01*
X129687974Y-134764495D01*
X129321976Y-135780104D01*
X129320687Y-135783484D01*
X128917845Y-136784998D01*
X128916434Y-136788330D01*
X128477247Y-137774502D01*
X128475715Y-137777779D01*
X128000801Y-138747220D01*
X127999150Y-138750439D01*
X127619107Y-139459412D01*
X127574951Y-139501767D01*
X127532994Y-139511633D01*
X123075888Y-139562991D01*
X123017483Y-139544756D01*
X122980951Y-139495673D01*
X122975747Y-139464078D01*
X122975743Y-139459412D01*
X122970338Y-132754393D01*
X122989198Y-132696188D01*
X123038669Y-132660184D01*
X123099855Y-132660135D01*
X123139339Y-132684308D01*
X124680505Y-134225474D01*
X124708281Y-134279989D01*
X124709500Y-134295476D01*
X124709500Y-134524312D01*
X124715932Y-134573172D01*
X124715932Y-134573173D01*
X124765933Y-134680399D01*
X124765934Y-134680400D01*
X124765935Y-134680402D01*
X124849596Y-134764063D01*
X124849597Y-134764063D01*
X124849598Y-134764064D01*
X124956824Y-134814065D01*
X124956825Y-134814065D01*
X124956827Y-134814066D01*
X125005684Y-134820498D01*
X125005685Y-134820498D01*
X125354314Y-134820498D01*
X125354316Y-134820498D01*
X125403173Y-134814066D01*
X125510404Y-134764063D01*
X125594065Y-134680402D01*
X125644068Y-134573171D01*
X125650500Y-134524314D01*
X125650500Y-134075682D01*
X125644068Y-134026825D01*
X125632664Y-134002370D01*
X125594066Y-133919596D01*
X125594065Y-133919595D01*
X125594065Y-133919594D01*
X125510404Y-133835933D01*
X125510402Y-133835932D01*
X125510401Y-133835931D01*
X125459952Y-133812406D01*
X125415204Y-133770677D01*
X125403530Y-133710616D01*
X125429389Y-133655163D01*
X125431760Y-133652707D01*
X125504065Y-133580403D01*
X125554068Y-133473172D01*
X125560500Y-133424315D01*
X125560500Y-132975683D01*
X125554068Y-132926826D01*
X125504065Y-132819595D01*
X125420404Y-132735934D01*
X125420402Y-132735933D01*
X125420401Y-132735932D01*
X125313175Y-132685931D01*
X125280601Y-132681643D01*
X125264316Y-132679499D01*
X125264315Y-132679499D01*
X125035479Y-132679499D01*
X124977288Y-132660592D01*
X124965475Y-132650503D01*
X124271496Y-131956524D01*
X124243719Y-131902007D01*
X124242500Y-131886520D01*
X124242500Y-128967000D01*
X124261407Y-128908809D01*
X124310907Y-128872845D01*
X124341500Y-128868000D01*
X125167672Y-128868000D01*
X125225863Y-128886907D01*
X125261827Y-128936407D01*
X125263289Y-128941343D01*
X125269061Y-128962883D01*
X125279993Y-129003682D01*
X125356281Y-129135816D01*
X125356283Y-129135818D01*
X125356285Y-129135821D01*
X125464179Y-129243715D01*
X125464181Y-129243716D01*
X125464183Y-129243718D01*
X125596318Y-129320006D01*
X125596319Y-129320006D01*
X125596322Y-129320008D01*
X125743707Y-129359500D01*
X125743708Y-129359500D01*
X125896292Y-129359500D01*
X125896293Y-129359500D01*
X126043678Y-129320008D01*
X126043680Y-129320006D01*
X126043682Y-129320006D01*
X126175816Y-129243718D01*
X126175816Y-129243717D01*
X126175821Y-129243715D01*
X126283715Y-129135821D01*
X126360008Y-129003678D01*
X126360010Y-129003669D01*
X126360457Y-129002592D01*
X126361009Y-129001945D01*
X126363253Y-128998059D01*
X126363972Y-128998474D01*
X126400188Y-128956061D01*
X126459681Y-128941770D01*
X126467412Y-128942685D01*
X126485186Y-128945500D01*
X126485190Y-128945500D01*
X126975993Y-128945500D01*
X126976000Y-128945500D01*
X127008144Y-128942970D01*
X127038737Y-128938125D01*
X127038748Y-128938123D01*
X127038793Y-128938116D01*
X127043281Y-128937353D01*
X127043280Y-128937353D01*
X127043287Y-128937352D01*
X127127383Y-128901408D01*
X127176883Y-128865444D01*
X127204628Y-128841203D01*
X127251536Y-128762693D01*
X127270443Y-128704502D01*
X127280500Y-128641000D01*
X127280500Y-123189000D01*
X127277970Y-123156856D01*
X127273125Y-123126263D01*
X127273116Y-123126206D01*
X127272353Y-123121718D01*
X127272352Y-123121713D01*
X127236408Y-123037617D01*
X127223998Y-123020536D01*
X127200444Y-122988117D01*
X127176203Y-122960372D01*
X127097693Y-122913464D01*
X127097689Y-122913462D01*
X127097683Y-122913460D01*
X127078907Y-122907359D01*
X127029407Y-122871395D01*
X127010500Y-122813205D01*
X127010500Y-121212557D01*
X127029407Y-121154366D01*
X127039490Y-121142559D01*
X129051017Y-119131033D01*
X129098478Y-119048829D01*
X129123045Y-118957142D01*
X129123045Y-118862220D01*
X129123045Y-117702539D01*
X129123045Y-114702339D01*
X129123044Y-114702336D01*
X129122430Y-114697674D01*
X129133575Y-114637512D01*
X129177955Y-114595391D01*
X129238616Y-114587400D01*
X129292389Y-114616591D01*
G37*
%TD.AperFunction*%
%TA.AperFunction,Conductor*%
G36*
X87537471Y-99691114D02*
G01*
X87595634Y-99710101D01*
X87631530Y-99759650D01*
X87631447Y-99820835D01*
X87607338Y-99860117D01*
X87553047Y-99914408D01*
X87553043Y-99914413D01*
X87493738Y-100017131D01*
X87493737Y-100017136D01*
X87463036Y-100131713D01*
X87463036Y-100250331D01*
X87488103Y-100343880D01*
X87484901Y-100404981D01*
X87446395Y-100452531D01*
X87430362Y-100460967D01*
X87334836Y-100500535D01*
X87212033Y-100582589D01*
X87107589Y-100687033D01*
X87025535Y-100809836D01*
X86969013Y-100946292D01*
X86940200Y-101091148D01*
X86940200Y-101238851D01*
X86969013Y-101383707D01*
X87025535Y-101520163D01*
X87101132Y-101633302D01*
X87107592Y-101642970D01*
X87212030Y-101747408D01*
X87334836Y-101829464D01*
X87471291Y-101885986D01*
X87616151Y-101914800D01*
X87616152Y-101914800D01*
X87763848Y-101914800D01*
X87763849Y-101914800D01*
X87908709Y-101885986D01*
X88045164Y-101829464D01*
X88167970Y-101747408D01*
X88196798Y-101718579D01*
X88251313Y-101690804D01*
X88311745Y-101700375D01*
X88355010Y-101743640D01*
X88365800Y-101788585D01*
X88365800Y-101878228D01*
X88401510Y-102011500D01*
X88406295Y-102029357D01*
X88484518Y-102164842D01*
X88484520Y-102164844D01*
X88484522Y-102164847D01*
X88595153Y-102275478D01*
X88609998Y-102284049D01*
X88650939Y-102329515D01*
X88659500Y-102369785D01*
X88659500Y-102399564D01*
X88678309Y-102469758D01*
X88679979Y-102475989D01*
X88714721Y-102536164D01*
X88719540Y-102544511D01*
X88772422Y-102597393D01*
X88774232Y-102599413D01*
X88785560Y-102625024D01*
X88798281Y-102649991D01*
X88798644Y-102654605D01*
X88798982Y-102655369D01*
X88798778Y-102656314D01*
X88799500Y-102665478D01*
X88799500Y-102709309D01*
X88816236Y-102771769D01*
X88830202Y-102823890D01*
X88889507Y-102926608D01*
X88889509Y-102926610D01*
X88889511Y-102926613D01*
X88973387Y-103010489D01*
X88973389Y-103010490D01*
X88980791Y-103014764D01*
X89021731Y-103060234D01*
X89028126Y-103121084D01*
X88997533Y-103174072D01*
X88941637Y-103198958D01*
X88931290Y-103199500D01*
X84039564Y-103199500D01*
X83960440Y-103199500D01*
X83913663Y-103212033D01*
X83884009Y-103219979D01*
X83815495Y-103259536D01*
X83815490Y-103259540D01*
X83072494Y-104002534D01*
X83017978Y-104030311D01*
X82968633Y-104025560D01*
X82945053Y-104016978D01*
X82945052Y-104016978D01*
X82826737Y-104016978D01*
X82715556Y-104057444D01*
X82715551Y-104057446D01*
X82676468Y-104087436D01*
X82429934Y-104333970D01*
X82399944Y-104373053D01*
X82359476Y-104484239D01*
X82359476Y-104602553D01*
X82364502Y-104616362D01*
X82366637Y-104677510D01*
X82332422Y-104728235D01*
X82274927Y-104749162D01*
X82237615Y-104743253D01*
X82223802Y-104738226D01*
X82105487Y-104738226D01*
X82013319Y-104771772D01*
X81994301Y-104778694D01*
X81955218Y-104808684D01*
X81708684Y-105055218D01*
X81678694Y-105094301D01*
X81678692Y-105094305D01*
X81678692Y-105094306D01*
X81649926Y-105173341D01*
X81638226Y-105205487D01*
X81638226Y-105323803D01*
X81642567Y-105335731D01*
X81644701Y-105396879D01*
X81610486Y-105447603D01*
X81552990Y-105468529D01*
X81549537Y-105468589D01*
X81547533Y-105468589D01*
X81431391Y-105468589D01*
X81365211Y-105491309D01*
X81321538Y-105506302D01*
X81266748Y-105547157D01*
X81011433Y-105802472D01*
X80970578Y-105857262D01*
X80962204Y-105881656D01*
X80932865Y-105967115D01*
X80932865Y-106083257D01*
X80970577Y-106193107D01*
X81011438Y-106247905D01*
X81302099Y-106538566D01*
X81356897Y-106579427D01*
X81466747Y-106617139D01*
X81466749Y-106617139D01*
X81582885Y-106617139D01*
X81582889Y-106617139D01*
X81582892Y-106617137D01*
X81589504Y-106616034D01*
X81650013Y-106625102D01*
X81693637Y-106668004D01*
X81703712Y-106728355D01*
X81699442Y-106745825D01*
X81696976Y-106753009D01*
X81696976Y-106869151D01*
X81734688Y-106979001D01*
X81734689Y-106979003D01*
X81734690Y-106979004D01*
X81761051Y-107014356D01*
X81775549Y-107033799D01*
X82066210Y-107324460D01*
X82121008Y-107365321D01*
X82230858Y-107403033D01*
X82230860Y-107403033D01*
X82346998Y-107403033D01*
X82347000Y-107403033D01*
X82456849Y-107365321D01*
X82461762Y-107361658D01*
X82487175Y-107342708D01*
X82511648Y-107324460D01*
X82766953Y-107069155D01*
X82807814Y-107014356D01*
X82845526Y-106904507D01*
X82845526Y-106800152D01*
X82864433Y-106741961D01*
X82913933Y-106705997D01*
X82944526Y-106701152D01*
X83055139Y-106701152D01*
X83055140Y-106701152D01*
X83166321Y-106660686D01*
X83205416Y-106630687D01*
X83451936Y-106384167D01*
X83481935Y-106345072D01*
X83522401Y-106233891D01*
X83522401Y-106115576D01*
X83517374Y-106101766D01*
X83515238Y-106040621D01*
X83549452Y-105989895D01*
X83606947Y-105968967D01*
X83644263Y-105974877D01*
X83658075Y-105979904D01*
X83776389Y-105979904D01*
X83776390Y-105979904D01*
X83887571Y-105939438D01*
X83926666Y-105909439D01*
X84173186Y-105662919D01*
X84203185Y-105623824D01*
X84243651Y-105512643D01*
X84243651Y-105449500D01*
X84262558Y-105391309D01*
X84312058Y-105355345D01*
X84342651Y-105350500D01*
X95973097Y-105350500D01*
X95989812Y-105355931D01*
X96007374Y-105356623D01*
X96018188Y-105365150D01*
X96031288Y-105369407D01*
X96055419Y-105394509D01*
X96055753Y-105395009D01*
X96072354Y-105453899D01*
X96055753Y-105504991D01*
X96055419Y-105505491D01*
X96052449Y-105507832D01*
X96051170Y-105511300D01*
X96030778Y-105524921D01*
X96007374Y-105543377D01*
X96001607Y-105544407D01*
X96000292Y-105545286D01*
X95997338Y-105545169D01*
X95973097Y-105549500D01*
X89624541Y-105549500D01*
X89548117Y-105569978D01*
X89548113Y-105569980D01*
X89479597Y-105609538D01*
X83315490Y-111773645D01*
X83315489Y-111773644D01*
X83259540Y-111829594D01*
X83219981Y-111898112D01*
X83219979Y-111898116D01*
X83199501Y-111974540D01*
X83199501Y-113125604D01*
X83180594Y-113183795D01*
X83162120Y-113203090D01*
X83152951Y-113210381D01*
X83119597Y-113225935D01*
X83066024Y-113279507D01*
X83061620Y-113283010D01*
X83037980Y-113291844D01*
X83015488Y-113303305D01*
X83009748Y-113302395D01*
X83004306Y-113304430D01*
X82979986Y-113297682D01*
X82955056Y-113293734D01*
X82948445Y-113288931D01*
X82945349Y-113288072D01*
X82942730Y-113284779D01*
X82930000Y-113275530D01*
X82880405Y-113225935D01*
X82880403Y-113225934D01*
X82880402Y-113225933D01*
X82773176Y-113175932D01*
X82740602Y-113171644D01*
X82724317Y-113169500D01*
X82275685Y-113169500D01*
X82259399Y-113171644D01*
X82226826Y-113175932D01*
X82226825Y-113175932D01*
X82119599Y-113225933D01*
X82035934Y-113309598D01*
X81985933Y-113416824D01*
X81985933Y-113416825D01*
X81985933Y-113416827D01*
X81979501Y-113465684D01*
X81979501Y-113814316D01*
X81983789Y-113846887D01*
X81985933Y-113863174D01*
X81985933Y-113863175D01*
X82035934Y-113970401D01*
X82035935Y-113970402D01*
X82035936Y-113970404D01*
X82119597Y-114054065D01*
X82119598Y-114054065D01*
X82119599Y-114054066D01*
X82226825Y-114104067D01*
X82226826Y-114104067D01*
X82226828Y-114104068D01*
X82275685Y-114110500D01*
X82275686Y-114110500D01*
X82724315Y-114110500D01*
X82724317Y-114110500D01*
X82773174Y-114104068D01*
X82880405Y-114054065D01*
X82929999Y-114004470D01*
X82939933Y-113999409D01*
X82947052Y-113990825D01*
X82966567Y-113985838D01*
X82984514Y-113976695D01*
X82995528Y-113978439D01*
X83006333Y-113975679D01*
X83021551Y-113982560D01*
X83044946Y-113986266D01*
X83063195Y-113998269D01*
X83066744Y-114001212D01*
X83119597Y-114054065D01*
X83144462Y-114065660D01*
X83154269Y-114073792D01*
X83164150Y-114089402D01*
X83177662Y-114102002D01*
X83180115Y-114114624D01*
X83186994Y-114125491D01*
X83185812Y-114143929D01*
X83189337Y-114162063D01*
X83183902Y-114173717D01*
X83183080Y-114186551D01*
X83171287Y-114200771D01*
X83163480Y-114217516D01*
X83148191Y-114228623D01*
X83144024Y-114233650D01*
X83139782Y-114234733D01*
X83132917Y-114239722D01*
X83119597Y-114245933D01*
X83035932Y-114329598D01*
X82985931Y-114436824D01*
X82985931Y-114436825D01*
X82983635Y-114454266D01*
X82979499Y-114485684D01*
X82979499Y-114834316D01*
X82981630Y-114850500D01*
X82985931Y-114883174D01*
X82985931Y-114883175D01*
X83035932Y-114990401D01*
X83035933Y-114990402D01*
X83035934Y-114990404D01*
X83082241Y-115036711D01*
X83110017Y-115091226D01*
X83100446Y-115151658D01*
X83057181Y-115194923D01*
X83012236Y-115205713D01*
X80662045Y-115205713D01*
X80661895Y-115205673D01*
X80612290Y-115205713D01*
X80561738Y-115205713D01*
X80561460Y-115205749D01*
X80513344Y-115218683D01*
X80513271Y-115218703D01*
X80464718Y-115231713D01*
X80464442Y-115231827D01*
X80421155Y-115256865D01*
X80421088Y-115256904D01*
X80377728Y-115281938D01*
X80377492Y-115282118D01*
X80342083Y-115317582D01*
X80342084Y-115317583D01*
X80341999Y-115317667D01*
X80341999Y-115317669D01*
X80341674Y-115317993D01*
X80341264Y-115318403D01*
X80306702Y-115352966D01*
X80306624Y-115353100D01*
X80306513Y-115353212D01*
X80306474Y-115353278D01*
X80306473Y-115353280D01*
X80284334Y-115391697D01*
X80281361Y-115396856D01*
X80256477Y-115439959D01*
X80256436Y-115440109D01*
X80256358Y-115440246D01*
X80256330Y-115440347D01*
X80256329Y-115440351D01*
X80243483Y-115488450D01*
X80243463Y-115488524D01*
X80230477Y-115536988D01*
X80230473Y-115537026D01*
X80230472Y-115537027D01*
X80230438Y-115537286D01*
X80230478Y-115586895D01*
X80230478Y-115643388D01*
X80230523Y-115644085D01*
X80244901Y-133471739D01*
X80226041Y-133529945D01*
X80176570Y-133565949D01*
X80145904Y-133570819D01*
X73262981Y-133571009D01*
X73204789Y-133552103D01*
X73168824Y-133502604D01*
X73167764Y-133499122D01*
X72969620Y-132801371D01*
X72968709Y-132797923D01*
X72941784Y-132687968D01*
X72711933Y-131749305D01*
X72711161Y-131745878D01*
X72492873Y-130688597D01*
X72492214Y-130685085D01*
X72312701Y-129620526D01*
X72312168Y-129616965D01*
X72297647Y-129506334D01*
X72171674Y-128546585D01*
X72171278Y-128543065D01*
X72069985Y-127468241D01*
X72069716Y-127464708D01*
X72007759Y-126386848D01*
X72007621Y-126383331D01*
X71985088Y-125304017D01*
X71985079Y-125300405D01*
X72001997Y-124220948D01*
X72002117Y-124217414D01*
X72058466Y-123139270D01*
X72058714Y-123135758D01*
X72154414Y-122060425D01*
X72154798Y-122056854D01*
X72289726Y-120985722D01*
X72290230Y-120982238D01*
X72464202Y-119916769D01*
X72464848Y-119913222D01*
X72466647Y-119904274D01*
X72677636Y-118854801D01*
X72678387Y-118851391D01*
X72929709Y-117801432D01*
X72930594Y-117798010D01*
X73220116Y-116757918D01*
X73221119Y-116754557D01*
X73548443Y-115725760D01*
X73549566Y-115722440D01*
X73807320Y-115004255D01*
X73844773Y-114955872D01*
X73903512Y-114938744D01*
X73961101Y-114959412D01*
X73995543Y-115009983D01*
X73999501Y-115037698D01*
X73999501Y-115059309D01*
X74018551Y-115130404D01*
X74030203Y-115173890D01*
X74089508Y-115276608D01*
X74089510Y-115276610D01*
X74089512Y-115276613D01*
X74173388Y-115360489D01*
X74173390Y-115360490D01*
X74173392Y-115360492D01*
X74276111Y-115419797D01*
X74276112Y-115419797D01*
X74276115Y-115419799D01*
X74390692Y-115450500D01*
X74390694Y-115450500D01*
X74509308Y-115450500D01*
X74509310Y-115450500D01*
X74623887Y-115419799D01*
X74686668Y-115383551D01*
X74746517Y-115370830D01*
X74802412Y-115395716D01*
X74833005Y-115448704D01*
X74826610Y-115509554D01*
X74825899Y-115511114D01*
X74796629Y-115573886D01*
X74785931Y-115596827D01*
X74779499Y-115645685D01*
X74779499Y-115874521D01*
X74760592Y-115932712D01*
X74750503Y-115944524D01*
X74709540Y-115985487D01*
X74669981Y-116054005D01*
X74669979Y-116054009D01*
X74649501Y-116130433D01*
X74649501Y-116720143D01*
X74630594Y-116778334D01*
X74583199Y-116813587D01*
X74487118Y-116847208D01*
X74487117Y-116847208D01*
X74377856Y-116927846D01*
X74377846Y-116927856D01*
X74297208Y-117037117D01*
X74252356Y-117165297D01*
X74252354Y-117165306D01*
X74249501Y-117195726D01*
X74249501Y-119904275D01*
X74252354Y-119934695D01*
X74252356Y-119934704D01*
X74297208Y-120062884D01*
X74377846Y-120172145D01*
X74377848Y-120172147D01*
X74377851Y-120172151D01*
X74377854Y-120172153D01*
X74377856Y-120172155D01*
X74487115Y-120252792D01*
X74487117Y-120252792D01*
X74487119Y-120252794D01*
X74583197Y-120286413D01*
X74631877Y-120323478D01*
X74649499Y-120379857D01*
X74649499Y-125620142D01*
X74630592Y-125678333D01*
X74583197Y-125713586D01*
X74487116Y-125747207D01*
X74487115Y-125747207D01*
X74377854Y-125827845D01*
X74377844Y-125827855D01*
X74297206Y-125937116D01*
X74252354Y-126065296D01*
X74252352Y-126065305D01*
X74249499Y-126095725D01*
X74249499Y-128804274D01*
X74252352Y-128834694D01*
X74252354Y-128834703D01*
X74297206Y-128962883D01*
X74377844Y-129072144D01*
X74377846Y-129072146D01*
X74377849Y-129072150D01*
X74377852Y-129072152D01*
X74377854Y-129072154D01*
X74487115Y-129152792D01*
X74487116Y-129152792D01*
X74487117Y-129152793D01*
X74615300Y-129197646D01*
X74645724Y-129200499D01*
X74645726Y-129200500D01*
X74645733Y-129200500D01*
X75254272Y-129200500D01*
X75254272Y-129200499D01*
X75284698Y-129197646D01*
X75412881Y-129152793D01*
X75522149Y-129072150D01*
X75602792Y-128962882D01*
X75647645Y-128834699D01*
X75650498Y-128804273D01*
X75650499Y-128804273D01*
X75650499Y-126095727D01*
X75650498Y-126095725D01*
X75647645Y-126065305D01*
X75647645Y-126065301D01*
X75602792Y-125937118D01*
X75547627Y-125862372D01*
X75522153Y-125827855D01*
X75522151Y-125827853D01*
X75522149Y-125827850D01*
X75522145Y-125827847D01*
X75522143Y-125827845D01*
X75412882Y-125747207D01*
X75316801Y-125713586D01*
X75268120Y-125676520D01*
X75250499Y-125620142D01*
X75250499Y-120379858D01*
X75269406Y-120321667D01*
X75316799Y-120286415D01*
X75412883Y-120252794D01*
X75522151Y-120172151D01*
X75602794Y-120062883D01*
X75647647Y-119934700D01*
X75650500Y-119904274D01*
X75650501Y-119904274D01*
X75650501Y-117195728D01*
X75650500Y-117195726D01*
X75647647Y-117165306D01*
X75647647Y-117165302D01*
X75602794Y-117037119D01*
X75583142Y-117010492D01*
X75522155Y-116927856D01*
X75522153Y-116927854D01*
X75522151Y-116927851D01*
X75522147Y-116927848D01*
X75522145Y-116927846D01*
X75412884Y-116847208D01*
X75316803Y-116813587D01*
X75268122Y-116776521D01*
X75250501Y-116720143D01*
X75250501Y-116389500D01*
X75269408Y-116331309D01*
X75318908Y-116295345D01*
X75349501Y-116290500D01*
X75524313Y-116290500D01*
X75524315Y-116290500D01*
X75573172Y-116284068D01*
X75680403Y-116234065D01*
X75764064Y-116150404D01*
X75764064Y-116150402D01*
X75764971Y-116149496D01*
X75819488Y-116121719D01*
X75834975Y-116120500D01*
X75919564Y-116120500D01*
X75919564Y-116120499D01*
X75995990Y-116100021D01*
X76064512Y-116060460D01*
X76120461Y-116004511D01*
X76245476Y-115879496D01*
X76299993Y-115851719D01*
X76315480Y-115850500D01*
X76359308Y-115850500D01*
X76359310Y-115850500D01*
X76473887Y-115819799D01*
X76473889Y-115819797D01*
X76473891Y-115819797D01*
X76576609Y-115760492D01*
X76576609Y-115760491D01*
X76576614Y-115760489D01*
X76660490Y-115676613D01*
X76660493Y-115676608D01*
X76719798Y-115573890D01*
X76719798Y-115573888D01*
X76719800Y-115573886D01*
X76750501Y-115459309D01*
X76750501Y-115340691D01*
X76719800Y-115226114D01*
X76719798Y-115226111D01*
X76719798Y-115226109D01*
X76660493Y-115123391D01*
X76660491Y-115123389D01*
X76660490Y-115123387D01*
X76576614Y-115039511D01*
X76576611Y-115039509D01*
X76576609Y-115039507D01*
X76473890Y-114980202D01*
X76473891Y-114980202D01*
X76451909Y-114974312D01*
X76359310Y-114949500D01*
X76240692Y-114949500D01*
X76176714Y-114966643D01*
X76126110Y-114980202D01*
X76023392Y-115039507D01*
X76023386Y-115039512D01*
X75986079Y-115076819D01*
X75931562Y-115104596D01*
X75871130Y-115095024D01*
X75827866Y-115051759D01*
X75817923Y-114993893D01*
X75820501Y-114974316D01*
X75820501Y-114625684D01*
X75814069Y-114576827D01*
X75812466Y-114573390D01*
X75764067Y-114469598D01*
X75764066Y-114469597D01*
X75764066Y-114469596D01*
X75680405Y-114385935D01*
X75680403Y-114385934D01*
X75680402Y-114385933D01*
X75573176Y-114335932D01*
X75532619Y-114330593D01*
X75524317Y-114329500D01*
X75075685Y-114329500D01*
X75067383Y-114330593D01*
X75026826Y-114335932D01*
X75026825Y-114335932D01*
X74919599Y-114385933D01*
X74919597Y-114385934D01*
X74919597Y-114385935D01*
X74835936Y-114469596D01*
X74835935Y-114469597D01*
X74835029Y-114470504D01*
X74780512Y-114498281D01*
X74765025Y-114499500D01*
X74689563Y-114499500D01*
X74610439Y-114499500D01*
X74534013Y-114519978D01*
X74534012Y-114519978D01*
X74534010Y-114519979D01*
X74505854Y-114536236D01*
X74456353Y-114549500D01*
X74390692Y-114549500D01*
X74349670Y-114560492D01*
X74276110Y-114580202D01*
X74173392Y-114639507D01*
X74173386Y-114639511D01*
X74127111Y-114685787D01*
X74072594Y-114713564D01*
X74012162Y-114703992D01*
X73968898Y-114660727D01*
X73959327Y-114600295D01*
X73965210Y-114578965D01*
X74317090Y-113700841D01*
X74318473Y-113697562D01*
X74756404Y-112710743D01*
X74757900Y-112707533D01*
X75231578Y-111737409D01*
X75233217Y-111734205D01*
X75238634Y-111724068D01*
X75742003Y-110782077D01*
X75743733Y-110778976D01*
X76286989Y-109846033D01*
X76288824Y-109843010D01*
X76865822Y-108930511D01*
X76867765Y-108927559D01*
X77477701Y-108036778D01*
X77479789Y-108033846D01*
X77482457Y-108030240D01*
X78121857Y-107165954D01*
X78124006Y-107163157D01*
X78797360Y-106319298D01*
X78799628Y-106316560D01*
X79503399Y-105497827D01*
X79505716Y-105495229D01*
X80238936Y-104702752D01*
X80241378Y-104700208D01*
X81003035Y-103935078D01*
X81005589Y-103932604D01*
X81794681Y-103195827D01*
X81797332Y-103193441D01*
X82612820Y-102485982D01*
X82615518Y-102483727D01*
X83456332Y-101806520D01*
X83459134Y-101804346D01*
X84324112Y-101158323D01*
X84326983Y-101156260D01*
X85214999Y-100542266D01*
X85217944Y-100540308D01*
X86127794Y-99959174D01*
X86130833Y-99957310D01*
X86562137Y-99703525D01*
X86612470Y-99689852D01*
X87537471Y-99691114D01*
G37*
%TD.AperFunction*%
%TA.AperFunction,Conductor*%
G36*
X126937311Y-117389533D02*
G01*
X126949124Y-117399622D01*
X127484013Y-117934511D01*
X127484012Y-117934511D01*
X127539962Y-117990460D01*
X127608480Y-118030019D01*
X127608484Y-118030021D01*
X127684908Y-118050499D01*
X127684910Y-118050500D01*
X127684911Y-118050500D01*
X127764035Y-118050500D01*
X128303045Y-118050500D01*
X128361236Y-118069407D01*
X128397200Y-118118907D01*
X128402045Y-118149500D01*
X128402045Y-118719349D01*
X128383138Y-118777540D01*
X128373049Y-118789353D01*
X126428648Y-120733754D01*
X126428647Y-120733753D01*
X126361528Y-120800873D01*
X126361524Y-120800878D01*
X126314068Y-120883073D01*
X126289500Y-120974766D01*
X126289500Y-122430444D01*
X126270593Y-122488635D01*
X126221093Y-122524599D01*
X126159907Y-122524599D01*
X126141000Y-122516181D01*
X126043679Y-122459992D01*
X125933404Y-122430444D01*
X125896293Y-122420500D01*
X125743707Y-122420500D01*
X125706596Y-122430444D01*
X125596317Y-122459993D01*
X125464183Y-122536281D01*
X125356281Y-122644183D01*
X125279993Y-122776317D01*
X125279992Y-122776322D01*
X125263297Y-122838625D01*
X125229975Y-122889937D01*
X125172853Y-122911864D01*
X125167672Y-122912000D01*
X124321680Y-122912000D01*
X124291306Y-122907225D01*
X124260704Y-122897360D01*
X124260690Y-122897356D01*
X124220714Y-122888925D01*
X124220706Y-122888923D01*
X124178302Y-122884500D01*
X124178297Y-122884500D01*
X124074000Y-122884500D01*
X124041856Y-122887030D01*
X124011206Y-122891883D01*
X124006718Y-122892646D01*
X124006713Y-122892647D01*
X123922616Y-122928591D01*
X123922614Y-122928593D01*
X123872691Y-122964865D01*
X123814501Y-122983773D01*
X123756310Y-122964866D01*
X123720346Y-122915366D01*
X123715500Y-122884773D01*
X123715500Y-120450479D01*
X123734407Y-120392288D01*
X123744496Y-120380475D01*
X125272349Y-118852622D01*
X125326866Y-118824845D01*
X125342353Y-118823626D01*
X125483257Y-118823626D01*
X125483260Y-118823626D01*
X125551393Y-118813699D01*
X125656483Y-118762324D01*
X125739198Y-118679609D01*
X125790573Y-118574519D01*
X125800500Y-118506386D01*
X125800500Y-117469626D01*
X125819407Y-117411435D01*
X125868907Y-117375471D01*
X125899500Y-117370626D01*
X126879120Y-117370626D01*
X126937311Y-117389533D01*
G37*
%TD.AperFunction*%
%TA.AperFunction,Conductor*%
G36*
X124472373Y-116895468D02*
G01*
X124796946Y-117220041D01*
X124824723Y-117274558D01*
X124815885Y-117333521D01*
X124809429Y-117346728D01*
X124809427Y-117346733D01*
X124799500Y-117414866D01*
X124799500Y-117414869D01*
X124799500Y-118434521D01*
X124780593Y-118492712D01*
X124770504Y-118504525D01*
X123556504Y-119718525D01*
X123501987Y-119746302D01*
X123441555Y-119736731D01*
X123398290Y-119693466D01*
X123387500Y-119648521D01*
X123387500Y-118922624D01*
X123406407Y-118864433D01*
X123455907Y-118828469D01*
X123486500Y-118823624D01*
X123583259Y-118823624D01*
X123583262Y-118823624D01*
X123651395Y-118813697D01*
X123756485Y-118762322D01*
X123839200Y-118679607D01*
X123890575Y-118574517D01*
X123900502Y-118506384D01*
X123900502Y-117414864D01*
X123890575Y-117346731D01*
X123884117Y-117333521D01*
X123839855Y-117242980D01*
X123831284Y-117182398D01*
X123859960Y-117128348D01*
X123914928Y-117101476D01*
X123928796Y-117100500D01*
X124009307Y-117100500D01*
X124009309Y-117100500D01*
X124123886Y-117069799D01*
X124123888Y-117069797D01*
X124123890Y-117069797D01*
X124226608Y-117010492D01*
X124226608Y-117010491D01*
X124226613Y-117010489D01*
X124310489Y-116926613D01*
X124316632Y-116915972D01*
X124362101Y-116875032D01*
X124422951Y-116868635D01*
X124472373Y-116895468D01*
G37*
%TD.AperFunction*%
%TA.AperFunction,Conductor*%
G36*
X126372712Y-115049407D02*
G01*
X126384524Y-115059496D01*
X126415529Y-115090500D01*
X126445107Y-115120078D01*
X126463326Y-115132251D01*
X126464416Y-115133023D01*
X126481933Y-115156527D01*
X126500082Y-115179549D01*
X126500394Y-115181299D01*
X126500978Y-115182082D01*
X126501010Y-115184747D01*
X126506202Y-115213816D01*
X126506202Y-115429295D01*
X126526679Y-115505716D01*
X126526681Y-115505721D01*
X126544905Y-115537286D01*
X126551329Y-115548412D01*
X126566242Y-115574242D01*
X127165887Y-116173887D01*
X127165886Y-116173887D01*
X127221836Y-116229836D01*
X127290354Y-116269395D01*
X127290358Y-116269397D01*
X127366782Y-116289875D01*
X127366784Y-116289876D01*
X127366785Y-116289876D01*
X127704730Y-116289876D01*
X127762921Y-116308783D01*
X127774733Y-116318872D01*
X127936550Y-116480688D01*
X127975637Y-116510681D01*
X127975639Y-116510681D01*
X127975642Y-116510684D01*
X128086823Y-116551150D01*
X128086824Y-116551150D01*
X128205138Y-116551150D01*
X128269185Y-116527838D01*
X128330333Y-116525703D01*
X128381058Y-116559917D01*
X128401985Y-116617412D01*
X128402045Y-116620868D01*
X128402045Y-117350500D01*
X128383138Y-117408691D01*
X128333638Y-117444655D01*
X128303045Y-117449500D01*
X127889952Y-117449500D01*
X127831761Y-117430593D01*
X127819948Y-117420504D01*
X127527792Y-117128348D01*
X127229110Y-116829666D01*
X127219099Y-116823886D01*
X127160588Y-116790105D01*
X127160586Y-116790104D01*
X127160584Y-116790103D01*
X127084163Y-116769626D01*
X127084161Y-116769626D01*
X125237481Y-116769626D01*
X125229883Y-116767157D01*
X125221994Y-116768407D01*
X125201338Y-116757882D01*
X125179290Y-116750719D01*
X125167477Y-116740630D01*
X125144479Y-116717632D01*
X125116702Y-116663115D01*
X125126273Y-116602683D01*
X125169538Y-116559418D01*
X125214483Y-116548628D01*
X125483257Y-116548628D01*
X125483260Y-116548628D01*
X125551393Y-116538701D01*
X125656483Y-116487326D01*
X125739198Y-116404611D01*
X125790573Y-116299521D01*
X125800500Y-116231388D01*
X125800500Y-115139868D01*
X125800499Y-115139864D01*
X125800267Y-115136659D01*
X125814917Y-115077253D01*
X125861687Y-115037804D01*
X125899008Y-115030500D01*
X126314521Y-115030500D01*
X126372712Y-115049407D01*
G37*
%TD.AperFunction*%
%TA.AperFunction,Conductor*%
G36*
X89006104Y-107029714D02*
G01*
X89049369Y-107072979D01*
X89058940Y-107133411D01*
X89050884Y-107159761D01*
X89035934Y-107191822D01*
X89035933Y-107191824D01*
X89033897Y-107207288D01*
X89029501Y-107240683D01*
X89029501Y-107589315D01*
X89033112Y-107616743D01*
X89035933Y-107638173D01*
X89035933Y-107638174D01*
X89085934Y-107745400D01*
X89085935Y-107745401D01*
X89085936Y-107745403D01*
X89169597Y-107829064D01*
X89182913Y-107835273D01*
X89227662Y-107877001D01*
X89239337Y-107937062D01*
X89213480Y-107992515D01*
X89182917Y-108014721D01*
X89169597Y-108020932D01*
X89085932Y-108104597D01*
X89035931Y-108211823D01*
X89035931Y-108211824D01*
X89029499Y-108260684D01*
X89029499Y-108490870D01*
X89012085Y-108544464D01*
X89012784Y-108544868D01*
X89010886Y-108548154D01*
X89010592Y-108549061D01*
X89009582Y-108550413D01*
X88969980Y-108619005D01*
X88969978Y-108619009D01*
X88949500Y-108695433D01*
X88949500Y-109321634D01*
X88930593Y-109379825D01*
X88899889Y-109405611D01*
X88900192Y-109406035D01*
X88894817Y-109409872D01*
X88893982Y-109410573D01*
X88893794Y-109410665D01*
X88893516Y-109410801D01*
X88820003Y-109484314D01*
X88807779Y-109490541D01*
X88798478Y-109500629D01*
X88781190Y-109504089D01*
X88765486Y-109512091D01*
X88751936Y-109509944D01*
X88738482Y-109512638D01*
X88723678Y-109505469D01*
X88705054Y-109502519D01*
X88682886Y-109487089D01*
X88681421Y-109485738D01*
X88606484Y-109410801D01*
X88593020Y-109404219D01*
X88582387Y-109394413D01*
X88574143Y-109379734D01*
X88562046Y-109368030D01*
X88557650Y-109350366D01*
X88552427Y-109341065D01*
X88553358Y-109333115D01*
X88550501Y-109321634D01*
X88550501Y-109227608D01*
X88569408Y-109169417D01*
X88579491Y-109157610D01*
X88660489Y-109076613D01*
X88663763Y-109070942D01*
X88719797Y-108973890D01*
X88719797Y-108973888D01*
X88719799Y-108973886D01*
X88750500Y-108859309D01*
X88750500Y-108740691D01*
X88719799Y-108626114D01*
X88719797Y-108626111D01*
X88719797Y-108626109D01*
X88660492Y-108523391D01*
X88660490Y-108523389D01*
X88660489Y-108523387D01*
X88576613Y-108439511D01*
X88576610Y-108439509D01*
X88576608Y-108439507D01*
X88473889Y-108380202D01*
X88473890Y-108380202D01*
X88460351Y-108376574D01*
X88359309Y-108349500D01*
X88240691Y-108349500D01*
X88170567Y-108368289D01*
X88126109Y-108380202D01*
X88023391Y-108439507D01*
X87939507Y-108523391D01*
X87880202Y-108626109D01*
X87864983Y-108682909D01*
X87849500Y-108740691D01*
X87849500Y-108859309D01*
X87880201Y-108973886D01*
X87880202Y-108973888D01*
X87891941Y-108994220D01*
X87919116Y-109041289D01*
X87936237Y-109070942D01*
X87949501Y-109120443D01*
X87949501Y-109321634D01*
X87930594Y-109379825D01*
X87899890Y-109405611D01*
X87900193Y-109406035D01*
X87894818Y-109409872D01*
X87893983Y-109410573D01*
X87893801Y-109410662D01*
X87893519Y-109410800D01*
X87810802Y-109493517D01*
X87759428Y-109598603D01*
X87756369Y-109619599D01*
X87749501Y-109666739D01*
X87749501Y-110983259D01*
X87750412Y-110989511D01*
X87759428Y-111051394D01*
X87799662Y-111133693D01*
X87810803Y-111156482D01*
X87893518Y-111239197D01*
X87947286Y-111265482D01*
X87998605Y-111290571D01*
X87998606Y-111290571D01*
X87998608Y-111290572D01*
X88066741Y-111300499D01*
X88066744Y-111300499D01*
X88433258Y-111300499D01*
X88433261Y-111300499D01*
X88501394Y-111290572D01*
X88606484Y-111239197D01*
X88679998Y-111165682D01*
X88734512Y-111137906D01*
X88794945Y-111147477D01*
X88820000Y-111165680D01*
X88893517Y-111239197D01*
X88947285Y-111265482D01*
X88998604Y-111290571D01*
X88998605Y-111290571D01*
X88998607Y-111290572D01*
X89066740Y-111300499D01*
X89066743Y-111300499D01*
X89433257Y-111300499D01*
X89433260Y-111300499D01*
X89501393Y-111290572D01*
X89606483Y-111239197D01*
X89679998Y-111165681D01*
X89734513Y-111137906D01*
X89794945Y-111147477D01*
X89820000Y-111165680D01*
X89893518Y-111239198D01*
X89947286Y-111265483D01*
X89998605Y-111290572D01*
X89998606Y-111290572D01*
X89998608Y-111290573D01*
X90066741Y-111300500D01*
X90066744Y-111300500D01*
X90433258Y-111300500D01*
X90433261Y-111300500D01*
X90501394Y-111290573D01*
X90606484Y-111239198D01*
X90679999Y-111165682D01*
X90734514Y-111137907D01*
X90794946Y-111147478D01*
X90820001Y-111165681D01*
X90893517Y-111239197D01*
X90947285Y-111265482D01*
X90998604Y-111290571D01*
X90998605Y-111290571D01*
X90998607Y-111290572D01*
X91066740Y-111300499D01*
X91066743Y-111300499D01*
X91433257Y-111300499D01*
X91433260Y-111300499D01*
X91501393Y-111290572D01*
X91606483Y-111239197D01*
X91689198Y-111156482D01*
X91740573Y-111051392D01*
X91750500Y-110983259D01*
X91750500Y-110290478D01*
X91769407Y-110232287D01*
X91779496Y-110220474D01*
X92055474Y-109944496D01*
X92109991Y-109916719D01*
X92125478Y-109915500D01*
X94286385Y-109915500D01*
X94344576Y-109934407D01*
X94380540Y-109983907D01*
X94384538Y-110027421D01*
X94379501Y-110065680D01*
X94379501Y-110065684D01*
X94379501Y-110414316D01*
X94380712Y-110423514D01*
X94385933Y-110463174D01*
X94385933Y-110463175D01*
X94435934Y-110570401D01*
X94435935Y-110570402D01*
X94435936Y-110570404D01*
X94519597Y-110654065D01*
X94532913Y-110660274D01*
X94577662Y-110702002D01*
X94589337Y-110762063D01*
X94563480Y-110817516D01*
X94554832Y-110825736D01*
X94544798Y-110834182D01*
X94519595Y-110845935D01*
X94459763Y-110905766D01*
X94456514Y-110908502D01*
X94431901Y-110918491D01*
X94408243Y-110930546D01*
X94402893Y-110930265D01*
X94399820Y-110931513D01*
X94392606Y-110929726D01*
X94367134Y-110928392D01*
X94259309Y-110899500D01*
X94140691Y-110899500D01*
X94070567Y-110918289D01*
X94026109Y-110930202D01*
X93923391Y-110989507D01*
X93839507Y-111073391D01*
X93780202Y-111176109D01*
X93774429Y-111197654D01*
X93749500Y-111290691D01*
X93749500Y-111409309D01*
X93770070Y-111486077D01*
X93780202Y-111523890D01*
X93839507Y-111626608D01*
X93839509Y-111626610D01*
X93839511Y-111626613D01*
X93923387Y-111710489D01*
X93923389Y-111710490D01*
X93923391Y-111710492D01*
X94026110Y-111769797D01*
X94026111Y-111769797D01*
X94026114Y-111769799D01*
X94140691Y-111800500D01*
X94140693Y-111800500D01*
X94259307Y-111800500D01*
X94259309Y-111800500D01*
X94373886Y-111769799D01*
X94373888Y-111769797D01*
X94373890Y-111769797D01*
X94482233Y-111707245D01*
X94483210Y-111708937D01*
X94532376Y-111691514D01*
X94576831Y-111700755D01*
X94626823Y-111724067D01*
X94626824Y-111724067D01*
X94626826Y-111724068D01*
X94675683Y-111730500D01*
X94675684Y-111730500D01*
X95124313Y-111730500D01*
X95124315Y-111730500D01*
X95173172Y-111724068D01*
X95280403Y-111674065D01*
X95364064Y-111590404D01*
X95414067Y-111483173D01*
X95420499Y-111434316D01*
X95420499Y-111085684D01*
X95414067Y-111036827D01*
X95390689Y-110986694D01*
X95364065Y-110929598D01*
X95364064Y-110929597D01*
X95364064Y-110929596D01*
X95280403Y-110845935D01*
X95280401Y-110845934D01*
X95280400Y-110845933D01*
X95267084Y-110839724D01*
X95222336Y-110797995D01*
X95210662Y-110737934D01*
X95236521Y-110682482D01*
X95267081Y-110660277D01*
X95280405Y-110654065D01*
X95364066Y-110570404D01*
X95392584Y-110509246D01*
X95434310Y-110464500D01*
X95494371Y-110452825D01*
X95531807Y-110465351D01*
X95626110Y-110519797D01*
X95626111Y-110519797D01*
X95626114Y-110519799D01*
X95740691Y-110550500D01*
X95740693Y-110550500D01*
X95859307Y-110550500D01*
X95859309Y-110550500D01*
X95973886Y-110519799D01*
X95973888Y-110519797D01*
X95973890Y-110519797D01*
X96076608Y-110460492D01*
X96076608Y-110460491D01*
X96076613Y-110460489D01*
X96160489Y-110376613D01*
X96160492Y-110376608D01*
X96219797Y-110273890D01*
X96219797Y-110273888D01*
X96219799Y-110273886D01*
X96250500Y-110159309D01*
X96250500Y-110040691D01*
X96250348Y-110040124D01*
X96250370Y-110039705D01*
X96249653Y-110034259D01*
X96250662Y-110034126D01*
X96253548Y-109979025D01*
X96292051Y-109931474D01*
X96345974Y-109915500D01*
X98649521Y-109915500D01*
X98657118Y-109917968D01*
X98665008Y-109916719D01*
X98685663Y-109927243D01*
X98707712Y-109934407D01*
X98719525Y-109944496D01*
X98720504Y-109945475D01*
X98748281Y-109999992D01*
X98749500Y-110015479D01*
X98749500Y-110250500D01*
X98730593Y-110308691D01*
X98681093Y-110344655D01*
X98650500Y-110349500D01*
X98530252Y-110349500D01*
X98530251Y-110349500D01*
X98530241Y-110349501D01*
X98471772Y-110361132D01*
X98471766Y-110361134D01*
X98405002Y-110405746D01*
X98346114Y-110422355D01*
X98294998Y-110405746D01*
X98228233Y-110361134D01*
X98228231Y-110361133D01*
X98228228Y-110361132D01*
X98228227Y-110361132D01*
X98169758Y-110349501D01*
X98169748Y-110349500D01*
X97730252Y-110349500D01*
X97730251Y-110349500D01*
X97730241Y-110349501D01*
X97671772Y-110361132D01*
X97671766Y-110361134D01*
X97605001Y-110405746D01*
X97546112Y-110422355D01*
X97494997Y-110405746D01*
X97428232Y-110361134D01*
X97428230Y-110361133D01*
X97428227Y-110361132D01*
X97428226Y-110361132D01*
X97369757Y-110349501D01*
X97369747Y-110349500D01*
X96930251Y-110349500D01*
X96930250Y-110349500D01*
X96930240Y-110349501D01*
X96871771Y-110361132D01*
X96871765Y-110361134D01*
X96805450Y-110405445D01*
X96805444Y-110405451D01*
X96761133Y-110471766D01*
X96761131Y-110471772D01*
X96749500Y-110530241D01*
X96749499Y-110530253D01*
X96749499Y-110884521D01*
X96730592Y-110942712D01*
X96720503Y-110954525D01*
X96022523Y-111652505D01*
X95968006Y-111680282D01*
X95952519Y-111681501D01*
X95768435Y-111681501D01*
X95692014Y-111701978D01*
X95692011Y-111701980D01*
X95633403Y-111735817D01*
X95627511Y-111739218D01*
X95623488Y-111741541D01*
X95374525Y-111990504D01*
X95320009Y-112018281D01*
X95304522Y-112019500D01*
X95075685Y-112019500D01*
X95059399Y-112021644D01*
X95026826Y-112025932D01*
X95026825Y-112025932D01*
X94919599Y-112075933D01*
X94919596Y-112075935D01*
X94861226Y-112134305D01*
X94806709Y-112162082D01*
X94746277Y-112152510D01*
X94730955Y-112142843D01*
X94726615Y-112139513D01*
X94726613Y-112139511D01*
X94726609Y-112139509D01*
X94726607Y-112139507D01*
X94623889Y-112080202D01*
X94623890Y-112080202D01*
X94607958Y-112075933D01*
X94509309Y-112049500D01*
X94390691Y-112049500D01*
X94320567Y-112068289D01*
X94276109Y-112080202D01*
X94173391Y-112139507D01*
X94089507Y-112223391D01*
X94030202Y-112326109D01*
X94017494Y-112373536D01*
X93999500Y-112440691D01*
X93999500Y-112559309D01*
X94014995Y-112617136D01*
X94030202Y-112673890D01*
X94089507Y-112776608D01*
X94089509Y-112776610D01*
X94089511Y-112776613D01*
X94173387Y-112860489D01*
X94173389Y-112860490D01*
X94173391Y-112860492D01*
X94248224Y-112903697D01*
X94289165Y-112949166D01*
X94295561Y-113010016D01*
X94264968Y-113063004D01*
X94248227Y-113075168D01*
X94223390Y-113089508D01*
X94139507Y-113173391D01*
X94080202Y-113276109D01*
X94071803Y-113307456D01*
X94049500Y-113390691D01*
X94049500Y-113509309D01*
X94066805Y-113573890D01*
X94080202Y-113623890D01*
X94139507Y-113726608D01*
X94139509Y-113726610D01*
X94139511Y-113726613D01*
X94223387Y-113810489D01*
X94223389Y-113810490D01*
X94223391Y-113810492D01*
X94326110Y-113869797D01*
X94326111Y-113869797D01*
X94326114Y-113869799D01*
X94440691Y-113900500D01*
X94440693Y-113900500D01*
X94559307Y-113900500D01*
X94559309Y-113900500D01*
X94673886Y-113869799D01*
X94729467Y-113837708D01*
X94789316Y-113824987D01*
X94845211Y-113849873D01*
X94848952Y-113853422D01*
X94919595Y-113924065D01*
X94919596Y-113924065D01*
X94919597Y-113924066D01*
X95026823Y-113974067D01*
X95026824Y-113974067D01*
X95026826Y-113974068D01*
X95075683Y-113980500D01*
X95075684Y-113980500D01*
X95524313Y-113980500D01*
X95524315Y-113980500D01*
X95573172Y-113974068D01*
X95680403Y-113924065D01*
X95736460Y-113868007D01*
X95790975Y-113840232D01*
X95851407Y-113849803D01*
X95876462Y-113868006D01*
X95881681Y-113873225D01*
X95990510Y-113923973D01*
X96040096Y-113930501D01*
X96459897Y-113930500D01*
X96509484Y-113923973D01*
X96509485Y-113923973D01*
X96568134Y-113896623D01*
X96618313Y-113873225D01*
X96703221Y-113788317D01*
X96703221Y-113788315D01*
X96709345Y-113782192D01*
X96711391Y-113784238D01*
X96749003Y-113755895D01*
X96781236Y-113750501D01*
X97193735Y-113750501D01*
X97237213Y-113760559D01*
X97298607Y-113790573D01*
X97366740Y-113800500D01*
X97366743Y-113800500D01*
X97733257Y-113800500D01*
X97733260Y-113800500D01*
X97801393Y-113790573D01*
X97906483Y-113739198D01*
X97989198Y-113656483D01*
X98040573Y-113551393D01*
X98050500Y-113483260D01*
X98050500Y-113015478D01*
X98069407Y-112957287D01*
X98079490Y-112945480D01*
X98190460Y-112834511D01*
X98204119Y-112810852D01*
X98230021Y-112765989D01*
X98250500Y-112689562D01*
X98250500Y-111376903D01*
X98255896Y-111360293D01*
X98256544Y-111342840D01*
X98265116Y-111331917D01*
X98269407Y-111318712D01*
X98294319Y-111294708D01*
X98294471Y-111294606D01*
X98294552Y-111294552D01*
X98294552Y-111294551D01*
X98294818Y-111294373D01*
X98353670Y-111277636D01*
X98405001Y-111294253D01*
X98405447Y-111294551D01*
X98405448Y-111294552D01*
X98471769Y-111338867D01*
X98516231Y-111347711D01*
X98530241Y-111350498D01*
X98530246Y-111350498D01*
X98530252Y-111350500D01*
X98550500Y-111350500D01*
X98608691Y-111369407D01*
X98644655Y-111418907D01*
X98649500Y-111449500D01*
X98649500Y-112271635D01*
X98630593Y-112329826D01*
X98599889Y-112355612D01*
X98600192Y-112356036D01*
X98594817Y-112359873D01*
X98593982Y-112360574D01*
X98593800Y-112360663D01*
X98593518Y-112360801D01*
X98510801Y-112443518D01*
X98459427Y-112548604D01*
X98455267Y-112577157D01*
X98449500Y-112616740D01*
X98449500Y-113483260D01*
X98456118Y-113528682D01*
X98459427Y-113551395D01*
X98493213Y-113620504D01*
X98510802Y-113656483D01*
X98593517Y-113739198D01*
X98612502Y-113748479D01*
X98698604Y-113790572D01*
X98698605Y-113790572D01*
X98698607Y-113790573D01*
X98766740Y-113800500D01*
X98766743Y-113800500D01*
X99133257Y-113800500D01*
X99133260Y-113800500D01*
X99201393Y-113790573D01*
X99262785Y-113760559D01*
X99306265Y-113750500D01*
X99310438Y-113750500D01*
X99718761Y-113750500D01*
X99776952Y-113769407D01*
X99790078Y-113782764D01*
X99790652Y-113782191D01*
X99796775Y-113788314D01*
X99796776Y-113788316D01*
X99881684Y-113873224D01*
X99990513Y-113923972D01*
X100040099Y-113930500D01*
X100459900Y-113930499D01*
X100509487Y-113923972D01*
X100509488Y-113923972D01*
X100568137Y-113896622D01*
X100618316Y-113873224D01*
X100703224Y-113788316D01*
X100753972Y-113679487D01*
X100760500Y-113629901D01*
X100760499Y-113270100D01*
X100760190Y-113267756D01*
X100753972Y-113220513D01*
X100753972Y-113220511D01*
X100703225Y-113111686D01*
X100703224Y-113111685D01*
X100703224Y-113111684D01*
X100618316Y-113026776D01*
X100618314Y-113026775D01*
X100618313Y-113026774D01*
X100509489Y-112976029D01*
X100509488Y-112976028D01*
X100492958Y-112973852D01*
X100459901Y-112969500D01*
X100459899Y-112969500D01*
X100040103Y-112969500D01*
X100040092Y-112969501D01*
X99990513Y-112976027D01*
X99990511Y-112976027D01*
X99881686Y-113026774D01*
X99881684Y-113026775D01*
X99881684Y-113026776D01*
X99796776Y-113111684D01*
X99796775Y-113111685D01*
X99790652Y-113117809D01*
X99788605Y-113115762D01*
X99786663Y-113117225D01*
X99776952Y-113130593D01*
X99762842Y-113135177D01*
X99750994Y-113144106D01*
X99718761Y-113149500D01*
X99549500Y-113149500D01*
X99491309Y-113130593D01*
X99455345Y-113081093D01*
X99450500Y-113050500D01*
X99450500Y-112616743D01*
X99450390Y-112615988D01*
X99440573Y-112548607D01*
X99440384Y-112548221D01*
X99415483Y-112497285D01*
X99389198Y-112443517D01*
X99306483Y-112360802D01*
X99306017Y-112360574D01*
X99305603Y-112360173D01*
X99299808Y-112356036D01*
X99300428Y-112355167D01*
X99262045Y-112318031D01*
X99250500Y-112271635D01*
X99250500Y-111449500D01*
X99269407Y-111391309D01*
X99318907Y-111355345D01*
X99349500Y-111350500D01*
X99769747Y-111350500D01*
X99769748Y-111350500D01*
X99828231Y-111338867D01*
X99894552Y-111294552D01*
X99894553Y-111294549D01*
X99894997Y-111294253D01*
X99953885Y-111277644D01*
X99986390Y-111284499D01*
X100003159Y-111291127D01*
X100005448Y-111294552D01*
X100071769Y-111338867D01*
X100130252Y-111350500D01*
X100153375Y-111350500D01*
X100170911Y-111357431D01*
X100180669Y-111365494D01*
X100192712Y-111369407D01*
X100204525Y-111379496D01*
X100270504Y-111445475D01*
X100298281Y-111499992D01*
X100299500Y-111515479D01*
X100299500Y-111559309D01*
X100324472Y-111652505D01*
X100330202Y-111673890D01*
X100389507Y-111776608D01*
X100389509Y-111776610D01*
X100389511Y-111776613D01*
X100473387Y-111860489D01*
X100473389Y-111860490D01*
X100473391Y-111860492D01*
X100576110Y-111919797D01*
X100576111Y-111919797D01*
X100576114Y-111919799D01*
X100690691Y-111950500D01*
X100690693Y-111950500D01*
X100809307Y-111950500D01*
X100809309Y-111950500D01*
X100923886Y-111919799D01*
X100923888Y-111919797D01*
X100923890Y-111919797D01*
X101026608Y-111860492D01*
X101026608Y-111860491D01*
X101026613Y-111860489D01*
X101110489Y-111776613D01*
X101134227Y-111735498D01*
X101169797Y-111673890D01*
X101169797Y-111673888D01*
X101169799Y-111673886D01*
X101200500Y-111559309D01*
X101200500Y-111449499D01*
X101219407Y-111391308D01*
X101268907Y-111355344D01*
X101299500Y-111350499D01*
X101369747Y-111350499D01*
X101369748Y-111350499D01*
X101428231Y-111338866D01*
X101494552Y-111294551D01*
X101494553Y-111294548D01*
X101494996Y-111294253D01*
X101553884Y-111277644D01*
X101605001Y-111294253D01*
X101605447Y-111294551D01*
X101605448Y-111294552D01*
X101671769Y-111338867D01*
X101716231Y-111347711D01*
X101730241Y-111350498D01*
X101730246Y-111350498D01*
X101730252Y-111350500D01*
X101730253Y-111350500D01*
X102169747Y-111350500D01*
X102169748Y-111350500D01*
X102228231Y-111338867D01*
X102270500Y-111310623D01*
X102329385Y-111294015D01*
X102386789Y-111315192D01*
X102420783Y-111366065D01*
X102424500Y-111392939D01*
X102424500Y-111928760D01*
X102405593Y-111986951D01*
X102392236Y-112000079D01*
X102392809Y-112000652D01*
X102386685Y-112006775D01*
X102386684Y-112006776D01*
X102343960Y-112049500D01*
X102301774Y-112091686D01*
X102251029Y-112200510D01*
X102251028Y-112200511D01*
X102244500Y-112250100D01*
X102244500Y-112669896D01*
X102244501Y-112669907D01*
X102251027Y-112719486D01*
X102251027Y-112719488D01*
X102301774Y-112828313D01*
X102301775Y-112828314D01*
X102301776Y-112828316D01*
X102335958Y-112862498D01*
X102363734Y-112917013D01*
X102354163Y-112977445D01*
X102335959Y-113002500D01*
X102317787Y-113020673D01*
X102306774Y-113031686D01*
X102256029Y-113140510D01*
X102256028Y-113140511D01*
X102249500Y-113190100D01*
X102249500Y-113609896D01*
X102249501Y-113609907D01*
X102256027Y-113659486D01*
X102256027Y-113659488D01*
X102306774Y-113768313D01*
X102306775Y-113768314D01*
X102306776Y-113768316D01*
X102391684Y-113853224D01*
X102391685Y-113853224D01*
X102397809Y-113859348D01*
X102395762Y-113861394D01*
X102397225Y-113863336D01*
X102410593Y-113873048D01*
X102415177Y-113887157D01*
X102424106Y-113899006D01*
X102429500Y-113931239D01*
X102429500Y-114015695D01*
X102426126Y-114041318D01*
X102399500Y-114140691D01*
X102399500Y-114259309D01*
X102421306Y-114340691D01*
X102430202Y-114373890D01*
X102489507Y-114476608D01*
X102489509Y-114476610D01*
X102489511Y-114476613D01*
X102573387Y-114560489D01*
X102573389Y-114560490D01*
X102573391Y-114560492D01*
X102676110Y-114619797D01*
X102676111Y-114619797D01*
X102676114Y-114619799D01*
X102790691Y-114650500D01*
X102790693Y-114650500D01*
X102909307Y-114650500D01*
X102909309Y-114650500D01*
X103023886Y-114619799D01*
X103023888Y-114619797D01*
X103023890Y-114619797D01*
X103126608Y-114560492D01*
X103126608Y-114560491D01*
X103126613Y-114560489D01*
X103210489Y-114476613D01*
X103211923Y-114474130D01*
X103269797Y-114373890D01*
X103269797Y-114373888D01*
X103269799Y-114373886D01*
X103300500Y-114259309D01*
X103300500Y-114140691D01*
X103269799Y-114026114D01*
X103269797Y-114026111D01*
X103269797Y-114026109D01*
X103210492Y-113923391D01*
X103210490Y-113923389D01*
X103210489Y-113923387D01*
X103171134Y-113884032D01*
X103143359Y-113829518D01*
X103151416Y-113772191D01*
X103153222Y-113768317D01*
X103153224Y-113768316D01*
X103203972Y-113659487D01*
X103210500Y-113609901D01*
X103210499Y-113362893D01*
X103219461Y-113335312D01*
X103227478Y-113307456D01*
X103228863Y-113306375D01*
X103229406Y-113304705D01*
X103252855Y-113287668D01*
X103275728Y-113269833D01*
X103277485Y-113269773D01*
X103278906Y-113268741D01*
X103307892Y-113268740D01*
X103336879Y-113267756D01*
X103338137Y-113268740D01*
X103340091Y-113268740D01*
X103387571Y-113302020D01*
X103391798Y-113307442D01*
X103404540Y-113329511D01*
X103424819Y-113349790D01*
X103428572Y-113354603D01*
X103437027Y-113377904D01*
X103448281Y-113399991D01*
X103449178Y-113411387D01*
X103449443Y-113412118D01*
X103449280Y-113412684D01*
X103449500Y-113415478D01*
X103449500Y-113459309D01*
X103462897Y-113509307D01*
X103480202Y-113573890D01*
X103539507Y-113676608D01*
X103539509Y-113676610D01*
X103539511Y-113676613D01*
X103623387Y-113760489D01*
X103623389Y-113760490D01*
X103623391Y-113760492D01*
X103726110Y-113819797D01*
X103726111Y-113819797D01*
X103726114Y-113819799D01*
X103840691Y-113850500D01*
X103840693Y-113850500D01*
X103959307Y-113850500D01*
X103959309Y-113850500D01*
X104073886Y-113819799D01*
X104073888Y-113819797D01*
X104073890Y-113819797D01*
X104176608Y-113760492D01*
X104176608Y-113760491D01*
X104176613Y-113760489D01*
X104260489Y-113676613D01*
X104270377Y-113659487D01*
X104319797Y-113573890D01*
X104319797Y-113573888D01*
X104319799Y-113573886D01*
X104350500Y-113459309D01*
X104350500Y-113340691D01*
X104319799Y-113226114D01*
X104319797Y-113226111D01*
X104319797Y-113226109D01*
X104260492Y-113123391D01*
X104260490Y-113123389D01*
X104260489Y-113123387D01*
X104176613Y-113039511D01*
X104176594Y-113039500D01*
X104085738Y-112987043D01*
X104044798Y-112941573D01*
X104038403Y-112880723D01*
X104065237Y-112831302D01*
X104068224Y-112828316D01*
X104118972Y-112719487D01*
X104125500Y-112669901D01*
X104125499Y-112250100D01*
X104120245Y-112210188D01*
X104118972Y-112200513D01*
X104118972Y-112200511D01*
X104068225Y-112091686D01*
X104068224Y-112091685D01*
X104068224Y-112091684D01*
X103983316Y-112006776D01*
X103983314Y-112006775D01*
X103977191Y-112000652D01*
X103979235Y-111998607D01*
X103950886Y-111960969D01*
X103945500Y-111928760D01*
X103945500Y-111434381D01*
X103964407Y-111376190D01*
X104013907Y-111340226D01*
X104063816Y-111337284D01*
X104071767Y-111338865D01*
X104071769Y-111338867D01*
X104106295Y-111345734D01*
X104130244Y-111350499D01*
X104130250Y-111350499D01*
X104130252Y-111350500D01*
X104130253Y-111350500D01*
X104569747Y-111350500D01*
X104569748Y-111350500D01*
X104628231Y-111338867D01*
X104635499Y-111334010D01*
X104694384Y-111317401D01*
X104751789Y-111338577D01*
X104785783Y-111389449D01*
X104789501Y-111416325D01*
X104789501Y-112017540D01*
X104789501Y-112112462D01*
X104804408Y-112168095D01*
X104814069Y-112204153D01*
X104861525Y-112286348D01*
X104861529Y-112286353D01*
X105035504Y-112460329D01*
X105063281Y-112514845D01*
X105064500Y-112530331D01*
X105064500Y-112669895D01*
X105064501Y-112669907D01*
X105071027Y-112719486D01*
X105071027Y-112719488D01*
X105121774Y-112828313D01*
X105121775Y-112828314D01*
X105121776Y-112828316D01*
X105206684Y-112913224D01*
X105206685Y-112913224D01*
X105206686Y-112913225D01*
X105217655Y-112918340D01*
X105315513Y-112963972D01*
X105339142Y-112967082D01*
X105394366Y-112993422D01*
X105423562Y-113047192D01*
X105415576Y-113107854D01*
X105385009Y-113144890D01*
X105340352Y-113177848D01*
X105340345Y-113177855D01*
X105259707Y-113287116D01*
X105214855Y-113415296D01*
X105214853Y-113415305D01*
X105212000Y-113445725D01*
X105212000Y-114454274D01*
X105214853Y-114484694D01*
X105214855Y-114484703D01*
X105259707Y-114612883D01*
X105340345Y-114722144D01*
X105340347Y-114722146D01*
X105340350Y-114722150D01*
X105340353Y-114722152D01*
X105340355Y-114722154D01*
X105449616Y-114802792D01*
X105449617Y-114802792D01*
X105449618Y-114802793D01*
X105577801Y-114847646D01*
X105608225Y-114850499D01*
X105608227Y-114850500D01*
X105608234Y-114850500D01*
X106241773Y-114850500D01*
X106241773Y-114850499D01*
X106272199Y-114847646D01*
X106400382Y-114802793D01*
X106509650Y-114722150D01*
X106590293Y-114612882D01*
X106635146Y-114484699D01*
X106637999Y-114454273D01*
X106638000Y-114454273D01*
X106638000Y-113445727D01*
X106637999Y-113445725D01*
X106635289Y-113416825D01*
X106635146Y-113415301D01*
X106590293Y-113287118D01*
X106590078Y-113286827D01*
X106509654Y-113177855D01*
X106509652Y-113177853D01*
X106509650Y-113177850D01*
X106509646Y-113177847D01*
X106509644Y-113177845D01*
X106400383Y-113097207D01*
X106351802Y-113080208D01*
X106303122Y-113043143D01*
X106285500Y-112986764D01*
X106285500Y-112792540D01*
X106285500Y-112792539D01*
X106260933Y-112700852D01*
X106260931Y-112700849D01*
X106260931Y-112700847D01*
X106213475Y-112618652D01*
X106213471Y-112618647D01*
X106146352Y-112551527D01*
X106146352Y-112551528D01*
X106054495Y-112459671D01*
X106026718Y-112405154D01*
X106025499Y-112389667D01*
X106025499Y-112250103D01*
X106025498Y-112250092D01*
X106018972Y-112200513D01*
X106018972Y-112200511D01*
X105968225Y-112091686D01*
X105968224Y-112091685D01*
X105968224Y-112091684D01*
X105883316Y-112006776D01*
X105883314Y-112006775D01*
X105883313Y-112006774D01*
X105774489Y-111956029D01*
X105774488Y-111956028D01*
X105749694Y-111952764D01*
X105724901Y-111949500D01*
X105724900Y-111949500D01*
X105609501Y-111949500D01*
X105551310Y-111930593D01*
X105515346Y-111881093D01*
X105510501Y-111850500D01*
X105510501Y-111300716D01*
X105527186Y-111245714D01*
X105531540Y-111239198D01*
X105538868Y-111228231D01*
X105550501Y-111169748D01*
X105550501Y-110530252D01*
X105538868Y-110471769D01*
X105529710Y-110458063D01*
X105493921Y-110404502D01*
X105490180Y-110391241D01*
X105482081Y-110380093D01*
X105482081Y-110362522D01*
X105477312Y-110345614D01*
X105482081Y-110332686D01*
X105482081Y-110318907D01*
X105492408Y-110304692D01*
X105498489Y-110288210D01*
X105509945Y-110280555D01*
X105518045Y-110269407D01*
X105534755Y-110263977D01*
X105549363Y-110254217D01*
X105576236Y-110250500D01*
X105756352Y-110250500D01*
X105805851Y-110263763D01*
X105822151Y-110273174D01*
X105834011Y-110280021D01*
X105910437Y-110300499D01*
X105989561Y-110300499D01*
X106875608Y-110300499D01*
X106933799Y-110319406D01*
X106965332Y-110357659D01*
X106975936Y-110380400D01*
X106975937Y-110380401D01*
X106975938Y-110380403D01*
X107059599Y-110464064D01*
X107059600Y-110464064D01*
X107059601Y-110464065D01*
X107166827Y-110514066D01*
X107166828Y-110514066D01*
X107166830Y-110514067D01*
X107215687Y-110520499D01*
X107215688Y-110520499D01*
X107564317Y-110520499D01*
X107564319Y-110520499D01*
X107613176Y-110514067D01*
X107720407Y-110464064D01*
X107804068Y-110380403D01*
X107810274Y-110367093D01*
X107852001Y-110322345D01*
X107912062Y-110310669D01*
X107967515Y-110336526D01*
X107989723Y-110367090D01*
X107995930Y-110380400D01*
X107995932Y-110380405D01*
X108079593Y-110464066D01*
X108079594Y-110464066D01*
X108079595Y-110464067D01*
X108186821Y-110514068D01*
X108186822Y-110514068D01*
X108186824Y-110514069D01*
X108235681Y-110520501D01*
X108464518Y-110520501D01*
X108522709Y-110539408D01*
X108534522Y-110549497D01*
X109738986Y-111753961D01*
X109738985Y-111753961D01*
X109794935Y-111809910D01*
X109863453Y-111849469D01*
X109863457Y-111849471D01*
X109939881Y-111869949D01*
X109939883Y-111869950D01*
X109939884Y-111869950D01*
X110366071Y-111869950D01*
X110424262Y-111888857D01*
X110460226Y-111938357D01*
X110460226Y-111999543D01*
X110436075Y-112038954D01*
X108854525Y-113620504D01*
X108800008Y-113648281D01*
X108784521Y-113649500D01*
X108562000Y-113649500D01*
X108503809Y-113630593D01*
X108467845Y-113581093D01*
X108463000Y-113550500D01*
X108463000Y-113445727D01*
X108462999Y-113445725D01*
X108460289Y-113416825D01*
X108460146Y-113415301D01*
X108415293Y-113287118D01*
X108415078Y-113286827D01*
X108334654Y-113177855D01*
X108334652Y-113177853D01*
X108334650Y-113177850D01*
X108334646Y-113177847D01*
X108334644Y-113177845D01*
X108225383Y-113097207D01*
X108097203Y-113052355D01*
X108097194Y-113052353D01*
X108066774Y-113049500D01*
X108066766Y-113049500D01*
X107433234Y-113049500D01*
X107433225Y-113049500D01*
X107402805Y-113052353D01*
X107402796Y-113052355D01*
X107274616Y-113097207D01*
X107165355Y-113177845D01*
X107165345Y-113177855D01*
X107084707Y-113287116D01*
X107039855Y-113415296D01*
X107039853Y-113415305D01*
X107037000Y-113445725D01*
X107037000Y-114454274D01*
X107039853Y-114484694D01*
X107039855Y-114484703D01*
X107084707Y-114612883D01*
X107165345Y-114722144D01*
X107165347Y-114722146D01*
X107165350Y-114722150D01*
X107165353Y-114722152D01*
X107165355Y-114722154D01*
X107274616Y-114802792D01*
X107274617Y-114802792D01*
X107274618Y-114802793D01*
X107402801Y-114847646D01*
X107433225Y-114850499D01*
X107433227Y-114850500D01*
X107433234Y-114850500D01*
X108066773Y-114850500D01*
X108066773Y-114850499D01*
X108097199Y-114847646D01*
X108225382Y-114802793D01*
X108334650Y-114722150D01*
X108415293Y-114612882D01*
X108460146Y-114484699D01*
X108462999Y-114454273D01*
X108463000Y-114454273D01*
X108463000Y-114349500D01*
X108481907Y-114291309D01*
X108531407Y-114255345D01*
X108562000Y-114250500D01*
X108989563Y-114250500D01*
X108989563Y-114250499D01*
X109065989Y-114230021D01*
X109134511Y-114190460D01*
X109190460Y-114134511D01*
X110895475Y-112429496D01*
X110949992Y-112401719D01*
X110965479Y-112400500D01*
X112177312Y-112400500D01*
X112235503Y-112419407D01*
X112271467Y-112468907D01*
X112271467Y-112530093D01*
X112247317Y-112569501D01*
X112225497Y-112591322D01*
X112223301Y-112593518D01*
X112171927Y-112698604D01*
X112168884Y-112719489D01*
X112162000Y-112766740D01*
X112162000Y-113133260D01*
X112167280Y-113169500D01*
X112171927Y-113201395D01*
X112221748Y-113303305D01*
X112223302Y-113306483D01*
X112306017Y-113389198D01*
X112347151Y-113409307D01*
X112411104Y-113440572D01*
X112411105Y-113440572D01*
X112411107Y-113440573D01*
X112479240Y-113450500D01*
X112479243Y-113450500D01*
X113570757Y-113450500D01*
X113570760Y-113450500D01*
X113638893Y-113440573D01*
X113743983Y-113389198D01*
X113819998Y-113313182D01*
X113874513Y-113285407D01*
X113934945Y-113294978D01*
X113978210Y-113338243D01*
X113989000Y-113383188D01*
X113989000Y-113914382D01*
X113970093Y-113972573D01*
X113920593Y-114008537D01*
X113859407Y-114008537D01*
X113815526Y-113977526D01*
X113815077Y-113977976D01*
X113812460Y-113975359D01*
X113811461Y-113974653D01*
X113810494Y-113973393D01*
X113810490Y-113973389D01*
X113810489Y-113973387D01*
X113726613Y-113889511D01*
X113726610Y-113889509D01*
X113726608Y-113889507D01*
X113623889Y-113830202D01*
X113623890Y-113830202D01*
X113585065Y-113819799D01*
X113509309Y-113799500D01*
X113390691Y-113799500D01*
X113320567Y-113818289D01*
X113276109Y-113830202D01*
X113173391Y-113889507D01*
X113173390Y-113889508D01*
X113173387Y-113889510D01*
X113173387Y-113889511D01*
X113095001Y-113967896D01*
X113040487Y-113995672D01*
X112980055Y-113986101D01*
X112954999Y-113967897D01*
X112926613Y-113939511D01*
X112926610Y-113939509D01*
X112926608Y-113939507D01*
X112823889Y-113880202D01*
X112823890Y-113880202D01*
X112797851Y-113873225D01*
X112709309Y-113849500D01*
X112590691Y-113849500D01*
X112539656Y-113863175D01*
X112476109Y-113880202D01*
X112373391Y-113939507D01*
X112289507Y-114023391D01*
X112230202Y-114126109D01*
X112230201Y-114126114D01*
X112200282Y-114237775D01*
X112199500Y-114240692D01*
X112199500Y-114323953D01*
X112180593Y-114382144D01*
X112131093Y-114418108D01*
X112069907Y-114418108D01*
X112030496Y-114393957D01*
X112028224Y-114391685D01*
X112028224Y-114391684D01*
X111943316Y-114306776D01*
X111943314Y-114306775D01*
X111943313Y-114306774D01*
X111834489Y-114256029D01*
X111834488Y-114256028D01*
X111817958Y-114253852D01*
X111784901Y-114249500D01*
X111784899Y-114249500D01*
X111365103Y-114249500D01*
X111365092Y-114249501D01*
X111315513Y-114256027D01*
X111315511Y-114256027D01*
X111206685Y-114306774D01*
X111199585Y-114311746D01*
X111198277Y-114309878D01*
X111154565Y-114332143D01*
X111094134Y-114322564D01*
X111089589Y-114320095D01*
X111079151Y-114314068D01*
X111079148Y-114314067D01*
X110987461Y-114289500D01*
X110987459Y-114289500D01*
X110853121Y-114289500D01*
X110803620Y-114276236D01*
X110795550Y-114271577D01*
X110740377Y-114239722D01*
X110723888Y-114230202D01*
X110723887Y-114230201D01*
X110723886Y-114230201D01*
X110609309Y-114199500D01*
X110490691Y-114199500D01*
X110423455Y-114217516D01*
X110376109Y-114230202D01*
X110273391Y-114289507D01*
X110189507Y-114373391D01*
X110130202Y-114476109D01*
X110114091Y-114536236D01*
X110099500Y-114590691D01*
X110099500Y-114709309D01*
X110121693Y-114792133D01*
X110130202Y-114823890D01*
X110189507Y-114926608D01*
X110189509Y-114926610D01*
X110189511Y-114926613D01*
X110273387Y-115010489D01*
X110273389Y-115010490D01*
X110291552Y-115020977D01*
X110332492Y-115066447D01*
X110338887Y-115127297D01*
X110308294Y-115180285D01*
X110252398Y-115205171D01*
X110242051Y-115205713D01*
X83987762Y-115205713D01*
X83965714Y-115198549D01*
X83942817Y-115194923D01*
X83937168Y-115189274D01*
X83929571Y-115186806D01*
X83915943Y-115168049D01*
X83899552Y-115151658D01*
X83898302Y-115143768D01*
X83893607Y-115137306D01*
X83893607Y-115114120D01*
X83889981Y-115091226D01*
X83893607Y-115084109D01*
X83893607Y-115076120D01*
X83917756Y-115036711D01*
X83964064Y-114990404D01*
X83964064Y-114990402D01*
X83964971Y-114989496D01*
X84019488Y-114961719D01*
X84034975Y-114960500D01*
X84079563Y-114960500D01*
X84079563Y-114960499D01*
X84155989Y-114940021D01*
X84224511Y-114900460D01*
X84280460Y-114844511D01*
X84295475Y-114829496D01*
X84349992Y-114801719D01*
X84365479Y-114800500D01*
X84409307Y-114800500D01*
X84409309Y-114800500D01*
X84523886Y-114769799D01*
X84523888Y-114769797D01*
X84523890Y-114769797D01*
X84626608Y-114710492D01*
X84626608Y-114710491D01*
X84626613Y-114710489D01*
X84710489Y-114626613D01*
X84719704Y-114610652D01*
X84769797Y-114523890D01*
X84769797Y-114523888D01*
X84769799Y-114523886D01*
X84800500Y-114409309D01*
X84800500Y-114290691D01*
X84769799Y-114176114D01*
X84769797Y-114176111D01*
X84769797Y-114176109D01*
X84710492Y-114073391D01*
X84710490Y-114073389D01*
X84710489Y-114073387D01*
X84626613Y-113989511D01*
X84626610Y-113989509D01*
X84626608Y-113989507D01*
X84523889Y-113930202D01*
X84523890Y-113930202D01*
X84498456Y-113923387D01*
X84409309Y-113899500D01*
X84290691Y-113899500D01*
X84220567Y-113918289D01*
X84176109Y-113930202D01*
X84176108Y-113930203D01*
X84165042Y-113936592D01*
X84105194Y-113949312D01*
X84049299Y-113924425D01*
X84018707Y-113871437D01*
X84017391Y-113837937D01*
X84020501Y-113814316D01*
X84020501Y-113465684D01*
X84014069Y-113416827D01*
X84013359Y-113415305D01*
X83964067Y-113309598D01*
X83964066Y-113309597D01*
X83964066Y-113309596D01*
X83880405Y-113225935D01*
X83880403Y-113225934D01*
X83880402Y-113225933D01*
X83857660Y-113215328D01*
X83812913Y-113173598D01*
X83800501Y-113125604D01*
X83800501Y-112179583D01*
X83819408Y-112121392D01*
X83829491Y-112109585D01*
X88891157Y-107047918D01*
X88945672Y-107020143D01*
X89006104Y-107029714D01*
G37*
%TD.AperFunction*%
%TA.AperFunction,Conductor*%
G36*
X117212162Y-111888857D02*
G01*
X117223975Y-111898946D01*
X120209540Y-114884511D01*
X120209539Y-114884511D01*
X120265489Y-114940460D01*
X120334007Y-114980019D01*
X120334011Y-114980021D01*
X120410435Y-115000499D01*
X120410437Y-115000500D01*
X120410438Y-115000500D01*
X122434521Y-115000500D01*
X122442118Y-115002968D01*
X122450008Y-115001719D01*
X122470663Y-115012243D01*
X122492712Y-115019407D01*
X122504525Y-115029496D01*
X122511738Y-115036709D01*
X122539515Y-115091226D01*
X122529944Y-115151658D01*
X122486679Y-115194923D01*
X122441734Y-115205713D01*
X119286294Y-115205713D01*
X119228103Y-115186806D01*
X119192139Y-115137306D01*
X119192139Y-115076120D01*
X119200558Y-115057212D01*
X119210777Y-115039512D01*
X119219799Y-115023886D01*
X119250500Y-114909309D01*
X119250500Y-114790691D01*
X119219799Y-114676114D01*
X119219797Y-114676111D01*
X119219797Y-114676109D01*
X119160492Y-114573391D01*
X119160491Y-114573390D01*
X119160490Y-114573389D01*
X119160489Y-114573387D01*
X119128728Y-114541626D01*
X119100952Y-114487109D01*
X119100673Y-114465798D01*
X119100500Y-114465798D01*
X119100500Y-114340692D01*
X119099225Y-114335932D01*
X119069799Y-114226114D01*
X119069797Y-114226110D01*
X119069797Y-114226109D01*
X119010492Y-114123391D01*
X119010490Y-114123389D01*
X119010489Y-114123387D01*
X118926613Y-114039511D01*
X118926610Y-114039509D01*
X118926608Y-114039507D01*
X118823889Y-113980202D01*
X118823890Y-113980202D01*
X118807010Y-113975679D01*
X118709309Y-113949500D01*
X118590691Y-113949500D01*
X118522040Y-113967895D01*
X118476109Y-113980202D01*
X118373391Y-114039507D01*
X118289507Y-114123391D01*
X118230202Y-114226110D01*
X118230199Y-114226117D01*
X118227075Y-114237775D01*
X118201454Y-114282151D01*
X118101549Y-114382056D01*
X118047032Y-114409833D01*
X117989707Y-114401777D01*
X117934487Y-114376028D01*
X117934488Y-114376028D01*
X117917958Y-114373852D01*
X117884901Y-114369500D01*
X117884899Y-114369500D01*
X117465103Y-114369500D01*
X117465092Y-114369501D01*
X117415513Y-114376027D01*
X117415511Y-114376027D01*
X117306686Y-114426774D01*
X117306683Y-114426776D01*
X117262954Y-114470505D01*
X117255837Y-114474130D01*
X117251142Y-114480594D01*
X117229090Y-114487758D01*
X117208437Y-114498282D01*
X117192951Y-114499501D01*
X117147048Y-114499501D01*
X117088857Y-114480594D01*
X117077045Y-114470505D01*
X117043316Y-114436777D01*
X117043313Y-114436775D01*
X116934489Y-114386030D01*
X116934488Y-114386029D01*
X116917958Y-114383853D01*
X116884901Y-114379501D01*
X116884899Y-114379501D01*
X116465103Y-114379501D01*
X116465092Y-114379502D01*
X116415513Y-114386028D01*
X116415511Y-114386028D01*
X116306686Y-114436775D01*
X116306683Y-114436777D01*
X116282955Y-114460505D01*
X116275839Y-114464130D01*
X116271144Y-114470593D01*
X116249091Y-114477758D01*
X116228438Y-114488281D01*
X116212953Y-114489500D01*
X116138689Y-114489500D01*
X116080498Y-114470593D01*
X116068686Y-114460504D01*
X116018984Y-114410803D01*
X116018983Y-114410802D01*
X116000522Y-114401777D01*
X115913895Y-114359427D01*
X115886639Y-114355456D01*
X115845760Y-114349500D01*
X114809000Y-114349500D01*
X114750809Y-114330593D01*
X114714845Y-114281093D01*
X114710000Y-114250500D01*
X114710000Y-113549500D01*
X114728907Y-113491309D01*
X114778407Y-113455345D01*
X114809000Y-113450500D01*
X115845757Y-113450500D01*
X115845760Y-113450500D01*
X115913893Y-113440573D01*
X116018983Y-113389198D01*
X116101698Y-113306483D01*
X116153073Y-113201393D01*
X116163000Y-113133260D01*
X116163000Y-112766740D01*
X116153073Y-112698607D01*
X116144534Y-112681141D01*
X116135963Y-112620562D01*
X116164637Y-112566511D01*
X116219604Y-112539638D01*
X116259094Y-112542033D01*
X116290691Y-112550500D01*
X116290693Y-112550500D01*
X116409307Y-112550500D01*
X116409309Y-112550500D01*
X116523886Y-112519799D01*
X116523888Y-112519797D01*
X116523890Y-112519797D01*
X116626608Y-112460492D01*
X116626608Y-112460491D01*
X116626613Y-112460489D01*
X116710489Y-112376613D01*
X116748084Y-112311497D01*
X116769797Y-112273890D01*
X116769797Y-112273888D01*
X116769799Y-112273886D01*
X116800500Y-112159309D01*
X116800500Y-112040691D01*
X116788142Y-111994570D01*
X116791344Y-111933472D01*
X116829849Y-111885922D01*
X116883769Y-111869950D01*
X117153971Y-111869950D01*
X117212162Y-111888857D01*
G37*
%TD.AperFunction*%
%TA.AperFunction,Conductor*%
G36*
X118660756Y-109369407D02*
G01*
X118672569Y-109379496D01*
X122318533Y-113025460D01*
X122318535Y-113025461D01*
X122318536Y-113025462D01*
X122318537Y-113025463D01*
X122387052Y-113065020D01*
X122387050Y-113065020D01*
X122387054Y-113065021D01*
X122387056Y-113065022D01*
X122463482Y-113085500D01*
X122485124Y-113085500D01*
X122543315Y-113104407D01*
X122555128Y-113114496D01*
X124117816Y-114677184D01*
X124145593Y-114731701D01*
X124136022Y-114792133D01*
X124092757Y-114835398D01*
X124091293Y-114836129D01*
X123993517Y-114883928D01*
X123945004Y-114932441D01*
X123890487Y-114960218D01*
X123830055Y-114950646D01*
X123805000Y-114932443D01*
X123756485Y-114883928D01*
X123754941Y-114883173D01*
X123651397Y-114832553D01*
X123624141Y-114828582D01*
X123583262Y-114822626D01*
X123216742Y-114822626D01*
X123216741Y-114822626D01*
X123205536Y-114824258D01*
X123145228Y-114813933D01*
X123121267Y-114796295D01*
X122784514Y-114459543D01*
X122784511Y-114459540D01*
X122772710Y-114452727D01*
X122727762Y-114426776D01*
X122715988Y-114419978D01*
X122639564Y-114399500D01*
X122639562Y-114399500D01*
X120615479Y-114399500D01*
X120557288Y-114380593D01*
X120545475Y-114370504D01*
X119027360Y-112852389D01*
X117503961Y-111328990D01*
X117496452Y-111324655D01*
X117477843Y-111313911D01*
X117450958Y-111298389D01*
X117435438Y-111289428D01*
X117359014Y-111268950D01*
X117359012Y-111268950D01*
X112569172Y-111268950D01*
X112510981Y-111250043D01*
X112475017Y-111200543D01*
X112475017Y-111139357D01*
X112510981Y-111089857D01*
X112543548Y-111074324D01*
X112565157Y-111068533D01*
X112581986Y-111064024D01*
X112650508Y-111024463D01*
X112706457Y-110968514D01*
X113145475Y-110529496D01*
X113199992Y-110501719D01*
X113215479Y-110500500D01*
X113259307Y-110500500D01*
X113259309Y-110500500D01*
X113373886Y-110469799D01*
X113373888Y-110469797D01*
X113373890Y-110469797D01*
X113476608Y-110410492D01*
X113476608Y-110410491D01*
X113476613Y-110410489D01*
X113540019Y-110347082D01*
X113594533Y-110319306D01*
X113654965Y-110328877D01*
X113659500Y-110331339D01*
X113726114Y-110369799D01*
X113840691Y-110400500D01*
X113840693Y-110400500D01*
X113959307Y-110400500D01*
X113959309Y-110400500D01*
X114073886Y-110369799D01*
X114073888Y-110369797D01*
X114073890Y-110369797D01*
X114176608Y-110310492D01*
X114176608Y-110310491D01*
X114176613Y-110310489D01*
X114260489Y-110226613D01*
X114262890Y-110222454D01*
X114319797Y-110123890D01*
X114319797Y-110123888D01*
X114319799Y-110123886D01*
X114350500Y-110009309D01*
X114350500Y-109890691D01*
X114319799Y-109776114D01*
X114319797Y-109776111D01*
X114319797Y-109776109D01*
X114260492Y-109673391D01*
X114260490Y-109673389D01*
X114260489Y-109673387D01*
X114176613Y-109589511D01*
X114176610Y-109589509D01*
X114176608Y-109589507D01*
X114082608Y-109535236D01*
X114041667Y-109489767D01*
X114035271Y-109428916D01*
X114065864Y-109375928D01*
X114121760Y-109351042D01*
X114132108Y-109350500D01*
X118602565Y-109350500D01*
X118660756Y-109369407D01*
G37*
%TD.AperFunction*%
%TA.AperFunction,Conductor*%
G36*
X116708951Y-99730911D02*
G01*
X116758686Y-99744390D01*
X116916105Y-99836194D01*
X117020586Y-99897126D01*
X117023677Y-99899005D01*
X117164683Y-99988296D01*
X117935761Y-100476575D01*
X117938750Y-100478547D01*
X118829089Y-101089035D01*
X118832035Y-101091135D01*
X119160553Y-101334505D01*
X119699471Y-101733742D01*
X119702295Y-101735915D01*
X120352382Y-102255345D01*
X120545678Y-102409792D01*
X120548463Y-102412101D01*
X121366674Y-103116354D01*
X121369372Y-103118764D01*
X122161273Y-103852410D01*
X122163882Y-103854917D01*
X122311978Y-104002534D01*
X122881044Y-104569758D01*
X122928460Y-104617020D01*
X122930971Y-104619616D01*
X122939006Y-104628233D01*
X123667198Y-105409150D01*
X123669617Y-105411841D01*
X124077280Y-105882374D01*
X124373826Y-106224655D01*
X124376508Y-106227750D01*
X124378819Y-106230518D01*
X124619867Y-106530202D01*
X125055414Y-107071696D01*
X125057630Y-107074556D01*
X125703058Y-107939917D01*
X125705166Y-107942855D01*
X126317679Y-108829966D01*
X126318522Y-108831186D01*
X126320518Y-108834192D01*
X126891987Y-109730201D01*
X126901015Y-109744355D01*
X126902894Y-109747422D01*
X127435499Y-110653931D01*
X127449781Y-110678239D01*
X127451552Y-110681386D01*
X127580085Y-110919680D01*
X127964030Y-111631501D01*
X127965689Y-111634716D01*
X128081683Y-111869950D01*
X128126564Y-111960969D01*
X128158797Y-112026336D01*
X128167574Y-112086888D01*
X128139084Y-112141035D01*
X128084207Y-112168095D01*
X128070005Y-112169119D01*
X127989996Y-112169119D01*
X127893750Y-112204149D01*
X127877158Y-112210188D01*
X127837478Y-112240636D01*
X127540635Y-112537480D01*
X127510188Y-112577157D01*
X127469119Y-112689996D01*
X127469119Y-112818735D01*
X127466226Y-112818735D01*
X127459669Y-112865376D01*
X127440695Y-112891976D01*
X127390915Y-112941757D01*
X127351356Y-113010275D01*
X127351354Y-113010279D01*
X127330876Y-113086703D01*
X127330876Y-113241020D01*
X127312303Y-113298748D01*
X127307590Y-113305313D01*
X127261298Y-113351606D01*
X127219578Y-113414045D01*
X127215756Y-113433256D01*
X127203265Y-113450659D01*
X127195028Y-113456716D01*
X127190033Y-113465634D01*
X127166813Y-113477465D01*
X127153973Y-113486908D01*
X127150573Y-113486927D01*
X127143945Y-113489672D01*
X127081511Y-113531389D01*
X126978452Y-113634448D01*
X126936735Y-113696882D01*
X126933005Y-113705890D01*
X126931413Y-113705230D01*
X126907188Y-113748479D01*
X126869626Y-113767617D01*
X126870110Y-113768785D01*
X126861102Y-113772515D01*
X126798668Y-113814232D01*
X126695609Y-113917291D01*
X126653892Y-113979725D01*
X126650162Y-113988733D01*
X126648570Y-113988073D01*
X126624346Y-114031321D01*
X126586784Y-114050460D01*
X126587268Y-114051628D01*
X126578263Y-114055357D01*
X126515826Y-114097076D01*
X126412767Y-114200135D01*
X126371048Y-114262572D01*
X126367319Y-114271577D01*
X126365728Y-114270918D01*
X126341503Y-114314165D01*
X126303936Y-114333305D01*
X126304420Y-114334472D01*
X126295412Y-114338202D01*
X126232975Y-114379921D01*
X126172392Y-114440504D01*
X126117875Y-114468281D01*
X126102389Y-114469500D01*
X125607195Y-114469500D01*
X125549004Y-114450593D01*
X125537191Y-114440504D01*
X123580613Y-112483926D01*
X123552836Y-112429409D01*
X123551617Y-112413922D01*
X123551617Y-111486077D01*
X123570524Y-111427886D01*
X123580613Y-111416073D01*
X123866485Y-111130201D01*
X124207454Y-110789233D01*
X124218571Y-110769979D01*
X124244383Y-110725270D01*
X124254705Y-110686747D01*
X124263499Y-110653930D01*
X124263499Y-110580072D01*
X124263499Y-110550706D01*
X124282406Y-110492515D01*
X124331906Y-110456551D01*
X124393092Y-110456551D01*
X124442592Y-110492515D01*
X124443590Y-110493915D01*
X124462204Y-110520499D01*
X124487359Y-110556423D01*
X124487359Y-110556424D01*
X124487360Y-110556424D01*
X124487361Y-110556426D01*
X124527039Y-110586873D01*
X124527041Y-110586874D01*
X124527044Y-110586876D01*
X124539068Y-110593818D01*
X124555540Y-110612112D01*
X124574196Y-110628180D01*
X124575680Y-110634478D01*
X124580010Y-110639287D01*
X124588569Y-110679555D01*
X124588569Y-111410705D01*
X124569662Y-111468896D01*
X124520162Y-111504860D01*
X124515193Y-111506331D01*
X124426114Y-111530200D01*
X124426110Y-111530202D01*
X124323391Y-111589507D01*
X124239507Y-111673391D01*
X124180202Y-111776109D01*
X124180067Y-111776613D01*
X124149500Y-111890691D01*
X124149500Y-112009309D01*
X124171573Y-112091686D01*
X124180202Y-112123890D01*
X124239507Y-112226608D01*
X124239509Y-112226610D01*
X124239511Y-112226613D01*
X124323387Y-112310489D01*
X124323389Y-112310490D01*
X124323391Y-112310492D01*
X124426110Y-112369797D01*
X124426111Y-112369797D01*
X124426114Y-112369799D01*
X124540691Y-112400500D01*
X124540693Y-112400500D01*
X124659307Y-112400500D01*
X124659309Y-112400500D01*
X124759939Y-112373536D01*
X124821039Y-112376739D01*
X124855565Y-112399159D01*
X125210688Y-112754282D01*
X125210687Y-112754282D01*
X125525873Y-113069467D01*
X125588310Y-113111186D01*
X125588312Y-113111187D01*
X125622099Y-113117908D01*
X125686830Y-113130785D01*
X125686832Y-113130785D01*
X125686834Y-113130785D01*
X125726240Y-113122945D01*
X125785352Y-113111187D01*
X125847791Y-113069467D01*
X125950844Y-112966414D01*
X125992564Y-112903975D01*
X125992564Y-112903973D01*
X125996296Y-112894966D01*
X125997888Y-112895625D01*
X126022099Y-112852389D01*
X126059674Y-112833243D01*
X126059189Y-112832072D01*
X126068188Y-112828344D01*
X126068194Y-112828343D01*
X126130633Y-112786623D01*
X126233686Y-112683570D01*
X126275406Y-112621131D01*
X126275407Y-112621125D01*
X126279135Y-112612126D01*
X126280728Y-112612786D01*
X126304937Y-112569550D01*
X126342517Y-112550400D01*
X126342033Y-112549232D01*
X126351040Y-112545500D01*
X126351042Y-112545500D01*
X126413481Y-112503780D01*
X126516534Y-112400727D01*
X126558254Y-112338288D01*
X126574088Y-112258691D01*
X126577852Y-112239770D01*
X126577852Y-112239766D01*
X126563798Y-112169119D01*
X126561133Y-112155721D01*
X126568323Y-112094960D01*
X126608730Y-112050669D01*
X126632961Y-112036680D01*
X126716837Y-111952804D01*
X126725178Y-111938357D01*
X126776145Y-111850081D01*
X126776145Y-111850079D01*
X126776147Y-111850077D01*
X126806848Y-111735500D01*
X126806848Y-111616882D01*
X126776147Y-111502305D01*
X126776145Y-111502302D01*
X126776145Y-111502300D01*
X126716840Y-111399582D01*
X126716838Y-111399580D01*
X126716837Y-111399578D01*
X126632961Y-111315702D01*
X126632958Y-111315700D01*
X126632956Y-111315698D01*
X126530237Y-111256393D01*
X126530238Y-111256393D01*
X126490383Y-111245714D01*
X126415657Y-111225691D01*
X126297039Y-111225691D01*
X126297034Y-111225691D01*
X126246369Y-111239266D01*
X126185268Y-111236062D01*
X126150747Y-111213644D01*
X126126614Y-111189512D01*
X126126608Y-111189507D01*
X126023889Y-111130202D01*
X126023890Y-111130202D01*
X126010351Y-111126574D01*
X125909309Y-111099500D01*
X125790691Y-111099500D01*
X125720567Y-111118289D01*
X125676109Y-111130202D01*
X125573391Y-111189507D01*
X125489507Y-111273391D01*
X125487109Y-111276517D01*
X125436684Y-111311171D01*
X125375520Y-111309568D01*
X125326979Y-111272319D01*
X125309569Y-111216247D01*
X125309569Y-110698819D01*
X125322833Y-110649319D01*
X125481119Y-110375159D01*
X125481120Y-110375156D01*
X125481124Y-110375150D01*
X125500265Y-110328942D01*
X125510730Y-110209320D01*
X125479652Y-110093333D01*
X125410777Y-109994970D01*
X125371099Y-109964523D01*
X125371096Y-109964521D01*
X125371088Y-109964516D01*
X125160000Y-109842644D01*
X125119059Y-109797175D01*
X125110500Y-109756908D01*
X125110500Y-108727541D01*
X125110500Y-108727540D01*
X125085933Y-108635853D01*
X125085931Y-108635850D01*
X125085931Y-108635848D01*
X125038475Y-108553653D01*
X125038471Y-108553648D01*
X124971352Y-108486528D01*
X124971352Y-108486529D01*
X123996351Y-107511528D01*
X123954382Y-107487297D01*
X123919439Y-107449856D01*
X123918966Y-107450195D01*
X123916394Y-107446593D01*
X123914940Y-107445035D01*
X123914198Y-107443517D01*
X123831483Y-107360802D01*
X123831481Y-107360801D01*
X123726395Y-107309427D01*
X123699139Y-107305456D01*
X123658260Y-107299500D01*
X123658257Y-107299500D01*
X122965479Y-107299500D01*
X122907288Y-107280593D01*
X122895475Y-107270504D01*
X121970043Y-106345072D01*
X121034511Y-105409540D01*
X121008163Y-105394328D01*
X121008161Y-105394326D01*
X120965990Y-105369979D01*
X120965985Y-105369977D01*
X120889564Y-105349500D01*
X120889562Y-105349500D01*
X115004429Y-105349500D01*
X114946238Y-105330593D01*
X114910274Y-105281093D01*
X114910274Y-105219907D01*
X114934425Y-105180496D01*
X114988999Y-105125922D01*
X115077139Y-105037782D01*
X115186632Y-104873914D01*
X115262051Y-104691835D01*
X115300500Y-104498541D01*
X115300500Y-104301459D01*
X115262051Y-104108165D01*
X115186632Y-103926086D01*
X115077139Y-103762218D01*
X114937782Y-103622861D01*
X114773914Y-103513368D01*
X114773915Y-103513368D01*
X114773913Y-103513367D01*
X114591835Y-103437949D01*
X114398543Y-103399500D01*
X114398541Y-103399500D01*
X114201459Y-103399500D01*
X114201456Y-103399500D01*
X114008165Y-103437949D01*
X114008163Y-103437949D01*
X113826086Y-103513367D01*
X113662218Y-103622861D01*
X113662214Y-103622864D01*
X113522864Y-103762214D01*
X113522861Y-103762218D01*
X113413367Y-103926086D01*
X113337949Y-104108163D01*
X113337949Y-104108165D01*
X113299500Y-104301456D01*
X113299500Y-104498543D01*
X113337949Y-104691834D01*
X113337949Y-104691836D01*
X113413367Y-104873913D01*
X113448719Y-104926821D01*
X113522861Y-105037782D01*
X113522864Y-105037785D01*
X113665575Y-105180496D01*
X113693352Y-105235013D01*
X113683781Y-105295445D01*
X113640516Y-105338710D01*
X113595571Y-105349500D01*
X112504429Y-105349500D01*
X112446238Y-105330593D01*
X112410274Y-105281093D01*
X112410274Y-105219907D01*
X112434425Y-105180496D01*
X112488999Y-105125922D01*
X112577139Y-105037782D01*
X112686632Y-104873914D01*
X112762051Y-104691835D01*
X112800500Y-104498541D01*
X112800500Y-104301459D01*
X112762051Y-104108165D01*
X112686632Y-103926086D01*
X112577139Y-103762218D01*
X112437782Y-103622861D01*
X112273914Y-103513368D01*
X112273915Y-103513368D01*
X112273913Y-103513367D01*
X112091835Y-103437949D01*
X111898543Y-103399500D01*
X111898541Y-103399500D01*
X111701459Y-103399500D01*
X111701456Y-103399500D01*
X111508165Y-103437949D01*
X111508163Y-103437949D01*
X111326086Y-103513367D01*
X111162218Y-103622861D01*
X111162214Y-103622864D01*
X111022864Y-103762214D01*
X111022861Y-103762218D01*
X110913367Y-103926086D01*
X110837949Y-104108163D01*
X110837949Y-104108165D01*
X110799500Y-104301456D01*
X110799500Y-104498543D01*
X110837949Y-104691834D01*
X110837949Y-104691836D01*
X110913367Y-104873913D01*
X110948719Y-104926821D01*
X111022861Y-105037782D01*
X111022864Y-105037785D01*
X111165575Y-105180496D01*
X111193352Y-105235013D01*
X111183781Y-105295445D01*
X111140516Y-105338710D01*
X111095571Y-105349500D01*
X110989562Y-105349500D01*
X110910438Y-105349500D01*
X110863661Y-105362033D01*
X110834007Y-105369979D01*
X110765493Y-105409536D01*
X109404525Y-106770504D01*
X109350008Y-106798281D01*
X109334521Y-106799500D01*
X109290691Y-106799500D01*
X109243862Y-106812048D01*
X109176109Y-106830202D01*
X109073391Y-106889507D01*
X108989507Y-106973391D01*
X108930202Y-107076109D01*
X108927928Y-107084597D01*
X108899500Y-107190691D01*
X108899500Y-107309309D01*
X108923935Y-107400500D01*
X108930202Y-107423890D01*
X108989507Y-107526608D01*
X108989509Y-107526610D01*
X108989511Y-107526613D01*
X109073387Y-107610489D01*
X109073389Y-107610490D01*
X109073391Y-107610492D01*
X109176110Y-107669797D01*
X109176111Y-107669797D01*
X109176114Y-107669799D01*
X109290691Y-107700500D01*
X109290693Y-107700500D01*
X109409307Y-107700500D01*
X109409309Y-107700500D01*
X109523886Y-107669799D01*
X109523888Y-107669797D01*
X109523890Y-107669797D01*
X109626608Y-107610492D01*
X109626608Y-107610491D01*
X109626613Y-107610489D01*
X109710489Y-107526613D01*
X109710492Y-107526608D01*
X109769797Y-107423890D01*
X109769797Y-107423888D01*
X109769799Y-107423886D01*
X109800500Y-107309309D01*
X109800500Y-107265479D01*
X109819407Y-107207288D01*
X109829496Y-107195475D01*
X111045475Y-105979496D01*
X111099992Y-105951719D01*
X111115479Y-105950500D01*
X120684521Y-105950500D01*
X120742712Y-105969407D01*
X120754525Y-105979496D01*
X122082170Y-107307141D01*
X122109947Y-107361658D01*
X122100376Y-107422090D01*
X122089971Y-107436414D01*
X122090569Y-107436841D01*
X122085801Y-107443518D01*
X122034427Y-107548604D01*
X122031052Y-107571770D01*
X122024500Y-107616740D01*
X122024500Y-107983260D01*
X122029084Y-108014721D01*
X122034427Y-108051395D01*
X122071989Y-108128228D01*
X122085802Y-108156483D01*
X122159316Y-108229997D01*
X122187092Y-108284512D01*
X122177521Y-108344944D01*
X122159315Y-108370002D01*
X122085803Y-108443514D01*
X122085801Y-108443517D01*
X122034427Y-108548603D01*
X122032836Y-108559524D01*
X122024500Y-108616739D01*
X122024500Y-108983259D01*
X122026146Y-108994554D01*
X122034427Y-109051394D01*
X122075061Y-109134511D01*
X122085802Y-109156482D01*
X122168517Y-109239197D01*
X122191638Y-109250500D01*
X122273604Y-109290571D01*
X122273605Y-109290571D01*
X122273607Y-109290572D01*
X122341740Y-109300499D01*
X123512805Y-109300499D01*
X123520402Y-109302967D01*
X123528291Y-109301718D01*
X123548944Y-109312241D01*
X123570996Y-109319406D01*
X123582808Y-109329495D01*
X123673502Y-109420188D01*
X123701280Y-109474704D01*
X123702499Y-109490192D01*
X123702499Y-110459806D01*
X123683592Y-110517997D01*
X123673503Y-110529810D01*
X123162421Y-111040891D01*
X123141917Y-111056623D01*
X123098890Y-111081464D01*
X123046661Y-111133693D01*
X123009733Y-111197654D01*
X123009733Y-111197655D01*
X122990617Y-111268996D01*
X122990617Y-111268998D01*
X122990617Y-112463109D01*
X122987158Y-112473754D01*
X122988189Y-112484899D01*
X122977922Y-112502179D01*
X122971710Y-112521300D01*
X122962654Y-112527879D01*
X122956938Y-112537501D01*
X122938475Y-112545446D01*
X122922210Y-112557264D01*
X122911016Y-112557264D01*
X122900736Y-112561688D01*
X122885413Y-112557264D01*
X122861024Y-112557264D01*
X122841051Y-112548221D01*
X122835492Y-112544918D01*
X122835114Y-112544540D01*
X122826492Y-112539562D01*
X122766592Y-112504979D01*
X122766590Y-112504978D01*
X122766588Y-112504977D01*
X122690167Y-112484500D01*
X122690165Y-112484500D01*
X122668523Y-112484500D01*
X122610332Y-112465593D01*
X122598519Y-112455504D01*
X120777493Y-110634478D01*
X118952555Y-108809540D01*
X118952552Y-108809538D01*
X118884033Y-108769979D01*
X118884029Y-108769977D01*
X118807608Y-108749500D01*
X118807606Y-108749500D01*
X108914395Y-108749500D01*
X108856204Y-108730593D01*
X108824671Y-108692340D01*
X108814066Y-108669598D01*
X108814065Y-108669597D01*
X108814065Y-108669596D01*
X108730404Y-108585935D01*
X108730402Y-108585934D01*
X108730401Y-108585933D01*
X108623175Y-108535932D01*
X108590601Y-108531644D01*
X108574316Y-108529500D01*
X108225684Y-108529500D01*
X108209398Y-108531644D01*
X108176825Y-108535932D01*
X108176824Y-108535932D01*
X108069598Y-108585933D01*
X107985933Y-108669598D01*
X107979726Y-108682909D01*
X107937996Y-108727656D01*
X107877934Y-108739329D01*
X107822483Y-108713469D01*
X107800279Y-108682906D01*
X107794072Y-108669596D01*
X107794071Y-108669595D01*
X107794071Y-108669594D01*
X107710410Y-108585933D01*
X107710408Y-108585932D01*
X107710407Y-108585931D01*
X107603181Y-108535930D01*
X107570607Y-108531642D01*
X107554322Y-108529498D01*
X107205690Y-108529498D01*
X107189404Y-108531642D01*
X107156831Y-108535930D01*
X107156830Y-108535930D01*
X107049604Y-108585931D01*
X106965939Y-108669596D01*
X106955335Y-108692338D01*
X106913607Y-108737086D01*
X106865611Y-108749498D01*
X106326902Y-108749498D01*
X106310227Y-108744080D01*
X106292711Y-108743406D01*
X106281854Y-108734861D01*
X106268711Y-108730591D01*
X106244631Y-108705565D01*
X106244297Y-108705066D01*
X106227641Y-108646192D01*
X106244253Y-108594996D01*
X106244549Y-108594552D01*
X106244552Y-108594551D01*
X106288867Y-108528230D01*
X106300500Y-108469747D01*
X106300500Y-108030251D01*
X106288867Y-107971768D01*
X106268547Y-107941357D01*
X106244254Y-107905001D01*
X106227645Y-107846113D01*
X106244254Y-107794996D01*
X106244549Y-107794553D01*
X106244552Y-107794552D01*
X106288867Y-107728231D01*
X106300500Y-107669748D01*
X106300500Y-107230252D01*
X106288867Y-107171769D01*
X106284037Y-107164541D01*
X106244254Y-107105002D01*
X106227645Y-107046114D01*
X106244254Y-106994997D01*
X106244550Y-106994553D01*
X106244553Y-106994552D01*
X106288868Y-106928231D01*
X106300501Y-106869748D01*
X106300501Y-106430252D01*
X106288868Y-106371769D01*
X106244553Y-106305448D01*
X106244549Y-106305445D01*
X106178234Y-106261134D01*
X106178232Y-106261133D01*
X106178229Y-106261132D01*
X106178228Y-106261132D01*
X106119759Y-106249501D01*
X106119749Y-106249500D01*
X105499500Y-106249500D01*
X105441309Y-106230593D01*
X105405345Y-106181093D01*
X105400500Y-106150500D01*
X105400500Y-106030253D01*
X105400498Y-106030241D01*
X105394974Y-106002471D01*
X105388867Y-105971769D01*
X105344552Y-105905448D01*
X105344551Y-105905447D01*
X105344253Y-105905001D01*
X105327644Y-105846113D01*
X105344253Y-105794996D01*
X105344549Y-105794552D01*
X105344552Y-105794551D01*
X105388867Y-105728230D01*
X105400500Y-105669747D01*
X105400500Y-105549500D01*
X105419407Y-105491309D01*
X105468907Y-105455345D01*
X105499500Y-105450500D01*
X106119747Y-105450500D01*
X106119748Y-105450500D01*
X106178231Y-105438867D01*
X106244552Y-105394552D01*
X106288867Y-105328231D01*
X106300500Y-105269748D01*
X106300500Y-104830252D01*
X106288867Y-104771769D01*
X106244552Y-104705448D01*
X106244549Y-104705446D01*
X106244253Y-104705003D01*
X106227644Y-104646115D01*
X106244253Y-104594997D01*
X106244549Y-104594553D01*
X106244552Y-104594552D01*
X106288867Y-104528231D01*
X106300500Y-104469748D01*
X106300500Y-104030252D01*
X106288867Y-103971769D01*
X106244552Y-103905448D01*
X106244549Y-103905446D01*
X106244253Y-103905003D01*
X106236952Y-103879117D01*
X106227644Y-103853886D01*
X106228739Y-103850000D01*
X106227644Y-103846115D01*
X106229406Y-103840691D01*
X108199500Y-103840691D01*
X108199500Y-103959309D01*
X108221498Y-104041407D01*
X108230202Y-104073890D01*
X108289509Y-104176610D01*
X108289859Y-104177067D01*
X108289996Y-104177454D01*
X108292755Y-104182233D01*
X108291869Y-104182744D01*
X108310281Y-104234743D01*
X108308413Y-104256645D01*
X108299500Y-104301453D01*
X108299500Y-104498543D01*
X108337949Y-104691834D01*
X108337949Y-104691836D01*
X108413367Y-104873913D01*
X108448719Y-104926821D01*
X108522861Y-105037782D01*
X108662218Y-105177139D01*
X108826086Y-105286632D01*
X109008165Y-105362051D01*
X109201459Y-105400500D01*
X109201460Y-105400500D01*
X109398540Y-105400500D01*
X109398541Y-105400500D01*
X109591835Y-105362051D01*
X109773914Y-105286632D01*
X109937782Y-105177139D01*
X110077139Y-105037782D01*
X110186632Y-104873914D01*
X110262051Y-104691835D01*
X110300500Y-104498541D01*
X110300500Y-104301459D01*
X110262051Y-104108165D01*
X110186632Y-103926086D01*
X110077139Y-103762218D01*
X109937782Y-103622861D01*
X109773914Y-103513368D01*
X109773915Y-103513368D01*
X109773913Y-103513367D01*
X109591835Y-103437949D01*
X109398543Y-103399500D01*
X109398541Y-103399500D01*
X109201459Y-103399500D01*
X109201456Y-103399500D01*
X109008165Y-103437949D01*
X109008163Y-103437949D01*
X108902907Y-103481547D01*
X108841910Y-103486347D01*
X108827140Y-103481548D01*
X108823894Y-103480203D01*
X108799677Y-103473714D01*
X108709309Y-103449500D01*
X108590691Y-103449500D01*
X108547273Y-103461134D01*
X108476109Y-103480202D01*
X108373391Y-103539507D01*
X108289507Y-103623391D01*
X108230202Y-103726109D01*
X108220817Y-103761134D01*
X108199500Y-103840691D01*
X106229406Y-103840691D01*
X106244253Y-103794998D01*
X106244550Y-103794553D01*
X106244552Y-103794552D01*
X106288867Y-103728231D01*
X106300500Y-103669748D01*
X106300500Y-103230252D01*
X106288867Y-103171769D01*
X106244552Y-103105448D01*
X106199499Y-103075344D01*
X106178233Y-103061134D01*
X106178231Y-103061133D01*
X106178228Y-103061132D01*
X106178227Y-103061132D01*
X106119758Y-103049501D01*
X106119748Y-103049500D01*
X105499500Y-103049500D01*
X105441309Y-103030593D01*
X105405345Y-102981093D01*
X105400500Y-102950500D01*
X105400500Y-102830253D01*
X105400498Y-102830241D01*
X105397711Y-102816231D01*
X105388867Y-102771769D01*
X105344552Y-102705448D01*
X105344549Y-102705446D01*
X105344253Y-102705003D01*
X105327644Y-102646115D01*
X105344253Y-102594997D01*
X105344549Y-102594553D01*
X105344552Y-102594552D01*
X105388867Y-102528231D01*
X105400500Y-102469748D01*
X105400500Y-102349500D01*
X105419407Y-102291309D01*
X105468907Y-102255345D01*
X105499500Y-102250500D01*
X106119747Y-102250500D01*
X106119748Y-102250500D01*
X106178231Y-102238867D01*
X106244552Y-102194552D01*
X106288867Y-102128231D01*
X106300500Y-102069748D01*
X106300500Y-101889881D01*
X106319407Y-101831690D01*
X106368907Y-101795726D01*
X106430093Y-101795726D01*
X106448999Y-101804144D01*
X106476114Y-101819799D01*
X106590691Y-101850500D01*
X106590693Y-101850500D01*
X106709307Y-101850500D01*
X106709309Y-101850500D01*
X106823886Y-101819799D01*
X106823888Y-101819797D01*
X106823890Y-101819797D01*
X106926608Y-101760492D01*
X106926608Y-101760491D01*
X106926613Y-101760489D01*
X107010489Y-101676613D01*
X107012061Y-101673890D01*
X107069797Y-101573890D01*
X107069797Y-101573888D01*
X107069799Y-101573886D01*
X107100500Y-101459309D01*
X107100500Y-101340691D01*
X107069799Y-101226114D01*
X107069797Y-101226111D01*
X107069797Y-101226109D01*
X107010492Y-101123391D01*
X107010490Y-101123389D01*
X107010489Y-101123387D01*
X106928780Y-101041678D01*
X106901005Y-100987164D01*
X106910576Y-100926732D01*
X106913038Y-100922197D01*
X106969799Y-100823886D01*
X107000500Y-100709309D01*
X107000500Y-100590691D01*
X106969799Y-100476114D01*
X106928730Y-100404981D01*
X106914451Y-100380249D01*
X108299500Y-100380249D01*
X108299500Y-102019746D01*
X108299501Y-102019758D01*
X108311132Y-102078227D01*
X108311134Y-102078233D01*
X108347825Y-102133144D01*
X108355448Y-102144552D01*
X108421769Y-102188867D01*
X108462812Y-102197031D01*
X108480241Y-102200498D01*
X108480246Y-102200498D01*
X108480252Y-102200500D01*
X108480253Y-102200500D01*
X110119747Y-102200500D01*
X110119748Y-102200500D01*
X110178231Y-102188867D01*
X110244552Y-102144552D01*
X110288867Y-102078231D01*
X110300500Y-102019748D01*
X110300500Y-101101456D01*
X110799500Y-101101456D01*
X110799500Y-101298543D01*
X110837949Y-101491834D01*
X110837949Y-101491836D01*
X110913367Y-101673913D01*
X110945346Y-101721772D01*
X111022861Y-101837782D01*
X111162218Y-101977139D01*
X111326086Y-102086632D01*
X111508165Y-102162051D01*
X111701459Y-102200500D01*
X111701460Y-102200500D01*
X111898540Y-102200500D01*
X111898541Y-102200500D01*
X112091835Y-102162051D01*
X112273914Y-102086632D01*
X112437782Y-101977139D01*
X112577139Y-101837782D01*
X112686632Y-101673914D01*
X112762051Y-101491835D01*
X112800500Y-101298541D01*
X112800500Y-101101459D01*
X112800499Y-101101456D01*
X113299500Y-101101456D01*
X113299500Y-101298543D01*
X113337949Y-101491834D01*
X113337949Y-101491836D01*
X113413367Y-101673913D01*
X113445346Y-101721772D01*
X113522861Y-101837782D01*
X113662218Y-101977139D01*
X113826086Y-102086632D01*
X114008165Y-102162051D01*
X114201459Y-102200500D01*
X114201460Y-102200500D01*
X114398540Y-102200500D01*
X114398541Y-102200500D01*
X114591835Y-102162051D01*
X114773914Y-102086632D01*
X114937782Y-101977139D01*
X115077139Y-101837782D01*
X115186632Y-101673914D01*
X115262051Y-101491835D01*
X115300500Y-101298541D01*
X115300500Y-101101459D01*
X115262051Y-100908165D01*
X115186632Y-100726086D01*
X115077139Y-100562218D01*
X114937782Y-100422861D01*
X114828288Y-100349699D01*
X114773913Y-100313367D01*
X114591835Y-100237949D01*
X114398543Y-100199500D01*
X114398541Y-100199500D01*
X114201459Y-100199500D01*
X114201456Y-100199500D01*
X114008165Y-100237949D01*
X114008163Y-100237949D01*
X113826086Y-100313367D01*
X113662218Y-100422861D01*
X113662214Y-100422864D01*
X113522864Y-100562214D01*
X113522861Y-100562218D01*
X113413367Y-100726086D01*
X113337949Y-100908163D01*
X113337949Y-100908165D01*
X113299500Y-101101456D01*
X112800499Y-101101456D01*
X112762051Y-100908165D01*
X112686632Y-100726086D01*
X112577139Y-100562218D01*
X112437782Y-100422861D01*
X112328288Y-100349699D01*
X112273913Y-100313367D01*
X112091835Y-100237949D01*
X111898543Y-100199500D01*
X111898541Y-100199500D01*
X111701459Y-100199500D01*
X111701456Y-100199500D01*
X111508165Y-100237949D01*
X111508163Y-100237949D01*
X111326086Y-100313367D01*
X111162218Y-100422861D01*
X111162214Y-100422864D01*
X111022864Y-100562214D01*
X111022861Y-100562218D01*
X110913367Y-100726086D01*
X110837949Y-100908163D01*
X110837949Y-100908165D01*
X110799500Y-101101456D01*
X110300500Y-101101456D01*
X110300500Y-100380252D01*
X110300500Y-100380250D01*
X110300500Y-100380249D01*
X110300498Y-100380241D01*
X110292887Y-100341979D01*
X110288867Y-100321769D01*
X110244552Y-100255448D01*
X110235652Y-100249501D01*
X110178233Y-100211134D01*
X110178231Y-100211133D01*
X110178228Y-100211132D01*
X110178227Y-100211132D01*
X110119758Y-100199501D01*
X110119748Y-100199500D01*
X108480252Y-100199500D01*
X108480251Y-100199500D01*
X108480241Y-100199501D01*
X108421772Y-100211132D01*
X108421766Y-100211134D01*
X108355451Y-100255445D01*
X108355445Y-100255451D01*
X108311134Y-100321766D01*
X108311132Y-100321772D01*
X108299501Y-100380241D01*
X108299500Y-100380249D01*
X106914451Y-100380249D01*
X106910492Y-100373391D01*
X106910490Y-100373389D01*
X106910489Y-100373387D01*
X106826613Y-100289511D01*
X106826610Y-100289509D01*
X106826608Y-100289507D01*
X106723889Y-100230202D01*
X106723890Y-100230202D01*
X106710351Y-100226574D01*
X106609309Y-100199500D01*
X106490691Y-100199500D01*
X106447273Y-100211134D01*
X106376109Y-100230202D01*
X106273391Y-100289507D01*
X106189507Y-100373391D01*
X106130202Y-100476109D01*
X106129549Y-100478547D01*
X106104298Y-100572787D01*
X106103404Y-100576123D01*
X106070080Y-100627438D01*
X106012958Y-100649364D01*
X106007777Y-100649500D01*
X105499500Y-100649500D01*
X105441309Y-100630593D01*
X105405345Y-100581093D01*
X105400500Y-100550500D01*
X105400500Y-100430253D01*
X105400498Y-100430241D01*
X105390811Y-100381543D01*
X105388867Y-100371769D01*
X105344552Y-100305448D01*
X105320695Y-100289507D01*
X105278233Y-100261134D01*
X105278231Y-100261133D01*
X105278228Y-100261132D01*
X105278227Y-100261132D01*
X105219758Y-100249501D01*
X105219748Y-100249500D01*
X104580252Y-100249500D01*
X104580251Y-100249500D01*
X104580241Y-100249501D01*
X104521772Y-100261132D01*
X104521766Y-100261134D01*
X104455451Y-100305445D01*
X104455445Y-100305451D01*
X104411134Y-100371766D01*
X104411132Y-100371772D01*
X104399501Y-100430241D01*
X104399500Y-100430253D01*
X104399500Y-100869746D01*
X104399501Y-100869758D01*
X104411132Y-100928227D01*
X104411134Y-100928233D01*
X104455746Y-100994998D01*
X104472355Y-101053886D01*
X104455746Y-101105002D01*
X104411134Y-101171766D01*
X104411132Y-101171772D01*
X104399501Y-101230241D01*
X104399500Y-101230253D01*
X104399500Y-101535521D01*
X104392336Y-101557568D01*
X104388710Y-101580466D01*
X104383061Y-101586114D01*
X104380593Y-101593712D01*
X104361836Y-101607339D01*
X104345445Y-101623731D01*
X104337555Y-101624980D01*
X104331093Y-101629676D01*
X104307908Y-101629676D01*
X104285013Y-101633302D01*
X104277896Y-101629676D01*
X104269907Y-101629676D01*
X104230496Y-101605525D01*
X104179496Y-101554525D01*
X104151719Y-101500008D01*
X104150500Y-101484521D01*
X104150500Y-101440692D01*
X104147957Y-101431200D01*
X104119799Y-101326114D01*
X104119797Y-101326111D01*
X104119797Y-101326109D01*
X104060492Y-101223391D01*
X104060490Y-101223389D01*
X104060489Y-101223387D01*
X103976613Y-101139511D01*
X103976610Y-101139509D01*
X103976608Y-101139507D01*
X103873889Y-101080202D01*
X103873890Y-101080202D01*
X103855763Y-101075345D01*
X103759309Y-101049500D01*
X103640691Y-101049500D01*
X103584759Y-101064487D01*
X103526109Y-101080202D01*
X103423391Y-101139507D01*
X103339507Y-101223391D01*
X103280202Y-101326109D01*
X103276295Y-101340691D01*
X103249500Y-101440691D01*
X103249500Y-101559309D01*
X103271916Y-101642966D01*
X103280202Y-101673890D01*
X103339507Y-101776608D01*
X103339509Y-101776610D01*
X103339511Y-101776613D01*
X103423387Y-101860489D01*
X103423389Y-101860490D01*
X103423391Y-101860492D01*
X103526110Y-101919797D01*
X103526111Y-101919797D01*
X103526114Y-101919799D01*
X103640691Y-101950500D01*
X103684521Y-101950500D01*
X103742712Y-101969407D01*
X103754525Y-101979496D01*
X104209540Y-102434511D01*
X104209539Y-102434511D01*
X104265489Y-102490460D01*
X104334007Y-102530019D01*
X104334011Y-102530021D01*
X104393419Y-102545940D01*
X104397358Y-102548498D01*
X104402051Y-102548682D01*
X104422691Y-102564950D01*
X104444733Y-102579264D01*
X104450105Y-102586556D01*
X104455448Y-102594552D01*
X104455449Y-102594553D01*
X104455741Y-102594989D01*
X104472355Y-102653876D01*
X104455746Y-102705001D01*
X104411134Y-102771766D01*
X104411132Y-102771772D01*
X104399501Y-102830241D01*
X104399500Y-102830253D01*
X104399500Y-103269746D01*
X104399501Y-103269758D01*
X104411132Y-103328227D01*
X104411134Y-103328233D01*
X104455745Y-103394997D01*
X104463031Y-103420832D01*
X104472350Y-103446009D01*
X104471243Y-103449947D01*
X104472354Y-103453885D01*
X104455803Y-103504914D01*
X104455469Y-103505415D01*
X104407459Y-103543345D01*
X104373096Y-103549500D01*
X104365479Y-103549500D01*
X104353263Y-103545531D01*
X104346323Y-103545811D01*
X104338905Y-103540865D01*
X104307288Y-103530593D01*
X104295476Y-103520504D01*
X104256510Y-103481539D01*
X104256509Y-103481538D01*
X104254195Y-103480202D01*
X104187990Y-103441979D01*
X104187985Y-103441977D01*
X104111564Y-103421500D01*
X104111562Y-103421500D01*
X101644643Y-103421500D01*
X101586452Y-103402593D01*
X101574639Y-103392504D01*
X99301139Y-101119004D01*
X99273362Y-101064487D01*
X99282933Y-101004055D01*
X99326198Y-100960790D01*
X99371143Y-100950000D01*
X100449999Y-100950000D01*
X100450000Y-100950000D01*
X100450000Y-99807865D01*
X100468907Y-99749674D01*
X100518407Y-99713710D01*
X100549131Y-99708865D01*
X116708951Y-99730911D01*
G37*
%TD.AperFunction*%
%TA.AperFunction,Conductor*%
G36*
X97605028Y-111294271D02*
G01*
X97605529Y-111294606D01*
X97643392Y-111342668D01*
X97649500Y-111376903D01*
X97649500Y-112200500D01*
X97630593Y-112258691D01*
X97581093Y-112294655D01*
X97550500Y-112299500D01*
X97366740Y-112299500D01*
X97332673Y-112304463D01*
X97298604Y-112309427D01*
X97193518Y-112360801D01*
X97110801Y-112443518D01*
X97059427Y-112548604D01*
X97055267Y-112577157D01*
X97050173Y-112612126D01*
X97049500Y-112616743D01*
X97049500Y-113050501D01*
X97044655Y-113065412D01*
X97044655Y-113081094D01*
X97035438Y-113093779D01*
X97030593Y-113108692D01*
X97017907Y-113117908D01*
X97008691Y-113130594D01*
X96993778Y-113135439D01*
X96981093Y-113144656D01*
X96950500Y-113149501D01*
X96781236Y-113149501D01*
X96723045Y-113130594D01*
X96709918Y-113117236D01*
X96709345Y-113117810D01*
X96703221Y-113111686D01*
X96703221Y-113111685D01*
X96618313Y-113026777D01*
X96618311Y-113026776D01*
X96618310Y-113026775D01*
X96509486Y-112976030D01*
X96509485Y-112976029D01*
X96492955Y-112973853D01*
X96459898Y-112969501D01*
X96459896Y-112969501D01*
X96040100Y-112969501D01*
X96040089Y-112969502D01*
X95990510Y-112976028D01*
X95990508Y-112976028D01*
X95881683Y-113026775D01*
X95881681Y-113026776D01*
X95881681Y-113026777D01*
X95816464Y-113091993D01*
X95761950Y-113119769D01*
X95701518Y-113110198D01*
X95696427Y-113107413D01*
X95685453Y-113100985D01*
X95680403Y-113095935D01*
X95662884Y-113087766D01*
X95658888Y-113085425D01*
X95641486Y-113065853D01*
X95622336Y-113047995D01*
X95621420Y-113043285D01*
X95618232Y-113039699D01*
X95615657Y-113013636D01*
X95610662Y-112987934D01*
X95612689Y-112983585D01*
X95612218Y-112978810D01*
X95625456Y-112956208D01*
X95636521Y-112932482D01*
X95641452Y-112928898D01*
X95643142Y-112926015D01*
X95648877Y-112923504D01*
X95667081Y-112910277D01*
X95680405Y-112904065D01*
X95764066Y-112820404D01*
X95814069Y-112713173D01*
X95820501Y-112664316D01*
X95820501Y-112435479D01*
X95822969Y-112427881D01*
X95821720Y-112419992D01*
X95832244Y-112399336D01*
X95839408Y-112377288D01*
X95849497Y-112365475D01*
X95903475Y-112311497D01*
X95957992Y-112283720D01*
X95973479Y-112282501D01*
X96157561Y-112282501D01*
X96157561Y-112282500D01*
X96233987Y-112262022D01*
X96302509Y-112222461D01*
X96358458Y-112166512D01*
X97145474Y-111379496D01*
X97199991Y-111351719D01*
X97215478Y-111350500D01*
X97369746Y-111350500D01*
X97369747Y-111350500D01*
X97428230Y-111338867D01*
X97494551Y-111294552D01*
X97494552Y-111294549D01*
X97494996Y-111294253D01*
X97553884Y-111277644D01*
X97605028Y-111294271D01*
G37*
%TD.AperFunction*%
%TA.AperFunction,Conductor*%
G36*
X111493712Y-109369407D02*
G01*
X111529676Y-109418907D01*
X111529676Y-109480093D01*
X111505525Y-109519504D01*
X111254525Y-109770504D01*
X111200008Y-109798281D01*
X111184521Y-109799500D01*
X111140691Y-109799500D01*
X111086327Y-109814067D01*
X111026109Y-109830202D01*
X110923391Y-109889507D01*
X110839507Y-109973391D01*
X110780202Y-110076109D01*
X110749500Y-110190692D01*
X110749500Y-110309314D01*
X110749678Y-110310667D01*
X110749500Y-110311626D01*
X110749500Y-110315798D01*
X110748727Y-110315798D01*
X110738523Y-110370827D01*
X110694137Y-110412940D01*
X110633475Y-110420922D01*
X110602023Y-110409317D01*
X110593683Y-110404502D01*
X110545370Y-110376608D01*
X110523888Y-110364205D01*
X110523887Y-110364204D01*
X110523886Y-110364204D01*
X110409309Y-110333503D01*
X110290691Y-110333503D01*
X110230990Y-110349500D01*
X110176109Y-110364205D01*
X110073391Y-110423510D01*
X109989507Y-110507394D01*
X109930202Y-110610112D01*
X109899500Y-110724695D01*
X109899500Y-110825525D01*
X109880593Y-110883716D01*
X109831093Y-110919680D01*
X109769907Y-110919680D01*
X109730496Y-110895529D01*
X108909493Y-110074526D01*
X108881716Y-110020009D01*
X108880497Y-110004522D01*
X108880497Y-109775686D01*
X108879815Y-109770504D01*
X108874065Y-109726828D01*
X108855533Y-109687087D01*
X108824063Y-109619599D01*
X108824062Y-109619598D01*
X108824062Y-109619597D01*
X108794468Y-109590003D01*
X108766693Y-109535489D01*
X108776264Y-109475057D01*
X108783678Y-109462792D01*
X108788531Y-109455937D01*
X108814065Y-109430404D01*
X108828441Y-109399574D01*
X108833599Y-109392290D01*
X108851321Y-109379080D01*
X108866399Y-109362912D01*
X108876529Y-109360292D01*
X108882657Y-109355725D01*
X108894761Y-109355577D01*
X108914395Y-109350500D01*
X111435521Y-109350500D01*
X111493712Y-109369407D01*
G37*
%TD.AperFunction*%
%TA.AperFunction,Conductor*%
G36*
X98271876Y-100941407D02*
G01*
X98283689Y-100951496D01*
X100912689Y-103580496D01*
X100940466Y-103635013D01*
X100930895Y-103695445D01*
X100887630Y-103738710D01*
X100842685Y-103749500D01*
X100530252Y-103749500D01*
X100530251Y-103749500D01*
X100530241Y-103749501D01*
X100471772Y-103761132D01*
X100471766Y-103761134D01*
X100405002Y-103805746D01*
X100346114Y-103822355D01*
X100294998Y-103805746D01*
X100228233Y-103761134D01*
X100228231Y-103761133D01*
X100228228Y-103761132D01*
X100228227Y-103761132D01*
X100169758Y-103749501D01*
X100169748Y-103749500D01*
X99730252Y-103749500D01*
X99730251Y-103749500D01*
X99730241Y-103749501D01*
X99671772Y-103761132D01*
X99671766Y-103761134D01*
X99605002Y-103805746D01*
X99546114Y-103822355D01*
X99494998Y-103805746D01*
X99428233Y-103761134D01*
X99428231Y-103761133D01*
X99428228Y-103761132D01*
X99428227Y-103761132D01*
X99369758Y-103749501D01*
X99369748Y-103749500D01*
X98930252Y-103749500D01*
X98930251Y-103749500D01*
X98930241Y-103749501D01*
X98871772Y-103761132D01*
X98871766Y-103761134D01*
X98805451Y-103805445D01*
X98805445Y-103805451D01*
X98761134Y-103871766D01*
X98761132Y-103871772D01*
X98749501Y-103930241D01*
X98749500Y-103930253D01*
X98749500Y-104569746D01*
X98749501Y-104569758D01*
X98761132Y-104628227D01*
X98761134Y-104628233D01*
X98803633Y-104691836D01*
X98805448Y-104694552D01*
X98871769Y-104738867D01*
X98916231Y-104747711D01*
X98930241Y-104750498D01*
X98930246Y-104750498D01*
X98930252Y-104750500D01*
X98930253Y-104750500D01*
X99369747Y-104750500D01*
X99369748Y-104750500D01*
X99428231Y-104738867D01*
X99494552Y-104694552D01*
X99494553Y-104694549D01*
X99494997Y-104694253D01*
X99553885Y-104677644D01*
X99605003Y-104694253D01*
X99605446Y-104694549D01*
X99605448Y-104694552D01*
X99671769Y-104738867D01*
X99716231Y-104747711D01*
X99730241Y-104750498D01*
X99730246Y-104750498D01*
X99730252Y-104750500D01*
X99730253Y-104750500D01*
X100169747Y-104750500D01*
X100169748Y-104750500D01*
X100228231Y-104738867D01*
X100294552Y-104694552D01*
X100294553Y-104694549D01*
X100294997Y-104694253D01*
X100353885Y-104677644D01*
X100405003Y-104694253D01*
X100405446Y-104694549D01*
X100405448Y-104694552D01*
X100471769Y-104738867D01*
X100516231Y-104747711D01*
X100530241Y-104750498D01*
X100530246Y-104750498D01*
X100530252Y-104750500D01*
X100530253Y-104750500D01*
X100969747Y-104750500D01*
X100969748Y-104750500D01*
X101028231Y-104738867D01*
X101094552Y-104694552D01*
X101094553Y-104694549D01*
X101094997Y-104694253D01*
X101153885Y-104677644D01*
X101205003Y-104694253D01*
X101205446Y-104694549D01*
X101205448Y-104694552D01*
X101271769Y-104738867D01*
X101316231Y-104747711D01*
X101330241Y-104750498D01*
X101330246Y-104750498D01*
X101330252Y-104750500D01*
X101330253Y-104750500D01*
X101769747Y-104750500D01*
X101769748Y-104750500D01*
X101828231Y-104738867D01*
X101894552Y-104694552D01*
X101894553Y-104694549D01*
X101894997Y-104694253D01*
X101953885Y-104677644D01*
X102005003Y-104694253D01*
X102005446Y-104694549D01*
X102005448Y-104694552D01*
X102071769Y-104738867D01*
X102116231Y-104747711D01*
X102130241Y-104750498D01*
X102130246Y-104750498D01*
X102130252Y-104750500D01*
X102130253Y-104750500D01*
X102569747Y-104750500D01*
X102569748Y-104750500D01*
X102628231Y-104738867D01*
X102694552Y-104694552D01*
X102694553Y-104694549D01*
X102694997Y-104694253D01*
X102753885Y-104677644D01*
X102805003Y-104694253D01*
X102805446Y-104694549D01*
X102805448Y-104694552D01*
X102871769Y-104738867D01*
X102916231Y-104747711D01*
X102930241Y-104750498D01*
X102930246Y-104750498D01*
X102930252Y-104750500D01*
X102930253Y-104750500D01*
X103369747Y-104750500D01*
X103369748Y-104750500D01*
X103428231Y-104738867D01*
X103494552Y-104694552D01*
X103538867Y-104628231D01*
X103550500Y-104569748D01*
X103550500Y-104121500D01*
X103569407Y-104063309D01*
X103618907Y-104027345D01*
X103649500Y-104022500D01*
X103906521Y-104022500D01*
X103964712Y-104041407D01*
X103976524Y-104051496D01*
X104015489Y-104090460D01*
X104084007Y-104130019D01*
X104084011Y-104130021D01*
X104160435Y-104150499D01*
X104160437Y-104150500D01*
X104160438Y-104150500D01*
X104373096Y-104150500D01*
X104389811Y-104155931D01*
X104407373Y-104156623D01*
X104418187Y-104165150D01*
X104431287Y-104169407D01*
X104455418Y-104194509D01*
X104455752Y-104195009D01*
X104472353Y-104253899D01*
X104455746Y-104305001D01*
X104411134Y-104371767D01*
X104411132Y-104371772D01*
X104399501Y-104430241D01*
X104399500Y-104430253D01*
X104399500Y-104869746D01*
X104399501Y-104869758D01*
X104411132Y-104928227D01*
X104411134Y-104928233D01*
X104455745Y-104994997D01*
X104472354Y-105053885D01*
X104455746Y-105105000D01*
X104411134Y-105171766D01*
X104411132Y-105171771D01*
X104399501Y-105230240D01*
X104399500Y-105230252D01*
X104399500Y-105669745D01*
X104399501Y-105669757D01*
X104411132Y-105728226D01*
X104411134Y-105728232D01*
X104455746Y-105794997D01*
X104472355Y-105853885D01*
X104455746Y-105905001D01*
X104411134Y-105971766D01*
X104411132Y-105971772D01*
X104399501Y-106030241D01*
X104399500Y-106030253D01*
X104399500Y-106408044D01*
X104380593Y-106466235D01*
X104331093Y-106502199D01*
X104274881Y-106503672D01*
X104264537Y-106500900D01*
X104259309Y-106499500D01*
X104140691Y-106499500D01*
X104070567Y-106518289D01*
X104026109Y-106530202D01*
X103923391Y-106589507D01*
X103839507Y-106673391D01*
X103780202Y-106776109D01*
X103770572Y-106812048D01*
X103749500Y-106890691D01*
X103749500Y-107009309D01*
X103775141Y-107105001D01*
X103780202Y-107123890D01*
X103839507Y-107226608D01*
X103839509Y-107226610D01*
X103839511Y-107226613D01*
X103923387Y-107310489D01*
X103923389Y-107310490D01*
X103923391Y-107310492D01*
X104026110Y-107369797D01*
X104026111Y-107369797D01*
X104026114Y-107369799D01*
X104140691Y-107400500D01*
X104140693Y-107400500D01*
X104259307Y-107400500D01*
X104259309Y-107400500D01*
X104329567Y-107381674D01*
X104390667Y-107384876D01*
X104438217Y-107423382D01*
X104454053Y-107482482D01*
X104437504Y-107532303D01*
X104411134Y-107571767D01*
X104411132Y-107571773D01*
X104399501Y-107630242D01*
X104399500Y-107630254D01*
X104399500Y-108069747D01*
X104399501Y-108069759D01*
X104411132Y-108128228D01*
X104411134Y-108128234D01*
X104455745Y-108194998D01*
X104472354Y-108253886D01*
X104455746Y-108305001D01*
X104411134Y-108371767D01*
X104411132Y-108371772D01*
X104399501Y-108430241D01*
X104399500Y-108430253D01*
X104399500Y-108869746D01*
X104399501Y-108869758D01*
X104411132Y-108928227D01*
X104411134Y-108928233D01*
X104441642Y-108973890D01*
X104455448Y-108994552D01*
X104521769Y-109038867D01*
X104566231Y-109047711D01*
X104580241Y-109050498D01*
X104580246Y-109050498D01*
X104580252Y-109050500D01*
X104580253Y-109050500D01*
X105200500Y-109050500D01*
X105258691Y-109069407D01*
X105294655Y-109118907D01*
X105299500Y-109149500D01*
X105299500Y-109269746D01*
X105299501Y-109269758D01*
X105311132Y-109328227D01*
X105311134Y-109328233D01*
X105355746Y-109394998D01*
X105372355Y-109453886D01*
X105355746Y-109505002D01*
X105311134Y-109571766D01*
X105311132Y-109571772D01*
X105299501Y-109630241D01*
X105299500Y-109630253D01*
X105299500Y-110069746D01*
X105299501Y-110069758D01*
X105311132Y-110128227D01*
X105311134Y-110128233D01*
X105356080Y-110195498D01*
X105372689Y-110254386D01*
X105351512Y-110311790D01*
X105300638Y-110345783D01*
X105273765Y-110349500D01*
X104930253Y-110349500D01*
X104930252Y-110349500D01*
X104930242Y-110349501D01*
X104871773Y-110361132D01*
X104871767Y-110361134D01*
X104805002Y-110405746D01*
X104746113Y-110422355D01*
X104694998Y-110405746D01*
X104628233Y-110361134D01*
X104628231Y-110361133D01*
X104628228Y-110361132D01*
X104628227Y-110361132D01*
X104569758Y-110349501D01*
X104569748Y-110349500D01*
X104569747Y-110349500D01*
X104441955Y-110349500D01*
X104383764Y-110330593D01*
X104347800Y-110281093D01*
X104346328Y-110224878D01*
X104350500Y-110209309D01*
X104350500Y-110090691D01*
X104319799Y-109976114D01*
X104319797Y-109976111D01*
X104319797Y-109976109D01*
X104260492Y-109873391D01*
X104260490Y-109873389D01*
X104260489Y-109873387D01*
X104176613Y-109789511D01*
X104176610Y-109789509D01*
X104176608Y-109789507D01*
X104073889Y-109730202D01*
X104073890Y-109730202D01*
X104060351Y-109726574D01*
X103959309Y-109699500D01*
X103840691Y-109699500D01*
X103739648Y-109726574D01*
X103726110Y-109730202D01*
X103698999Y-109745855D01*
X103639151Y-109758576D01*
X103583255Y-109733689D01*
X103552663Y-109680700D01*
X103550500Y-109660118D01*
X103550500Y-109630253D01*
X103550498Y-109630241D01*
X103544205Y-109598606D01*
X103538867Y-109571769D01*
X103494552Y-109505448D01*
X103493885Y-109505002D01*
X103428233Y-109461134D01*
X103428231Y-109461133D01*
X103428228Y-109461132D01*
X103428227Y-109461132D01*
X103369758Y-109449501D01*
X103369748Y-109449500D01*
X103369747Y-109449500D01*
X103215479Y-109449500D01*
X103157288Y-109430593D01*
X103145475Y-109420504D01*
X102284495Y-108559524D01*
X101421510Y-107696539D01*
X101399813Y-107684012D01*
X101399811Y-107684011D01*
X101370124Y-107666872D01*
X101352987Y-107656977D01*
X101276563Y-107636499D01*
X101276561Y-107636499D01*
X97789830Y-107636499D01*
X97731639Y-107617592D01*
X97695675Y-107568092D01*
X97695675Y-107506906D01*
X97731639Y-107457406D01*
X97770511Y-107440402D01*
X97778231Y-107438867D01*
X97844552Y-107394552D01*
X97888867Y-107328231D01*
X97900500Y-107269748D01*
X97900500Y-106830252D01*
X97888867Y-106771769D01*
X97844552Y-106705448D01*
X97844549Y-106705446D01*
X97844253Y-106705003D01*
X97827644Y-106646115D01*
X97844253Y-106594997D01*
X97844549Y-106594553D01*
X97844552Y-106594552D01*
X97888867Y-106528231D01*
X97900500Y-106469748D01*
X97900500Y-106030252D01*
X97888867Y-105971769D01*
X97844552Y-105905448D01*
X97844551Y-105905447D01*
X97844253Y-105905001D01*
X97827644Y-105846113D01*
X97844253Y-105794996D01*
X97844549Y-105794552D01*
X97844552Y-105794551D01*
X97888867Y-105728230D01*
X97900500Y-105669747D01*
X97900500Y-105230251D01*
X97888867Y-105171768D01*
X97844552Y-105105447D01*
X97844254Y-105105001D01*
X97827645Y-105046113D01*
X97844254Y-104994996D01*
X97844549Y-104994553D01*
X97844552Y-104994552D01*
X97888867Y-104928231D01*
X97900500Y-104869748D01*
X97900500Y-104430252D01*
X97888867Y-104371769D01*
X97844552Y-104305448D01*
X97844254Y-104305002D01*
X97827645Y-104246114D01*
X97844254Y-104194997D01*
X97844550Y-104194553D01*
X97844553Y-104194552D01*
X97888868Y-104128231D01*
X97900501Y-104069748D01*
X97900501Y-103630252D01*
X97899135Y-103623387D01*
X97897712Y-103616231D01*
X97888868Y-103571769D01*
X97844553Y-103505448D01*
X97808785Y-103481548D01*
X97778234Y-103461134D01*
X97778232Y-103461133D01*
X97778229Y-103461132D01*
X97778228Y-103461132D01*
X97719759Y-103449501D01*
X97719749Y-103449500D01*
X97099500Y-103449500D01*
X97041309Y-103430593D01*
X97005345Y-103381093D01*
X97000500Y-103350500D01*
X97000500Y-103230253D01*
X97000498Y-103230241D01*
X96994275Y-103198958D01*
X96988867Y-103171769D01*
X96944552Y-103105448D01*
X96899499Y-103075344D01*
X96878233Y-103061134D01*
X96878231Y-103061133D01*
X96878228Y-103061132D01*
X96878227Y-103061132D01*
X96819758Y-103049501D01*
X96819748Y-103049500D01*
X96180252Y-103049500D01*
X96180251Y-103049500D01*
X96180241Y-103049501D01*
X96121772Y-103061132D01*
X96121766Y-103061134D01*
X96055451Y-103105445D01*
X96055445Y-103105451D01*
X96011134Y-103171766D01*
X96011132Y-103171772D01*
X95999501Y-103230241D01*
X95999500Y-103230253D01*
X95999500Y-103669746D01*
X95999501Y-103669758D01*
X96011132Y-103728227D01*
X96011134Y-103728233D01*
X96055746Y-103794998D01*
X96072355Y-103853886D01*
X96055746Y-103905002D01*
X96011134Y-103971766D01*
X96011132Y-103971772D01*
X95999501Y-104030241D01*
X95999500Y-104030253D01*
X95999500Y-104469746D01*
X95999501Y-104469758D01*
X96011132Y-104528227D01*
X96011134Y-104528233D01*
X96055746Y-104594998D01*
X96063045Y-104620877D01*
X96072354Y-104646101D01*
X96071256Y-104649992D01*
X96072355Y-104653886D01*
X96055753Y-104704991D01*
X96055419Y-104705491D01*
X96007374Y-104743377D01*
X95973097Y-104749500D01*
X84010442Y-104749500D01*
X83934019Y-104769978D01*
X83918923Y-104778694D01*
X83866967Y-104808691D01*
X83865496Y-104809540D01*
X83831312Y-104843722D01*
X83829374Y-104845469D01*
X83803676Y-104856914D01*
X83778603Y-104869690D01*
X83775636Y-104869404D01*
X83773482Y-104870364D01*
X83763430Y-104868229D01*
X83729262Y-104864939D01*
X83709811Y-104857860D01*
X83705679Y-104856356D01*
X83587364Y-104856356D01*
X83587363Y-104856356D01*
X83578833Y-104857860D01*
X83578482Y-104855873D01*
X83528613Y-104857607D01*
X83477894Y-104823384D01*
X83456977Y-104765885D01*
X83462887Y-104728591D01*
X83483024Y-104673265D01*
X83483024Y-104554950D01*
X83474440Y-104531368D01*
X83472306Y-104470221D01*
X83497467Y-104427505D01*
X83794952Y-104130021D01*
X84095477Y-103829496D01*
X84149994Y-103801719D01*
X84165481Y-103800500D01*
X94889563Y-103800500D01*
X94889563Y-103800499D01*
X94965989Y-103780021D01*
X95034511Y-103740460D01*
X95090460Y-103684511D01*
X96495475Y-102279496D01*
X96549992Y-102251719D01*
X96565479Y-102250500D01*
X96819747Y-102250500D01*
X96819748Y-102250500D01*
X96878231Y-102238867D01*
X96944552Y-102194552D01*
X96988867Y-102128231D01*
X97000500Y-102069748D01*
X97000500Y-101630252D01*
X97000385Y-101629676D01*
X96994202Y-101598589D01*
X96988867Y-101571769D01*
X96944552Y-101505448D01*
X96924181Y-101491836D01*
X96878233Y-101461134D01*
X96878231Y-101461133D01*
X96878228Y-101461132D01*
X96878227Y-101461132D01*
X96819758Y-101449501D01*
X96819748Y-101449500D01*
X96180252Y-101449500D01*
X96180251Y-101449500D01*
X96180241Y-101449501D01*
X96121772Y-101461132D01*
X96121766Y-101461134D01*
X96055451Y-101505445D01*
X96055445Y-101505451D01*
X96011134Y-101571766D01*
X96011132Y-101571772D01*
X95999501Y-101630241D01*
X95999500Y-101630253D01*
X95999500Y-101884521D01*
X95980593Y-101942712D01*
X95970504Y-101954525D01*
X94754525Y-103170504D01*
X94700008Y-103198281D01*
X94684521Y-103199500D01*
X91318710Y-103199500D01*
X91260519Y-103180593D01*
X91224555Y-103131093D01*
X91224555Y-103069907D01*
X91260519Y-103020407D01*
X91269209Y-103014764D01*
X91271147Y-103013644D01*
X91276613Y-103010489D01*
X91360489Y-102926613D01*
X91419799Y-102823886D01*
X91450500Y-102709309D01*
X91450500Y-102590691D01*
X91419799Y-102476114D01*
X91419797Y-102476111D01*
X91419797Y-102476109D01*
X91360492Y-102373391D01*
X91360490Y-102373389D01*
X91360489Y-102373387D01*
X91276613Y-102289511D01*
X91276610Y-102289509D01*
X91276608Y-102289507D01*
X91173889Y-102230202D01*
X91173890Y-102230202D01*
X91153188Y-102224655D01*
X91059309Y-102199500D01*
X91059307Y-102199500D01*
X91015479Y-102199500D01*
X91007881Y-102197031D01*
X90999992Y-102198281D01*
X90979336Y-102187756D01*
X90957288Y-102180593D01*
X90945475Y-102170504D01*
X90828479Y-102053508D01*
X90800702Y-101998991D01*
X90802857Y-101957880D01*
X90825501Y-101873376D01*
X90858825Y-101822062D01*
X90915947Y-101800136D01*
X90921127Y-101800000D01*
X91499999Y-101800000D01*
X91500000Y-101800000D01*
X91500000Y-101221126D01*
X91500835Y-101218555D01*
X91500136Y-101215946D01*
X91510212Y-101189694D01*
X91518907Y-101162935D01*
X91521093Y-101161346D01*
X91522062Y-101158824D01*
X91545641Y-101143511D01*
X91568407Y-101126971D01*
X91573376Y-101125500D01*
X91578227Y-101124200D01*
X91578228Y-101124200D01*
X91594786Y-101119763D01*
X91655888Y-101122964D01*
X91690414Y-101145385D01*
X91728840Y-101183811D01*
X91728839Y-101183811D01*
X91784789Y-101239760D01*
X91853307Y-101279319D01*
X91853311Y-101279321D01*
X91929735Y-101299799D01*
X91929737Y-101299800D01*
X92440376Y-101299800D01*
X92498567Y-101318707D01*
X92534531Y-101368207D01*
X92534531Y-101429393D01*
X92498567Y-101478893D01*
X92478262Y-101490263D01*
X92474469Y-101491835D01*
X92414836Y-101516535D01*
X92292033Y-101598589D01*
X92187589Y-101703033D01*
X92105535Y-101825836D01*
X92049013Y-101962292D01*
X92020200Y-102107148D01*
X92020200Y-102254851D01*
X92049013Y-102399707D01*
X92105535Y-102536163D01*
X92181592Y-102649991D01*
X92187592Y-102658970D01*
X92292030Y-102763408D01*
X92414836Y-102845464D01*
X92551291Y-102901986D01*
X92696151Y-102930800D01*
X92696152Y-102930800D01*
X92843848Y-102930800D01*
X92843849Y-102930800D01*
X92988709Y-102901986D01*
X93125164Y-102845464D01*
X93247970Y-102763408D01*
X93352408Y-102658970D01*
X93434464Y-102536164D01*
X93490986Y-102399709D01*
X93519800Y-102254849D01*
X93519800Y-102107151D01*
X93490986Y-101962291D01*
X93434464Y-101825836D01*
X93352408Y-101703030D01*
X93247970Y-101598592D01*
X93240667Y-101593712D01*
X93125163Y-101516535D01*
X93065531Y-101491835D01*
X93061737Y-101490263D01*
X93015213Y-101450527D01*
X93000929Y-101391033D01*
X93024344Y-101334505D01*
X93076513Y-101302535D01*
X93099624Y-101299800D01*
X95634262Y-101299800D01*
X95634262Y-101299799D01*
X95710688Y-101279321D01*
X95779210Y-101239760D01*
X95835159Y-101183811D01*
X96067474Y-100951496D01*
X96121991Y-100923719D01*
X96137478Y-100922500D01*
X98213685Y-100922500D01*
X98271876Y-100941407D01*
G37*
%TD.AperFunction*%
%TA.AperFunction,Conductor*%
G36*
X101129711Y-108256406D02*
G01*
X101141524Y-108266495D01*
X101355525Y-108480496D01*
X101383302Y-108535013D01*
X101373731Y-108595445D01*
X101330466Y-108638710D01*
X101285521Y-108649500D01*
X91230479Y-108649500D01*
X91172288Y-108630593D01*
X91160475Y-108620504D01*
X91099495Y-108559524D01*
X91071718Y-108505007D01*
X91070499Y-108489520D01*
X91070499Y-108336499D01*
X91089406Y-108278308D01*
X91138906Y-108242344D01*
X91169499Y-108237499D01*
X101071520Y-108237499D01*
X101129711Y-108256406D01*
G37*
%TD.AperFunction*%
%TA.AperFunction,Conductor*%
G36*
X96031288Y-106169407D02*
G01*
X96055445Y-106194547D01*
X96055778Y-106195046D01*
X96072351Y-106253943D01*
X96055745Y-106305001D01*
X96011133Y-106371766D01*
X96011131Y-106371772D01*
X95999500Y-106430241D01*
X95999499Y-106430253D01*
X95999499Y-106869746D01*
X95999500Y-106869758D01*
X96011131Y-106928227D01*
X96011133Y-106928233D01*
X96055745Y-106994998D01*
X96072354Y-107053886D01*
X96055746Y-107105001D01*
X96011134Y-107171767D01*
X96011132Y-107171772D01*
X95999501Y-107230241D01*
X95999500Y-107230253D01*
X95999500Y-107537499D01*
X95980593Y-107595690D01*
X95931093Y-107631654D01*
X95900500Y-107636499D01*
X91169501Y-107636499D01*
X91111310Y-107617592D01*
X91075346Y-107568092D01*
X91070501Y-107537499D01*
X91070501Y-107240684D01*
X91069126Y-107230241D01*
X91064069Y-107191826D01*
X91064067Y-107191822D01*
X91014067Y-107084597D01*
X91014066Y-107084596D01*
X91014066Y-107084595D01*
X90930405Y-107000934D01*
X90930403Y-107000933D01*
X90930402Y-107000932D01*
X90907660Y-106990327D01*
X90890199Y-106974043D01*
X90870604Y-106960405D01*
X90868334Y-106953652D01*
X90862913Y-106948597D01*
X90850521Y-106902609D01*
X90850501Y-106901622D01*
X90850501Y-106760439D01*
X90847405Y-106748886D01*
X90847162Y-106736878D01*
X90850518Y-106725787D01*
X90850518Y-106715856D01*
X90849653Y-106715743D01*
X90850500Y-106709309D01*
X90850500Y-106590692D01*
X90850184Y-106589511D01*
X90819799Y-106476114D01*
X90819797Y-106476111D01*
X90819797Y-106476109D01*
X90760492Y-106373391D01*
X90760490Y-106373389D01*
X90760489Y-106373387D01*
X90706603Y-106319501D01*
X90678828Y-106264987D01*
X90688399Y-106204555D01*
X90731664Y-106161290D01*
X90776609Y-106150500D01*
X95973097Y-106150500D01*
X96031288Y-106169407D01*
G37*
%TD.AperFunction*%
%TA.AperFunction,Conductor*%
G36*
X98751136Y-99706412D02*
G01*
X98809300Y-99725399D01*
X98845196Y-99774948D01*
X98850000Y-99805412D01*
X98850000Y-100428857D01*
X98831093Y-100487048D01*
X98781593Y-100523012D01*
X98720407Y-100523012D01*
X98680997Y-100498861D01*
X98563678Y-100381543D01*
X98563675Y-100381540D01*
X98563669Y-100381536D01*
X98563667Y-100381535D01*
X98561442Y-100380250D01*
X98561442Y-100380251D01*
X98495153Y-100341979D01*
X98495152Y-100341978D01*
X98495151Y-100341978D01*
X98418728Y-100321500D01*
X98418726Y-100321500D01*
X96011561Y-100321500D01*
X95932437Y-100321500D01*
X95886189Y-100333892D01*
X95856006Y-100341979D01*
X95787492Y-100381536D01*
X95787487Y-100381540D01*
X95499223Y-100669804D01*
X95444707Y-100697581D01*
X95429220Y-100698800D01*
X93489629Y-100698800D01*
X93431438Y-100679893D01*
X93395474Y-100630393D01*
X93395474Y-100569207D01*
X93407313Y-100544799D01*
X93421870Y-100523012D01*
X93434464Y-100504164D01*
X93490986Y-100367709D01*
X93519800Y-100222849D01*
X93519800Y-100075151D01*
X93490986Y-99930291D01*
X93452008Y-99836192D01*
X93447208Y-99775197D01*
X93479177Y-99723028D01*
X93535705Y-99699613D01*
X93543600Y-99699308D01*
X98751136Y-99706412D01*
G37*
%TD.AperFunction*%
%TD*%
%TA.AperFunction,Conductor*%
%TO.N,VBUS*%
G36*
X124218283Y-123098434D02*
G01*
X124255366Y-123114808D01*
X124278566Y-123117499D01*
X124278567Y-123117500D01*
X125175576Y-123117500D01*
X125233767Y-123136407D01*
X125269731Y-123185907D01*
X125271202Y-123190876D01*
X125279991Y-123223677D01*
X125279993Y-123223681D01*
X125356281Y-123355816D01*
X125356283Y-123355818D01*
X125356285Y-123355821D01*
X125464179Y-123463715D01*
X125464181Y-123463716D01*
X125464183Y-123463718D01*
X125596318Y-123540006D01*
X125596319Y-123540006D01*
X125596322Y-123540008D01*
X125743707Y-123579500D01*
X125743708Y-123579500D01*
X125896292Y-123579500D01*
X125896293Y-123579500D01*
X126043678Y-123540008D01*
X126043680Y-123540006D01*
X126043682Y-123540006D01*
X126175816Y-123463718D01*
X126175816Y-123463717D01*
X126175821Y-123463715D01*
X126283715Y-123355821D01*
X126360008Y-123223678D01*
X126376166Y-123163375D01*
X126409489Y-123112063D01*
X126466611Y-123090136D01*
X126471792Y-123090000D01*
X126976000Y-123090000D01*
X127034191Y-123108907D01*
X127070155Y-123158407D01*
X127075000Y-123189000D01*
X127075000Y-128641000D01*
X127056093Y-128699191D01*
X127006593Y-128735155D01*
X126976000Y-128740000D01*
X126485190Y-128740000D01*
X126426999Y-128721093D01*
X126391035Y-128671593D01*
X126389563Y-128666623D01*
X126389180Y-128665192D01*
X126360008Y-128556322D01*
X126360006Y-128556318D01*
X126360006Y-128556317D01*
X126283718Y-128424183D01*
X126283716Y-128424181D01*
X126283715Y-128424179D01*
X126175821Y-128316285D01*
X126175818Y-128316283D01*
X126175816Y-128316281D01*
X126043681Y-128239993D01*
X126043682Y-128239993D01*
X126012532Y-128231646D01*
X125896293Y-128200500D01*
X125743707Y-128200500D01*
X125678720Y-128217913D01*
X125596317Y-128239993D01*
X125464183Y-128316281D01*
X125356281Y-128424183D01*
X125279993Y-128556318D01*
X125279991Y-128556322D01*
X125271202Y-128589124D01*
X125237878Y-128640438D01*
X125180756Y-128662364D01*
X125175576Y-128662500D01*
X124278566Y-128662500D01*
X124275712Y-128662665D01*
X124275644Y-128661500D01*
X124219876Y-128650239D01*
X124178474Y-128605189D01*
X124169500Y-128564003D01*
X124169500Y-128016500D01*
X124188407Y-127958309D01*
X124237907Y-127922345D01*
X124268500Y-127917500D01*
X125264942Y-127917500D01*
X125264944Y-127917500D01*
X125324012Y-127905751D01*
X125390994Y-127860994D01*
X125435751Y-127794012D01*
X125447500Y-127734944D01*
X125447500Y-127545056D01*
X125435751Y-127485988D01*
X125408364Y-127445002D01*
X125391756Y-127386115D01*
X125408365Y-127334999D01*
X125416550Y-127322749D01*
X125435752Y-127294012D01*
X125447501Y-127234944D01*
X125447501Y-127045056D01*
X125435752Y-126985988D01*
X125408365Y-126945001D01*
X125391756Y-126886113D01*
X125408365Y-126834997D01*
X125435751Y-126794012D01*
X125447500Y-126734944D01*
X125447500Y-126545056D01*
X125435751Y-126485988D01*
X125424067Y-126468502D01*
X125407458Y-126409614D01*
X125428635Y-126352210D01*
X125442036Y-126339823D01*
X125441972Y-126339759D01*
X125448865Y-126332865D01*
X125448867Y-126332865D01*
X125740865Y-126040867D01*
X125775500Y-125957252D01*
X125775500Y-125866746D01*
X125775500Y-125392161D01*
X125775500Y-125392159D01*
X125740867Y-125308547D01*
X125461318Y-125028999D01*
X125446020Y-125009242D01*
X125437498Y-124994776D01*
X125435751Y-124985988D01*
X125406802Y-124942664D01*
X125405379Y-124940248D01*
X125399336Y-124912991D01*
X125391756Y-124886115D01*
X125392720Y-124883147D01*
X125392136Y-124880513D01*
X125397835Y-124867404D01*
X125408365Y-124834999D01*
X125414447Y-124825895D01*
X125435752Y-124794012D01*
X125447501Y-124734944D01*
X125447501Y-124545056D01*
X125435752Y-124485988D01*
X125408365Y-124445001D01*
X125391756Y-124386113D01*
X125408365Y-124334997D01*
X125412039Y-124329499D01*
X125435751Y-124294012D01*
X125447500Y-124234944D01*
X125447500Y-124045056D01*
X125435751Y-123985988D01*
X125390994Y-123919006D01*
X125324012Y-123874249D01*
X125324009Y-123874248D01*
X125264948Y-123862500D01*
X125264944Y-123862500D01*
X124225056Y-123862500D01*
X124225049Y-123862500D01*
X124219270Y-123863650D01*
X124158509Y-123856452D01*
X124151625Y-123852945D01*
X124140468Y-123846702D01*
X124136089Y-123842323D01*
X124048412Y-123791703D01*
X124036442Y-123788495D01*
X124025659Y-123782462D01*
X124012863Y-123768630D01*
X123997061Y-123758368D01*
X123992587Y-123746712D01*
X123984109Y-123737548D01*
X123981887Y-123718836D01*
X123975136Y-123701247D01*
X123975000Y-123696067D01*
X123975000Y-123189000D01*
X123993907Y-123130809D01*
X124043407Y-123094845D01*
X124074000Y-123090000D01*
X124178297Y-123090000D01*
X124218283Y-123098434D01*
G37*
%TD.AperFunction*%
%TD*%
M02*
