%TF.GenerationSoftware,KiCad,Pcbnew,9.0.1*%
%TF.CreationDate,2025-12-04T23:43:19-05:00*%
%TF.ProjectId,EDDDial,45444444-6961-46c2-9e6b-696361645f70,rev?*%
%TF.SameCoordinates,Original*%
%TF.FileFunction,Copper,L3,Inr*%
%TF.FilePolarity,Positive*%
%FSLAX46Y46*%
G04 Gerber Fmt 4.6, Leading zero omitted, Abs format (unit mm)*
G04 Created by KiCad (PCBNEW 9.0.1) date 2025-12-04 23:43:19*
%MOMM*%
%LPD*%
G01*
G04 APERTURE LIST*
%TA.AperFunction,ComponentPad*%
%ADD10C,3.800000*%
%TD*%
%TA.AperFunction,ComponentPad*%
%ADD11R,1.600000X1.600000*%
%TD*%
%TA.AperFunction,ComponentPad*%
%ADD12C,1.600000*%
%TD*%
%TA.AperFunction,ViaPad*%
%ADD13C,0.500000*%
%TD*%
G04 APERTURE END LIST*
D10*
%TO.N,GND*%
%TO.C,H4*%
X125650000Y-137300000D03*
%TD*%
%TO.N,GND*%
%TO.C,H3*%
X118450000Y-103250000D03*
%TD*%
%TO.N,GND*%
%TO.C,H2*%
X76750000Y-131550000D03*
%TD*%
%TO.N,GND*%
%TO.C,H1*%
X78850000Y-112500000D03*
%TD*%
D11*
%TO.N,Net-(SW1-A)*%
%TO.C,SW1*%
X109300000Y-101200000D03*
D12*
%TO.N,Net-(SW1-4)*%
X111800000Y-101200000D03*
%TO.N,unconnected-(SW1-C-Pad3)_1*%
X114300000Y-101200000D03*
%TO.N,Net-(SW1-A)*%
X109300000Y-104400000D03*
%TO.N,Net-(SW1-4)*%
X111800000Y-104400000D03*
%TO.N,unconnected-(SW1-C-Pad3)*%
X114300000Y-104400000D03*
%TD*%
D13*
%TO.N,GND*%
X126150000Y-115450000D03*
X128100000Y-117100000D03*
X126150000Y-116450000D03*
X129800000Y-117850000D03*
X129300000Y-128500000D03*
X129700000Y-123150000D03*
X126300000Y-119350000D03*
X124100000Y-122000000D03*
X123716214Y-119143259D03*
X87000000Y-102300000D03*
X86000000Y-101050000D03*
X94191848Y-102396080D03*
X94319408Y-100153709D03*
X95400000Y-107300000D03*
X91600000Y-106500000D03*
X116600000Y-106700000D03*
X121050000Y-104650000D03*
%TO.N,VBAT*%
X109350000Y-107250000D03*
X84350000Y-114350000D03*
%TO.N,/STAT1*%
X94450000Y-112500000D03*
%TO.N,/STAT2*%
X110350000Y-110784003D03*
X113200000Y-110050000D03*
%TO.N,/STAT1*%
X111200000Y-110250000D03*
X113900000Y-109950000D03*
%TO.N,VBUS*%
X116350000Y-112100000D03*
X123950000Y-116650000D03*
%TO.N,Net-(SW1-A)*%
X118800000Y-114850000D03*
X118650000Y-114400000D03*
%TO.N,Net-(SW1-4)*%
X125850000Y-111550000D03*
X126356348Y-111676191D03*
%TO.N,/SWCLK*%
X106550000Y-100650000D03*
%TO.N,/SWDIO*%
X106650000Y-101400000D03*
X87913536Y-100191022D03*
%TO.N,/SWCLK*%
X90800000Y-100050000D03*
%TO.N,+3V3*%
X89250000Y-102650000D03*
%TO.N,GND*%
X122700000Y-110650000D03*
X125100000Y-108300000D03*
%TO.N,/NRST*%
X91000000Y-102650000D03*
%TO.N,/SWITCH*%
X103700000Y-101500000D03*
X76300001Y-115400000D03*
%TO.N,+3V3*%
X74450001Y-115000000D03*
%TO.N,GND*%
X84600000Y-104350000D03*
X93500000Y-104350000D03*
X119500000Y-111700000D03*
X115100000Y-110750000D03*
X110350000Y-110150000D03*
X116450000Y-110500000D03*
X123200000Y-114300000D03*
X121900000Y-110850000D03*
X120200000Y-107800000D03*
X121350000Y-109500000D03*
X121750000Y-107950000D03*
X126250000Y-110100000D03*
X125650000Y-110650000D03*
X126950000Y-110950000D03*
%TO.N,/STAT2*%
X124600000Y-111950000D03*
%TO.N,GND*%
X124100000Y-111200000D03*
X122500000Y-111800000D03*
X124200000Y-112800000D03*
X75250000Y-113550000D03*
X80200000Y-108800000D03*
X84950000Y-102450000D03*
X91850000Y-102750000D03*
X99250000Y-106000000D03*
X103300000Y-107200000D03*
X103100000Y-102300000D03*
X98550000Y-101950000D03*
%TO.N,Net-(SW1-A)*%
X108650000Y-103900000D03*
%TO.N,GND*%
X106850000Y-102450000D03*
X107050000Y-105550000D03*
%TO.N,/NRST*%
X104200000Y-106950000D03*
%TO.N,GND*%
X111000000Y-113600000D03*
%TO.N,+3V3*%
X113450000Y-114250000D03*
X112650000Y-114300000D03*
X110550000Y-114650000D03*
%TO.N,GND*%
X117700000Y-113300000D03*
X116900000Y-113200000D03*
%TO.N,Net-(J1-CC2)*%
X123354876Y-125511894D03*
X123900000Y-124150000D03*
%TO.N,/STAT1*%
X127800000Y-114750000D03*
%TO.N,GND*%
X99821391Y-108449294D03*
X92832443Y-108456008D03*
X86250000Y-110200000D03*
%TO.N,+3V3*%
X88300000Y-108800000D03*
X89550000Y-106650000D03*
X90400000Y-106650000D03*
X103900000Y-110150000D03*
X102850000Y-114200000D03*
X103900000Y-113400000D03*
%TO.N,GND*%
X101150000Y-112800000D03*
X99700000Y-112000000D03*
X96950000Y-112000000D03*
%TO.N,+3V3*%
X94200000Y-111350000D03*
X94500000Y-113450000D03*
%TO.N,GND*%
X95850000Y-111250000D03*
%TO.N,/STAT2*%
X100750000Y-111500000D03*
X95800000Y-110100000D03*
%TD*%
%TA.AperFunction,Conductor*%
%TO.N,+3V3*%
G36*
X87537471Y-99691114D02*
G01*
X87595634Y-99710101D01*
X87631530Y-99759650D01*
X87631447Y-99820835D01*
X87607338Y-99860117D01*
X87553047Y-99914408D01*
X87553043Y-99914413D01*
X87493738Y-100017131D01*
X87493737Y-100017136D01*
X87463036Y-100131713D01*
X87463036Y-100250331D01*
X87488103Y-100343880D01*
X87484901Y-100404981D01*
X87446395Y-100452531D01*
X87430362Y-100460967D01*
X87334836Y-100500535D01*
X87212033Y-100582589D01*
X87107589Y-100687033D01*
X87025535Y-100809836D01*
X86969013Y-100946292D01*
X86940200Y-101091148D01*
X86940200Y-101238851D01*
X86969013Y-101383707D01*
X87025535Y-101520163D01*
X87107589Y-101642966D01*
X87107592Y-101642970D01*
X87146532Y-101681910D01*
X87174308Y-101736425D01*
X87164737Y-101796857D01*
X87121472Y-101840122D01*
X87063609Y-101850066D01*
X87059309Y-101849500D01*
X86940691Y-101849500D01*
X86893761Y-101862075D01*
X86826109Y-101880202D01*
X86723391Y-101939507D01*
X86639507Y-102023391D01*
X86580202Y-102126109D01*
X86575260Y-102144554D01*
X86549500Y-102240691D01*
X86549500Y-102359309D01*
X86560537Y-102400500D01*
X86580202Y-102473890D01*
X86639507Y-102576608D01*
X86639509Y-102576610D01*
X86639511Y-102576613D01*
X86723387Y-102660489D01*
X86723389Y-102660490D01*
X86723391Y-102660492D01*
X86826110Y-102719797D01*
X86826111Y-102719797D01*
X86826114Y-102719799D01*
X86940691Y-102750500D01*
X86940693Y-102750500D01*
X87059307Y-102750500D01*
X87059309Y-102750500D01*
X87173886Y-102719799D01*
X87173888Y-102719797D01*
X87173890Y-102719797D01*
X87276608Y-102660492D01*
X87276608Y-102660491D01*
X87276613Y-102660489D01*
X87346411Y-102590691D01*
X90549500Y-102590691D01*
X90549500Y-102709309D01*
X90565512Y-102769067D01*
X90580202Y-102823890D01*
X90639507Y-102926608D01*
X90639509Y-102926610D01*
X90639511Y-102926613D01*
X90723387Y-103010489D01*
X90723389Y-103010490D01*
X90723391Y-103010492D01*
X90826110Y-103069797D01*
X90826111Y-103069797D01*
X90826114Y-103069799D01*
X90940691Y-103100500D01*
X90940693Y-103100500D01*
X91059307Y-103100500D01*
X91059309Y-103100500D01*
X91173886Y-103069799D01*
X91173888Y-103069797D01*
X91173890Y-103069797D01*
X91276608Y-103010492D01*
X91276608Y-103010491D01*
X91276613Y-103010489D01*
X91314453Y-102972648D01*
X91368967Y-102944872D01*
X91429399Y-102954443D01*
X91470190Y-102993151D01*
X91489507Y-103026608D01*
X91489509Y-103026610D01*
X91489511Y-103026613D01*
X91573387Y-103110489D01*
X91573389Y-103110490D01*
X91573391Y-103110492D01*
X91676110Y-103169797D01*
X91676111Y-103169797D01*
X91676114Y-103169799D01*
X91790691Y-103200500D01*
X91790693Y-103200500D01*
X91909307Y-103200500D01*
X91909309Y-103200500D01*
X92023886Y-103169799D01*
X92023888Y-103169797D01*
X92023890Y-103169797D01*
X92126608Y-103110492D01*
X92126608Y-103110491D01*
X92126613Y-103110489D01*
X92210489Y-103026613D01*
X92269799Y-102923886D01*
X92274064Y-102907965D01*
X92307387Y-102856652D01*
X92364508Y-102834724D01*
X92409835Y-102844827D01*
X92410343Y-102843603D01*
X92414836Y-102845464D01*
X92551291Y-102901986D01*
X92696151Y-102930800D01*
X92696152Y-102930800D01*
X92843848Y-102930800D01*
X92843849Y-102930800D01*
X92988709Y-102901986D01*
X93125164Y-102845464D01*
X93247970Y-102763408D01*
X93352408Y-102658970D01*
X93434464Y-102536164D01*
X93490986Y-102399709D01*
X93503505Y-102336771D01*
X93741348Y-102336771D01*
X93741348Y-102455389D01*
X93762992Y-102536164D01*
X93772050Y-102569970D01*
X93831355Y-102672688D01*
X93831357Y-102672690D01*
X93831359Y-102672693D01*
X93915235Y-102756569D01*
X93915237Y-102756570D01*
X93915239Y-102756572D01*
X94017958Y-102815877D01*
X94017959Y-102815877D01*
X94017962Y-102815879D01*
X94132539Y-102846580D01*
X94132541Y-102846580D01*
X94251155Y-102846580D01*
X94251157Y-102846580D01*
X94365734Y-102815879D01*
X94365736Y-102815877D01*
X94365738Y-102815877D01*
X94468456Y-102756572D01*
X94468456Y-102756571D01*
X94468461Y-102756569D01*
X94552337Y-102672693D01*
X94599681Y-102590692D01*
X94611645Y-102569970D01*
X94611645Y-102569968D01*
X94611647Y-102569966D01*
X94642348Y-102455389D01*
X94642348Y-102336771D01*
X94611647Y-102222194D01*
X94611645Y-102222191D01*
X94611645Y-102222189D01*
X94552340Y-102119471D01*
X94552338Y-102119469D01*
X94552337Y-102119467D01*
X94468461Y-102035591D01*
X94468458Y-102035589D01*
X94468456Y-102035587D01*
X94365738Y-101976282D01*
X94352131Y-101972636D01*
X94251157Y-101945580D01*
X94132539Y-101945580D01*
X94069826Y-101962384D01*
X94017957Y-101976282D01*
X93915239Y-102035587D01*
X93831355Y-102119471D01*
X93772050Y-102222189D01*
X93767092Y-102240692D01*
X93741348Y-102336771D01*
X93503505Y-102336771D01*
X93519800Y-102254849D01*
X93519800Y-102107151D01*
X93490986Y-101962291D01*
X93461328Y-101890691D01*
X98099500Y-101890691D01*
X98099500Y-102009309D01*
X98117967Y-102078227D01*
X98130202Y-102123890D01*
X98189507Y-102226608D01*
X98189509Y-102226610D01*
X98189511Y-102226613D01*
X98273387Y-102310489D01*
X98273389Y-102310490D01*
X98273391Y-102310492D01*
X98376110Y-102369797D01*
X98376111Y-102369797D01*
X98376114Y-102369799D01*
X98490691Y-102400500D01*
X98490693Y-102400500D01*
X98609307Y-102400500D01*
X98609309Y-102400500D01*
X98723886Y-102369799D01*
X98723888Y-102369797D01*
X98723890Y-102369797D01*
X98826608Y-102310492D01*
X98826608Y-102310491D01*
X98826613Y-102310489D01*
X98896411Y-102240691D01*
X102649500Y-102240691D01*
X102649500Y-102359309D01*
X102660537Y-102400500D01*
X102680202Y-102473890D01*
X102739507Y-102576608D01*
X102739509Y-102576610D01*
X102739511Y-102576613D01*
X102823387Y-102660489D01*
X102823389Y-102660490D01*
X102823391Y-102660492D01*
X102926110Y-102719797D01*
X102926111Y-102719797D01*
X102926114Y-102719799D01*
X103040691Y-102750500D01*
X103040693Y-102750500D01*
X103159307Y-102750500D01*
X103159309Y-102750500D01*
X103273886Y-102719799D01*
X103273888Y-102719797D01*
X103273890Y-102719797D01*
X103376608Y-102660492D01*
X103376608Y-102660491D01*
X103376613Y-102660489D01*
X103460489Y-102576613D01*
X103471974Y-102556720D01*
X103519797Y-102473890D01*
X103519797Y-102473888D01*
X103519799Y-102473886D01*
X103550500Y-102359309D01*
X103550500Y-102240691D01*
X103519799Y-102126114D01*
X103497230Y-102087025D01*
X103484509Y-102027178D01*
X103509395Y-101971282D01*
X103562382Y-101940689D01*
X103608587Y-101941897D01*
X103640691Y-101950500D01*
X103640693Y-101950500D01*
X103759307Y-101950500D01*
X103759309Y-101950500D01*
X103873886Y-101919799D01*
X103873888Y-101919797D01*
X103873890Y-101919797D01*
X103976608Y-101860492D01*
X103976608Y-101860491D01*
X103976613Y-101860489D01*
X104060489Y-101776613D01*
X104102973Y-101703030D01*
X104119797Y-101673890D01*
X104119797Y-101673888D01*
X104119799Y-101673886D01*
X104150500Y-101559309D01*
X104150500Y-101440691D01*
X104119799Y-101326114D01*
X104119797Y-101326111D01*
X104119797Y-101326109D01*
X104060492Y-101223391D01*
X104060490Y-101223389D01*
X104060489Y-101223387D01*
X103976613Y-101139511D01*
X103976610Y-101139509D01*
X103976608Y-101139507D01*
X103873889Y-101080202D01*
X103873890Y-101080202D01*
X103860351Y-101076574D01*
X103759309Y-101049500D01*
X103640691Y-101049500D01*
X103570567Y-101068289D01*
X103526109Y-101080202D01*
X103423391Y-101139507D01*
X103339507Y-101223391D01*
X103280202Y-101326109D01*
X103280067Y-101326613D01*
X103249500Y-101440691D01*
X103249500Y-101559309D01*
X103280201Y-101673886D01*
X103280202Y-101673888D01*
X103302768Y-101712973D01*
X103315490Y-101772822D01*
X103290604Y-101828717D01*
X103237616Y-101859310D01*
X103191410Y-101858101D01*
X103159309Y-101849500D01*
X103040691Y-101849500D01*
X102993761Y-101862075D01*
X102926109Y-101880202D01*
X102823391Y-101939507D01*
X102739507Y-102023391D01*
X102680202Y-102126109D01*
X102675260Y-102144554D01*
X102649500Y-102240691D01*
X98896411Y-102240691D01*
X98910489Y-102226613D01*
X98969799Y-102123886D01*
X99000500Y-102009309D01*
X99000500Y-101890691D01*
X98969799Y-101776114D01*
X98969797Y-101776111D01*
X98969797Y-101776109D01*
X98910492Y-101673391D01*
X98910490Y-101673389D01*
X98910489Y-101673387D01*
X98826613Y-101589511D01*
X98826610Y-101589509D01*
X98826608Y-101589507D01*
X98723889Y-101530202D01*
X98723890Y-101530202D01*
X98710351Y-101526574D01*
X98609309Y-101499500D01*
X98490691Y-101499500D01*
X98427116Y-101516535D01*
X98376109Y-101530202D01*
X98273391Y-101589507D01*
X98189507Y-101673391D01*
X98130202Y-101776109D01*
X98118333Y-101820407D01*
X98099500Y-101890691D01*
X93461328Y-101890691D01*
X93434464Y-101825836D01*
X93352408Y-101703030D01*
X93247970Y-101598592D01*
X93247966Y-101598589D01*
X93125163Y-101516535D01*
X92988707Y-101460013D01*
X92843851Y-101431200D01*
X92843849Y-101431200D01*
X92696151Y-101431200D01*
X92696148Y-101431200D01*
X92551292Y-101460013D01*
X92414836Y-101516535D01*
X92292033Y-101598589D01*
X92187589Y-101703033D01*
X92105535Y-101825836D01*
X92049013Y-101962292D01*
X92020200Y-102107148D01*
X92020200Y-102201211D01*
X92001293Y-102259402D01*
X91951793Y-102295366D01*
X91915798Y-102298673D01*
X91915798Y-102299500D01*
X91909309Y-102299500D01*
X91790691Y-102299500D01*
X91720567Y-102318289D01*
X91676109Y-102330202D01*
X91573391Y-102389507D01*
X91573385Y-102389512D01*
X91535545Y-102427351D01*
X91481028Y-102455128D01*
X91420596Y-102445555D01*
X91379807Y-102406847D01*
X91360489Y-102373387D01*
X91276613Y-102289511D01*
X91276610Y-102289509D01*
X91276608Y-102289507D01*
X91173889Y-102230202D01*
X91173890Y-102230202D01*
X91160351Y-102226574D01*
X91059309Y-102199500D01*
X90940691Y-102199500D01*
X90870567Y-102218289D01*
X90826109Y-102230202D01*
X90723391Y-102289507D01*
X90639507Y-102373391D01*
X90580202Y-102476109D01*
X90572382Y-102505293D01*
X90549500Y-102590691D01*
X87346411Y-102590691D01*
X87360489Y-102576613D01*
X87419799Y-102473886D01*
X87450500Y-102359309D01*
X87450500Y-102240691D01*
X87419799Y-102126114D01*
X87419797Y-102126111D01*
X87419797Y-102126109D01*
X87365742Y-102032484D01*
X87353020Y-101972636D01*
X87377906Y-101916740D01*
X87430894Y-101886147D01*
X87470792Y-101885886D01*
X87471287Y-101885984D01*
X87471291Y-101885986D01*
X87616151Y-101914800D01*
X87616152Y-101914800D01*
X87763848Y-101914800D01*
X87763849Y-101914800D01*
X87908709Y-101885986D01*
X88045164Y-101829464D01*
X88167970Y-101747408D01*
X88272408Y-101642970D01*
X88354464Y-101520164D01*
X88410986Y-101383709D01*
X88439800Y-101238849D01*
X88439800Y-101091151D01*
X88410986Y-100946291D01*
X88354464Y-100809836D01*
X88272408Y-100687030D01*
X88233522Y-100648143D01*
X88205745Y-100593626D01*
X88215317Y-100533194D01*
X88233520Y-100508139D01*
X88274025Y-100467635D01*
X88277875Y-100460967D01*
X88333333Y-100364912D01*
X88333333Y-100364910D01*
X88333335Y-100364908D01*
X88364036Y-100250331D01*
X88364036Y-100131713D01*
X88333335Y-100017136D01*
X88333333Y-100017133D01*
X88333333Y-100017131D01*
X88274028Y-99914413D01*
X88274026Y-99914411D01*
X88274025Y-99914409D01*
X88220759Y-99861143D01*
X88192984Y-99806629D01*
X88202555Y-99746197D01*
X88245820Y-99702932D01*
X88290898Y-99692142D01*
X90313486Y-99694901D01*
X90371650Y-99713888D01*
X90407546Y-99763437D01*
X90407463Y-99824622D01*
X90399087Y-99843399D01*
X90380203Y-99876108D01*
X90380202Y-99876109D01*
X90374571Y-99897126D01*
X90349500Y-99990691D01*
X90349500Y-100109309D01*
X90373667Y-100199500D01*
X90380202Y-100223890D01*
X90439507Y-100326608D01*
X90439509Y-100326610D01*
X90439511Y-100326613D01*
X90523387Y-100410489D01*
X90523389Y-100410490D01*
X90523391Y-100410492D01*
X90626110Y-100469797D01*
X90626111Y-100469797D01*
X90626114Y-100469799D01*
X90740691Y-100500500D01*
X90740693Y-100500500D01*
X90859307Y-100500500D01*
X90859309Y-100500500D01*
X90973886Y-100469799D01*
X90973888Y-100469797D01*
X90973890Y-100469797D01*
X91076608Y-100410492D01*
X91076608Y-100410491D01*
X91076613Y-100410489D01*
X91160489Y-100326613D01*
X91163286Y-100321769D01*
X91219797Y-100223890D01*
X91219797Y-100223888D01*
X91219799Y-100223886D01*
X91250500Y-100109309D01*
X91250500Y-99990691D01*
X91219799Y-99876114D01*
X91201679Y-99844730D01*
X91188958Y-99784884D01*
X91213843Y-99728988D01*
X91266831Y-99698395D01*
X91287550Y-99696231D01*
X91997536Y-99697199D01*
X92055699Y-99716186D01*
X92091595Y-99765735D01*
X92091512Y-99826920D01*
X92088863Y-99834084D01*
X92049014Y-99930289D01*
X92049014Y-99930291D01*
X92020200Y-100075148D01*
X92020200Y-100222851D01*
X92049013Y-100367707D01*
X92105535Y-100504163D01*
X92180623Y-100616540D01*
X92187592Y-100626970D01*
X92292030Y-100731408D01*
X92414836Y-100813464D01*
X92551291Y-100869986D01*
X92696151Y-100898800D01*
X92696152Y-100898800D01*
X92843848Y-100898800D01*
X92843849Y-100898800D01*
X92988709Y-100869986D01*
X93125164Y-100813464D01*
X93247970Y-100731408D01*
X93352408Y-100626970D01*
X93434464Y-100504164D01*
X93490986Y-100367709D01*
X93519800Y-100222849D01*
X93519800Y-100075151D01*
X93490986Y-99930291D01*
X93452008Y-99836192D01*
X93447208Y-99775197D01*
X93479177Y-99723028D01*
X93535705Y-99699613D01*
X93543600Y-99699308D01*
X93897354Y-99699790D01*
X93955517Y-99718777D01*
X93991413Y-99768326D01*
X93991330Y-99829511D01*
X93967223Y-99868791D01*
X93958920Y-99877093D01*
X93958915Y-99877100D01*
X93899610Y-99979818D01*
X93896453Y-99991602D01*
X93868908Y-100094400D01*
X93868908Y-100213018D01*
X93880277Y-100255448D01*
X93899610Y-100327599D01*
X93958915Y-100430317D01*
X93958917Y-100430319D01*
X93958919Y-100430322D01*
X94042795Y-100514198D01*
X94042797Y-100514199D01*
X94042799Y-100514201D01*
X94145518Y-100573506D01*
X94145519Y-100573506D01*
X94145522Y-100573508D01*
X94260099Y-100604209D01*
X94260101Y-100604209D01*
X94378715Y-100604209D01*
X94378717Y-100604209D01*
X94429167Y-100590691D01*
X106099500Y-100590691D01*
X106099500Y-100709309D01*
X106105422Y-100731410D01*
X106130202Y-100823890D01*
X106189507Y-100926608D01*
X106189509Y-100926610D01*
X106189511Y-100926613D01*
X106271218Y-101008320D01*
X106298994Y-101062835D01*
X106289423Y-101123267D01*
X106286950Y-101127822D01*
X106230201Y-101226112D01*
X106226788Y-101238851D01*
X106199500Y-101340691D01*
X106199500Y-101459309D01*
X106210337Y-101499753D01*
X106230202Y-101573890D01*
X106289507Y-101676608D01*
X106289509Y-101676610D01*
X106289511Y-101676613D01*
X106373387Y-101760489D01*
X106373389Y-101760490D01*
X106373391Y-101760492D01*
X106476110Y-101819797D01*
X106476111Y-101819797D01*
X106476114Y-101819799D01*
X106590691Y-101850500D01*
X106590693Y-101850500D01*
X106617892Y-101850500D01*
X106676083Y-101869407D01*
X106712047Y-101918907D01*
X106712047Y-101980093D01*
X106676083Y-102029593D01*
X106667392Y-102035236D01*
X106573391Y-102089507D01*
X106489507Y-102173391D01*
X106430202Y-102276109D01*
X106418715Y-102318979D01*
X106399500Y-102390691D01*
X106399500Y-102509309D01*
X106406304Y-102534701D01*
X106430202Y-102623890D01*
X106489507Y-102726608D01*
X106489509Y-102726610D01*
X106489511Y-102726613D01*
X106573387Y-102810489D01*
X106573389Y-102810490D01*
X106573391Y-102810492D01*
X106676110Y-102869797D01*
X106676111Y-102869797D01*
X106676114Y-102869799D01*
X106790691Y-102900500D01*
X106790693Y-102900500D01*
X106909307Y-102900500D01*
X106909309Y-102900500D01*
X107023886Y-102869799D01*
X107023888Y-102869797D01*
X107023890Y-102869797D01*
X107126608Y-102810492D01*
X107126608Y-102810491D01*
X107126613Y-102810489D01*
X107210489Y-102726613D01*
X107241623Y-102672688D01*
X107269797Y-102623890D01*
X107269797Y-102623888D01*
X107269799Y-102623886D01*
X107300500Y-102509309D01*
X107300500Y-102390691D01*
X107269799Y-102276114D01*
X107269797Y-102276111D01*
X107269797Y-102276109D01*
X107210492Y-102173391D01*
X107210490Y-102173389D01*
X107210489Y-102173387D01*
X107126613Y-102089511D01*
X107126610Y-102089509D01*
X107126608Y-102089507D01*
X107023889Y-102030202D01*
X107023890Y-102030202D01*
X106984875Y-102019748D01*
X106909309Y-101999500D01*
X106882108Y-101999500D01*
X106823917Y-101980593D01*
X106787953Y-101931093D01*
X106787953Y-101869907D01*
X106823917Y-101820407D01*
X106832608Y-101814764D01*
X106926608Y-101760492D01*
X106926608Y-101760491D01*
X106926613Y-101760489D01*
X107010489Y-101676613D01*
X107012062Y-101673888D01*
X107069797Y-101573890D01*
X107069797Y-101573888D01*
X107069799Y-101573886D01*
X107100500Y-101459309D01*
X107100500Y-101340691D01*
X107069799Y-101226114D01*
X107069797Y-101226111D01*
X107069797Y-101226109D01*
X107010492Y-101123391D01*
X107010490Y-101123389D01*
X107010489Y-101123387D01*
X106928780Y-101041678D01*
X106901005Y-100987164D01*
X106910576Y-100926732D01*
X106913038Y-100922197D01*
X106969799Y-100823886D01*
X107000500Y-100709309D01*
X107000500Y-100590691D01*
X106969799Y-100476114D01*
X106928730Y-100404981D01*
X106914454Y-100380253D01*
X108299500Y-100380253D01*
X108299500Y-102019746D01*
X108299501Y-102019758D01*
X108311132Y-102078227D01*
X108311134Y-102078233D01*
X108343126Y-102126111D01*
X108355448Y-102144552D01*
X108421769Y-102188867D01*
X108466231Y-102197711D01*
X108480241Y-102200498D01*
X108480246Y-102200498D01*
X108480252Y-102200500D01*
X108480253Y-102200500D01*
X110119747Y-102200500D01*
X110119748Y-102200500D01*
X110178231Y-102188867D01*
X110244552Y-102144552D01*
X110288867Y-102078231D01*
X110300500Y-102019748D01*
X110300500Y-101101456D01*
X110799500Y-101101456D01*
X110799500Y-101298543D01*
X110837949Y-101491834D01*
X110837949Y-101491836D01*
X110913367Y-101673913D01*
X110913368Y-101673914D01*
X111022861Y-101837782D01*
X111162218Y-101977139D01*
X111326086Y-102086632D01*
X111508165Y-102162051D01*
X111701459Y-102200500D01*
X111701460Y-102200500D01*
X111898540Y-102200500D01*
X111898541Y-102200500D01*
X112091835Y-102162051D01*
X112273914Y-102086632D01*
X112437782Y-101977139D01*
X112577139Y-101837782D01*
X112686632Y-101673914D01*
X112762051Y-101491835D01*
X112800500Y-101298541D01*
X112800500Y-101101459D01*
X112800499Y-101101456D01*
X113299500Y-101101456D01*
X113299500Y-101298543D01*
X113337949Y-101491834D01*
X113337949Y-101491836D01*
X113413367Y-101673913D01*
X113413368Y-101673914D01*
X113522861Y-101837782D01*
X113662218Y-101977139D01*
X113826086Y-102086632D01*
X114008165Y-102162051D01*
X114201459Y-102200500D01*
X114201460Y-102200500D01*
X114398540Y-102200500D01*
X114398541Y-102200500D01*
X114591835Y-102162051D01*
X114773914Y-102086632D01*
X114937782Y-101977139D01*
X115077139Y-101837782D01*
X115186632Y-101673914D01*
X115262051Y-101491835D01*
X115300500Y-101298541D01*
X115300500Y-101101459D01*
X115262051Y-100908165D01*
X115186632Y-100726086D01*
X115077139Y-100562218D01*
X114937782Y-100422861D01*
X114828288Y-100349699D01*
X114773913Y-100313367D01*
X114591835Y-100237949D01*
X114398543Y-100199500D01*
X114398541Y-100199500D01*
X114201459Y-100199500D01*
X114201456Y-100199500D01*
X114008165Y-100237949D01*
X114008163Y-100237949D01*
X113826086Y-100313367D01*
X113662218Y-100422861D01*
X113662214Y-100422864D01*
X113522864Y-100562214D01*
X113522861Y-100562218D01*
X113413367Y-100726086D01*
X113337949Y-100908163D01*
X113337949Y-100908165D01*
X113299500Y-101101456D01*
X112800499Y-101101456D01*
X112762051Y-100908165D01*
X112686632Y-100726086D01*
X112577139Y-100562218D01*
X112437782Y-100422861D01*
X112328288Y-100349699D01*
X112273913Y-100313367D01*
X112091835Y-100237949D01*
X111898543Y-100199500D01*
X111898541Y-100199500D01*
X111701459Y-100199500D01*
X111701456Y-100199500D01*
X111508165Y-100237949D01*
X111508163Y-100237949D01*
X111326086Y-100313367D01*
X111162218Y-100422861D01*
X111162214Y-100422864D01*
X111022864Y-100562214D01*
X111022861Y-100562218D01*
X110913367Y-100726086D01*
X110837949Y-100908163D01*
X110837949Y-100908165D01*
X110799500Y-101101456D01*
X110300500Y-101101456D01*
X110300500Y-100380252D01*
X110299134Y-100373387D01*
X110293265Y-100343880D01*
X110288867Y-100321769D01*
X110244552Y-100255448D01*
X110236891Y-100250329D01*
X110178233Y-100211134D01*
X110178231Y-100211133D01*
X110178228Y-100211132D01*
X110178227Y-100211132D01*
X110119758Y-100199501D01*
X110119748Y-100199500D01*
X108480252Y-100199500D01*
X108480251Y-100199500D01*
X108480241Y-100199501D01*
X108421772Y-100211132D01*
X108421766Y-100211134D01*
X108355451Y-100255445D01*
X108355445Y-100255451D01*
X108311134Y-100321766D01*
X108311132Y-100321772D01*
X108299501Y-100380241D01*
X108299500Y-100380253D01*
X106914454Y-100380253D01*
X106910492Y-100373391D01*
X106910490Y-100373389D01*
X106910489Y-100373387D01*
X106826613Y-100289511D01*
X106826610Y-100289509D01*
X106826608Y-100289507D01*
X106723889Y-100230202D01*
X106723890Y-100230202D01*
X106700318Y-100223886D01*
X106609309Y-100199500D01*
X106490691Y-100199500D01*
X106420567Y-100218289D01*
X106376109Y-100230202D01*
X106273391Y-100289507D01*
X106189507Y-100373391D01*
X106130202Y-100476109D01*
X106114906Y-100533194D01*
X106099500Y-100590691D01*
X94429167Y-100590691D01*
X94493294Y-100573508D01*
X94493296Y-100573506D01*
X94493298Y-100573506D01*
X94596016Y-100514201D01*
X94596016Y-100514200D01*
X94596021Y-100514198D01*
X94679897Y-100430322D01*
X94708812Y-100380241D01*
X94739205Y-100327599D01*
X94739205Y-100327597D01*
X94739207Y-100327595D01*
X94769908Y-100213018D01*
X94769908Y-100094400D01*
X94739207Y-99979823D01*
X94739205Y-99979820D01*
X94739205Y-99979818D01*
X94679900Y-99877100D01*
X94679898Y-99877098D01*
X94679897Y-99877096D01*
X94672746Y-99869945D01*
X94644971Y-99815431D01*
X94654542Y-99754999D01*
X94697807Y-99711734D01*
X94742885Y-99700944D01*
X116708951Y-99730911D01*
X116758686Y-99744390D01*
X116916105Y-99836194D01*
X117020586Y-99897126D01*
X117023677Y-99899005D01*
X117168467Y-99990692D01*
X117935761Y-100476575D01*
X117938750Y-100478547D01*
X118654683Y-100969448D01*
X118691983Y-101017949D01*
X118693652Y-101079111D01*
X118659051Y-101129573D01*
X118601397Y-101150060D01*
X118590919Y-101149517D01*
X118590907Y-101149712D01*
X118587674Y-101149500D01*
X118312326Y-101149500D01*
X118312324Y-101149500D01*
X118039340Y-101185439D01*
X118039338Y-101185439D01*
X118039334Y-101185440D01*
X117938805Y-101212376D01*
X117773368Y-101256704D01*
X117518983Y-101362074D01*
X117280517Y-101499753D01*
X117062075Y-101667369D01*
X116867369Y-101862075D01*
X116699753Y-102080517D01*
X116562074Y-102318983D01*
X116456704Y-102573368D01*
X116420280Y-102709307D01*
X116385440Y-102839334D01*
X116385439Y-102839338D01*
X116385439Y-102839340D01*
X116349500Y-103112324D01*
X116349500Y-103387675D01*
X116364294Y-103500043D01*
X116385440Y-103660666D01*
X116402977Y-103726114D01*
X116456704Y-103926631D01*
X116562074Y-104181016D01*
X116562077Y-104181021D01*
X116693879Y-104409309D01*
X116699753Y-104419482D01*
X116779865Y-104523886D01*
X116867372Y-104637928D01*
X117062072Y-104832628D01*
X117280521Y-105000249D01*
X117518979Y-105137923D01*
X117518980Y-105137923D01*
X117518983Y-105137925D01*
X117773368Y-105243295D01*
X118039334Y-105314560D01*
X118312326Y-105350500D01*
X118312327Y-105350500D01*
X118587673Y-105350500D01*
X118587674Y-105350500D01*
X118860666Y-105314560D01*
X119126632Y-105243295D01*
X119381021Y-105137923D01*
X119619479Y-105000249D01*
X119837928Y-104832628D01*
X120032628Y-104637928D01*
X120068874Y-104590691D01*
X120599500Y-104590691D01*
X120599500Y-104709309D01*
X120623935Y-104800500D01*
X120630202Y-104823890D01*
X120689507Y-104926608D01*
X120689509Y-104926610D01*
X120689511Y-104926613D01*
X120773387Y-105010489D01*
X120773389Y-105010490D01*
X120773391Y-105010492D01*
X120876110Y-105069797D01*
X120876111Y-105069797D01*
X120876114Y-105069799D01*
X120990691Y-105100500D01*
X120990693Y-105100500D01*
X121109307Y-105100500D01*
X121109309Y-105100500D01*
X121223886Y-105069799D01*
X121223888Y-105069797D01*
X121223890Y-105069797D01*
X121326608Y-105010492D01*
X121326608Y-105010491D01*
X121326613Y-105010489D01*
X121410489Y-104926613D01*
X121469799Y-104823886D01*
X121500500Y-104709309D01*
X121500500Y-104590691D01*
X121469799Y-104476114D01*
X121469797Y-104476111D01*
X121469797Y-104476109D01*
X121410492Y-104373391D01*
X121410490Y-104373389D01*
X121410489Y-104373387D01*
X121326613Y-104289511D01*
X121326610Y-104289509D01*
X121326608Y-104289507D01*
X121223889Y-104230202D01*
X121223890Y-104230202D01*
X121164759Y-104214358D01*
X121109309Y-104199500D01*
X120990691Y-104199500D01*
X120935241Y-104214358D01*
X120876109Y-104230202D01*
X120773391Y-104289507D01*
X120689507Y-104373391D01*
X120630202Y-104476109D01*
X120624191Y-104498543D01*
X120599500Y-104590691D01*
X120068874Y-104590691D01*
X120200249Y-104419479D01*
X120337923Y-104181021D01*
X120443295Y-103926632D01*
X120514560Y-103660666D01*
X120550500Y-103387674D01*
X120550500Y-103112326D01*
X120514560Y-102839334D01*
X120443295Y-102573368D01*
X120440362Y-102566289D01*
X120435562Y-102505293D01*
X120467531Y-102453124D01*
X120524059Y-102429709D01*
X120583554Y-102443992D01*
X120596410Y-102453370D01*
X121366674Y-103116354D01*
X121369372Y-103118764D01*
X122161273Y-103852410D01*
X122163882Y-103854917D01*
X122268611Y-103959307D01*
X122835027Y-104523890D01*
X122928460Y-104617020D01*
X122930975Y-104619620D01*
X123667198Y-105409150D01*
X123669617Y-105411841D01*
X124028537Y-105826114D01*
X124329844Y-106173890D01*
X124376508Y-106227750D01*
X124378819Y-106230518D01*
X124619867Y-106530202D01*
X125055414Y-107071696D01*
X125057630Y-107074556D01*
X125703058Y-107939917D01*
X125705166Y-107942855D01*
X126262811Y-108750500D01*
X126318522Y-108831186D01*
X126320518Y-108834192D01*
X126897925Y-109739511D01*
X126901015Y-109744355D01*
X126902905Y-109747441D01*
X127295398Y-110415476D01*
X127308574Y-110475225D01*
X127284113Y-110531309D01*
X127231359Y-110562303D01*
X127170462Y-110556371D01*
X127160540Y-110551363D01*
X127123887Y-110530201D01*
X127072757Y-110516501D01*
X127009309Y-110499500D01*
X126890691Y-110499500D01*
X126833402Y-110514850D01*
X126776112Y-110530201D01*
X126681239Y-110584976D01*
X126681234Y-110584980D01*
X126673387Y-110589511D01*
X126645723Y-110617174D01*
X126645702Y-110617194D01*
X126589511Y-110673386D01*
X126589507Y-110673391D01*
X126530202Y-110776109D01*
X126521307Y-110809307D01*
X126499500Y-110890691D01*
X126499500Y-111009309D01*
X126523667Y-111099500D01*
X126524318Y-111101929D01*
X126521115Y-111163030D01*
X126482610Y-111210580D01*
X126423510Y-111226416D01*
X126415779Y-111225706D01*
X126415665Y-111225691D01*
X126415657Y-111225691D01*
X126297039Y-111225691D01*
X126297034Y-111225691D01*
X126246369Y-111239266D01*
X126185268Y-111236062D01*
X126150747Y-111213644D01*
X126126614Y-111189512D01*
X126126608Y-111189507D01*
X126023889Y-111130202D01*
X126023886Y-111130201D01*
X126018380Y-111128725D01*
X125967068Y-111095400D01*
X125945143Y-111038277D01*
X125960982Y-110979177D01*
X125974000Y-110963101D01*
X126010489Y-110926613D01*
X126012061Y-110923890D01*
X126069797Y-110823890D01*
X126069797Y-110823888D01*
X126069799Y-110823886D01*
X126100500Y-110709309D01*
X126100500Y-110649500D01*
X126119407Y-110591309D01*
X126168907Y-110555345D01*
X126199500Y-110550500D01*
X126309307Y-110550500D01*
X126309309Y-110550500D01*
X126423886Y-110519799D01*
X126526613Y-110460489D01*
X126610489Y-110376613D01*
X126612061Y-110373890D01*
X126669797Y-110273890D01*
X126669797Y-110273888D01*
X126669799Y-110273886D01*
X126700500Y-110159309D01*
X126700500Y-110040691D01*
X126669799Y-109926114D01*
X126669797Y-109926111D01*
X126669797Y-109926109D01*
X126610492Y-109823391D01*
X126610490Y-109823389D01*
X126610489Y-109823387D01*
X126526613Y-109739511D01*
X126526610Y-109739509D01*
X126526608Y-109739507D01*
X126423889Y-109680202D01*
X126423890Y-109680202D01*
X126389999Y-109671121D01*
X126309309Y-109649500D01*
X126190691Y-109649500D01*
X126120567Y-109668289D01*
X126076109Y-109680202D01*
X125973391Y-109739507D01*
X125889507Y-109823391D01*
X125830202Y-109926109D01*
X125799500Y-110040692D01*
X125799500Y-110100500D01*
X125780593Y-110158691D01*
X125731093Y-110194655D01*
X125700500Y-110199500D01*
X125590691Y-110199500D01*
X125554084Y-110209309D01*
X125476109Y-110230202D01*
X125373391Y-110289507D01*
X125289507Y-110373391D01*
X125230202Y-110476109D01*
X125218079Y-110521355D01*
X125199500Y-110590691D01*
X125199500Y-110709309D01*
X125217533Y-110776608D01*
X125230202Y-110823890D01*
X125289507Y-110926608D01*
X125289509Y-110926610D01*
X125289511Y-110926613D01*
X125373387Y-111010489D01*
X125373389Y-111010490D01*
X125373391Y-111010492D01*
X125476110Y-111069797D01*
X125476111Y-111069798D01*
X125476113Y-111069798D01*
X125476114Y-111069799D01*
X125481612Y-111071272D01*
X125532927Y-111104595D01*
X125554855Y-111161716D01*
X125539020Y-111220817D01*
X125525995Y-111236902D01*
X125489512Y-111273385D01*
X125489507Y-111273391D01*
X125430202Y-111376109D01*
X125423914Y-111399578D01*
X125399500Y-111490691D01*
X125399500Y-111609309D01*
X125416805Y-111673890D01*
X125430202Y-111723890D01*
X125489507Y-111826608D01*
X125489509Y-111826610D01*
X125489511Y-111826613D01*
X125573387Y-111910489D01*
X125573389Y-111910490D01*
X125573391Y-111910492D01*
X125676110Y-111969797D01*
X125676111Y-111969797D01*
X125676114Y-111969799D01*
X125790691Y-112000500D01*
X125790693Y-112000500D01*
X125909310Y-112000500D01*
X125909310Y-112000499D01*
X125959974Y-111986924D01*
X126021075Y-111990125D01*
X126055599Y-112012544D01*
X126079735Y-112036680D01*
X126079737Y-112036681D01*
X126079739Y-112036683D01*
X126182458Y-112095988D01*
X126182459Y-112095988D01*
X126182462Y-112095990D01*
X126297039Y-112126691D01*
X126297041Y-112126691D01*
X126415655Y-112126691D01*
X126415657Y-112126691D01*
X126530234Y-112095990D01*
X126530236Y-112095988D01*
X126530238Y-112095988D01*
X126632956Y-112036683D01*
X126632956Y-112036682D01*
X126632961Y-112036680D01*
X126716837Y-111952804D01*
X126752698Y-111890692D01*
X126776145Y-111850081D01*
X126776145Y-111850079D01*
X126776147Y-111850077D01*
X126806848Y-111735500D01*
X126806848Y-111616882D01*
X126782030Y-111524260D01*
X126785231Y-111463160D01*
X126823736Y-111415610D01*
X126882837Y-111399774D01*
X126890581Y-111400485D01*
X126890687Y-111400498D01*
X126890691Y-111400500D01*
X126890695Y-111400500D01*
X127009307Y-111400500D01*
X127009309Y-111400500D01*
X127123886Y-111369799D01*
X127123888Y-111369797D01*
X127123890Y-111369797D01*
X127226608Y-111310492D01*
X127226608Y-111310491D01*
X127226613Y-111310489D01*
X127310489Y-111226613D01*
X127323660Y-111203800D01*
X127369797Y-111123890D01*
X127369797Y-111123888D01*
X127369799Y-111123886D01*
X127400500Y-111009309D01*
X127400500Y-110978818D01*
X127419407Y-110920627D01*
X127468907Y-110884663D01*
X127530093Y-110884663D01*
X127579593Y-110920627D01*
X127586632Y-110931819D01*
X127628428Y-111009307D01*
X127964030Y-111631501D01*
X127965689Y-111634716D01*
X128443118Y-112602936D01*
X128444658Y-112606209D01*
X128886387Y-113591217D01*
X128887807Y-113594545D01*
X129293246Y-114595022D01*
X129294544Y-114598399D01*
X129663172Y-115613057D01*
X129664345Y-115616479D01*
X129995650Y-116643919D01*
X129996697Y-116647382D01*
X130199201Y-117364047D01*
X130196829Y-117425187D01*
X130158973Y-117473255D01*
X130100093Y-117489893D01*
X130054431Y-117476703D01*
X129973889Y-117430202D01*
X129973890Y-117430202D01*
X129955174Y-117425187D01*
X129859309Y-117399500D01*
X129740691Y-117399500D01*
X129670567Y-117418289D01*
X129626109Y-117430202D01*
X129523391Y-117489507D01*
X129439507Y-117573391D01*
X129380202Y-117676109D01*
X129380201Y-117676114D01*
X129349500Y-117790691D01*
X129349500Y-117909309D01*
X129374977Y-118004391D01*
X129380202Y-118023890D01*
X129439507Y-118126608D01*
X129439509Y-118126610D01*
X129439511Y-118126613D01*
X129523387Y-118210489D01*
X129523389Y-118210490D01*
X129523391Y-118210492D01*
X129626110Y-118269797D01*
X129626111Y-118269797D01*
X129626114Y-118269799D01*
X129740691Y-118300500D01*
X129740693Y-118300500D01*
X129859307Y-118300500D01*
X129859309Y-118300500D01*
X129973886Y-118269799D01*
X129973888Y-118269797D01*
X129973890Y-118269797D01*
X130076608Y-118210492D01*
X130076608Y-118210491D01*
X130076613Y-118210489D01*
X130160489Y-118126613D01*
X130203725Y-118051725D01*
X130249193Y-118010787D01*
X130310043Y-118004391D01*
X130363031Y-118034984D01*
X130385650Y-118077807D01*
X130546551Y-118738621D01*
X130547342Y-118742151D01*
X130764235Y-119799654D01*
X130764897Y-119803211D01*
X130943007Y-120867928D01*
X130943539Y-120871506D01*
X131082633Y-121942062D01*
X131083033Y-121945658D01*
X131182916Y-123020536D01*
X131183185Y-123024144D01*
X131243729Y-124101970D01*
X131243866Y-124105585D01*
X131264988Y-125184901D01*
X131264993Y-125188519D01*
X131246666Y-126267913D01*
X131246538Y-126271528D01*
X131188787Y-127349479D01*
X131188528Y-127353088D01*
X131091428Y-128428252D01*
X131091037Y-128431848D01*
X130954716Y-129502754D01*
X130954193Y-129506334D01*
X130778840Y-130571514D01*
X130778187Y-130575073D01*
X130564036Y-131633123D01*
X130563254Y-131636655D01*
X130310578Y-132686213D01*
X130309667Y-132689714D01*
X130018819Y-133729309D01*
X130017781Y-133732775D01*
X129689138Y-134761070D01*
X129687974Y-134764495D01*
X129321976Y-135780104D01*
X129320687Y-135783484D01*
X128917845Y-136784998D01*
X128916434Y-136788330D01*
X128477247Y-137774502D01*
X128475715Y-137777779D01*
X128000801Y-138747220D01*
X127999150Y-138750439D01*
X127619107Y-139459412D01*
X127574951Y-139501767D01*
X127532994Y-139511633D01*
X126207890Y-139526902D01*
X126149485Y-139508667D01*
X126112953Y-139459585D01*
X126112248Y-139398403D01*
X126147639Y-139348492D01*
X126181123Y-139332283D01*
X126326632Y-139293295D01*
X126581021Y-139187923D01*
X126819479Y-139050249D01*
X127037928Y-138882628D01*
X127232628Y-138687928D01*
X127400249Y-138469479D01*
X127537923Y-138231021D01*
X127643295Y-137976632D01*
X127714560Y-137710666D01*
X127750500Y-137437674D01*
X127750500Y-137162326D01*
X127714560Y-136889334D01*
X127643295Y-136623368D01*
X127537923Y-136368979D01*
X127400249Y-136130521D01*
X127232628Y-135912072D01*
X127037928Y-135717372D01*
X126819479Y-135549751D01*
X126581021Y-135412077D01*
X126581016Y-135412074D01*
X126326631Y-135306704D01*
X126205521Y-135274253D01*
X126060666Y-135235440D01*
X126060659Y-135235439D01*
X125787675Y-135199500D01*
X125787674Y-135199500D01*
X125512326Y-135199500D01*
X125512324Y-135199500D01*
X125239340Y-135235439D01*
X125239338Y-135235439D01*
X125239334Y-135235440D01*
X125138805Y-135262376D01*
X124973368Y-135306704D01*
X124718983Y-135412074D01*
X124480517Y-135549753D01*
X124262075Y-135717369D01*
X124067369Y-135912075D01*
X123899753Y-136130517D01*
X123762074Y-136368983D01*
X123656704Y-136623368D01*
X123612504Y-136788330D01*
X123585440Y-136889334D01*
X123585439Y-136889338D01*
X123585439Y-136889340D01*
X123549500Y-137162324D01*
X123549500Y-137437675D01*
X123585439Y-137710659D01*
X123585440Y-137710666D01*
X123603423Y-137777779D01*
X123656704Y-137976631D01*
X123762074Y-138231016D01*
X123762077Y-138231021D01*
X123899751Y-138469479D01*
X124067372Y-138687928D01*
X124262072Y-138882628D01*
X124480521Y-139050249D01*
X124718979Y-139187923D01*
X124718980Y-139187923D01*
X124718983Y-139187925D01*
X124793489Y-139218786D01*
X124973368Y-139293295D01*
X125164784Y-139344584D01*
X125216097Y-139377907D01*
X125238024Y-139435028D01*
X125222189Y-139494129D01*
X125174639Y-139532634D01*
X125140301Y-139539203D01*
X123075888Y-139562991D01*
X123017483Y-139544756D01*
X122980951Y-139495674D01*
X122975747Y-139464078D01*
X122967072Y-128703707D01*
X125240500Y-128703707D01*
X125240500Y-128856293D01*
X125241625Y-128860492D01*
X125279993Y-129003682D01*
X125356281Y-129135816D01*
X125356283Y-129135818D01*
X125356285Y-129135821D01*
X125464179Y-129243715D01*
X125464181Y-129243716D01*
X125464183Y-129243718D01*
X125596318Y-129320006D01*
X125596319Y-129320006D01*
X125596322Y-129320008D01*
X125743707Y-129359500D01*
X125743708Y-129359500D01*
X125896292Y-129359500D01*
X125896293Y-129359500D01*
X126043678Y-129320008D01*
X126043680Y-129320006D01*
X126043682Y-129320006D01*
X126175816Y-129243718D01*
X126175816Y-129243717D01*
X126175821Y-129243715D01*
X126283715Y-129135821D01*
X126360008Y-129003678D01*
X126399500Y-128856293D01*
X126399500Y-128703707D01*
X126360008Y-128556322D01*
X126293248Y-128440691D01*
X128849500Y-128440691D01*
X128849500Y-128559309D01*
X128876574Y-128660351D01*
X128880202Y-128673890D01*
X128939507Y-128776608D01*
X128939509Y-128776610D01*
X128939511Y-128776613D01*
X129023387Y-128860489D01*
X129023389Y-128860490D01*
X129023391Y-128860492D01*
X129126110Y-128919797D01*
X129126111Y-128919797D01*
X129126114Y-128919799D01*
X129240691Y-128950500D01*
X129240693Y-128950500D01*
X129359307Y-128950500D01*
X129359309Y-128950500D01*
X129473886Y-128919799D01*
X129473888Y-128919797D01*
X129473890Y-128919797D01*
X129576608Y-128860492D01*
X129576608Y-128860491D01*
X129576613Y-128860489D01*
X129660489Y-128776613D01*
X129719799Y-128673886D01*
X129750500Y-128559309D01*
X129750500Y-128440691D01*
X129719799Y-128326114D01*
X129719797Y-128326111D01*
X129719797Y-128326109D01*
X129660492Y-128223391D01*
X129660490Y-128223389D01*
X129660489Y-128223387D01*
X129576613Y-128139511D01*
X129576610Y-128139509D01*
X129576608Y-128139507D01*
X129473889Y-128080202D01*
X129473890Y-128080202D01*
X129460351Y-128076574D01*
X129359309Y-128049500D01*
X129240691Y-128049500D01*
X129170567Y-128068289D01*
X129126109Y-128080202D01*
X129023391Y-128139507D01*
X128939507Y-128223391D01*
X128880202Y-128326109D01*
X128880201Y-128326114D01*
X128849500Y-128440691D01*
X126293248Y-128440691D01*
X126283715Y-128424179D01*
X126175821Y-128316285D01*
X126175818Y-128316283D01*
X126175816Y-128316281D01*
X126043681Y-128239993D01*
X126043682Y-128239993D01*
X126012532Y-128231646D01*
X125896293Y-128200500D01*
X125743707Y-128200500D01*
X125678720Y-128217913D01*
X125596317Y-128239993D01*
X125464183Y-128316281D01*
X125356281Y-128424183D01*
X125279993Y-128556317D01*
X125242217Y-128697298D01*
X125240500Y-128703707D01*
X122967072Y-128703707D01*
X122964875Y-125978470D01*
X122983735Y-125920266D01*
X123033206Y-125884262D01*
X123094392Y-125884213D01*
X123113375Y-125892656D01*
X123180986Y-125931691D01*
X123180987Y-125931691D01*
X123180990Y-125931693D01*
X123295567Y-125962394D01*
X123295569Y-125962394D01*
X123414183Y-125962394D01*
X123414185Y-125962394D01*
X123528762Y-125931693D01*
X123528764Y-125931691D01*
X123528766Y-125931691D01*
X123631484Y-125872386D01*
X123631484Y-125872385D01*
X123631489Y-125872383D01*
X123715365Y-125788507D01*
X123774675Y-125685780D01*
X123805376Y-125571203D01*
X123805376Y-125452585D01*
X123774675Y-125338008D01*
X123774673Y-125338005D01*
X123774673Y-125338003D01*
X123715368Y-125235285D01*
X123715366Y-125235283D01*
X123715365Y-125235281D01*
X123631489Y-125151405D01*
X123631486Y-125151403D01*
X123631484Y-125151401D01*
X123528765Y-125092096D01*
X123528766Y-125092096D01*
X123515227Y-125088468D01*
X123414185Y-125061394D01*
X123295567Y-125061394D01*
X123238278Y-125076744D01*
X123180988Y-125092095D01*
X123112624Y-125131566D01*
X123052775Y-125144287D01*
X122996880Y-125119400D01*
X122966287Y-125066412D01*
X122964124Y-125045909D01*
X122963740Y-124569799D01*
X122963354Y-124090691D01*
X123449500Y-124090691D01*
X123449500Y-124209309D01*
X123451661Y-124217373D01*
X123480202Y-124323890D01*
X123539507Y-124426608D01*
X123539509Y-124426610D01*
X123539511Y-124426613D01*
X123623387Y-124510489D01*
X123623389Y-124510490D01*
X123623391Y-124510492D01*
X123726110Y-124569797D01*
X123726111Y-124569797D01*
X123726114Y-124569799D01*
X123840691Y-124600500D01*
X123840693Y-124600500D01*
X123959307Y-124600500D01*
X123959309Y-124600500D01*
X124073886Y-124569799D01*
X124073888Y-124569797D01*
X124073890Y-124569797D01*
X124176608Y-124510492D01*
X124176608Y-124510491D01*
X124176613Y-124510489D01*
X124260489Y-124426613D01*
X124319799Y-124323886D01*
X124350500Y-124209309D01*
X124350500Y-124090691D01*
X124319799Y-123976114D01*
X124319797Y-123976111D01*
X124319797Y-123976109D01*
X124260492Y-123873391D01*
X124260490Y-123873389D01*
X124260489Y-123873387D01*
X124176613Y-123789511D01*
X124176610Y-123789509D01*
X124176608Y-123789507D01*
X124073889Y-123730202D01*
X124073890Y-123730202D01*
X124060351Y-123726574D01*
X123959309Y-123699500D01*
X123840691Y-123699500D01*
X123770567Y-123718289D01*
X123726109Y-123730202D01*
X123623391Y-123789507D01*
X123539507Y-123873391D01*
X123480202Y-123976109D01*
X123480201Y-123976114D01*
X123449500Y-124090691D01*
X122963354Y-124090691D01*
X122962413Y-122923707D01*
X125240500Y-122923707D01*
X125240500Y-123076292D01*
X125279993Y-123223682D01*
X125356281Y-123355816D01*
X125356283Y-123355818D01*
X125356285Y-123355821D01*
X125464179Y-123463715D01*
X125464181Y-123463716D01*
X125464183Y-123463718D01*
X125596318Y-123540006D01*
X125596319Y-123540006D01*
X125596322Y-123540008D01*
X125743707Y-123579500D01*
X125743708Y-123579500D01*
X125896292Y-123579500D01*
X125896293Y-123579500D01*
X126043678Y-123540008D01*
X126043680Y-123540006D01*
X126043682Y-123540006D01*
X126175816Y-123463718D01*
X126175816Y-123463717D01*
X126175821Y-123463715D01*
X126283715Y-123355821D01*
X126283718Y-123355816D01*
X126360006Y-123223682D01*
X126360006Y-123223680D01*
X126360008Y-123223678D01*
X126395642Y-123090691D01*
X129249500Y-123090691D01*
X129249500Y-123209309D01*
X129276574Y-123310351D01*
X129280202Y-123323890D01*
X129339507Y-123426608D01*
X129339509Y-123426610D01*
X129339511Y-123426613D01*
X129423387Y-123510489D01*
X129423389Y-123510490D01*
X129423391Y-123510492D01*
X129526110Y-123569797D01*
X129526111Y-123569797D01*
X129526114Y-123569799D01*
X129640691Y-123600500D01*
X129640693Y-123600500D01*
X129759307Y-123600500D01*
X129759309Y-123600500D01*
X129873886Y-123569799D01*
X129873888Y-123569797D01*
X129873890Y-123569797D01*
X129976608Y-123510492D01*
X129976608Y-123510491D01*
X129976613Y-123510489D01*
X130060489Y-123426613D01*
X130119799Y-123323886D01*
X130150500Y-123209309D01*
X130150500Y-123090691D01*
X130119799Y-122976114D01*
X130119797Y-122976111D01*
X130119797Y-122976109D01*
X130060492Y-122873391D01*
X130060490Y-122873389D01*
X130060489Y-122873387D01*
X129976613Y-122789511D01*
X129976610Y-122789509D01*
X129976608Y-122789507D01*
X129873889Y-122730202D01*
X129873890Y-122730202D01*
X129860351Y-122726574D01*
X129759309Y-122699500D01*
X129640691Y-122699500D01*
X129570567Y-122718289D01*
X129526109Y-122730202D01*
X129423391Y-122789507D01*
X129339507Y-122873391D01*
X129280202Y-122976109D01*
X129280201Y-122976114D01*
X129249500Y-123090691D01*
X126395642Y-123090691D01*
X126399500Y-123076293D01*
X126399500Y-122923707D01*
X126360008Y-122776322D01*
X126360006Y-122776319D01*
X126360006Y-122776317D01*
X126283718Y-122644183D01*
X126283716Y-122644181D01*
X126283715Y-122644179D01*
X126175821Y-122536285D01*
X126175818Y-122536283D01*
X126175816Y-122536281D01*
X126043681Y-122459993D01*
X126043682Y-122459993D01*
X126008254Y-122450500D01*
X125896293Y-122420500D01*
X125743707Y-122420500D01*
X125678720Y-122437913D01*
X125596317Y-122459993D01*
X125464183Y-122536281D01*
X125356281Y-122644183D01*
X125279993Y-122776317D01*
X125240500Y-122923707D01*
X122962413Y-122923707D01*
X122961621Y-121940691D01*
X123649500Y-121940691D01*
X123649500Y-122059309D01*
X123676574Y-122160351D01*
X123680202Y-122173890D01*
X123739507Y-122276608D01*
X123739509Y-122276610D01*
X123739511Y-122276613D01*
X123823387Y-122360489D01*
X123823389Y-122360490D01*
X123823391Y-122360492D01*
X123926110Y-122419797D01*
X123926111Y-122419797D01*
X123926114Y-122419799D01*
X124040691Y-122450500D01*
X124040693Y-122450500D01*
X124159307Y-122450500D01*
X124159309Y-122450500D01*
X124273886Y-122419799D01*
X124273888Y-122419797D01*
X124273890Y-122419797D01*
X124376608Y-122360492D01*
X124376608Y-122360491D01*
X124376613Y-122360489D01*
X124460489Y-122276613D01*
X124519799Y-122173886D01*
X124550500Y-122059309D01*
X124550500Y-121940691D01*
X124519799Y-121826114D01*
X124519797Y-121826111D01*
X124519797Y-121826109D01*
X124460492Y-121723391D01*
X124460490Y-121723389D01*
X124460489Y-121723387D01*
X124376613Y-121639511D01*
X124376610Y-121639509D01*
X124376608Y-121639507D01*
X124273889Y-121580202D01*
X124273890Y-121580202D01*
X124260351Y-121576574D01*
X124159309Y-121549500D01*
X124040691Y-121549500D01*
X123970567Y-121568289D01*
X123926109Y-121580202D01*
X123823391Y-121639507D01*
X123739507Y-121723391D01*
X123680202Y-121826109D01*
X123680201Y-121826114D01*
X123649500Y-121940691D01*
X122961621Y-121940691D01*
X122959318Y-119083950D01*
X123265714Y-119083950D01*
X123265714Y-119202568D01*
X123280722Y-119258578D01*
X123296416Y-119317149D01*
X123355721Y-119419867D01*
X123355723Y-119419869D01*
X123355725Y-119419872D01*
X123439601Y-119503748D01*
X123439603Y-119503749D01*
X123439605Y-119503751D01*
X123542324Y-119563056D01*
X123542325Y-119563056D01*
X123542328Y-119563058D01*
X123656905Y-119593759D01*
X123656907Y-119593759D01*
X123775521Y-119593759D01*
X123775523Y-119593759D01*
X123890100Y-119563058D01*
X123890102Y-119563056D01*
X123890104Y-119563056D01*
X123992822Y-119503751D01*
X123992822Y-119503750D01*
X123992827Y-119503748D01*
X124076703Y-119419872D01*
X124136013Y-119317145D01*
X124143101Y-119290691D01*
X125849500Y-119290691D01*
X125849500Y-119409309D01*
X125873632Y-119499370D01*
X125880202Y-119523890D01*
X125939507Y-119626608D01*
X125939509Y-119626610D01*
X125939511Y-119626613D01*
X126023387Y-119710489D01*
X126023389Y-119710490D01*
X126023391Y-119710492D01*
X126126110Y-119769797D01*
X126126111Y-119769797D01*
X126126114Y-119769799D01*
X126240691Y-119800500D01*
X126240693Y-119800500D01*
X126359307Y-119800500D01*
X126359309Y-119800500D01*
X126473886Y-119769799D01*
X126473888Y-119769797D01*
X126473890Y-119769797D01*
X126576608Y-119710492D01*
X126576608Y-119710491D01*
X126576613Y-119710489D01*
X126660489Y-119626613D01*
X126660492Y-119626608D01*
X126719797Y-119523890D01*
X126719797Y-119523888D01*
X126719799Y-119523886D01*
X126750500Y-119409309D01*
X126750500Y-119290691D01*
X126719799Y-119176114D01*
X126719797Y-119176111D01*
X126719797Y-119176109D01*
X126660492Y-119073391D01*
X126660490Y-119073389D01*
X126660489Y-119073387D01*
X126576613Y-118989511D01*
X126576610Y-118989509D01*
X126576608Y-118989507D01*
X126473889Y-118930202D01*
X126473890Y-118930202D01*
X126460351Y-118926574D01*
X126359309Y-118899500D01*
X126240691Y-118899500D01*
X126170567Y-118918289D01*
X126126109Y-118930202D01*
X126023391Y-118989507D01*
X125939507Y-119073391D01*
X125880202Y-119176109D01*
X125863037Y-119240169D01*
X125849500Y-119290691D01*
X124143101Y-119290691D01*
X124166714Y-119202568D01*
X124166714Y-119083950D01*
X124136013Y-118969373D01*
X124136011Y-118969370D01*
X124136011Y-118969368D01*
X124076706Y-118866650D01*
X124076704Y-118866648D01*
X124076703Y-118866646D01*
X123992827Y-118782770D01*
X123992824Y-118782768D01*
X123992822Y-118782766D01*
X123890103Y-118723461D01*
X123890104Y-118723461D01*
X123876565Y-118719833D01*
X123775523Y-118692759D01*
X123656905Y-118692759D01*
X123586781Y-118711548D01*
X123542323Y-118723461D01*
X123439605Y-118782766D01*
X123355721Y-118866650D01*
X123296416Y-118969368D01*
X123296415Y-118969373D01*
X123265714Y-119083950D01*
X122959318Y-119083950D01*
X122957309Y-116590691D01*
X123499500Y-116590691D01*
X123499500Y-116709309D01*
X123504137Y-116726613D01*
X123530202Y-116823890D01*
X123589507Y-116926608D01*
X123589509Y-116926610D01*
X123589511Y-116926613D01*
X123673387Y-117010489D01*
X123673389Y-117010490D01*
X123673391Y-117010492D01*
X123776110Y-117069797D01*
X123776111Y-117069797D01*
X123776114Y-117069799D01*
X123890691Y-117100500D01*
X123890693Y-117100500D01*
X124009307Y-117100500D01*
X124009309Y-117100500D01*
X124123886Y-117069799D01*
X124123888Y-117069797D01*
X124123890Y-117069797D01*
X124174302Y-117040691D01*
X127649500Y-117040691D01*
X127649500Y-117159309D01*
X127676574Y-117260351D01*
X127680202Y-117273890D01*
X127739507Y-117376608D01*
X127739509Y-117376610D01*
X127739511Y-117376613D01*
X127823387Y-117460489D01*
X127823389Y-117460490D01*
X127823391Y-117460492D01*
X127926110Y-117519797D01*
X127926111Y-117519797D01*
X127926114Y-117519799D01*
X128040691Y-117550500D01*
X128040693Y-117550500D01*
X128159307Y-117550500D01*
X128159309Y-117550500D01*
X128273886Y-117519799D01*
X128273888Y-117519797D01*
X128273890Y-117519797D01*
X128376608Y-117460492D01*
X128376608Y-117460491D01*
X128376613Y-117460489D01*
X128460489Y-117376613D01*
X128461121Y-117375518D01*
X128519797Y-117273890D01*
X128519797Y-117273888D01*
X128519799Y-117273886D01*
X128550500Y-117159309D01*
X128550500Y-117040691D01*
X128519799Y-116926114D01*
X128519797Y-116926111D01*
X128519797Y-116926109D01*
X128460492Y-116823391D01*
X128460490Y-116823389D01*
X128460489Y-116823387D01*
X128376613Y-116739511D01*
X128376610Y-116739509D01*
X128376608Y-116739507D01*
X128273889Y-116680202D01*
X128273890Y-116680202D01*
X128260351Y-116676574D01*
X128159309Y-116649500D01*
X128040691Y-116649500D01*
X127970567Y-116668289D01*
X127926109Y-116680202D01*
X127823391Y-116739507D01*
X127739507Y-116823391D01*
X127680202Y-116926109D01*
X127680068Y-116926609D01*
X127649500Y-117040691D01*
X124174302Y-117040691D01*
X124226608Y-117010492D01*
X124226608Y-117010491D01*
X124226613Y-117010489D01*
X124310489Y-116926613D01*
X124310780Y-116926109D01*
X124369797Y-116823890D01*
X124369797Y-116823888D01*
X124369799Y-116823886D01*
X124400500Y-116709309D01*
X124400500Y-116590691D01*
X124369799Y-116476114D01*
X124369797Y-116476111D01*
X124369797Y-116476109D01*
X124310492Y-116373391D01*
X124310490Y-116373389D01*
X124310489Y-116373387D01*
X124226613Y-116289511D01*
X124226610Y-116289509D01*
X124226608Y-116289507D01*
X124123889Y-116230202D01*
X124123890Y-116230202D01*
X124110351Y-116226574D01*
X124009309Y-116199500D01*
X123890691Y-116199500D01*
X123820567Y-116218289D01*
X123776109Y-116230202D01*
X123673391Y-116289507D01*
X123589507Y-116373391D01*
X123530202Y-116476109D01*
X123530201Y-116476114D01*
X123499500Y-116590691D01*
X122957309Y-116590691D01*
X122956500Y-115587539D01*
X122956500Y-115536988D01*
X122956463Y-115536850D01*
X122956463Y-115536719D01*
X122956459Y-115536689D01*
X122956459Y-115536680D01*
X122943509Y-115488506D01*
X122943494Y-115488450D01*
X122943489Y-115488429D01*
X122935685Y-115459307D01*
X122930501Y-115439959D01*
X122930422Y-115439823D01*
X122930382Y-115439672D01*
X122914973Y-115413032D01*
X122905308Y-115396322D01*
X122905269Y-115396255D01*
X122902056Y-115390691D01*
X125699500Y-115390691D01*
X125699500Y-115509309D01*
X125720462Y-115587539D01*
X125730202Y-115623890D01*
X125789507Y-115726608D01*
X125789509Y-115726610D01*
X125789511Y-115726613D01*
X125873387Y-115810489D01*
X125873389Y-115810490D01*
X125966526Y-115864264D01*
X126007466Y-115909734D01*
X126013861Y-115970584D01*
X125983268Y-116023572D01*
X125966526Y-116035736D01*
X125873389Y-116089509D01*
X125789507Y-116173391D01*
X125730202Y-116276109D01*
X125730201Y-116276114D01*
X125699500Y-116390691D01*
X125699500Y-116509309D01*
X125719589Y-116584282D01*
X125730202Y-116623890D01*
X125789507Y-116726608D01*
X125789509Y-116726610D01*
X125789511Y-116726613D01*
X125873387Y-116810489D01*
X125873389Y-116810490D01*
X125873391Y-116810492D01*
X125976110Y-116869797D01*
X125976111Y-116869797D01*
X125976114Y-116869799D01*
X126090691Y-116900500D01*
X126090693Y-116900500D01*
X126209307Y-116900500D01*
X126209309Y-116900500D01*
X126323886Y-116869799D01*
X126323888Y-116869797D01*
X126323890Y-116869797D01*
X126426608Y-116810492D01*
X126426608Y-116810491D01*
X126426613Y-116810489D01*
X126510489Y-116726613D01*
X126555011Y-116649500D01*
X126569797Y-116623890D01*
X126569797Y-116623888D01*
X126569799Y-116623886D01*
X126600500Y-116509309D01*
X126600500Y-116390691D01*
X126569799Y-116276114D01*
X126569797Y-116276111D01*
X126569797Y-116276109D01*
X126510492Y-116173391D01*
X126510490Y-116173389D01*
X126510489Y-116173387D01*
X126426613Y-116089511D01*
X126426610Y-116089509D01*
X126426608Y-116089507D01*
X126333474Y-116035736D01*
X126292533Y-115990267D01*
X126286137Y-115929416D01*
X126316730Y-115876428D01*
X126333474Y-115864264D01*
X126426608Y-115810492D01*
X126426608Y-115810491D01*
X126426613Y-115810489D01*
X126510489Y-115726613D01*
X126510950Y-115725814D01*
X126569797Y-115623890D01*
X126569797Y-115623888D01*
X126569799Y-115623886D01*
X126600500Y-115509309D01*
X126600500Y-115390691D01*
X126569799Y-115276114D01*
X126569797Y-115276111D01*
X126569797Y-115276109D01*
X126510492Y-115173391D01*
X126510490Y-115173389D01*
X126510489Y-115173387D01*
X126426613Y-115089511D01*
X126426610Y-115089509D01*
X126426608Y-115089507D01*
X126323889Y-115030202D01*
X126323890Y-115030202D01*
X126300318Y-115023886D01*
X126209309Y-114999500D01*
X126090691Y-114999500D01*
X126020567Y-115018289D01*
X125976109Y-115030202D01*
X125873391Y-115089507D01*
X125789507Y-115173391D01*
X125730202Y-115276109D01*
X125719089Y-115317583D01*
X125699500Y-115390691D01*
X122902056Y-115390691D01*
X122900118Y-115387334D01*
X122880276Y-115352966D01*
X122880271Y-115352961D01*
X122880152Y-115352805D01*
X122880151Y-115352804D01*
X122880142Y-115352792D01*
X122880084Y-115352716D01*
X122844978Y-115317667D01*
X122844544Y-115317234D01*
X122809247Y-115281937D01*
X122809128Y-115281868D01*
X122809026Y-115281766D01*
X122809005Y-115281751D01*
X122809002Y-115281749D01*
X122809001Y-115281748D01*
X122765356Y-115256596D01*
X122765356Y-115256595D01*
X122764636Y-115256180D01*
X122722254Y-115231712D01*
X122722103Y-115231671D01*
X122721967Y-115231593D01*
X122673688Y-115218698D01*
X122667513Y-115217043D01*
X122625220Y-115205711D01*
X122624925Y-115205673D01*
X122624917Y-115205673D01*
X122580823Y-115205708D01*
X122575311Y-115205713D01*
X119286294Y-115205713D01*
X119228103Y-115186806D01*
X119192139Y-115137306D01*
X119192139Y-115076120D01*
X119200558Y-115057212D01*
X119219799Y-115023886D01*
X119250500Y-114909309D01*
X119250500Y-114790691D01*
X119219799Y-114676114D01*
X119219797Y-114676111D01*
X119219797Y-114676109D01*
X119160492Y-114573391D01*
X119160491Y-114573390D01*
X119160490Y-114573389D01*
X119160489Y-114573387D01*
X119128728Y-114541626D01*
X119100952Y-114487109D01*
X119100673Y-114465798D01*
X119100500Y-114465798D01*
X119100500Y-114340694D01*
X119100500Y-114340691D01*
X119073705Y-114240691D01*
X122749500Y-114240691D01*
X122749500Y-114359309D01*
X122757168Y-114387925D01*
X122780202Y-114473890D01*
X122839507Y-114576608D01*
X122839509Y-114576610D01*
X122839511Y-114576613D01*
X122923387Y-114660489D01*
X122923389Y-114660490D01*
X122923391Y-114660492D01*
X123026110Y-114719797D01*
X123026111Y-114719797D01*
X123026114Y-114719799D01*
X123140691Y-114750500D01*
X123140693Y-114750500D01*
X123259307Y-114750500D01*
X123259309Y-114750500D01*
X123373886Y-114719799D01*
X123373888Y-114719797D01*
X123373890Y-114719797D01*
X123424302Y-114690691D01*
X127349500Y-114690691D01*
X127349500Y-114809309D01*
X127376295Y-114909307D01*
X127380202Y-114923890D01*
X127439507Y-115026608D01*
X127439509Y-115026610D01*
X127439511Y-115026613D01*
X127523387Y-115110489D01*
X127523389Y-115110490D01*
X127523391Y-115110492D01*
X127626110Y-115169797D01*
X127626111Y-115169797D01*
X127626114Y-115169799D01*
X127740691Y-115200500D01*
X127740693Y-115200500D01*
X127859307Y-115200500D01*
X127859309Y-115200500D01*
X127973886Y-115169799D01*
X127973888Y-115169797D01*
X127973890Y-115169797D01*
X128076608Y-115110492D01*
X128076608Y-115110491D01*
X128076613Y-115110489D01*
X128160489Y-115026613D01*
X128162062Y-115023888D01*
X128219797Y-114923890D01*
X128219797Y-114923888D01*
X128219799Y-114923886D01*
X128250500Y-114809309D01*
X128250500Y-114690691D01*
X128219799Y-114576114D01*
X128219797Y-114576111D01*
X128219797Y-114576109D01*
X128160492Y-114473391D01*
X128160490Y-114473389D01*
X128160489Y-114473387D01*
X128076613Y-114389511D01*
X128076610Y-114389509D01*
X128076608Y-114389507D01*
X127973889Y-114330202D01*
X127973890Y-114330202D01*
X127960351Y-114326574D01*
X127859309Y-114299500D01*
X127740691Y-114299500D01*
X127670567Y-114318289D01*
X127626109Y-114330202D01*
X127523391Y-114389507D01*
X127439507Y-114473391D01*
X127380202Y-114576109D01*
X127373667Y-114600499D01*
X127349500Y-114690691D01*
X123424302Y-114690691D01*
X123476608Y-114660492D01*
X123476608Y-114660491D01*
X123476613Y-114660489D01*
X123560489Y-114576613D01*
X123562061Y-114573890D01*
X123619797Y-114473890D01*
X123619797Y-114473888D01*
X123619799Y-114473886D01*
X123650500Y-114359309D01*
X123650500Y-114240691D01*
X123619799Y-114126114D01*
X123619797Y-114126111D01*
X123619797Y-114126109D01*
X123560492Y-114023391D01*
X123560490Y-114023389D01*
X123560489Y-114023387D01*
X123476613Y-113939511D01*
X123476610Y-113939509D01*
X123476608Y-113939507D01*
X123373889Y-113880202D01*
X123373890Y-113880202D01*
X123360351Y-113876574D01*
X123259309Y-113849500D01*
X123140691Y-113849500D01*
X123070567Y-113868289D01*
X123026109Y-113880202D01*
X122923391Y-113939507D01*
X122839507Y-114023391D01*
X122780202Y-114126109D01*
X122780201Y-114126114D01*
X122749500Y-114240691D01*
X119073705Y-114240691D01*
X119069799Y-114226114D01*
X119057990Y-114205660D01*
X119010492Y-114123391D01*
X119010490Y-114123389D01*
X119010489Y-114123387D01*
X118926613Y-114039511D01*
X118926610Y-114039509D01*
X118926608Y-114039507D01*
X118823889Y-113980202D01*
X118823890Y-113980202D01*
X118785065Y-113969799D01*
X118709309Y-113949500D01*
X118590691Y-113949500D01*
X118549669Y-113960492D01*
X118476109Y-113980202D01*
X118373391Y-114039507D01*
X118289507Y-114123391D01*
X118230202Y-114226109D01*
X118230201Y-114226114D01*
X118199500Y-114340691D01*
X118199500Y-114459309D01*
X118216805Y-114523890D01*
X118230202Y-114573890D01*
X118289507Y-114676608D01*
X118289509Y-114676610D01*
X118289511Y-114676613D01*
X118321272Y-114708374D01*
X118349048Y-114762889D01*
X118349327Y-114784202D01*
X118349500Y-114784202D01*
X118349500Y-114790691D01*
X118349500Y-114909309D01*
X118368496Y-114980201D01*
X118380202Y-115023888D01*
X118399442Y-115057212D01*
X118412164Y-115117060D01*
X118387278Y-115172956D01*
X118334290Y-115203549D01*
X118313706Y-115205713D01*
X80662045Y-115205713D01*
X80661895Y-115205673D01*
X80612290Y-115205713D01*
X80561738Y-115205713D01*
X80561460Y-115205749D01*
X80513344Y-115218683D01*
X80513271Y-115218703D01*
X80464718Y-115231713D01*
X80464442Y-115231827D01*
X80421155Y-115256865D01*
X80421088Y-115256904D01*
X80377728Y-115281938D01*
X80377492Y-115282118D01*
X80342083Y-115317582D01*
X80342084Y-115317583D01*
X80341999Y-115317667D01*
X80341999Y-115317669D01*
X80341674Y-115317993D01*
X80341264Y-115318403D01*
X80306702Y-115352966D01*
X80306624Y-115353100D01*
X80306513Y-115353212D01*
X80306474Y-115353278D01*
X80306473Y-115353280D01*
X80281668Y-115396323D01*
X80281361Y-115396856D01*
X80256477Y-115439959D01*
X80256436Y-115440109D01*
X80256358Y-115440246D01*
X80256330Y-115440347D01*
X80256329Y-115440351D01*
X80251266Y-115459309D01*
X80243489Y-115488429D01*
X80243483Y-115488450D01*
X80243463Y-115488524D01*
X80230477Y-115536988D01*
X80230473Y-115537026D01*
X80230472Y-115537027D01*
X80230438Y-115537286D01*
X80230478Y-115586895D01*
X80230478Y-115643388D01*
X80230523Y-115644085D01*
X80244901Y-133471739D01*
X80226041Y-133529945D01*
X80176570Y-133565949D01*
X80145904Y-133570819D01*
X77820201Y-133570884D01*
X77762009Y-133551978D01*
X77726044Y-133502479D01*
X77726043Y-133441294D01*
X77762005Y-133391793D01*
X77770685Y-133386154D01*
X77919479Y-133300249D01*
X78137928Y-133132628D01*
X78332628Y-132937928D01*
X78500249Y-132719479D01*
X78637923Y-132481021D01*
X78743295Y-132226632D01*
X78814560Y-131960666D01*
X78850500Y-131687674D01*
X78850500Y-131412326D01*
X78814560Y-131139334D01*
X78743295Y-130873368D01*
X78637923Y-130618979D01*
X78500249Y-130380521D01*
X78332628Y-130162072D01*
X78137928Y-129967372D01*
X77919479Y-129799751D01*
X77681021Y-129662077D01*
X77681016Y-129662074D01*
X77426631Y-129556704D01*
X77305521Y-129524253D01*
X77160666Y-129485440D01*
X77160659Y-129485439D01*
X76887675Y-129449500D01*
X76887674Y-129449500D01*
X76612326Y-129449500D01*
X76612324Y-129449500D01*
X76339340Y-129485439D01*
X76339338Y-129485439D01*
X76339334Y-129485440D01*
X76238805Y-129512376D01*
X76073368Y-129556704D01*
X75818983Y-129662074D01*
X75580517Y-129799753D01*
X75362075Y-129967369D01*
X75167369Y-130162075D01*
X74999753Y-130380517D01*
X74862074Y-130618983D01*
X74756704Y-130873368D01*
X74712376Y-131038805D01*
X74685440Y-131139334D01*
X74649500Y-131412326D01*
X74649500Y-131687674D01*
X74685440Y-131960666D01*
X74724253Y-132105521D01*
X74756704Y-132226631D01*
X74862074Y-132481016D01*
X74862077Y-132481021D01*
X74999751Y-132719479D01*
X75167372Y-132937928D01*
X75362072Y-133132628D01*
X75580521Y-133300249D01*
X75729405Y-133386207D01*
X75770345Y-133431676D01*
X75776741Y-133492526D01*
X75746148Y-133545514D01*
X75690252Y-133570401D01*
X75679907Y-133570943D01*
X73262981Y-133571009D01*
X73204789Y-133552103D01*
X73168824Y-133502604D01*
X73167764Y-133499122D01*
X72969620Y-132801371D01*
X72968709Y-132797923D01*
X72949501Y-132719482D01*
X72711933Y-131749305D01*
X72711161Y-131745878D01*
X72492873Y-130688597D01*
X72492214Y-130685085D01*
X72312701Y-129620526D01*
X72312168Y-129616965D01*
X72304259Y-129556705D01*
X72171674Y-128546585D01*
X72171278Y-128543065D01*
X72069985Y-127468241D01*
X72069716Y-127464708D01*
X72007759Y-126386848D01*
X72007621Y-126383331D01*
X71985088Y-125304017D01*
X71985079Y-125300405D01*
X72001997Y-124220948D01*
X72002117Y-124217414D01*
X72058466Y-123139270D01*
X72058714Y-123135758D01*
X72154414Y-122060425D01*
X72154798Y-122056854D01*
X72289726Y-120985722D01*
X72290230Y-120982238D01*
X72464202Y-119916769D01*
X72464848Y-119913222D01*
X72493682Y-119769799D01*
X72677636Y-118854801D01*
X72678387Y-118851391D01*
X72929709Y-117801432D01*
X72930594Y-117798010D01*
X73220116Y-116757918D01*
X73221119Y-116754557D01*
X73548443Y-115725760D01*
X73549566Y-115722440D01*
X73686574Y-115340691D01*
X75849501Y-115340691D01*
X75849501Y-115459309D01*
X75870395Y-115537286D01*
X75880203Y-115573890D01*
X75939508Y-115676608D01*
X75939510Y-115676610D01*
X75939512Y-115676613D01*
X76023388Y-115760489D01*
X76023390Y-115760490D01*
X76023392Y-115760492D01*
X76126111Y-115819797D01*
X76126112Y-115819797D01*
X76126115Y-115819799D01*
X76240692Y-115850500D01*
X76240694Y-115850500D01*
X76359308Y-115850500D01*
X76359310Y-115850500D01*
X76473887Y-115819799D01*
X76473889Y-115819797D01*
X76473891Y-115819797D01*
X76576609Y-115760492D01*
X76576609Y-115760491D01*
X76576614Y-115760489D01*
X76660490Y-115676613D01*
X76696201Y-115614760D01*
X76719798Y-115573890D01*
X76719798Y-115573888D01*
X76719800Y-115573886D01*
X76750501Y-115459309D01*
X76750501Y-115340691D01*
X76719800Y-115226114D01*
X76719798Y-115226111D01*
X76719798Y-115226109D01*
X76660493Y-115123391D01*
X76660491Y-115123389D01*
X76660490Y-115123387D01*
X76576614Y-115039511D01*
X76576611Y-115039509D01*
X76576609Y-115039507D01*
X76473890Y-114980202D01*
X76473891Y-114980202D01*
X76460352Y-114976574D01*
X76359310Y-114949500D01*
X76240692Y-114949500D01*
X76170568Y-114968289D01*
X76126110Y-114980202D01*
X76023392Y-115039507D01*
X75939508Y-115123391D01*
X75880203Y-115226109D01*
X75863953Y-115286754D01*
X75849501Y-115340691D01*
X73686574Y-115340691D01*
X73914281Y-114706228D01*
X73915522Y-114702960D01*
X74317090Y-113700841D01*
X74318473Y-113697562D01*
X74410278Y-113490691D01*
X74799500Y-113490691D01*
X74799500Y-113609309D01*
X74823579Y-113699171D01*
X74830202Y-113723890D01*
X74889507Y-113826608D01*
X74889509Y-113826610D01*
X74889511Y-113826613D01*
X74973387Y-113910489D01*
X74973389Y-113910490D01*
X74973391Y-113910492D01*
X75076110Y-113969797D01*
X75076111Y-113969797D01*
X75076114Y-113969799D01*
X75190691Y-114000500D01*
X75190693Y-114000500D01*
X75309307Y-114000500D01*
X75309309Y-114000500D01*
X75423886Y-113969799D01*
X75423888Y-113969797D01*
X75423890Y-113969797D01*
X75526608Y-113910492D01*
X75526608Y-113910491D01*
X75526613Y-113910489D01*
X75610489Y-113826613D01*
X75640931Y-113773886D01*
X75669797Y-113723890D01*
X75669797Y-113723888D01*
X75669799Y-113723886D01*
X75700500Y-113609309D01*
X75700500Y-113490691D01*
X75669799Y-113376114D01*
X75669797Y-113376111D01*
X75669797Y-113376109D01*
X75610492Y-113273391D01*
X75610490Y-113273389D01*
X75610489Y-113273387D01*
X75526613Y-113189511D01*
X75526610Y-113189509D01*
X75526608Y-113189507D01*
X75423889Y-113130202D01*
X75423890Y-113130202D01*
X75408615Y-113126109D01*
X75309309Y-113099500D01*
X75190691Y-113099500D01*
X75120567Y-113118289D01*
X75076109Y-113130202D01*
X74973391Y-113189507D01*
X74889507Y-113273391D01*
X74830202Y-113376109D01*
X74830201Y-113376114D01*
X74799500Y-113490691D01*
X74410278Y-113490691D01*
X74756404Y-112710743D01*
X74757900Y-112707533D01*
X74926454Y-112362324D01*
X76749500Y-112362324D01*
X76749500Y-112637675D01*
X76764222Y-112749500D01*
X76785440Y-112910666D01*
X76816373Y-113026109D01*
X76856704Y-113176631D01*
X76962074Y-113431016D01*
X76962077Y-113431021D01*
X77099749Y-113669476D01*
X77099753Y-113669482D01*
X77141499Y-113723886D01*
X77267372Y-113887928D01*
X77462072Y-114082628D01*
X77583906Y-114176114D01*
X77649067Y-114226114D01*
X77680521Y-114250249D01*
X77918979Y-114387923D01*
X77918980Y-114387923D01*
X77918983Y-114387925D01*
X78091314Y-114459307D01*
X78173368Y-114493295D01*
X78439334Y-114564560D01*
X78712326Y-114600500D01*
X78712327Y-114600500D01*
X78987673Y-114600500D01*
X78987674Y-114600500D01*
X79260666Y-114564560D01*
X79526632Y-114493295D01*
X79781021Y-114387923D01*
X79949432Y-114290691D01*
X83899500Y-114290691D01*
X83899500Y-114409309D01*
X83916805Y-114473890D01*
X83930202Y-114523890D01*
X83989507Y-114626608D01*
X83989509Y-114626610D01*
X83989511Y-114626613D01*
X84073387Y-114710489D01*
X84073389Y-114710490D01*
X84073391Y-114710492D01*
X84176110Y-114769797D01*
X84176111Y-114769797D01*
X84176114Y-114769799D01*
X84290691Y-114800500D01*
X84290693Y-114800500D01*
X84409307Y-114800500D01*
X84409309Y-114800500D01*
X84523886Y-114769799D01*
X84523888Y-114769797D01*
X84523890Y-114769797D01*
X84626608Y-114710492D01*
X84626608Y-114710491D01*
X84626613Y-114710489D01*
X84710489Y-114626613D01*
X84717657Y-114614198D01*
X84769797Y-114523890D01*
X84769797Y-114523888D01*
X84769799Y-114523886D01*
X84800500Y-114409309D01*
X84800500Y-114290691D01*
X84769799Y-114176114D01*
X84769797Y-114176111D01*
X84769797Y-114176109D01*
X84710492Y-114073391D01*
X84710490Y-114073389D01*
X84710489Y-114073387D01*
X84626613Y-113989511D01*
X84626610Y-113989509D01*
X84626608Y-113989507D01*
X84523889Y-113930202D01*
X84523890Y-113930202D01*
X84510351Y-113926574D01*
X84409309Y-113899500D01*
X84290691Y-113899500D01*
X84249669Y-113910492D01*
X84176109Y-113930202D01*
X84073391Y-113989507D01*
X83989507Y-114073391D01*
X83930202Y-114176109D01*
X83916803Y-114226114D01*
X83899500Y-114290691D01*
X79949432Y-114290691D01*
X80019479Y-114250249D01*
X80237928Y-114082628D01*
X80432628Y-113887928D01*
X80600249Y-113669479D01*
X80674605Y-113540691D01*
X110549500Y-113540691D01*
X110549500Y-113659309D01*
X110566805Y-113723890D01*
X110580202Y-113773890D01*
X110639507Y-113876608D01*
X110639509Y-113876610D01*
X110639511Y-113876613D01*
X110723387Y-113960489D01*
X110723389Y-113960490D01*
X110723391Y-113960492D01*
X110826110Y-114019797D01*
X110826111Y-114019797D01*
X110826114Y-114019799D01*
X110940691Y-114050500D01*
X110940693Y-114050500D01*
X111059307Y-114050500D01*
X111059309Y-114050500D01*
X111173886Y-114019799D01*
X111173888Y-114019797D01*
X111173890Y-114019797D01*
X111276608Y-113960492D01*
X111276608Y-113960491D01*
X111276613Y-113960489D01*
X111360489Y-113876613D01*
X111419799Y-113773886D01*
X111450500Y-113659309D01*
X111450500Y-113540691D01*
X111419799Y-113426114D01*
X111419797Y-113426111D01*
X111419797Y-113426109D01*
X111360492Y-113323391D01*
X111360490Y-113323389D01*
X111360489Y-113323387D01*
X111276613Y-113239511D01*
X111276610Y-113239509D01*
X111276608Y-113239507D01*
X111242713Y-113219938D01*
X111242712Y-113219938D01*
X111173888Y-113180202D01*
X111173887Y-113180201D01*
X111173886Y-113180201D01*
X111059309Y-113149500D01*
X110940691Y-113149500D01*
X110899669Y-113160492D01*
X110826109Y-113180202D01*
X110723391Y-113239507D01*
X110639507Y-113323391D01*
X110580202Y-113426109D01*
X110573150Y-113452429D01*
X110549500Y-113540691D01*
X80674605Y-113540691D01*
X80737923Y-113431021D01*
X80843295Y-113176632D01*
X80914560Y-112910666D01*
X80950500Y-112637674D01*
X80950500Y-112440691D01*
X93999500Y-112440691D01*
X93999500Y-112559309D01*
X94020498Y-112637673D01*
X94030202Y-112673890D01*
X94089507Y-112776608D01*
X94089509Y-112776610D01*
X94089511Y-112776613D01*
X94173387Y-112860489D01*
X94173389Y-112860490D01*
X94173391Y-112860492D01*
X94276110Y-112919797D01*
X94276111Y-112919797D01*
X94276114Y-112919799D01*
X94390691Y-112950500D01*
X94390693Y-112950500D01*
X94509307Y-112950500D01*
X94509309Y-112950500D01*
X94623886Y-112919799D01*
X94623888Y-112919797D01*
X94623890Y-112919797D01*
X94726608Y-112860492D01*
X94726608Y-112860491D01*
X94726613Y-112860489D01*
X94810489Y-112776613D01*
X94826143Y-112749500D01*
X94831229Y-112740691D01*
X100699500Y-112740691D01*
X100699500Y-112859309D01*
X100723935Y-112950500D01*
X100730202Y-112973890D01*
X100789507Y-113076608D01*
X100789509Y-113076610D01*
X100789511Y-113076613D01*
X100873387Y-113160489D01*
X100873389Y-113160490D01*
X100873391Y-113160492D01*
X100976110Y-113219797D01*
X100976111Y-113219797D01*
X100976114Y-113219799D01*
X101090691Y-113250500D01*
X101090693Y-113250500D01*
X101209307Y-113250500D01*
X101209309Y-113250500D01*
X101323886Y-113219799D01*
X101323888Y-113219797D01*
X101323890Y-113219797D01*
X101426608Y-113160492D01*
X101426608Y-113160491D01*
X101426613Y-113160489D01*
X101446411Y-113140691D01*
X116449500Y-113140691D01*
X116449500Y-113259309D01*
X116466670Y-113323387D01*
X116480202Y-113373890D01*
X116539507Y-113476608D01*
X116539509Y-113476610D01*
X116539511Y-113476613D01*
X116623387Y-113560489D01*
X116623389Y-113560490D01*
X116623391Y-113560492D01*
X116726110Y-113619797D01*
X116726111Y-113619797D01*
X116726114Y-113619799D01*
X116840691Y-113650500D01*
X116840693Y-113650500D01*
X116959307Y-113650500D01*
X116959309Y-113650500D01*
X117073886Y-113619799D01*
X117073888Y-113619797D01*
X117073890Y-113619797D01*
X117176608Y-113560492D01*
X117176608Y-113560491D01*
X117176613Y-113560489D01*
X117182752Y-113554349D01*
X117237265Y-113526571D01*
X117297698Y-113536139D01*
X117335208Y-113571733D01*
X117335560Y-113571464D01*
X117337261Y-113573681D01*
X117338493Y-113574850D01*
X117339511Y-113576613D01*
X117423387Y-113660489D01*
X117423389Y-113660490D01*
X117423391Y-113660492D01*
X117526110Y-113719797D01*
X117526111Y-113719797D01*
X117526114Y-113719799D01*
X117640691Y-113750500D01*
X117640693Y-113750500D01*
X117759307Y-113750500D01*
X117759309Y-113750500D01*
X117873886Y-113719799D01*
X117873888Y-113719797D01*
X117873890Y-113719797D01*
X117976608Y-113660492D01*
X117976608Y-113660491D01*
X117976613Y-113660489D01*
X118060489Y-113576613D01*
X118062182Y-113573681D01*
X118119797Y-113473890D01*
X118119797Y-113473888D01*
X118119799Y-113473886D01*
X118150500Y-113359309D01*
X118150500Y-113240691D01*
X118119799Y-113126114D01*
X118119797Y-113126111D01*
X118119797Y-113126109D01*
X118060492Y-113023391D01*
X118060490Y-113023389D01*
X118060489Y-113023387D01*
X117976613Y-112939511D01*
X117976610Y-112939509D01*
X117976608Y-112939507D01*
X117873889Y-112880202D01*
X117873890Y-112880202D01*
X117860351Y-112876574D01*
X117759309Y-112849500D01*
X117640691Y-112849500D01*
X117599669Y-112860492D01*
X117526109Y-112880202D01*
X117423391Y-112939507D01*
X117423384Y-112939513D01*
X117417242Y-112945655D01*
X117362724Y-112973430D01*
X117302293Y-112963856D01*
X117264792Y-112928265D01*
X117264440Y-112928536D01*
X117262732Y-112926310D01*
X117261503Y-112925144D01*
X117260491Y-112923391D01*
X117260489Y-112923387D01*
X117176613Y-112839511D01*
X117176610Y-112839509D01*
X117176608Y-112839507D01*
X117073889Y-112780202D01*
X117073890Y-112780202D01*
X117060351Y-112776574D01*
X116959309Y-112749500D01*
X116840691Y-112749500D01*
X116770567Y-112768289D01*
X116726109Y-112780202D01*
X116623391Y-112839507D01*
X116539507Y-112923391D01*
X116480202Y-113026109D01*
X116480201Y-113026114D01*
X116449500Y-113140691D01*
X101446411Y-113140691D01*
X101510489Y-113076613D01*
X101541217Y-113023391D01*
X101569797Y-112973890D01*
X101569797Y-112973888D01*
X101569799Y-112973886D01*
X101600500Y-112859309D01*
X101600500Y-112740691D01*
X101569799Y-112626114D01*
X101569797Y-112626111D01*
X101569797Y-112626109D01*
X101510492Y-112523391D01*
X101510490Y-112523389D01*
X101510489Y-112523387D01*
X101426613Y-112439511D01*
X101426610Y-112439509D01*
X101426608Y-112439507D01*
X101323889Y-112380202D01*
X101323890Y-112380202D01*
X101285065Y-112369799D01*
X101209309Y-112349500D01*
X101090691Y-112349500D01*
X101020567Y-112368289D01*
X100976109Y-112380202D01*
X100873391Y-112439507D01*
X100789507Y-112523391D01*
X100730202Y-112626109D01*
X100727103Y-112637674D01*
X100699500Y-112740691D01*
X94831229Y-112740691D01*
X94863555Y-112684702D01*
X94863555Y-112684701D01*
X94864214Y-112683558D01*
X94869799Y-112673886D01*
X94900500Y-112559309D01*
X94900500Y-112440691D01*
X94869799Y-112326114D01*
X94869797Y-112326111D01*
X94869797Y-112326109D01*
X94810492Y-112223391D01*
X94810490Y-112223389D01*
X94810489Y-112223387D01*
X94726613Y-112139511D01*
X94726610Y-112139509D01*
X94726608Y-112139507D01*
X94623889Y-112080202D01*
X94623890Y-112080202D01*
X94610351Y-112076574D01*
X94509309Y-112049500D01*
X94390691Y-112049500D01*
X94349669Y-112060492D01*
X94276109Y-112080202D01*
X94173391Y-112139507D01*
X94089507Y-112223391D01*
X94030202Y-112326109D01*
X94016671Y-112376608D01*
X93999500Y-112440691D01*
X80950500Y-112440691D01*
X80950500Y-112362326D01*
X80914560Y-112089334D01*
X80874731Y-111940691D01*
X96499500Y-111940691D01*
X96499500Y-112059309D01*
X96516805Y-112123890D01*
X96530202Y-112173890D01*
X96589507Y-112276608D01*
X96589509Y-112276610D01*
X96589511Y-112276613D01*
X96673387Y-112360489D01*
X96673389Y-112360490D01*
X96673391Y-112360492D01*
X96776110Y-112419797D01*
X96776111Y-112419797D01*
X96776114Y-112419799D01*
X96890691Y-112450500D01*
X96890693Y-112450500D01*
X97009307Y-112450500D01*
X97009309Y-112450500D01*
X97123886Y-112419799D01*
X97123888Y-112419797D01*
X97123890Y-112419797D01*
X97226608Y-112360492D01*
X97226608Y-112360491D01*
X97226613Y-112360489D01*
X97310489Y-112276613D01*
X97312061Y-112273890D01*
X97369797Y-112173890D01*
X97369797Y-112173888D01*
X97369799Y-112173886D01*
X97400500Y-112059309D01*
X97400500Y-111940691D01*
X99249500Y-111940691D01*
X99249500Y-112059309D01*
X99266805Y-112123890D01*
X99280202Y-112173890D01*
X99339507Y-112276608D01*
X99339509Y-112276610D01*
X99339511Y-112276613D01*
X99423387Y-112360489D01*
X99423389Y-112360490D01*
X99423391Y-112360492D01*
X99526110Y-112419797D01*
X99526111Y-112419797D01*
X99526114Y-112419799D01*
X99640691Y-112450500D01*
X99640693Y-112450500D01*
X99759307Y-112450500D01*
X99759309Y-112450500D01*
X99873886Y-112419799D01*
X99873888Y-112419797D01*
X99873890Y-112419797D01*
X99976608Y-112360492D01*
X99976608Y-112360491D01*
X99976613Y-112360489D01*
X100060489Y-112276613D01*
X100062061Y-112273890D01*
X100119797Y-112173890D01*
X100119797Y-112173888D01*
X100119799Y-112173886D01*
X100150500Y-112059309D01*
X100150500Y-112040691D01*
X115899500Y-112040691D01*
X115899500Y-112159309D01*
X115916670Y-112223387D01*
X115930202Y-112273890D01*
X115989507Y-112376608D01*
X115989509Y-112376610D01*
X115989511Y-112376613D01*
X116073387Y-112460489D01*
X116073389Y-112460490D01*
X116073391Y-112460492D01*
X116176110Y-112519797D01*
X116176111Y-112519797D01*
X116176114Y-112519799D01*
X116290691Y-112550500D01*
X116290693Y-112550500D01*
X116409307Y-112550500D01*
X116409309Y-112550500D01*
X116523886Y-112519799D01*
X116523888Y-112519797D01*
X116523890Y-112519797D01*
X116626608Y-112460492D01*
X116626608Y-112460491D01*
X116626613Y-112460489D01*
X116710489Y-112376613D01*
X116726143Y-112349500D01*
X116769797Y-112273890D01*
X116769797Y-112273888D01*
X116769799Y-112273886D01*
X116800500Y-112159309D01*
X116800500Y-112040691D01*
X116769799Y-111926114D01*
X116769797Y-111926111D01*
X116769797Y-111926109D01*
X116710492Y-111823391D01*
X116710490Y-111823389D01*
X116710489Y-111823387D01*
X116626613Y-111739511D01*
X116626610Y-111739509D01*
X116626608Y-111739507D01*
X116592713Y-111719938D01*
X116592712Y-111719938D01*
X116523888Y-111680202D01*
X116523887Y-111680201D01*
X116523886Y-111680201D01*
X116409309Y-111649500D01*
X116290691Y-111649500D01*
X116220567Y-111668289D01*
X116176109Y-111680202D01*
X116073391Y-111739507D01*
X115989507Y-111823391D01*
X115930202Y-111926109D01*
X115917871Y-111972130D01*
X115899500Y-112040691D01*
X100150500Y-112040691D01*
X100150500Y-111940691D01*
X100119799Y-111826114D01*
X100119797Y-111826111D01*
X100119797Y-111826109D01*
X100060492Y-111723391D01*
X100060490Y-111723389D01*
X100060489Y-111723387D01*
X99976613Y-111639511D01*
X99976610Y-111639509D01*
X99976608Y-111639507D01*
X99873889Y-111580202D01*
X99873890Y-111580202D01*
X99832005Y-111568979D01*
X99759309Y-111549500D01*
X99640691Y-111549500D01*
X99599669Y-111560492D01*
X99526109Y-111580202D01*
X99423391Y-111639507D01*
X99339507Y-111723391D01*
X99280202Y-111826109D01*
X99280067Y-111826613D01*
X99249500Y-111940691D01*
X97400500Y-111940691D01*
X97369799Y-111826114D01*
X97369797Y-111826111D01*
X97369797Y-111826109D01*
X97310492Y-111723391D01*
X97310490Y-111723389D01*
X97310489Y-111723387D01*
X97226613Y-111639511D01*
X97226610Y-111639509D01*
X97226608Y-111639507D01*
X97123889Y-111580202D01*
X97123890Y-111580202D01*
X97082005Y-111568979D01*
X97009309Y-111549500D01*
X96890691Y-111549500D01*
X96849669Y-111560492D01*
X96776109Y-111580202D01*
X96673391Y-111639507D01*
X96589507Y-111723391D01*
X96530202Y-111826109D01*
X96530067Y-111826613D01*
X96499500Y-111940691D01*
X80874731Y-111940691D01*
X80843295Y-111823368D01*
X80808560Y-111739511D01*
X80737925Y-111568983D01*
X80732339Y-111559307D01*
X80600249Y-111330521D01*
X80492954Y-111190691D01*
X95399500Y-111190691D01*
X95399500Y-111309309D01*
X95418496Y-111380201D01*
X95430202Y-111423890D01*
X95489507Y-111526608D01*
X95489509Y-111526610D01*
X95489511Y-111526613D01*
X95573387Y-111610489D01*
X95573389Y-111610490D01*
X95573391Y-111610492D01*
X95676110Y-111669797D01*
X95676111Y-111669797D01*
X95676114Y-111669799D01*
X95790691Y-111700500D01*
X95790693Y-111700500D01*
X95909307Y-111700500D01*
X95909309Y-111700500D01*
X96023886Y-111669799D01*
X96023888Y-111669797D01*
X96023890Y-111669797D01*
X96126608Y-111610492D01*
X96126608Y-111610491D01*
X96126613Y-111610489D01*
X96210489Y-111526613D01*
X96212352Y-111523387D01*
X96260097Y-111440691D01*
X100299500Y-111440691D01*
X100299500Y-111559309D01*
X100320989Y-111639507D01*
X100330202Y-111673890D01*
X100389507Y-111776608D01*
X100389509Y-111776610D01*
X100389511Y-111776613D01*
X100473387Y-111860489D01*
X100473389Y-111860490D01*
X100473391Y-111860492D01*
X100576110Y-111919797D01*
X100576111Y-111919797D01*
X100576114Y-111919799D01*
X100690691Y-111950500D01*
X100690693Y-111950500D01*
X100809307Y-111950500D01*
X100809309Y-111950500D01*
X100923886Y-111919799D01*
X100923888Y-111919797D01*
X100923890Y-111919797D01*
X101026608Y-111860492D01*
X101026608Y-111860491D01*
X101026613Y-111860489D01*
X101110489Y-111776613D01*
X101131910Y-111739511D01*
X101169797Y-111673890D01*
X101169797Y-111673888D01*
X101169799Y-111673886D01*
X101178694Y-111640691D01*
X119049500Y-111640691D01*
X119049500Y-111759309D01*
X119067533Y-111826608D01*
X119080202Y-111873890D01*
X119139507Y-111976608D01*
X119139509Y-111976610D01*
X119139511Y-111976613D01*
X119223387Y-112060489D01*
X119223389Y-112060490D01*
X119223391Y-112060492D01*
X119326110Y-112119797D01*
X119326111Y-112119797D01*
X119326114Y-112119799D01*
X119440691Y-112150500D01*
X119440693Y-112150500D01*
X119559307Y-112150500D01*
X119559309Y-112150500D01*
X119673886Y-112119799D01*
X119673888Y-112119797D01*
X119673890Y-112119797D01*
X119776608Y-112060492D01*
X119776608Y-112060491D01*
X119776613Y-112060489D01*
X119860489Y-111976613D01*
X119862061Y-111973890D01*
X119919797Y-111873890D01*
X119919797Y-111873888D01*
X119919799Y-111873886D01*
X119950500Y-111759309D01*
X119950500Y-111740691D01*
X122049500Y-111740691D01*
X122049500Y-111859309D01*
X122071306Y-111940691D01*
X122080202Y-111973890D01*
X122139507Y-112076608D01*
X122139509Y-112076610D01*
X122139511Y-112076613D01*
X122223387Y-112160489D01*
X122223389Y-112160490D01*
X122223391Y-112160492D01*
X122326110Y-112219797D01*
X122326111Y-112219797D01*
X122326114Y-112219799D01*
X122440691Y-112250500D01*
X122440693Y-112250500D01*
X122559307Y-112250500D01*
X122559309Y-112250500D01*
X122673886Y-112219799D01*
X122673888Y-112219797D01*
X122673890Y-112219797D01*
X122776608Y-112160492D01*
X122776608Y-112160491D01*
X122776613Y-112160489D01*
X122860489Y-112076613D01*
X122883545Y-112036680D01*
X122919797Y-111973890D01*
X122919797Y-111973888D01*
X122919799Y-111973886D01*
X122950500Y-111859309D01*
X122950500Y-111740691D01*
X122919799Y-111626114D01*
X122919797Y-111626111D01*
X122919797Y-111626109D01*
X122860492Y-111523391D01*
X122860490Y-111523389D01*
X122860489Y-111523387D01*
X122776613Y-111439511D01*
X122776610Y-111439509D01*
X122776608Y-111439507D01*
X122673889Y-111380202D01*
X122673890Y-111380202D01*
X122635065Y-111369799D01*
X122559309Y-111349500D01*
X122440691Y-111349500D01*
X122370567Y-111368289D01*
X122326109Y-111380202D01*
X122223391Y-111439507D01*
X122139507Y-111523391D01*
X122080202Y-111626109D01*
X122067534Y-111673387D01*
X122049500Y-111740691D01*
X119950500Y-111740691D01*
X119950500Y-111640691D01*
X119919799Y-111526114D01*
X119919797Y-111526111D01*
X119919797Y-111526109D01*
X119860492Y-111423391D01*
X119860490Y-111423389D01*
X119860489Y-111423387D01*
X119776613Y-111339511D01*
X119776610Y-111339509D01*
X119776608Y-111339507D01*
X119673889Y-111280202D01*
X119673890Y-111280202D01*
X119635065Y-111269799D01*
X119559309Y-111249500D01*
X119440691Y-111249500D01*
X119404084Y-111259309D01*
X119326109Y-111280202D01*
X119223391Y-111339507D01*
X119139507Y-111423391D01*
X119080202Y-111526109D01*
X119072073Y-111556447D01*
X119049500Y-111640691D01*
X101178694Y-111640691D01*
X101200500Y-111559309D01*
X101200500Y-111440691D01*
X101169799Y-111326114D01*
X101169797Y-111326111D01*
X101169797Y-111326109D01*
X101110492Y-111223391D01*
X101110490Y-111223389D01*
X101110489Y-111223387D01*
X101026613Y-111139511D01*
X101026610Y-111139509D01*
X101026608Y-111139507D01*
X100923889Y-111080202D01*
X100923890Y-111080202D01*
X100908615Y-111076109D01*
X100809309Y-111049500D01*
X100690691Y-111049500D01*
X100620567Y-111068289D01*
X100576109Y-111080202D01*
X100473391Y-111139507D01*
X100389507Y-111223391D01*
X100330202Y-111326109D01*
X100317400Y-111373886D01*
X100299500Y-111440691D01*
X96260097Y-111440691D01*
X96269797Y-111423890D01*
X96269797Y-111423888D01*
X96269799Y-111423886D01*
X96300500Y-111309309D01*
X96300500Y-111190691D01*
X96269799Y-111076114D01*
X96269797Y-111076111D01*
X96269797Y-111076109D01*
X96210492Y-110973391D01*
X96210490Y-110973389D01*
X96210489Y-110973387D01*
X96126613Y-110889511D01*
X96126610Y-110889509D01*
X96126608Y-110889507D01*
X96023889Y-110830202D01*
X96023890Y-110830202D01*
X96000318Y-110823886D01*
X95909309Y-110799500D01*
X95790691Y-110799500D01*
X95754084Y-110809309D01*
X95676109Y-110830202D01*
X95573391Y-110889507D01*
X95489507Y-110973391D01*
X95430202Y-111076109D01*
X95423667Y-111100500D01*
X95399500Y-111190691D01*
X80492954Y-111190691D01*
X80432628Y-111112072D01*
X80237928Y-110917372D01*
X80097094Y-110809307D01*
X80019482Y-110749753D01*
X79993411Y-110734701D01*
X79802859Y-110624685D01*
X79781016Y-110612074D01*
X79526631Y-110506704D01*
X79388896Y-110469799D01*
X79260666Y-110435440D01*
X79260659Y-110435439D01*
X78987675Y-110399500D01*
X78987674Y-110399500D01*
X78712326Y-110399500D01*
X78712324Y-110399500D01*
X78439340Y-110435439D01*
X78439338Y-110435439D01*
X78439334Y-110435440D01*
X78345838Y-110460492D01*
X78173368Y-110506704D01*
X77918983Y-110612074D01*
X77680517Y-110749753D01*
X77462075Y-110917369D01*
X77267369Y-111112075D01*
X77099753Y-111330517D01*
X76962074Y-111568983D01*
X76856704Y-111823368D01*
X76816374Y-111973886D01*
X76785440Y-112089334D01*
X76785439Y-112089338D01*
X76785439Y-112089340D01*
X76749500Y-112362324D01*
X74926454Y-112362324D01*
X75231578Y-111737409D01*
X75233217Y-111734205D01*
X75238729Y-111723890D01*
X75742003Y-110782077D01*
X75743733Y-110778976D01*
X76115409Y-110140691D01*
X85799500Y-110140691D01*
X85799500Y-110259309D01*
X85817533Y-110326608D01*
X85830202Y-110373890D01*
X85889507Y-110476608D01*
X85889509Y-110476610D01*
X85889511Y-110476613D01*
X85973387Y-110560489D01*
X85973389Y-110560490D01*
X85973391Y-110560492D01*
X86076110Y-110619797D01*
X86076111Y-110619797D01*
X86076114Y-110619799D01*
X86190691Y-110650500D01*
X86190693Y-110650500D01*
X86309307Y-110650500D01*
X86309309Y-110650500D01*
X86423886Y-110619799D01*
X86423888Y-110619797D01*
X86423890Y-110619797D01*
X86526608Y-110560492D01*
X86526608Y-110560491D01*
X86526613Y-110560489D01*
X86610489Y-110476613D01*
X86631229Y-110440691D01*
X86669797Y-110373890D01*
X86669797Y-110373888D01*
X86669799Y-110373886D01*
X86700500Y-110259309D01*
X86700500Y-110140691D01*
X86673705Y-110040691D01*
X95349500Y-110040691D01*
X95349500Y-110159309D01*
X95368496Y-110230201D01*
X95380202Y-110273890D01*
X95439507Y-110376608D01*
X95439509Y-110376610D01*
X95439511Y-110376613D01*
X95523387Y-110460489D01*
X95523389Y-110460490D01*
X95523391Y-110460492D01*
X95626110Y-110519797D01*
X95626111Y-110519797D01*
X95626114Y-110519799D01*
X95740691Y-110550500D01*
X95740693Y-110550500D01*
X95859307Y-110550500D01*
X95859309Y-110550500D01*
X95973886Y-110519799D01*
X95973888Y-110519797D01*
X95973890Y-110519797D01*
X96076608Y-110460492D01*
X96076608Y-110460491D01*
X96076613Y-110460489D01*
X96160489Y-110376613D01*
X96162061Y-110373890D01*
X96219797Y-110273890D01*
X96219797Y-110273888D01*
X96219799Y-110273886D01*
X96250500Y-110159309D01*
X96250500Y-110090691D01*
X109899500Y-110090691D01*
X109899500Y-110209309D01*
X109916805Y-110273890D01*
X109930202Y-110323890D01*
X109984249Y-110417501D01*
X109996971Y-110477349D01*
X109984250Y-110516501D01*
X109930201Y-110610115D01*
X109913113Y-110673890D01*
X109899500Y-110724694D01*
X109899500Y-110843312D01*
X109919994Y-110919797D01*
X109930202Y-110957893D01*
X109989507Y-111060611D01*
X109989509Y-111060613D01*
X109989511Y-111060616D01*
X110073387Y-111144492D01*
X110073389Y-111144493D01*
X110073391Y-111144495D01*
X110176110Y-111203800D01*
X110176111Y-111203800D01*
X110176114Y-111203802D01*
X110290691Y-111234503D01*
X110290693Y-111234503D01*
X110409307Y-111234503D01*
X110409309Y-111234503D01*
X110523886Y-111203802D01*
X110523888Y-111203800D01*
X110523890Y-111203800D01*
X110626608Y-111144495D01*
X110626608Y-111144494D01*
X110626613Y-111144492D01*
X110710489Y-111060616D01*
X110737531Y-111013779D01*
X110769797Y-110957893D01*
X110769797Y-110957891D01*
X110769799Y-110957889D01*
X110800500Y-110843312D01*
X110800500Y-110724694D01*
X110800499Y-110724691D01*
X110800322Y-110723346D01*
X110800500Y-110722385D01*
X110800500Y-110718205D01*
X110801275Y-110718205D01*
X110811471Y-110663185D01*
X110855852Y-110621066D01*
X110916514Y-110613078D01*
X110947973Y-110624683D01*
X111026114Y-110669799D01*
X111140691Y-110700500D01*
X111140693Y-110700500D01*
X111259307Y-110700500D01*
X111259309Y-110700500D01*
X111295916Y-110690691D01*
X114649500Y-110690691D01*
X114649500Y-110809309D01*
X114657592Y-110839507D01*
X114680202Y-110923890D01*
X114739507Y-111026608D01*
X114739509Y-111026610D01*
X114739511Y-111026613D01*
X114823387Y-111110489D01*
X114823389Y-111110490D01*
X114823391Y-111110492D01*
X114926110Y-111169797D01*
X114926111Y-111169797D01*
X114926114Y-111169799D01*
X115040691Y-111200500D01*
X115040693Y-111200500D01*
X115159307Y-111200500D01*
X115159309Y-111200500D01*
X115273886Y-111169799D01*
X115273888Y-111169797D01*
X115273890Y-111169797D01*
X115376608Y-111110492D01*
X115376608Y-111110491D01*
X115376613Y-111110489D01*
X115460489Y-111026613D01*
X115462061Y-111023890D01*
X115519797Y-110923890D01*
X115519797Y-110923888D01*
X115519799Y-110923886D01*
X115550500Y-110809309D01*
X115550500Y-110690691D01*
X115519799Y-110576114D01*
X115460489Y-110473387D01*
X115427793Y-110440691D01*
X115999500Y-110440691D01*
X115999500Y-110559309D01*
X116016048Y-110621066D01*
X116030202Y-110673890D01*
X116089507Y-110776608D01*
X116089509Y-110776610D01*
X116089511Y-110776613D01*
X116173387Y-110860489D01*
X116173389Y-110860490D01*
X116173391Y-110860492D01*
X116276110Y-110919797D01*
X116276111Y-110919797D01*
X116276114Y-110919799D01*
X116390691Y-110950500D01*
X116390693Y-110950500D01*
X116509307Y-110950500D01*
X116509309Y-110950500D01*
X116623886Y-110919799D01*
X116623888Y-110919797D01*
X116623890Y-110919797D01*
X116726608Y-110860492D01*
X116726608Y-110860491D01*
X116726613Y-110860489D01*
X116796411Y-110790691D01*
X121449500Y-110790691D01*
X121449500Y-110909309D01*
X121466670Y-110973387D01*
X121480202Y-111023890D01*
X121539507Y-111126608D01*
X121539509Y-111126610D01*
X121539511Y-111126613D01*
X121623387Y-111210489D01*
X121623389Y-111210490D01*
X121623391Y-111210492D01*
X121726110Y-111269797D01*
X121726111Y-111269797D01*
X121726114Y-111269799D01*
X121840691Y-111300500D01*
X121840693Y-111300500D01*
X121959307Y-111300500D01*
X121959309Y-111300500D01*
X122073886Y-111269799D01*
X122073888Y-111269797D01*
X122073890Y-111269797D01*
X122176608Y-111210492D01*
X122176608Y-111210491D01*
X122176613Y-111210489D01*
X122246411Y-111140691D01*
X123649500Y-111140691D01*
X123649500Y-111259309D01*
X123668580Y-111330517D01*
X123680202Y-111373890D01*
X123739507Y-111476608D01*
X123739509Y-111476610D01*
X123739511Y-111476613D01*
X123823387Y-111560489D01*
X123823389Y-111560490D01*
X123823391Y-111560492D01*
X123926110Y-111619797D01*
X123926111Y-111619797D01*
X123926114Y-111619799D01*
X124040691Y-111650500D01*
X124040693Y-111650500D01*
X124084840Y-111650500D01*
X124143031Y-111669407D01*
X124178995Y-111718907D01*
X124180467Y-111775123D01*
X124180201Y-111776112D01*
X124180201Y-111776114D01*
X124149500Y-111890691D01*
X124149500Y-112009309D01*
X124162897Y-112059307D01*
X124180202Y-112123890D01*
X124224722Y-112201000D01*
X124237444Y-112260848D01*
X124212557Y-112316744D01*
X124159569Y-112347337D01*
X124147123Y-112348644D01*
X124147125Y-112348653D01*
X124140693Y-112349499D01*
X124026109Y-112380202D01*
X123923391Y-112439507D01*
X123839507Y-112523391D01*
X123780202Y-112626109D01*
X123777103Y-112637674D01*
X123749500Y-112740691D01*
X123749500Y-112859309D01*
X123773935Y-112950500D01*
X123780202Y-112973890D01*
X123839507Y-113076608D01*
X123839509Y-113076610D01*
X123839511Y-113076613D01*
X123923387Y-113160489D01*
X123923389Y-113160490D01*
X123923391Y-113160492D01*
X124026110Y-113219797D01*
X124026111Y-113219797D01*
X124026114Y-113219799D01*
X124140691Y-113250500D01*
X124140693Y-113250500D01*
X124259307Y-113250500D01*
X124259309Y-113250500D01*
X124373886Y-113219799D01*
X124373888Y-113219797D01*
X124373890Y-113219797D01*
X124476608Y-113160492D01*
X124476608Y-113160491D01*
X124476613Y-113160489D01*
X124560489Y-113076613D01*
X124591217Y-113023391D01*
X124619797Y-112973890D01*
X124619797Y-112973888D01*
X124619799Y-112973886D01*
X124650500Y-112859309D01*
X124650500Y-112740691D01*
X124619799Y-112626114D01*
X124619797Y-112626111D01*
X124619797Y-112626109D01*
X124575278Y-112549000D01*
X124562556Y-112489152D01*
X124587443Y-112433256D01*
X124640431Y-112402663D01*
X124652876Y-112401355D01*
X124652875Y-112401347D01*
X124659306Y-112400500D01*
X124659309Y-112400500D01*
X124773886Y-112369799D01*
X124773888Y-112369797D01*
X124773890Y-112369797D01*
X124876608Y-112310492D01*
X124876608Y-112310491D01*
X124876613Y-112310489D01*
X124960489Y-112226613D01*
X124990931Y-112173886D01*
X125019797Y-112123890D01*
X125019797Y-112123888D01*
X125019799Y-112123886D01*
X125050500Y-112009309D01*
X125050500Y-111890691D01*
X125019799Y-111776114D01*
X125019797Y-111776111D01*
X125019797Y-111776109D01*
X124960492Y-111673391D01*
X124960490Y-111673389D01*
X124960489Y-111673387D01*
X124876613Y-111589511D01*
X124876610Y-111589509D01*
X124876608Y-111589507D01*
X124773889Y-111530202D01*
X124773890Y-111530202D01*
X124748456Y-111523387D01*
X124659309Y-111499500D01*
X124615160Y-111499500D01*
X124556969Y-111480593D01*
X124521005Y-111431093D01*
X124519533Y-111374877D01*
X124520894Y-111369799D01*
X124550500Y-111259309D01*
X124550500Y-111140691D01*
X124519799Y-111026114D01*
X124519797Y-111026111D01*
X124519797Y-111026109D01*
X124460492Y-110923391D01*
X124460490Y-110923389D01*
X124460489Y-110923387D01*
X124376613Y-110839511D01*
X124376610Y-110839509D01*
X124376608Y-110839507D01*
X124273889Y-110780202D01*
X124273890Y-110780202D01*
X124258615Y-110776109D01*
X124159309Y-110749500D01*
X124040691Y-110749500D01*
X123970567Y-110768289D01*
X123926109Y-110780202D01*
X123823391Y-110839507D01*
X123739507Y-110923391D01*
X123680202Y-111026109D01*
X123668101Y-111071272D01*
X123649500Y-111140691D01*
X122246411Y-111140691D01*
X122260489Y-111126613D01*
X122301997Y-111054718D01*
X122347466Y-111013779D01*
X122408316Y-111007383D01*
X122437233Y-111018484D01*
X122526110Y-111069797D01*
X122526111Y-111069797D01*
X122526114Y-111069799D01*
X122640691Y-111100500D01*
X122640693Y-111100500D01*
X122759307Y-111100500D01*
X122759309Y-111100500D01*
X122873886Y-111069799D01*
X122873888Y-111069797D01*
X122873890Y-111069797D01*
X122910837Y-111048466D01*
X122976608Y-111010492D01*
X122976608Y-111010491D01*
X122976613Y-111010489D01*
X123060489Y-110926613D01*
X123062061Y-110923890D01*
X123119797Y-110823890D01*
X123119797Y-110823888D01*
X123119799Y-110823886D01*
X123150500Y-110709309D01*
X123150500Y-110590691D01*
X123119799Y-110476114D01*
X123119797Y-110476111D01*
X123119797Y-110476109D01*
X123060492Y-110373391D01*
X123060490Y-110373389D01*
X123060489Y-110373387D01*
X122976613Y-110289511D01*
X122976610Y-110289509D01*
X122976608Y-110289507D01*
X122873889Y-110230202D01*
X122873890Y-110230202D01*
X122848456Y-110223387D01*
X122759309Y-110199500D01*
X122640691Y-110199500D01*
X122604084Y-110209309D01*
X122526109Y-110230202D01*
X122423391Y-110289507D01*
X122339509Y-110373389D01*
X122298002Y-110445280D01*
X122252532Y-110486221D01*
X122191681Y-110492615D01*
X122162766Y-110481516D01*
X122073887Y-110430201D01*
X122026489Y-110417501D01*
X121959309Y-110399500D01*
X121840691Y-110399500D01*
X121799669Y-110410492D01*
X121726109Y-110430202D01*
X121623391Y-110489507D01*
X121539507Y-110573391D01*
X121480202Y-110676109D01*
X121480201Y-110676114D01*
X121449500Y-110790691D01*
X116796411Y-110790691D01*
X116810489Y-110776613D01*
X116869799Y-110673886D01*
X116900500Y-110559309D01*
X116900500Y-110440691D01*
X116869799Y-110326114D01*
X116869797Y-110326111D01*
X116869797Y-110326109D01*
X116810492Y-110223391D01*
X116810490Y-110223389D01*
X116810489Y-110223387D01*
X116726613Y-110139511D01*
X116726610Y-110139509D01*
X116726608Y-110139507D01*
X116623889Y-110080202D01*
X116623890Y-110080202D01*
X116608615Y-110076109D01*
X116509309Y-110049500D01*
X116390691Y-110049500D01*
X116320567Y-110068289D01*
X116276109Y-110080202D01*
X116173391Y-110139507D01*
X116089507Y-110223391D01*
X116030202Y-110326109D01*
X116017534Y-110373387D01*
X115999500Y-110440691D01*
X115427793Y-110440691D01*
X115376613Y-110389511D01*
X115376610Y-110389509D01*
X115376608Y-110389507D01*
X115273889Y-110330202D01*
X115273890Y-110330202D01*
X115237898Y-110320558D01*
X115159309Y-110299500D01*
X115040691Y-110299500D01*
X114999669Y-110310492D01*
X114926109Y-110330202D01*
X114823391Y-110389507D01*
X114739507Y-110473391D01*
X114680202Y-110576109D01*
X114668156Y-110621066D01*
X114649500Y-110690691D01*
X111295916Y-110690691D01*
X111373886Y-110669799D01*
X111373888Y-110669797D01*
X111373890Y-110669797D01*
X111476608Y-110610492D01*
X111476608Y-110610491D01*
X111476613Y-110610489D01*
X111560489Y-110526613D01*
X111571984Y-110506704D01*
X111619797Y-110423890D01*
X111619797Y-110423888D01*
X111619799Y-110423886D01*
X111650500Y-110309309D01*
X111650500Y-110190691D01*
X111619799Y-110076114D01*
X111619797Y-110076111D01*
X111619797Y-110076109D01*
X111595313Y-110033702D01*
X111570480Y-109990691D01*
X112749500Y-109990691D01*
X112749500Y-110109309D01*
X112753406Y-110123886D01*
X112780202Y-110223890D01*
X112839507Y-110326608D01*
X112839509Y-110326610D01*
X112839511Y-110326613D01*
X112923387Y-110410489D01*
X112923389Y-110410490D01*
X112923391Y-110410492D01*
X113026110Y-110469797D01*
X113026111Y-110469797D01*
X113026114Y-110469799D01*
X113140691Y-110500500D01*
X113140693Y-110500500D01*
X113259307Y-110500500D01*
X113259309Y-110500500D01*
X113373886Y-110469799D01*
X113373888Y-110469797D01*
X113373890Y-110469797D01*
X113476608Y-110410492D01*
X113476608Y-110410491D01*
X113476613Y-110410489D01*
X113540019Y-110347082D01*
X113594533Y-110319306D01*
X113654965Y-110328877D01*
X113659500Y-110331339D01*
X113726114Y-110369799D01*
X113840691Y-110400500D01*
X113840693Y-110400500D01*
X113959307Y-110400500D01*
X113959309Y-110400500D01*
X114073886Y-110369799D01*
X114073888Y-110369797D01*
X114073890Y-110369797D01*
X114176608Y-110310492D01*
X114176608Y-110310491D01*
X114176613Y-110310489D01*
X114260489Y-110226613D01*
X114262061Y-110223890D01*
X114319797Y-110123890D01*
X114319797Y-110123888D01*
X114319799Y-110123886D01*
X114350500Y-110009309D01*
X114350500Y-109890691D01*
X114319799Y-109776114D01*
X114319797Y-109776111D01*
X114319797Y-109776109D01*
X114260492Y-109673391D01*
X114260490Y-109673389D01*
X114260489Y-109673387D01*
X114176613Y-109589511D01*
X114176610Y-109589509D01*
X114176608Y-109589507D01*
X114073891Y-109530203D01*
X114073888Y-109530202D01*
X114073886Y-109530201D01*
X113959309Y-109499500D01*
X113840691Y-109499500D01*
X113770567Y-109518289D01*
X113726109Y-109530202D01*
X113623391Y-109589507D01*
X113623386Y-109589511D01*
X113559981Y-109652916D01*
X113505464Y-109680693D01*
X113445032Y-109671121D01*
X113440486Y-109668653D01*
X113373886Y-109630201D01*
X113259309Y-109599500D01*
X113140691Y-109599500D01*
X113070567Y-109618289D01*
X113026109Y-109630202D01*
X112923391Y-109689507D01*
X112839507Y-109773391D01*
X112780202Y-109876109D01*
X112767534Y-109923387D01*
X112749500Y-109990691D01*
X111570480Y-109990691D01*
X111560492Y-109973391D01*
X111560490Y-109973389D01*
X111560489Y-109973387D01*
X111476613Y-109889511D01*
X111476610Y-109889509D01*
X111476608Y-109889507D01*
X111373889Y-109830202D01*
X111373890Y-109830202D01*
X111348456Y-109823387D01*
X111259309Y-109799500D01*
X111140691Y-109799500D01*
X111070567Y-109818289D01*
X111026109Y-109830202D01*
X110923391Y-109889507D01*
X110923385Y-109889512D01*
X110885545Y-109927351D01*
X110831028Y-109955128D01*
X110770596Y-109945555D01*
X110729807Y-109906847D01*
X110710489Y-109873387D01*
X110626613Y-109789511D01*
X110626610Y-109789509D01*
X110626608Y-109789507D01*
X110523889Y-109730202D01*
X110523890Y-109730202D01*
X110498818Y-109723484D01*
X110409309Y-109699500D01*
X110290691Y-109699500D01*
X110220567Y-109718289D01*
X110176109Y-109730202D01*
X110073391Y-109789507D01*
X109989507Y-109873391D01*
X109930202Y-109976109D01*
X109916803Y-110026114D01*
X109899500Y-110090691D01*
X96250500Y-110090691D01*
X96250500Y-110040691D01*
X96219799Y-109926114D01*
X96219797Y-109926111D01*
X96219797Y-109926109D01*
X96160492Y-109823391D01*
X96160490Y-109823389D01*
X96160489Y-109823387D01*
X96076613Y-109739511D01*
X96076610Y-109739509D01*
X96076608Y-109739507D01*
X95973889Y-109680202D01*
X95973890Y-109680202D01*
X95939999Y-109671121D01*
X95859309Y-109649500D01*
X95740691Y-109649500D01*
X95670567Y-109668289D01*
X95626109Y-109680202D01*
X95523391Y-109739507D01*
X95439507Y-109823391D01*
X95380202Y-109926109D01*
X95367534Y-109973387D01*
X95349500Y-110040691D01*
X86673705Y-110040691D01*
X86669799Y-110026114D01*
X86660097Y-110009309D01*
X86610492Y-109923391D01*
X86610490Y-109923389D01*
X86610489Y-109923387D01*
X86526613Y-109839511D01*
X86526610Y-109839509D01*
X86526608Y-109839507D01*
X86423889Y-109780202D01*
X86423890Y-109780202D01*
X86398456Y-109773387D01*
X86309309Y-109749500D01*
X86190691Y-109749500D01*
X86120567Y-109768289D01*
X86076109Y-109780202D01*
X85973391Y-109839507D01*
X85889507Y-109923391D01*
X85830202Y-110026109D01*
X85822000Y-110056720D01*
X85799500Y-110140691D01*
X76115409Y-110140691D01*
X76286989Y-109846033D01*
X76288824Y-109843010D01*
X76543221Y-109440691D01*
X120899500Y-109440691D01*
X120899500Y-109559309D01*
X120918496Y-109630201D01*
X120930202Y-109673890D01*
X120989507Y-109776608D01*
X120989509Y-109776610D01*
X120989511Y-109776613D01*
X121073387Y-109860489D01*
X121073389Y-109860490D01*
X121073391Y-109860492D01*
X121176110Y-109919797D01*
X121176111Y-109919797D01*
X121176114Y-109919799D01*
X121290691Y-109950500D01*
X121290693Y-109950500D01*
X121409307Y-109950500D01*
X121409309Y-109950500D01*
X121523886Y-109919799D01*
X121523888Y-109919797D01*
X121523890Y-109919797D01*
X121626608Y-109860492D01*
X121626608Y-109860491D01*
X121626613Y-109860489D01*
X121710489Y-109776613D01*
X121728223Y-109745897D01*
X121769797Y-109673890D01*
X121769797Y-109673888D01*
X121769799Y-109673886D01*
X121800500Y-109559309D01*
X121800500Y-109440691D01*
X121769799Y-109326114D01*
X121769797Y-109326111D01*
X121769797Y-109326109D01*
X121710492Y-109223391D01*
X121710490Y-109223389D01*
X121710489Y-109223387D01*
X121626613Y-109139511D01*
X121626610Y-109139509D01*
X121626608Y-109139507D01*
X121523889Y-109080202D01*
X121523890Y-109080202D01*
X121510351Y-109076574D01*
X121409309Y-109049500D01*
X121290691Y-109049500D01*
X121220567Y-109068289D01*
X121176109Y-109080202D01*
X121073391Y-109139507D01*
X120989507Y-109223391D01*
X120930202Y-109326109D01*
X120930201Y-109326114D01*
X120899500Y-109440691D01*
X76543221Y-109440691D01*
X76865822Y-108930511D01*
X76867765Y-108927559D01*
X76995717Y-108740691D01*
X79749500Y-108740691D01*
X79749500Y-108859309D01*
X79753921Y-108875807D01*
X79780202Y-108973890D01*
X79839507Y-109076608D01*
X79839509Y-109076610D01*
X79839511Y-109076613D01*
X79923387Y-109160489D01*
X79923389Y-109160490D01*
X79923391Y-109160492D01*
X80026110Y-109219797D01*
X80026111Y-109219797D01*
X80026114Y-109219799D01*
X80140691Y-109250500D01*
X80140693Y-109250500D01*
X80259307Y-109250500D01*
X80259309Y-109250500D01*
X80373886Y-109219799D01*
X80373888Y-109219797D01*
X80373890Y-109219797D01*
X80476608Y-109160492D01*
X80476608Y-109160491D01*
X80476613Y-109160489D01*
X80560489Y-109076613D01*
X80619799Y-108973886D01*
X80650500Y-108859309D01*
X80650500Y-108740691D01*
X80619799Y-108626114D01*
X80619797Y-108626111D01*
X80619797Y-108626109D01*
X80560492Y-108523391D01*
X80560490Y-108523389D01*
X80560489Y-108523387D01*
X80476613Y-108439511D01*
X80476610Y-108439509D01*
X80476608Y-108439507D01*
X80402463Y-108396699D01*
X92381943Y-108396699D01*
X92381943Y-108515317D01*
X92409017Y-108616359D01*
X92412645Y-108629898D01*
X92471950Y-108732616D01*
X92471952Y-108732618D01*
X92471954Y-108732621D01*
X92555830Y-108816497D01*
X92555832Y-108816498D01*
X92555834Y-108816500D01*
X92658553Y-108875805D01*
X92658554Y-108875805D01*
X92658557Y-108875807D01*
X92773134Y-108906508D01*
X92773136Y-108906508D01*
X92891750Y-108906508D01*
X92891752Y-108906508D01*
X93006329Y-108875807D01*
X93006331Y-108875805D01*
X93006333Y-108875805D01*
X93109051Y-108816500D01*
X93109051Y-108816499D01*
X93109056Y-108816497D01*
X93192932Y-108732621D01*
X93252242Y-108629894D01*
X93282943Y-108515317D01*
X93282943Y-108396699D01*
X93281144Y-108389985D01*
X99370891Y-108389985D01*
X99370891Y-108508603D01*
X99397965Y-108609645D01*
X99401593Y-108623184D01*
X99460898Y-108725902D01*
X99460900Y-108725904D01*
X99460902Y-108725907D01*
X99544778Y-108809783D01*
X99544780Y-108809784D01*
X99544782Y-108809786D01*
X99647501Y-108869091D01*
X99647502Y-108869091D01*
X99647505Y-108869093D01*
X99762082Y-108899794D01*
X99762084Y-108899794D01*
X99880698Y-108899794D01*
X99880700Y-108899794D01*
X99995277Y-108869093D01*
X99995279Y-108869091D01*
X99995281Y-108869091D01*
X100097999Y-108809786D01*
X100097999Y-108809785D01*
X100098004Y-108809783D01*
X100181880Y-108725907D01*
X100181883Y-108725902D01*
X100241188Y-108623184D01*
X100241188Y-108623182D01*
X100241190Y-108623180D01*
X100271891Y-108508603D01*
X100271891Y-108389985D01*
X100241190Y-108275408D01*
X100241188Y-108275405D01*
X100241188Y-108275403D01*
X100181883Y-108172685D01*
X100181881Y-108172683D01*
X100181880Y-108172681D01*
X100098004Y-108088805D01*
X100098001Y-108088803D01*
X100097999Y-108088801D01*
X99995280Y-108029496D01*
X99995281Y-108029496D01*
X99972482Y-108023387D01*
X99880700Y-107998794D01*
X99762082Y-107998794D01*
X99691958Y-108017583D01*
X99647500Y-108029496D01*
X99544782Y-108088801D01*
X99460898Y-108172685D01*
X99401593Y-108275403D01*
X99401592Y-108275408D01*
X99370891Y-108389985D01*
X93281144Y-108389985D01*
X93252242Y-108282122D01*
X93252240Y-108282119D01*
X93252240Y-108282117D01*
X93192935Y-108179399D01*
X93192933Y-108179397D01*
X93192932Y-108179395D01*
X93109056Y-108095519D01*
X93109053Y-108095517D01*
X93109051Y-108095515D01*
X93006332Y-108036210D01*
X93006333Y-108036210D01*
X92981272Y-108029495D01*
X92891752Y-108005508D01*
X92773134Y-108005508D01*
X92706409Y-108023387D01*
X92658552Y-108036210D01*
X92555834Y-108095515D01*
X92471950Y-108179399D01*
X92412645Y-108282117D01*
X92412644Y-108282122D01*
X92381943Y-108396699D01*
X80402463Y-108396699D01*
X80373889Y-108380202D01*
X80373890Y-108380202D01*
X80335065Y-108369799D01*
X80259309Y-108349500D01*
X80140691Y-108349500D01*
X80104084Y-108359309D01*
X80026109Y-108380202D01*
X79923391Y-108439507D01*
X79839507Y-108523391D01*
X79780202Y-108626109D01*
X79780201Y-108626114D01*
X79749500Y-108740691D01*
X76995717Y-108740691D01*
X77477701Y-108036778D01*
X77479789Y-108033846D01*
X78066566Y-107240691D01*
X94949500Y-107240691D01*
X94949500Y-107359309D01*
X94966805Y-107423890D01*
X94980202Y-107473890D01*
X95039507Y-107576608D01*
X95039509Y-107576610D01*
X95039511Y-107576613D01*
X95123387Y-107660489D01*
X95123389Y-107660490D01*
X95123391Y-107660492D01*
X95226110Y-107719797D01*
X95226111Y-107719797D01*
X95226114Y-107719799D01*
X95340691Y-107750500D01*
X95340693Y-107750500D01*
X95459307Y-107750500D01*
X95459309Y-107750500D01*
X95495916Y-107740691D01*
X119749500Y-107740691D01*
X119749500Y-107859309D01*
X119776574Y-107960351D01*
X119780202Y-107973890D01*
X119839507Y-108076608D01*
X119839509Y-108076610D01*
X119839511Y-108076613D01*
X119923387Y-108160489D01*
X119923389Y-108160490D01*
X119923391Y-108160492D01*
X120026110Y-108219797D01*
X120026111Y-108219797D01*
X120026114Y-108219799D01*
X120140691Y-108250500D01*
X120140693Y-108250500D01*
X120259307Y-108250500D01*
X120259309Y-108250500D01*
X120373886Y-108219799D01*
X120373888Y-108219797D01*
X120373890Y-108219797D01*
X120476608Y-108160492D01*
X120476608Y-108160491D01*
X120476613Y-108160489D01*
X120560489Y-108076613D01*
X120583816Y-108036210D01*
X120619797Y-107973890D01*
X120619797Y-107973888D01*
X120619799Y-107973886D01*
X120642091Y-107890691D01*
X121299500Y-107890691D01*
X121299500Y-108009309D01*
X121317533Y-108076608D01*
X121330202Y-108123890D01*
X121389507Y-108226608D01*
X121389509Y-108226610D01*
X121389511Y-108226613D01*
X121473387Y-108310489D01*
X121473389Y-108310490D01*
X121473391Y-108310492D01*
X121576110Y-108369797D01*
X121576111Y-108369797D01*
X121576114Y-108369799D01*
X121690691Y-108400500D01*
X121690693Y-108400500D01*
X121809307Y-108400500D01*
X121809309Y-108400500D01*
X121923886Y-108369799D01*
X121923888Y-108369797D01*
X121923890Y-108369797D01*
X122026608Y-108310492D01*
X122026608Y-108310491D01*
X122026613Y-108310489D01*
X122096411Y-108240691D01*
X124649500Y-108240691D01*
X124649500Y-108359309D01*
X124657720Y-108389985D01*
X124680202Y-108473890D01*
X124739507Y-108576608D01*
X124739509Y-108576610D01*
X124739511Y-108576613D01*
X124823387Y-108660489D01*
X124823389Y-108660490D01*
X124823391Y-108660492D01*
X124926110Y-108719797D01*
X124926111Y-108719797D01*
X124926114Y-108719799D01*
X125040691Y-108750500D01*
X125040693Y-108750500D01*
X125159307Y-108750500D01*
X125159309Y-108750500D01*
X125273886Y-108719799D01*
X125273888Y-108719797D01*
X125273890Y-108719797D01*
X125376608Y-108660492D01*
X125376608Y-108660491D01*
X125376613Y-108660489D01*
X125460489Y-108576613D01*
X125491217Y-108523391D01*
X125519797Y-108473890D01*
X125519797Y-108473888D01*
X125519799Y-108473886D01*
X125550500Y-108359309D01*
X125550500Y-108240691D01*
X125519799Y-108126114D01*
X125519797Y-108126111D01*
X125519797Y-108126109D01*
X125460492Y-108023391D01*
X125460490Y-108023389D01*
X125460489Y-108023387D01*
X125376613Y-107939511D01*
X125376610Y-107939509D01*
X125376608Y-107939507D01*
X125273889Y-107880202D01*
X125273890Y-107880202D01*
X125260351Y-107876574D01*
X125159309Y-107849500D01*
X125040691Y-107849500D01*
X125004084Y-107859309D01*
X124926109Y-107880202D01*
X124823391Y-107939507D01*
X124739507Y-108023391D01*
X124680202Y-108126109D01*
X124680201Y-108126114D01*
X124649500Y-108240691D01*
X122096411Y-108240691D01*
X122110489Y-108226613D01*
X122169799Y-108123886D01*
X122200500Y-108009309D01*
X122200500Y-107890691D01*
X122169799Y-107776114D01*
X122169797Y-107776111D01*
X122169797Y-107776109D01*
X122110492Y-107673391D01*
X122110490Y-107673389D01*
X122110489Y-107673387D01*
X122026613Y-107589511D01*
X122026610Y-107589509D01*
X122026608Y-107589507D01*
X121923889Y-107530202D01*
X121923890Y-107530202D01*
X121898456Y-107523387D01*
X121809309Y-107499500D01*
X121690691Y-107499500D01*
X121620567Y-107518289D01*
X121576109Y-107530202D01*
X121473391Y-107589507D01*
X121389507Y-107673391D01*
X121330202Y-107776109D01*
X121330201Y-107776114D01*
X121299500Y-107890691D01*
X120642091Y-107890691D01*
X120650500Y-107859309D01*
X120650500Y-107740691D01*
X120619799Y-107626114D01*
X120619797Y-107626111D01*
X120619797Y-107626109D01*
X120560492Y-107523391D01*
X120560490Y-107523389D01*
X120560489Y-107523387D01*
X120476613Y-107439511D01*
X120476610Y-107439509D01*
X120476608Y-107439507D01*
X120373889Y-107380202D01*
X120373890Y-107380202D01*
X120335065Y-107369799D01*
X120259309Y-107349500D01*
X120140691Y-107349500D01*
X120104084Y-107359309D01*
X120026109Y-107380202D01*
X119923391Y-107439507D01*
X119839507Y-107523391D01*
X119780202Y-107626109D01*
X119767534Y-107673387D01*
X119749500Y-107740691D01*
X95495916Y-107740691D01*
X95573886Y-107719799D01*
X95573888Y-107719797D01*
X95573890Y-107719797D01*
X95676608Y-107660492D01*
X95676608Y-107660491D01*
X95676613Y-107660489D01*
X95760489Y-107576613D01*
X95769798Y-107560489D01*
X95819797Y-107473890D01*
X95819797Y-107473888D01*
X95819799Y-107473886D01*
X95850500Y-107359309D01*
X95850500Y-107240691D01*
X95823705Y-107140691D01*
X102849500Y-107140691D01*
X102849500Y-107259309D01*
X102852779Y-107271545D01*
X102880202Y-107373890D01*
X102939507Y-107476608D01*
X102939509Y-107476610D01*
X102939511Y-107476613D01*
X103023387Y-107560489D01*
X103023389Y-107560490D01*
X103023391Y-107560492D01*
X103126110Y-107619797D01*
X103126111Y-107619797D01*
X103126114Y-107619799D01*
X103240691Y-107650500D01*
X103240693Y-107650500D01*
X103359307Y-107650500D01*
X103359309Y-107650500D01*
X103473886Y-107619799D01*
X103473888Y-107619797D01*
X103473890Y-107619797D01*
X103576608Y-107560492D01*
X103576608Y-107560491D01*
X103576613Y-107560489D01*
X103660489Y-107476613D01*
X103662064Y-107473886D01*
X103716153Y-107380201D01*
X103719799Y-107373886D01*
X103731839Y-107328949D01*
X103765161Y-107277637D01*
X103822282Y-107255710D01*
X103881383Y-107271545D01*
X103897463Y-107284565D01*
X103923387Y-107310489D01*
X103923389Y-107310490D01*
X103923391Y-107310492D01*
X104026110Y-107369797D01*
X104026111Y-107369797D01*
X104026114Y-107369799D01*
X104140691Y-107400500D01*
X104140693Y-107400500D01*
X104259307Y-107400500D01*
X104259309Y-107400500D01*
X104373886Y-107369799D01*
X104373888Y-107369797D01*
X104373890Y-107369797D01*
X104476608Y-107310492D01*
X104476608Y-107310491D01*
X104476613Y-107310489D01*
X104560489Y-107226613D01*
X104560492Y-107226608D01*
X104581229Y-107190691D01*
X108899500Y-107190691D01*
X108899500Y-107309309D01*
X108916804Y-107373889D01*
X108930202Y-107423890D01*
X108989507Y-107526608D01*
X108989509Y-107526610D01*
X108989511Y-107526613D01*
X109073387Y-107610489D01*
X109073389Y-107610490D01*
X109073391Y-107610492D01*
X109176110Y-107669797D01*
X109176111Y-107669797D01*
X109176114Y-107669799D01*
X109290691Y-107700500D01*
X109290693Y-107700500D01*
X109409307Y-107700500D01*
X109409309Y-107700500D01*
X109523886Y-107669799D01*
X109523888Y-107669797D01*
X109523890Y-107669797D01*
X109560837Y-107648466D01*
X109626608Y-107610492D01*
X109626608Y-107610491D01*
X109626613Y-107610489D01*
X109710489Y-107526613D01*
X109769799Y-107423886D01*
X109800500Y-107309309D01*
X109800500Y-107190691D01*
X109769799Y-107076114D01*
X109769797Y-107076111D01*
X109769797Y-107076109D01*
X109710492Y-106973391D01*
X109710490Y-106973389D01*
X109710489Y-106973387D01*
X109626613Y-106889511D01*
X109626610Y-106889509D01*
X109626608Y-106889507D01*
X109523889Y-106830202D01*
X109523890Y-106830202D01*
X109489730Y-106821049D01*
X109409309Y-106799500D01*
X109290691Y-106799500D01*
X109220567Y-106818289D01*
X109176109Y-106830202D01*
X109073391Y-106889507D01*
X108989507Y-106973391D01*
X108930202Y-107076109D01*
X108916803Y-107126114D01*
X108899500Y-107190691D01*
X104581229Y-107190691D01*
X104613555Y-107134702D01*
X104613555Y-107134701D01*
X104614214Y-107133558D01*
X104619799Y-107123886D01*
X104650500Y-107009309D01*
X104650500Y-106890691D01*
X104619799Y-106776114D01*
X104560489Y-106673387D01*
X104527793Y-106640691D01*
X116149500Y-106640691D01*
X116149500Y-106759309D01*
X116166043Y-106821049D01*
X116180202Y-106873890D01*
X116239507Y-106976608D01*
X116239509Y-106976610D01*
X116239511Y-106976613D01*
X116323387Y-107060489D01*
X116323389Y-107060490D01*
X116323391Y-107060492D01*
X116426110Y-107119797D01*
X116426111Y-107119797D01*
X116426114Y-107119799D01*
X116540691Y-107150500D01*
X116540693Y-107150500D01*
X116659307Y-107150500D01*
X116659309Y-107150500D01*
X116773886Y-107119799D01*
X116773888Y-107119797D01*
X116773890Y-107119797D01*
X116876608Y-107060492D01*
X116876608Y-107060491D01*
X116876613Y-107060489D01*
X116960489Y-106976613D01*
X116962352Y-106973387D01*
X117019797Y-106873890D01*
X117019797Y-106873888D01*
X117019799Y-106873886D01*
X117050500Y-106759309D01*
X117050500Y-106640691D01*
X117019799Y-106526114D01*
X117019797Y-106526111D01*
X117019797Y-106526109D01*
X116960492Y-106423391D01*
X116960490Y-106423389D01*
X116960489Y-106423387D01*
X116876613Y-106339511D01*
X116876610Y-106339509D01*
X116876608Y-106339507D01*
X116773889Y-106280202D01*
X116773890Y-106280202D01*
X116760351Y-106276574D01*
X116659309Y-106249500D01*
X116540691Y-106249500D01*
X116470567Y-106268289D01*
X116426109Y-106280202D01*
X116323391Y-106339507D01*
X116239507Y-106423391D01*
X116180202Y-106526109D01*
X116171307Y-106559307D01*
X116149500Y-106640691D01*
X104527793Y-106640691D01*
X104476613Y-106589511D01*
X104476610Y-106589509D01*
X104476608Y-106589507D01*
X104373889Y-106530202D01*
X104373890Y-106530202D01*
X104358615Y-106526109D01*
X104259309Y-106499500D01*
X104140691Y-106499500D01*
X104070567Y-106518289D01*
X104026109Y-106530202D01*
X103923391Y-106589507D01*
X103839507Y-106673391D01*
X103780202Y-106776110D01*
X103780200Y-106776114D01*
X103768160Y-106821049D01*
X103734836Y-106872363D01*
X103677714Y-106894289D01*
X103618614Y-106878453D01*
X103602535Y-106865433D01*
X103576613Y-106839511D01*
X103576610Y-106839509D01*
X103576608Y-106839507D01*
X103473889Y-106780202D01*
X103473890Y-106780202D01*
X103458618Y-106776110D01*
X103359309Y-106749500D01*
X103240691Y-106749500D01*
X103204084Y-106759309D01*
X103126109Y-106780202D01*
X103023391Y-106839507D01*
X102939507Y-106923391D01*
X102880202Y-107026109D01*
X102867221Y-107074556D01*
X102849500Y-107140691D01*
X95823705Y-107140691D01*
X95819799Y-107126114D01*
X95816152Y-107119797D01*
X95760492Y-107023391D01*
X95760490Y-107023389D01*
X95760489Y-107023387D01*
X95676613Y-106939511D01*
X95676610Y-106939509D01*
X95676608Y-106939507D01*
X95573889Y-106880202D01*
X95573890Y-106880202D01*
X95518756Y-106865429D01*
X95459309Y-106849500D01*
X95340691Y-106849500D01*
X95299669Y-106860492D01*
X95226109Y-106880202D01*
X95123391Y-106939507D01*
X95039507Y-107023391D01*
X94980202Y-107126109D01*
X94980201Y-107126114D01*
X94949500Y-107240691D01*
X78066566Y-107240691D01*
X78121865Y-107165943D01*
X78124006Y-107163158D01*
X78700495Y-106440691D01*
X91149500Y-106440691D01*
X91149500Y-106559309D01*
X91157592Y-106589507D01*
X91180202Y-106673890D01*
X91239507Y-106776608D01*
X91239509Y-106776610D01*
X91239511Y-106776613D01*
X91323387Y-106860489D01*
X91323389Y-106860490D01*
X91323391Y-106860492D01*
X91426110Y-106919797D01*
X91426111Y-106919797D01*
X91426114Y-106919799D01*
X91540691Y-106950500D01*
X91540693Y-106950500D01*
X91659307Y-106950500D01*
X91659309Y-106950500D01*
X91773886Y-106919799D01*
X91773888Y-106919797D01*
X91773890Y-106919797D01*
X91876608Y-106860492D01*
X91876608Y-106860491D01*
X91876613Y-106860489D01*
X91960489Y-106776613D01*
X91960779Y-106776111D01*
X92019797Y-106673890D01*
X92019797Y-106673888D01*
X92019799Y-106673886D01*
X92050500Y-106559309D01*
X92050500Y-106440691D01*
X92019799Y-106326114D01*
X92019797Y-106326111D01*
X92019797Y-106326109D01*
X91960492Y-106223391D01*
X91960490Y-106223389D01*
X91960489Y-106223387D01*
X91876613Y-106139511D01*
X91876610Y-106139509D01*
X91876608Y-106139507D01*
X91773889Y-106080202D01*
X91773890Y-106080202D01*
X91760351Y-106076574D01*
X91659309Y-106049500D01*
X91540691Y-106049500D01*
X91504084Y-106059309D01*
X91426109Y-106080202D01*
X91323391Y-106139507D01*
X91239507Y-106223391D01*
X91180202Y-106326109D01*
X91180201Y-106326114D01*
X91149500Y-106440691D01*
X78700495Y-106440691D01*
X78797360Y-106319298D01*
X78799628Y-106316560D01*
X79122720Y-105940691D01*
X98799500Y-105940691D01*
X98799500Y-106059309D01*
X98820989Y-106139507D01*
X98830202Y-106173890D01*
X98889507Y-106276608D01*
X98889509Y-106276610D01*
X98889511Y-106276613D01*
X98973387Y-106360489D01*
X98973389Y-106360490D01*
X98973391Y-106360492D01*
X99076110Y-106419797D01*
X99076111Y-106419797D01*
X99076114Y-106419799D01*
X99190691Y-106450500D01*
X99190693Y-106450500D01*
X99309307Y-106450500D01*
X99309309Y-106450500D01*
X99423886Y-106419799D01*
X99423888Y-106419797D01*
X99423890Y-106419797D01*
X99526608Y-106360492D01*
X99526608Y-106360491D01*
X99526613Y-106360489D01*
X99610489Y-106276613D01*
X99637915Y-106229110D01*
X99669797Y-106173890D01*
X99669797Y-106173888D01*
X99669799Y-106173886D01*
X99700500Y-106059309D01*
X99700500Y-105940691D01*
X99669799Y-105826114D01*
X99669797Y-105826111D01*
X99669797Y-105826109D01*
X99610492Y-105723391D01*
X99610490Y-105723389D01*
X99610489Y-105723387D01*
X99526613Y-105639511D01*
X99526610Y-105639509D01*
X99526608Y-105639507D01*
X99423891Y-105580203D01*
X99423888Y-105580202D01*
X99423886Y-105580201D01*
X99309309Y-105549500D01*
X99190691Y-105549500D01*
X99120567Y-105568289D01*
X99076109Y-105580202D01*
X98973391Y-105639507D01*
X98889507Y-105723391D01*
X98830202Y-105826109D01*
X98830067Y-105826613D01*
X98799500Y-105940691D01*
X79122720Y-105940691D01*
X79503399Y-105497827D01*
X79505716Y-105495229D01*
X79509915Y-105490691D01*
X106599500Y-105490691D01*
X106599500Y-105609309D01*
X106607592Y-105639507D01*
X106630202Y-105723890D01*
X106689507Y-105826608D01*
X106689509Y-105826610D01*
X106689511Y-105826613D01*
X106773387Y-105910489D01*
X106773389Y-105910490D01*
X106773391Y-105910492D01*
X106876110Y-105969797D01*
X106876111Y-105969797D01*
X106876114Y-105969799D01*
X106990691Y-106000500D01*
X106990693Y-106000500D01*
X107109307Y-106000500D01*
X107109309Y-106000500D01*
X107223886Y-105969799D01*
X107223888Y-105969797D01*
X107223890Y-105969797D01*
X107326608Y-105910492D01*
X107326608Y-105910491D01*
X107326613Y-105910489D01*
X107410489Y-105826613D01*
X107469799Y-105723886D01*
X107500500Y-105609309D01*
X107500500Y-105490691D01*
X107469799Y-105376114D01*
X107469797Y-105376111D01*
X107469797Y-105376109D01*
X107410492Y-105273391D01*
X107410490Y-105273389D01*
X107410489Y-105273387D01*
X107326613Y-105189511D01*
X107326610Y-105189509D01*
X107326608Y-105189507D01*
X107223889Y-105130202D01*
X107223890Y-105130202D01*
X107210351Y-105126574D01*
X107109309Y-105099500D01*
X106990691Y-105099500D01*
X106920567Y-105118289D01*
X106876109Y-105130202D01*
X106773391Y-105189507D01*
X106689507Y-105273391D01*
X106630202Y-105376109D01*
X106630201Y-105376114D01*
X106599500Y-105490691D01*
X79509915Y-105490691D01*
X80238936Y-104702752D01*
X80241378Y-104700208D01*
X80649036Y-104290691D01*
X84149500Y-104290691D01*
X84149500Y-104409309D01*
X84173409Y-104498539D01*
X84180202Y-104523890D01*
X84239507Y-104626608D01*
X84239509Y-104626610D01*
X84239511Y-104626613D01*
X84323387Y-104710489D01*
X84323389Y-104710490D01*
X84323391Y-104710492D01*
X84426110Y-104769797D01*
X84426111Y-104769797D01*
X84426114Y-104769799D01*
X84540691Y-104800500D01*
X84540693Y-104800500D01*
X84659307Y-104800500D01*
X84659309Y-104800500D01*
X84773886Y-104769799D01*
X84773888Y-104769797D01*
X84773890Y-104769797D01*
X84876608Y-104710492D01*
X84876608Y-104710491D01*
X84876613Y-104710489D01*
X84960489Y-104626613D01*
X84960492Y-104626608D01*
X85019797Y-104523890D01*
X85019797Y-104523888D01*
X85019799Y-104523886D01*
X85050500Y-104409309D01*
X85050500Y-104290691D01*
X93049500Y-104290691D01*
X93049500Y-104409309D01*
X93073409Y-104498539D01*
X93080202Y-104523890D01*
X93139507Y-104626608D01*
X93139509Y-104626610D01*
X93139511Y-104626613D01*
X93223387Y-104710489D01*
X93223389Y-104710490D01*
X93223391Y-104710492D01*
X93326110Y-104769797D01*
X93326111Y-104769797D01*
X93326114Y-104769799D01*
X93440691Y-104800500D01*
X93440693Y-104800500D01*
X93559307Y-104800500D01*
X93559309Y-104800500D01*
X93673886Y-104769799D01*
X93673888Y-104769797D01*
X93673890Y-104769797D01*
X93776608Y-104710492D01*
X93776608Y-104710491D01*
X93776613Y-104710489D01*
X93860489Y-104626613D01*
X93860492Y-104626608D01*
X93919797Y-104523890D01*
X93919797Y-104523888D01*
X93919799Y-104523886D01*
X93950500Y-104409309D01*
X93950500Y-104290691D01*
X93919799Y-104176114D01*
X93919797Y-104176111D01*
X93919797Y-104176109D01*
X93860492Y-104073391D01*
X93860490Y-104073389D01*
X93860489Y-104073387D01*
X93776613Y-103989511D01*
X93776610Y-103989509D01*
X93776608Y-103989507D01*
X93673891Y-103930203D01*
X93673888Y-103930202D01*
X93673886Y-103930201D01*
X93559309Y-103899500D01*
X93440691Y-103899500D01*
X93370567Y-103918289D01*
X93326109Y-103930202D01*
X93223391Y-103989507D01*
X93139507Y-104073391D01*
X93080202Y-104176109D01*
X93069953Y-104214358D01*
X93049500Y-104290691D01*
X85050500Y-104290691D01*
X85019799Y-104176114D01*
X85019797Y-104176111D01*
X85019797Y-104176109D01*
X84960492Y-104073391D01*
X84960490Y-104073389D01*
X84960489Y-104073387D01*
X84876613Y-103989511D01*
X84876610Y-103989509D01*
X84876608Y-103989507D01*
X84773889Y-103930202D01*
X84773890Y-103930202D01*
X84758529Y-103926086D01*
X84659309Y-103899500D01*
X84540691Y-103899500D01*
X84470567Y-103918289D01*
X84426109Y-103930202D01*
X84323391Y-103989507D01*
X84239507Y-104073391D01*
X84180202Y-104176109D01*
X84169953Y-104214358D01*
X84149500Y-104290691D01*
X80649036Y-104290691D01*
X81003035Y-103935078D01*
X81005589Y-103932604D01*
X81104028Y-103840691D01*
X108199500Y-103840691D01*
X108199500Y-103959309D01*
X108207592Y-103989507D01*
X108230202Y-104073890D01*
X108289509Y-104176610D01*
X108289859Y-104177067D01*
X108289996Y-104177454D01*
X108292755Y-104182233D01*
X108291869Y-104182744D01*
X108310281Y-104234743D01*
X108308413Y-104256645D01*
X108299500Y-104301453D01*
X108299500Y-104498543D01*
X108337949Y-104691834D01*
X108337949Y-104691836D01*
X108413367Y-104873913D01*
X108413368Y-104873914D01*
X108522861Y-105037782D01*
X108662218Y-105177139D01*
X108826086Y-105286632D01*
X109008165Y-105362051D01*
X109201459Y-105400500D01*
X109201460Y-105400500D01*
X109398540Y-105400500D01*
X109398541Y-105400500D01*
X109591835Y-105362051D01*
X109773914Y-105286632D01*
X109937782Y-105177139D01*
X110077139Y-105037782D01*
X110186632Y-104873914D01*
X110262051Y-104691835D01*
X110300500Y-104498541D01*
X110300500Y-104301459D01*
X110300499Y-104301456D01*
X110799500Y-104301456D01*
X110799500Y-104498543D01*
X110837949Y-104691834D01*
X110837949Y-104691836D01*
X110913367Y-104873913D01*
X110913368Y-104873914D01*
X111022861Y-105037782D01*
X111162218Y-105177139D01*
X111326086Y-105286632D01*
X111508165Y-105362051D01*
X111701459Y-105400500D01*
X111701460Y-105400500D01*
X111898540Y-105400500D01*
X111898541Y-105400500D01*
X112091835Y-105362051D01*
X112273914Y-105286632D01*
X112437782Y-105177139D01*
X112577139Y-105037782D01*
X112686632Y-104873914D01*
X112762051Y-104691835D01*
X112800500Y-104498541D01*
X112800500Y-104301459D01*
X112800499Y-104301456D01*
X113299500Y-104301456D01*
X113299500Y-104498543D01*
X113337949Y-104691834D01*
X113337949Y-104691836D01*
X113413367Y-104873913D01*
X113413368Y-104873914D01*
X113522861Y-105037782D01*
X113662218Y-105177139D01*
X113826086Y-105286632D01*
X114008165Y-105362051D01*
X114201459Y-105400500D01*
X114201460Y-105400500D01*
X114398540Y-105400500D01*
X114398541Y-105400500D01*
X114591835Y-105362051D01*
X114773914Y-105286632D01*
X114937782Y-105177139D01*
X115077139Y-105037782D01*
X115186632Y-104873914D01*
X115262051Y-104691835D01*
X115300500Y-104498541D01*
X115300500Y-104301459D01*
X115262051Y-104108165D01*
X115186632Y-103926086D01*
X115077139Y-103762218D01*
X114937782Y-103622861D01*
X114773914Y-103513368D01*
X114773915Y-103513368D01*
X114773913Y-103513367D01*
X114591835Y-103437949D01*
X114398543Y-103399500D01*
X114398541Y-103399500D01*
X114201459Y-103399500D01*
X114201456Y-103399500D01*
X114008165Y-103437949D01*
X114008163Y-103437949D01*
X113826086Y-103513367D01*
X113662218Y-103622861D01*
X113662214Y-103622864D01*
X113522864Y-103762214D01*
X113522861Y-103762218D01*
X113413367Y-103926086D01*
X113337949Y-104108163D01*
X113337949Y-104108165D01*
X113299500Y-104301456D01*
X112800499Y-104301456D01*
X112762051Y-104108165D01*
X112686632Y-103926086D01*
X112577139Y-103762218D01*
X112437782Y-103622861D01*
X112273914Y-103513368D01*
X112273915Y-103513368D01*
X112273913Y-103513367D01*
X112091835Y-103437949D01*
X111898543Y-103399500D01*
X111898541Y-103399500D01*
X111701459Y-103399500D01*
X111701456Y-103399500D01*
X111508165Y-103437949D01*
X111508163Y-103437949D01*
X111326086Y-103513367D01*
X111162218Y-103622861D01*
X111162214Y-103622864D01*
X111022864Y-103762214D01*
X111022861Y-103762218D01*
X110913367Y-103926086D01*
X110837949Y-104108163D01*
X110837949Y-104108165D01*
X110799500Y-104301456D01*
X110300499Y-104301456D01*
X110262051Y-104108165D01*
X110186632Y-103926086D01*
X110077139Y-103762218D01*
X109937782Y-103622861D01*
X109773914Y-103513368D01*
X109773915Y-103513368D01*
X109773913Y-103513367D01*
X109591835Y-103437949D01*
X109398543Y-103399500D01*
X109398541Y-103399500D01*
X109201459Y-103399500D01*
X109201456Y-103399500D01*
X109008165Y-103437949D01*
X109008163Y-103437949D01*
X108902907Y-103481547D01*
X108841910Y-103486347D01*
X108827140Y-103481548D01*
X108823894Y-103480203D01*
X108799677Y-103473714D01*
X108709309Y-103449500D01*
X108590691Y-103449500D01*
X108520567Y-103468289D01*
X108476109Y-103480202D01*
X108373391Y-103539507D01*
X108289507Y-103623391D01*
X108230202Y-103726109D01*
X108230201Y-103726114D01*
X108199500Y-103840691D01*
X81104028Y-103840691D01*
X81794681Y-103195827D01*
X81797332Y-103193441D01*
X82612820Y-102485982D01*
X82615518Y-102483727D01*
X82731031Y-102390691D01*
X84499500Y-102390691D01*
X84499500Y-102509309D01*
X84506304Y-102534701D01*
X84530202Y-102623890D01*
X84589507Y-102726608D01*
X84589509Y-102726610D01*
X84589511Y-102726613D01*
X84673387Y-102810489D01*
X84673389Y-102810490D01*
X84673391Y-102810492D01*
X84776110Y-102869797D01*
X84776111Y-102869797D01*
X84776114Y-102869799D01*
X84890691Y-102900500D01*
X84890693Y-102900500D01*
X85009307Y-102900500D01*
X85009309Y-102900500D01*
X85123886Y-102869799D01*
X85123888Y-102869797D01*
X85123890Y-102869797D01*
X85226608Y-102810492D01*
X85226608Y-102810491D01*
X85226613Y-102810489D01*
X85310489Y-102726613D01*
X85341623Y-102672688D01*
X85369797Y-102623890D01*
X85369797Y-102623888D01*
X85369799Y-102623886D01*
X85400500Y-102509309D01*
X85400500Y-102390691D01*
X85369799Y-102276114D01*
X85369797Y-102276111D01*
X85369797Y-102276109D01*
X85310492Y-102173391D01*
X85310490Y-102173389D01*
X85310489Y-102173387D01*
X85226613Y-102089511D01*
X85226610Y-102089509D01*
X85226608Y-102089507D01*
X85123889Y-102030202D01*
X85123890Y-102030202D01*
X85084875Y-102019748D01*
X85009309Y-101999500D01*
X84890691Y-101999500D01*
X84854084Y-102009309D01*
X84776109Y-102030202D01*
X84673391Y-102089507D01*
X84589507Y-102173391D01*
X84530202Y-102276109D01*
X84518715Y-102318979D01*
X84499500Y-102390691D01*
X82731031Y-102390691D01*
X83456332Y-101806520D01*
X83459134Y-101804346D01*
X84324112Y-101158323D01*
X84326983Y-101156260D01*
X84566444Y-100990691D01*
X85549500Y-100990691D01*
X85549500Y-101109309D01*
X85562640Y-101158348D01*
X85580202Y-101223890D01*
X85639507Y-101326608D01*
X85639509Y-101326610D01*
X85639511Y-101326613D01*
X85723387Y-101410489D01*
X85723389Y-101410490D01*
X85723391Y-101410492D01*
X85826110Y-101469797D01*
X85826111Y-101469797D01*
X85826114Y-101469799D01*
X85940691Y-101500500D01*
X85940693Y-101500500D01*
X86059307Y-101500500D01*
X86059309Y-101500500D01*
X86173886Y-101469799D01*
X86173888Y-101469797D01*
X86173890Y-101469797D01*
X86276608Y-101410492D01*
X86276608Y-101410491D01*
X86276613Y-101410489D01*
X86360489Y-101326613D01*
X86360780Y-101326109D01*
X86419797Y-101223890D01*
X86419797Y-101223888D01*
X86419799Y-101223886D01*
X86450500Y-101109309D01*
X86450500Y-100990691D01*
X86419799Y-100876114D01*
X86419797Y-100876111D01*
X86419797Y-100876109D01*
X86360492Y-100773391D01*
X86360490Y-100773389D01*
X86360489Y-100773387D01*
X86276613Y-100689511D01*
X86276610Y-100689509D01*
X86276608Y-100689507D01*
X86173889Y-100630202D01*
X86173890Y-100630202D01*
X86128952Y-100618161D01*
X86059309Y-100599500D01*
X85940691Y-100599500D01*
X85877097Y-100616540D01*
X85826109Y-100630202D01*
X85723391Y-100689507D01*
X85639507Y-100773391D01*
X85580202Y-100876109D01*
X85574122Y-100898800D01*
X85549500Y-100990691D01*
X84566444Y-100990691D01*
X85214999Y-100542266D01*
X85217944Y-100540308D01*
X86127794Y-99959174D01*
X86130833Y-99957310D01*
X86562137Y-99703525D01*
X86612470Y-99689852D01*
X87537471Y-99691114D01*
G37*
%TD.AperFunction*%
%TD*%
M02*
