M48
; DRILL file {KiCad 9.0.1} date 2025-12-04T23:43:19-0500
; FORMAT={-:-/ absolute / inch / decimal}
; #@! TF.CreationDate,2025-12-04T23:43:19-05:00
; #@! TF.GenerationSoftware,Kicad,Pcbnew,9.0.1
; #@! TF.FileFunction,Plated,1,4,PTH
FMAT,2
INCH
; #@! TA.AperFunction,Plated,PTH,ViaDrill
T1C0.0102
; #@! TA.AperFunction,Plated,PTH,ComponentDrill
T2C0.0315
; #@! TA.AperFunction,Plated,PTH,ComponentDrill
T3C0.0866
%
G90
G05
T1
X2.9311Y-4.5276
X2.9626Y-4.4705
X3.0039Y-4.5433
X3.1575Y-4.2835
X3.3209Y-4.502
X3.3307Y-4.1083
X3.3445Y-4.0335
X3.3858Y-3.9783
X3.3957Y-4.3386
X3.4252Y-4.0276
X3.4612Y-3.9445
X3.4764Y-4.2835
X3.5138Y-4.0413
X3.5256Y-4.1988
X3.5591Y-4.1988
X3.5748Y-3.939
X3.5827Y-4.0413
X3.6063Y-4.1929
X3.6161Y-4.0453
X3.6548Y-4.2699
X3.6811Y-4.1083
X3.7083Y-4.0313
X3.7087Y-4.3839
X3.7134Y-3.9431
X3.7185Y-4.4291
X3.7205Y-4.4665
X3.7559Y-4.2244
X3.7717Y-4.3346
X3.7736Y-4.3799
X3.8169Y-4.4094
X3.8799Y-4.0138
X3.9075Y-4.1732
X3.9252Y-4.4094
X3.93Y-4.2697
X3.9665Y-4.3898
X3.9823Y-4.4409
X4.0492Y-4.4961
X4.0591Y-4.0276
X4.0669Y-4.2205
X4.0827Y-3.9961
X4.0906Y-4.3366
X4.0906Y-4.4646
X4.1024Y-4.2106
X4.1949Y-3.9626
X4.1988Y-3.9921
X4.2067Y-4.0335
X4.2146Y-4.1555
X4.2776Y-4.0906
X4.3051Y-4.2224
X4.3445Y-4.3366
X4.3445Y-4.3616
X4.3524Y-4.5138
X4.3701Y-4.4724
X4.378Y-4.3406
X4.435Y-4.5
X4.4567Y-4.3327
X4.4665Y-4.498
X4.4843Y-4.3287
X4.5315Y-4.3602
X4.5807Y-4.4134
X4.5846Y-4.3504
X4.5906Y-4.2008
X4.6024Y-4.4567
X4.6339Y-4.4606
X4.6713Y-4.5039
X4.6772Y-4.5217
X4.7047Y-4.3976
X4.7323Y-4.2441
X4.7657Y-4.1201
X4.7776Y-4.311
X4.7933Y-4.25
X4.7992Y-4.3642
X4.8228Y-4.4016
X4.8307Y-4.3563
X4.8504Y-4.5
X4.8565Y-4.9414
X4.8707Y-4.6907
X4.878Y-4.8878
X4.8799Y-4.5925
X4.8858Y-4.378
X4.8858Y-4.8031
X4.8898Y-4.4409
X4.9055Y-4.4075
X4.9252Y-4.2638
X4.9469Y-4.3563
X4.9547Y-4.3917
X4.9665Y-4.5453
X4.9665Y-4.5846
X4.9705Y-4.3346
X4.9724Y-4.6988
X4.9747Y-4.3967
X4.998Y-4.3681
X5.0315Y-4.5177
X5.0433Y-4.6102
X5.0906Y-5.0591
X5.1063Y-4.8484
X5.1102Y-4.6398
T2
X4.3031Y-3.9843
X4.3031Y-4.1102
X4.4016Y-3.9843
X4.4016Y-4.1102
X4.5Y-3.9843
X4.5Y-4.1102
T3
X3.0217Y-5.1791
X3.1043Y-4.4291
X4.6634Y-4.065
X4.9469Y-5.4055
M30
