%TF.GenerationSoftware,KiCad,Pcbnew,9.0.1*%
%TF.CreationDate,2025-12-04T23:43:19-05:00*%
%TF.ProjectId,EDDDial,45444444-6961-46c2-9e6b-696361645f70,rev?*%
%TF.SameCoordinates,Original*%
%TF.FileFunction,Copper,L4,Bot*%
%TF.FilePolarity,Positive*%
%FSLAX46Y46*%
G04 Gerber Fmt 4.6, Leading zero omitted, Abs format (unit mm)*
G04 Created by KiCad (PCBNEW 9.0.1) date 2025-12-04 23:43:19*
%MOMM*%
%LPD*%
G01*
G04 APERTURE LIST*
%TA.AperFunction,ComponentPad*%
%ADD10C,3.800000*%
%TD*%
%TA.AperFunction,ComponentPad*%
%ADD11R,1.600000X1.600000*%
%TD*%
%TA.AperFunction,ComponentPad*%
%ADD12C,1.600000*%
%TD*%
%TA.AperFunction,ViaPad*%
%ADD13C,0.500000*%
%TD*%
%TA.AperFunction,Conductor*%
%ADD14C,0.200000*%
%TD*%
%TA.AperFunction,Conductor*%
%ADD15C,0.400000*%
%TD*%
%TA.AperFunction,Conductor*%
%ADD16C,0.160000*%
%TD*%
G04 APERTURE END LIST*
D10*
%TO.P,H4,1,1*%
%TO.N,GND*%
X125650000Y-137300000D03*
%TD*%
%TO.P,H3,1,1*%
%TO.N,GND*%
X118450000Y-103250000D03*
%TD*%
%TO.P,H2,1,1*%
%TO.N,GND*%
X76750000Y-131550000D03*
%TD*%
%TO.P,H1,1,1*%
%TO.N,GND*%
X78850000Y-112500000D03*
%TD*%
D11*
%TO.P,SW1,1,A*%
%TO.N,Net-(SW1-A)*%
X109300000Y-101200000D03*
D12*
%TO.P,SW1,2,B*%
%TO.N,Net-(SW1-4)*%
X111800000Y-101200000D03*
%TO.P,SW1,3,C*%
%TO.N,unconnected-(SW1-C-Pad3)_1*%
X114300000Y-101200000D03*
%TO.P,SW1,4,C*%
%TO.N,Net-(SW1-A)*%
X109300000Y-104400000D03*
%TO.P,SW1,5,4*%
%TO.N,Net-(SW1-4)*%
X111800000Y-104400000D03*
%TO.P,SW1,6,C*%
%TO.N,unconnected-(SW1-C-Pad3)*%
X114300000Y-104400000D03*
%TD*%
D13*
%TO.N,GND*%
X126150000Y-115450000D03*
X128100000Y-117100000D03*
X126150000Y-116450000D03*
X129800000Y-117850000D03*
X129300000Y-128500000D03*
X129700000Y-123150000D03*
X126300000Y-119350000D03*
X124100000Y-122000000D03*
X123716214Y-119143259D03*
X87000000Y-102300000D03*
X86000000Y-101050000D03*
X94191848Y-102396080D03*
X94319408Y-100153709D03*
X95400000Y-107300000D03*
X91600000Y-106500000D03*
X116600000Y-106700000D03*
X121050000Y-104650000D03*
%TO.N,VBAT*%
X109350000Y-107250000D03*
X84350000Y-114350000D03*
%TO.N,/STAT1*%
X94450000Y-112500000D03*
%TO.N,/STAT2*%
X110350000Y-110784003D03*
X113200000Y-110050000D03*
%TO.N,/STAT1*%
X111200000Y-110250000D03*
X113900000Y-109950000D03*
%TO.N,VBUS*%
X116350000Y-112100000D03*
X123950000Y-116650000D03*
%TO.N,Net-(SW1-A)*%
X118800000Y-114850000D03*
X118650000Y-114400000D03*
%TO.N,Net-(SW1-4)*%
X125850000Y-111550000D03*
X126356348Y-111676191D03*
%TO.N,/SWCLK*%
X106550000Y-100650000D03*
%TO.N,/SWDIO*%
X106650000Y-101400000D03*
X87913536Y-100191022D03*
%TO.N,/SWCLK*%
X90800000Y-100050000D03*
%TO.N,+3V3*%
X89250000Y-102650000D03*
%TO.N,GND*%
X122700000Y-110650000D03*
X125100000Y-108300000D03*
%TO.N,/NRST*%
X91000000Y-102650000D03*
%TO.N,/SWITCH*%
X103700000Y-101500000D03*
X76300001Y-115400000D03*
%TO.N,+3V3*%
X74450001Y-115000000D03*
%TO.N,GND*%
X84600000Y-104350000D03*
X93500000Y-104350000D03*
X119500000Y-111700000D03*
X115100000Y-110750000D03*
X110350000Y-110150000D03*
X116450000Y-110500000D03*
X123200000Y-114300000D03*
X121900000Y-110850000D03*
X120200000Y-107800000D03*
X121350000Y-109500000D03*
X121750000Y-107950000D03*
X126250000Y-110100000D03*
X125650000Y-110650000D03*
X126950000Y-110950000D03*
%TO.N,/STAT2*%
X124600000Y-111950000D03*
%TO.N,GND*%
X124100000Y-111200000D03*
X122500000Y-111800000D03*
X124200000Y-112800000D03*
X75250000Y-113550000D03*
X80200000Y-108800000D03*
X84950000Y-102450000D03*
X91850000Y-102750000D03*
X99250000Y-106000000D03*
X103300000Y-107200000D03*
X103100000Y-102300000D03*
X98550000Y-101950000D03*
%TO.N,Net-(SW1-A)*%
X108650000Y-103900000D03*
%TO.N,GND*%
X106850000Y-102450000D03*
X107050000Y-105550000D03*
%TO.N,/NRST*%
X104200000Y-106950000D03*
%TO.N,GND*%
X111000000Y-113600000D03*
%TO.N,+3V3*%
X113450000Y-114250000D03*
X112650000Y-114300000D03*
X110550000Y-114650000D03*
%TO.N,GND*%
X117700000Y-113300000D03*
X116900000Y-113200000D03*
%TO.N,Net-(J1-CC2)*%
X123354876Y-125511894D03*
X123900000Y-124150000D03*
%TO.N,/STAT1*%
X127800000Y-114750000D03*
%TO.N,GND*%
X99821391Y-108449294D03*
X92832443Y-108456008D03*
X86250000Y-110200000D03*
%TO.N,+3V3*%
X88300000Y-108800000D03*
X89550000Y-106650000D03*
X90400000Y-106650000D03*
X103900000Y-110150000D03*
X102850000Y-114200000D03*
X103900000Y-113400000D03*
%TO.N,GND*%
X101150000Y-112800000D03*
X99700000Y-112000000D03*
X96950000Y-112000000D03*
%TO.N,+3V3*%
X94200000Y-111350000D03*
X94500000Y-113450000D03*
%TO.N,GND*%
X95850000Y-111250000D03*
%TO.N,/STAT2*%
X100750000Y-111500000D03*
X95800000Y-110100000D03*
%TD*%
D14*
%TO.N,/SWITCH*%
X81950001Y-105850000D02*
X83850000Y-105850000D01*
X83850000Y-105850000D02*
X98300000Y-105850000D01*
X76300001Y-111500000D02*
X76300001Y-111450001D01*
X76300001Y-111500000D02*
X81950001Y-105850000D01*
X76300001Y-115400000D02*
X76300001Y-111500000D01*
D15*
%TO.N,Net-(SW1-A)*%
X109300000Y-104400000D02*
X109300000Y-101200000D01*
X110550000Y-105650000D02*
X109300000Y-104400000D01*
X110550000Y-108450000D02*
X110550000Y-105650000D01*
D14*
%TO.N,Net-(SW1-4)*%
X111800000Y-104400000D02*
X111800000Y-101200000D01*
X112850000Y-105450000D02*
X111800000Y-104400000D01*
X113050000Y-105450000D02*
X112850000Y-105450000D01*
%TO.N,/SWITCH*%
X102650000Y-101500000D02*
X103700000Y-101500000D01*
X98300000Y-105850000D02*
X102650000Y-101500000D01*
%TO.N,VBAT*%
X106985000Y-109615000D02*
X109350000Y-107250000D01*
X89085000Y-109615000D02*
X106985000Y-109615000D01*
X84350000Y-114350000D02*
X89085000Y-109615000D01*
%TO.N,/STAT1*%
X96270894Y-111515000D02*
X95285894Y-112500000D01*
X99900894Y-111515000D02*
X96270894Y-111515000D01*
X100370894Y-111985000D02*
X99900894Y-111515000D01*
X95285894Y-112500000D02*
X94450000Y-112500000D01*
X111200000Y-110619897D02*
X109834897Y-111985000D01*
X109834897Y-111985000D02*
X100370894Y-111985000D01*
X111200000Y-110250000D02*
X111200000Y-110619897D01*
%TO.N,/STAT2*%
X110350000Y-110784003D02*
X101465997Y-110784003D01*
X113200000Y-109964106D02*
X113200000Y-110050000D01*
X118414756Y-109465000D02*
X113699106Y-109465000D01*
X122100894Y-111335000D02*
X120284756Y-111335000D01*
X122167947Y-111267947D02*
X122100894Y-111335000D01*
X122653841Y-111267947D02*
X122167947Y-111267947D01*
X123335894Y-111950000D02*
X122653841Y-111267947D01*
X113699106Y-109465000D02*
X113200000Y-109964106D01*
X124600000Y-111950000D02*
X123335894Y-111950000D01*
X101465997Y-110784003D02*
X100750000Y-111500000D01*
X120284756Y-111335000D02*
X118414756Y-109465000D01*
%TO.N,/STAT1*%
X120770894Y-112285000D02*
X118435894Y-109950000D01*
X118435894Y-109950000D02*
X113900000Y-109950000D01*
X122999106Y-112285000D02*
X120770894Y-112285000D01*
X125464106Y-114750000D02*
X122999106Y-112285000D01*
X127800000Y-114750000D02*
X125464106Y-114750000D01*
%TO.N,VBUS*%
X119854666Y-112185000D02*
X116435000Y-112185000D01*
X116435000Y-112185000D02*
X116350000Y-112100000D01*
X123950000Y-116280334D02*
X119854666Y-112185000D01*
X123950000Y-116650000D02*
X123950000Y-116280334D01*
D15*
%TO.N,Net-(SW1-A)*%
X118650000Y-114700000D02*
X118800000Y-114850000D01*
X118450000Y-114700000D02*
X118650000Y-114700000D01*
X118450000Y-114600000D02*
X118650000Y-114400000D01*
X118450000Y-114700000D02*
X118450000Y-114600000D01*
X116800000Y-114700000D02*
X118450000Y-114700000D01*
X110550000Y-108450000D02*
X116800000Y-114700000D01*
D14*
%TO.N,Net-(SW1-4)*%
X116035000Y-108435000D02*
X113050000Y-105450000D01*
X122020894Y-108435000D02*
X116035000Y-108435000D01*
X125262085Y-111676191D02*
X122020894Y-108435000D01*
X125900000Y-111676191D02*
X125262085Y-111676191D01*
X125850000Y-111550000D02*
X125850000Y-111626191D01*
X125850000Y-111626191D02*
X125900000Y-111676191D01*
X126356348Y-111676191D02*
X125900000Y-111676191D01*
%TO.N,/SWCLK*%
X101579544Y-100999300D02*
X102179844Y-100399000D01*
X102179844Y-100399000D02*
X106299000Y-100399000D01*
X91749300Y-100999300D02*
X101579544Y-100999300D01*
X106299000Y-100399000D02*
X106550000Y-100650000D01*
X90800000Y-100050000D02*
X91749300Y-100999300D01*
D16*
%TO.N,/SWDIO*%
X87949222Y-100250000D02*
X87600000Y-100250000D01*
X89028192Y-101328970D02*
X87949222Y-100250000D01*
X93422192Y-101328970D02*
X89028192Y-101328970D01*
X93593222Y-101500000D02*
X93422192Y-101328970D01*
X98342390Y-101500000D02*
X93593222Y-101500000D01*
X98357390Y-101485000D02*
X98342390Y-101500000D01*
X98757610Y-101500000D02*
X98742610Y-101485000D01*
X101514422Y-101500000D02*
X98757610Y-101500000D01*
X102307422Y-100707000D02*
X101514422Y-101500000D01*
X104028472Y-100707000D02*
X102307422Y-100707000D01*
X98742610Y-101485000D02*
X98357390Y-101485000D01*
X104508000Y-101500000D02*
X104508000Y-101186528D01*
X104508000Y-101186528D02*
X104028472Y-100707000D01*
X106500000Y-101500000D02*
X104508000Y-101500000D01*
X106600000Y-101400000D02*
X106500000Y-101500000D01*
X106650000Y-101400000D02*
X106600000Y-101400000D01*
D14*
%TO.N,/NRST*%
X91000000Y-103050000D02*
X91000000Y-102650000D01*
X93000000Y-105050000D02*
X91000000Y-103050000D01*
X98400000Y-105050000D02*
X93000000Y-105050000D01*
X102435000Y-101015000D02*
X98400000Y-105050000D01*
X103900894Y-101015000D02*
X102435000Y-101015000D01*
X104200000Y-101314106D02*
X103900894Y-101015000D01*
X104200000Y-106950000D02*
X104200000Y-101314106D01*
%TO.N,Net-(J1-CC2)*%
X123354876Y-125511894D02*
X123354876Y-125295124D01*
X123354876Y-125295124D02*
X123900000Y-124750000D01*
X123900000Y-124750000D02*
X123900000Y-124150000D01*
%TO.N,/STAT2*%
X99350000Y-110100000D02*
X95800000Y-110100000D01*
X100750000Y-111500000D02*
X99350000Y-110100000D01*
%TD*%
%TA.AperFunction,Conductor*%
%TO.N,GND*%
G36*
X87537470Y-99691114D02*
G01*
X87555019Y-99696843D01*
X87573449Y-99697937D01*
X87583396Y-99706106D01*
X87595633Y-99710101D01*
X87606464Y-99725052D01*
X87620732Y-99736770D01*
X87623977Y-99749226D01*
X87631529Y-99759650D01*
X87631503Y-99778112D01*
X87636159Y-99795978D01*
X87631463Y-99807962D01*
X87631446Y-99820835D01*
X87617546Y-99843482D01*
X87613838Y-99852947D01*
X87610754Y-99856701D01*
X87553047Y-99914409D01*
X87528634Y-99956690D01*
X87523471Y-99962978D01*
X87496467Y-99985881D01*
X87427770Y-100025543D01*
X87375544Y-100077769D01*
X87338616Y-100141730D01*
X87334112Y-100158540D01*
X87319500Y-100213072D01*
X87319500Y-100286928D01*
X87330134Y-100326613D01*
X87338617Y-100358271D01*
X87350474Y-100378808D01*
X87363195Y-100438656D01*
X87338308Y-100494552D01*
X87319739Y-100510622D01*
X87212034Y-100582588D01*
X87107589Y-100687033D01*
X87025535Y-100809836D01*
X86969013Y-100946292D01*
X86940200Y-101091148D01*
X86940200Y-101238851D01*
X86969013Y-101383707D01*
X87025535Y-101520163D01*
X87061434Y-101573890D01*
X87107592Y-101642970D01*
X87212030Y-101747408D01*
X87334836Y-101829464D01*
X87471291Y-101885986D01*
X87616151Y-101914800D01*
X87616152Y-101914800D01*
X87763848Y-101914800D01*
X87763849Y-101914800D01*
X87908709Y-101885986D01*
X88045164Y-101829464D01*
X88167970Y-101747408D01*
X88272408Y-101642970D01*
X88354464Y-101520164D01*
X88410986Y-101383709D01*
X88420520Y-101335776D01*
X88450416Y-101282392D01*
X88505981Y-101256776D01*
X88565991Y-101268713D01*
X88587622Y-101285086D01*
X88803734Y-101501198D01*
X88803736Y-101501201D01*
X88855961Y-101553426D01*
X88919923Y-101590354D01*
X88919925Y-101590354D01*
X88919926Y-101590355D01*
X88955593Y-101599912D01*
X88991260Y-101609469D01*
X88991262Y-101609470D01*
X88991263Y-101609470D01*
X88991264Y-101609470D01*
X92064891Y-101609470D01*
X92123082Y-101628377D01*
X92159046Y-101677877D01*
X92159046Y-101739063D01*
X92147207Y-101763471D01*
X92105535Y-101825836D01*
X92049013Y-101962292D01*
X92020200Y-102107148D01*
X92020200Y-102254851D01*
X92049013Y-102399707D01*
X92105535Y-102536163D01*
X92141970Y-102590692D01*
X92187592Y-102658970D01*
X92292030Y-102763408D01*
X92414836Y-102845464D01*
X92551291Y-102901986D01*
X92696151Y-102930800D01*
X92696152Y-102930800D01*
X92843848Y-102930800D01*
X92843849Y-102930800D01*
X92988709Y-102901986D01*
X93125164Y-102845464D01*
X93247970Y-102763408D01*
X93352408Y-102658970D01*
X93434464Y-102536164D01*
X93490986Y-102399709D01*
X93519800Y-102254849D01*
X93519800Y-102107151D01*
X93490986Y-101962291D01*
X93472384Y-101917384D01*
X93467584Y-101856389D01*
X93499553Y-101804220D01*
X93556081Y-101780805D01*
X93563849Y-101780500D01*
X98379320Y-101780500D01*
X98379320Y-101780499D01*
X98412350Y-101771649D01*
X98422707Y-101768874D01*
X98448331Y-101765500D01*
X98651669Y-101765500D01*
X98677293Y-101768874D01*
X98695772Y-101773825D01*
X98720678Y-101780499D01*
X98720680Y-101780500D01*
X98720681Y-101780500D01*
X98720682Y-101780500D01*
X101005521Y-101780500D01*
X101063712Y-101799407D01*
X101099676Y-101848907D01*
X101099676Y-101910093D01*
X101075525Y-101949504D01*
X98304525Y-104720504D01*
X98250008Y-104748281D01*
X98234521Y-104749500D01*
X93165479Y-104749500D01*
X93107288Y-104730593D01*
X93095475Y-104720504D01*
X91392644Y-103017673D01*
X91364867Y-102963156D01*
X91374438Y-102902724D01*
X91376912Y-102898169D01*
X91419797Y-102823890D01*
X91419797Y-102823888D01*
X91419799Y-102823886D01*
X91450500Y-102709309D01*
X91450500Y-102590691D01*
X91419799Y-102476114D01*
X91419797Y-102476111D01*
X91419797Y-102476109D01*
X91360492Y-102373391D01*
X91360490Y-102373389D01*
X91360489Y-102373387D01*
X91276613Y-102289511D01*
X91276610Y-102289509D01*
X91276608Y-102289507D01*
X91173889Y-102230202D01*
X91173890Y-102230202D01*
X91133602Y-102219407D01*
X91059309Y-102199500D01*
X90940691Y-102199500D01*
X90870567Y-102218289D01*
X90826109Y-102230202D01*
X90723391Y-102289507D01*
X90639507Y-102373391D01*
X90580202Y-102476109D01*
X90571276Y-102509421D01*
X90549500Y-102590691D01*
X90549500Y-102709309D01*
X90576574Y-102810351D01*
X90580202Y-102823890D01*
X90639507Y-102926608D01*
X90639509Y-102926610D01*
X90639511Y-102926613D01*
X90670505Y-102957607D01*
X90698281Y-103012122D01*
X90699500Y-103027609D01*
X90699500Y-103089564D01*
X90719978Y-103165988D01*
X90736506Y-103194614D01*
X90736507Y-103194617D01*
X90759535Y-103234505D01*
X90759538Y-103234508D01*
X90759540Y-103234511D01*
X92759540Y-105234511D01*
X92759539Y-105234511D01*
X92815489Y-105290460D01*
X92884007Y-105330019D01*
X92884011Y-105330021D01*
X92960435Y-105350499D01*
X92960437Y-105350500D01*
X92960438Y-105350500D01*
X98135521Y-105350500D01*
X98157568Y-105357663D01*
X98180466Y-105361290D01*
X98186114Y-105366938D01*
X98193712Y-105369407D01*
X98207339Y-105388163D01*
X98223731Y-105404555D01*
X98224980Y-105412444D01*
X98229676Y-105418907D01*
X98229676Y-105442092D01*
X98233302Y-105464987D01*
X98229676Y-105472103D01*
X98229676Y-105480093D01*
X98205525Y-105519504D01*
X98204525Y-105520504D01*
X98150008Y-105548281D01*
X98134521Y-105549500D01*
X83889562Y-105549500D01*
X81989563Y-105549500D01*
X81910439Y-105549500D01*
X81863662Y-105562033D01*
X81834008Y-105569979D01*
X81765494Y-105609536D01*
X81765493Y-105609537D01*
X76231506Y-111143522D01*
X76190001Y-111167487D01*
X76190006Y-111167497D01*
X76189931Y-111167527D01*
X76187136Y-111169142D01*
X76184014Y-111169978D01*
X76184008Y-111169981D01*
X76115492Y-111209539D01*
X76059539Y-111265492D01*
X76019981Y-111334008D01*
X76019979Y-111334012D01*
X75999501Y-111410436D01*
X75999501Y-115022390D01*
X75980594Y-115080581D01*
X75970506Y-115092393D01*
X75939508Y-115123391D01*
X75880203Y-115226109D01*
X75863953Y-115286754D01*
X75849501Y-115340691D01*
X75849501Y-115459309D01*
X75870395Y-115537286D01*
X75880203Y-115573890D01*
X75939508Y-115676608D01*
X75939510Y-115676610D01*
X75939512Y-115676613D01*
X76023388Y-115760489D01*
X76023390Y-115760490D01*
X76023392Y-115760492D01*
X76126111Y-115819797D01*
X76126112Y-115819797D01*
X76126115Y-115819799D01*
X76240692Y-115850500D01*
X76240694Y-115850500D01*
X76359308Y-115850500D01*
X76359310Y-115850500D01*
X76473887Y-115819799D01*
X76473889Y-115819797D01*
X76473891Y-115819797D01*
X76576609Y-115760492D01*
X76576609Y-115760491D01*
X76576614Y-115760489D01*
X76660490Y-115676613D01*
X76696201Y-115614760D01*
X76719798Y-115573890D01*
X76719798Y-115573888D01*
X76719800Y-115573886D01*
X76750501Y-115459309D01*
X76750501Y-115340691D01*
X76719800Y-115226114D01*
X76719798Y-115226111D01*
X76719798Y-115226109D01*
X76660493Y-115123391D01*
X76660492Y-115123390D01*
X76660491Y-115123389D01*
X76660490Y-115123387D01*
X76629496Y-115092393D01*
X76601720Y-115037876D01*
X76600501Y-115022390D01*
X76600501Y-111665479D01*
X76619408Y-111607288D01*
X76629497Y-111595475D01*
X79484281Y-108740691D01*
X87849500Y-108740691D01*
X87849500Y-108859309D01*
X87867779Y-108927525D01*
X87880202Y-108973890D01*
X87939507Y-109076608D01*
X87939509Y-109076610D01*
X87939511Y-109076613D01*
X88023387Y-109160489D01*
X88023389Y-109160490D01*
X88023391Y-109160492D01*
X88126110Y-109219797D01*
X88126111Y-109219797D01*
X88126114Y-109219799D01*
X88240691Y-109250500D01*
X88240693Y-109250500D01*
X88359307Y-109250500D01*
X88359309Y-109250500D01*
X88473886Y-109219799D01*
X88473888Y-109219797D01*
X88473890Y-109219797D01*
X88576608Y-109160492D01*
X88576608Y-109160491D01*
X88576613Y-109160489D01*
X88660489Y-109076613D01*
X88719799Y-108973886D01*
X88750500Y-108859309D01*
X88750500Y-108740691D01*
X88719799Y-108626114D01*
X88719797Y-108626111D01*
X88719797Y-108626109D01*
X88660492Y-108523391D01*
X88660490Y-108523389D01*
X88660489Y-108523387D01*
X88576613Y-108439511D01*
X88576610Y-108439509D01*
X88576608Y-108439507D01*
X88473889Y-108380202D01*
X88473890Y-108380202D01*
X88460351Y-108376574D01*
X88359309Y-108349500D01*
X88240691Y-108349500D01*
X88170567Y-108368289D01*
X88126109Y-108380202D01*
X88023391Y-108439507D01*
X87939507Y-108523391D01*
X87880202Y-108626109D01*
X87880201Y-108626114D01*
X87849500Y-108740691D01*
X79484281Y-108740691D01*
X82045476Y-106179496D01*
X82099993Y-106151719D01*
X82115480Y-106150500D01*
X89173391Y-106150500D01*
X89231582Y-106169407D01*
X89267546Y-106218907D01*
X89267546Y-106280093D01*
X89243396Y-106319501D01*
X89189511Y-106373387D01*
X89189508Y-106373390D01*
X89189507Y-106373391D01*
X89130202Y-106476109D01*
X89130201Y-106476114D01*
X89099500Y-106590691D01*
X89099500Y-106709309D01*
X89123667Y-106799500D01*
X89130202Y-106823890D01*
X89189507Y-106926608D01*
X89189509Y-106926610D01*
X89189511Y-106926613D01*
X89273387Y-107010489D01*
X89273389Y-107010490D01*
X89273391Y-107010492D01*
X89376110Y-107069797D01*
X89376111Y-107069797D01*
X89376114Y-107069799D01*
X89490691Y-107100500D01*
X89490693Y-107100500D01*
X89609307Y-107100500D01*
X89609309Y-107100500D01*
X89723886Y-107069799D01*
X89723888Y-107069797D01*
X89723890Y-107069797D01*
X89826608Y-107010492D01*
X89826608Y-107010491D01*
X89826613Y-107010489D01*
X89904998Y-106932103D01*
X89959513Y-106904328D01*
X90019945Y-106913899D01*
X90045000Y-106932102D01*
X90123387Y-107010489D01*
X90123389Y-107010490D01*
X90123391Y-107010492D01*
X90226110Y-107069797D01*
X90226111Y-107069797D01*
X90226114Y-107069799D01*
X90340691Y-107100500D01*
X90340693Y-107100500D01*
X90459307Y-107100500D01*
X90459309Y-107100500D01*
X90573886Y-107069799D01*
X90573888Y-107069797D01*
X90573890Y-107069797D01*
X90676608Y-107010492D01*
X90676608Y-107010491D01*
X90676613Y-107010489D01*
X90760489Y-106926613D01*
X90760492Y-106926608D01*
X90819797Y-106823890D01*
X90819797Y-106823888D01*
X90819799Y-106823886D01*
X90850500Y-106709309D01*
X90850500Y-106590691D01*
X90819799Y-106476114D01*
X90819797Y-106476111D01*
X90819797Y-106476109D01*
X90760492Y-106373391D01*
X90760490Y-106373389D01*
X90760489Y-106373387D01*
X90706603Y-106319501D01*
X90678828Y-106264987D01*
X90688399Y-106204555D01*
X90731664Y-106161290D01*
X90776609Y-106150500D01*
X98339563Y-106150500D01*
X98339563Y-106150499D01*
X98415989Y-106130021D01*
X98484511Y-106090460D01*
X98540460Y-106034511D01*
X102745475Y-101829496D01*
X102799992Y-101801719D01*
X102815479Y-101800500D01*
X103322390Y-101800500D01*
X103380581Y-101819407D01*
X103392393Y-101829495D01*
X103423387Y-101860489D01*
X103423389Y-101860490D01*
X103423390Y-101860491D01*
X103423391Y-101860492D01*
X103526110Y-101919797D01*
X103526111Y-101919797D01*
X103526114Y-101919799D01*
X103640691Y-101950500D01*
X103640693Y-101950500D01*
X103759307Y-101950500D01*
X103759309Y-101950500D01*
X103774878Y-101946328D01*
X103835978Y-101949530D01*
X103883528Y-101988036D01*
X103899500Y-102041955D01*
X103899500Y-106572390D01*
X103880593Y-106630581D01*
X103870505Y-106642393D01*
X103839507Y-106673391D01*
X103780202Y-106776109D01*
X103767400Y-106823886D01*
X103749500Y-106890691D01*
X103749500Y-107009309D01*
X103773935Y-107100500D01*
X103780202Y-107123890D01*
X103839507Y-107226608D01*
X103839509Y-107226610D01*
X103839511Y-107226613D01*
X103923387Y-107310489D01*
X103923389Y-107310490D01*
X103923391Y-107310492D01*
X104026110Y-107369797D01*
X104026111Y-107369797D01*
X104026114Y-107369799D01*
X104140691Y-107400500D01*
X104140693Y-107400500D01*
X104259307Y-107400500D01*
X104259309Y-107400500D01*
X104373886Y-107369799D01*
X104373888Y-107369797D01*
X104373890Y-107369797D01*
X104476608Y-107310492D01*
X104476608Y-107310491D01*
X104476613Y-107310489D01*
X104560489Y-107226613D01*
X104596327Y-107164541D01*
X104619797Y-107123890D01*
X104619797Y-107123888D01*
X104619799Y-107123886D01*
X104650500Y-107009309D01*
X104650500Y-106890691D01*
X104619799Y-106776114D01*
X104619797Y-106776111D01*
X104619797Y-106776109D01*
X104560492Y-106673391D01*
X104560491Y-106673390D01*
X104560490Y-106673389D01*
X104560489Y-106673387D01*
X104529495Y-106642393D01*
X104501719Y-106587876D01*
X104500500Y-106572390D01*
X104500500Y-101879500D01*
X104519407Y-101821309D01*
X104568907Y-101785345D01*
X104599500Y-101780500D01*
X106381520Y-101780500D01*
X106431020Y-101793763D01*
X106476114Y-101819799D01*
X106590691Y-101850500D01*
X106590693Y-101850500D01*
X106709307Y-101850500D01*
X106709309Y-101850500D01*
X106823886Y-101819799D01*
X106823888Y-101819797D01*
X106823890Y-101819797D01*
X106926608Y-101760492D01*
X106926608Y-101760491D01*
X106926613Y-101760489D01*
X107010489Y-101676613D01*
X107029915Y-101642966D01*
X107069797Y-101573890D01*
X107069797Y-101573888D01*
X107069799Y-101573886D01*
X107100500Y-101459309D01*
X107100500Y-101340691D01*
X107069799Y-101226114D01*
X107069797Y-101226111D01*
X107069797Y-101226109D01*
X107010492Y-101123391D01*
X107010490Y-101123389D01*
X107010489Y-101123387D01*
X106928780Y-101041678D01*
X106901005Y-100987164D01*
X106910576Y-100926732D01*
X106913038Y-100922197D01*
X106969799Y-100823886D01*
X107000500Y-100709309D01*
X107000500Y-100590691D01*
X106969799Y-100476114D01*
X106969797Y-100476111D01*
X106969797Y-100476109D01*
X106910492Y-100373391D01*
X106910490Y-100373389D01*
X106910489Y-100373387D01*
X106826613Y-100289511D01*
X106826610Y-100289509D01*
X106826608Y-100289507D01*
X106723889Y-100230202D01*
X106723890Y-100230202D01*
X106700318Y-100223886D01*
X106609309Y-100199500D01*
X106609307Y-100199500D01*
X106565478Y-100199500D01*
X106507287Y-100180593D01*
X106495480Y-100170509D01*
X106483511Y-100158540D01*
X106483508Y-100158538D01*
X106414992Y-100118980D01*
X106414988Y-100118978D01*
X106338564Y-100098500D01*
X106338562Y-100098500D01*
X102140282Y-100098500D01*
X102140279Y-100098500D01*
X102063855Y-100118978D01*
X102063851Y-100118980D01*
X101995335Y-100158538D01*
X101484069Y-100669804D01*
X101429552Y-100697581D01*
X101414065Y-100698800D01*
X93489629Y-100698800D01*
X93431438Y-100679893D01*
X93395474Y-100630393D01*
X93395474Y-100569207D01*
X93407313Y-100544799D01*
X93424279Y-100519407D01*
X93434464Y-100504164D01*
X93490986Y-100367709D01*
X93519800Y-100222849D01*
X93519800Y-100075151D01*
X93490986Y-99930291D01*
X93452008Y-99836192D01*
X93447208Y-99775197D01*
X93479177Y-99723028D01*
X93535705Y-99699613D01*
X93543600Y-99699308D01*
X116708951Y-99730911D01*
X116758686Y-99744390D01*
X116916105Y-99836194D01*
X117020586Y-99897126D01*
X117023677Y-99899005D01*
X117168467Y-99990692D01*
X117935761Y-100476575D01*
X117938750Y-100478547D01*
X118829089Y-101089035D01*
X118832035Y-101091135D01*
X119112009Y-101298543D01*
X119699471Y-101733742D01*
X119702295Y-101735915D01*
X120369355Y-102268907D01*
X120545678Y-102409792D01*
X120548463Y-102412101D01*
X121366674Y-103116354D01*
X121369372Y-103118764D01*
X122161273Y-103852410D01*
X122163882Y-103854917D01*
X122928460Y-104617020D01*
X122930971Y-104619616D01*
X123085395Y-104785221D01*
X123667198Y-105409150D01*
X123669617Y-105411841D01*
X124055210Y-105856901D01*
X124368846Y-106218907D01*
X124376508Y-106227750D01*
X124378819Y-106230518D01*
X124576358Y-106476109D01*
X125055414Y-107071696D01*
X125057630Y-107074556D01*
X125703058Y-107939917D01*
X125705166Y-107942855D01*
X126256039Y-108740692D01*
X126318522Y-108831186D01*
X126320518Y-108834192D01*
X126867689Y-109692104D01*
X126901015Y-109744355D01*
X126902894Y-109747422D01*
X127420034Y-110627609D01*
X127449781Y-110678239D01*
X127451552Y-110681386D01*
X127517907Y-110804405D01*
X127964030Y-111631501D01*
X127965689Y-111634716D01*
X128443118Y-112602936D01*
X128444658Y-112606209D01*
X128886387Y-113591217D01*
X128887807Y-113594545D01*
X129293246Y-114595022D01*
X129294544Y-114598399D01*
X129663172Y-115613057D01*
X129664345Y-115616479D01*
X129995650Y-116643919D01*
X129996697Y-116647382D01*
X130290238Y-117686227D01*
X130291158Y-117689726D01*
X130546551Y-118738621D01*
X130547342Y-118742151D01*
X130764235Y-119799654D01*
X130764897Y-119803211D01*
X130943007Y-120867928D01*
X130943539Y-120871506D01*
X131082633Y-121942062D01*
X131083033Y-121945658D01*
X131182916Y-123020536D01*
X131183185Y-123024144D01*
X131243729Y-124101970D01*
X131243866Y-124105585D01*
X131264988Y-125184901D01*
X131264993Y-125188519D01*
X131246666Y-126267913D01*
X131246538Y-126271528D01*
X131188787Y-127349479D01*
X131188528Y-127353088D01*
X131091428Y-128428252D01*
X131091037Y-128431848D01*
X130954716Y-129502754D01*
X130954193Y-129506334D01*
X130778840Y-130571514D01*
X130778187Y-130575073D01*
X130564036Y-131633123D01*
X130563254Y-131636655D01*
X130310578Y-132686213D01*
X130309667Y-132689714D01*
X130018819Y-133729309D01*
X130017781Y-133732775D01*
X129689138Y-134761070D01*
X129687974Y-134764495D01*
X129321976Y-135780104D01*
X129320687Y-135783484D01*
X128917845Y-136784998D01*
X128916434Y-136788330D01*
X128477247Y-137774502D01*
X128475715Y-137777779D01*
X128000801Y-138747220D01*
X127999150Y-138750439D01*
X127619107Y-139459412D01*
X127574951Y-139501767D01*
X127532994Y-139511633D01*
X123075888Y-139562991D01*
X123017483Y-139544756D01*
X122980951Y-139495673D01*
X122975747Y-139464078D01*
X122967072Y-128703707D01*
X125240500Y-128703707D01*
X125240500Y-128856292D01*
X125279993Y-129003682D01*
X125356281Y-129135816D01*
X125356283Y-129135818D01*
X125356285Y-129135821D01*
X125464179Y-129243715D01*
X125464181Y-129243716D01*
X125464183Y-129243718D01*
X125596318Y-129320006D01*
X125596319Y-129320006D01*
X125596322Y-129320008D01*
X125743707Y-129359500D01*
X125743708Y-129359500D01*
X125896292Y-129359500D01*
X125896293Y-129359500D01*
X126043678Y-129320008D01*
X126043680Y-129320006D01*
X126043682Y-129320006D01*
X126175816Y-129243718D01*
X126175816Y-129243717D01*
X126175821Y-129243715D01*
X126283715Y-129135821D01*
X126360008Y-129003678D01*
X126399500Y-128856293D01*
X126399500Y-128703707D01*
X126360008Y-128556322D01*
X126360006Y-128556319D01*
X126360006Y-128556317D01*
X126283718Y-128424183D01*
X126283716Y-128424181D01*
X126283715Y-128424179D01*
X126175821Y-128316285D01*
X126175818Y-128316283D01*
X126175816Y-128316281D01*
X126043681Y-128239993D01*
X126043682Y-128239993D01*
X126012532Y-128231646D01*
X125896293Y-128200500D01*
X125743707Y-128200500D01*
X125678720Y-128217913D01*
X125596317Y-128239993D01*
X125464183Y-128316281D01*
X125356281Y-128424183D01*
X125279993Y-128556317D01*
X125240500Y-128703707D01*
X122967072Y-128703707D01*
X122964875Y-125978470D01*
X122983735Y-125920266D01*
X123033206Y-125884262D01*
X123094392Y-125884213D01*
X123113375Y-125892656D01*
X123180986Y-125931691D01*
X123180987Y-125931691D01*
X123180990Y-125931693D01*
X123295567Y-125962394D01*
X123295569Y-125962394D01*
X123414183Y-125962394D01*
X123414185Y-125962394D01*
X123528762Y-125931693D01*
X123528764Y-125931691D01*
X123528766Y-125931691D01*
X123631484Y-125872386D01*
X123631484Y-125872385D01*
X123631489Y-125872383D01*
X123715365Y-125788507D01*
X123774675Y-125685780D01*
X123805376Y-125571203D01*
X123805376Y-125452585D01*
X123781498Y-125363472D01*
X123784700Y-125302373D01*
X123807119Y-125267850D01*
X124140460Y-124934511D01*
X124180022Y-124865988D01*
X124200500Y-124789562D01*
X124200500Y-124710438D01*
X124200500Y-124527609D01*
X124219407Y-124469418D01*
X124229490Y-124457611D01*
X124260489Y-124426613D01*
X124319799Y-124323886D01*
X124350500Y-124209309D01*
X124350500Y-124090691D01*
X124319799Y-123976114D01*
X124319797Y-123976111D01*
X124319797Y-123976109D01*
X124260492Y-123873391D01*
X124260490Y-123873389D01*
X124260489Y-123873387D01*
X124176613Y-123789511D01*
X124176610Y-123789509D01*
X124176608Y-123789507D01*
X124073889Y-123730202D01*
X124073890Y-123730202D01*
X124060351Y-123726574D01*
X123959309Y-123699500D01*
X123840691Y-123699500D01*
X123770567Y-123718289D01*
X123726109Y-123730202D01*
X123623391Y-123789507D01*
X123539507Y-123873391D01*
X123480202Y-123976109D01*
X123480201Y-123976114D01*
X123449500Y-124090691D01*
X123449500Y-124209309D01*
X123451661Y-124217373D01*
X123480202Y-124323890D01*
X123539507Y-124426608D01*
X123539509Y-124426610D01*
X123539511Y-124426613D01*
X123570505Y-124457607D01*
X123574130Y-124464722D01*
X123580593Y-124469418D01*
X123587756Y-124491466D01*
X123598281Y-124512122D01*
X123599500Y-124527609D01*
X123599500Y-124584521D01*
X123580593Y-124642712D01*
X123570504Y-124654525D01*
X123133109Y-125091920D01*
X123078592Y-125119697D01*
X123018160Y-125110126D01*
X122974895Y-125066861D01*
X122964105Y-125021996D01*
X122962413Y-122923707D01*
X125240500Y-122923707D01*
X125240500Y-123076292D01*
X125279993Y-123223682D01*
X125356281Y-123355816D01*
X125356283Y-123355818D01*
X125356285Y-123355821D01*
X125464179Y-123463715D01*
X125464181Y-123463716D01*
X125464183Y-123463718D01*
X125596318Y-123540006D01*
X125596319Y-123540006D01*
X125596322Y-123540008D01*
X125743707Y-123579500D01*
X125743708Y-123579500D01*
X125896292Y-123579500D01*
X125896293Y-123579500D01*
X126043678Y-123540008D01*
X126043680Y-123540006D01*
X126043682Y-123540006D01*
X126175816Y-123463718D01*
X126175816Y-123463717D01*
X126175821Y-123463715D01*
X126283715Y-123355821D01*
X126360008Y-123223678D01*
X126399500Y-123076293D01*
X126399500Y-122923707D01*
X126360008Y-122776322D01*
X126360006Y-122776319D01*
X126360006Y-122776317D01*
X126283718Y-122644183D01*
X126283716Y-122644181D01*
X126283715Y-122644179D01*
X126175821Y-122536285D01*
X126175818Y-122536283D01*
X126175816Y-122536281D01*
X126043681Y-122459993D01*
X126043682Y-122459993D01*
X126012532Y-122451646D01*
X125896293Y-122420500D01*
X125743707Y-122420500D01*
X125678720Y-122437913D01*
X125596317Y-122459993D01*
X125464183Y-122536281D01*
X125356281Y-122644183D01*
X125279993Y-122776317D01*
X125240500Y-122923707D01*
X122962413Y-122923707D01*
X122956792Y-115951182D01*
X122975652Y-115892979D01*
X123025123Y-115856975D01*
X123086309Y-115856926D01*
X123125796Y-115881101D01*
X123546253Y-116301558D01*
X123574030Y-116356075D01*
X123564459Y-116416507D01*
X123561985Y-116421063D01*
X123530202Y-116476111D01*
X123530201Y-116476113D01*
X123530201Y-116476114D01*
X123499500Y-116590691D01*
X123499500Y-116709309D01*
X123511610Y-116754504D01*
X123530202Y-116823890D01*
X123589507Y-116926608D01*
X123589509Y-116926610D01*
X123589511Y-116926613D01*
X123673387Y-117010489D01*
X123673389Y-117010490D01*
X123673391Y-117010492D01*
X123776110Y-117069797D01*
X123776111Y-117069797D01*
X123776114Y-117069799D01*
X123890691Y-117100500D01*
X123890693Y-117100500D01*
X124009307Y-117100500D01*
X124009309Y-117100500D01*
X124123886Y-117069799D01*
X124123888Y-117069797D01*
X124123890Y-117069797D01*
X124226608Y-117010492D01*
X124226608Y-117010491D01*
X124226613Y-117010489D01*
X124310489Y-116926613D01*
X124369799Y-116823886D01*
X124400500Y-116709309D01*
X124400500Y-116590691D01*
X124369799Y-116476114D01*
X124369797Y-116476111D01*
X124369797Y-116476109D01*
X124310492Y-116373391D01*
X124310491Y-116373390D01*
X124310490Y-116373389D01*
X124310489Y-116373387D01*
X124279495Y-116342393D01*
X124251719Y-116287876D01*
X124250500Y-116272390D01*
X124250500Y-116240771D01*
X124250499Y-116240769D01*
X124230021Y-116164345D01*
X124230019Y-116164341D01*
X124190460Y-116095823D01*
X124134511Y-116039873D01*
X124134511Y-116039874D01*
X120849141Y-112754504D01*
X120821364Y-112699987D01*
X120830935Y-112639555D01*
X120874200Y-112596290D01*
X120919145Y-112585500D01*
X122833627Y-112585500D01*
X122891818Y-112604407D01*
X122903631Y-112614496D01*
X125223646Y-114934511D01*
X125223645Y-114934511D01*
X125279595Y-114990460D01*
X125348113Y-115030019D01*
X125348117Y-115030021D01*
X125424541Y-115050499D01*
X125424543Y-115050500D01*
X125424544Y-115050500D01*
X127422390Y-115050500D01*
X127480581Y-115069407D01*
X127492393Y-115079495D01*
X127523387Y-115110489D01*
X127523389Y-115110490D01*
X127523390Y-115110491D01*
X127523391Y-115110492D01*
X127626110Y-115169797D01*
X127626111Y-115169797D01*
X127626114Y-115169799D01*
X127740691Y-115200500D01*
X127740693Y-115200500D01*
X127859307Y-115200500D01*
X127859309Y-115200500D01*
X127973886Y-115169799D01*
X127973888Y-115169797D01*
X127973890Y-115169797D01*
X128076608Y-115110492D01*
X128076608Y-115110491D01*
X128076613Y-115110489D01*
X128160489Y-115026613D01*
X128162062Y-115023888D01*
X128219797Y-114923890D01*
X128219797Y-114923888D01*
X128219799Y-114923886D01*
X128250500Y-114809309D01*
X128250500Y-114690691D01*
X128219799Y-114576114D01*
X128219797Y-114576111D01*
X128219797Y-114576109D01*
X128160492Y-114473391D01*
X128160490Y-114473389D01*
X128160489Y-114473387D01*
X128076613Y-114389511D01*
X128076610Y-114389509D01*
X128076608Y-114389507D01*
X127973889Y-114330202D01*
X127973890Y-114330202D01*
X127952501Y-114324471D01*
X127859309Y-114299500D01*
X127740691Y-114299500D01*
X127704084Y-114309309D01*
X127626109Y-114330202D01*
X127523391Y-114389507D01*
X127492393Y-114420505D01*
X127437876Y-114448281D01*
X127422390Y-114449500D01*
X125629585Y-114449500D01*
X125571394Y-114430593D01*
X125559581Y-114420504D01*
X123558581Y-112419504D01*
X123530804Y-112364987D01*
X123540375Y-112304555D01*
X123583640Y-112261290D01*
X123628585Y-112250500D01*
X124222390Y-112250500D01*
X124280581Y-112269407D01*
X124292393Y-112279495D01*
X124323387Y-112310489D01*
X124323389Y-112310490D01*
X124323390Y-112310491D01*
X124323391Y-112310492D01*
X124426110Y-112369797D01*
X124426111Y-112369797D01*
X124426114Y-112369799D01*
X124540691Y-112400500D01*
X124540693Y-112400500D01*
X124659307Y-112400500D01*
X124659309Y-112400500D01*
X124773886Y-112369799D01*
X124773888Y-112369797D01*
X124773890Y-112369797D01*
X124876608Y-112310492D01*
X124876608Y-112310491D01*
X124876613Y-112310489D01*
X124960489Y-112226613D01*
X124993457Y-112169511D01*
X125019797Y-112123890D01*
X125019797Y-112123888D01*
X125019799Y-112123886D01*
X125044555Y-112031493D01*
X125077878Y-111980182D01*
X125134999Y-111958255D01*
X125165804Y-111961492D01*
X125222520Y-111976690D01*
X125222522Y-111976691D01*
X125222523Y-111976691D01*
X125688800Y-111976691D01*
X125714423Y-111980064D01*
X125719778Y-111981498D01*
X125790691Y-112000500D01*
X125790693Y-112000500D01*
X125909308Y-112000500D01*
X125909309Y-112000500D01*
X125959974Y-111986924D01*
X126021076Y-111990125D01*
X126055599Y-112012544D01*
X126079735Y-112036680D01*
X126079737Y-112036681D01*
X126079739Y-112036683D01*
X126182458Y-112095988D01*
X126182459Y-112095988D01*
X126182462Y-112095990D01*
X126297039Y-112126691D01*
X126297041Y-112126691D01*
X126415655Y-112126691D01*
X126415657Y-112126691D01*
X126530234Y-112095990D01*
X126530236Y-112095988D01*
X126530238Y-112095988D01*
X126632956Y-112036683D01*
X126632956Y-112036682D01*
X126632961Y-112036680D01*
X126716837Y-111952804D01*
X126745454Y-111903239D01*
X126776145Y-111850081D01*
X126776145Y-111850079D01*
X126776147Y-111850077D01*
X126806848Y-111735500D01*
X126806848Y-111616882D01*
X126776147Y-111502305D01*
X126776145Y-111502302D01*
X126776145Y-111502300D01*
X126716840Y-111399582D01*
X126716838Y-111399580D01*
X126716837Y-111399578D01*
X126632961Y-111315702D01*
X126632958Y-111315700D01*
X126632956Y-111315698D01*
X126530237Y-111256393D01*
X126530238Y-111256393D01*
X126516699Y-111252765D01*
X126415657Y-111225691D01*
X126297039Y-111225691D01*
X126297034Y-111225691D01*
X126246369Y-111239266D01*
X126185268Y-111236062D01*
X126150747Y-111213644D01*
X126126614Y-111189512D01*
X126126608Y-111189507D01*
X126023889Y-111130202D01*
X126023890Y-111130202D01*
X126010351Y-111126574D01*
X125909309Y-111099500D01*
X125790691Y-111099500D01*
X125720567Y-111118289D01*
X125676109Y-111130202D01*
X125573391Y-111189507D01*
X125489509Y-111273389D01*
X125478890Y-111291782D01*
X125433419Y-111332723D01*
X125372569Y-111339117D01*
X125323150Y-111312285D01*
X123784252Y-109773387D01*
X122205405Y-108194540D01*
X122205402Y-108194538D01*
X122136886Y-108154980D01*
X122136882Y-108154978D01*
X122060458Y-108134500D01*
X122060456Y-108134500D01*
X116200479Y-108134500D01*
X116142288Y-108115593D01*
X116130475Y-108105504D01*
X114698358Y-106673387D01*
X113234511Y-105209540D01*
X113234508Y-105209538D01*
X113165992Y-105169980D01*
X113165988Y-105169978D01*
X113089564Y-105149500D01*
X113089562Y-105149500D01*
X113015479Y-105149500D01*
X112957288Y-105130593D01*
X112945475Y-105120504D01*
X112736994Y-104912023D01*
X112709217Y-104857506D01*
X112715533Y-104804137D01*
X112762051Y-104691835D01*
X112800500Y-104498541D01*
X112800500Y-104301459D01*
X112800499Y-104301456D01*
X113299500Y-104301456D01*
X113299500Y-104301459D01*
X113299500Y-104498541D01*
X113337948Y-104691832D01*
X113337949Y-104691834D01*
X113337949Y-104691836D01*
X113413367Y-104873913D01*
X113449699Y-104928288D01*
X113522861Y-105037782D01*
X113662218Y-105177139D01*
X113826086Y-105286632D01*
X114008165Y-105362051D01*
X114201459Y-105400500D01*
X114201460Y-105400500D01*
X114398540Y-105400500D01*
X114398541Y-105400500D01*
X114591835Y-105362051D01*
X114773914Y-105286632D01*
X114937782Y-105177139D01*
X115077139Y-105037782D01*
X115186632Y-104873914D01*
X115262051Y-104691835D01*
X115300500Y-104498541D01*
X115300500Y-104301459D01*
X115262051Y-104108165D01*
X115186632Y-103926086D01*
X115077139Y-103762218D01*
X114937782Y-103622861D01*
X114813034Y-103539507D01*
X114773913Y-103513367D01*
X114591835Y-103437949D01*
X114398543Y-103399500D01*
X114398541Y-103399500D01*
X114201459Y-103399500D01*
X114201456Y-103399500D01*
X114008165Y-103437949D01*
X114008163Y-103437949D01*
X113826086Y-103513367D01*
X113662218Y-103622861D01*
X113662214Y-103622864D01*
X113522864Y-103762214D01*
X113522861Y-103762218D01*
X113413367Y-103926086D01*
X113337949Y-104108163D01*
X113337949Y-104108165D01*
X113299500Y-104301456D01*
X112800499Y-104301456D01*
X112762051Y-104108165D01*
X112686632Y-103926086D01*
X112577139Y-103762218D01*
X112437782Y-103622861D01*
X112273914Y-103513368D01*
X112261614Y-103508273D01*
X112161615Y-103466852D01*
X112115089Y-103427116D01*
X112100500Y-103375388D01*
X112100500Y-102224610D01*
X112119407Y-102166419D01*
X112161612Y-102133148D01*
X112273914Y-102086632D01*
X112437782Y-101977139D01*
X112577139Y-101837782D01*
X112686632Y-101673914D01*
X112762051Y-101491835D01*
X112800500Y-101298541D01*
X112800500Y-101101459D01*
X112800499Y-101101456D01*
X113299500Y-101101456D01*
X113299500Y-101298543D01*
X113337949Y-101491834D01*
X113337949Y-101491836D01*
X113413367Y-101673913D01*
X113413368Y-101673914D01*
X113522861Y-101837782D01*
X113662218Y-101977139D01*
X113826086Y-102086632D01*
X114008165Y-102162051D01*
X114201459Y-102200500D01*
X114201460Y-102200500D01*
X114398540Y-102200500D01*
X114398541Y-102200500D01*
X114591835Y-102162051D01*
X114773914Y-102086632D01*
X114937782Y-101977139D01*
X115077139Y-101837782D01*
X115186632Y-101673914D01*
X115262051Y-101491835D01*
X115300500Y-101298541D01*
X115300500Y-101101459D01*
X115262051Y-100908165D01*
X115186632Y-100726086D01*
X115077139Y-100562218D01*
X114937782Y-100422861D01*
X114793729Y-100326608D01*
X114773913Y-100313367D01*
X114591835Y-100237949D01*
X114398543Y-100199500D01*
X114398541Y-100199500D01*
X114201459Y-100199500D01*
X114201456Y-100199500D01*
X114008165Y-100237949D01*
X114008163Y-100237949D01*
X113826086Y-100313367D01*
X113662218Y-100422861D01*
X113662214Y-100422864D01*
X113522864Y-100562214D01*
X113522861Y-100562218D01*
X113413367Y-100726086D01*
X113337949Y-100908163D01*
X113337949Y-100908165D01*
X113299500Y-101101456D01*
X112800499Y-101101456D01*
X112762051Y-100908165D01*
X112686632Y-100726086D01*
X112577139Y-100562218D01*
X112437782Y-100422861D01*
X112293729Y-100326608D01*
X112273913Y-100313367D01*
X112091835Y-100237949D01*
X111898543Y-100199500D01*
X111898541Y-100199500D01*
X111701459Y-100199500D01*
X111701456Y-100199500D01*
X111508165Y-100237949D01*
X111508163Y-100237949D01*
X111326086Y-100313367D01*
X111162218Y-100422861D01*
X111162214Y-100422864D01*
X111022864Y-100562214D01*
X111022861Y-100562218D01*
X110913367Y-100726086D01*
X110837949Y-100908163D01*
X110837949Y-100908165D01*
X110799500Y-101101456D01*
X110799500Y-101298543D01*
X110837949Y-101491834D01*
X110837949Y-101491836D01*
X110913367Y-101673913D01*
X110913368Y-101673914D01*
X111022861Y-101837782D01*
X111162218Y-101977139D01*
X111259222Y-102041955D01*
X111326084Y-102086631D01*
X111326085Y-102086631D01*
X111326086Y-102086632D01*
X111438387Y-102133147D01*
X111484911Y-102172881D01*
X111499500Y-102224610D01*
X111499500Y-103375388D01*
X111480593Y-103433579D01*
X111438385Y-103466852D01*
X111326087Y-103513367D01*
X111162218Y-103622861D01*
X111162214Y-103622864D01*
X111022864Y-103762214D01*
X111022861Y-103762218D01*
X110913367Y-103926086D01*
X110837949Y-104108163D01*
X110837949Y-104108165D01*
X110799500Y-104301456D01*
X110799500Y-104301459D01*
X110799500Y-104498541D01*
X110837948Y-104691832D01*
X110837949Y-104691834D01*
X110837949Y-104691836D01*
X110913367Y-104873913D01*
X110949699Y-104928288D01*
X111022861Y-105037782D01*
X111162218Y-105177139D01*
X111326086Y-105286632D01*
X111508165Y-105362051D01*
X111701459Y-105400500D01*
X111701460Y-105400500D01*
X111898540Y-105400500D01*
X111898541Y-105400500D01*
X112091835Y-105362051D01*
X112204137Y-105315533D01*
X112265129Y-105310733D01*
X112312023Y-105336994D01*
X112609540Y-105634511D01*
X112609539Y-105634511D01*
X112665489Y-105690460D01*
X112734007Y-105730019D01*
X112734011Y-105730021D01*
X112810435Y-105750499D01*
X112810437Y-105750500D01*
X112810438Y-105750500D01*
X112884521Y-105750500D01*
X112942712Y-105769407D01*
X112954525Y-105779496D01*
X115794540Y-108619511D01*
X115794539Y-108619511D01*
X115850489Y-108675460D01*
X115919007Y-108715019D01*
X115919011Y-108715021D01*
X115995435Y-108735499D01*
X115995437Y-108735500D01*
X115995438Y-108735500D01*
X121855415Y-108735500D01*
X121913606Y-108754407D01*
X121925419Y-108764496D01*
X124513870Y-111352947D01*
X124541647Y-111407464D01*
X124532076Y-111467896D01*
X124488811Y-111511161D01*
X124469491Y-111518577D01*
X124426113Y-111530201D01*
X124426110Y-111530202D01*
X124323391Y-111589507D01*
X124292393Y-111620505D01*
X124237876Y-111648281D01*
X124222390Y-111649500D01*
X123501373Y-111649500D01*
X123443182Y-111630593D01*
X123431369Y-111620504D01*
X123143588Y-111332723D01*
X122838352Y-111027487D01*
X122825543Y-111020092D01*
X122825543Y-111020091D01*
X122825541Y-111020091D01*
X122790220Y-110999698D01*
X122769829Y-110987925D01*
X122693405Y-110967447D01*
X122693403Y-110967447D01*
X122128385Y-110967447D01*
X122128382Y-110967447D01*
X122051958Y-110987925D01*
X122051957Y-110987925D01*
X121996247Y-111020091D01*
X121994267Y-111021234D01*
X121944763Y-111034500D01*
X120450235Y-111034500D01*
X120392044Y-111015593D01*
X120380231Y-111005504D01*
X119534034Y-110159307D01*
X118599267Y-109224540D01*
X118599262Y-109224537D01*
X118599259Y-109224534D01*
X118591056Y-109219799D01*
X118591055Y-109219798D01*
X118591055Y-109219799D01*
X118530745Y-109184979D01*
X118530744Y-109184978D01*
X118530743Y-109184978D01*
X118454320Y-109164500D01*
X118454318Y-109164500D01*
X113659544Y-109164500D01*
X113659541Y-109164500D01*
X113583118Y-109184978D01*
X113522807Y-109219799D01*
X113522806Y-109219798D01*
X113514600Y-109224537D01*
X113514591Y-109224543D01*
X113158004Y-109581129D01*
X113113625Y-109606751D01*
X113026114Y-109630200D01*
X113026110Y-109630202D01*
X112923391Y-109689507D01*
X112839507Y-109773391D01*
X112780202Y-109876110D01*
X112780201Y-109876113D01*
X112774350Y-109897948D01*
X112741025Y-109949262D01*
X112683903Y-109971187D01*
X112624803Y-109955350D01*
X112608720Y-109942327D01*
X110979496Y-108313103D01*
X110951719Y-108258586D01*
X110950500Y-108243099D01*
X110950500Y-105597272D01*
X110942117Y-105565989D01*
X110942116Y-105565986D01*
X110937699Y-105549500D01*
X110923207Y-105495412D01*
X110923205Y-105495409D01*
X110923205Y-105495407D01*
X110870483Y-105404091D01*
X110870482Y-105404090D01*
X110870481Y-105404089D01*
X110870480Y-105404087D01*
X110278416Y-104812023D01*
X110250639Y-104757506D01*
X110256956Y-104704133D01*
X110262051Y-104691835D01*
X110300500Y-104498541D01*
X110300500Y-104301459D01*
X110262051Y-104108165D01*
X110186632Y-103926086D01*
X110077139Y-103762218D01*
X109937782Y-103622861D01*
X109891099Y-103591668D01*
X109773921Y-103513371D01*
X109773912Y-103513367D01*
X109761614Y-103508273D01*
X109715088Y-103468536D01*
X109700500Y-103416809D01*
X109700500Y-102299500D01*
X109719407Y-102241309D01*
X109768907Y-102205345D01*
X109799500Y-102200500D01*
X110119747Y-102200500D01*
X110119748Y-102200500D01*
X110178231Y-102188867D01*
X110244552Y-102144552D01*
X110288867Y-102078231D01*
X110300500Y-102019748D01*
X110300500Y-100380252D01*
X110299134Y-100373387D01*
X110296127Y-100358269D01*
X110288867Y-100321769D01*
X110244552Y-100255448D01*
X110236894Y-100250331D01*
X110178233Y-100211134D01*
X110178231Y-100211133D01*
X110178228Y-100211132D01*
X110178227Y-100211132D01*
X110119758Y-100199501D01*
X110119748Y-100199500D01*
X108480252Y-100199500D01*
X108480251Y-100199500D01*
X108480241Y-100199501D01*
X108421772Y-100211132D01*
X108421766Y-100211134D01*
X108355451Y-100255445D01*
X108355445Y-100255451D01*
X108311134Y-100321766D01*
X108311132Y-100321772D01*
X108299501Y-100380241D01*
X108299500Y-100380253D01*
X108299500Y-102019746D01*
X108299501Y-102019758D01*
X108311132Y-102078227D01*
X108311134Y-102078233D01*
X108316746Y-102086632D01*
X108355448Y-102144552D01*
X108421769Y-102188867D01*
X108466231Y-102197711D01*
X108480241Y-102200498D01*
X108480246Y-102200498D01*
X108480252Y-102200500D01*
X108800500Y-102200500D01*
X108858691Y-102219407D01*
X108894655Y-102268907D01*
X108899500Y-102299500D01*
X108899500Y-103371442D01*
X108880593Y-103429633D01*
X108831093Y-103465597D01*
X108774877Y-103467069D01*
X108709309Y-103449500D01*
X108590691Y-103449500D01*
X108530617Y-103465597D01*
X108476109Y-103480202D01*
X108373391Y-103539507D01*
X108289507Y-103623391D01*
X108230202Y-103726109D01*
X108230201Y-103726114D01*
X108199500Y-103840691D01*
X108199500Y-103959309D01*
X108226574Y-104060351D01*
X108230202Y-104073890D01*
X108289509Y-104176610D01*
X108289859Y-104177067D01*
X108289996Y-104177454D01*
X108292755Y-104182233D01*
X108291869Y-104182744D01*
X108310281Y-104234743D01*
X108308413Y-104256645D01*
X108299500Y-104301453D01*
X108299500Y-104301459D01*
X108299500Y-104498541D01*
X108337948Y-104691832D01*
X108337949Y-104691834D01*
X108337949Y-104691836D01*
X108413367Y-104873913D01*
X108449699Y-104928288D01*
X108522861Y-105037782D01*
X108662218Y-105177139D01*
X108826086Y-105286632D01*
X109008165Y-105362051D01*
X109201459Y-105400500D01*
X109201460Y-105400500D01*
X109398540Y-105400500D01*
X109398541Y-105400500D01*
X109591835Y-105362051D01*
X109604133Y-105356956D01*
X109665128Y-105352155D01*
X109712023Y-105378416D01*
X110120504Y-105786897D01*
X110148281Y-105841414D01*
X110149500Y-105856901D01*
X110149500Y-108397273D01*
X110149500Y-108502727D01*
X110155036Y-108523387D01*
X110176794Y-108604592D01*
X110229516Y-108695908D01*
X110229518Y-108695910D01*
X110229520Y-108695913D01*
X111171196Y-109637589D01*
X111198972Y-109692104D01*
X111189401Y-109752536D01*
X111146136Y-109795801D01*
X111126815Y-109803217D01*
X111026114Y-109830200D01*
X111026110Y-109830202D01*
X110923391Y-109889507D01*
X110839507Y-109973391D01*
X110780202Y-110076109D01*
X110749500Y-110190692D01*
X110749500Y-110309314D01*
X110749678Y-110310667D01*
X110749500Y-110311626D01*
X110749500Y-110315798D01*
X110748727Y-110315798D01*
X110738523Y-110370827D01*
X110694137Y-110412940D01*
X110633475Y-110420922D01*
X110602023Y-110409317D01*
X110523888Y-110364205D01*
X110523887Y-110364204D01*
X110523886Y-110364204D01*
X110409309Y-110333503D01*
X110290691Y-110333503D01*
X110220567Y-110352292D01*
X110176109Y-110364205D01*
X110073391Y-110423510D01*
X110042393Y-110454508D01*
X109987876Y-110482284D01*
X109972390Y-110483503D01*
X104399117Y-110483503D01*
X104340926Y-110464596D01*
X104304962Y-110415096D01*
X104304962Y-110353910D01*
X104313382Y-110335001D01*
X104316917Y-110328877D01*
X104319799Y-110323886D01*
X104350500Y-110209309D01*
X104350500Y-110090691D01*
X104336950Y-110040122D01*
X104340153Y-109979021D01*
X104378658Y-109931471D01*
X104432577Y-109915500D01*
X107024563Y-109915500D01*
X107024563Y-109915499D01*
X107100989Y-109895021D01*
X107169511Y-109855460D01*
X107225460Y-109799511D01*
X109295475Y-107729496D01*
X109349992Y-107701719D01*
X109365479Y-107700500D01*
X109409307Y-107700500D01*
X109409309Y-107700500D01*
X109523886Y-107669799D01*
X109523888Y-107669797D01*
X109523890Y-107669797D01*
X109626608Y-107610492D01*
X109626608Y-107610491D01*
X109626613Y-107610489D01*
X109710489Y-107526613D01*
X109769799Y-107423886D01*
X109800500Y-107309309D01*
X109800500Y-107190691D01*
X109769799Y-107076114D01*
X109769797Y-107076111D01*
X109769797Y-107076109D01*
X109710492Y-106973391D01*
X109710490Y-106973389D01*
X109710489Y-106973387D01*
X109626613Y-106889511D01*
X109626610Y-106889509D01*
X109626608Y-106889507D01*
X109523889Y-106830202D01*
X109523890Y-106830202D01*
X109500318Y-106823886D01*
X109409309Y-106799500D01*
X109290691Y-106799500D01*
X109220567Y-106818289D01*
X109176109Y-106830202D01*
X109073391Y-106889507D01*
X108989507Y-106973391D01*
X108930202Y-107076109D01*
X108930201Y-107076114D01*
X108906888Y-107163121D01*
X108899500Y-107190692D01*
X108899500Y-107234521D01*
X108880593Y-107292712D01*
X108870504Y-107304525D01*
X106889525Y-109285504D01*
X106835008Y-109313281D01*
X106819521Y-109314500D01*
X89045435Y-109314500D01*
X88969011Y-109334978D01*
X88969007Y-109334980D01*
X88900491Y-109374538D01*
X84404525Y-113870504D01*
X84350008Y-113898281D01*
X84334521Y-113899500D01*
X84290691Y-113899500D01*
X84220567Y-113918289D01*
X84176109Y-113930202D01*
X84073391Y-113989507D01*
X83989507Y-114073391D01*
X83930202Y-114176109D01*
X83916803Y-114226114D01*
X83899500Y-114290691D01*
X83899500Y-114409309D01*
X83917533Y-114476608D01*
X83930202Y-114523890D01*
X83989507Y-114626608D01*
X83989509Y-114626610D01*
X83989511Y-114626613D01*
X84073387Y-114710489D01*
X84073389Y-114710490D01*
X84073391Y-114710492D01*
X84176110Y-114769797D01*
X84176111Y-114769797D01*
X84176114Y-114769799D01*
X84290691Y-114800500D01*
X84290693Y-114800500D01*
X84409307Y-114800500D01*
X84409309Y-114800500D01*
X84523886Y-114769799D01*
X84523888Y-114769797D01*
X84523890Y-114769797D01*
X84626608Y-114710492D01*
X84626608Y-114710491D01*
X84626613Y-114710489D01*
X84710489Y-114626613D01*
X84731229Y-114590691D01*
X84769797Y-114523890D01*
X84769797Y-114523888D01*
X84769799Y-114523886D01*
X84800500Y-114409309D01*
X84800500Y-114365479D01*
X84819407Y-114307288D01*
X84829496Y-114295475D01*
X84984280Y-114140691D01*
X102399500Y-114140691D01*
X102399500Y-114259309D01*
X102412356Y-114307288D01*
X102430202Y-114373890D01*
X102489507Y-114476608D01*
X102489509Y-114476610D01*
X102489511Y-114476613D01*
X102573387Y-114560489D01*
X102573389Y-114560490D01*
X102573391Y-114560492D01*
X102676110Y-114619797D01*
X102676111Y-114619797D01*
X102676114Y-114619799D01*
X102790691Y-114650500D01*
X102790693Y-114650500D01*
X102909307Y-114650500D01*
X102909309Y-114650500D01*
X103023886Y-114619799D01*
X103023888Y-114619797D01*
X103023890Y-114619797D01*
X103126608Y-114560492D01*
X103126608Y-114560491D01*
X103126613Y-114560489D01*
X103210489Y-114476613D01*
X103212061Y-114473890D01*
X103269797Y-114373890D01*
X103269797Y-114373888D01*
X103269799Y-114373886D01*
X103300500Y-114259309D01*
X103300500Y-114140691D01*
X103269799Y-114026114D01*
X103269797Y-114026111D01*
X103269797Y-114026109D01*
X103210492Y-113923391D01*
X103210490Y-113923389D01*
X103210489Y-113923387D01*
X103126613Y-113839511D01*
X103126610Y-113839509D01*
X103126608Y-113839507D01*
X103023889Y-113780202D01*
X103023890Y-113780202D01*
X103010351Y-113776574D01*
X102909309Y-113749500D01*
X102790691Y-113749500D01*
X102749669Y-113760492D01*
X102676109Y-113780202D01*
X102573391Y-113839507D01*
X102489507Y-113923391D01*
X102430202Y-114026109D01*
X102417534Y-114073387D01*
X102399500Y-114140691D01*
X84984280Y-114140691D01*
X87834280Y-111290691D01*
X93749500Y-111290691D01*
X93749500Y-111409309D01*
X93773667Y-111499500D01*
X93780202Y-111523890D01*
X93839507Y-111626608D01*
X93839509Y-111626610D01*
X93839511Y-111626613D01*
X93923387Y-111710489D01*
X93923389Y-111710490D01*
X93923391Y-111710492D01*
X94026110Y-111769797D01*
X94026111Y-111769797D01*
X94026114Y-111769799D01*
X94140691Y-111800500D01*
X94140693Y-111800500D01*
X94259307Y-111800500D01*
X94259309Y-111800500D01*
X94373886Y-111769799D01*
X94373888Y-111769797D01*
X94373890Y-111769797D01*
X94476608Y-111710492D01*
X94476608Y-111710491D01*
X94476613Y-111710489D01*
X94560489Y-111626613D01*
X94561726Y-111624471D01*
X94619797Y-111523890D01*
X94619797Y-111523888D01*
X94619799Y-111523886D01*
X94650500Y-111409309D01*
X94650500Y-111290691D01*
X94619799Y-111176114D01*
X94619797Y-111176111D01*
X94619797Y-111176109D01*
X94560492Y-111073391D01*
X94560490Y-111073389D01*
X94560489Y-111073387D01*
X94476613Y-110989511D01*
X94476610Y-110989509D01*
X94476608Y-110989507D01*
X94373889Y-110930202D01*
X94373890Y-110930202D01*
X94360351Y-110926574D01*
X94259309Y-110899500D01*
X94140691Y-110899500D01*
X94070567Y-110918289D01*
X94026109Y-110930202D01*
X93923391Y-110989507D01*
X93839507Y-111073391D01*
X93780202Y-111176109D01*
X93770145Y-111213644D01*
X93749500Y-111290691D01*
X87834280Y-111290691D01*
X89180475Y-109944496D01*
X89234992Y-109916719D01*
X89250479Y-109915500D01*
X95254026Y-109915500D01*
X95312217Y-109934407D01*
X95348181Y-109983907D01*
X95349495Y-110034146D01*
X95350347Y-110034259D01*
X95349639Y-110039635D01*
X95349652Y-110040123D01*
X95349500Y-110040691D01*
X95349500Y-110159309D01*
X95357909Y-110190691D01*
X95380202Y-110273890D01*
X95439507Y-110376608D01*
X95439509Y-110376610D01*
X95439511Y-110376613D01*
X95523387Y-110460489D01*
X95523389Y-110460490D01*
X95523391Y-110460492D01*
X95626110Y-110519797D01*
X95626111Y-110519797D01*
X95626114Y-110519799D01*
X95740691Y-110550500D01*
X95740693Y-110550500D01*
X95859307Y-110550500D01*
X95859309Y-110550500D01*
X95973886Y-110519799D01*
X95973888Y-110519797D01*
X95973890Y-110519797D01*
X96076608Y-110460492D01*
X96076608Y-110460491D01*
X96076613Y-110460489D01*
X96107607Y-110429495D01*
X96162124Y-110401719D01*
X96177610Y-110400500D01*
X99184521Y-110400500D01*
X99242712Y-110419407D01*
X99254525Y-110429496D01*
X99870525Y-111045496D01*
X99898302Y-111100013D01*
X99888731Y-111160445D01*
X99845466Y-111203710D01*
X99800521Y-111214500D01*
X96231329Y-111214500D01*
X96154906Y-111234978D01*
X96112364Y-111259540D01*
X96112363Y-111259539D01*
X96086384Y-111274539D01*
X95190419Y-112170504D01*
X95135902Y-112198281D01*
X95120415Y-112199500D01*
X94827610Y-112199500D01*
X94769419Y-112180593D01*
X94757607Y-112170505D01*
X94746409Y-112159307D01*
X94726613Y-112139511D01*
X94726610Y-112139509D01*
X94726609Y-112139508D01*
X94726608Y-112139507D01*
X94623889Y-112080202D01*
X94623890Y-112080202D01*
X94610351Y-112076574D01*
X94509309Y-112049500D01*
X94390691Y-112049500D01*
X94320567Y-112068289D01*
X94276109Y-112080202D01*
X94173391Y-112139507D01*
X94089507Y-112223391D01*
X94030202Y-112326109D01*
X94016671Y-112376608D01*
X93999500Y-112440691D01*
X93999500Y-112559309D01*
X94021002Y-112639555D01*
X94030202Y-112673890D01*
X94089507Y-112776608D01*
X94089509Y-112776610D01*
X94089511Y-112776613D01*
X94173387Y-112860489D01*
X94173389Y-112860490D01*
X94173391Y-112860492D01*
X94248224Y-112903697D01*
X94289165Y-112949166D01*
X94295561Y-113010016D01*
X94264968Y-113063004D01*
X94248227Y-113075168D01*
X94223390Y-113089508D01*
X94139507Y-113173391D01*
X94080202Y-113276109D01*
X94080201Y-113276114D01*
X94049500Y-113390691D01*
X94049500Y-113509309D01*
X94066805Y-113573890D01*
X94080202Y-113623890D01*
X94139507Y-113726608D01*
X94139509Y-113726610D01*
X94139511Y-113726613D01*
X94223387Y-113810489D01*
X94223389Y-113810490D01*
X94223391Y-113810492D01*
X94326110Y-113869797D01*
X94326111Y-113869797D01*
X94326114Y-113869799D01*
X94440691Y-113900500D01*
X94440693Y-113900500D01*
X94559307Y-113900500D01*
X94559309Y-113900500D01*
X94673886Y-113869799D01*
X94673888Y-113869797D01*
X94673890Y-113869797D01*
X94776608Y-113810492D01*
X94776608Y-113810491D01*
X94776613Y-113810489D01*
X94860489Y-113726613D01*
X94860492Y-113726608D01*
X94919797Y-113623890D01*
X94919797Y-113623888D01*
X94919799Y-113623886D01*
X94950500Y-113509309D01*
X94950500Y-113390691D01*
X94937102Y-113340691D01*
X103449500Y-113340691D01*
X103449500Y-113459309D01*
X103462897Y-113509307D01*
X103480202Y-113573890D01*
X103539507Y-113676608D01*
X103539509Y-113676610D01*
X103539511Y-113676613D01*
X103623387Y-113760489D01*
X103623389Y-113760490D01*
X103623391Y-113760492D01*
X103726110Y-113819797D01*
X103726111Y-113819797D01*
X103726114Y-113819799D01*
X103840691Y-113850500D01*
X103840693Y-113850500D01*
X103959307Y-113850500D01*
X103959309Y-113850500D01*
X104073886Y-113819799D01*
X104073888Y-113819797D01*
X104073890Y-113819797D01*
X104176608Y-113760492D01*
X104176608Y-113760491D01*
X104176613Y-113760489D01*
X104260489Y-113676613D01*
X104290931Y-113623886D01*
X104319797Y-113573890D01*
X104319797Y-113573888D01*
X104319799Y-113573886D01*
X104350500Y-113459309D01*
X104350500Y-113340691D01*
X104319799Y-113226114D01*
X104319797Y-113226111D01*
X104319797Y-113226109D01*
X104260492Y-113123391D01*
X104260490Y-113123389D01*
X104260489Y-113123387D01*
X104176613Y-113039511D01*
X104176610Y-113039509D01*
X104176608Y-113039507D01*
X104073889Y-112980202D01*
X104073890Y-112980202D01*
X104060351Y-112976574D01*
X103959309Y-112949500D01*
X103840691Y-112949500D01*
X103770567Y-112968289D01*
X103726109Y-112980202D01*
X103623391Y-113039507D01*
X103539507Y-113123391D01*
X103480202Y-113226109D01*
X103472635Y-113254350D01*
X103449500Y-113340691D01*
X94937102Y-113340691D01*
X94919799Y-113276114D01*
X94919797Y-113276111D01*
X94919797Y-113276109D01*
X94860492Y-113173391D01*
X94860490Y-113173389D01*
X94860489Y-113173387D01*
X94776613Y-113089511D01*
X94776610Y-113089509D01*
X94776608Y-113089507D01*
X94701775Y-113046302D01*
X94660834Y-113000832D01*
X94654438Y-112939982D01*
X94685031Y-112886994D01*
X94689431Y-112883259D01*
X94695283Y-112878577D01*
X94726613Y-112860489D01*
X94761481Y-112825620D01*
X94765766Y-112822193D01*
X94789511Y-112813240D01*
X94812124Y-112801719D01*
X94822163Y-112800928D01*
X94823017Y-112800607D01*
X94823737Y-112800804D01*
X94827610Y-112800500D01*
X95325457Y-112800500D01*
X95325457Y-112800499D01*
X95401883Y-112780021D01*
X95470405Y-112740460D01*
X95526354Y-112684511D01*
X96366369Y-111844496D01*
X96420886Y-111816719D01*
X96436373Y-111815500D01*
X99735415Y-111815500D01*
X99793606Y-111834407D01*
X99805419Y-111844496D01*
X100130434Y-112169511D01*
X100130433Y-112169511D01*
X100186383Y-112225460D01*
X100254901Y-112265019D01*
X100254905Y-112265021D01*
X100331329Y-112285499D01*
X100331331Y-112285500D01*
X100331332Y-112285500D01*
X109874460Y-112285500D01*
X109874460Y-112285499D01*
X109950886Y-112265021D01*
X110019408Y-112225460D01*
X110075357Y-112169511D01*
X111440460Y-110804408D01*
X111454257Y-110780511D01*
X111480021Y-110735886D01*
X111500500Y-110659459D01*
X111500500Y-110627609D01*
X111519407Y-110569418D01*
X111529490Y-110557611D01*
X111560489Y-110526613D01*
X111560492Y-110526608D01*
X111619797Y-110423890D01*
X111619797Y-110423888D01*
X111619799Y-110423886D01*
X111646782Y-110323184D01*
X111680105Y-110271872D01*
X111737227Y-110249945D01*
X111796327Y-110265781D01*
X111812412Y-110278805D01*
X114148104Y-112614496D01*
X116479518Y-114945910D01*
X116479520Y-114945913D01*
X116554087Y-115020480D01*
X116565039Y-115026803D01*
X116573501Y-115034812D01*
X116582832Y-115051944D01*
X116595888Y-115066444D01*
X116597121Y-115078181D01*
X116602766Y-115088544D01*
X116600245Y-115107889D01*
X116602285Y-115127294D01*
X116596384Y-115137514D01*
X116594860Y-115149216D01*
X116581449Y-115163385D01*
X116571694Y-115180283D01*
X116560912Y-115185083D01*
X116552801Y-115193654D01*
X116533621Y-115197234D01*
X116515799Y-115205170D01*
X116505448Y-115205713D01*
X110857949Y-115205713D01*
X110799758Y-115186806D01*
X110763794Y-115137306D01*
X110763794Y-115076120D01*
X110799758Y-115026620D01*
X110808448Y-115020977D01*
X110814173Y-115017670D01*
X110826613Y-115010489D01*
X110910489Y-114926613D01*
X110912061Y-114923890D01*
X110969797Y-114823890D01*
X110969797Y-114823888D01*
X110969799Y-114823886D01*
X111000500Y-114709309D01*
X111000500Y-114590691D01*
X110969799Y-114476114D01*
X110969797Y-114476111D01*
X110969797Y-114476109D01*
X110910492Y-114373391D01*
X110910490Y-114373389D01*
X110910489Y-114373387D01*
X110826613Y-114289511D01*
X110826610Y-114289509D01*
X110826608Y-114289507D01*
X110742056Y-114240691D01*
X112199500Y-114240691D01*
X112199500Y-114359309D01*
X112216805Y-114423890D01*
X112230202Y-114473890D01*
X112289507Y-114576608D01*
X112289509Y-114576610D01*
X112289511Y-114576613D01*
X112373387Y-114660489D01*
X112373389Y-114660490D01*
X112373391Y-114660492D01*
X112476110Y-114719797D01*
X112476111Y-114719797D01*
X112476114Y-114719799D01*
X112590691Y-114750500D01*
X112590693Y-114750500D01*
X112709307Y-114750500D01*
X112709309Y-114750500D01*
X112823886Y-114719799D01*
X112823888Y-114719797D01*
X112823890Y-114719797D01*
X112926608Y-114660492D01*
X112926608Y-114660491D01*
X112926613Y-114660489D01*
X113004997Y-114582104D01*
X113059511Y-114554328D01*
X113119944Y-114563899D01*
X113145002Y-114582104D01*
X113173387Y-114610489D01*
X113173389Y-114610490D01*
X113173390Y-114610491D01*
X113173391Y-114610492D01*
X113276110Y-114669797D01*
X113276111Y-114669797D01*
X113276114Y-114669799D01*
X113390691Y-114700500D01*
X113390693Y-114700500D01*
X113509307Y-114700500D01*
X113509309Y-114700500D01*
X113623886Y-114669799D01*
X113623888Y-114669797D01*
X113623890Y-114669797D01*
X113726608Y-114610492D01*
X113726608Y-114610491D01*
X113726613Y-114610489D01*
X113810489Y-114526613D01*
X113812061Y-114523890D01*
X113869797Y-114423890D01*
X113869797Y-114423888D01*
X113869799Y-114423886D01*
X113900500Y-114309309D01*
X113900500Y-114190691D01*
X113869799Y-114076114D01*
X113869797Y-114076111D01*
X113869797Y-114076109D01*
X113810492Y-113973391D01*
X113810490Y-113973389D01*
X113810489Y-113973387D01*
X113726613Y-113889511D01*
X113726610Y-113889509D01*
X113726608Y-113889507D01*
X113623889Y-113830202D01*
X113623890Y-113830202D01*
X113585065Y-113819799D01*
X113509309Y-113799500D01*
X113390691Y-113799500D01*
X113349669Y-113810492D01*
X113276109Y-113830202D01*
X113173391Y-113889507D01*
X113173390Y-113889508D01*
X113173387Y-113889510D01*
X113173387Y-113889511D01*
X113095001Y-113967896D01*
X113040487Y-113995672D01*
X112980055Y-113986101D01*
X112954999Y-113967897D01*
X112926613Y-113939511D01*
X112926610Y-113939509D01*
X112926608Y-113939507D01*
X112823889Y-113880202D01*
X112823890Y-113880202D01*
X112810351Y-113876574D01*
X112709309Y-113849500D01*
X112590691Y-113849500D01*
X112520567Y-113868289D01*
X112476109Y-113880202D01*
X112373391Y-113939507D01*
X112289507Y-114023391D01*
X112230202Y-114126109D01*
X112230201Y-114126114D01*
X112199500Y-114240691D01*
X110742056Y-114240691D01*
X110723889Y-114230202D01*
X110723890Y-114230202D01*
X110708689Y-114226129D01*
X110609309Y-114199500D01*
X110490691Y-114199500D01*
X110420567Y-114218289D01*
X110376109Y-114230202D01*
X110273391Y-114289507D01*
X110189507Y-114373391D01*
X110130202Y-114476109D01*
X110117400Y-114523886D01*
X110099500Y-114590691D01*
X110099500Y-114709309D01*
X110121306Y-114790691D01*
X110130202Y-114823890D01*
X110189507Y-114926608D01*
X110189509Y-114926610D01*
X110189511Y-114926613D01*
X110273387Y-115010489D01*
X110273389Y-115010490D01*
X110291552Y-115020977D01*
X110332492Y-115066447D01*
X110338887Y-115127297D01*
X110308294Y-115180285D01*
X110252398Y-115205171D01*
X110242051Y-115205713D01*
X80662045Y-115205713D01*
X80661895Y-115205673D01*
X80612290Y-115205713D01*
X80561738Y-115205713D01*
X80561460Y-115205749D01*
X80513344Y-115218683D01*
X80513271Y-115218703D01*
X80464718Y-115231713D01*
X80464442Y-115231827D01*
X80421155Y-115256865D01*
X80421088Y-115256904D01*
X80377728Y-115281938D01*
X80377492Y-115282118D01*
X80342083Y-115317582D01*
X80342084Y-115317583D01*
X80341999Y-115317667D01*
X80341999Y-115317669D01*
X80341674Y-115317993D01*
X80341264Y-115318403D01*
X80306702Y-115352966D01*
X80306624Y-115353100D01*
X80306513Y-115353212D01*
X80306474Y-115353278D01*
X80306473Y-115353280D01*
X80281398Y-115396791D01*
X80281361Y-115396856D01*
X80256477Y-115439959D01*
X80256436Y-115440109D01*
X80256358Y-115440246D01*
X80256330Y-115440347D01*
X80256329Y-115440351D01*
X80243483Y-115488450D01*
X80243463Y-115488524D01*
X80230477Y-115536988D01*
X80230473Y-115537026D01*
X80230472Y-115537027D01*
X80230438Y-115537286D01*
X80230478Y-115586895D01*
X80230478Y-115643388D01*
X80230523Y-115644085D01*
X80244901Y-133471739D01*
X80226041Y-133529945D01*
X80176570Y-133565949D01*
X80145904Y-133570819D01*
X73262981Y-133571009D01*
X73204789Y-133552103D01*
X73168824Y-133502604D01*
X73167764Y-133499122D01*
X72969620Y-132801371D01*
X72968709Y-132797923D01*
X72941784Y-132687968D01*
X72711933Y-131749305D01*
X72711161Y-131745878D01*
X72492873Y-130688597D01*
X72492214Y-130685085D01*
X72312701Y-129620526D01*
X72312168Y-129616965D01*
X72297647Y-129506334D01*
X72171674Y-128546585D01*
X72171278Y-128543065D01*
X72069985Y-127468241D01*
X72069716Y-127464708D01*
X72007759Y-126386848D01*
X72007621Y-126383331D01*
X71985088Y-125304017D01*
X71985079Y-125300405D01*
X72001997Y-124220948D01*
X72002117Y-124217414D01*
X72058466Y-123139270D01*
X72058714Y-123135758D01*
X72154414Y-122060425D01*
X72154798Y-122056854D01*
X72289726Y-120985722D01*
X72290230Y-120982238D01*
X72464202Y-119916769D01*
X72464848Y-119913222D01*
X72548050Y-119499370D01*
X72677636Y-118854801D01*
X72678387Y-118851391D01*
X72929709Y-117801432D01*
X72930594Y-117798010D01*
X73220116Y-116757918D01*
X73221119Y-116754557D01*
X73548443Y-115725760D01*
X73549566Y-115722440D01*
X73807320Y-115004255D01*
X73844773Y-114955872D01*
X73903512Y-114938744D01*
X73961101Y-114959412D01*
X73995543Y-115009983D01*
X73999501Y-115037698D01*
X73999501Y-115059309D01*
X74020400Y-115137306D01*
X74030203Y-115173890D01*
X74089508Y-115276608D01*
X74089510Y-115276610D01*
X74089512Y-115276613D01*
X74173388Y-115360489D01*
X74173390Y-115360490D01*
X74173392Y-115360492D01*
X74276111Y-115419797D01*
X74276112Y-115419797D01*
X74276115Y-115419799D01*
X74390692Y-115450500D01*
X74390694Y-115450500D01*
X74509308Y-115450500D01*
X74509310Y-115450500D01*
X74623887Y-115419799D01*
X74623889Y-115419797D01*
X74623891Y-115419797D01*
X74726609Y-115360492D01*
X74726609Y-115360491D01*
X74726614Y-115360489D01*
X74810490Y-115276613D01*
X74836345Y-115231831D01*
X74869798Y-115173890D01*
X74869798Y-115173888D01*
X74869800Y-115173886D01*
X74900501Y-115059309D01*
X74900501Y-114940691D01*
X74869800Y-114826114D01*
X74869798Y-114826111D01*
X74869798Y-114826109D01*
X74810493Y-114723391D01*
X74810491Y-114723389D01*
X74810490Y-114723387D01*
X74726614Y-114639511D01*
X74726611Y-114639509D01*
X74726609Y-114639507D01*
X74623890Y-114580202D01*
X74623891Y-114580202D01*
X74563047Y-114563899D01*
X74509310Y-114549500D01*
X74390692Y-114549500D01*
X74349670Y-114560492D01*
X74276110Y-114580202D01*
X74173392Y-114639507D01*
X74173386Y-114639511D01*
X74127111Y-114685787D01*
X74072594Y-114713564D01*
X74012162Y-114703992D01*
X73968898Y-114660727D01*
X73959327Y-114600295D01*
X73965210Y-114578965D01*
X74317090Y-113700841D01*
X74318473Y-113697562D01*
X74756404Y-112710743D01*
X74757900Y-112707533D01*
X75231578Y-111737409D01*
X75233217Y-111734205D01*
X75742003Y-110782077D01*
X75743733Y-110778976D01*
X76286989Y-109846033D01*
X76288824Y-109843010D01*
X76865822Y-108930511D01*
X76867765Y-108927559D01*
X77477701Y-108036778D01*
X77479789Y-108033846D01*
X77547104Y-107942856D01*
X78121857Y-107165954D01*
X78124006Y-107163157D01*
X78797360Y-106319298D01*
X78799628Y-106316560D01*
X79503399Y-105497827D01*
X79505716Y-105495229D01*
X80238936Y-104702752D01*
X80241378Y-104700208D01*
X81003035Y-103935078D01*
X81005589Y-103932604D01*
X81794681Y-103195827D01*
X81797332Y-103193441D01*
X82492122Y-102590691D01*
X88799500Y-102590691D01*
X88799500Y-102709309D01*
X88826574Y-102810351D01*
X88830202Y-102823890D01*
X88889507Y-102926608D01*
X88889509Y-102926610D01*
X88889511Y-102926613D01*
X88973387Y-103010489D01*
X88973389Y-103010490D01*
X88973391Y-103010492D01*
X89076110Y-103069797D01*
X89076111Y-103069797D01*
X89076114Y-103069799D01*
X89190691Y-103100500D01*
X89190693Y-103100500D01*
X89309307Y-103100500D01*
X89309309Y-103100500D01*
X89423886Y-103069799D01*
X89423888Y-103069797D01*
X89423890Y-103069797D01*
X89526608Y-103010492D01*
X89526608Y-103010491D01*
X89526613Y-103010489D01*
X89610489Y-102926613D01*
X89610492Y-102926608D01*
X89669797Y-102823890D01*
X89669797Y-102823888D01*
X89669799Y-102823886D01*
X89700500Y-102709309D01*
X89700500Y-102590691D01*
X89669799Y-102476114D01*
X89669797Y-102476111D01*
X89669797Y-102476109D01*
X89610492Y-102373391D01*
X89610490Y-102373389D01*
X89610489Y-102373387D01*
X89526613Y-102289511D01*
X89526610Y-102289509D01*
X89526608Y-102289507D01*
X89423889Y-102230202D01*
X89423890Y-102230202D01*
X89383602Y-102219407D01*
X89309309Y-102199500D01*
X89190691Y-102199500D01*
X89120567Y-102218289D01*
X89076109Y-102230202D01*
X88973391Y-102289507D01*
X88889507Y-102373391D01*
X88830202Y-102476109D01*
X88821276Y-102509421D01*
X88799500Y-102590691D01*
X82492122Y-102590691D01*
X82612820Y-102485982D01*
X82615518Y-102483727D01*
X83456332Y-101806520D01*
X83459134Y-101804346D01*
X84324112Y-101158323D01*
X84326983Y-101156260D01*
X85214999Y-100542266D01*
X85217944Y-100540308D01*
X86127794Y-99959174D01*
X86130833Y-99957310D01*
X86562137Y-99703525D01*
X86612470Y-99689852D01*
X87537470Y-99691114D01*
G37*
%TD.AperFunction*%
%TA.AperFunction,Conductor*%
G36*
X118328606Y-110269407D02*
G01*
X118340419Y-110279496D01*
X119776419Y-111715496D01*
X119804196Y-111770013D01*
X119794625Y-111830445D01*
X119751360Y-111873710D01*
X119706415Y-111884500D01*
X116802930Y-111884500D01*
X116744739Y-111865593D01*
X116717193Y-111835000D01*
X116710489Y-111823387D01*
X116626613Y-111739511D01*
X116626610Y-111739509D01*
X116626608Y-111739507D01*
X116523889Y-111680202D01*
X116523890Y-111680202D01*
X116500318Y-111673886D01*
X116409309Y-111649500D01*
X116290691Y-111649500D01*
X116220567Y-111668289D01*
X116176109Y-111680202D01*
X116073391Y-111739507D01*
X115989507Y-111823391D01*
X115930202Y-111926109D01*
X115917448Y-111973710D01*
X115899500Y-112040691D01*
X115899500Y-112159309D01*
X115916670Y-112223387D01*
X115930202Y-112273890D01*
X115989507Y-112376608D01*
X115989509Y-112376610D01*
X115989511Y-112376613D01*
X116073387Y-112460489D01*
X116073389Y-112460490D01*
X116073391Y-112460492D01*
X116176110Y-112519797D01*
X116176111Y-112519797D01*
X116176114Y-112519799D01*
X116290691Y-112550500D01*
X116290693Y-112550500D01*
X116409307Y-112550500D01*
X116409309Y-112550500D01*
X116523886Y-112519799D01*
X116560319Y-112498763D01*
X116609820Y-112485500D01*
X119689187Y-112485500D01*
X119747378Y-112504407D01*
X119759191Y-112514496D01*
X122281404Y-115036709D01*
X122309181Y-115091226D01*
X122299610Y-115151658D01*
X122256345Y-115194923D01*
X122211400Y-115205713D01*
X119286294Y-115205713D01*
X119228103Y-115186806D01*
X119192139Y-115137306D01*
X119192139Y-115076120D01*
X119200558Y-115057212D01*
X119219799Y-115023886D01*
X119250500Y-114909309D01*
X119250500Y-114790691D01*
X119219799Y-114676114D01*
X119219797Y-114676111D01*
X119219797Y-114676109D01*
X119160492Y-114573391D01*
X119160491Y-114573390D01*
X119160490Y-114573389D01*
X119160489Y-114573387D01*
X119128728Y-114541626D01*
X119100952Y-114487109D01*
X119100673Y-114465798D01*
X119100500Y-114465798D01*
X119100500Y-114340692D01*
X119092091Y-114309309D01*
X119069799Y-114226114D01*
X119069797Y-114226110D01*
X119069797Y-114226109D01*
X119010492Y-114123391D01*
X119010490Y-114123389D01*
X119010489Y-114123387D01*
X118926613Y-114039511D01*
X118926610Y-114039509D01*
X118926608Y-114039507D01*
X118823889Y-113980202D01*
X118823890Y-113980202D01*
X118798456Y-113973387D01*
X118709309Y-113949500D01*
X118590691Y-113949500D01*
X118522040Y-113967895D01*
X118476109Y-113980202D01*
X118373391Y-114039507D01*
X118289507Y-114123391D01*
X118230202Y-114226110D01*
X118230200Y-114226114D01*
X118230198Y-114226124D01*
X118230194Y-114226129D01*
X118227719Y-114232106D01*
X118226611Y-114231647D01*
X118196874Y-114277438D01*
X118139752Y-114299364D01*
X118134572Y-114299500D01*
X117006900Y-114299500D01*
X116948709Y-114280593D01*
X116936896Y-114270504D01*
X113307672Y-110641279D01*
X113279895Y-110586762D01*
X113289466Y-110526330D01*
X113332731Y-110483065D01*
X113352049Y-110475650D01*
X113373886Y-110469799D01*
X113476613Y-110410489D01*
X113540019Y-110347082D01*
X113594533Y-110319306D01*
X113654965Y-110328877D01*
X113659500Y-110331339D01*
X113726114Y-110369799D01*
X113840691Y-110400500D01*
X113840693Y-110400500D01*
X113959307Y-110400500D01*
X113959309Y-110400500D01*
X114073886Y-110369799D01*
X114073888Y-110369797D01*
X114073890Y-110369797D01*
X114176608Y-110310492D01*
X114176608Y-110310491D01*
X114176613Y-110310489D01*
X114207607Y-110279495D01*
X114262124Y-110251719D01*
X114277610Y-110250500D01*
X118270415Y-110250500D01*
X118328606Y-110269407D01*
G37*
%TD.AperFunction*%
%TA.AperFunction,Conductor*%
G36*
X122546553Y-111587354D02*
G01*
X122558366Y-111597443D01*
X122776419Y-111815496D01*
X122804196Y-111870013D01*
X122794625Y-111930445D01*
X122751360Y-111973710D01*
X122706415Y-111984500D01*
X120936373Y-111984500D01*
X120878182Y-111965593D01*
X120866369Y-111955504D01*
X120715369Y-111804504D01*
X120687592Y-111749987D01*
X120697163Y-111689555D01*
X120740428Y-111646290D01*
X120785373Y-111635500D01*
X122140457Y-111635500D01*
X122140457Y-111635499D01*
X122216883Y-111615021D01*
X122274578Y-111581710D01*
X122324078Y-111568447D01*
X122488362Y-111568447D01*
X122546553Y-111587354D01*
G37*
%TD.AperFunction*%
%TD*%
M02*
