%TF.GenerationSoftware,KiCad,Pcbnew,9.0.1*%
%TF.CreationDate,2025-12-04T23:43:19-05:00*%
%TF.ProjectId,EDDDial,45444444-6961-46c2-9e6b-696361645f70,rev?*%
%TF.SameCoordinates,Original*%
%TF.FileFunction,Legend,Top*%
%TF.FilePolarity,Positive*%
%FSLAX46Y46*%
G04 Gerber Fmt 4.6, Leading zero omitted, Abs format (unit mm)*
G04 Created by KiCad (PCBNEW 9.0.1) date 2025-12-04 23:43:19*
%MOMM*%
%LPD*%
G01*
G04 APERTURE LIST*
G04 Aperture macros list*
%AMRoundRect*
0 Rectangle with rounded corners*
0 $1 Rounding radius*
0 $2 $3 $4 $5 $6 $7 $8 $9 X,Y pos of 4 corners*
0 Add a 4 corners polygon primitive as box body*
4,1,4,$2,$3,$4,$5,$6,$7,$8,$9,$2,$3,0*
0 Add four circle primitives for the rounded corners*
1,1,$1+$1,$2,$3*
1,1,$1+$1,$4,$5*
1,1,$1+$1,$6,$7*
1,1,$1+$1,$8,$9*
0 Add four rect primitives between the rounded corners*
20,1,$1+$1,$2,$3,$4,$5,0*
20,1,$1+$1,$4,$5,$6,$7,0*
20,1,$1+$1,$6,$7,$8,$9,0*
20,1,$1+$1,$8,$9,$2,$3,0*%
G04 Aperture macros list end*
%ADD10C,0.100000*%
%ADD11C,0.150000*%
%ADD12C,0.120000*%
%ADD13C,0.200000*%
%ADD14C,0.010000*%
%ADD15C,3.800000*%
%ADD16C,0.787400*%
%ADD17C,0.990600*%
%ADD18R,1.600000X1.600000*%
%ADD19C,1.600000*%
%ADD20RoundRect,0.250000X0.250000X-1.300000X0.250000X1.300000X-0.250000X1.300000X-0.250000X-1.300000X0*%
%ADD21RoundRect,0.140000X0.170000X-0.140000X0.170000X0.140000X-0.170000X0.140000X-0.170000X-0.140000X0*%
%ADD22RoundRect,0.150000X0.512500X0.150000X-0.512500X0.150000X-0.512500X-0.150000X0.512500X-0.150000X0*%
%ADD23RoundRect,0.140000X0.077224X-0.206244X0.217224X0.036244X-0.077224X0.206244X-0.217224X-0.036244X0*%
%ADD24RoundRect,0.135000X-0.035355X0.226274X-0.226274X0.035355X0.035355X-0.226274X0.226274X-0.035355X0*%
%ADD25RoundRect,0.140000X0.219203X0.021213X0.021213X0.219203X-0.219203X-0.021213X-0.021213X-0.219203X0*%
%ADD26RoundRect,0.150000X0.150000X-0.512500X0.150000X0.512500X-0.150000X0.512500X-0.150000X-0.512500X0*%
%ADD27RoundRect,0.135000X-0.185000X0.135000X-0.185000X-0.135000X0.185000X-0.135000X0.185000X0.135000X0*%
%ADD28RoundRect,0.250000X-0.350000X-0.650000X0.350000X-0.650000X0.350000X0.650000X-0.350000X0.650000X0*%
%ADD29RoundRect,0.150000X-0.150000X-0.625000X0.150000X-0.625000X0.150000X0.625000X-0.150000X0.625000X0*%
%ADD30RoundRect,0.135000X0.185000X-0.135000X0.185000X0.135000X-0.185000X0.135000X-0.185000X-0.135000X0*%
%ADD31RoundRect,0.135000X0.035355X-0.226274X0.226274X-0.035355X-0.035355X0.226274X-0.226274X0.035355X0*%
%ADD32RoundRect,0.135000X-0.135000X-0.185000X0.135000X-0.185000X0.135000X0.185000X-0.135000X0.185000X0*%
%ADD33RoundRect,0.150000X-0.150000X-0.400000X0.150000X-0.400000X0.150000X0.400000X-0.150000X0.400000X0*%
%ADD34RoundRect,0.140000X-0.170000X0.140000X-0.170000X-0.140000X0.170000X-0.140000X0.170000X0.140000X0*%
%ADD35RoundRect,0.150000X-0.625000X0.150000X-0.625000X-0.150000X0.625000X-0.150000X0.625000X0.150000X0*%
%ADD36RoundRect,0.250000X-0.650000X0.350000X-0.650000X-0.350000X0.650000X-0.350000X0.650000X0.350000X0*%
%ADD37RoundRect,0.150000X0.150000X0.625000X-0.150000X0.625000X-0.150000X-0.625000X0.150000X-0.625000X0*%
%ADD38RoundRect,0.250000X0.350000X0.650000X-0.350000X0.650000X-0.350000X-0.650000X0.350000X-0.650000X0*%
%ADD39RoundRect,0.140000X-0.140000X-0.170000X0.140000X-0.170000X0.140000X0.170000X-0.140000X0.170000X0*%
%ADD40RoundRect,0.147500X0.017678X-0.226274X0.226274X-0.017678X-0.017678X0.226274X-0.226274X0.017678X0*%
%ADD41RoundRect,0.250000X0.262500X0.450000X-0.262500X0.450000X-0.262500X-0.450000X0.262500X-0.450000X0*%
%ADD42RoundRect,0.140000X0.140000X0.170000X-0.140000X0.170000X-0.140000X-0.170000X0.140000X-0.170000X0*%
%ADD43C,0.650000*%
%ADD44RoundRect,0.150000X0.425000X-0.150000X0.425000X0.150000X-0.425000X0.150000X-0.425000X-0.150000X0*%
%ADD45RoundRect,0.075000X0.500000X-0.075000X0.500000X0.075000X-0.500000X0.075000X-0.500000X-0.075000X0*%
%ADD46RoundRect,0.250000X0.750000X-0.840000X0.750000X0.840000X-0.750000X0.840000X-0.750000X-0.840000X0*%
%ADD47R,0.600000X0.400000*%
%ADD48R,0.400000X0.600000*%
%ADD49RoundRect,0.135000X0.135000X0.185000X-0.135000X0.185000X-0.135000X-0.185000X0.135000X-0.185000X0*%
%ADD50RoundRect,0.150000X-0.512500X-0.150000X0.512500X-0.150000X0.512500X0.150000X-0.512500X0.150000X0*%
G04 APERTURE END LIST*
D10*
X80636978Y-115600000D02*
X122575000Y-115600000D01*
X122575000Y-146587215D01*
X80636978Y-146587215D01*
X80636978Y-115600000D01*
X131600000Y-125200000D02*
G75*
G02*
X71600000Y-125200000I-30000000J0D01*
G01*
X71600000Y-125200000D02*
G75*
G02*
X131600000Y-125200000I30000000J0D01*
G01*
D11*
X110466667Y-99957200D02*
X110609524Y-100004819D01*
X110609524Y-100004819D02*
X110847619Y-100004819D01*
X110847619Y-100004819D02*
X110942857Y-99957200D01*
X110942857Y-99957200D02*
X110990476Y-99909580D01*
X110990476Y-99909580D02*
X111038095Y-99814342D01*
X111038095Y-99814342D02*
X111038095Y-99719104D01*
X111038095Y-99719104D02*
X110990476Y-99623866D01*
X110990476Y-99623866D02*
X110942857Y-99576247D01*
X110942857Y-99576247D02*
X110847619Y-99528628D01*
X110847619Y-99528628D02*
X110657143Y-99481009D01*
X110657143Y-99481009D02*
X110561905Y-99433390D01*
X110561905Y-99433390D02*
X110514286Y-99385771D01*
X110514286Y-99385771D02*
X110466667Y-99290533D01*
X110466667Y-99290533D02*
X110466667Y-99195295D01*
X110466667Y-99195295D02*
X110514286Y-99100057D01*
X110514286Y-99100057D02*
X110561905Y-99052438D01*
X110561905Y-99052438D02*
X110657143Y-99004819D01*
X110657143Y-99004819D02*
X110895238Y-99004819D01*
X110895238Y-99004819D02*
X111038095Y-99052438D01*
X111371429Y-99004819D02*
X111609524Y-100004819D01*
X111609524Y-100004819D02*
X111800000Y-99290533D01*
X111800000Y-99290533D02*
X111990476Y-100004819D01*
X111990476Y-100004819D02*
X112228572Y-99004819D01*
X113133333Y-100004819D02*
X112561905Y-100004819D01*
X112847619Y-100004819D02*
X112847619Y-99004819D01*
X112847619Y-99004819D02*
X112752381Y-99147676D01*
X112752381Y-99147676D02*
X112657143Y-99242914D01*
X112657143Y-99242914D02*
X112561905Y-99290533D01*
X119059580Y-112866666D02*
X119107200Y-112914285D01*
X119107200Y-112914285D02*
X119154819Y-113057142D01*
X119154819Y-113057142D02*
X119154819Y-113152380D01*
X119154819Y-113152380D02*
X119107200Y-113295237D01*
X119107200Y-113295237D02*
X119011961Y-113390475D01*
X119011961Y-113390475D02*
X118916723Y-113438094D01*
X118916723Y-113438094D02*
X118726247Y-113485713D01*
X118726247Y-113485713D02*
X118583390Y-113485713D01*
X118583390Y-113485713D02*
X118392914Y-113438094D01*
X118392914Y-113438094D02*
X118297676Y-113390475D01*
X118297676Y-113390475D02*
X118202438Y-113295237D01*
X118202438Y-113295237D02*
X118154819Y-113152380D01*
X118154819Y-113152380D02*
X118154819Y-113057142D01*
X118154819Y-113057142D02*
X118202438Y-112914285D01*
X118202438Y-112914285D02*
X118250057Y-112866666D01*
X118250057Y-112485713D02*
X118202438Y-112438094D01*
X118202438Y-112438094D02*
X118154819Y-112342856D01*
X118154819Y-112342856D02*
X118154819Y-112104761D01*
X118154819Y-112104761D02*
X118202438Y-112009523D01*
X118202438Y-112009523D02*
X118250057Y-111961904D01*
X118250057Y-111961904D02*
X118345295Y-111914285D01*
X118345295Y-111914285D02*
X118440533Y-111914285D01*
X118440533Y-111914285D02*
X118583390Y-111961904D01*
X118583390Y-111961904D02*
X119154819Y-112533332D01*
X119154819Y-112533332D02*
X119154819Y-111914285D01*
X111709580Y-112392857D02*
X111757200Y-112440476D01*
X111757200Y-112440476D02*
X111804819Y-112583333D01*
X111804819Y-112583333D02*
X111804819Y-112678571D01*
X111804819Y-112678571D02*
X111757200Y-112821428D01*
X111757200Y-112821428D02*
X111661961Y-112916666D01*
X111661961Y-112916666D02*
X111566723Y-112964285D01*
X111566723Y-112964285D02*
X111376247Y-113011904D01*
X111376247Y-113011904D02*
X111233390Y-113011904D01*
X111233390Y-113011904D02*
X111042914Y-112964285D01*
X111042914Y-112964285D02*
X110947676Y-112916666D01*
X110947676Y-112916666D02*
X110852438Y-112821428D01*
X110852438Y-112821428D02*
X110804819Y-112678571D01*
X110804819Y-112678571D02*
X110804819Y-112583333D01*
X110804819Y-112583333D02*
X110852438Y-112440476D01*
X110852438Y-112440476D02*
X110900057Y-112392857D01*
X111804819Y-111440476D02*
X111804819Y-112011904D01*
X111804819Y-111726190D02*
X110804819Y-111726190D01*
X110804819Y-111726190D02*
X110947676Y-111821428D01*
X110947676Y-111821428D02*
X111042914Y-111916666D01*
X111042914Y-111916666D02*
X111090533Y-112011904D01*
X111804819Y-110488095D02*
X111804819Y-111059523D01*
X111804819Y-110773809D02*
X110804819Y-110773809D01*
X110804819Y-110773809D02*
X110947676Y-110869047D01*
X110947676Y-110869047D02*
X111042914Y-110964285D01*
X111042914Y-110964285D02*
X111090533Y-111059523D01*
X113538095Y-111054819D02*
X113538095Y-111864342D01*
X113538095Y-111864342D02*
X113585714Y-111959580D01*
X113585714Y-111959580D02*
X113633333Y-112007200D01*
X113633333Y-112007200D02*
X113728571Y-112054819D01*
X113728571Y-112054819D02*
X113919047Y-112054819D01*
X113919047Y-112054819D02*
X114014285Y-112007200D01*
X114014285Y-112007200D02*
X114061904Y-111959580D01*
X114061904Y-111959580D02*
X114109523Y-111864342D01*
X114109523Y-111864342D02*
X114109523Y-111054819D01*
X115014285Y-111388152D02*
X115014285Y-112054819D01*
X114776190Y-111007200D02*
X114538095Y-111721485D01*
X114538095Y-111721485D02*
X115157142Y-111721485D01*
X117509580Y-112566666D02*
X117557200Y-112614285D01*
X117557200Y-112614285D02*
X117604819Y-112757142D01*
X117604819Y-112757142D02*
X117604819Y-112852380D01*
X117604819Y-112852380D02*
X117557200Y-112995237D01*
X117557200Y-112995237D02*
X117461961Y-113090475D01*
X117461961Y-113090475D02*
X117366723Y-113138094D01*
X117366723Y-113138094D02*
X117176247Y-113185713D01*
X117176247Y-113185713D02*
X117033390Y-113185713D01*
X117033390Y-113185713D02*
X116842914Y-113138094D01*
X116842914Y-113138094D02*
X116747676Y-113090475D01*
X116747676Y-113090475D02*
X116652438Y-112995237D01*
X116652438Y-112995237D02*
X116604819Y-112852380D01*
X116604819Y-112852380D02*
X116604819Y-112757142D01*
X116604819Y-112757142D02*
X116652438Y-112614285D01*
X116652438Y-112614285D02*
X116700057Y-112566666D01*
X116604819Y-112233332D02*
X116604819Y-111614285D01*
X116604819Y-111614285D02*
X116985771Y-111947618D01*
X116985771Y-111947618D02*
X116985771Y-111804761D01*
X116985771Y-111804761D02*
X117033390Y-111709523D01*
X117033390Y-111709523D02*
X117081009Y-111661904D01*
X117081009Y-111661904D02*
X117176247Y-111614285D01*
X117176247Y-111614285D02*
X117414342Y-111614285D01*
X117414342Y-111614285D02*
X117509580Y-111661904D01*
X117509580Y-111661904D02*
X117557200Y-111709523D01*
X117557200Y-111709523D02*
X117604819Y-111804761D01*
X117604819Y-111804761D02*
X117604819Y-112090475D01*
X117604819Y-112090475D02*
X117557200Y-112185713D01*
X117557200Y-112185713D02*
X117509580Y-112233332D01*
X125875872Y-108978073D02*
X125810823Y-108995502D01*
X125810823Y-108995502D02*
X125663296Y-108965313D01*
X125663296Y-108965313D02*
X125580817Y-108917694D01*
X125580817Y-108917694D02*
X125480909Y-108805026D01*
X125480909Y-108805026D02*
X125446049Y-108674929D01*
X125446049Y-108674929D02*
X125452429Y-108568640D01*
X125452429Y-108568640D02*
X125506428Y-108379874D01*
X125506428Y-108379874D02*
X125577856Y-108256156D01*
X125577856Y-108256156D02*
X125714334Y-108115008D01*
X125714334Y-108115008D02*
X125803192Y-108056339D01*
X125803192Y-108056339D02*
X125933290Y-108021479D01*
X125933290Y-108021479D02*
X126080817Y-108051669D01*
X126080817Y-108051669D02*
X126163296Y-108099288D01*
X126163296Y-108099288D02*
X126263204Y-108211956D01*
X126263204Y-108211956D02*
X126280634Y-108277004D01*
X127111800Y-108646907D02*
X126699407Y-108408812D01*
X126699407Y-108408812D02*
X126420072Y-108797395D01*
X126420072Y-108797395D02*
X126485121Y-108779965D01*
X126485121Y-108779965D02*
X126591409Y-108786345D01*
X126591409Y-108786345D02*
X126797606Y-108905393D01*
X126797606Y-108905393D02*
X126856275Y-108994251D01*
X126856275Y-108994251D02*
X126873704Y-109059300D01*
X126873704Y-109059300D02*
X126867325Y-109165588D01*
X126867325Y-109165588D02*
X126748277Y-109371785D01*
X126748277Y-109371785D02*
X126659419Y-109430454D01*
X126659419Y-109430454D02*
X126594370Y-109447883D01*
X126594370Y-109447883D02*
X126488082Y-109441504D01*
X126488082Y-109441504D02*
X126281885Y-109322456D01*
X126281885Y-109322456D02*
X126223216Y-109233598D01*
X126223216Y-109233598D02*
X126205786Y-109168549D01*
X123575750Y-112303246D02*
X124148170Y-112875666D01*
X124148170Y-112875666D02*
X124249185Y-112909338D01*
X124249185Y-112909338D02*
X124316529Y-112909338D01*
X124316529Y-112909338D02*
X124417544Y-112875666D01*
X124417544Y-112875666D02*
X124552231Y-112740979D01*
X124552231Y-112740979D02*
X124585903Y-112639964D01*
X124585903Y-112639964D02*
X124585903Y-112572620D01*
X124585903Y-112572620D02*
X124552231Y-112471605D01*
X124552231Y-112471605D02*
X123979811Y-111899185D01*
X125394025Y-111899185D02*
X124989964Y-112303246D01*
X125191994Y-112101216D02*
X124484888Y-111394109D01*
X124484888Y-111394109D02*
X124518559Y-111562468D01*
X124518559Y-111562468D02*
X124518559Y-111697155D01*
X124518559Y-111697155D02*
X124484888Y-111798170D01*
X128217036Y-119776174D02*
X127644617Y-119675159D01*
X127812975Y-120180235D02*
X127105869Y-119473128D01*
X127105869Y-119473128D02*
X127375243Y-119203754D01*
X127375243Y-119203754D02*
X127476258Y-119170082D01*
X127476258Y-119170082D02*
X127543601Y-119170082D01*
X127543601Y-119170082D02*
X127644617Y-119203754D01*
X127644617Y-119203754D02*
X127745632Y-119304769D01*
X127745632Y-119304769D02*
X127779304Y-119405785D01*
X127779304Y-119405785D02*
X127779304Y-119473128D01*
X127779304Y-119473128D02*
X127745632Y-119574143D01*
X127745632Y-119574143D02*
X127476258Y-119843517D01*
X128890471Y-119102739D02*
X128486410Y-119506800D01*
X128688441Y-119304769D02*
X127981334Y-118597663D01*
X127981334Y-118597663D02*
X128015006Y-118766021D01*
X128015006Y-118766021D02*
X128015006Y-118900708D01*
X128015006Y-118900708D02*
X127981334Y-119001724D01*
X128789456Y-117789540D02*
X128654769Y-117924227D01*
X128654769Y-117924227D02*
X128621098Y-118025243D01*
X128621098Y-118025243D02*
X128621098Y-118092586D01*
X128621098Y-118092586D02*
X128654769Y-118260945D01*
X128654769Y-118260945D02*
X128755785Y-118429304D01*
X128755785Y-118429304D02*
X129025159Y-118698678D01*
X129025159Y-118698678D02*
X129126174Y-118732349D01*
X129126174Y-118732349D02*
X129193517Y-118732349D01*
X129193517Y-118732349D02*
X129294533Y-118698678D01*
X129294533Y-118698678D02*
X129429220Y-118563991D01*
X129429220Y-118563991D02*
X129462891Y-118462975D01*
X129462891Y-118462975D02*
X129462891Y-118395632D01*
X129462891Y-118395632D02*
X129429220Y-118294617D01*
X129429220Y-118294617D02*
X129260861Y-118126258D01*
X129260861Y-118126258D02*
X129159846Y-118092586D01*
X129159846Y-118092586D02*
X129092502Y-118092586D01*
X129092502Y-118092586D02*
X128991487Y-118126258D01*
X128991487Y-118126258D02*
X128856800Y-118260945D01*
X128856800Y-118260945D02*
X128823128Y-118361960D01*
X128823128Y-118361960D02*
X128823128Y-118429304D01*
X128823128Y-118429304D02*
X128856800Y-118530319D01*
X126052800Y-110897616D02*
X125985456Y-110897616D01*
X125985456Y-110897616D02*
X125850769Y-110830272D01*
X125850769Y-110830272D02*
X125783426Y-110762929D01*
X125783426Y-110762929D02*
X125716082Y-110628242D01*
X125716082Y-110628242D02*
X125716082Y-110493555D01*
X125716082Y-110493555D02*
X125749754Y-110392540D01*
X125749754Y-110392540D02*
X125850769Y-110224181D01*
X125850769Y-110224181D02*
X125951784Y-110123166D01*
X125951784Y-110123166D02*
X126120143Y-110022150D01*
X126120143Y-110022150D02*
X126221158Y-109988479D01*
X126221158Y-109988479D02*
X126355845Y-109988479D01*
X126355845Y-109988479D02*
X126490532Y-110055822D01*
X126490532Y-110055822D02*
X126557876Y-110123166D01*
X126557876Y-110123166D02*
X126625219Y-110257853D01*
X126625219Y-110257853D02*
X126625219Y-110325196D01*
X126658891Y-111638394D02*
X126254830Y-111234333D01*
X126456861Y-111436364D02*
X127163967Y-110729257D01*
X127163967Y-110729257D02*
X126995609Y-110762929D01*
X126995609Y-110762929D02*
X126860922Y-110762929D01*
X126860922Y-110762929D02*
X126759906Y-110729257D01*
X127367036Y-118876174D02*
X126794617Y-118775159D01*
X126962975Y-119280235D02*
X126255869Y-118573128D01*
X126255869Y-118573128D02*
X126525243Y-118303754D01*
X126525243Y-118303754D02*
X126626258Y-118270082D01*
X126626258Y-118270082D02*
X126693601Y-118270082D01*
X126693601Y-118270082D02*
X126794617Y-118303754D01*
X126794617Y-118303754D02*
X126895632Y-118404769D01*
X126895632Y-118404769D02*
X126929304Y-118505785D01*
X126929304Y-118505785D02*
X126929304Y-118573128D01*
X126929304Y-118573128D02*
X126895632Y-118674143D01*
X126895632Y-118674143D02*
X126626258Y-118943517D01*
X128040471Y-118202739D02*
X127636410Y-118606800D01*
X127838441Y-118404769D02*
X127131334Y-117697663D01*
X127131334Y-117697663D02*
X127165006Y-117866021D01*
X127165006Y-117866021D02*
X127165006Y-118000708D01*
X127165006Y-118000708D02*
X127131334Y-118101724D01*
X127973128Y-116855869D02*
X127636410Y-117192586D01*
X127636410Y-117192586D02*
X127939456Y-117562975D01*
X127939456Y-117562975D02*
X127939456Y-117495632D01*
X127939456Y-117495632D02*
X127973128Y-117394617D01*
X127973128Y-117394617D02*
X128141487Y-117226258D01*
X128141487Y-117226258D02*
X128242502Y-117192586D01*
X128242502Y-117192586D02*
X128309846Y-117192586D01*
X128309846Y-117192586D02*
X128410861Y-117226258D01*
X128410861Y-117226258D02*
X128579220Y-117394617D01*
X128579220Y-117394617D02*
X128612891Y-117495632D01*
X128612891Y-117495632D02*
X128612891Y-117562975D01*
X128612891Y-117562975D02*
X128579220Y-117663991D01*
X128579220Y-117663991D02*
X128410861Y-117832349D01*
X128410861Y-117832349D02*
X128309846Y-117866021D01*
X128309846Y-117866021D02*
X128242502Y-117866021D01*
X122738097Y-113665443D02*
X122738097Y-114474966D01*
X122738097Y-114474966D02*
X122785716Y-114570204D01*
X122785716Y-114570204D02*
X122833335Y-114617824D01*
X122833335Y-114617824D02*
X122928573Y-114665443D01*
X122928573Y-114665443D02*
X123119049Y-114665443D01*
X123119049Y-114665443D02*
X123214287Y-114617824D01*
X123214287Y-114617824D02*
X123261906Y-114570204D01*
X123261906Y-114570204D02*
X123309525Y-114474966D01*
X123309525Y-114474966D02*
X123309525Y-113665443D01*
X123690478Y-113665443D02*
X124309525Y-113665443D01*
X124309525Y-113665443D02*
X123976192Y-114046395D01*
X123976192Y-114046395D02*
X124119049Y-114046395D01*
X124119049Y-114046395D02*
X124214287Y-114094014D01*
X124214287Y-114094014D02*
X124261906Y-114141633D01*
X124261906Y-114141633D02*
X124309525Y-114236871D01*
X124309525Y-114236871D02*
X124309525Y-114474966D01*
X124309525Y-114474966D02*
X124261906Y-114570204D01*
X124261906Y-114570204D02*
X124214287Y-114617824D01*
X124214287Y-114617824D02*
X124119049Y-114665443D01*
X124119049Y-114665443D02*
X123833335Y-114665443D01*
X123833335Y-114665443D02*
X123738097Y-114617824D01*
X123738097Y-114617824D02*
X123690478Y-114570204D01*
X92174819Y-108091665D02*
X91698628Y-108424998D01*
X92174819Y-108663093D02*
X91174819Y-108663093D01*
X91174819Y-108663093D02*
X91174819Y-108282141D01*
X91174819Y-108282141D02*
X91222438Y-108186903D01*
X91222438Y-108186903D02*
X91270057Y-108139284D01*
X91270057Y-108139284D02*
X91365295Y-108091665D01*
X91365295Y-108091665D02*
X91508152Y-108091665D01*
X91508152Y-108091665D02*
X91603390Y-108139284D01*
X91603390Y-108139284D02*
X91651009Y-108186903D01*
X91651009Y-108186903D02*
X91698628Y-108282141D01*
X91698628Y-108282141D02*
X91698628Y-108663093D01*
X91508152Y-107234522D02*
X92174819Y-107234522D01*
X91127200Y-107472617D02*
X91841485Y-107710712D01*
X91841485Y-107710712D02*
X91841485Y-107091665D01*
X84204819Y-112292857D02*
X83728628Y-112626190D01*
X84204819Y-112864285D02*
X83204819Y-112864285D01*
X83204819Y-112864285D02*
X83204819Y-112483333D01*
X83204819Y-112483333D02*
X83252438Y-112388095D01*
X83252438Y-112388095D02*
X83300057Y-112340476D01*
X83300057Y-112340476D02*
X83395295Y-112292857D01*
X83395295Y-112292857D02*
X83538152Y-112292857D01*
X83538152Y-112292857D02*
X83633390Y-112340476D01*
X83633390Y-112340476D02*
X83681009Y-112388095D01*
X83681009Y-112388095D02*
X83728628Y-112483333D01*
X83728628Y-112483333D02*
X83728628Y-112864285D01*
X84204819Y-111340476D02*
X84204819Y-111911904D01*
X84204819Y-111626190D02*
X83204819Y-111626190D01*
X83204819Y-111626190D02*
X83347676Y-111721428D01*
X83347676Y-111721428D02*
X83442914Y-111816666D01*
X83442914Y-111816666D02*
X83490533Y-111911904D01*
X84204819Y-110388095D02*
X84204819Y-110959523D01*
X84204819Y-110673809D02*
X83204819Y-110673809D01*
X83204819Y-110673809D02*
X83347676Y-110769047D01*
X83347676Y-110769047D02*
X83442914Y-110864285D01*
X83442914Y-110864285D02*
X83490533Y-110959523D01*
X82884821Y-112332859D02*
X82408630Y-112666192D01*
X82884821Y-112904287D02*
X81884821Y-112904287D01*
X81884821Y-112904287D02*
X81884821Y-112523335D01*
X81884821Y-112523335D02*
X81932440Y-112428097D01*
X81932440Y-112428097D02*
X81980059Y-112380478D01*
X81980059Y-112380478D02*
X82075297Y-112332859D01*
X82075297Y-112332859D02*
X82218154Y-112332859D01*
X82218154Y-112332859D02*
X82313392Y-112380478D01*
X82313392Y-112380478D02*
X82361011Y-112428097D01*
X82361011Y-112428097D02*
X82408630Y-112523335D01*
X82408630Y-112523335D02*
X82408630Y-112904287D01*
X82884821Y-111380478D02*
X82884821Y-111951906D01*
X82884821Y-111666192D02*
X81884821Y-111666192D01*
X81884821Y-111666192D02*
X82027678Y-111761430D01*
X82027678Y-111761430D02*
X82122916Y-111856668D01*
X82122916Y-111856668D02*
X82170535Y-111951906D01*
X81980059Y-110999525D02*
X81932440Y-110951906D01*
X81932440Y-110951906D02*
X81884821Y-110856668D01*
X81884821Y-110856668D02*
X81884821Y-110618573D01*
X81884821Y-110618573D02*
X81932440Y-110523335D01*
X81932440Y-110523335D02*
X81980059Y-110475716D01*
X81980059Y-110475716D02*
X82075297Y-110428097D01*
X82075297Y-110428097D02*
X82170535Y-110428097D01*
X82170535Y-110428097D02*
X82313392Y-110475716D01*
X82313392Y-110475716D02*
X82884821Y-111047144D01*
X82884821Y-111047144D02*
X82884821Y-110428097D01*
X84875006Y-104718210D02*
X84302587Y-104617195D01*
X84470945Y-105122271D02*
X83763839Y-104415164D01*
X83763839Y-104415164D02*
X84033213Y-104145790D01*
X84033213Y-104145790D02*
X84134228Y-104112118D01*
X84134228Y-104112118D02*
X84201571Y-104112118D01*
X84201571Y-104112118D02*
X84302587Y-104145790D01*
X84302587Y-104145790D02*
X84403602Y-104246805D01*
X84403602Y-104246805D02*
X84437274Y-104347821D01*
X84437274Y-104347821D02*
X84437274Y-104415164D01*
X84437274Y-104415164D02*
X84403602Y-104516179D01*
X84403602Y-104516179D02*
X84134228Y-104785553D01*
X84875006Y-103910088D02*
X84773991Y-103943760D01*
X84773991Y-103943760D02*
X84706648Y-103943760D01*
X84706648Y-103943760D02*
X84605632Y-103910088D01*
X84605632Y-103910088D02*
X84571961Y-103876416D01*
X84571961Y-103876416D02*
X84538289Y-103775401D01*
X84538289Y-103775401D02*
X84538289Y-103708057D01*
X84538289Y-103708057D02*
X84571961Y-103607042D01*
X84571961Y-103607042D02*
X84706648Y-103472355D01*
X84706648Y-103472355D02*
X84807663Y-103438683D01*
X84807663Y-103438683D02*
X84875006Y-103438683D01*
X84875006Y-103438683D02*
X84976022Y-103472355D01*
X84976022Y-103472355D02*
X85009693Y-103506027D01*
X85009693Y-103506027D02*
X85043365Y-103607042D01*
X85043365Y-103607042D02*
X85043365Y-103674386D01*
X85043365Y-103674386D02*
X85009693Y-103775401D01*
X85009693Y-103775401D02*
X84875006Y-103910088D01*
X84875006Y-103910088D02*
X84841335Y-104011103D01*
X84841335Y-104011103D02*
X84841335Y-104078447D01*
X84841335Y-104078447D02*
X84875006Y-104179462D01*
X84875006Y-104179462D02*
X85009693Y-104314149D01*
X85009693Y-104314149D02*
X85110709Y-104347821D01*
X85110709Y-104347821D02*
X85178052Y-104347821D01*
X85178052Y-104347821D02*
X85279067Y-104314149D01*
X85279067Y-104314149D02*
X85413754Y-104179462D01*
X85413754Y-104179462D02*
X85447426Y-104078447D01*
X85447426Y-104078447D02*
X85447426Y-104011103D01*
X85447426Y-104011103D02*
X85413754Y-103910088D01*
X85413754Y-103910088D02*
X85279067Y-103775401D01*
X85279067Y-103775401D02*
X85178052Y-103741729D01*
X85178052Y-103741729D02*
X85110709Y-103741729D01*
X85110709Y-103741729D02*
X85009693Y-103775401D01*
X88744819Y-108101665D02*
X88268628Y-108434998D01*
X88744819Y-108673093D02*
X87744819Y-108673093D01*
X87744819Y-108673093D02*
X87744819Y-108292141D01*
X87744819Y-108292141D02*
X87792438Y-108196903D01*
X87792438Y-108196903D02*
X87840057Y-108149284D01*
X87840057Y-108149284D02*
X87935295Y-108101665D01*
X87935295Y-108101665D02*
X88078152Y-108101665D01*
X88078152Y-108101665D02*
X88173390Y-108149284D01*
X88173390Y-108149284D02*
X88221009Y-108196903D01*
X88221009Y-108196903D02*
X88268628Y-108292141D01*
X88268628Y-108292141D02*
X88268628Y-108673093D01*
X87744819Y-107196903D02*
X87744819Y-107673093D01*
X87744819Y-107673093D02*
X88221009Y-107720712D01*
X88221009Y-107720712D02*
X88173390Y-107673093D01*
X88173390Y-107673093D02*
X88125771Y-107577855D01*
X88125771Y-107577855D02*
X88125771Y-107339760D01*
X88125771Y-107339760D02*
X88173390Y-107244522D01*
X88173390Y-107244522D02*
X88221009Y-107196903D01*
X88221009Y-107196903D02*
X88316247Y-107149284D01*
X88316247Y-107149284D02*
X88554342Y-107149284D01*
X88554342Y-107149284D02*
X88649580Y-107196903D01*
X88649580Y-107196903D02*
X88697200Y-107244522D01*
X88697200Y-107244522D02*
X88744819Y-107339760D01*
X88744819Y-107339760D02*
X88744819Y-107577855D01*
X88744819Y-107577855D02*
X88697200Y-107673093D01*
X88697200Y-107673093D02*
X88649580Y-107720712D01*
X83917036Y-103376174D02*
X83344617Y-103275159D01*
X83512975Y-103780235D02*
X82805869Y-103073128D01*
X82805869Y-103073128D02*
X83075243Y-102803754D01*
X83075243Y-102803754D02*
X83176258Y-102770082D01*
X83176258Y-102770082D02*
X83243601Y-102770082D01*
X83243601Y-102770082D02*
X83344617Y-102803754D01*
X83344617Y-102803754D02*
X83445632Y-102904769D01*
X83445632Y-102904769D02*
X83479304Y-103005785D01*
X83479304Y-103005785D02*
X83479304Y-103073128D01*
X83479304Y-103073128D02*
X83445632Y-103174143D01*
X83445632Y-103174143D02*
X83176258Y-103443517D01*
X84590471Y-102702739D02*
X84186410Y-103106800D01*
X84388441Y-102904769D02*
X83681334Y-102197663D01*
X83681334Y-102197663D02*
X83715006Y-102366021D01*
X83715006Y-102366021D02*
X83715006Y-102500708D01*
X83715006Y-102500708D02*
X83681334Y-102601724D01*
X84119067Y-101759930D02*
X84556800Y-101322197D01*
X84556800Y-101322197D02*
X84590472Y-101827273D01*
X84590472Y-101827273D02*
X84691487Y-101726258D01*
X84691487Y-101726258D02*
X84792502Y-101692586D01*
X84792502Y-101692586D02*
X84859846Y-101692586D01*
X84859846Y-101692586D02*
X84960861Y-101726258D01*
X84960861Y-101726258D02*
X85129220Y-101894617D01*
X85129220Y-101894617D02*
X85162891Y-101995632D01*
X85162891Y-101995632D02*
X85162891Y-102062975D01*
X85162891Y-102062975D02*
X85129220Y-102163991D01*
X85129220Y-102163991D02*
X84927189Y-102366021D01*
X84927189Y-102366021D02*
X84826174Y-102399693D01*
X84826174Y-102399693D02*
X84758830Y-102399693D01*
X127683333Y-134754819D02*
X127350000Y-134278628D01*
X127111905Y-134754819D02*
X127111905Y-133754819D01*
X127111905Y-133754819D02*
X127492857Y-133754819D01*
X127492857Y-133754819D02*
X127588095Y-133802438D01*
X127588095Y-133802438D02*
X127635714Y-133850057D01*
X127635714Y-133850057D02*
X127683333Y-133945295D01*
X127683333Y-133945295D02*
X127683333Y-134088152D01*
X127683333Y-134088152D02*
X127635714Y-134183390D01*
X127635714Y-134183390D02*
X127588095Y-134231009D01*
X127588095Y-134231009D02*
X127492857Y-134278628D01*
X127492857Y-134278628D02*
X127111905Y-134278628D01*
X128064286Y-133850057D02*
X128111905Y-133802438D01*
X128111905Y-133802438D02*
X128207143Y-133754819D01*
X128207143Y-133754819D02*
X128445238Y-133754819D01*
X128445238Y-133754819D02*
X128540476Y-133802438D01*
X128540476Y-133802438D02*
X128588095Y-133850057D01*
X128588095Y-133850057D02*
X128635714Y-133945295D01*
X128635714Y-133945295D02*
X128635714Y-134040533D01*
X128635714Y-134040533D02*
X128588095Y-134183390D01*
X128588095Y-134183390D02*
X128016667Y-134754819D01*
X128016667Y-134754819D02*
X128635714Y-134754819D01*
X97723809Y-114678628D02*
X97723809Y-115154819D01*
X97390476Y-114154819D02*
X97723809Y-114678628D01*
X97723809Y-114678628D02*
X98057142Y-114154819D01*
X98342857Y-114250057D02*
X98390476Y-114202438D01*
X98390476Y-114202438D02*
X98485714Y-114154819D01*
X98485714Y-114154819D02*
X98723809Y-114154819D01*
X98723809Y-114154819D02*
X98819047Y-114202438D01*
X98819047Y-114202438D02*
X98866666Y-114250057D01*
X98866666Y-114250057D02*
X98914285Y-114345295D01*
X98914285Y-114345295D02*
X98914285Y-114440533D01*
X98914285Y-114440533D02*
X98866666Y-114583390D01*
X98866666Y-114583390D02*
X98295238Y-115154819D01*
X98295238Y-115154819D02*
X98914285Y-115154819D01*
X100183333Y-115209580D02*
X100135714Y-115257200D01*
X100135714Y-115257200D02*
X99992857Y-115304819D01*
X99992857Y-115304819D02*
X99897619Y-115304819D01*
X99897619Y-115304819D02*
X99754762Y-115257200D01*
X99754762Y-115257200D02*
X99659524Y-115161961D01*
X99659524Y-115161961D02*
X99611905Y-115066723D01*
X99611905Y-115066723D02*
X99564286Y-114876247D01*
X99564286Y-114876247D02*
X99564286Y-114733390D01*
X99564286Y-114733390D02*
X99611905Y-114542914D01*
X99611905Y-114542914D02*
X99659524Y-114447676D01*
X99659524Y-114447676D02*
X99754762Y-114352438D01*
X99754762Y-114352438D02*
X99897619Y-114304819D01*
X99897619Y-114304819D02*
X99992857Y-114304819D01*
X99992857Y-114304819D02*
X100135714Y-114352438D01*
X100135714Y-114352438D02*
X100183333Y-114400057D01*
X100516667Y-114304819D02*
X101183333Y-114304819D01*
X101183333Y-114304819D02*
X100754762Y-115304819D01*
X127483333Y-133404819D02*
X127150000Y-132928628D01*
X126911905Y-133404819D02*
X126911905Y-132404819D01*
X126911905Y-132404819D02*
X127292857Y-132404819D01*
X127292857Y-132404819D02*
X127388095Y-132452438D01*
X127388095Y-132452438D02*
X127435714Y-132500057D01*
X127435714Y-132500057D02*
X127483333Y-132595295D01*
X127483333Y-132595295D02*
X127483333Y-132738152D01*
X127483333Y-132738152D02*
X127435714Y-132833390D01*
X127435714Y-132833390D02*
X127388095Y-132881009D01*
X127388095Y-132881009D02*
X127292857Y-132928628D01*
X127292857Y-132928628D02*
X126911905Y-132928628D01*
X128435714Y-133404819D02*
X127864286Y-133404819D01*
X128150000Y-133404819D02*
X128150000Y-132404819D01*
X128150000Y-132404819D02*
X128054762Y-132547676D01*
X128054762Y-132547676D02*
X127959524Y-132642914D01*
X127959524Y-132642914D02*
X127864286Y-132690533D01*
X107757142Y-112759580D02*
X107709523Y-112807200D01*
X107709523Y-112807200D02*
X107566666Y-112854819D01*
X107566666Y-112854819D02*
X107471428Y-112854819D01*
X107471428Y-112854819D02*
X107328571Y-112807200D01*
X107328571Y-112807200D02*
X107233333Y-112711961D01*
X107233333Y-112711961D02*
X107185714Y-112616723D01*
X107185714Y-112616723D02*
X107138095Y-112426247D01*
X107138095Y-112426247D02*
X107138095Y-112283390D01*
X107138095Y-112283390D02*
X107185714Y-112092914D01*
X107185714Y-112092914D02*
X107233333Y-111997676D01*
X107233333Y-111997676D02*
X107328571Y-111902438D01*
X107328571Y-111902438D02*
X107471428Y-111854819D01*
X107471428Y-111854819D02*
X107566666Y-111854819D01*
X107566666Y-111854819D02*
X107709523Y-111902438D01*
X107709523Y-111902438D02*
X107757142Y-111950057D01*
X108709523Y-112854819D02*
X108138095Y-112854819D01*
X108423809Y-112854819D02*
X108423809Y-111854819D01*
X108423809Y-111854819D02*
X108328571Y-111997676D01*
X108328571Y-111997676D02*
X108233333Y-112092914D01*
X108233333Y-112092914D02*
X108138095Y-112140533D01*
X109042857Y-111854819D02*
X109661904Y-111854819D01*
X109661904Y-111854819D02*
X109328571Y-112235771D01*
X109328571Y-112235771D02*
X109471428Y-112235771D01*
X109471428Y-112235771D02*
X109566666Y-112283390D01*
X109566666Y-112283390D02*
X109614285Y-112331009D01*
X109614285Y-112331009D02*
X109661904Y-112426247D01*
X109661904Y-112426247D02*
X109661904Y-112664342D01*
X109661904Y-112664342D02*
X109614285Y-112759580D01*
X109614285Y-112759580D02*
X109566666Y-112807200D01*
X109566666Y-112807200D02*
X109471428Y-112854819D01*
X109471428Y-112854819D02*
X109185714Y-112854819D01*
X109185714Y-112854819D02*
X109090476Y-112807200D01*
X109090476Y-112807200D02*
X109042857Y-112759580D01*
X79020943Y-108622272D02*
X78313837Y-107915165D01*
X78313837Y-107915165D02*
X78482195Y-107746806D01*
X78482195Y-107746806D02*
X78616882Y-107679463D01*
X78616882Y-107679463D02*
X78751569Y-107679463D01*
X78751569Y-107679463D02*
X78852585Y-107713135D01*
X78852585Y-107713135D02*
X79020943Y-107814150D01*
X79020943Y-107814150D02*
X79121959Y-107915165D01*
X79121959Y-107915165D02*
X79222974Y-108083524D01*
X79222974Y-108083524D02*
X79256646Y-108184539D01*
X79256646Y-108184539D02*
X79256646Y-108319226D01*
X79256646Y-108319226D02*
X79189302Y-108453913D01*
X79189302Y-108453913D02*
X79020943Y-108622272D01*
X78953600Y-107275402D02*
X79391333Y-106837669D01*
X79391333Y-106837669D02*
X79425004Y-107342745D01*
X79425004Y-107342745D02*
X79526020Y-107241730D01*
X79526020Y-107241730D02*
X79627035Y-107208058D01*
X79627035Y-107208058D02*
X79694378Y-107208058D01*
X79694378Y-107208058D02*
X79795394Y-107241730D01*
X79795394Y-107241730D02*
X79963752Y-107410089D01*
X79963752Y-107410089D02*
X79997424Y-107511104D01*
X79997424Y-107511104D02*
X79997424Y-107578448D01*
X79997424Y-107578448D02*
X79963752Y-107679463D01*
X79963752Y-107679463D02*
X79761722Y-107881493D01*
X79761722Y-107881493D02*
X79660707Y-107915165D01*
X79660707Y-107915165D02*
X79593363Y-107915165D01*
X109383333Y-114504819D02*
X109050000Y-114028628D01*
X108811905Y-114504819D02*
X108811905Y-113504819D01*
X108811905Y-113504819D02*
X109192857Y-113504819D01*
X109192857Y-113504819D02*
X109288095Y-113552438D01*
X109288095Y-113552438D02*
X109335714Y-113600057D01*
X109335714Y-113600057D02*
X109383333Y-113695295D01*
X109383333Y-113695295D02*
X109383333Y-113838152D01*
X109383333Y-113838152D02*
X109335714Y-113933390D01*
X109335714Y-113933390D02*
X109288095Y-113981009D01*
X109288095Y-113981009D02*
X109192857Y-114028628D01*
X109192857Y-114028628D02*
X108811905Y-114028628D01*
X109716667Y-113504819D02*
X110335714Y-113504819D01*
X110335714Y-113504819D02*
X110002381Y-113885771D01*
X110002381Y-113885771D02*
X110145238Y-113885771D01*
X110145238Y-113885771D02*
X110240476Y-113933390D01*
X110240476Y-113933390D02*
X110288095Y-113981009D01*
X110288095Y-113981009D02*
X110335714Y-114076247D01*
X110335714Y-114076247D02*
X110335714Y-114314342D01*
X110335714Y-114314342D02*
X110288095Y-114409580D01*
X110288095Y-114409580D02*
X110240476Y-114457200D01*
X110240476Y-114457200D02*
X110145238Y-114504819D01*
X110145238Y-114504819D02*
X109859524Y-114504819D01*
X109859524Y-114504819D02*
X109764286Y-114457200D01*
X109764286Y-114457200D02*
X109716667Y-114409580D01*
X102078333Y-114809580D02*
X102030714Y-114857200D01*
X102030714Y-114857200D02*
X101887857Y-114904819D01*
X101887857Y-114904819D02*
X101792619Y-114904819D01*
X101792619Y-114904819D02*
X101649762Y-114857200D01*
X101649762Y-114857200D02*
X101554524Y-114761961D01*
X101554524Y-114761961D02*
X101506905Y-114666723D01*
X101506905Y-114666723D02*
X101459286Y-114476247D01*
X101459286Y-114476247D02*
X101459286Y-114333390D01*
X101459286Y-114333390D02*
X101506905Y-114142914D01*
X101506905Y-114142914D02*
X101554524Y-114047676D01*
X101554524Y-114047676D02*
X101649762Y-113952438D01*
X101649762Y-113952438D02*
X101792619Y-113904819D01*
X101792619Y-113904819D02*
X101887857Y-113904819D01*
X101887857Y-113904819D02*
X102030714Y-113952438D01*
X102030714Y-113952438D02*
X102078333Y-114000057D01*
X102554524Y-114904819D02*
X102745000Y-114904819D01*
X102745000Y-114904819D02*
X102840238Y-114857200D01*
X102840238Y-114857200D02*
X102887857Y-114809580D01*
X102887857Y-114809580D02*
X102983095Y-114666723D01*
X102983095Y-114666723D02*
X103030714Y-114476247D01*
X103030714Y-114476247D02*
X103030714Y-114095295D01*
X103030714Y-114095295D02*
X102983095Y-114000057D01*
X102983095Y-114000057D02*
X102935476Y-113952438D01*
X102935476Y-113952438D02*
X102840238Y-113904819D01*
X102840238Y-113904819D02*
X102649762Y-113904819D01*
X102649762Y-113904819D02*
X102554524Y-113952438D01*
X102554524Y-113952438D02*
X102506905Y-114000057D01*
X102506905Y-114000057D02*
X102459286Y-114095295D01*
X102459286Y-114095295D02*
X102459286Y-114333390D01*
X102459286Y-114333390D02*
X102506905Y-114428628D01*
X102506905Y-114428628D02*
X102554524Y-114476247D01*
X102554524Y-114476247D02*
X102649762Y-114523866D01*
X102649762Y-114523866D02*
X102840238Y-114523866D01*
X102840238Y-114523866D02*
X102935476Y-114476247D01*
X102935476Y-114476247D02*
X102983095Y-114428628D01*
X102983095Y-114428628D02*
X103030714Y-114333390D01*
X80070941Y-109572276D02*
X79363835Y-108865169D01*
X79363835Y-108865169D02*
X79532193Y-108696810D01*
X79532193Y-108696810D02*
X79666880Y-108629467D01*
X79666880Y-108629467D02*
X79801567Y-108629467D01*
X79801567Y-108629467D02*
X79902583Y-108663139D01*
X79902583Y-108663139D02*
X80070941Y-108764154D01*
X80070941Y-108764154D02*
X80171957Y-108865169D01*
X80171957Y-108865169D02*
X80272972Y-109033528D01*
X80272972Y-109033528D02*
X80306644Y-109134543D01*
X80306644Y-109134543D02*
X80306644Y-109269230D01*
X80306644Y-109269230D02*
X80239300Y-109403917D01*
X80239300Y-109403917D02*
X80070941Y-109572276D01*
X80104613Y-108259078D02*
X80104613Y-108191734D01*
X80104613Y-108191734D02*
X80138285Y-108090719D01*
X80138285Y-108090719D02*
X80306644Y-107922360D01*
X80306644Y-107922360D02*
X80407659Y-107888688D01*
X80407659Y-107888688D02*
X80475002Y-107888688D01*
X80475002Y-107888688D02*
X80576018Y-107922360D01*
X80576018Y-107922360D02*
X80643361Y-107989704D01*
X80643361Y-107989704D02*
X80710705Y-108124391D01*
X80710705Y-108124391D02*
X80710705Y-108932513D01*
X80710705Y-108932513D02*
X81148437Y-108494780D01*
X101619642Y-129725830D02*
X101572023Y-129773450D01*
X101572023Y-129773450D02*
X101429166Y-129821069D01*
X101429166Y-129821069D02*
X101333928Y-129821069D01*
X101333928Y-129821069D02*
X101191071Y-129773450D01*
X101191071Y-129773450D02*
X101095833Y-129678211D01*
X101095833Y-129678211D02*
X101048214Y-129582973D01*
X101048214Y-129582973D02*
X101000595Y-129392497D01*
X101000595Y-129392497D02*
X101000595Y-129249640D01*
X101000595Y-129249640D02*
X101048214Y-129059164D01*
X101048214Y-129059164D02*
X101095833Y-128963926D01*
X101095833Y-128963926D02*
X101191071Y-128868688D01*
X101191071Y-128868688D02*
X101333928Y-128821069D01*
X101333928Y-128821069D02*
X101429166Y-128821069D01*
X101429166Y-128821069D02*
X101572023Y-128868688D01*
X101572023Y-128868688D02*
X101619642Y-128916307D01*
X102572023Y-129821069D02*
X102000595Y-129821069D01*
X102286309Y-129821069D02*
X102286309Y-128821069D01*
X102286309Y-128821069D02*
X102191071Y-128963926D01*
X102191071Y-128963926D02*
X102095833Y-129059164D01*
X102095833Y-129059164D02*
X102000595Y-129106783D01*
X103191071Y-128821069D02*
X103286309Y-128821069D01*
X103286309Y-128821069D02*
X103381547Y-128868688D01*
X103381547Y-128868688D02*
X103429166Y-128916307D01*
X103429166Y-128916307D02*
X103476785Y-129011545D01*
X103476785Y-129011545D02*
X103524404Y-129202021D01*
X103524404Y-129202021D02*
X103524404Y-129440116D01*
X103524404Y-129440116D02*
X103476785Y-129630592D01*
X103476785Y-129630592D02*
X103429166Y-129725830D01*
X103429166Y-129725830D02*
X103381547Y-129773450D01*
X103381547Y-129773450D02*
X103286309Y-129821069D01*
X103286309Y-129821069D02*
X103191071Y-129821069D01*
X103191071Y-129821069D02*
X103095833Y-129773450D01*
X103095833Y-129773450D02*
X103048214Y-129725830D01*
X103048214Y-129725830D02*
X103000595Y-129630592D01*
X103000595Y-129630592D02*
X102952976Y-129440116D01*
X102952976Y-129440116D02*
X102952976Y-129202021D01*
X102952976Y-129202021D02*
X103000595Y-129011545D01*
X103000595Y-129011545D02*
X103048214Y-128916307D01*
X103048214Y-128916307D02*
X103095833Y-128868688D01*
X103095833Y-128868688D02*
X103191071Y-128821069D01*
X103958333Y-114019580D02*
X103910714Y-114067200D01*
X103910714Y-114067200D02*
X103767857Y-114114819D01*
X103767857Y-114114819D02*
X103672619Y-114114819D01*
X103672619Y-114114819D02*
X103529762Y-114067200D01*
X103529762Y-114067200D02*
X103434524Y-113971961D01*
X103434524Y-113971961D02*
X103386905Y-113876723D01*
X103386905Y-113876723D02*
X103339286Y-113686247D01*
X103339286Y-113686247D02*
X103339286Y-113543390D01*
X103339286Y-113543390D02*
X103386905Y-113352914D01*
X103386905Y-113352914D02*
X103434524Y-113257676D01*
X103434524Y-113257676D02*
X103529762Y-113162438D01*
X103529762Y-113162438D02*
X103672619Y-113114819D01*
X103672619Y-113114819D02*
X103767857Y-113114819D01*
X103767857Y-113114819D02*
X103910714Y-113162438D01*
X103910714Y-113162438D02*
X103958333Y-113210057D01*
X104815476Y-113114819D02*
X104625000Y-113114819D01*
X104625000Y-113114819D02*
X104529762Y-113162438D01*
X104529762Y-113162438D02*
X104482143Y-113210057D01*
X104482143Y-113210057D02*
X104386905Y-113352914D01*
X104386905Y-113352914D02*
X104339286Y-113543390D01*
X104339286Y-113543390D02*
X104339286Y-113924342D01*
X104339286Y-113924342D02*
X104386905Y-114019580D01*
X104386905Y-114019580D02*
X104434524Y-114067200D01*
X104434524Y-114067200D02*
X104529762Y-114114819D01*
X104529762Y-114114819D02*
X104720238Y-114114819D01*
X104720238Y-114114819D02*
X104815476Y-114067200D01*
X104815476Y-114067200D02*
X104863095Y-114019580D01*
X104863095Y-114019580D02*
X104910714Y-113924342D01*
X104910714Y-113924342D02*
X104910714Y-113686247D01*
X104910714Y-113686247D02*
X104863095Y-113591009D01*
X104863095Y-113591009D02*
X104815476Y-113543390D01*
X104815476Y-113543390D02*
X104720238Y-113495771D01*
X104720238Y-113495771D02*
X104529762Y-113495771D01*
X104529762Y-113495771D02*
X104434524Y-113543390D01*
X104434524Y-113543390D02*
X104386905Y-113591009D01*
X104386905Y-113591009D02*
X104339286Y-113686247D01*
X94584819Y-113166666D02*
X94108628Y-113499999D01*
X94584819Y-113738094D02*
X93584819Y-113738094D01*
X93584819Y-113738094D02*
X93584819Y-113357142D01*
X93584819Y-113357142D02*
X93632438Y-113261904D01*
X93632438Y-113261904D02*
X93680057Y-113214285D01*
X93680057Y-113214285D02*
X93775295Y-113166666D01*
X93775295Y-113166666D02*
X93918152Y-113166666D01*
X93918152Y-113166666D02*
X94013390Y-113214285D01*
X94013390Y-113214285D02*
X94061009Y-113261904D01*
X94061009Y-113261904D02*
X94108628Y-113357142D01*
X94108628Y-113357142D02*
X94108628Y-113738094D01*
X93584819Y-112833332D02*
X93584819Y-112166666D01*
X93584819Y-112166666D02*
X94584819Y-112595237D01*
X94604819Y-104461904D02*
X95414342Y-104461904D01*
X95414342Y-104461904D02*
X95509580Y-104414285D01*
X95509580Y-104414285D02*
X95557200Y-104366666D01*
X95557200Y-104366666D02*
X95604819Y-104271428D01*
X95604819Y-104271428D02*
X95604819Y-104080952D01*
X95604819Y-104080952D02*
X95557200Y-103985714D01*
X95557200Y-103985714D02*
X95509580Y-103938095D01*
X95509580Y-103938095D02*
X95414342Y-103890476D01*
X95414342Y-103890476D02*
X94604819Y-103890476D01*
X94700057Y-103461904D02*
X94652438Y-103414285D01*
X94652438Y-103414285D02*
X94604819Y-103319047D01*
X94604819Y-103319047D02*
X94604819Y-103080952D01*
X94604819Y-103080952D02*
X94652438Y-102985714D01*
X94652438Y-102985714D02*
X94700057Y-102938095D01*
X94700057Y-102938095D02*
X94795295Y-102890476D01*
X94795295Y-102890476D02*
X94890533Y-102890476D01*
X94890533Y-102890476D02*
X95033390Y-102938095D01*
X95033390Y-102938095D02*
X95604819Y-103509523D01*
X95604819Y-103509523D02*
X95604819Y-102890476D01*
X103983333Y-115309580D02*
X103935714Y-115357200D01*
X103935714Y-115357200D02*
X103792857Y-115404819D01*
X103792857Y-115404819D02*
X103697619Y-115404819D01*
X103697619Y-115404819D02*
X103554762Y-115357200D01*
X103554762Y-115357200D02*
X103459524Y-115261961D01*
X103459524Y-115261961D02*
X103411905Y-115166723D01*
X103411905Y-115166723D02*
X103364286Y-114976247D01*
X103364286Y-114976247D02*
X103364286Y-114833390D01*
X103364286Y-114833390D02*
X103411905Y-114642914D01*
X103411905Y-114642914D02*
X103459524Y-114547676D01*
X103459524Y-114547676D02*
X103554762Y-114452438D01*
X103554762Y-114452438D02*
X103697619Y-114404819D01*
X103697619Y-114404819D02*
X103792857Y-114404819D01*
X103792857Y-114404819D02*
X103935714Y-114452438D01*
X103935714Y-114452438D02*
X103983333Y-114500057D01*
X104840476Y-114738152D02*
X104840476Y-115404819D01*
X104602381Y-114357200D02*
X104364286Y-115071485D01*
X104364286Y-115071485D02*
X104983333Y-115071485D01*
X108007142Y-108304819D02*
X107673809Y-107828628D01*
X107435714Y-108304819D02*
X107435714Y-107304819D01*
X107435714Y-107304819D02*
X107816666Y-107304819D01*
X107816666Y-107304819D02*
X107911904Y-107352438D01*
X107911904Y-107352438D02*
X107959523Y-107400057D01*
X107959523Y-107400057D02*
X108007142Y-107495295D01*
X108007142Y-107495295D02*
X108007142Y-107638152D01*
X108007142Y-107638152D02*
X107959523Y-107733390D01*
X107959523Y-107733390D02*
X107911904Y-107781009D01*
X107911904Y-107781009D02*
X107816666Y-107828628D01*
X107816666Y-107828628D02*
X107435714Y-107828628D01*
X108959523Y-108304819D02*
X108388095Y-108304819D01*
X108673809Y-108304819D02*
X108673809Y-107304819D01*
X108673809Y-107304819D02*
X108578571Y-107447676D01*
X108578571Y-107447676D02*
X108483333Y-107542914D01*
X108483333Y-107542914D02*
X108388095Y-107590533D01*
X109578571Y-107304819D02*
X109673809Y-107304819D01*
X109673809Y-107304819D02*
X109769047Y-107352438D01*
X109769047Y-107352438D02*
X109816666Y-107400057D01*
X109816666Y-107400057D02*
X109864285Y-107495295D01*
X109864285Y-107495295D02*
X109911904Y-107685771D01*
X109911904Y-107685771D02*
X109911904Y-107923866D01*
X109911904Y-107923866D02*
X109864285Y-108114342D01*
X109864285Y-108114342D02*
X109816666Y-108209580D01*
X109816666Y-108209580D02*
X109769047Y-108257200D01*
X109769047Y-108257200D02*
X109673809Y-108304819D01*
X109673809Y-108304819D02*
X109578571Y-108304819D01*
X109578571Y-108304819D02*
X109483333Y-108257200D01*
X109483333Y-108257200D02*
X109435714Y-108209580D01*
X109435714Y-108209580D02*
X109388095Y-108114342D01*
X109388095Y-108114342D02*
X109340476Y-107923866D01*
X109340476Y-107923866D02*
X109340476Y-107685771D01*
X109340476Y-107685771D02*
X109388095Y-107495295D01*
X109388095Y-107495295D02*
X109435714Y-107400057D01*
X109435714Y-107400057D02*
X109483333Y-107352438D01*
X109483333Y-107352438D02*
X109578571Y-107304819D01*
X95733333Y-115109580D02*
X95685714Y-115157200D01*
X95685714Y-115157200D02*
X95542857Y-115204819D01*
X95542857Y-115204819D02*
X95447619Y-115204819D01*
X95447619Y-115204819D02*
X95304762Y-115157200D01*
X95304762Y-115157200D02*
X95209524Y-115061961D01*
X95209524Y-115061961D02*
X95161905Y-114966723D01*
X95161905Y-114966723D02*
X95114286Y-114776247D01*
X95114286Y-114776247D02*
X95114286Y-114633390D01*
X95114286Y-114633390D02*
X95161905Y-114442914D01*
X95161905Y-114442914D02*
X95209524Y-114347676D01*
X95209524Y-114347676D02*
X95304762Y-114252438D01*
X95304762Y-114252438D02*
X95447619Y-114204819D01*
X95447619Y-114204819D02*
X95542857Y-114204819D01*
X95542857Y-114204819D02*
X95685714Y-114252438D01*
X95685714Y-114252438D02*
X95733333Y-114300057D01*
X96304762Y-114633390D02*
X96209524Y-114585771D01*
X96209524Y-114585771D02*
X96161905Y-114538152D01*
X96161905Y-114538152D02*
X96114286Y-114442914D01*
X96114286Y-114442914D02*
X96114286Y-114395295D01*
X96114286Y-114395295D02*
X96161905Y-114300057D01*
X96161905Y-114300057D02*
X96209524Y-114252438D01*
X96209524Y-114252438D02*
X96304762Y-114204819D01*
X96304762Y-114204819D02*
X96495238Y-114204819D01*
X96495238Y-114204819D02*
X96590476Y-114252438D01*
X96590476Y-114252438D02*
X96638095Y-114300057D01*
X96638095Y-114300057D02*
X96685714Y-114395295D01*
X96685714Y-114395295D02*
X96685714Y-114442914D01*
X96685714Y-114442914D02*
X96638095Y-114538152D01*
X96638095Y-114538152D02*
X96590476Y-114585771D01*
X96590476Y-114585771D02*
X96495238Y-114633390D01*
X96495238Y-114633390D02*
X96304762Y-114633390D01*
X96304762Y-114633390D02*
X96209524Y-114681009D01*
X96209524Y-114681009D02*
X96161905Y-114728628D01*
X96161905Y-114728628D02*
X96114286Y-114823866D01*
X96114286Y-114823866D02*
X96114286Y-115014342D01*
X96114286Y-115014342D02*
X96161905Y-115109580D01*
X96161905Y-115109580D02*
X96209524Y-115157200D01*
X96209524Y-115157200D02*
X96304762Y-115204819D01*
X96304762Y-115204819D02*
X96495238Y-115204819D01*
X96495238Y-115204819D02*
X96590476Y-115157200D01*
X96590476Y-115157200D02*
X96638095Y-115109580D01*
X96638095Y-115109580D02*
X96685714Y-115014342D01*
X96685714Y-115014342D02*
X96685714Y-114823866D01*
X96685714Y-114823866D02*
X96638095Y-114728628D01*
X96638095Y-114728628D02*
X96590476Y-114681009D01*
X96590476Y-114681009D02*
X96495238Y-114633390D01*
X95454818Y-108916666D02*
X94978627Y-109249999D01*
X95454818Y-109488094D02*
X94454818Y-109488094D01*
X94454818Y-109488094D02*
X94454818Y-109107142D01*
X94454818Y-109107142D02*
X94502437Y-109011904D01*
X94502437Y-109011904D02*
X94550056Y-108964285D01*
X94550056Y-108964285D02*
X94645294Y-108916666D01*
X94645294Y-108916666D02*
X94788151Y-108916666D01*
X94788151Y-108916666D02*
X94883389Y-108964285D01*
X94883389Y-108964285D02*
X94931008Y-109011904D01*
X94931008Y-109011904D02*
X94978627Y-109107142D01*
X94978627Y-109107142D02*
X94978627Y-109488094D01*
X94454818Y-108059523D02*
X94454818Y-108249999D01*
X94454818Y-108249999D02*
X94502437Y-108345237D01*
X94502437Y-108345237D02*
X94550056Y-108392856D01*
X94550056Y-108392856D02*
X94692913Y-108488094D01*
X94692913Y-108488094D02*
X94883389Y-108535713D01*
X94883389Y-108535713D02*
X95264341Y-108535713D01*
X95264341Y-108535713D02*
X95359579Y-108488094D01*
X95359579Y-108488094D02*
X95407199Y-108440475D01*
X95407199Y-108440475D02*
X95454818Y-108345237D01*
X95454818Y-108345237D02*
X95454818Y-108154761D01*
X95454818Y-108154761D02*
X95407199Y-108059523D01*
X95407199Y-108059523D02*
X95359579Y-108011904D01*
X95359579Y-108011904D02*
X95264341Y-107964285D01*
X95264341Y-107964285D02*
X95026246Y-107964285D01*
X95026246Y-107964285D02*
X94931008Y-108011904D01*
X94931008Y-108011904D02*
X94883389Y-108059523D01*
X94883389Y-108059523D02*
X94835770Y-108154761D01*
X94835770Y-108154761D02*
X94835770Y-108345237D01*
X94835770Y-108345237D02*
X94883389Y-108440475D01*
X94883389Y-108440475D02*
X94931008Y-108488094D01*
X94931008Y-108488094D02*
X95026246Y-108535713D01*
X76924819Y-115952857D02*
X76448628Y-116286190D01*
X76924819Y-116524285D02*
X75924819Y-116524285D01*
X75924819Y-116524285D02*
X75924819Y-116143333D01*
X75924819Y-116143333D02*
X75972438Y-116048095D01*
X75972438Y-116048095D02*
X76020057Y-116000476D01*
X76020057Y-116000476D02*
X76115295Y-115952857D01*
X76115295Y-115952857D02*
X76258152Y-115952857D01*
X76258152Y-115952857D02*
X76353390Y-116000476D01*
X76353390Y-116000476D02*
X76401009Y-116048095D01*
X76401009Y-116048095D02*
X76448628Y-116143333D01*
X76448628Y-116143333D02*
X76448628Y-116524285D01*
X76924819Y-115000476D02*
X76924819Y-115571904D01*
X76924819Y-115286190D02*
X75924819Y-115286190D01*
X75924819Y-115286190D02*
X76067676Y-115381428D01*
X76067676Y-115381428D02*
X76162914Y-115476666D01*
X76162914Y-115476666D02*
X76210533Y-115571904D01*
X76258152Y-114143333D02*
X76924819Y-114143333D01*
X75877200Y-114381428D02*
X76591485Y-114619523D01*
X76591485Y-114619523D02*
X76591485Y-114000476D01*
X107733333Y-111624819D02*
X107400000Y-111148628D01*
X107161905Y-111624819D02*
X107161905Y-110624819D01*
X107161905Y-110624819D02*
X107542857Y-110624819D01*
X107542857Y-110624819D02*
X107638095Y-110672438D01*
X107638095Y-110672438D02*
X107685714Y-110720057D01*
X107685714Y-110720057D02*
X107733333Y-110815295D01*
X107733333Y-110815295D02*
X107733333Y-110958152D01*
X107733333Y-110958152D02*
X107685714Y-111053390D01*
X107685714Y-111053390D02*
X107638095Y-111101009D01*
X107638095Y-111101009D02*
X107542857Y-111148628D01*
X107542857Y-111148628D02*
X107161905Y-111148628D01*
X108209524Y-111624819D02*
X108400000Y-111624819D01*
X108400000Y-111624819D02*
X108495238Y-111577200D01*
X108495238Y-111577200D02*
X108542857Y-111529580D01*
X108542857Y-111529580D02*
X108638095Y-111386723D01*
X108638095Y-111386723D02*
X108685714Y-111196247D01*
X108685714Y-111196247D02*
X108685714Y-110815295D01*
X108685714Y-110815295D02*
X108638095Y-110720057D01*
X108638095Y-110720057D02*
X108590476Y-110672438D01*
X108590476Y-110672438D02*
X108495238Y-110624819D01*
X108495238Y-110624819D02*
X108304762Y-110624819D01*
X108304762Y-110624819D02*
X108209524Y-110672438D01*
X108209524Y-110672438D02*
X108161905Y-110720057D01*
X108161905Y-110720057D02*
X108114286Y-110815295D01*
X108114286Y-110815295D02*
X108114286Y-111053390D01*
X108114286Y-111053390D02*
X108161905Y-111148628D01*
X108161905Y-111148628D02*
X108209524Y-111196247D01*
X108209524Y-111196247D02*
X108304762Y-111243866D01*
X108304762Y-111243866D02*
X108495238Y-111243866D01*
X108495238Y-111243866D02*
X108590476Y-111196247D01*
X108590476Y-111196247D02*
X108638095Y-111148628D01*
X108638095Y-111148628D02*
X108685714Y-111053390D01*
X104538095Y-123811069D02*
X104538095Y-124620592D01*
X104538095Y-124620592D02*
X104585714Y-124715830D01*
X104585714Y-124715830D02*
X104633333Y-124763450D01*
X104633333Y-124763450D02*
X104728571Y-124811069D01*
X104728571Y-124811069D02*
X104919047Y-124811069D01*
X104919047Y-124811069D02*
X105014285Y-124763450D01*
X105014285Y-124763450D02*
X105061904Y-124715830D01*
X105061904Y-124715830D02*
X105109523Y-124620592D01*
X105109523Y-124620592D02*
X105109523Y-123811069D01*
X106061904Y-123811069D02*
X105585714Y-123811069D01*
X105585714Y-123811069D02*
X105538095Y-124287259D01*
X105538095Y-124287259D02*
X105585714Y-124239640D01*
X105585714Y-124239640D02*
X105680952Y-124192021D01*
X105680952Y-124192021D02*
X105919047Y-124192021D01*
X105919047Y-124192021D02*
X106014285Y-124239640D01*
X106014285Y-124239640D02*
X106061904Y-124287259D01*
X106061904Y-124287259D02*
X106109523Y-124382497D01*
X106109523Y-124382497D02*
X106109523Y-124620592D01*
X106109523Y-124620592D02*
X106061904Y-124715830D01*
X106061904Y-124715830D02*
X106014285Y-124763450D01*
X106014285Y-124763450D02*
X105919047Y-124811069D01*
X105919047Y-124811069D02*
X105680952Y-124811069D01*
X105680952Y-124811069D02*
X105585714Y-124763450D01*
X105585714Y-124763450D02*
X105538095Y-124715830D01*
D12*
%TO.C,J3*%
X88960000Y-102435000D02*
X88325000Y-102435000D01*
X88325000Y-102435000D02*
X88325000Y-101800000D01*
%TO.C,SW1*%
X107150000Y-100650000D02*
X108150000Y-100650000D01*
X107150000Y-101650000D02*
X107150000Y-100650000D01*
X107450000Y-100950000D02*
X108300000Y-100950000D01*
X107450000Y-104650000D02*
X107450000Y-100950000D01*
X108330000Y-104650000D02*
X107450000Y-104650000D01*
X110300000Y-100950000D02*
X110830000Y-100950000D01*
X110830000Y-104650000D02*
X110270000Y-104650000D01*
X112770000Y-100950000D02*
X113330000Y-100950000D01*
X113320000Y-104650000D02*
X112770000Y-104650000D01*
X115270000Y-100950000D02*
X116150000Y-100950000D01*
X116150000Y-100950000D02*
X116150000Y-104650000D01*
X116150000Y-104650000D02*
X115280000Y-104650000D01*
%TO.C,SW2*%
X73714999Y-126210001D02*
X74150002Y-126210000D01*
X75749999Y-126210000D02*
X78150000Y-126210000D01*
X79750000Y-126210001D02*
X80185000Y-126209999D01*
X80185000Y-126209999D02*
X80185001Y-119789999D01*
X73715000Y-119790001D02*
X73714999Y-126210001D01*
X74150000Y-119789999D02*
X73715000Y-119790001D01*
X78150001Y-119790000D02*
X75750000Y-119790000D01*
X80185001Y-119789999D02*
X79880000Y-119790000D01*
%TO.C,C2*%
X118035000Y-114477838D02*
X118034998Y-114262166D01*
X117315002Y-114477834D02*
X117315000Y-114262162D01*
%TO.C,C11*%
X111935000Y-114357838D02*
X111934998Y-114142166D01*
X111215002Y-114357834D02*
X111215000Y-114142162D01*
%TO.C,U4*%
X115702500Y-115740000D02*
X115222499Y-115740001D01*
X115462500Y-115409998D01*
X115702500Y-115740000D01*
G36*
X115702500Y-115740000D02*
G01*
X115222499Y-115740001D01*
X115462500Y-115409998D01*
X115702500Y-115740000D01*
G37*
X114162500Y-115460000D02*
X114962500Y-115460000D01*
X114162500Y-115460000D02*
X113362500Y-115460000D01*
X114162500Y-112340000D02*
X114962500Y-112340000D01*
X114162500Y-112340000D02*
X113362500Y-112340000D01*
%TO.C,C3*%
X117035000Y-114487839D02*
X117034998Y-114272167D01*
X116315002Y-114487835D02*
X116315000Y-114272163D01*
%TO.C,C5*%
X125446919Y-110133396D02*
X125554752Y-109946617D01*
X124823386Y-109773395D02*
X124931219Y-109586616D01*
D13*
%TO.C,U1*%
X125610056Y-111497307D02*
G75*
G02*
X125410056Y-111497307I-100000J0D01*
G01*
X125410056Y-111497307D02*
G75*
G02*
X125610056Y-111497307I100000J0D01*
G01*
D12*
%TO.C,R16*%
X128127338Y-116510060D02*
X127910059Y-116727339D01*
X127589941Y-115972661D02*
X127372662Y-116189940D01*
%TO.C,C1*%
X127511105Y-112720217D02*
X127358600Y-112567716D01*
X128020222Y-112211106D02*
X127867717Y-112058605D01*
%TO.C,R15*%
X127427338Y-115810060D02*
X127210059Y-116027339D01*
X126889941Y-115272661D02*
X126672662Y-115489940D01*
%TO.C,U3*%
X122840006Y-118123128D02*
X122510001Y-118363126D01*
X122510001Y-117883125D01*
X122840006Y-118123128D01*
G36*
X122840006Y-118123128D02*
G01*
X122510001Y-118363126D01*
X122510001Y-117883125D01*
X122840006Y-118123128D01*
G37*
X125910002Y-116823126D02*
X125910001Y-117623126D01*
X125910002Y-116823126D02*
X125910001Y-116023126D01*
X122790000Y-116823126D02*
X122790001Y-117623126D01*
X122790000Y-116823126D02*
X122790001Y-116023126D01*
%TO.C,R4*%
X90929998Y-107771360D02*
X90929998Y-108078638D01*
X90170002Y-107771360D02*
X90170002Y-108078638D01*
%TO.C,J5*%
X92860003Y-113040000D02*
X92860003Y-110539998D01*
X92860003Y-110539998D02*
X91810000Y-110539999D01*
X86810000Y-115009999D02*
X91690000Y-115009999D01*
X86690001Y-110540000D02*
X86689999Y-109549999D01*
X85640001Y-110539997D02*
X86690001Y-110540000D01*
X85639996Y-113040002D02*
X85640001Y-110539997D01*
%TO.C,R11*%
X83880000Y-114303640D02*
X83879999Y-113996359D01*
X83120001Y-114303641D02*
X83120000Y-113996360D01*
%TO.C,R12*%
X82880000Y-113996360D02*
X82879999Y-114303641D01*
X82120001Y-113996359D02*
X82120000Y-114303640D01*
%TO.C,R8*%
X83481311Y-106156093D02*
X83698591Y-105938814D01*
X82943913Y-105618694D02*
X83161193Y-105401415D01*
%TO.C,R5*%
X89929998Y-107771360D02*
X89929998Y-108078638D01*
X89170002Y-107771360D02*
X89170002Y-108078638D01*
%TO.C,R13*%
X82183286Y-104779316D02*
X82400566Y-104562037D01*
X82720684Y-105316715D02*
X82937964Y-105099436D01*
%TO.C,R2*%
X125536360Y-134679997D02*
X125843639Y-134679998D01*
X125536361Y-133920000D02*
X125843640Y-133920001D01*
%TO.C,Y2*%
X96989998Y-113910001D02*
X99510000Y-113909999D01*
X96990000Y-112190001D02*
X96989998Y-113910001D01*
X99510002Y-112189999D02*
X96990000Y-112190001D01*
%TO.C,C7*%
X99890000Y-112862162D02*
X99890002Y-113077834D01*
X100609998Y-112862166D02*
X100610000Y-113077838D01*
%TO.C,J2*%
X120284999Y-111409997D02*
X122784998Y-111409998D01*
X118315001Y-107359999D02*
X118315000Y-110239998D01*
X122784998Y-111409998D02*
X122785000Y-110359999D01*
X120284999Y-106189999D02*
X122784998Y-106190000D01*
X122785000Y-107239999D02*
X123774997Y-107240000D01*
X122784998Y-106190000D02*
X122785000Y-107239999D01*
%TO.C,J4*%
X98990000Y-119816250D02*
X98990000Y-122316250D01*
X98990000Y-122316250D02*
X100040000Y-122316250D01*
X105040000Y-117846250D02*
X100160000Y-117846250D01*
X105160000Y-122316250D02*
X105160000Y-123306250D01*
X106210000Y-119816250D02*
X106210000Y-122316250D01*
X106210000Y-122316250D02*
X105160000Y-122316250D01*
%TO.C,R1*%
X125446360Y-132820002D02*
X125753639Y-132820001D01*
X125446361Y-133579999D02*
X125753640Y-133579998D01*
%TO.C,C13*%
X105917164Y-112100000D02*
X106132836Y-112100000D01*
X105917164Y-112820000D02*
X106132836Y-112820000D01*
D10*
%TO.C,D3*%
X80443447Y-107156554D02*
G75*
G02*
X80343451Y-107156554I-49998J0D01*
G01*
X80343451Y-107156554D02*
G75*
G02*
X80443447Y-107156554I49998J0D01*
G01*
D12*
%TO.C,R3*%
X107064564Y-114685000D02*
X106610436Y-114685000D01*
X107064564Y-113215000D02*
X106610436Y-113215000D01*
%TO.C,C9*%
X102352836Y-112100000D02*
X102137164Y-112100000D01*
X102352836Y-112820000D02*
X102137164Y-112820000D01*
D10*
%TO.C,D2*%
X81207558Y-107942448D02*
G75*
G02*
X81107562Y-107942448I-49998J0D01*
G01*
X81107562Y-107942448D02*
G75*
G02*
X81207558Y-107942448I49998J0D01*
G01*
D12*
%TO.C,C10*%
X102370336Y-127846250D02*
X102154664Y-127846250D01*
X102370336Y-128566250D02*
X102154664Y-128566250D01*
%TO.C,C6*%
X104017164Y-112100000D02*
X104232836Y-112100000D01*
X104017164Y-112820000D02*
X104232836Y-112820000D01*
%TO.C,J1*%
X123909999Y-129650000D02*
X124059999Y-129650000D01*
X123910000Y-128850000D02*
X123909999Y-129650000D01*
X127990000Y-121309999D02*
X126580000Y-121310000D01*
X127990000Y-130470001D02*
X126580000Y-130470000D01*
%TO.C,R7*%
X94920000Y-113153640D02*
X94920001Y-112846359D01*
X95679999Y-113153641D02*
X95680000Y-112846360D01*
%TO.C,U2*%
X95800000Y-95850000D02*
X95800000Y-96950000D01*
X95800000Y-110450000D02*
X95800000Y-111550000D01*
X95800000Y-111550000D02*
X96900000Y-111550000D01*
X96900000Y-95850000D02*
X95800000Y-95850000D01*
X105400000Y-95850000D02*
X106500000Y-95850000D01*
X106500000Y-95850000D02*
X106500000Y-96950000D01*
X106500000Y-110450000D02*
X106500000Y-111550000D01*
X106500000Y-111550000D02*
X105400000Y-111550000D01*
X95775000Y-99950001D02*
X95439000Y-100190000D01*
X95439000Y-99710000D01*
X95775000Y-99950001D01*
G36*
X95775000Y-99950001D02*
G01*
X95439000Y-100190000D01*
X95439000Y-99710000D01*
X95775000Y-99950001D01*
G37*
%TO.C,C4*%
X102357834Y-113759998D02*
X102142162Y-113760000D01*
X102357838Y-113040000D02*
X102142166Y-113040002D01*
%TO.C,R10*%
X108043642Y-108670000D02*
X107736363Y-108670001D01*
X108043643Y-109429997D02*
X107736364Y-109429998D01*
%TO.C,C8*%
X95889997Y-112862163D02*
X95889999Y-113077835D01*
X96609995Y-112862167D02*
X96609997Y-113077839D01*
%TO.C,R6*%
X95279998Y-110903639D02*
X95279998Y-110596361D01*
X94520002Y-110903639D02*
X94520002Y-110596361D01*
%TO.C,R14*%
X75679998Y-115156361D02*
X75679998Y-115463639D01*
X74920002Y-115156361D02*
X74920002Y-115463639D01*
%TO.C,R9*%
X108053639Y-109620001D02*
X107746360Y-109620002D01*
X108053640Y-110379998D02*
X107746361Y-110379999D01*
%TO.C,U5*%
X102300000Y-124396250D02*
X101500000Y-124396250D01*
X102300000Y-124396250D02*
X103100000Y-124396250D01*
X102300000Y-127516250D02*
X101500000Y-127516250D01*
X102300000Y-127516250D02*
X103100000Y-127516250D01*
X101000000Y-124446250D02*
X100760000Y-124116250D01*
X101240000Y-124116250D01*
X101000000Y-124446250D01*
G36*
X101000000Y-124446250D02*
G01*
X100760000Y-124116250D01*
X101240000Y-124116250D01*
X101000000Y-124446250D01*
G37*
%TD*%
%LPC*%
D14*
%TO.C,U1*%
X127525309Y-113321644D02*
X127528141Y-113321641D01*
X127530967Y-113321644D01*
X127533088Y-113322350D01*
X127535918Y-113322350D01*
X127538037Y-113323056D01*
X127540864Y-113323054D01*
X127543694Y-113324470D01*
X127545816Y-113325179D01*
X127548644Y-113326593D01*
X127550058Y-113328007D01*
X127552887Y-113329421D01*
X127554301Y-113330834D01*
X127557129Y-113332249D01*
X127558544Y-113333663D01*
X127560663Y-113335786D01*
X127914218Y-113689338D01*
X127916339Y-113691460D01*
X127917754Y-113692874D01*
X127919168Y-113695702D01*
X127920585Y-113697117D01*
X127921996Y-113699945D01*
X127923410Y-113701361D01*
X127924825Y-113704188D01*
X127925533Y-113706307D01*
X127926947Y-113709137D01*
X127926948Y-113711963D01*
X127927650Y-113714085D01*
X127927654Y-113716918D01*
X127928360Y-113719037D01*
X127928361Y-113721865D01*
X127928363Y-113724693D01*
X127928362Y-113727522D01*
X127928363Y-113730348D01*
X127927655Y-113732470D01*
X127927653Y-113735300D01*
X127926946Y-113737422D01*
X127926944Y-113740251D01*
X127925532Y-113743078D01*
X127924825Y-113745197D01*
X127923410Y-113748030D01*
X127921996Y-113749441D01*
X127920578Y-113752272D01*
X127919167Y-113753682D01*
X127917755Y-113756515D01*
X127916341Y-113757926D01*
X127914219Y-113760051D01*
X127772797Y-113901470D01*
X127770677Y-113903590D01*
X127769262Y-113905007D01*
X127766431Y-113906417D01*
X127765019Y-113907834D01*
X127762191Y-113909246D01*
X127760776Y-113910663D01*
X127757949Y-113912078D01*
X127755826Y-113912784D01*
X127752999Y-113914199D01*
X127750170Y-113914199D01*
X127748048Y-113914905D01*
X127745217Y-113914905D01*
X127743096Y-113915615D01*
X127740270Y-113915613D01*
X127737442Y-113915613D01*
X127734612Y-113915616D01*
X127731783Y-113915613D01*
X127729663Y-113914906D01*
X127726836Y-113914908D01*
X127724712Y-113914197D01*
X127721885Y-113914198D01*
X127719060Y-113912783D01*
X127716935Y-113912078D01*
X127714106Y-113910662D01*
X127712693Y-113909249D01*
X127709863Y-113907834D01*
X127708453Y-113906420D01*
X127705621Y-113905007D01*
X127704208Y-113903592D01*
X127702088Y-113901471D01*
X127348533Y-113547918D01*
X127346412Y-113545796D01*
X127344998Y-113544382D01*
X127343583Y-113541553D01*
X127342168Y-113540141D01*
X127340754Y-113537311D01*
X127339341Y-113535895D01*
X127337926Y-113533068D01*
X127337218Y-113530946D01*
X127335805Y-113528118D01*
X127335807Y-113525290D01*
X127335097Y-113523169D01*
X127335099Y-113520337D01*
X127334390Y-113518218D01*
X127334394Y-113515392D01*
X127334391Y-113512562D01*
X127334390Y-113509730D01*
X127334392Y-113506906D01*
X127335095Y-113504784D01*
X127335098Y-113501959D01*
X127335805Y-113499834D01*
X127335804Y-113497006D01*
X127337219Y-113494177D01*
X127337925Y-113492058D01*
X127339340Y-113489227D01*
X127340755Y-113487815D01*
X127342169Y-113484985D01*
X127343583Y-113483570D01*
X127345000Y-113480739D01*
X127346412Y-113479327D01*
X127348532Y-113477206D01*
X127489955Y-113335783D01*
X127492078Y-113333663D01*
X127493490Y-113332249D01*
X127496315Y-113330835D01*
X127497734Y-113329419D01*
X127500561Y-113328007D01*
X127501975Y-113326593D01*
X127504805Y-113325180D01*
X127506925Y-113324472D01*
X127509754Y-113323059D01*
X127512582Y-113323057D01*
X127514704Y-113322350D01*
X127517531Y-113322350D01*
X127519650Y-113321644D01*
X127522480Y-113321640D01*
X127525309Y-113321644D01*
G36*
X127525309Y-113321644D02*
G01*
X127528141Y-113321641D01*
X127530967Y-113321644D01*
X127533088Y-113322350D01*
X127535918Y-113322350D01*
X127538037Y-113323056D01*
X127540864Y-113323054D01*
X127543694Y-113324470D01*
X127545816Y-113325179D01*
X127548644Y-113326593D01*
X127550058Y-113328007D01*
X127552887Y-113329421D01*
X127554301Y-113330834D01*
X127557129Y-113332249D01*
X127558544Y-113333663D01*
X127560663Y-113335786D01*
X127914218Y-113689338D01*
X127916339Y-113691460D01*
X127917754Y-113692874D01*
X127919168Y-113695702D01*
X127920585Y-113697117D01*
X127921996Y-113699945D01*
X127923410Y-113701361D01*
X127924825Y-113704188D01*
X127925533Y-113706307D01*
X127926947Y-113709137D01*
X127926948Y-113711963D01*
X127927650Y-113714085D01*
X127927654Y-113716918D01*
X127928360Y-113719037D01*
X127928361Y-113721865D01*
X127928363Y-113724693D01*
X127928362Y-113727522D01*
X127928363Y-113730348D01*
X127927655Y-113732470D01*
X127927653Y-113735300D01*
X127926946Y-113737422D01*
X127926944Y-113740251D01*
X127925532Y-113743078D01*
X127924825Y-113745197D01*
X127923410Y-113748030D01*
X127921996Y-113749441D01*
X127920578Y-113752272D01*
X127919167Y-113753682D01*
X127917755Y-113756515D01*
X127916341Y-113757926D01*
X127914219Y-113760051D01*
X127772797Y-113901470D01*
X127770677Y-113903590D01*
X127769262Y-113905007D01*
X127766431Y-113906417D01*
X127765019Y-113907834D01*
X127762191Y-113909246D01*
X127760776Y-113910663D01*
X127757949Y-113912078D01*
X127755826Y-113912784D01*
X127752999Y-113914199D01*
X127750170Y-113914199D01*
X127748048Y-113914905D01*
X127745217Y-113914905D01*
X127743096Y-113915615D01*
X127740270Y-113915613D01*
X127737442Y-113915613D01*
X127734612Y-113915616D01*
X127731783Y-113915613D01*
X127729663Y-113914906D01*
X127726836Y-113914908D01*
X127724712Y-113914197D01*
X127721885Y-113914198D01*
X127719060Y-113912783D01*
X127716935Y-113912078D01*
X127714106Y-113910662D01*
X127712693Y-113909249D01*
X127709863Y-113907834D01*
X127708453Y-113906420D01*
X127705621Y-113905007D01*
X127704208Y-113903592D01*
X127702088Y-113901471D01*
X127348533Y-113547918D01*
X127346412Y-113545796D01*
X127344998Y-113544382D01*
X127343583Y-113541553D01*
X127342168Y-113540141D01*
X127340754Y-113537311D01*
X127339341Y-113535895D01*
X127337926Y-113533068D01*
X127337218Y-113530946D01*
X127335805Y-113528118D01*
X127335807Y-113525290D01*
X127335097Y-113523169D01*
X127335099Y-113520337D01*
X127334390Y-113518218D01*
X127334394Y-113515392D01*
X127334391Y-113512562D01*
X127334390Y-113509730D01*
X127334392Y-113506906D01*
X127335095Y-113504784D01*
X127335098Y-113501959D01*
X127335805Y-113499834D01*
X127335804Y-113497006D01*
X127337219Y-113494177D01*
X127337925Y-113492058D01*
X127339340Y-113489227D01*
X127340755Y-113487815D01*
X127342169Y-113484985D01*
X127343583Y-113483570D01*
X127345000Y-113480739D01*
X127346412Y-113479327D01*
X127348532Y-113477206D01*
X127489955Y-113335783D01*
X127492078Y-113333663D01*
X127493490Y-113332249D01*
X127496315Y-113330835D01*
X127497734Y-113329419D01*
X127500561Y-113328007D01*
X127501975Y-113326593D01*
X127504805Y-113325180D01*
X127506925Y-113324472D01*
X127509754Y-113323059D01*
X127512582Y-113323057D01*
X127514704Y-113322350D01*
X127517531Y-113322350D01*
X127519650Y-113321644D01*
X127522480Y-113321640D01*
X127525309Y-113321644D01*
G37*
X127250244Y-113605193D02*
X127253074Y-113605193D01*
X127255194Y-113605900D01*
X127258023Y-113605900D01*
X127260852Y-113607314D01*
X127262973Y-113608021D01*
X127265801Y-113609435D01*
X127267216Y-113610850D01*
X127270044Y-113612264D01*
X127271458Y-113613678D01*
X127274284Y-113615094D01*
X127275700Y-113616507D01*
X127277819Y-113618627D01*
X127631376Y-113972181D01*
X127633497Y-113974302D01*
X127634914Y-113975715D01*
X127636326Y-113978543D01*
X127637739Y-113979959D01*
X127639154Y-113982788D01*
X127640568Y-113984202D01*
X127641982Y-113987030D01*
X127642689Y-113989152D01*
X127644105Y-113991976D01*
X127644104Y-113994811D01*
X127644811Y-113996930D01*
X127644807Y-113999756D01*
X127645517Y-114001880D01*
X127645519Y-114004709D01*
X127645518Y-114007536D01*
X127645519Y-114010368D01*
X127645517Y-114013190D01*
X127644810Y-114015315D01*
X127644808Y-114018143D01*
X127644106Y-114020263D01*
X127644104Y-114023093D01*
X127642689Y-114025921D01*
X127641985Y-114028043D01*
X127640568Y-114030871D01*
X127639154Y-114032285D01*
X127637737Y-114035111D01*
X127636325Y-114036528D01*
X127634912Y-114039355D01*
X127633494Y-114040770D01*
X127631377Y-114042888D01*
X127489953Y-114184311D01*
X127487833Y-114186437D01*
X127486416Y-114187846D01*
X127483588Y-114189262D01*
X127482177Y-114190680D01*
X127479350Y-114192091D01*
X127477930Y-114193506D01*
X127475105Y-114194920D01*
X127472983Y-114195628D01*
X127470155Y-114197041D01*
X127467327Y-114197041D01*
X127465205Y-114197748D01*
X127462376Y-114197749D01*
X127460258Y-114198455D01*
X127457427Y-114198455D01*
X127454599Y-114198455D01*
X127451773Y-114198458D01*
X127448942Y-114198455D01*
X127446820Y-114197747D01*
X127443989Y-114197747D01*
X127441869Y-114197043D01*
X127439046Y-114197040D01*
X127436213Y-114195626D01*
X127434093Y-114194919D01*
X127431266Y-114193505D01*
X127429852Y-114192092D01*
X127427021Y-114190678D01*
X127425611Y-114189262D01*
X127422777Y-114187849D01*
X127421366Y-114186431D01*
X127419241Y-114184315D01*
X127065694Y-113830759D01*
X127063570Y-113828637D01*
X127062156Y-113827226D01*
X127060738Y-113824396D01*
X127059326Y-113822982D01*
X127057912Y-113820153D01*
X127056495Y-113818738D01*
X127055084Y-113815910D01*
X127054376Y-113813788D01*
X127052965Y-113810962D01*
X127052964Y-113808131D01*
X127052255Y-113806012D01*
X127052255Y-113803183D01*
X127051547Y-113801061D01*
X127051548Y-113798231D01*
X127051548Y-113795404D01*
X127051550Y-113792578D01*
X127051549Y-113789746D01*
X127052254Y-113787630D01*
X127052255Y-113784798D01*
X127052959Y-113782675D01*
X127052962Y-113779848D01*
X127054376Y-113777019D01*
X127055083Y-113774898D01*
X127056498Y-113772070D01*
X127057915Y-113770655D01*
X127059328Y-113767828D01*
X127060740Y-113766413D01*
X127062153Y-113763587D01*
X127063570Y-113762169D01*
X127065690Y-113760049D01*
X127207114Y-113618629D01*
X127209233Y-113616506D01*
X127210647Y-113615092D01*
X127213475Y-113613678D01*
X127214889Y-113612266D01*
X127217719Y-113610850D01*
X127219132Y-113609435D01*
X127221961Y-113608021D01*
X127224082Y-113607314D01*
X127226911Y-113605899D01*
X127229739Y-113605900D01*
X127231862Y-113605193D01*
X127234688Y-113605192D01*
X127236809Y-113604489D01*
X127239636Y-113604487D01*
X127242468Y-113604485D01*
X127245296Y-113604483D01*
X127248126Y-113604483D01*
X127250244Y-113605193D01*
G36*
X127250244Y-113605193D02*
G01*
X127253074Y-113605193D01*
X127255194Y-113605900D01*
X127258023Y-113605900D01*
X127260852Y-113607314D01*
X127262973Y-113608021D01*
X127265801Y-113609435D01*
X127267216Y-113610850D01*
X127270044Y-113612264D01*
X127271458Y-113613678D01*
X127274284Y-113615094D01*
X127275700Y-113616507D01*
X127277819Y-113618627D01*
X127631376Y-113972181D01*
X127633497Y-113974302D01*
X127634914Y-113975715D01*
X127636326Y-113978543D01*
X127637739Y-113979959D01*
X127639154Y-113982788D01*
X127640568Y-113984202D01*
X127641982Y-113987030D01*
X127642689Y-113989152D01*
X127644105Y-113991976D01*
X127644104Y-113994811D01*
X127644811Y-113996930D01*
X127644807Y-113999756D01*
X127645517Y-114001880D01*
X127645519Y-114004709D01*
X127645518Y-114007536D01*
X127645519Y-114010368D01*
X127645517Y-114013190D01*
X127644810Y-114015315D01*
X127644808Y-114018143D01*
X127644106Y-114020263D01*
X127644104Y-114023093D01*
X127642689Y-114025921D01*
X127641985Y-114028043D01*
X127640568Y-114030871D01*
X127639154Y-114032285D01*
X127637737Y-114035111D01*
X127636325Y-114036528D01*
X127634912Y-114039355D01*
X127633494Y-114040770D01*
X127631377Y-114042888D01*
X127489953Y-114184311D01*
X127487833Y-114186437D01*
X127486416Y-114187846D01*
X127483588Y-114189262D01*
X127482177Y-114190680D01*
X127479350Y-114192091D01*
X127477930Y-114193506D01*
X127475105Y-114194920D01*
X127472983Y-114195628D01*
X127470155Y-114197041D01*
X127467327Y-114197041D01*
X127465205Y-114197748D01*
X127462376Y-114197749D01*
X127460258Y-114198455D01*
X127457427Y-114198455D01*
X127454599Y-114198455D01*
X127451773Y-114198458D01*
X127448942Y-114198455D01*
X127446820Y-114197747D01*
X127443989Y-114197747D01*
X127441869Y-114197043D01*
X127439046Y-114197040D01*
X127436213Y-114195626D01*
X127434093Y-114194919D01*
X127431266Y-114193505D01*
X127429852Y-114192092D01*
X127427021Y-114190678D01*
X127425611Y-114189262D01*
X127422777Y-114187849D01*
X127421366Y-114186431D01*
X127419241Y-114184315D01*
X127065694Y-113830759D01*
X127063570Y-113828637D01*
X127062156Y-113827226D01*
X127060738Y-113824396D01*
X127059326Y-113822982D01*
X127057912Y-113820153D01*
X127056495Y-113818738D01*
X127055084Y-113815910D01*
X127054376Y-113813788D01*
X127052965Y-113810962D01*
X127052964Y-113808131D01*
X127052255Y-113806012D01*
X127052255Y-113803183D01*
X127051547Y-113801061D01*
X127051548Y-113798231D01*
X127051548Y-113795404D01*
X127051550Y-113792578D01*
X127051549Y-113789746D01*
X127052254Y-113787630D01*
X127052255Y-113784798D01*
X127052959Y-113782675D01*
X127052962Y-113779848D01*
X127054376Y-113777019D01*
X127055083Y-113774898D01*
X127056498Y-113772070D01*
X127057915Y-113770655D01*
X127059328Y-113767828D01*
X127060740Y-113766413D01*
X127062153Y-113763587D01*
X127063570Y-113762169D01*
X127065690Y-113760049D01*
X127207114Y-113618629D01*
X127209233Y-113616506D01*
X127210647Y-113615092D01*
X127213475Y-113613678D01*
X127214889Y-113612266D01*
X127217719Y-113610850D01*
X127219132Y-113609435D01*
X127221961Y-113608021D01*
X127224082Y-113607314D01*
X127226911Y-113605899D01*
X127229739Y-113605900D01*
X127231862Y-113605193D01*
X127234688Y-113605192D01*
X127236809Y-113604489D01*
X127239636Y-113604487D01*
X127242468Y-113604485D01*
X127245296Y-113604483D01*
X127248126Y-113604483D01*
X127250244Y-113605193D01*
G37*
X126965281Y-113887328D02*
X126967402Y-113888035D01*
X126970233Y-113888036D01*
X126972353Y-113888740D01*
X126975178Y-113888745D01*
X126978009Y-113890157D01*
X126980131Y-113890867D01*
X126982959Y-113892278D01*
X126984375Y-113893689D01*
X126987201Y-113895106D01*
X126988618Y-113896518D01*
X126991444Y-113897935D01*
X126992857Y-113899347D01*
X126994980Y-113901473D01*
X127348533Y-114255024D01*
X127350654Y-114257145D01*
X127352068Y-114258561D01*
X127353482Y-114261387D01*
X127354897Y-114262802D01*
X127356308Y-114265628D01*
X127357726Y-114267042D01*
X127359139Y-114269873D01*
X127359848Y-114271999D01*
X127361263Y-114274823D01*
X127361263Y-114277651D01*
X127361966Y-114279771D01*
X127361966Y-114282601D01*
X127362676Y-114284721D01*
X127362674Y-114287552D01*
X127362674Y-114290378D01*
X127362675Y-114293208D01*
X127362673Y-114296037D01*
X127361970Y-114298154D01*
X127361967Y-114300989D01*
X127361261Y-114303107D01*
X127361261Y-114305935D01*
X127359845Y-114308762D01*
X127359139Y-114310885D01*
X127357726Y-114313712D01*
X127356309Y-114315129D01*
X127354897Y-114317956D01*
X127353485Y-114319370D01*
X127352071Y-114322199D01*
X127350655Y-114323614D01*
X127348534Y-114325733D01*
X127207110Y-114467154D01*
X127204989Y-114469277D01*
X127203577Y-114470692D01*
X127200750Y-114472103D01*
X127199333Y-114473520D01*
X127196503Y-114474936D01*
X127195093Y-114476345D01*
X127192260Y-114477765D01*
X127190141Y-114478470D01*
X127187315Y-114479881D01*
X127184484Y-114479884D01*
X127182363Y-114480591D01*
X127179538Y-114480592D01*
X127177411Y-114481296D01*
X127174585Y-114481298D01*
X127171756Y-114481298D01*
X127168927Y-114481299D01*
X127166100Y-114481299D01*
X127163982Y-114480591D01*
X127161147Y-114480591D01*
X127159029Y-114479884D01*
X127156200Y-114479886D01*
X127153369Y-114478469D01*
X127151250Y-114477762D01*
X127148425Y-114476349D01*
X127147004Y-114474933D01*
X127144179Y-114473520D01*
X127142765Y-114472103D01*
X127139936Y-114470691D01*
X127138524Y-114469276D01*
X127136401Y-114467156D01*
X126782847Y-114113603D01*
X126780726Y-114111481D01*
X126779312Y-114110067D01*
X126777894Y-114107238D01*
X126776483Y-114105824D01*
X126775069Y-114102998D01*
X126773655Y-114101582D01*
X126772241Y-114098752D01*
X126771534Y-114096632D01*
X126770116Y-114093804D01*
X126770117Y-114090977D01*
X126769412Y-114088856D01*
X126769412Y-114086025D01*
X126768705Y-114083905D01*
X126768706Y-114081073D01*
X126768708Y-114078247D01*
X126768706Y-114075418D01*
X126768706Y-114072592D01*
X126769416Y-114070470D01*
X126769414Y-114067641D01*
X126770119Y-114065519D01*
X126770123Y-114062691D01*
X126771534Y-114059864D01*
X126772241Y-114057741D01*
X126773655Y-114054913D01*
X126775069Y-114053498D01*
X126776483Y-114050670D01*
X126777897Y-114049256D01*
X126779312Y-114046427D01*
X126780728Y-114045013D01*
X126782847Y-114042894D01*
X126924270Y-113901469D01*
X126926390Y-113899349D01*
X126927804Y-113897936D01*
X126930631Y-113896524D01*
X126932047Y-113895106D01*
X126934875Y-113893692D01*
X126936291Y-113892278D01*
X126939118Y-113890864D01*
X126941239Y-113890158D01*
X126944065Y-113888740D01*
X126946896Y-113888742D01*
X126949017Y-113888038D01*
X126951848Y-113888032D01*
X126953969Y-113887328D01*
X126956795Y-113887328D01*
X126959625Y-113887329D01*
X126962451Y-113887327D01*
X126965281Y-113887328D01*
G36*
X126965281Y-113887328D02*
G01*
X126967402Y-113888035D01*
X126970233Y-113888036D01*
X126972353Y-113888740D01*
X126975178Y-113888745D01*
X126978009Y-113890157D01*
X126980131Y-113890867D01*
X126982959Y-113892278D01*
X126984375Y-113893689D01*
X126987201Y-113895106D01*
X126988618Y-113896518D01*
X126991444Y-113897935D01*
X126992857Y-113899347D01*
X126994980Y-113901473D01*
X127348533Y-114255024D01*
X127350654Y-114257145D01*
X127352068Y-114258561D01*
X127353482Y-114261387D01*
X127354897Y-114262802D01*
X127356308Y-114265628D01*
X127357726Y-114267042D01*
X127359139Y-114269873D01*
X127359848Y-114271999D01*
X127361263Y-114274823D01*
X127361263Y-114277651D01*
X127361966Y-114279771D01*
X127361966Y-114282601D01*
X127362676Y-114284721D01*
X127362674Y-114287552D01*
X127362674Y-114290378D01*
X127362675Y-114293208D01*
X127362673Y-114296037D01*
X127361970Y-114298154D01*
X127361967Y-114300989D01*
X127361261Y-114303107D01*
X127361261Y-114305935D01*
X127359845Y-114308762D01*
X127359139Y-114310885D01*
X127357726Y-114313712D01*
X127356309Y-114315129D01*
X127354897Y-114317956D01*
X127353485Y-114319370D01*
X127352071Y-114322199D01*
X127350655Y-114323614D01*
X127348534Y-114325733D01*
X127207110Y-114467154D01*
X127204989Y-114469277D01*
X127203577Y-114470692D01*
X127200750Y-114472103D01*
X127199333Y-114473520D01*
X127196503Y-114474936D01*
X127195093Y-114476345D01*
X127192260Y-114477765D01*
X127190141Y-114478470D01*
X127187315Y-114479881D01*
X127184484Y-114479884D01*
X127182363Y-114480591D01*
X127179538Y-114480592D01*
X127177411Y-114481296D01*
X127174585Y-114481298D01*
X127171756Y-114481298D01*
X127168927Y-114481299D01*
X127166100Y-114481299D01*
X127163982Y-114480591D01*
X127161147Y-114480591D01*
X127159029Y-114479884D01*
X127156200Y-114479886D01*
X127153369Y-114478469D01*
X127151250Y-114477762D01*
X127148425Y-114476349D01*
X127147004Y-114474933D01*
X127144179Y-114473520D01*
X127142765Y-114472103D01*
X127139936Y-114470691D01*
X127138524Y-114469276D01*
X127136401Y-114467156D01*
X126782847Y-114113603D01*
X126780726Y-114111481D01*
X126779312Y-114110067D01*
X126777894Y-114107238D01*
X126776483Y-114105824D01*
X126775069Y-114102998D01*
X126773655Y-114101582D01*
X126772241Y-114098752D01*
X126771534Y-114096632D01*
X126770116Y-114093804D01*
X126770117Y-114090977D01*
X126769412Y-114088856D01*
X126769412Y-114086025D01*
X126768705Y-114083905D01*
X126768706Y-114081073D01*
X126768708Y-114078247D01*
X126768706Y-114075418D01*
X126768706Y-114072592D01*
X126769416Y-114070470D01*
X126769414Y-114067641D01*
X126770119Y-114065519D01*
X126770123Y-114062691D01*
X126771534Y-114059864D01*
X126772241Y-114057741D01*
X126773655Y-114054913D01*
X126775069Y-114053498D01*
X126776483Y-114050670D01*
X126777897Y-114049256D01*
X126779312Y-114046427D01*
X126780728Y-114045013D01*
X126782847Y-114042894D01*
X126924270Y-113901469D01*
X126926390Y-113899349D01*
X126927804Y-113897936D01*
X126930631Y-113896524D01*
X126932047Y-113895106D01*
X126934875Y-113893692D01*
X126936291Y-113892278D01*
X126939118Y-113890864D01*
X126941239Y-113890158D01*
X126944065Y-113888740D01*
X126946896Y-113888742D01*
X126949017Y-113888038D01*
X126951848Y-113888032D01*
X126953969Y-113887328D01*
X126956795Y-113887328D01*
X126959625Y-113887329D01*
X126962451Y-113887327D01*
X126965281Y-113887328D01*
G37*
X126673952Y-114170171D02*
X126676781Y-114170171D01*
X126679613Y-114170172D01*
X126682438Y-114170172D01*
X126684560Y-114170878D01*
X126687389Y-114170878D01*
X126689512Y-114171584D01*
X126692333Y-114171585D01*
X126695168Y-114172999D01*
X126697287Y-114173707D01*
X126700115Y-114175123D01*
X126701530Y-114176535D01*
X126704359Y-114177949D01*
X126705773Y-114179360D01*
X126708603Y-114180778D01*
X126710014Y-114182190D01*
X126712140Y-114184311D01*
X127065689Y-114537867D01*
X127067813Y-114539985D01*
X127069225Y-114541401D01*
X127070640Y-114544230D01*
X127072053Y-114545644D01*
X127073470Y-114548475D01*
X127074882Y-114549889D01*
X127076296Y-114552714D01*
X127077005Y-114554835D01*
X127078417Y-114557669D01*
X127078418Y-114560494D01*
X127079127Y-114562617D01*
X127079124Y-114565440D01*
X127079834Y-114567565D01*
X127079829Y-114570394D01*
X127079832Y-114573222D01*
X127079832Y-114576050D01*
X127079832Y-114578879D01*
X127079129Y-114581000D01*
X127079125Y-114583828D01*
X127078415Y-114585949D01*
X127078418Y-114588778D01*
X127077005Y-114591606D01*
X127076298Y-114593728D01*
X127074879Y-114596556D01*
X127073468Y-114597972D01*
X127072052Y-114600797D01*
X127070641Y-114602211D01*
X127069228Y-114605040D01*
X127067814Y-114606457D01*
X127065692Y-114608580D01*
X126924269Y-114749995D01*
X126922145Y-114752121D01*
X126920733Y-114753534D01*
X126917906Y-114754948D01*
X126916494Y-114756362D01*
X126913663Y-114757777D01*
X126912248Y-114759191D01*
X126909420Y-114760608D01*
X126907298Y-114761312D01*
X126904466Y-114762727D01*
X126901640Y-114762725D01*
X126899520Y-114763431D01*
X126896692Y-114763433D01*
X126894571Y-114764141D01*
X126891743Y-114764140D01*
X126888913Y-114764141D01*
X126886084Y-114764142D01*
X126883257Y-114764140D01*
X126881136Y-114763434D01*
X126878306Y-114763433D01*
X126876186Y-114762726D01*
X126873354Y-114762725D01*
X126870527Y-114761313D01*
X126868407Y-114760605D01*
X126865579Y-114759191D01*
X126864165Y-114757775D01*
X126861336Y-114756362D01*
X126859920Y-114754948D01*
X126857094Y-114753534D01*
X126855679Y-114752120D01*
X126853558Y-114749999D01*
X126500008Y-114396447D01*
X126497883Y-114394324D01*
X126496470Y-114392907D01*
X126495054Y-114390079D01*
X126493641Y-114388667D01*
X126492226Y-114385839D01*
X126490815Y-114384426D01*
X126489398Y-114381596D01*
X126488691Y-114379475D01*
X126487277Y-114376646D01*
X126487276Y-114373816D01*
X126486570Y-114371697D01*
X126486571Y-114368867D01*
X126485864Y-114366747D01*
X126485861Y-114363917D01*
X126485862Y-114361091D01*
X126485862Y-114358262D01*
X126485866Y-114355432D01*
X126486570Y-114353311D01*
X126486570Y-114350485D01*
X126487277Y-114348362D01*
X126487275Y-114345535D01*
X126488691Y-114342705D01*
X126489398Y-114340584D01*
X126490812Y-114337755D01*
X126492225Y-114336342D01*
X126493641Y-114333513D01*
X126495055Y-114332098D01*
X126496469Y-114329270D01*
X126497882Y-114327859D01*
X126500004Y-114325735D01*
X126641428Y-114184315D01*
X126643546Y-114182190D01*
X126644961Y-114180775D01*
X126647790Y-114179363D01*
X126649206Y-114177952D01*
X126652031Y-114176535D01*
X126653447Y-114175121D01*
X126656275Y-114173706D01*
X126658394Y-114172999D01*
X126661225Y-114171585D01*
X126664056Y-114171586D01*
X126666175Y-114170878D01*
X126669007Y-114170877D01*
X126671125Y-114170170D01*
X126673952Y-114170171D01*
G36*
X126673952Y-114170171D02*
G01*
X126676781Y-114170171D01*
X126679613Y-114170172D01*
X126682438Y-114170172D01*
X126684560Y-114170878D01*
X126687389Y-114170878D01*
X126689512Y-114171584D01*
X126692333Y-114171585D01*
X126695168Y-114172999D01*
X126697287Y-114173707D01*
X126700115Y-114175123D01*
X126701530Y-114176535D01*
X126704359Y-114177949D01*
X126705773Y-114179360D01*
X126708603Y-114180778D01*
X126710014Y-114182190D01*
X126712140Y-114184311D01*
X127065689Y-114537867D01*
X127067813Y-114539985D01*
X127069225Y-114541401D01*
X127070640Y-114544230D01*
X127072053Y-114545644D01*
X127073470Y-114548475D01*
X127074882Y-114549889D01*
X127076296Y-114552714D01*
X127077005Y-114554835D01*
X127078417Y-114557669D01*
X127078418Y-114560494D01*
X127079127Y-114562617D01*
X127079124Y-114565440D01*
X127079834Y-114567565D01*
X127079829Y-114570394D01*
X127079832Y-114573222D01*
X127079832Y-114576050D01*
X127079832Y-114578879D01*
X127079129Y-114581000D01*
X127079125Y-114583828D01*
X127078415Y-114585949D01*
X127078418Y-114588778D01*
X127077005Y-114591606D01*
X127076298Y-114593728D01*
X127074879Y-114596556D01*
X127073468Y-114597972D01*
X127072052Y-114600797D01*
X127070641Y-114602211D01*
X127069228Y-114605040D01*
X127067814Y-114606457D01*
X127065692Y-114608580D01*
X126924269Y-114749995D01*
X126922145Y-114752121D01*
X126920733Y-114753534D01*
X126917906Y-114754948D01*
X126916494Y-114756362D01*
X126913663Y-114757777D01*
X126912248Y-114759191D01*
X126909420Y-114760608D01*
X126907298Y-114761312D01*
X126904466Y-114762727D01*
X126901640Y-114762725D01*
X126899520Y-114763431D01*
X126896692Y-114763433D01*
X126894571Y-114764141D01*
X126891743Y-114764140D01*
X126888913Y-114764141D01*
X126886084Y-114764142D01*
X126883257Y-114764140D01*
X126881136Y-114763434D01*
X126878306Y-114763433D01*
X126876186Y-114762726D01*
X126873354Y-114762725D01*
X126870527Y-114761313D01*
X126868407Y-114760605D01*
X126865579Y-114759191D01*
X126864165Y-114757775D01*
X126861336Y-114756362D01*
X126859920Y-114754948D01*
X126857094Y-114753534D01*
X126855679Y-114752120D01*
X126853558Y-114749999D01*
X126500008Y-114396447D01*
X126497883Y-114394324D01*
X126496470Y-114392907D01*
X126495054Y-114390079D01*
X126493641Y-114388667D01*
X126492226Y-114385839D01*
X126490815Y-114384426D01*
X126489398Y-114381596D01*
X126488691Y-114379475D01*
X126487277Y-114376646D01*
X126487276Y-114373816D01*
X126486570Y-114371697D01*
X126486571Y-114368867D01*
X126485864Y-114366747D01*
X126485861Y-114363917D01*
X126485862Y-114361091D01*
X126485862Y-114358262D01*
X126485866Y-114355432D01*
X126486570Y-114353311D01*
X126486570Y-114350485D01*
X126487277Y-114348362D01*
X126487275Y-114345535D01*
X126488691Y-114342705D01*
X126489398Y-114340584D01*
X126490812Y-114337755D01*
X126492225Y-114336342D01*
X126493641Y-114333513D01*
X126495055Y-114332098D01*
X126496469Y-114329270D01*
X126497882Y-114327859D01*
X126500004Y-114325735D01*
X126641428Y-114184315D01*
X126643546Y-114182190D01*
X126644961Y-114180775D01*
X126647790Y-114179363D01*
X126649206Y-114177952D01*
X126652031Y-114176535D01*
X126653447Y-114175121D01*
X126656275Y-114173706D01*
X126658394Y-114172999D01*
X126661225Y-114171585D01*
X126664056Y-114171586D01*
X126666175Y-114170878D01*
X126669007Y-114170877D01*
X126671125Y-114170170D01*
X126673952Y-114170171D01*
G37*
X126399596Y-114453014D02*
X126401715Y-114453720D01*
X126404544Y-114453721D01*
X126406667Y-114454428D01*
X126409495Y-114454428D01*
X126412320Y-114455844D01*
X126414445Y-114456549D01*
X126417272Y-114457964D01*
X126418687Y-114459377D01*
X126421517Y-114460794D01*
X126422930Y-114462206D01*
X126425758Y-114463619D01*
X126427169Y-114465031D01*
X126429292Y-114467157D01*
X126782848Y-114820711D01*
X126784968Y-114822831D01*
X126786384Y-114824244D01*
X126787799Y-114827074D01*
X126789213Y-114828487D01*
X126790626Y-114831316D01*
X126792038Y-114832730D01*
X126793453Y-114835555D01*
X126794160Y-114837683D01*
X126795572Y-114840509D01*
X126795574Y-114843335D01*
X126796282Y-114845458D01*
X126796280Y-114848284D01*
X126796987Y-114850407D01*
X126796987Y-114853235D01*
X126796989Y-114856065D01*
X126796990Y-114858893D01*
X126796991Y-114861719D01*
X126796282Y-114863843D01*
X126796281Y-114866673D01*
X126795575Y-114868792D01*
X126795575Y-114871621D01*
X126794161Y-114874449D01*
X126793455Y-114876568D01*
X126792040Y-114879399D01*
X126790626Y-114880815D01*
X126789211Y-114883642D01*
X126787794Y-114885055D01*
X126786383Y-114887882D01*
X126784972Y-114889300D01*
X126782848Y-114891419D01*
X126641424Y-115032839D01*
X126639305Y-115034962D01*
X126637888Y-115036376D01*
X126635059Y-115037791D01*
X126633646Y-115039202D01*
X126630821Y-115040619D01*
X126629403Y-115042033D01*
X126626575Y-115043448D01*
X126624455Y-115044155D01*
X126621626Y-115045569D01*
X126618799Y-115045569D01*
X126616679Y-115046277D01*
X126613850Y-115046277D01*
X126611728Y-115046982D01*
X126608898Y-115046984D01*
X126606071Y-115046983D01*
X126603242Y-115046984D01*
X126600414Y-115046983D01*
X126598292Y-115046280D01*
X126595463Y-115046280D01*
X126593340Y-115045571D01*
X126590515Y-115045571D01*
X126587687Y-115044157D01*
X126585565Y-115043448D01*
X126582736Y-115042034D01*
X126581322Y-115040619D01*
X126578497Y-115039205D01*
X126577077Y-115037788D01*
X126574248Y-115036375D01*
X126572840Y-115034962D01*
X126570714Y-115032840D01*
X126217162Y-114679288D01*
X126215041Y-114677166D01*
X126213628Y-114675755D01*
X126212213Y-114672925D01*
X126210798Y-114671510D01*
X126209384Y-114668681D01*
X126207970Y-114667267D01*
X126206558Y-114664441D01*
X126205848Y-114662317D01*
X126204433Y-114659489D01*
X126204434Y-114656662D01*
X126203727Y-114654539D01*
X126203727Y-114651711D01*
X126203021Y-114649590D01*
X126203021Y-114646762D01*
X126203019Y-114643930D01*
X126203020Y-114641106D01*
X126203019Y-114638274D01*
X126203728Y-114636155D01*
X126203726Y-114633326D01*
X126204434Y-114631205D01*
X126204434Y-114628376D01*
X126205849Y-114625548D01*
X126206556Y-114623429D01*
X126207970Y-114620598D01*
X126209384Y-114619184D01*
X126210798Y-114616355D01*
X126212212Y-114614938D01*
X126213627Y-114612115D01*
X126215041Y-114610694D01*
X126217161Y-114608578D01*
X126358581Y-114467155D01*
X126360706Y-114465035D01*
X126362120Y-114463618D01*
X126364948Y-114462207D01*
X126366362Y-114460792D01*
X126369189Y-114459377D01*
X126370605Y-114457963D01*
X126373432Y-114456549D01*
X126375554Y-114455842D01*
X126378382Y-114454428D01*
X126381209Y-114454430D01*
X126383331Y-114453720D01*
X126386160Y-114453720D01*
X126388283Y-114453013D01*
X126391111Y-114453014D01*
X126393939Y-114453012D01*
X126396768Y-114453010D01*
X126399596Y-114453014D01*
G36*
X126399596Y-114453014D02*
G01*
X126401715Y-114453720D01*
X126404544Y-114453721D01*
X126406667Y-114454428D01*
X126409495Y-114454428D01*
X126412320Y-114455844D01*
X126414445Y-114456549D01*
X126417272Y-114457964D01*
X126418687Y-114459377D01*
X126421517Y-114460794D01*
X126422930Y-114462206D01*
X126425758Y-114463619D01*
X126427169Y-114465031D01*
X126429292Y-114467157D01*
X126782848Y-114820711D01*
X126784968Y-114822831D01*
X126786384Y-114824244D01*
X126787799Y-114827074D01*
X126789213Y-114828487D01*
X126790626Y-114831316D01*
X126792038Y-114832730D01*
X126793453Y-114835555D01*
X126794160Y-114837683D01*
X126795572Y-114840509D01*
X126795574Y-114843335D01*
X126796282Y-114845458D01*
X126796280Y-114848284D01*
X126796987Y-114850407D01*
X126796987Y-114853235D01*
X126796989Y-114856065D01*
X126796990Y-114858893D01*
X126796991Y-114861719D01*
X126796282Y-114863843D01*
X126796281Y-114866673D01*
X126795575Y-114868792D01*
X126795575Y-114871621D01*
X126794161Y-114874449D01*
X126793455Y-114876568D01*
X126792040Y-114879399D01*
X126790626Y-114880815D01*
X126789211Y-114883642D01*
X126787794Y-114885055D01*
X126786383Y-114887882D01*
X126784972Y-114889300D01*
X126782848Y-114891419D01*
X126641424Y-115032839D01*
X126639305Y-115034962D01*
X126637888Y-115036376D01*
X126635059Y-115037791D01*
X126633646Y-115039202D01*
X126630821Y-115040619D01*
X126629403Y-115042033D01*
X126626575Y-115043448D01*
X126624455Y-115044155D01*
X126621626Y-115045569D01*
X126618799Y-115045569D01*
X126616679Y-115046277D01*
X126613850Y-115046277D01*
X126611728Y-115046982D01*
X126608898Y-115046984D01*
X126606071Y-115046983D01*
X126603242Y-115046984D01*
X126600414Y-115046983D01*
X126598292Y-115046280D01*
X126595463Y-115046280D01*
X126593340Y-115045571D01*
X126590515Y-115045571D01*
X126587687Y-115044157D01*
X126585565Y-115043448D01*
X126582736Y-115042034D01*
X126581322Y-115040619D01*
X126578497Y-115039205D01*
X126577077Y-115037788D01*
X126574248Y-115036375D01*
X126572840Y-115034962D01*
X126570714Y-115032840D01*
X126217162Y-114679288D01*
X126215041Y-114677166D01*
X126213628Y-114675755D01*
X126212213Y-114672925D01*
X126210798Y-114671510D01*
X126209384Y-114668681D01*
X126207970Y-114667267D01*
X126206558Y-114664441D01*
X126205848Y-114662317D01*
X126204433Y-114659489D01*
X126204434Y-114656662D01*
X126203727Y-114654539D01*
X126203727Y-114651711D01*
X126203021Y-114649590D01*
X126203021Y-114646762D01*
X126203019Y-114643930D01*
X126203020Y-114641106D01*
X126203019Y-114638274D01*
X126203728Y-114636155D01*
X126203726Y-114633326D01*
X126204434Y-114631205D01*
X126204434Y-114628376D01*
X126205849Y-114625548D01*
X126206556Y-114623429D01*
X126207970Y-114620598D01*
X126209384Y-114619184D01*
X126210798Y-114616355D01*
X126212212Y-114614938D01*
X126213627Y-114612115D01*
X126215041Y-114610694D01*
X126217161Y-114608578D01*
X126358581Y-114467155D01*
X126360706Y-114465035D01*
X126362120Y-114463618D01*
X126364948Y-114462207D01*
X126366362Y-114460792D01*
X126369189Y-114459377D01*
X126370605Y-114457963D01*
X126373432Y-114456549D01*
X126375554Y-114455842D01*
X126378382Y-114454428D01*
X126381209Y-114454430D01*
X126383331Y-114453720D01*
X126386160Y-114453720D01*
X126388283Y-114453013D01*
X126391111Y-114453014D01*
X126393939Y-114453012D01*
X126396768Y-114453010D01*
X126399596Y-114453014D01*
G37*
X126046042Y-111836719D02*
X126048164Y-111837422D01*
X126050993Y-111837422D01*
X126053116Y-111838131D01*
X126055941Y-111838131D01*
X126058769Y-111839545D01*
X126060891Y-111840254D01*
X126063720Y-111841668D01*
X126065134Y-111843083D01*
X126067959Y-111844497D01*
X126069379Y-111845914D01*
X126072208Y-111847327D01*
X126073616Y-111848740D01*
X126075742Y-111850862D01*
X126429294Y-112204414D01*
X126431415Y-112206536D01*
X126432828Y-112207947D01*
X126434243Y-112210777D01*
X126435658Y-112212192D01*
X126437072Y-112215021D01*
X126438486Y-112216435D01*
X126439898Y-112219261D01*
X126440608Y-112221385D01*
X126442023Y-112224213D01*
X126442022Y-112227040D01*
X126442729Y-112229163D01*
X126442729Y-112231991D01*
X126443435Y-112234112D01*
X126443435Y-112236940D01*
X126443437Y-112239772D01*
X126443436Y-112242596D01*
X126443437Y-112245428D01*
X126442728Y-112247547D01*
X126442730Y-112250376D01*
X126442022Y-112252497D01*
X126442022Y-112255326D01*
X126440607Y-112258154D01*
X126439900Y-112260273D01*
X126438486Y-112263104D01*
X126437072Y-112264518D01*
X126435658Y-112267347D01*
X126434244Y-112268764D01*
X126432829Y-112271587D01*
X126431415Y-112273008D01*
X126429295Y-112275124D01*
X126287875Y-112416547D01*
X126285750Y-112418667D01*
X126284336Y-112420084D01*
X126281508Y-112421495D01*
X126280094Y-112422910D01*
X126277267Y-112424325D01*
X126275851Y-112425739D01*
X126273024Y-112427153D01*
X126270902Y-112427860D01*
X126268074Y-112429274D01*
X126265247Y-112429272D01*
X126263125Y-112429982D01*
X126260296Y-112429982D01*
X126258173Y-112430689D01*
X126255345Y-112430688D01*
X126252517Y-112430690D01*
X126249688Y-112430692D01*
X126246860Y-112430688D01*
X126244741Y-112429982D01*
X126241912Y-112429981D01*
X126239789Y-112429274D01*
X126236961Y-112429274D01*
X126234136Y-112427858D01*
X126232011Y-112427153D01*
X126229184Y-112425738D01*
X126227769Y-112424325D01*
X126224939Y-112422908D01*
X126223526Y-112421496D01*
X126220698Y-112420083D01*
X126219287Y-112418671D01*
X126217164Y-112416545D01*
X125863608Y-112062991D01*
X125861488Y-112060871D01*
X125860072Y-112059458D01*
X125858657Y-112056628D01*
X125857243Y-112055215D01*
X125855830Y-112052386D01*
X125854418Y-112050972D01*
X125853003Y-112048147D01*
X125852296Y-112046019D01*
X125850884Y-112043193D01*
X125850882Y-112040367D01*
X125850174Y-112038244D01*
X125850176Y-112035418D01*
X125849469Y-112033295D01*
X125849469Y-112030467D01*
X125849467Y-112027637D01*
X125849466Y-112024809D01*
X125849465Y-112021983D01*
X125850174Y-112019859D01*
X125850175Y-112017029D01*
X125850881Y-112014910D01*
X125850881Y-112012081D01*
X125852295Y-112009253D01*
X125853001Y-112007134D01*
X125854416Y-112004303D01*
X125855830Y-112002887D01*
X125857245Y-112000060D01*
X125858662Y-111998647D01*
X125860073Y-111995820D01*
X125861484Y-111994402D01*
X125863608Y-111992283D01*
X126005032Y-111850863D01*
X126007151Y-111848740D01*
X126008568Y-111847326D01*
X126011397Y-111845911D01*
X126012810Y-111844500D01*
X126015635Y-111843083D01*
X126017053Y-111841669D01*
X126019881Y-111840254D01*
X126022001Y-111839547D01*
X126024830Y-111838133D01*
X126027657Y-111838133D01*
X126029777Y-111837425D01*
X126032606Y-111837425D01*
X126034728Y-111836720D01*
X126037558Y-111836718D01*
X126040385Y-111836719D01*
X126043214Y-111836718D01*
X126046042Y-111836719D01*
G36*
X126046042Y-111836719D02*
G01*
X126048164Y-111837422D01*
X126050993Y-111837422D01*
X126053116Y-111838131D01*
X126055941Y-111838131D01*
X126058769Y-111839545D01*
X126060891Y-111840254D01*
X126063720Y-111841668D01*
X126065134Y-111843083D01*
X126067959Y-111844497D01*
X126069379Y-111845914D01*
X126072208Y-111847327D01*
X126073616Y-111848740D01*
X126075742Y-111850862D01*
X126429294Y-112204414D01*
X126431415Y-112206536D01*
X126432828Y-112207947D01*
X126434243Y-112210777D01*
X126435658Y-112212192D01*
X126437072Y-112215021D01*
X126438486Y-112216435D01*
X126439898Y-112219261D01*
X126440608Y-112221385D01*
X126442023Y-112224213D01*
X126442022Y-112227040D01*
X126442729Y-112229163D01*
X126442729Y-112231991D01*
X126443435Y-112234112D01*
X126443435Y-112236940D01*
X126443437Y-112239772D01*
X126443436Y-112242596D01*
X126443437Y-112245428D01*
X126442728Y-112247547D01*
X126442730Y-112250376D01*
X126442022Y-112252497D01*
X126442022Y-112255326D01*
X126440607Y-112258154D01*
X126439900Y-112260273D01*
X126438486Y-112263104D01*
X126437072Y-112264518D01*
X126435658Y-112267347D01*
X126434244Y-112268764D01*
X126432829Y-112271587D01*
X126431415Y-112273008D01*
X126429295Y-112275124D01*
X126287875Y-112416547D01*
X126285750Y-112418667D01*
X126284336Y-112420084D01*
X126281508Y-112421495D01*
X126280094Y-112422910D01*
X126277267Y-112424325D01*
X126275851Y-112425739D01*
X126273024Y-112427153D01*
X126270902Y-112427860D01*
X126268074Y-112429274D01*
X126265247Y-112429272D01*
X126263125Y-112429982D01*
X126260296Y-112429982D01*
X126258173Y-112430689D01*
X126255345Y-112430688D01*
X126252517Y-112430690D01*
X126249688Y-112430692D01*
X126246860Y-112430688D01*
X126244741Y-112429982D01*
X126241912Y-112429981D01*
X126239789Y-112429274D01*
X126236961Y-112429274D01*
X126234136Y-112427858D01*
X126232011Y-112427153D01*
X126229184Y-112425738D01*
X126227769Y-112424325D01*
X126224939Y-112422908D01*
X126223526Y-112421496D01*
X126220698Y-112420083D01*
X126219287Y-112418671D01*
X126217164Y-112416545D01*
X125863608Y-112062991D01*
X125861488Y-112060871D01*
X125860072Y-112059458D01*
X125858657Y-112056628D01*
X125857243Y-112055215D01*
X125855830Y-112052386D01*
X125854418Y-112050972D01*
X125853003Y-112048147D01*
X125852296Y-112046019D01*
X125850884Y-112043193D01*
X125850882Y-112040367D01*
X125850174Y-112038244D01*
X125850176Y-112035418D01*
X125849469Y-112033295D01*
X125849469Y-112030467D01*
X125849467Y-112027637D01*
X125849466Y-112024809D01*
X125849465Y-112021983D01*
X125850174Y-112019859D01*
X125850175Y-112017029D01*
X125850881Y-112014910D01*
X125850881Y-112012081D01*
X125852295Y-112009253D01*
X125853001Y-112007134D01*
X125854416Y-112004303D01*
X125855830Y-112002887D01*
X125857245Y-112000060D01*
X125858662Y-111998647D01*
X125860073Y-111995820D01*
X125861484Y-111994402D01*
X125863608Y-111992283D01*
X126005032Y-111850863D01*
X126007151Y-111848740D01*
X126008568Y-111847326D01*
X126011397Y-111845911D01*
X126012810Y-111844500D01*
X126015635Y-111843083D01*
X126017053Y-111841669D01*
X126019881Y-111840254D01*
X126022001Y-111839547D01*
X126024830Y-111838133D01*
X126027657Y-111838133D01*
X126029777Y-111837425D01*
X126032606Y-111837425D01*
X126034728Y-111836720D01*
X126037558Y-111836718D01*
X126040385Y-111836719D01*
X126043214Y-111836718D01*
X126046042Y-111836719D01*
G37*
X125763199Y-112119562D02*
X125765320Y-112120268D01*
X125768150Y-112120269D01*
X125770270Y-112120976D01*
X125773102Y-112120977D01*
X125775929Y-112122389D01*
X125778049Y-112123097D01*
X125780877Y-112124511D01*
X125782291Y-112125927D01*
X125785120Y-112127340D01*
X125786536Y-112128754D01*
X125789362Y-112130168D01*
X125790777Y-112131582D01*
X125792898Y-112133703D01*
X126146448Y-112487255D01*
X126148573Y-112489378D01*
X126149986Y-112490795D01*
X126151402Y-112493623D01*
X126152815Y-112495035D01*
X126154230Y-112497863D01*
X126155641Y-112499276D01*
X126157058Y-112502106D01*
X126157765Y-112504227D01*
X126159179Y-112507056D01*
X126159180Y-112509886D01*
X126159886Y-112512005D01*
X126159885Y-112514835D01*
X126160592Y-112516955D01*
X126160595Y-112519785D01*
X126160594Y-112522611D01*
X126160594Y-112525440D01*
X126160590Y-112528270D01*
X126159886Y-112530391D01*
X126159886Y-112533217D01*
X126159179Y-112535340D01*
X126159181Y-112538167D01*
X126157765Y-112540997D01*
X126157058Y-112543118D01*
X126155644Y-112545947D01*
X126154231Y-112547360D01*
X126152815Y-112550189D01*
X126151401Y-112551604D01*
X126149987Y-112554432D01*
X126148574Y-112555843D01*
X126146452Y-112557967D01*
X126005028Y-112699387D01*
X126002910Y-112701512D01*
X126001495Y-112702927D01*
X125998666Y-112704339D01*
X125997250Y-112705750D01*
X125994425Y-112707167D01*
X125993009Y-112708581D01*
X125990181Y-112709996D01*
X125988062Y-112710703D01*
X125985231Y-112712117D01*
X125982400Y-112712116D01*
X125980281Y-112712824D01*
X125977449Y-112712825D01*
X125975331Y-112713532D01*
X125972504Y-112713531D01*
X125969675Y-112713531D01*
X125966843Y-112713530D01*
X125964018Y-112713530D01*
X125961896Y-112712824D01*
X125959067Y-112712824D01*
X125956944Y-112712118D01*
X125954123Y-112712117D01*
X125951288Y-112710703D01*
X125949169Y-112709995D01*
X125946341Y-112708579D01*
X125944926Y-112707167D01*
X125942097Y-112705753D01*
X125940683Y-112704342D01*
X125937853Y-112702924D01*
X125936442Y-112701512D01*
X125934316Y-112699391D01*
X125580767Y-112345835D01*
X125578643Y-112343717D01*
X125577231Y-112342301D01*
X125575816Y-112339472D01*
X125574403Y-112338058D01*
X125572986Y-112335227D01*
X125571574Y-112333813D01*
X125570160Y-112330988D01*
X125569451Y-112328867D01*
X125568039Y-112326033D01*
X125568038Y-112323208D01*
X125567329Y-112321085D01*
X125567332Y-112318262D01*
X125566622Y-112316137D01*
X125566627Y-112313308D01*
X125566624Y-112310480D01*
X125566624Y-112307652D01*
X125566624Y-112304823D01*
X125567327Y-112302702D01*
X125567331Y-112299874D01*
X125568041Y-112297753D01*
X125568038Y-112294924D01*
X125569451Y-112292096D01*
X125570158Y-112289974D01*
X125571577Y-112287146D01*
X125572988Y-112285730D01*
X125574404Y-112282905D01*
X125575815Y-112281491D01*
X125577228Y-112278662D01*
X125578642Y-112277245D01*
X125580764Y-112275122D01*
X125722187Y-112133707D01*
X125724311Y-112131581D01*
X125725723Y-112130168D01*
X125728550Y-112128754D01*
X125729962Y-112127340D01*
X125732793Y-112125925D01*
X125734208Y-112124511D01*
X125737036Y-112123094D01*
X125739158Y-112122390D01*
X125741990Y-112120975D01*
X125744816Y-112120977D01*
X125746936Y-112120271D01*
X125749764Y-112120269D01*
X125751885Y-112119561D01*
X125754713Y-112119562D01*
X125757543Y-112119561D01*
X125760372Y-112119560D01*
X125763199Y-112119562D01*
G36*
X125763199Y-112119562D02*
G01*
X125765320Y-112120268D01*
X125768150Y-112120269D01*
X125770270Y-112120976D01*
X125773102Y-112120977D01*
X125775929Y-112122389D01*
X125778049Y-112123097D01*
X125780877Y-112124511D01*
X125782291Y-112125927D01*
X125785120Y-112127340D01*
X125786536Y-112128754D01*
X125789362Y-112130168D01*
X125790777Y-112131582D01*
X125792898Y-112133703D01*
X126146448Y-112487255D01*
X126148573Y-112489378D01*
X126149986Y-112490795D01*
X126151402Y-112493623D01*
X126152815Y-112495035D01*
X126154230Y-112497863D01*
X126155641Y-112499276D01*
X126157058Y-112502106D01*
X126157765Y-112504227D01*
X126159179Y-112507056D01*
X126159180Y-112509886D01*
X126159886Y-112512005D01*
X126159885Y-112514835D01*
X126160592Y-112516955D01*
X126160595Y-112519785D01*
X126160594Y-112522611D01*
X126160594Y-112525440D01*
X126160590Y-112528270D01*
X126159886Y-112530391D01*
X126159886Y-112533217D01*
X126159179Y-112535340D01*
X126159181Y-112538167D01*
X126157765Y-112540997D01*
X126157058Y-112543118D01*
X126155644Y-112545947D01*
X126154231Y-112547360D01*
X126152815Y-112550189D01*
X126151401Y-112551604D01*
X126149987Y-112554432D01*
X126148574Y-112555843D01*
X126146452Y-112557967D01*
X126005028Y-112699387D01*
X126002910Y-112701512D01*
X126001495Y-112702927D01*
X125998666Y-112704339D01*
X125997250Y-112705750D01*
X125994425Y-112707167D01*
X125993009Y-112708581D01*
X125990181Y-112709996D01*
X125988062Y-112710703D01*
X125985231Y-112712117D01*
X125982400Y-112712116D01*
X125980281Y-112712824D01*
X125977449Y-112712825D01*
X125975331Y-112713532D01*
X125972504Y-112713531D01*
X125969675Y-112713531D01*
X125966843Y-112713530D01*
X125964018Y-112713530D01*
X125961896Y-112712824D01*
X125959067Y-112712824D01*
X125956944Y-112712118D01*
X125954123Y-112712117D01*
X125951288Y-112710703D01*
X125949169Y-112709995D01*
X125946341Y-112708579D01*
X125944926Y-112707167D01*
X125942097Y-112705753D01*
X125940683Y-112704342D01*
X125937853Y-112702924D01*
X125936442Y-112701512D01*
X125934316Y-112699391D01*
X125580767Y-112345835D01*
X125578643Y-112343717D01*
X125577231Y-112342301D01*
X125575816Y-112339472D01*
X125574403Y-112338058D01*
X125572986Y-112335227D01*
X125571574Y-112333813D01*
X125570160Y-112330988D01*
X125569451Y-112328867D01*
X125568039Y-112326033D01*
X125568038Y-112323208D01*
X125567329Y-112321085D01*
X125567332Y-112318262D01*
X125566622Y-112316137D01*
X125566627Y-112313308D01*
X125566624Y-112310480D01*
X125566624Y-112307652D01*
X125566624Y-112304823D01*
X125567327Y-112302702D01*
X125567331Y-112299874D01*
X125568041Y-112297753D01*
X125568038Y-112294924D01*
X125569451Y-112292096D01*
X125570158Y-112289974D01*
X125571577Y-112287146D01*
X125572988Y-112285730D01*
X125574404Y-112282905D01*
X125575815Y-112281491D01*
X125577228Y-112278662D01*
X125578642Y-112277245D01*
X125580764Y-112275122D01*
X125722187Y-112133707D01*
X125724311Y-112131581D01*
X125725723Y-112130168D01*
X125728550Y-112128754D01*
X125729962Y-112127340D01*
X125732793Y-112125925D01*
X125734208Y-112124511D01*
X125737036Y-112123094D01*
X125739158Y-112122390D01*
X125741990Y-112120975D01*
X125744816Y-112120977D01*
X125746936Y-112120271D01*
X125749764Y-112120269D01*
X125751885Y-112119561D01*
X125754713Y-112119562D01*
X125757543Y-112119561D01*
X125760372Y-112119560D01*
X125763199Y-112119562D01*
G37*
X126540309Y-112564331D02*
X126545964Y-112564329D01*
X126550916Y-112565036D01*
X126556575Y-112566450D01*
X126561523Y-112567160D01*
X126566472Y-112569281D01*
X126570717Y-112570697D01*
X126575665Y-112572817D01*
X126580615Y-112574938D01*
X126585563Y-112577062D01*
X126589807Y-112579890D01*
X126594049Y-112582716D01*
X126598291Y-112586957D01*
X126602535Y-112589790D01*
X126606072Y-112593321D01*
X127171758Y-113159008D01*
X127175291Y-113162546D01*
X127178122Y-113166788D01*
X127182363Y-113171031D01*
X127185189Y-113175270D01*
X127188021Y-113179512D01*
X127190141Y-113184464D01*
X127192262Y-113189414D01*
X127194383Y-113194363D01*
X127195797Y-113198606D01*
X127197919Y-113203556D01*
X127198628Y-113208503D01*
X127200038Y-113214161D01*
X127200748Y-113219112D01*
X127200747Y-113224769D01*
X127201454Y-113229720D01*
X127200745Y-113234668D01*
X127200748Y-113240325D01*
X127200043Y-113245275D01*
X127198628Y-113250936D01*
X127197921Y-113255884D01*
X127195798Y-113260832D01*
X127194383Y-113265076D01*
X127192266Y-113270024D01*
X127190139Y-113274974D01*
X127188015Y-113279925D01*
X127185191Y-113284168D01*
X127182362Y-113288410D01*
X127178117Y-113292653D01*
X127175291Y-113296891D01*
X127171757Y-113300433D01*
X126181807Y-114290379D01*
X126178269Y-114293911D01*
X126174030Y-114296743D01*
X126169788Y-114300985D01*
X126165547Y-114303815D01*
X126161298Y-114306642D01*
X126156351Y-114308762D01*
X126151399Y-114310882D01*
X126146451Y-114313006D01*
X126142208Y-114314419D01*
X126137257Y-114316539D01*
X126132310Y-114317250D01*
X126126651Y-114318661D01*
X126121700Y-114319372D01*
X126116044Y-114319371D01*
X126111097Y-114320078D01*
X126106147Y-114319371D01*
X126100492Y-114319373D01*
X126095540Y-114318666D01*
X126089881Y-114317252D01*
X126084933Y-114316542D01*
X126079984Y-114314421D01*
X126075739Y-114313005D01*
X126070791Y-114310885D01*
X126065841Y-114308764D01*
X126060893Y-114306640D01*
X126056649Y-114303812D01*
X126052407Y-114300986D01*
X126048165Y-114296745D01*
X126043921Y-114293912D01*
X126040384Y-114290381D01*
X125474698Y-113724694D01*
X125471165Y-113721156D01*
X125468334Y-113716914D01*
X125464093Y-113712671D01*
X125461267Y-113708432D01*
X125458435Y-113704190D01*
X125456315Y-113699238D01*
X125454194Y-113694288D01*
X125452073Y-113689339D01*
X125450659Y-113685096D01*
X125448537Y-113680146D01*
X125447828Y-113675199D01*
X125446418Y-113669541D01*
X125445708Y-113664590D01*
X125445709Y-113658933D01*
X125445002Y-113653982D01*
X125445711Y-113649034D01*
X125445708Y-113643377D01*
X125446413Y-113638427D01*
X125447828Y-113632766D01*
X125448535Y-113627818D01*
X125450658Y-113622870D01*
X125452073Y-113618626D01*
X125454190Y-113613678D01*
X125456317Y-113608728D01*
X125458441Y-113603777D01*
X125461265Y-113599534D01*
X125464094Y-113595292D01*
X125468339Y-113591049D01*
X125471165Y-113586811D01*
X125474699Y-113583269D01*
X126464649Y-112593323D01*
X126468187Y-112589791D01*
X126472426Y-112586959D01*
X126476668Y-112582717D01*
X126480909Y-112579887D01*
X126485158Y-112577060D01*
X126490105Y-112574940D01*
X126495057Y-112572820D01*
X126500005Y-112570696D01*
X126504248Y-112569283D01*
X126509199Y-112567163D01*
X126514146Y-112566452D01*
X126519805Y-112565041D01*
X126524756Y-112564330D01*
X126530412Y-112564331D01*
X126535359Y-112563624D01*
X126540309Y-112564331D01*
G36*
X126540309Y-112564331D02*
G01*
X126545964Y-112564329D01*
X126550916Y-112565036D01*
X126556575Y-112566450D01*
X126561523Y-112567160D01*
X126566472Y-112569281D01*
X126570717Y-112570697D01*
X126575665Y-112572817D01*
X126580615Y-112574938D01*
X126585563Y-112577062D01*
X126589807Y-112579890D01*
X126594049Y-112582716D01*
X126598291Y-112586957D01*
X126602535Y-112589790D01*
X126606072Y-112593321D01*
X127171758Y-113159008D01*
X127175291Y-113162546D01*
X127178122Y-113166788D01*
X127182363Y-113171031D01*
X127185189Y-113175270D01*
X127188021Y-113179512D01*
X127190141Y-113184464D01*
X127192262Y-113189414D01*
X127194383Y-113194363D01*
X127195797Y-113198606D01*
X127197919Y-113203556D01*
X127198628Y-113208503D01*
X127200038Y-113214161D01*
X127200748Y-113219112D01*
X127200747Y-113224769D01*
X127201454Y-113229720D01*
X127200745Y-113234668D01*
X127200748Y-113240325D01*
X127200043Y-113245275D01*
X127198628Y-113250936D01*
X127197921Y-113255884D01*
X127195798Y-113260832D01*
X127194383Y-113265076D01*
X127192266Y-113270024D01*
X127190139Y-113274974D01*
X127188015Y-113279925D01*
X127185191Y-113284168D01*
X127182362Y-113288410D01*
X127178117Y-113292653D01*
X127175291Y-113296891D01*
X127171757Y-113300433D01*
X126181807Y-114290379D01*
X126178269Y-114293911D01*
X126174030Y-114296743D01*
X126169788Y-114300985D01*
X126165547Y-114303815D01*
X126161298Y-114306642D01*
X126156351Y-114308762D01*
X126151399Y-114310882D01*
X126146451Y-114313006D01*
X126142208Y-114314419D01*
X126137257Y-114316539D01*
X126132310Y-114317250D01*
X126126651Y-114318661D01*
X126121700Y-114319372D01*
X126116044Y-114319371D01*
X126111097Y-114320078D01*
X126106147Y-114319371D01*
X126100492Y-114319373D01*
X126095540Y-114318666D01*
X126089881Y-114317252D01*
X126084933Y-114316542D01*
X126079984Y-114314421D01*
X126075739Y-114313005D01*
X126070791Y-114310885D01*
X126065841Y-114308764D01*
X126060893Y-114306640D01*
X126056649Y-114303812D01*
X126052407Y-114300986D01*
X126048165Y-114296745D01*
X126043921Y-114293912D01*
X126040384Y-114290381D01*
X125474698Y-113724694D01*
X125471165Y-113721156D01*
X125468334Y-113716914D01*
X125464093Y-113712671D01*
X125461267Y-113708432D01*
X125458435Y-113704190D01*
X125456315Y-113699238D01*
X125454194Y-113694288D01*
X125452073Y-113689339D01*
X125450659Y-113685096D01*
X125448537Y-113680146D01*
X125447828Y-113675199D01*
X125446418Y-113669541D01*
X125445708Y-113664590D01*
X125445709Y-113658933D01*
X125445002Y-113653982D01*
X125445711Y-113649034D01*
X125445708Y-113643377D01*
X125446413Y-113638427D01*
X125447828Y-113632766D01*
X125448535Y-113627818D01*
X125450658Y-113622870D01*
X125452073Y-113618626D01*
X125454190Y-113613678D01*
X125456317Y-113608728D01*
X125458441Y-113603777D01*
X125461265Y-113599534D01*
X125464094Y-113595292D01*
X125468339Y-113591049D01*
X125471165Y-113586811D01*
X125474699Y-113583269D01*
X126464649Y-112593323D01*
X126468187Y-112589791D01*
X126472426Y-112586959D01*
X126476668Y-112582717D01*
X126480909Y-112579887D01*
X126485158Y-112577060D01*
X126490105Y-112574940D01*
X126495057Y-112572820D01*
X126500005Y-112570696D01*
X126504248Y-112569283D01*
X126509199Y-112567163D01*
X126514146Y-112566452D01*
X126519805Y-112565041D01*
X126524756Y-112564330D01*
X126530412Y-112564331D01*
X126535359Y-112563624D01*
X126540309Y-112564331D01*
G37*
X125482474Y-112403111D02*
X125485309Y-112403111D01*
X125487427Y-112403818D01*
X125490256Y-112403816D01*
X125493087Y-112405233D01*
X125495206Y-112405940D01*
X125498031Y-112407353D01*
X125499452Y-112408769D01*
X125502277Y-112410182D01*
X125503691Y-112411599D01*
X125506520Y-112413011D01*
X125507932Y-112414426D01*
X125510055Y-112416546D01*
X125863609Y-112770099D01*
X125865730Y-112772221D01*
X125867144Y-112773635D01*
X125868562Y-112776464D01*
X125869973Y-112777878D01*
X125871387Y-112780704D01*
X125872801Y-112782120D01*
X125874215Y-112784950D01*
X125874922Y-112787070D01*
X125876340Y-112789898D01*
X125876339Y-112792725D01*
X125877044Y-112794846D01*
X125877044Y-112797677D01*
X125877751Y-112799797D01*
X125877750Y-112802629D01*
X125877748Y-112805455D01*
X125877750Y-112808284D01*
X125877750Y-112811110D01*
X125877040Y-112813232D01*
X125877042Y-112816061D01*
X125876337Y-112818183D01*
X125876333Y-112821011D01*
X125874922Y-112823838D01*
X125874215Y-112825961D01*
X125872801Y-112828789D01*
X125871387Y-112830204D01*
X125869973Y-112833032D01*
X125868559Y-112834446D01*
X125867144Y-112837275D01*
X125865728Y-112838689D01*
X125863609Y-112840808D01*
X125722186Y-112982233D01*
X125720066Y-112984353D01*
X125718652Y-112985766D01*
X125715825Y-112987178D01*
X125714409Y-112988596D01*
X125711581Y-112990010D01*
X125710165Y-112991424D01*
X125707338Y-112992838D01*
X125705217Y-112993544D01*
X125702391Y-112994962D01*
X125699560Y-112994960D01*
X125697439Y-112995664D01*
X125694608Y-112995670D01*
X125692487Y-112996374D01*
X125689661Y-112996374D01*
X125686831Y-112996373D01*
X125684005Y-112996375D01*
X125681175Y-112996374D01*
X125679054Y-112995667D01*
X125676223Y-112995666D01*
X125674103Y-112994962D01*
X125671278Y-112994957D01*
X125668447Y-112993545D01*
X125666325Y-112992835D01*
X125663497Y-112991424D01*
X125662081Y-112990013D01*
X125659255Y-112988596D01*
X125657838Y-112987184D01*
X125655012Y-112985767D01*
X125653599Y-112984355D01*
X125651476Y-112982229D01*
X125297923Y-112628678D01*
X125295802Y-112626557D01*
X125294388Y-112625141D01*
X125292974Y-112622315D01*
X125291559Y-112620900D01*
X125290148Y-112618074D01*
X125288730Y-112616660D01*
X125287317Y-112613829D01*
X125286608Y-112611703D01*
X125285193Y-112608879D01*
X125285193Y-112606051D01*
X125284490Y-112603931D01*
X125284490Y-112601101D01*
X125283780Y-112598981D01*
X125283782Y-112596150D01*
X125283782Y-112593324D01*
X125283781Y-112590494D01*
X125283783Y-112587665D01*
X125284486Y-112585548D01*
X125284489Y-112582713D01*
X125285195Y-112580595D01*
X125285195Y-112577767D01*
X125286611Y-112574940D01*
X125287317Y-112572817D01*
X125288730Y-112569990D01*
X125290147Y-112568573D01*
X125291559Y-112565746D01*
X125292971Y-112564332D01*
X125294385Y-112561503D01*
X125295801Y-112560088D01*
X125297922Y-112557969D01*
X125439346Y-112416548D01*
X125441467Y-112414425D01*
X125442879Y-112413010D01*
X125445706Y-112411599D01*
X125447123Y-112410182D01*
X125449953Y-112408766D01*
X125451363Y-112407357D01*
X125454196Y-112405937D01*
X125456315Y-112405232D01*
X125459141Y-112403821D01*
X125461972Y-112403818D01*
X125464093Y-112403111D01*
X125466918Y-112403110D01*
X125469045Y-112402406D01*
X125471871Y-112402404D01*
X125474700Y-112402404D01*
X125477529Y-112402403D01*
X125480356Y-112402403D01*
X125482474Y-112403111D01*
G36*
X125482474Y-112403111D02*
G01*
X125485309Y-112403111D01*
X125487427Y-112403818D01*
X125490256Y-112403816D01*
X125493087Y-112405233D01*
X125495206Y-112405940D01*
X125498031Y-112407353D01*
X125499452Y-112408769D01*
X125502277Y-112410182D01*
X125503691Y-112411599D01*
X125506520Y-112413011D01*
X125507932Y-112414426D01*
X125510055Y-112416546D01*
X125863609Y-112770099D01*
X125865730Y-112772221D01*
X125867144Y-112773635D01*
X125868562Y-112776464D01*
X125869973Y-112777878D01*
X125871387Y-112780704D01*
X125872801Y-112782120D01*
X125874215Y-112784950D01*
X125874922Y-112787070D01*
X125876340Y-112789898D01*
X125876339Y-112792725D01*
X125877044Y-112794846D01*
X125877044Y-112797677D01*
X125877751Y-112799797D01*
X125877750Y-112802629D01*
X125877748Y-112805455D01*
X125877750Y-112808284D01*
X125877750Y-112811110D01*
X125877040Y-112813232D01*
X125877042Y-112816061D01*
X125876337Y-112818183D01*
X125876333Y-112821011D01*
X125874922Y-112823838D01*
X125874215Y-112825961D01*
X125872801Y-112828789D01*
X125871387Y-112830204D01*
X125869973Y-112833032D01*
X125868559Y-112834446D01*
X125867144Y-112837275D01*
X125865728Y-112838689D01*
X125863609Y-112840808D01*
X125722186Y-112982233D01*
X125720066Y-112984353D01*
X125718652Y-112985766D01*
X125715825Y-112987178D01*
X125714409Y-112988596D01*
X125711581Y-112990010D01*
X125710165Y-112991424D01*
X125707338Y-112992838D01*
X125705217Y-112993544D01*
X125702391Y-112994962D01*
X125699560Y-112994960D01*
X125697439Y-112995664D01*
X125694608Y-112995670D01*
X125692487Y-112996374D01*
X125689661Y-112996374D01*
X125686831Y-112996373D01*
X125684005Y-112996375D01*
X125681175Y-112996374D01*
X125679054Y-112995667D01*
X125676223Y-112995666D01*
X125674103Y-112994962D01*
X125671278Y-112994957D01*
X125668447Y-112993545D01*
X125666325Y-112992835D01*
X125663497Y-112991424D01*
X125662081Y-112990013D01*
X125659255Y-112988596D01*
X125657838Y-112987184D01*
X125655012Y-112985767D01*
X125653599Y-112984355D01*
X125651476Y-112982229D01*
X125297923Y-112628678D01*
X125295802Y-112626557D01*
X125294388Y-112625141D01*
X125292974Y-112622315D01*
X125291559Y-112620900D01*
X125290148Y-112618074D01*
X125288730Y-112616660D01*
X125287317Y-112613829D01*
X125286608Y-112611703D01*
X125285193Y-112608879D01*
X125285193Y-112606051D01*
X125284490Y-112603931D01*
X125284490Y-112601101D01*
X125283780Y-112598981D01*
X125283782Y-112596150D01*
X125283782Y-112593324D01*
X125283781Y-112590494D01*
X125283783Y-112587665D01*
X125284486Y-112585548D01*
X125284489Y-112582713D01*
X125285195Y-112580595D01*
X125285195Y-112577767D01*
X125286611Y-112574940D01*
X125287317Y-112572817D01*
X125288730Y-112569990D01*
X125290147Y-112568573D01*
X125291559Y-112565746D01*
X125292971Y-112564332D01*
X125294385Y-112561503D01*
X125295801Y-112560088D01*
X125297922Y-112557969D01*
X125439346Y-112416548D01*
X125441467Y-112414425D01*
X125442879Y-112413010D01*
X125445706Y-112411599D01*
X125447123Y-112410182D01*
X125449953Y-112408766D01*
X125451363Y-112407357D01*
X125454196Y-112405937D01*
X125456315Y-112405232D01*
X125459141Y-112403821D01*
X125461972Y-112403818D01*
X125464093Y-112403111D01*
X125466918Y-112403110D01*
X125469045Y-112402406D01*
X125471871Y-112402404D01*
X125474700Y-112402404D01*
X125477529Y-112402403D01*
X125480356Y-112402403D01*
X125482474Y-112403111D01*
G37*
X125197514Y-112685247D02*
X125199636Y-112685955D01*
X125202467Y-112685955D01*
X125204587Y-112686659D01*
X125207410Y-112686662D01*
X125210243Y-112688076D01*
X125212363Y-112688783D01*
X125215190Y-112690197D01*
X125216604Y-112691610D01*
X125219435Y-112693024D01*
X125220845Y-112694440D01*
X125223679Y-112695853D01*
X125225090Y-112697271D01*
X125227215Y-112699387D01*
X125580762Y-113052943D01*
X125582886Y-113055065D01*
X125584300Y-113056476D01*
X125585718Y-113059306D01*
X125587130Y-113060720D01*
X125588544Y-113063549D01*
X125589961Y-113064964D01*
X125591372Y-113067792D01*
X125592080Y-113069914D01*
X125593491Y-113072740D01*
X125593492Y-113075571D01*
X125594201Y-113077690D01*
X125594201Y-113080519D01*
X125594909Y-113082641D01*
X125594908Y-113085471D01*
X125594908Y-113088298D01*
X125594906Y-113091124D01*
X125594907Y-113093956D01*
X125594202Y-113096072D01*
X125594201Y-113098904D01*
X125593497Y-113101027D01*
X125593494Y-113103854D01*
X125592080Y-113106683D01*
X125591373Y-113108804D01*
X125589958Y-113111632D01*
X125588541Y-113113047D01*
X125587128Y-113115874D01*
X125585716Y-113117289D01*
X125584303Y-113120115D01*
X125582886Y-113121533D01*
X125580766Y-113123653D01*
X125439342Y-113265073D01*
X125437223Y-113267196D01*
X125435809Y-113268610D01*
X125432981Y-113270024D01*
X125431567Y-113271436D01*
X125428737Y-113272852D01*
X125427324Y-113274267D01*
X125424495Y-113275681D01*
X125422374Y-113276388D01*
X125419545Y-113277803D01*
X125416717Y-113277802D01*
X125414594Y-113278509D01*
X125411768Y-113278510D01*
X125409647Y-113279213D01*
X125406820Y-113279215D01*
X125403988Y-113279217D01*
X125401160Y-113279219D01*
X125398330Y-113279219D01*
X125396212Y-113278509D01*
X125393382Y-113278509D01*
X125391262Y-113277802D01*
X125388433Y-113277802D01*
X125385604Y-113276388D01*
X125383483Y-113275681D01*
X125380655Y-113274267D01*
X125379240Y-113272852D01*
X125376412Y-113271438D01*
X125374998Y-113270024D01*
X125372172Y-113268608D01*
X125370756Y-113267195D01*
X125368637Y-113265075D01*
X125015080Y-112911521D01*
X125012959Y-112909400D01*
X125011542Y-112907987D01*
X125010130Y-112905159D01*
X125008717Y-112903743D01*
X125007302Y-112900914D01*
X125005888Y-112899500D01*
X125004474Y-112896672D01*
X125003767Y-112894550D01*
X125002351Y-112891726D01*
X125002352Y-112888891D01*
X125001645Y-112886772D01*
X125001649Y-112883946D01*
X125000939Y-112881822D01*
X125000937Y-112878993D01*
X125000938Y-112876166D01*
X125000937Y-112873334D01*
X125000939Y-112870512D01*
X125001646Y-112868387D01*
X125001648Y-112865559D01*
X125002350Y-112863439D01*
X125002352Y-112860609D01*
X125003767Y-112857781D01*
X125004471Y-112855659D01*
X125005888Y-112852831D01*
X125007302Y-112851417D01*
X125008719Y-112848591D01*
X125010131Y-112847174D01*
X125011544Y-112844347D01*
X125012962Y-112842932D01*
X125015079Y-112840814D01*
X125156503Y-112699391D01*
X125158623Y-112697265D01*
X125160040Y-112695856D01*
X125162868Y-112694440D01*
X125164279Y-112693022D01*
X125167106Y-112691611D01*
X125168526Y-112690196D01*
X125171351Y-112688782D01*
X125173473Y-112688074D01*
X125176301Y-112686661D01*
X125179129Y-112686661D01*
X125181251Y-112685954D01*
X125184080Y-112685953D01*
X125186198Y-112685247D01*
X125189029Y-112685247D01*
X125191857Y-112685247D01*
X125194683Y-112685244D01*
X125197514Y-112685247D01*
G36*
X125197514Y-112685247D02*
G01*
X125199636Y-112685955D01*
X125202467Y-112685955D01*
X125204587Y-112686659D01*
X125207410Y-112686662D01*
X125210243Y-112688076D01*
X125212363Y-112688783D01*
X125215190Y-112690197D01*
X125216604Y-112691610D01*
X125219435Y-112693024D01*
X125220845Y-112694440D01*
X125223679Y-112695853D01*
X125225090Y-112697271D01*
X125227215Y-112699387D01*
X125580762Y-113052943D01*
X125582886Y-113055065D01*
X125584300Y-113056476D01*
X125585718Y-113059306D01*
X125587130Y-113060720D01*
X125588544Y-113063549D01*
X125589961Y-113064964D01*
X125591372Y-113067792D01*
X125592080Y-113069914D01*
X125593491Y-113072740D01*
X125593492Y-113075571D01*
X125594201Y-113077690D01*
X125594201Y-113080519D01*
X125594909Y-113082641D01*
X125594908Y-113085471D01*
X125594908Y-113088298D01*
X125594906Y-113091124D01*
X125594907Y-113093956D01*
X125594202Y-113096072D01*
X125594201Y-113098904D01*
X125593497Y-113101027D01*
X125593494Y-113103854D01*
X125592080Y-113106683D01*
X125591373Y-113108804D01*
X125589958Y-113111632D01*
X125588541Y-113113047D01*
X125587128Y-113115874D01*
X125585716Y-113117289D01*
X125584303Y-113120115D01*
X125582886Y-113121533D01*
X125580766Y-113123653D01*
X125439342Y-113265073D01*
X125437223Y-113267196D01*
X125435809Y-113268610D01*
X125432981Y-113270024D01*
X125431567Y-113271436D01*
X125428737Y-113272852D01*
X125427324Y-113274267D01*
X125424495Y-113275681D01*
X125422374Y-113276388D01*
X125419545Y-113277803D01*
X125416717Y-113277802D01*
X125414594Y-113278509D01*
X125411768Y-113278510D01*
X125409647Y-113279213D01*
X125406820Y-113279215D01*
X125403988Y-113279217D01*
X125401160Y-113279219D01*
X125398330Y-113279219D01*
X125396212Y-113278509D01*
X125393382Y-113278509D01*
X125391262Y-113277802D01*
X125388433Y-113277802D01*
X125385604Y-113276388D01*
X125383483Y-113275681D01*
X125380655Y-113274267D01*
X125379240Y-113272852D01*
X125376412Y-113271438D01*
X125374998Y-113270024D01*
X125372172Y-113268608D01*
X125370756Y-113267195D01*
X125368637Y-113265075D01*
X125015080Y-112911521D01*
X125012959Y-112909400D01*
X125011542Y-112907987D01*
X125010130Y-112905159D01*
X125008717Y-112903743D01*
X125007302Y-112900914D01*
X125005888Y-112899500D01*
X125004474Y-112896672D01*
X125003767Y-112894550D01*
X125002351Y-112891726D01*
X125002352Y-112888891D01*
X125001645Y-112886772D01*
X125001649Y-112883946D01*
X125000939Y-112881822D01*
X125000937Y-112878993D01*
X125000938Y-112876166D01*
X125000937Y-112873334D01*
X125000939Y-112870512D01*
X125001646Y-112868387D01*
X125001648Y-112865559D01*
X125002350Y-112863439D01*
X125002352Y-112860609D01*
X125003767Y-112857781D01*
X125004471Y-112855659D01*
X125005888Y-112852831D01*
X125007302Y-112851417D01*
X125008719Y-112848591D01*
X125010131Y-112847174D01*
X125011544Y-112844347D01*
X125012962Y-112842932D01*
X125015079Y-112840814D01*
X125156503Y-112699391D01*
X125158623Y-112697265D01*
X125160040Y-112695856D01*
X125162868Y-112694440D01*
X125164279Y-112693022D01*
X125167106Y-112691611D01*
X125168526Y-112690196D01*
X125171351Y-112688782D01*
X125173473Y-112688074D01*
X125176301Y-112686661D01*
X125179129Y-112686661D01*
X125181251Y-112685954D01*
X125184080Y-112685953D01*
X125186198Y-112685247D01*
X125189029Y-112685247D01*
X125191857Y-112685247D01*
X125194683Y-112685244D01*
X125197514Y-112685247D01*
G37*
X124914673Y-112968089D02*
X124916793Y-112968796D01*
X124919620Y-112968794D01*
X124921744Y-112969505D01*
X124924571Y-112969504D01*
X124927396Y-112970919D01*
X124929521Y-112971624D01*
X124932350Y-112973040D01*
X124933763Y-112974453D01*
X124936593Y-112975868D01*
X124938003Y-112977282D01*
X124940835Y-112978695D01*
X124942248Y-112980110D01*
X124944368Y-112982231D01*
X125297923Y-113335784D01*
X125300044Y-113337906D01*
X125301458Y-113339320D01*
X125302873Y-113342149D01*
X125304288Y-113343561D01*
X125305702Y-113346391D01*
X125307115Y-113347807D01*
X125308530Y-113350634D01*
X125309238Y-113352756D01*
X125310651Y-113355584D01*
X125310649Y-113358412D01*
X125311359Y-113360533D01*
X125311357Y-113363365D01*
X125312066Y-113365484D01*
X125312062Y-113368310D01*
X125312065Y-113371140D01*
X125312066Y-113373972D01*
X125312064Y-113376796D01*
X125311361Y-113378918D01*
X125311358Y-113381743D01*
X125310651Y-113383868D01*
X125310652Y-113386696D01*
X125309237Y-113389525D01*
X125308531Y-113391644D01*
X125307116Y-113394475D01*
X125305701Y-113395887D01*
X125304287Y-113398717D01*
X125302873Y-113400132D01*
X125301456Y-113402963D01*
X125300044Y-113404375D01*
X125297924Y-113406496D01*
X125156501Y-113547919D01*
X125154378Y-113550039D01*
X125152966Y-113551453D01*
X125150141Y-113552867D01*
X125148722Y-113554283D01*
X125145895Y-113555695D01*
X125144481Y-113557109D01*
X125141651Y-113558522D01*
X125139531Y-113559230D01*
X125136702Y-113560643D01*
X125133874Y-113560645D01*
X125131752Y-113561352D01*
X125128925Y-113561352D01*
X125126806Y-113562058D01*
X125123976Y-113562062D01*
X125121147Y-113562058D01*
X125118315Y-113562061D01*
X125115489Y-113562058D01*
X125113368Y-113561352D01*
X125110538Y-113561352D01*
X125108419Y-113560646D01*
X125105592Y-113560648D01*
X125102762Y-113559232D01*
X125100640Y-113558523D01*
X125097812Y-113557109D01*
X125096398Y-113555695D01*
X125093569Y-113554281D01*
X125092155Y-113552868D01*
X125089327Y-113551453D01*
X125087912Y-113550039D01*
X125085793Y-113547916D01*
X124732238Y-113194364D01*
X124730117Y-113192242D01*
X124728702Y-113190828D01*
X124727288Y-113188000D01*
X124725871Y-113186585D01*
X124724460Y-113183757D01*
X124723046Y-113182341D01*
X124721631Y-113179514D01*
X124720923Y-113177395D01*
X124719509Y-113174565D01*
X124719508Y-113171739D01*
X124718806Y-113169617D01*
X124718802Y-113166784D01*
X124718096Y-113164665D01*
X124718095Y-113161837D01*
X124718093Y-113159009D01*
X124718094Y-113156180D01*
X124718093Y-113153354D01*
X124718801Y-113151232D01*
X124718803Y-113148402D01*
X124719510Y-113146280D01*
X124719512Y-113143451D01*
X124720924Y-113140624D01*
X124721631Y-113138505D01*
X124723046Y-113135672D01*
X124724460Y-113134261D01*
X124725878Y-113131430D01*
X124727289Y-113130020D01*
X124728701Y-113127187D01*
X124730115Y-113125776D01*
X124732237Y-113123651D01*
X124873659Y-112982232D01*
X124875779Y-112980112D01*
X124877194Y-112978695D01*
X124880025Y-112977285D01*
X124881437Y-112975868D01*
X124884265Y-112974456D01*
X124885680Y-112973039D01*
X124888507Y-112971624D01*
X124890630Y-112970918D01*
X124893457Y-112969503D01*
X124896286Y-112969503D01*
X124898408Y-112968797D01*
X124901239Y-112968797D01*
X124903360Y-112968087D01*
X124906186Y-112968089D01*
X124909014Y-112968089D01*
X124911844Y-112968086D01*
X124914673Y-112968089D01*
G36*
X124914673Y-112968089D02*
G01*
X124916793Y-112968796D01*
X124919620Y-112968794D01*
X124921744Y-112969505D01*
X124924571Y-112969504D01*
X124927396Y-112970919D01*
X124929521Y-112971624D01*
X124932350Y-112973040D01*
X124933763Y-112974453D01*
X124936593Y-112975868D01*
X124938003Y-112977282D01*
X124940835Y-112978695D01*
X124942248Y-112980110D01*
X124944368Y-112982231D01*
X125297923Y-113335784D01*
X125300044Y-113337906D01*
X125301458Y-113339320D01*
X125302873Y-113342149D01*
X125304288Y-113343561D01*
X125305702Y-113346391D01*
X125307115Y-113347807D01*
X125308530Y-113350634D01*
X125309238Y-113352756D01*
X125310651Y-113355584D01*
X125310649Y-113358412D01*
X125311359Y-113360533D01*
X125311357Y-113363365D01*
X125312066Y-113365484D01*
X125312062Y-113368310D01*
X125312065Y-113371140D01*
X125312066Y-113373972D01*
X125312064Y-113376796D01*
X125311361Y-113378918D01*
X125311358Y-113381743D01*
X125310651Y-113383868D01*
X125310652Y-113386696D01*
X125309237Y-113389525D01*
X125308531Y-113391644D01*
X125307116Y-113394475D01*
X125305701Y-113395887D01*
X125304287Y-113398717D01*
X125302873Y-113400132D01*
X125301456Y-113402963D01*
X125300044Y-113404375D01*
X125297924Y-113406496D01*
X125156501Y-113547919D01*
X125154378Y-113550039D01*
X125152966Y-113551453D01*
X125150141Y-113552867D01*
X125148722Y-113554283D01*
X125145895Y-113555695D01*
X125144481Y-113557109D01*
X125141651Y-113558522D01*
X125139531Y-113559230D01*
X125136702Y-113560643D01*
X125133874Y-113560645D01*
X125131752Y-113561352D01*
X125128925Y-113561352D01*
X125126806Y-113562058D01*
X125123976Y-113562062D01*
X125121147Y-113562058D01*
X125118315Y-113562061D01*
X125115489Y-113562058D01*
X125113368Y-113561352D01*
X125110538Y-113561352D01*
X125108419Y-113560646D01*
X125105592Y-113560648D01*
X125102762Y-113559232D01*
X125100640Y-113558523D01*
X125097812Y-113557109D01*
X125096398Y-113555695D01*
X125093569Y-113554281D01*
X125092155Y-113552868D01*
X125089327Y-113551453D01*
X125087912Y-113550039D01*
X125085793Y-113547916D01*
X124732238Y-113194364D01*
X124730117Y-113192242D01*
X124728702Y-113190828D01*
X124727288Y-113188000D01*
X124725871Y-113186585D01*
X124724460Y-113183757D01*
X124723046Y-113182341D01*
X124721631Y-113179514D01*
X124720923Y-113177395D01*
X124719509Y-113174565D01*
X124719508Y-113171739D01*
X124718806Y-113169617D01*
X124718802Y-113166784D01*
X124718096Y-113164665D01*
X124718095Y-113161837D01*
X124718093Y-113159009D01*
X124718094Y-113156180D01*
X124718093Y-113153354D01*
X124718801Y-113151232D01*
X124718803Y-113148402D01*
X124719510Y-113146280D01*
X124719512Y-113143451D01*
X124720924Y-113140624D01*
X124721631Y-113138505D01*
X124723046Y-113135672D01*
X124724460Y-113134261D01*
X124725878Y-113131430D01*
X124727289Y-113130020D01*
X124728701Y-113127187D01*
X124730115Y-113125776D01*
X124732237Y-113123651D01*
X124873659Y-112982232D01*
X124875779Y-112980112D01*
X124877194Y-112978695D01*
X124880025Y-112977285D01*
X124881437Y-112975868D01*
X124884265Y-112974456D01*
X124885680Y-112973039D01*
X124888507Y-112971624D01*
X124890630Y-112970918D01*
X124893457Y-112969503D01*
X124896286Y-112969503D01*
X124898408Y-112968797D01*
X124901239Y-112968797D01*
X124903360Y-112968087D01*
X124906186Y-112968089D01*
X124909014Y-112968089D01*
X124911844Y-112968086D01*
X124914673Y-112968089D01*
G37*
%TD*%
D15*
%TO.C,H4*%
X125650000Y-137300000D03*
%TD*%
%TO.C,H3*%
X118450000Y-103250000D03*
%TD*%
%TO.C,H2*%
X76750000Y-131550000D03*
%TD*%
%TO.C,H1*%
X78850000Y-112500000D03*
%TD*%
D16*
%TO.C,J3*%
X91500000Y-100530000D03*
X91500000Y-101800000D03*
X90230000Y-100530000D03*
X90230000Y-101800000D03*
X88960000Y-100530000D03*
X88960000Y-101800000D03*
D17*
X92770000Y-102181000D03*
X92770000Y-100149000D03*
X87690000Y-101165000D03*
%TD*%
D18*
%TO.C,SW1*%
X109300000Y-101200000D03*
D19*
X111800000Y-101200000D03*
X114300000Y-101200000D03*
X109300000Y-104400000D03*
X111800000Y-104400000D03*
X114300000Y-104400000D03*
%TD*%
D20*
%TO.C,SW2*%
X74949999Y-127450000D03*
X74950001Y-118550001D03*
X78949999Y-127449999D03*
X78950001Y-118550000D03*
%TD*%
D21*
%TO.C,C2*%
X117675000Y-113890000D03*
X117675000Y-114850000D03*
%TD*%
%TO.C,C11*%
X111575000Y-113770000D03*
X111575000Y-114730000D03*
%TD*%
D22*
%TO.C,U4*%
X113025000Y-114850000D03*
X113025000Y-112950000D03*
X115300000Y-112950000D03*
X115300000Y-113900000D03*
X115300000Y-114850000D03*
%TD*%
D21*
%TO.C,C3*%
X116675000Y-113900001D03*
X116675000Y-114860001D03*
%TD*%
D23*
%TO.C,C5*%
X125429069Y-109444314D03*
X124949069Y-110275698D03*
%TD*%
D24*
%TO.C,R16*%
X127389375Y-116710624D03*
X128110625Y-115989376D03*
%TD*%
D25*
%TO.C,C1*%
X127350000Y-112050000D03*
X128028822Y-112728822D03*
%TD*%
D24*
%TO.C,R15*%
X126689375Y-116010624D03*
X127410625Y-115289376D03*
%TD*%
D26*
%TO.C,U3*%
X123400002Y-115685626D03*
X124350001Y-115685626D03*
X125300000Y-115685628D03*
X125300000Y-117960626D03*
X124350001Y-117960626D03*
X123400002Y-117960624D03*
%TD*%
D27*
%TO.C,R4*%
X90549999Y-108434999D03*
X90550001Y-107414999D03*
%TD*%
D28*
%TO.C,J5*%
X92550000Y-114200000D03*
X85950000Y-114199999D03*
D29*
X91250000Y-110324999D03*
X90250001Y-110325000D03*
X89250000Y-110324999D03*
X88250001Y-110324999D03*
X87250000Y-110324999D03*
%TD*%
D30*
%TO.C,R11*%
X83500001Y-113640000D03*
X83499999Y-114660000D03*
%TD*%
D27*
%TO.C,R12*%
X82499999Y-114660000D03*
X82500001Y-113640000D03*
%TD*%
D31*
%TO.C,R8*%
X83681877Y-105418130D03*
X82960627Y-106139378D03*
%TD*%
D27*
%TO.C,R5*%
X89549999Y-108434999D03*
X89550001Y-107414999D03*
%TD*%
D31*
%TO.C,R13*%
X82200000Y-105300000D03*
X82921250Y-104578752D03*
%TD*%
D32*
%TO.C,R2*%
X125180000Y-134299998D03*
X126200000Y-134300000D03*
%TD*%
D33*
%TO.C,Y2*%
X97550000Y-113050000D03*
X98950000Y-113050000D03*
%TD*%
D34*
%TO.C,C7*%
X100250000Y-112490000D03*
X100250000Y-113450000D03*
%TD*%
D35*
%TO.C,J2*%
X123000000Y-107800000D03*
X123000000Y-108799999D03*
X122999999Y-109800000D03*
D36*
X119125000Y-106499998D03*
X119125001Y-111099998D03*
%TD*%
D37*
%TO.C,J4*%
X104600000Y-122531250D03*
X103600000Y-122531250D03*
X102600000Y-122531250D03*
X101600000Y-122531250D03*
X100600000Y-122531250D03*
D38*
X105900000Y-118656250D03*
X99300000Y-118656250D03*
%TD*%
D32*
%TO.C,R1*%
X125090000Y-133199999D03*
X126110000Y-133200001D03*
%TD*%
D39*
%TO.C,C13*%
X105545000Y-112460000D03*
X106505000Y-112460000D03*
%TD*%
D40*
%TO.C,D3*%
X80821250Y-106728754D03*
X81507140Y-106042864D03*
%TD*%
D41*
%TO.C,R3*%
X107750000Y-113950000D03*
X105925000Y-113950000D03*
%TD*%
D42*
%TO.C,C9*%
X102725000Y-112460000D03*
X101765000Y-112460000D03*
%TD*%
D40*
%TO.C,D2*%
X81585361Y-107514648D03*
X82271251Y-106828758D03*
%TD*%
D42*
%TO.C,C10*%
X102742500Y-128206250D03*
X101782500Y-128206250D03*
%TD*%
D39*
%TO.C,C6*%
X103645000Y-112460000D03*
X104605000Y-112460000D03*
%TD*%
D43*
%TO.C,J1*%
X125820000Y-128780000D03*
X125820000Y-123000000D03*
D44*
X124745000Y-129090000D03*
X124745000Y-128290000D03*
D45*
X124745001Y-127140000D03*
X124745000Y-126140000D03*
X124745000Y-125640000D03*
X124745001Y-124640000D03*
D44*
X124745000Y-123490000D03*
X124745000Y-122690000D03*
X124745000Y-122690000D03*
X124745000Y-123490000D03*
D45*
X124745000Y-124140000D03*
X124745000Y-125140000D03*
X124745000Y-126640000D03*
X124745000Y-127640000D03*
D44*
X124745000Y-128290000D03*
X124745000Y-129090000D03*
D46*
X125320000Y-131000000D03*
X129250000Y-131000000D03*
X125320000Y-120780000D03*
X129250000Y-120780000D03*
%TD*%
D30*
%TO.C,R7*%
X95299999Y-113510000D03*
X95300001Y-112490000D03*
%TD*%
D47*
%TO.C,U2*%
X96500000Y-99950000D03*
X96499999Y-101050000D03*
X96500000Y-101850000D03*
X96500000Y-103450000D03*
X97400001Y-103850000D03*
X96500000Y-104250000D03*
X97400000Y-104650000D03*
X96500000Y-105050000D03*
X97400000Y-105449999D03*
X96500000Y-105850000D03*
X97400000Y-106250000D03*
X96499999Y-106650000D03*
X97400000Y-107050000D03*
X96500000Y-107450000D03*
D48*
X96350000Y-110850000D03*
X97149999Y-110850000D03*
X97950000Y-110850000D03*
X98750000Y-110850000D03*
X99150000Y-109950000D03*
X99550000Y-110850000D03*
X99949999Y-109950000D03*
X100350000Y-110850000D03*
X100750000Y-109950000D03*
X101150000Y-110849999D03*
X101550000Y-109950000D03*
X101950000Y-110850000D03*
X102350001Y-109950000D03*
X102750000Y-110850000D03*
X103150000Y-109950000D03*
X103550000Y-110850000D03*
X104350000Y-110850000D03*
X105150001Y-110850000D03*
X105950000Y-110850000D03*
D47*
X105800000Y-109850000D03*
X105800000Y-109050000D03*
X104900000Y-108650000D03*
X105800000Y-108249999D03*
X104900000Y-107850001D03*
X105800000Y-107450000D03*
X104900000Y-107050000D03*
X105800001Y-106650000D03*
X104900000Y-106250000D03*
X104900000Y-105449999D03*
X105800000Y-105050000D03*
X104900000Y-104650000D03*
X105800000Y-104250000D03*
X104899999Y-103850000D03*
X105800000Y-103450000D03*
X104900000Y-103050000D03*
X104900000Y-102250000D03*
X105800000Y-101850000D03*
X104900000Y-101450000D03*
X105800001Y-101050000D03*
X104900000Y-100650000D03*
X105800000Y-99950000D03*
D48*
X99150000Y-104250000D03*
X99950000Y-104250000D03*
X100750000Y-104250000D03*
X101550000Y-104250000D03*
X102350000Y-104250000D03*
X103150000Y-104250000D03*
%TD*%
D42*
%TO.C,C4*%
X102730000Y-113400000D03*
X101770000Y-113400000D03*
%TD*%
D49*
%TO.C,R10*%
X108400000Y-109050000D03*
X107380006Y-109049998D03*
%TD*%
D34*
%TO.C,C8*%
X96249997Y-112490001D03*
X96249997Y-113450001D03*
%TD*%
D30*
%TO.C,R6*%
X94899999Y-111260000D03*
X94900001Y-110240000D03*
%TD*%
D27*
%TO.C,R14*%
X75300001Y-114800000D03*
X75299999Y-115820000D03*
%TD*%
D49*
%TO.C,R9*%
X108409997Y-110000001D03*
X107390003Y-109999999D03*
%TD*%
D50*
%TO.C,U5*%
X101162500Y-125006250D03*
X101162500Y-125956250D03*
X101162500Y-126906250D03*
X103437500Y-126906250D03*
X103437500Y-125956250D03*
X103437500Y-125006250D03*
%TD*%
%LPD*%
M02*
